M48
; DRILL file KiCad 9.99.0-4890-gde912bdc9a date 2026-01-24T23:46:00-0800
; FORMAT={-:-/ absolute / metric / decimal}
; #@! TF.CreationDate,2026-01-24T23:46:00-08:00
; #@! TF.GenerationSoftware,Kicad,Pcbnew,9.99.0-4890-gde912bdc9a
; #@! TF.FileFunction,Plated,1,8,PTH
FMAT,2
METRIC
; #@! TA.AperFunction,Plated,PTH,ViaDrill
T1C0.200
; #@! TA.AperFunction,Plated,PTH,ComponentDrill
T2C0.200
; #@! TA.AperFunction,Plated,PTH,ViaDrill
T3C0.250
; #@! TA.AperFunction,Plated,PTH,ViaDrill
T4C0.300
; #@! TA.AperFunction,Plated,PTH,ComponentDrill
T5C1.000
%
G90
G05
T1
X106.2Y-54.25
X108.85Y-57.85
X110.037Y-56.662
X110.462Y-97.0
X112.25Y-93.5
X112.5Y-54.25
X113.0Y-74.0
X113.0Y-75.5
X113.436Y-89.906
X113.5Y-70.95
X113.5Y-71.55
X114.078Y-89.907
X114.51Y-98.74
X115.425Y-57.8
X116.0Y-57.8
X117.0Y-61.75
X118.012Y-54.737
X118.038Y-75.462
X118.288Y-70.962
X118.462Y-75.038
X118.5Y-62.0
X118.712Y-70.538
X119.8Y-91.85
X122.912Y-88.412
X124.1Y-88.4
X126.26Y-58.01
X127.12Y-94.87
X127.2Y-95.8
X129.481Y-59.269
X131.0Y-58.0
X131.0Y-63.0
X131.0Y-68.0
X131.0Y-70.0
X131.0Y-72.0
X131.0Y-74.0
X131.0Y-76.0
X131.0Y-78.0
X131.0Y-79.0
X132.0Y-61.0
X132.0Y-66.0
X132.0Y-68.0
X132.0Y-70.0
X132.0Y-72.0
X132.0Y-74.0
X132.0Y-76.0
X132.0Y-78.0
X133.0Y-59.0
X133.0Y-64.0
X133.0Y-68.0
X133.0Y-71.0
X133.0Y-73.0
X133.0Y-75.0
X133.0Y-77.0
X133.0Y-78.0
X133.0Y-79.0
X133.5Y-80.25
X134.0Y-62.0
X134.0Y-67.0
X134.0Y-68.0
X134.0Y-71.0
X134.0Y-73.0
X134.0Y-75.0
X134.0Y-77.0
X134.0Y-78.0
X134.0Y-79.0
X134.5Y-80.25
X135.0Y-60.0
X135.0Y-65.0
X135.0Y-68.0
X135.0Y-70.0
X135.0Y-72.0
X135.0Y-73.0
X135.0Y-74.0
X135.0Y-75.0
X135.0Y-76.0
X135.0Y-77.0
X135.5Y-80.25
X136.0Y-58.0
X136.0Y-63.0
X136.0Y-68.0
X136.0Y-70.0
X136.0Y-72.0
X136.0Y-73.0
X136.0Y-74.0
X136.0Y-75.0
X136.0Y-76.0
X136.0Y-78.0
X136.0Y-79.0
X136.0Y-87.2
X136.0Y-88.0
X136.0Y-93.6
X136.8Y-87.2
X136.8Y-88.0
X136.8Y-92.0
X136.8Y-92.8
X136.8Y-93.6
X137.0Y-61.0
X137.0Y-66.0
X137.0Y-68.0
X137.0Y-70.0
X137.0Y-71.0
X137.0Y-72.0
X137.0Y-73.0
X137.0Y-74.0
X137.0Y-75.0
X137.0Y-76.0
X137.0Y-77.0
X137.0Y-78.0
X137.0Y-79.0
X137.0Y-80.0
X137.2Y-86.6
X137.323Y-90.2
X137.6Y-87.2
X137.6Y-88.0
X137.6Y-92.0
X137.6Y-92.8
X137.6Y-93.6
X137.877Y-90.2
X138.0Y-59.0
X138.0Y-64.0
X138.0Y-68.0
X138.0Y-70.0
X138.0Y-71.0
X138.0Y-72.0
X138.0Y-73.0
X138.0Y-74.0
X138.0Y-75.0
X138.0Y-76.0
X138.0Y-77.0
X138.0Y-78.0
X138.0Y-79.0
X138.0Y-80.0
X138.4Y-87.2
X138.4Y-88.0
X138.4Y-88.8
X138.4Y-92.8
X138.4Y-93.6
X139.0Y-62.0
X139.0Y-67.0
X139.0Y-68.0
X139.0Y-70.0
X139.0Y-71.0
X139.0Y-72.0
X139.0Y-73.0
X139.0Y-74.0
X139.0Y-76.0
X139.0Y-78.0
X139.0Y-79.0
X139.0Y-80.0
X139.2Y-87.2
X139.2Y-88.0
X139.2Y-88.8
X139.2Y-92.0
X139.2Y-92.8
X139.2Y-93.6
X139.6Y-85.8
X139.75Y-90.723
X139.75Y-91.277
X140.0Y-60.0
X140.0Y-65.0
X140.0Y-68.0
X140.0Y-70.0
X140.0Y-71.0
X140.0Y-72.0
X140.0Y-73.0
X140.0Y-74.0
X140.0Y-76.0
X140.0Y-79.0
X140.0Y-87.2
X140.0Y-88.0
X140.0Y-88.8
X140.0Y-92.8
X140.0Y-93.6
X140.8Y-87.2
X140.8Y-88.0
X140.8Y-88.8
X140.8Y-92.8
X140.8Y-93.6
X141.0Y-58.0
X141.0Y-63.0
X141.0Y-68.0
X141.0Y-70.0
X141.0Y-73.0
X141.0Y-74.0
X141.6Y-87.2
X141.6Y-88.0
X141.6Y-88.8
X141.6Y-92.0
X141.6Y-92.8
X141.6Y-93.6
X142.0Y-77.0
X142.0Y-78.2
X143.0Y-61.0
X143.0Y-66.0
X143.0Y-68.0
X143.0Y-70.0
X143.0Y-73.0
X143.0Y-74.0
X143.0Y-77.0
X143.2Y-88.0
X143.2Y-88.8
X143.2Y-92.0
X143.2Y-92.8
X144.0Y-59.0
X144.0Y-64.0
X144.0Y-68.0
X144.0Y-70.0
X144.0Y-71.0
X144.0Y-72.0
X144.0Y-73.0
X144.0Y-74.0
X144.0Y-75.0
X144.0Y-80.0
X144.0Y-88.0
X144.0Y-88.8
X144.0Y-92.0
X144.0Y-92.8
X144.0Y-93.6
X144.5Y-57.8
X144.8Y-88.0
X144.8Y-92.0
X144.8Y-92.8
X145.0Y-62.0
X145.0Y-67.0
X145.0Y-68.0
X145.0Y-70.0
X145.0Y-71.0
X145.0Y-72.0
X145.0Y-73.0
X145.0Y-74.0
X145.0Y-77.8
X145.4Y-94.8
X145.6Y-87.2
X145.6Y-88.0
X145.6Y-92.0
X145.6Y-92.8
X145.6Y-93.6
X145.75Y-80.25
X146.0Y-60.0
X146.0Y-65.0
X146.0Y-67.0
X146.0Y-68.0
X146.0Y-70.0
X146.0Y-71.0
X146.0Y-72.0
X146.0Y-73.0
X146.0Y-74.0
X146.0Y-76.0
X146.0Y-77.0
X146.0Y-78.0
X146.0Y-79.0
X146.25Y-51.595
X146.4Y-87.2
X146.4Y-88.0
X146.4Y-92.0
X146.4Y-92.8
X146.4Y-93.6
X146.6Y-85.0
X147.0Y-58.0
X147.0Y-61.0
X147.0Y-63.0
X147.0Y-67.0
X147.0Y-68.0
X147.0Y-70.0
X147.0Y-71.0
X147.0Y-72.0
X147.0Y-73.0
X147.0Y-74.0
X147.0Y-77.0
X147.0Y-79.0
X147.2Y-87.2
X147.2Y-88.0
X147.2Y-88.8
X147.2Y-92.0
X147.2Y-92.8
X147.2Y-93.6
X148.0Y-61.0
X148.0Y-66.0
X148.0Y-67.0
X148.0Y-68.0
X148.0Y-70.0
X148.0Y-71.0
X148.0Y-72.0
X148.0Y-73.0
X148.0Y-77.0
X148.0Y-78.0
X148.0Y-87.2
X148.0Y-88.0
X148.0Y-92.0
X148.0Y-92.8
X148.0Y-93.6
X148.5Y-80.25
X148.75Y-91.25
X148.8Y-87.2
X148.8Y-88.0
X148.8Y-93.6
X149.0Y-59.0
X149.0Y-64.0
X149.0Y-68.0
X149.0Y-70.0
X149.0Y-75.0
X149.0Y-77.0
X149.0Y-78.0
X149.0Y-90.5
X149.25Y-89.75
X150.0Y-62.0
X150.0Y-67.0
X150.0Y-73.0
X150.0Y-75.0
X150.0Y-76.0
X150.0Y-77.0
X150.0Y-78.0
X151.0Y-59.0
X151.0Y-60.0
X151.0Y-65.0
X151.0Y-71.0
X151.0Y-76.0
X151.0Y-77.0
X151.0Y-78.0
X151.0Y-90.5
X151.75Y-89.0
X151.775Y-85.025
X152.0Y-58.0
X152.0Y-63.0
X152.0Y-68.0
X152.0Y-74.0
X152.0Y-77.0
X152.0Y-79.0
X152.6Y-88.2
X152.775Y-82.025
X153.0Y-61.0
X153.0Y-66.0
X153.0Y-72.0
X153.0Y-77.0
X153.25Y-54.13
X153.25Y-55.4
X153.8Y-76.8
X154.0Y-92.2
X154.2Y-81.4
X154.75Y-87.8
X154.8Y-89.2
X155.0Y-59.5
X155.0Y-77.0
X155.2Y-81.8
X156.0Y-82.6
X157.5Y-54.75
X158.25Y-48.0
X158.25Y-57.0
X158.25Y-58.25
X159.0Y-77.723
X159.0Y-78.277
X162.25Y-48.5
X163.0Y-57.75
T2
X121.712Y-90.075
X122.912Y-90.075
X124.112Y-90.075
T3
X105.0Y-54.75
X105.0Y-55.5
X105.95Y-56.95
X106.861Y-89.93
X107.6Y-89.928
X107.6Y-88.45
X107.85Y-91.6
X108.2Y-57.4
X108.5Y-87.05
X108.5Y-88.0
X108.65Y-92.0
X108.75Y-93.25
X108.8Y-52.6
X109.2Y-86.55
X109.4Y-52.6
X110.25Y-53.25
X110.5Y-93.5
X110.993Y-86.399
X111.25Y-93.5
X111.6Y-54.8
X111.6Y-55.4
X111.625Y-86.55
X112.25Y-92.5
X112.45Y-87.05
X112.5Y-88.0
X112.5Y-91.75
X112.55Y-56.95
X113.125Y-87.325
X113.162Y-91.3
X114.8Y-57.4
X115.45Y-52.55
X115.5Y-74.5
X116.6Y-53.4
X118.8Y-52.05
X118.8Y-56.95
X120.2Y-56.4
X121.5Y-53.25
X122.4Y-56.4
X124.4Y-56.2
X125.0Y-55.6
X125.12Y-54.52
X136.916Y-50.917
X137.74Y-53.54
X139.0Y-55.0
X142.2Y-54.4
X144.0Y-90.79
X145.0Y-53.6
X145.4Y-52.0
X146.0Y-55.4
X149.8Y-56.0
X150.0Y-59.0
X151.2Y-51.0
T4
X102.5Y-83.75
X102.5Y-87.475
X102.5Y-92.2
X102.5Y-95.75
X103.1Y-89.0
X103.1Y-90.5
X104.75Y-83.5
X104.75Y-96.0
X105.625Y-88.125
X105.625Y-91.35
X106.25Y-63.45
X106.45Y-61.95
X106.5Y-60.087
X106.5Y-83.5
X106.5Y-96.0
X107.25Y-64.35
X107.95Y-59.0
X107.95Y-61.7
X108.75Y-96.0
X108.975Y-84.775
X109.55Y-64.2
X109.75Y-96.0
X110.0Y-63.2
X110.5Y-69.0
X110.5Y-70.5
X110.5Y-72.0
X110.5Y-73.5
X110.5Y-75.0
X110.5Y-76.0
X111.25Y-96.0
X111.5Y-67.25
X112.0Y-84.775
X112.25Y-67.25
X112.25Y-96.0
X114.5Y-83.5
X114.5Y-96.0
X115.375Y-88.125
X115.375Y-91.375
X116.25Y-83.5
X116.25Y-96.0
X117.9Y-89.0
X117.9Y-90.5
X118.5Y-83.75
X118.5Y-87.475
X118.5Y-92.0
X118.5Y-95.75
X119.75Y-87.5
X119.8Y-89.8
X119.815Y-90.815
X120.5Y-85.25
X121.652Y-93.15
X122.7Y-86.6
X122.7Y-87.4
X123.512Y-62.262
X123.65Y-98.05
X125.025Y-60.775
X125.025Y-66.275
X125.4Y-97.85
X126.4Y-96.85
X128.75Y-60.25
X128.75Y-64.0
X128.75Y-65.75
X128.75Y-69.5
X131.75Y-53.75
X132.5Y-55.75
X135.725Y-55.05
X139.25Y-53.75
X140.0Y-55.75
X140.8Y-95.8
X141.4Y-96.4
X141.45Y-97.35
X143.225Y-55.05
X153.52Y-50.88
X155.25Y-64.25
X155.25Y-69.25
X155.95Y-67.475
X155.963Y-72.725
X157.25Y-65.75
X158.0Y-83.01
X158.01Y-79.99
X158.05Y-84.95
X158.75Y-69.775
X159.77Y-88.98
X161.5Y-88.0
X161.75Y-57.0
X161.75Y-59.5
X162.45Y-86.55
X162.49Y-79.99
X162.5Y-83.01
T5
X108.37Y-46.23
X108.37Y-48.77
X110.91Y-46.23
X110.91Y-48.77
X113.45Y-46.23
X113.45Y-48.77
X115.99Y-46.23
X115.99Y-48.77
X118.53Y-46.23
X118.53Y-48.77
X121.07Y-46.23
X121.07Y-48.77
X123.61Y-46.23
X123.61Y-48.77
X126.15Y-46.23
X126.15Y-48.77
X128.69Y-46.23
X128.69Y-48.77
X131.23Y-46.23
X131.23Y-48.77
X133.77Y-46.23
X133.77Y-48.77
X136.31Y-46.23
X136.31Y-48.77
X138.85Y-46.23
X138.85Y-48.77
X141.39Y-46.23
X141.39Y-48.77
X143.93Y-46.23
X143.93Y-48.77
X146.47Y-46.23
X146.47Y-48.77
X149.01Y-46.23
X149.01Y-48.77
X151.55Y-46.23
X151.55Y-48.77
X154.09Y-46.23
X154.09Y-48.77
X156.63Y-46.23
X156.63Y-48.77
M30
