G04 #@! TF.GenerationSoftware,KiCad,Pcbnew,9.99.0-4890-gde912bdc9a*
G04 #@! TF.CreationDate,2026-01-24T23:45:41-08:00*
G04 #@! TF.ProjectId,RPi-HwAB-1,5250692d-4877-4414-922d-312e6b696361,rev?*
G04 #@! TF.SameCoordinates,Original*
G04 #@! TF.FileFunction,Soldermask,Top*
G04 #@! TF.FilePolarity,Negative*
%FSLAX46Y46*%
G04 Gerber Fmt 4.6, Leading zero omitted, Abs format (unit mm)*
G04 Created by KiCad (PCBNEW 9.99.0-4890-gde912bdc9a) date 2026-01-24 23:45:41*
%MOMM*%
%LPD*%
G01*
G04 APERTURE LIST*
G04 Aperture macros list*
%AMRoundRect*
0 Rectangle with rounded corners*
0 $1 Rounding radius*
0 $2 $3 $4 $5 $6 $7 $8 $9 X,Y pos of 4 corners*
0 Add a 4 corners polygon primitive as box body*
4,1,4,$2,$3,$4,$5,$6,$7,$8,$9,$2,$3,0*
0 Add four circle primitives for the rounded corners*
1,1,$1+$1,$2,$3*
1,1,$1+$1,$4,$5*
1,1,$1+$1,$6,$7*
1,1,$1+$1,$8,$9*
0 Add four rect primitives between the rounded corners*
20,1,$1+$1,$2,$3,$4,$5,0*
20,1,$1+$1,$4,$5,$6,$7,0*
20,1,$1+$1,$6,$7,$8,$9,0*
20,1,$1+$1,$8,$9,$2,$3,0*%
G04 Aperture macros list end*
%ADD10C,0.010000*%
%ADD11RoundRect,0.245000X1.455000X-0.245000X1.455000X0.245000X-1.455000X0.245000X-1.455000X-0.245000X0*%
%ADD12RoundRect,0.135000X-0.135000X-0.185000X0.135000X-0.185000X0.135000X0.185000X-0.135000X0.185000X0*%
%ADD13RoundRect,0.140000X-0.170000X0.140000X-0.170000X-0.140000X0.170000X-0.140000X0.170000X0.140000X0*%
%ADD14RoundRect,0.135000X0.185000X-0.135000X0.185000X0.135000X-0.185000X0.135000X-0.185000X-0.135000X0*%
%ADD15RoundRect,0.245000X-1.455000X0.245000X-1.455000X-0.245000X1.455000X-0.245000X1.455000X0.245000X0*%
%ADD16RoundRect,0.135000X0.135000X0.185000X-0.135000X0.185000X-0.135000X-0.185000X0.135000X-0.185000X0*%
%ADD17RoundRect,0.140000X0.140000X0.170000X-0.140000X0.170000X-0.140000X-0.170000X0.140000X-0.170000X0*%
%ADD18RoundRect,0.250000X0.650000X-0.325000X0.650000X0.325000X-0.650000X0.325000X-0.650000X-0.325000X0*%
%ADD19RoundRect,0.225000X0.250000X-0.225000X0.250000X0.225000X-0.250000X0.225000X-0.250000X-0.225000X0*%
%ADD20RoundRect,0.135000X-0.185000X0.135000X-0.185000X-0.135000X0.185000X-0.135000X0.185000X0.135000X0*%
%ADD21C,1.000000*%
%ADD22RoundRect,0.218750X0.256250X-0.218750X0.256250X0.218750X-0.256250X0.218750X-0.256250X-0.218750X0*%
%ADD23RoundRect,0.250000X-0.625000X0.312500X-0.625000X-0.312500X0.625000X-0.312500X0.625000X0.312500X0*%
%ADD24RoundRect,0.250000X0.325000X0.650000X-0.325000X0.650000X-0.325000X-0.650000X0.325000X-0.650000X0*%
%ADD25RoundRect,0.225000X0.225000X0.250000X-0.225000X0.250000X-0.225000X-0.250000X0.225000X-0.250000X0*%
%ADD26C,0.520000*%
%ADD27RoundRect,0.218750X-0.256250X0.218750X-0.256250X-0.218750X0.256250X-0.218750X0.256250X0.218750X0*%
%ADD28RoundRect,0.140000X0.170000X-0.140000X0.170000X0.140000X-0.170000X0.140000X-0.170000X-0.140000X0*%
%ADD29RoundRect,0.225000X-0.250000X0.225000X-0.250000X-0.225000X0.250000X-0.225000X0.250000X0.225000X0*%
%ADD30RoundRect,0.225000X-0.225000X-0.250000X0.225000X-0.250000X0.225000X0.250000X-0.225000X0.250000X0*%
%ADD31C,0.500000*%
%ADD32C,3.000000*%
%ADD33C,2.700000*%
%ADD34RoundRect,0.062500X-0.062500X0.375000X-0.062500X-0.375000X0.062500X-0.375000X0.062500X0.375000X0*%
%ADD35RoundRect,0.062500X-0.375000X0.062500X-0.375000X-0.062500X0.375000X-0.062500X0.375000X0.062500X0*%
%ADD36R,1.600000X1.600000*%
%ADD37C,0.990600*%
%ADD38C,0.787400*%
%ADD39RoundRect,0.062500X-0.337500X-0.062500X0.337500X-0.062500X0.337500X0.062500X-0.337500X0.062500X0*%
%ADD40R,1.700000X1.400000*%
%ADD41RoundRect,0.250000X0.275000X-0.250000X0.275000X0.250000X-0.275000X0.250000X-0.275000X-0.250000X0*%
%ADD42RoundRect,0.162500X0.162500X-0.337500X0.162500X0.337500X-0.162500X0.337500X-0.162500X-0.337500X0*%
%ADD43RoundRect,0.218750X0.218750X0.256250X-0.218750X0.256250X-0.218750X-0.256250X0.218750X-0.256250X0*%
%ADD44R,1.300000X0.300000*%
%ADD45R,2.200000X1.800000*%
%ADD46RoundRect,0.125000X-0.262500X-0.125000X0.262500X-0.125000X0.262500X0.125000X-0.262500X0.125000X0*%
%ADD47R,3.400000X4.000000*%
%ADD48RoundRect,0.050000X-0.362500X-0.050000X0.362500X-0.050000X0.362500X0.050000X-0.362500X0.050000X0*%
%ADD49RoundRect,0.050000X-0.050000X-0.362500X0.050000X-0.362500X0.050000X0.362500X-0.050000X0.362500X0*%
%ADD50R,2.700000X2.700000*%
%ADD51RoundRect,0.250000X0.625000X-0.312500X0.625000X0.312500X-0.625000X0.312500X-0.625000X-0.312500X0*%
%ADD52R,1.700000X1.700000*%
%ADD53O,1.700000X1.700000*%
G04 APERTURE END LIST*
D10*
X124370500Y-89576000D02*
X124372500Y-89576000D01*
X124375500Y-89577000D01*
X124377500Y-89577000D01*
X124380500Y-89578000D01*
X124382500Y-89579000D01*
X124385500Y-89580000D01*
X124387500Y-89582000D01*
X124389500Y-89583000D01*
X124391500Y-89585000D01*
X124393500Y-89586000D01*
X124395500Y-89588000D01*
X124397500Y-89590000D01*
X124399500Y-89592000D01*
X124401500Y-89594000D01*
X124402500Y-89596000D01*
X124404500Y-89598000D01*
X124405500Y-89600000D01*
X124407500Y-89602000D01*
X124408500Y-89605000D01*
X124409500Y-89607000D01*
X124410500Y-89610000D01*
X124410500Y-89612000D01*
X124411500Y-89615000D01*
X124411500Y-89617000D01*
X124412500Y-89620000D01*
X124412500Y-89622000D01*
X124412500Y-89625000D01*
X124412500Y-90525000D01*
X124412500Y-90528000D01*
X124412500Y-90530000D01*
X124411500Y-90533000D01*
X124411500Y-90535000D01*
X124410500Y-90538000D01*
X124410500Y-90540000D01*
X124409500Y-90543000D01*
X124408500Y-90545000D01*
X124407500Y-90548000D01*
X124405500Y-90550000D01*
X124404500Y-90552000D01*
X124402500Y-90554000D01*
X124401500Y-90556000D01*
X124399500Y-90558000D01*
X124397500Y-90560000D01*
X124395500Y-90562000D01*
X124393500Y-90564000D01*
X124391500Y-90565000D01*
X124389500Y-90567000D01*
X124387500Y-90568000D01*
X124385500Y-90570000D01*
X124382500Y-90571000D01*
X124380500Y-90572000D01*
X124377500Y-90573000D01*
X124375500Y-90573000D01*
X124372500Y-90574000D01*
X124370500Y-90574000D01*
X124367500Y-90575000D01*
X124365500Y-90575000D01*
X124362500Y-90575000D01*
X121462500Y-90575000D01*
X121459500Y-90575000D01*
X121457500Y-90575000D01*
X121454500Y-90574000D01*
X121452500Y-90574000D01*
X121449500Y-90573000D01*
X121447500Y-90573000D01*
X121444500Y-90572000D01*
X121442500Y-90571000D01*
X121439500Y-90570000D01*
X121437500Y-90568000D01*
X121435500Y-90567000D01*
X121433500Y-90565000D01*
X121431500Y-90564000D01*
X121429500Y-90562000D01*
X121427500Y-90560000D01*
X121425500Y-90558000D01*
X121423500Y-90556000D01*
X121422500Y-90554000D01*
X121420500Y-90552000D01*
X121419500Y-90550000D01*
X121417500Y-90548000D01*
X121416500Y-90545000D01*
X121415500Y-90543000D01*
X121414500Y-90540000D01*
X121414500Y-90538000D01*
X121413500Y-90535000D01*
X121413500Y-90533000D01*
X121412500Y-90530000D01*
X121412500Y-90528000D01*
X121412500Y-90525000D01*
X121412500Y-89625000D01*
X121412500Y-89622000D01*
X121412500Y-89620000D01*
X121413500Y-89617000D01*
X121413500Y-89615000D01*
X121414500Y-89612000D01*
X121414500Y-89610000D01*
X121415500Y-89607000D01*
X121416500Y-89605000D01*
X121417500Y-89602000D01*
X121419500Y-89600000D01*
X121420500Y-89598000D01*
X121422500Y-89596000D01*
X121423500Y-89594000D01*
X121425500Y-89592000D01*
X121427500Y-89590000D01*
X121429500Y-89588000D01*
X121431500Y-89586000D01*
X121433500Y-89585000D01*
X121435500Y-89583000D01*
X121437500Y-89582000D01*
X121439500Y-89580000D01*
X121442500Y-89579000D01*
X121444500Y-89578000D01*
X121447500Y-89577000D01*
X121449500Y-89577000D01*
X121452500Y-89576000D01*
X121454500Y-89576000D01*
X121457500Y-89575000D01*
X121459500Y-89575000D01*
X121462500Y-89575000D01*
X124362500Y-89575000D01*
X124365500Y-89575000D01*
X124367500Y-89575000D01*
X124370500Y-89576000D01*
G36*
X124370500Y-89576000D02*
G01*
X124372500Y-89576000D01*
X124375500Y-89577000D01*
X124377500Y-89577000D01*
X124380500Y-89578000D01*
X124382500Y-89579000D01*
X124385500Y-89580000D01*
X124387500Y-89582000D01*
X124389500Y-89583000D01*
X124391500Y-89585000D01*
X124393500Y-89586000D01*
X124395500Y-89588000D01*
X124397500Y-89590000D01*
X124399500Y-89592000D01*
X124401500Y-89594000D01*
X124402500Y-89596000D01*
X124404500Y-89598000D01*
X124405500Y-89600000D01*
X124407500Y-89602000D01*
X124408500Y-89605000D01*
X124409500Y-89607000D01*
X124410500Y-89610000D01*
X124410500Y-89612000D01*
X124411500Y-89615000D01*
X124411500Y-89617000D01*
X124412500Y-89620000D01*
X124412500Y-89622000D01*
X124412500Y-89625000D01*
X124412500Y-90525000D01*
X124412500Y-90528000D01*
X124412500Y-90530000D01*
X124411500Y-90533000D01*
X124411500Y-90535000D01*
X124410500Y-90538000D01*
X124410500Y-90540000D01*
X124409500Y-90543000D01*
X124408500Y-90545000D01*
X124407500Y-90548000D01*
X124405500Y-90550000D01*
X124404500Y-90552000D01*
X124402500Y-90554000D01*
X124401500Y-90556000D01*
X124399500Y-90558000D01*
X124397500Y-90560000D01*
X124395500Y-90562000D01*
X124393500Y-90564000D01*
X124391500Y-90565000D01*
X124389500Y-90567000D01*
X124387500Y-90568000D01*
X124385500Y-90570000D01*
X124382500Y-90571000D01*
X124380500Y-90572000D01*
X124377500Y-90573000D01*
X124375500Y-90573000D01*
X124372500Y-90574000D01*
X124370500Y-90574000D01*
X124367500Y-90575000D01*
X124365500Y-90575000D01*
X124362500Y-90575000D01*
X121462500Y-90575000D01*
X121459500Y-90575000D01*
X121457500Y-90575000D01*
X121454500Y-90574000D01*
X121452500Y-90574000D01*
X121449500Y-90573000D01*
X121447500Y-90573000D01*
X121444500Y-90572000D01*
X121442500Y-90571000D01*
X121439500Y-90570000D01*
X121437500Y-90568000D01*
X121435500Y-90567000D01*
X121433500Y-90565000D01*
X121431500Y-90564000D01*
X121429500Y-90562000D01*
X121427500Y-90560000D01*
X121425500Y-90558000D01*
X121423500Y-90556000D01*
X121422500Y-90554000D01*
X121420500Y-90552000D01*
X121419500Y-90550000D01*
X121417500Y-90548000D01*
X121416500Y-90545000D01*
X121415500Y-90543000D01*
X121414500Y-90540000D01*
X121414500Y-90538000D01*
X121413500Y-90535000D01*
X121413500Y-90533000D01*
X121412500Y-90530000D01*
X121412500Y-90528000D01*
X121412500Y-90525000D01*
X121412500Y-89625000D01*
X121412500Y-89622000D01*
X121412500Y-89620000D01*
X121413500Y-89617000D01*
X121413500Y-89615000D01*
X121414500Y-89612000D01*
X121414500Y-89610000D01*
X121415500Y-89607000D01*
X121416500Y-89605000D01*
X121417500Y-89602000D01*
X121419500Y-89600000D01*
X121420500Y-89598000D01*
X121422500Y-89596000D01*
X121423500Y-89594000D01*
X121425500Y-89592000D01*
X121427500Y-89590000D01*
X121429500Y-89588000D01*
X121431500Y-89586000D01*
X121433500Y-89585000D01*
X121435500Y-89583000D01*
X121437500Y-89582000D01*
X121439500Y-89580000D01*
X121442500Y-89579000D01*
X121444500Y-89578000D01*
X121447500Y-89577000D01*
X121449500Y-89577000D01*
X121452500Y-89576000D01*
X121454500Y-89576000D01*
X121457500Y-89575000D01*
X121459500Y-89575000D01*
X121462500Y-89575000D01*
X124362500Y-89575000D01*
X124365500Y-89575000D01*
X124367500Y-89575000D01*
X124370500Y-89576000D01*
G37*
X122045500Y-88676000D02*
X122047500Y-88676000D01*
X122050500Y-88677000D01*
X122052500Y-88677000D01*
X122055500Y-88678000D01*
X122057500Y-88679000D01*
X122060500Y-88680000D01*
X122062500Y-88682000D01*
X122064500Y-88683000D01*
X122066500Y-88685000D01*
X122068500Y-88686000D01*
X122070500Y-88688000D01*
X122072500Y-88690000D01*
X122074500Y-88692000D01*
X122076500Y-88694000D01*
X122077500Y-88696000D01*
X122079500Y-88698000D01*
X122080500Y-88700000D01*
X122082500Y-88702000D01*
X122083500Y-88705000D01*
X122084500Y-88707000D01*
X122085500Y-88710000D01*
X122085500Y-88712000D01*
X122086500Y-88715000D01*
X122086500Y-88717000D01*
X122087500Y-88720000D01*
X122087500Y-88722000D01*
X122087500Y-88725000D01*
X122087500Y-89275000D01*
X122087500Y-89278000D01*
X122087500Y-89280000D01*
X122086500Y-89283000D01*
X122086500Y-89285000D01*
X122085500Y-89288000D01*
X122085500Y-89290000D01*
X122084500Y-89293000D01*
X122083500Y-89295000D01*
X122082500Y-89298000D01*
X122080500Y-89300000D01*
X122079500Y-89302000D01*
X122077500Y-89304000D01*
X122076500Y-89306000D01*
X122074500Y-89308000D01*
X122072500Y-89310000D01*
X122070500Y-89312000D01*
X122068500Y-89314000D01*
X122066500Y-89315000D01*
X122064500Y-89317000D01*
X122062500Y-89318000D01*
X122060500Y-89320000D01*
X122057500Y-89321000D01*
X122055500Y-89322000D01*
X122052500Y-89323000D01*
X122050500Y-89323000D01*
X122047500Y-89324000D01*
X122045500Y-89324000D01*
X122042500Y-89325000D01*
X122040500Y-89325000D01*
X122037500Y-89325000D01*
X121462500Y-89325000D01*
X121459500Y-89325000D01*
X121457500Y-89325000D01*
X121454500Y-89324000D01*
X121452500Y-89324000D01*
X121449500Y-89323000D01*
X121447500Y-89323000D01*
X121444500Y-89322000D01*
X121442500Y-89321000D01*
X121439500Y-89320000D01*
X121437500Y-89318000D01*
X121435500Y-89317000D01*
X121433500Y-89315000D01*
X121431500Y-89314000D01*
X121429500Y-89312000D01*
X121427500Y-89310000D01*
X121425500Y-89308000D01*
X121423500Y-89306000D01*
X121422500Y-89304000D01*
X121420500Y-89302000D01*
X121419500Y-89300000D01*
X121417500Y-89298000D01*
X121416500Y-89295000D01*
X121415500Y-89293000D01*
X121414500Y-89290000D01*
X121414500Y-89288000D01*
X121413500Y-89285000D01*
X121413500Y-89283000D01*
X121412500Y-89280000D01*
X121412500Y-89278000D01*
X121412500Y-89275000D01*
X121412500Y-88725000D01*
X121412500Y-88722000D01*
X121412500Y-88720000D01*
X121413500Y-88717000D01*
X121413500Y-88715000D01*
X121414500Y-88712000D01*
X121414500Y-88710000D01*
X121415500Y-88707000D01*
X121416500Y-88705000D01*
X121417500Y-88702000D01*
X121419500Y-88700000D01*
X121420500Y-88698000D01*
X121422500Y-88696000D01*
X121423500Y-88694000D01*
X121425500Y-88692000D01*
X121427500Y-88690000D01*
X121429500Y-88688000D01*
X121431500Y-88686000D01*
X121433500Y-88685000D01*
X121435500Y-88683000D01*
X121437500Y-88682000D01*
X121439500Y-88680000D01*
X121442500Y-88679000D01*
X121444500Y-88678000D01*
X121447500Y-88677000D01*
X121449500Y-88677000D01*
X121452500Y-88676000D01*
X121454500Y-88676000D01*
X121457500Y-88675000D01*
X121459500Y-88675000D01*
X121462500Y-88675000D01*
X122037500Y-88675000D01*
X122040500Y-88675000D01*
X122042500Y-88675000D01*
X122045500Y-88676000D01*
G36*
X122045500Y-88676000D02*
G01*
X122047500Y-88676000D01*
X122050500Y-88677000D01*
X122052500Y-88677000D01*
X122055500Y-88678000D01*
X122057500Y-88679000D01*
X122060500Y-88680000D01*
X122062500Y-88682000D01*
X122064500Y-88683000D01*
X122066500Y-88685000D01*
X122068500Y-88686000D01*
X122070500Y-88688000D01*
X122072500Y-88690000D01*
X122074500Y-88692000D01*
X122076500Y-88694000D01*
X122077500Y-88696000D01*
X122079500Y-88698000D01*
X122080500Y-88700000D01*
X122082500Y-88702000D01*
X122083500Y-88705000D01*
X122084500Y-88707000D01*
X122085500Y-88710000D01*
X122085500Y-88712000D01*
X122086500Y-88715000D01*
X122086500Y-88717000D01*
X122087500Y-88720000D01*
X122087500Y-88722000D01*
X122087500Y-88725000D01*
X122087500Y-89275000D01*
X122087500Y-89278000D01*
X122087500Y-89280000D01*
X122086500Y-89283000D01*
X122086500Y-89285000D01*
X122085500Y-89288000D01*
X122085500Y-89290000D01*
X122084500Y-89293000D01*
X122083500Y-89295000D01*
X122082500Y-89298000D01*
X122080500Y-89300000D01*
X122079500Y-89302000D01*
X122077500Y-89304000D01*
X122076500Y-89306000D01*
X122074500Y-89308000D01*
X122072500Y-89310000D01*
X122070500Y-89312000D01*
X122068500Y-89314000D01*
X122066500Y-89315000D01*
X122064500Y-89317000D01*
X122062500Y-89318000D01*
X122060500Y-89320000D01*
X122057500Y-89321000D01*
X122055500Y-89322000D01*
X122052500Y-89323000D01*
X122050500Y-89323000D01*
X122047500Y-89324000D01*
X122045500Y-89324000D01*
X122042500Y-89325000D01*
X122040500Y-89325000D01*
X122037500Y-89325000D01*
X121462500Y-89325000D01*
X121459500Y-89325000D01*
X121457500Y-89325000D01*
X121454500Y-89324000D01*
X121452500Y-89324000D01*
X121449500Y-89323000D01*
X121447500Y-89323000D01*
X121444500Y-89322000D01*
X121442500Y-89321000D01*
X121439500Y-89320000D01*
X121437500Y-89318000D01*
X121435500Y-89317000D01*
X121433500Y-89315000D01*
X121431500Y-89314000D01*
X121429500Y-89312000D01*
X121427500Y-89310000D01*
X121425500Y-89308000D01*
X121423500Y-89306000D01*
X121422500Y-89304000D01*
X121420500Y-89302000D01*
X121419500Y-89300000D01*
X121417500Y-89298000D01*
X121416500Y-89295000D01*
X121415500Y-89293000D01*
X121414500Y-89290000D01*
X121414500Y-89288000D01*
X121413500Y-89285000D01*
X121413500Y-89283000D01*
X121412500Y-89280000D01*
X121412500Y-89278000D01*
X121412500Y-89275000D01*
X121412500Y-88725000D01*
X121412500Y-88722000D01*
X121412500Y-88720000D01*
X121413500Y-88717000D01*
X121413500Y-88715000D01*
X121414500Y-88712000D01*
X121414500Y-88710000D01*
X121415500Y-88707000D01*
X121416500Y-88705000D01*
X121417500Y-88702000D01*
X121419500Y-88700000D01*
X121420500Y-88698000D01*
X121422500Y-88696000D01*
X121423500Y-88694000D01*
X121425500Y-88692000D01*
X121427500Y-88690000D01*
X121429500Y-88688000D01*
X121431500Y-88686000D01*
X121433500Y-88685000D01*
X121435500Y-88683000D01*
X121437500Y-88682000D01*
X121439500Y-88680000D01*
X121442500Y-88679000D01*
X121444500Y-88678000D01*
X121447500Y-88677000D01*
X121449500Y-88677000D01*
X121452500Y-88676000D01*
X121454500Y-88676000D01*
X121457500Y-88675000D01*
X121459500Y-88675000D01*
X121462500Y-88675000D01*
X122037500Y-88675000D01*
X122040500Y-88675000D01*
X122042500Y-88675000D01*
X122045500Y-88676000D01*
G37*
X122045500Y-90826000D02*
X122047500Y-90826000D01*
X122050500Y-90827000D01*
X122052500Y-90827000D01*
X122055500Y-90828000D01*
X122057500Y-90829000D01*
X122060500Y-90830000D01*
X122062500Y-90832000D01*
X122064500Y-90833000D01*
X122066500Y-90835000D01*
X122068500Y-90836000D01*
X122070500Y-90838000D01*
X122072500Y-90840000D01*
X122074500Y-90842000D01*
X122076500Y-90844000D01*
X122077500Y-90846000D01*
X122079500Y-90848000D01*
X122080500Y-90850000D01*
X122082500Y-90852000D01*
X122083500Y-90855000D01*
X122084500Y-90857000D01*
X122085500Y-90860000D01*
X122085500Y-90862000D01*
X122086500Y-90865000D01*
X122086500Y-90867000D01*
X122087500Y-90870000D01*
X122087500Y-90872000D01*
X122087500Y-90875000D01*
X122087500Y-91425000D01*
X122087500Y-91428000D01*
X122087500Y-91430000D01*
X122086500Y-91433000D01*
X122086500Y-91435000D01*
X122085500Y-91438000D01*
X122085500Y-91440000D01*
X122084500Y-91443000D01*
X122083500Y-91445000D01*
X122082500Y-91448000D01*
X122080500Y-91450000D01*
X122079500Y-91452000D01*
X122077500Y-91454000D01*
X122076500Y-91456000D01*
X122074500Y-91458000D01*
X122072500Y-91460000D01*
X122070500Y-91462000D01*
X122068500Y-91464000D01*
X122066500Y-91465000D01*
X122064500Y-91467000D01*
X122062500Y-91468000D01*
X122060500Y-91470000D01*
X122057500Y-91471000D01*
X122055500Y-91472000D01*
X122052500Y-91473000D01*
X122050500Y-91473000D01*
X122047500Y-91474000D01*
X122045500Y-91474000D01*
X122042500Y-91475000D01*
X122040500Y-91475000D01*
X122037500Y-91475000D01*
X121462500Y-91475000D01*
X121459500Y-91475000D01*
X121457500Y-91475000D01*
X121454500Y-91474000D01*
X121452500Y-91474000D01*
X121449500Y-91473000D01*
X121447500Y-91473000D01*
X121444500Y-91472000D01*
X121442500Y-91471000D01*
X121439500Y-91470000D01*
X121437500Y-91468000D01*
X121435500Y-91467000D01*
X121433500Y-91465000D01*
X121431500Y-91464000D01*
X121429500Y-91462000D01*
X121427500Y-91460000D01*
X121425500Y-91458000D01*
X121423500Y-91456000D01*
X121422500Y-91454000D01*
X121420500Y-91452000D01*
X121419500Y-91450000D01*
X121417500Y-91448000D01*
X121416500Y-91445000D01*
X121415500Y-91443000D01*
X121414500Y-91440000D01*
X121414500Y-91438000D01*
X121413500Y-91435000D01*
X121413500Y-91433000D01*
X121412500Y-91430000D01*
X121412500Y-91428000D01*
X121412500Y-91425000D01*
X121412500Y-90875000D01*
X121412500Y-90872000D01*
X121412500Y-90870000D01*
X121413500Y-90867000D01*
X121413500Y-90865000D01*
X121414500Y-90862000D01*
X121414500Y-90860000D01*
X121415500Y-90857000D01*
X121416500Y-90855000D01*
X121417500Y-90852000D01*
X121419500Y-90850000D01*
X121420500Y-90848000D01*
X121422500Y-90846000D01*
X121423500Y-90844000D01*
X121425500Y-90842000D01*
X121427500Y-90840000D01*
X121429500Y-90838000D01*
X121431500Y-90836000D01*
X121433500Y-90835000D01*
X121435500Y-90833000D01*
X121437500Y-90832000D01*
X121439500Y-90830000D01*
X121442500Y-90829000D01*
X121444500Y-90828000D01*
X121447500Y-90827000D01*
X121449500Y-90827000D01*
X121452500Y-90826000D01*
X121454500Y-90826000D01*
X121457500Y-90825000D01*
X121459500Y-90825000D01*
X121462500Y-90825000D01*
X122037500Y-90825000D01*
X122040500Y-90825000D01*
X122042500Y-90825000D01*
X122045500Y-90826000D01*
G36*
X122045500Y-90826000D02*
G01*
X122047500Y-90826000D01*
X122050500Y-90827000D01*
X122052500Y-90827000D01*
X122055500Y-90828000D01*
X122057500Y-90829000D01*
X122060500Y-90830000D01*
X122062500Y-90832000D01*
X122064500Y-90833000D01*
X122066500Y-90835000D01*
X122068500Y-90836000D01*
X122070500Y-90838000D01*
X122072500Y-90840000D01*
X122074500Y-90842000D01*
X122076500Y-90844000D01*
X122077500Y-90846000D01*
X122079500Y-90848000D01*
X122080500Y-90850000D01*
X122082500Y-90852000D01*
X122083500Y-90855000D01*
X122084500Y-90857000D01*
X122085500Y-90860000D01*
X122085500Y-90862000D01*
X122086500Y-90865000D01*
X122086500Y-90867000D01*
X122087500Y-90870000D01*
X122087500Y-90872000D01*
X122087500Y-90875000D01*
X122087500Y-91425000D01*
X122087500Y-91428000D01*
X122087500Y-91430000D01*
X122086500Y-91433000D01*
X122086500Y-91435000D01*
X122085500Y-91438000D01*
X122085500Y-91440000D01*
X122084500Y-91443000D01*
X122083500Y-91445000D01*
X122082500Y-91448000D01*
X122080500Y-91450000D01*
X122079500Y-91452000D01*
X122077500Y-91454000D01*
X122076500Y-91456000D01*
X122074500Y-91458000D01*
X122072500Y-91460000D01*
X122070500Y-91462000D01*
X122068500Y-91464000D01*
X122066500Y-91465000D01*
X122064500Y-91467000D01*
X122062500Y-91468000D01*
X122060500Y-91470000D01*
X122057500Y-91471000D01*
X122055500Y-91472000D01*
X122052500Y-91473000D01*
X122050500Y-91473000D01*
X122047500Y-91474000D01*
X122045500Y-91474000D01*
X122042500Y-91475000D01*
X122040500Y-91475000D01*
X122037500Y-91475000D01*
X121462500Y-91475000D01*
X121459500Y-91475000D01*
X121457500Y-91475000D01*
X121454500Y-91474000D01*
X121452500Y-91474000D01*
X121449500Y-91473000D01*
X121447500Y-91473000D01*
X121444500Y-91472000D01*
X121442500Y-91471000D01*
X121439500Y-91470000D01*
X121437500Y-91468000D01*
X121435500Y-91467000D01*
X121433500Y-91465000D01*
X121431500Y-91464000D01*
X121429500Y-91462000D01*
X121427500Y-91460000D01*
X121425500Y-91458000D01*
X121423500Y-91456000D01*
X121422500Y-91454000D01*
X121420500Y-91452000D01*
X121419500Y-91450000D01*
X121417500Y-91448000D01*
X121416500Y-91445000D01*
X121415500Y-91443000D01*
X121414500Y-91440000D01*
X121414500Y-91438000D01*
X121413500Y-91435000D01*
X121413500Y-91433000D01*
X121412500Y-91430000D01*
X121412500Y-91428000D01*
X121412500Y-91425000D01*
X121412500Y-90875000D01*
X121412500Y-90872000D01*
X121412500Y-90870000D01*
X121413500Y-90867000D01*
X121413500Y-90865000D01*
X121414500Y-90862000D01*
X121414500Y-90860000D01*
X121415500Y-90857000D01*
X121416500Y-90855000D01*
X121417500Y-90852000D01*
X121419500Y-90850000D01*
X121420500Y-90848000D01*
X121422500Y-90846000D01*
X121423500Y-90844000D01*
X121425500Y-90842000D01*
X121427500Y-90840000D01*
X121429500Y-90838000D01*
X121431500Y-90836000D01*
X121433500Y-90835000D01*
X121435500Y-90833000D01*
X121437500Y-90832000D01*
X121439500Y-90830000D01*
X121442500Y-90829000D01*
X121444500Y-90828000D01*
X121447500Y-90827000D01*
X121449500Y-90827000D01*
X121452500Y-90826000D01*
X121454500Y-90826000D01*
X121457500Y-90825000D01*
X121459500Y-90825000D01*
X121462500Y-90825000D01*
X122037500Y-90825000D01*
X122040500Y-90825000D01*
X122042500Y-90825000D01*
X122045500Y-90826000D01*
G37*
X122545500Y-88676000D02*
X122547500Y-88676000D01*
X122550500Y-88677000D01*
X122552500Y-88677000D01*
X122555500Y-88678000D01*
X122557500Y-88679000D01*
X122560500Y-88680000D01*
X122562500Y-88682000D01*
X122564500Y-88683000D01*
X122566500Y-88685000D01*
X122568500Y-88686000D01*
X122570500Y-88688000D01*
X122572500Y-88690000D01*
X122574500Y-88692000D01*
X122576500Y-88694000D01*
X122577500Y-88696000D01*
X122579500Y-88698000D01*
X122580500Y-88700000D01*
X122582500Y-88702000D01*
X122583500Y-88705000D01*
X122584500Y-88707000D01*
X122585500Y-88710000D01*
X122585500Y-88712000D01*
X122586500Y-88715000D01*
X122586500Y-88717000D01*
X122587500Y-88720000D01*
X122587500Y-88722000D01*
X122587500Y-88725000D01*
X122587500Y-89275000D01*
X122587500Y-89278000D01*
X122587500Y-89280000D01*
X122586500Y-89283000D01*
X122586500Y-89285000D01*
X122585500Y-89288000D01*
X122585500Y-89290000D01*
X122584500Y-89293000D01*
X122583500Y-89295000D01*
X122582500Y-89298000D01*
X122580500Y-89300000D01*
X122579500Y-89302000D01*
X122577500Y-89304000D01*
X122576500Y-89306000D01*
X122574500Y-89308000D01*
X122572500Y-89310000D01*
X122570500Y-89312000D01*
X122568500Y-89314000D01*
X122566500Y-89315000D01*
X122564500Y-89317000D01*
X122562500Y-89318000D01*
X122560500Y-89320000D01*
X122557500Y-89321000D01*
X122555500Y-89322000D01*
X122552500Y-89323000D01*
X122550500Y-89323000D01*
X122547500Y-89324000D01*
X122545500Y-89324000D01*
X122542500Y-89325000D01*
X122540500Y-89325000D01*
X122537500Y-89325000D01*
X122287500Y-89325000D01*
X122284500Y-89325000D01*
X122282500Y-89325000D01*
X122279500Y-89324000D01*
X122277500Y-89324000D01*
X122274500Y-89323000D01*
X122272500Y-89323000D01*
X122269500Y-89322000D01*
X122267500Y-89321000D01*
X122264500Y-89320000D01*
X122262500Y-89318000D01*
X122260500Y-89317000D01*
X122258500Y-89315000D01*
X122256500Y-89314000D01*
X122254500Y-89312000D01*
X122252500Y-89310000D01*
X122250500Y-89308000D01*
X122248500Y-89306000D01*
X122247500Y-89304000D01*
X122245500Y-89302000D01*
X122244500Y-89300000D01*
X122242500Y-89298000D01*
X122241500Y-89295000D01*
X122240500Y-89293000D01*
X122239500Y-89290000D01*
X122239500Y-89288000D01*
X122238500Y-89285000D01*
X122238500Y-89283000D01*
X122237500Y-89280000D01*
X122237500Y-89278000D01*
X122237500Y-89275000D01*
X122237500Y-88725000D01*
X122237500Y-88722000D01*
X122237500Y-88720000D01*
X122238500Y-88717000D01*
X122238500Y-88715000D01*
X122239500Y-88712000D01*
X122239500Y-88710000D01*
X122240500Y-88707000D01*
X122241500Y-88705000D01*
X122242500Y-88702000D01*
X122244500Y-88700000D01*
X122245500Y-88698000D01*
X122247500Y-88696000D01*
X122248500Y-88694000D01*
X122250500Y-88692000D01*
X122252500Y-88690000D01*
X122254500Y-88688000D01*
X122256500Y-88686000D01*
X122258500Y-88685000D01*
X122260500Y-88683000D01*
X122262500Y-88682000D01*
X122264500Y-88680000D01*
X122267500Y-88679000D01*
X122269500Y-88678000D01*
X122272500Y-88677000D01*
X122274500Y-88677000D01*
X122277500Y-88676000D01*
X122279500Y-88676000D01*
X122282500Y-88675000D01*
X122284500Y-88675000D01*
X122287500Y-88675000D01*
X122537500Y-88675000D01*
X122540500Y-88675000D01*
X122542500Y-88675000D01*
X122545500Y-88676000D01*
G36*
X122545500Y-88676000D02*
G01*
X122547500Y-88676000D01*
X122550500Y-88677000D01*
X122552500Y-88677000D01*
X122555500Y-88678000D01*
X122557500Y-88679000D01*
X122560500Y-88680000D01*
X122562500Y-88682000D01*
X122564500Y-88683000D01*
X122566500Y-88685000D01*
X122568500Y-88686000D01*
X122570500Y-88688000D01*
X122572500Y-88690000D01*
X122574500Y-88692000D01*
X122576500Y-88694000D01*
X122577500Y-88696000D01*
X122579500Y-88698000D01*
X122580500Y-88700000D01*
X122582500Y-88702000D01*
X122583500Y-88705000D01*
X122584500Y-88707000D01*
X122585500Y-88710000D01*
X122585500Y-88712000D01*
X122586500Y-88715000D01*
X122586500Y-88717000D01*
X122587500Y-88720000D01*
X122587500Y-88722000D01*
X122587500Y-88725000D01*
X122587500Y-89275000D01*
X122587500Y-89278000D01*
X122587500Y-89280000D01*
X122586500Y-89283000D01*
X122586500Y-89285000D01*
X122585500Y-89288000D01*
X122585500Y-89290000D01*
X122584500Y-89293000D01*
X122583500Y-89295000D01*
X122582500Y-89298000D01*
X122580500Y-89300000D01*
X122579500Y-89302000D01*
X122577500Y-89304000D01*
X122576500Y-89306000D01*
X122574500Y-89308000D01*
X122572500Y-89310000D01*
X122570500Y-89312000D01*
X122568500Y-89314000D01*
X122566500Y-89315000D01*
X122564500Y-89317000D01*
X122562500Y-89318000D01*
X122560500Y-89320000D01*
X122557500Y-89321000D01*
X122555500Y-89322000D01*
X122552500Y-89323000D01*
X122550500Y-89323000D01*
X122547500Y-89324000D01*
X122545500Y-89324000D01*
X122542500Y-89325000D01*
X122540500Y-89325000D01*
X122537500Y-89325000D01*
X122287500Y-89325000D01*
X122284500Y-89325000D01*
X122282500Y-89325000D01*
X122279500Y-89324000D01*
X122277500Y-89324000D01*
X122274500Y-89323000D01*
X122272500Y-89323000D01*
X122269500Y-89322000D01*
X122267500Y-89321000D01*
X122264500Y-89320000D01*
X122262500Y-89318000D01*
X122260500Y-89317000D01*
X122258500Y-89315000D01*
X122256500Y-89314000D01*
X122254500Y-89312000D01*
X122252500Y-89310000D01*
X122250500Y-89308000D01*
X122248500Y-89306000D01*
X122247500Y-89304000D01*
X122245500Y-89302000D01*
X122244500Y-89300000D01*
X122242500Y-89298000D01*
X122241500Y-89295000D01*
X122240500Y-89293000D01*
X122239500Y-89290000D01*
X122239500Y-89288000D01*
X122238500Y-89285000D01*
X122238500Y-89283000D01*
X122237500Y-89280000D01*
X122237500Y-89278000D01*
X122237500Y-89275000D01*
X122237500Y-88725000D01*
X122237500Y-88722000D01*
X122237500Y-88720000D01*
X122238500Y-88717000D01*
X122238500Y-88715000D01*
X122239500Y-88712000D01*
X122239500Y-88710000D01*
X122240500Y-88707000D01*
X122241500Y-88705000D01*
X122242500Y-88702000D01*
X122244500Y-88700000D01*
X122245500Y-88698000D01*
X122247500Y-88696000D01*
X122248500Y-88694000D01*
X122250500Y-88692000D01*
X122252500Y-88690000D01*
X122254500Y-88688000D01*
X122256500Y-88686000D01*
X122258500Y-88685000D01*
X122260500Y-88683000D01*
X122262500Y-88682000D01*
X122264500Y-88680000D01*
X122267500Y-88679000D01*
X122269500Y-88678000D01*
X122272500Y-88677000D01*
X122274500Y-88677000D01*
X122277500Y-88676000D01*
X122279500Y-88676000D01*
X122282500Y-88675000D01*
X122284500Y-88675000D01*
X122287500Y-88675000D01*
X122537500Y-88675000D01*
X122540500Y-88675000D01*
X122542500Y-88675000D01*
X122545500Y-88676000D01*
G37*
X122545500Y-90826000D02*
X122547500Y-90826000D01*
X122550500Y-90827000D01*
X122552500Y-90827000D01*
X122555500Y-90828000D01*
X122557500Y-90829000D01*
X122560500Y-90830000D01*
X122562500Y-90832000D01*
X122564500Y-90833000D01*
X122566500Y-90835000D01*
X122568500Y-90836000D01*
X122570500Y-90838000D01*
X122572500Y-90840000D01*
X122574500Y-90842000D01*
X122576500Y-90844000D01*
X122577500Y-90846000D01*
X122579500Y-90848000D01*
X122580500Y-90850000D01*
X122582500Y-90852000D01*
X122583500Y-90855000D01*
X122584500Y-90857000D01*
X122585500Y-90860000D01*
X122585500Y-90862000D01*
X122586500Y-90865000D01*
X122586500Y-90867000D01*
X122587500Y-90870000D01*
X122587500Y-90872000D01*
X122587500Y-90875000D01*
X122587500Y-91425000D01*
X122587500Y-91428000D01*
X122587500Y-91430000D01*
X122586500Y-91433000D01*
X122586500Y-91435000D01*
X122585500Y-91438000D01*
X122585500Y-91440000D01*
X122584500Y-91443000D01*
X122583500Y-91445000D01*
X122582500Y-91448000D01*
X122580500Y-91450000D01*
X122579500Y-91452000D01*
X122577500Y-91454000D01*
X122576500Y-91456000D01*
X122574500Y-91458000D01*
X122572500Y-91460000D01*
X122570500Y-91462000D01*
X122568500Y-91464000D01*
X122566500Y-91465000D01*
X122564500Y-91467000D01*
X122562500Y-91468000D01*
X122560500Y-91470000D01*
X122557500Y-91471000D01*
X122555500Y-91472000D01*
X122552500Y-91473000D01*
X122550500Y-91473000D01*
X122547500Y-91474000D01*
X122545500Y-91474000D01*
X122542500Y-91475000D01*
X122540500Y-91475000D01*
X122537500Y-91475000D01*
X122287500Y-91475000D01*
X122284500Y-91475000D01*
X122282500Y-91475000D01*
X122279500Y-91474000D01*
X122277500Y-91474000D01*
X122274500Y-91473000D01*
X122272500Y-91473000D01*
X122269500Y-91472000D01*
X122267500Y-91471000D01*
X122264500Y-91470000D01*
X122262500Y-91468000D01*
X122260500Y-91467000D01*
X122258500Y-91465000D01*
X122256500Y-91464000D01*
X122254500Y-91462000D01*
X122252500Y-91460000D01*
X122250500Y-91458000D01*
X122248500Y-91456000D01*
X122247500Y-91454000D01*
X122245500Y-91452000D01*
X122244500Y-91450000D01*
X122242500Y-91448000D01*
X122241500Y-91445000D01*
X122240500Y-91443000D01*
X122239500Y-91440000D01*
X122239500Y-91438000D01*
X122238500Y-91435000D01*
X122238500Y-91433000D01*
X122237500Y-91430000D01*
X122237500Y-91428000D01*
X122237500Y-91425000D01*
X122237500Y-90875000D01*
X122237500Y-90872000D01*
X122237500Y-90870000D01*
X122238500Y-90867000D01*
X122238500Y-90865000D01*
X122239500Y-90862000D01*
X122239500Y-90860000D01*
X122240500Y-90857000D01*
X122241500Y-90855000D01*
X122242500Y-90852000D01*
X122244500Y-90850000D01*
X122245500Y-90848000D01*
X122247500Y-90846000D01*
X122248500Y-90844000D01*
X122250500Y-90842000D01*
X122252500Y-90840000D01*
X122254500Y-90838000D01*
X122256500Y-90836000D01*
X122258500Y-90835000D01*
X122260500Y-90833000D01*
X122262500Y-90832000D01*
X122264500Y-90830000D01*
X122267500Y-90829000D01*
X122269500Y-90828000D01*
X122272500Y-90827000D01*
X122274500Y-90827000D01*
X122277500Y-90826000D01*
X122279500Y-90826000D01*
X122282500Y-90825000D01*
X122284500Y-90825000D01*
X122287500Y-90825000D01*
X122537500Y-90825000D01*
X122540500Y-90825000D01*
X122542500Y-90825000D01*
X122545500Y-90826000D01*
G36*
X122545500Y-90826000D02*
G01*
X122547500Y-90826000D01*
X122550500Y-90827000D01*
X122552500Y-90827000D01*
X122555500Y-90828000D01*
X122557500Y-90829000D01*
X122560500Y-90830000D01*
X122562500Y-90832000D01*
X122564500Y-90833000D01*
X122566500Y-90835000D01*
X122568500Y-90836000D01*
X122570500Y-90838000D01*
X122572500Y-90840000D01*
X122574500Y-90842000D01*
X122576500Y-90844000D01*
X122577500Y-90846000D01*
X122579500Y-90848000D01*
X122580500Y-90850000D01*
X122582500Y-90852000D01*
X122583500Y-90855000D01*
X122584500Y-90857000D01*
X122585500Y-90860000D01*
X122585500Y-90862000D01*
X122586500Y-90865000D01*
X122586500Y-90867000D01*
X122587500Y-90870000D01*
X122587500Y-90872000D01*
X122587500Y-90875000D01*
X122587500Y-91425000D01*
X122587500Y-91428000D01*
X122587500Y-91430000D01*
X122586500Y-91433000D01*
X122586500Y-91435000D01*
X122585500Y-91438000D01*
X122585500Y-91440000D01*
X122584500Y-91443000D01*
X122583500Y-91445000D01*
X122582500Y-91448000D01*
X122580500Y-91450000D01*
X122579500Y-91452000D01*
X122577500Y-91454000D01*
X122576500Y-91456000D01*
X122574500Y-91458000D01*
X122572500Y-91460000D01*
X122570500Y-91462000D01*
X122568500Y-91464000D01*
X122566500Y-91465000D01*
X122564500Y-91467000D01*
X122562500Y-91468000D01*
X122560500Y-91470000D01*
X122557500Y-91471000D01*
X122555500Y-91472000D01*
X122552500Y-91473000D01*
X122550500Y-91473000D01*
X122547500Y-91474000D01*
X122545500Y-91474000D01*
X122542500Y-91475000D01*
X122540500Y-91475000D01*
X122537500Y-91475000D01*
X122287500Y-91475000D01*
X122284500Y-91475000D01*
X122282500Y-91475000D01*
X122279500Y-91474000D01*
X122277500Y-91474000D01*
X122274500Y-91473000D01*
X122272500Y-91473000D01*
X122269500Y-91472000D01*
X122267500Y-91471000D01*
X122264500Y-91470000D01*
X122262500Y-91468000D01*
X122260500Y-91467000D01*
X122258500Y-91465000D01*
X122256500Y-91464000D01*
X122254500Y-91462000D01*
X122252500Y-91460000D01*
X122250500Y-91458000D01*
X122248500Y-91456000D01*
X122247500Y-91454000D01*
X122245500Y-91452000D01*
X122244500Y-91450000D01*
X122242500Y-91448000D01*
X122241500Y-91445000D01*
X122240500Y-91443000D01*
X122239500Y-91440000D01*
X122239500Y-91438000D01*
X122238500Y-91435000D01*
X122238500Y-91433000D01*
X122237500Y-91430000D01*
X122237500Y-91428000D01*
X122237500Y-91425000D01*
X122237500Y-90875000D01*
X122237500Y-90872000D01*
X122237500Y-90870000D01*
X122238500Y-90867000D01*
X122238500Y-90865000D01*
X122239500Y-90862000D01*
X122239500Y-90860000D01*
X122240500Y-90857000D01*
X122241500Y-90855000D01*
X122242500Y-90852000D01*
X122244500Y-90850000D01*
X122245500Y-90848000D01*
X122247500Y-90846000D01*
X122248500Y-90844000D01*
X122250500Y-90842000D01*
X122252500Y-90840000D01*
X122254500Y-90838000D01*
X122256500Y-90836000D01*
X122258500Y-90835000D01*
X122260500Y-90833000D01*
X122262500Y-90832000D01*
X122264500Y-90830000D01*
X122267500Y-90829000D01*
X122269500Y-90828000D01*
X122272500Y-90827000D01*
X122274500Y-90827000D01*
X122277500Y-90826000D01*
X122279500Y-90826000D01*
X122282500Y-90825000D01*
X122284500Y-90825000D01*
X122287500Y-90825000D01*
X122537500Y-90825000D01*
X122540500Y-90825000D01*
X122542500Y-90825000D01*
X122545500Y-90826000D01*
G37*
X123045500Y-88676000D02*
X123047500Y-88676000D01*
X123050500Y-88677000D01*
X123052500Y-88677000D01*
X123055500Y-88678000D01*
X123057500Y-88679000D01*
X123060500Y-88680000D01*
X123062500Y-88682000D01*
X123064500Y-88683000D01*
X123066500Y-88685000D01*
X123068500Y-88686000D01*
X123070500Y-88688000D01*
X123072500Y-88690000D01*
X123074500Y-88692000D01*
X123076500Y-88694000D01*
X123077500Y-88696000D01*
X123079500Y-88698000D01*
X123080500Y-88700000D01*
X123082500Y-88702000D01*
X123083500Y-88705000D01*
X123084500Y-88707000D01*
X123085500Y-88710000D01*
X123085500Y-88712000D01*
X123086500Y-88715000D01*
X123086500Y-88717000D01*
X123087500Y-88720000D01*
X123087500Y-88722000D01*
X123087500Y-88725000D01*
X123087500Y-89275000D01*
X123087500Y-89278000D01*
X123087500Y-89280000D01*
X123086500Y-89283000D01*
X123086500Y-89285000D01*
X123085500Y-89288000D01*
X123085500Y-89290000D01*
X123084500Y-89293000D01*
X123083500Y-89295000D01*
X123082500Y-89298000D01*
X123080500Y-89300000D01*
X123079500Y-89302000D01*
X123077500Y-89304000D01*
X123076500Y-89306000D01*
X123074500Y-89308000D01*
X123072500Y-89310000D01*
X123070500Y-89312000D01*
X123068500Y-89314000D01*
X123066500Y-89315000D01*
X123064500Y-89317000D01*
X123062500Y-89318000D01*
X123060500Y-89320000D01*
X123057500Y-89321000D01*
X123055500Y-89322000D01*
X123052500Y-89323000D01*
X123050500Y-89323000D01*
X123047500Y-89324000D01*
X123045500Y-89324000D01*
X123042500Y-89325000D01*
X123040500Y-89325000D01*
X123037500Y-89325000D01*
X122787500Y-89325000D01*
X122784500Y-89325000D01*
X122782500Y-89325000D01*
X122779500Y-89324000D01*
X122777500Y-89324000D01*
X122774500Y-89323000D01*
X122772500Y-89323000D01*
X122769500Y-89322000D01*
X122767500Y-89321000D01*
X122764500Y-89320000D01*
X122762500Y-89318000D01*
X122760500Y-89317000D01*
X122758500Y-89315000D01*
X122756500Y-89314000D01*
X122754500Y-89312000D01*
X122752500Y-89310000D01*
X122750500Y-89308000D01*
X122748500Y-89306000D01*
X122747500Y-89304000D01*
X122745500Y-89302000D01*
X122744500Y-89300000D01*
X122742500Y-89298000D01*
X122741500Y-89295000D01*
X122740500Y-89293000D01*
X122739500Y-89290000D01*
X122739500Y-89288000D01*
X122738500Y-89285000D01*
X122738500Y-89283000D01*
X122737500Y-89280000D01*
X122737500Y-89278000D01*
X122737500Y-89275000D01*
X122737500Y-88725000D01*
X122737500Y-88722000D01*
X122737500Y-88720000D01*
X122738500Y-88717000D01*
X122738500Y-88715000D01*
X122739500Y-88712000D01*
X122739500Y-88710000D01*
X122740500Y-88707000D01*
X122741500Y-88705000D01*
X122742500Y-88702000D01*
X122744500Y-88700000D01*
X122745500Y-88698000D01*
X122747500Y-88696000D01*
X122748500Y-88694000D01*
X122750500Y-88692000D01*
X122752500Y-88690000D01*
X122754500Y-88688000D01*
X122756500Y-88686000D01*
X122758500Y-88685000D01*
X122760500Y-88683000D01*
X122762500Y-88682000D01*
X122764500Y-88680000D01*
X122767500Y-88679000D01*
X122769500Y-88678000D01*
X122772500Y-88677000D01*
X122774500Y-88677000D01*
X122777500Y-88676000D01*
X122779500Y-88676000D01*
X122782500Y-88675000D01*
X122784500Y-88675000D01*
X122787500Y-88675000D01*
X123037500Y-88675000D01*
X123040500Y-88675000D01*
X123042500Y-88675000D01*
X123045500Y-88676000D01*
G36*
X123045500Y-88676000D02*
G01*
X123047500Y-88676000D01*
X123050500Y-88677000D01*
X123052500Y-88677000D01*
X123055500Y-88678000D01*
X123057500Y-88679000D01*
X123060500Y-88680000D01*
X123062500Y-88682000D01*
X123064500Y-88683000D01*
X123066500Y-88685000D01*
X123068500Y-88686000D01*
X123070500Y-88688000D01*
X123072500Y-88690000D01*
X123074500Y-88692000D01*
X123076500Y-88694000D01*
X123077500Y-88696000D01*
X123079500Y-88698000D01*
X123080500Y-88700000D01*
X123082500Y-88702000D01*
X123083500Y-88705000D01*
X123084500Y-88707000D01*
X123085500Y-88710000D01*
X123085500Y-88712000D01*
X123086500Y-88715000D01*
X123086500Y-88717000D01*
X123087500Y-88720000D01*
X123087500Y-88722000D01*
X123087500Y-88725000D01*
X123087500Y-89275000D01*
X123087500Y-89278000D01*
X123087500Y-89280000D01*
X123086500Y-89283000D01*
X123086500Y-89285000D01*
X123085500Y-89288000D01*
X123085500Y-89290000D01*
X123084500Y-89293000D01*
X123083500Y-89295000D01*
X123082500Y-89298000D01*
X123080500Y-89300000D01*
X123079500Y-89302000D01*
X123077500Y-89304000D01*
X123076500Y-89306000D01*
X123074500Y-89308000D01*
X123072500Y-89310000D01*
X123070500Y-89312000D01*
X123068500Y-89314000D01*
X123066500Y-89315000D01*
X123064500Y-89317000D01*
X123062500Y-89318000D01*
X123060500Y-89320000D01*
X123057500Y-89321000D01*
X123055500Y-89322000D01*
X123052500Y-89323000D01*
X123050500Y-89323000D01*
X123047500Y-89324000D01*
X123045500Y-89324000D01*
X123042500Y-89325000D01*
X123040500Y-89325000D01*
X123037500Y-89325000D01*
X122787500Y-89325000D01*
X122784500Y-89325000D01*
X122782500Y-89325000D01*
X122779500Y-89324000D01*
X122777500Y-89324000D01*
X122774500Y-89323000D01*
X122772500Y-89323000D01*
X122769500Y-89322000D01*
X122767500Y-89321000D01*
X122764500Y-89320000D01*
X122762500Y-89318000D01*
X122760500Y-89317000D01*
X122758500Y-89315000D01*
X122756500Y-89314000D01*
X122754500Y-89312000D01*
X122752500Y-89310000D01*
X122750500Y-89308000D01*
X122748500Y-89306000D01*
X122747500Y-89304000D01*
X122745500Y-89302000D01*
X122744500Y-89300000D01*
X122742500Y-89298000D01*
X122741500Y-89295000D01*
X122740500Y-89293000D01*
X122739500Y-89290000D01*
X122739500Y-89288000D01*
X122738500Y-89285000D01*
X122738500Y-89283000D01*
X122737500Y-89280000D01*
X122737500Y-89278000D01*
X122737500Y-89275000D01*
X122737500Y-88725000D01*
X122737500Y-88722000D01*
X122737500Y-88720000D01*
X122738500Y-88717000D01*
X122738500Y-88715000D01*
X122739500Y-88712000D01*
X122739500Y-88710000D01*
X122740500Y-88707000D01*
X122741500Y-88705000D01*
X122742500Y-88702000D01*
X122744500Y-88700000D01*
X122745500Y-88698000D01*
X122747500Y-88696000D01*
X122748500Y-88694000D01*
X122750500Y-88692000D01*
X122752500Y-88690000D01*
X122754500Y-88688000D01*
X122756500Y-88686000D01*
X122758500Y-88685000D01*
X122760500Y-88683000D01*
X122762500Y-88682000D01*
X122764500Y-88680000D01*
X122767500Y-88679000D01*
X122769500Y-88678000D01*
X122772500Y-88677000D01*
X122774500Y-88677000D01*
X122777500Y-88676000D01*
X122779500Y-88676000D01*
X122782500Y-88675000D01*
X122784500Y-88675000D01*
X122787500Y-88675000D01*
X123037500Y-88675000D01*
X123040500Y-88675000D01*
X123042500Y-88675000D01*
X123045500Y-88676000D01*
G37*
X123045500Y-90826000D02*
X123047500Y-90826000D01*
X123050500Y-90827000D01*
X123052500Y-90827000D01*
X123055500Y-90828000D01*
X123057500Y-90829000D01*
X123060500Y-90830000D01*
X123062500Y-90832000D01*
X123064500Y-90833000D01*
X123066500Y-90835000D01*
X123068500Y-90836000D01*
X123070500Y-90838000D01*
X123072500Y-90840000D01*
X123074500Y-90842000D01*
X123076500Y-90844000D01*
X123077500Y-90846000D01*
X123079500Y-90848000D01*
X123080500Y-90850000D01*
X123082500Y-90852000D01*
X123083500Y-90855000D01*
X123084500Y-90857000D01*
X123085500Y-90860000D01*
X123085500Y-90862000D01*
X123086500Y-90865000D01*
X123086500Y-90867000D01*
X123087500Y-90870000D01*
X123087500Y-90872000D01*
X123087500Y-90875000D01*
X123087500Y-91425000D01*
X123087500Y-91428000D01*
X123087500Y-91430000D01*
X123086500Y-91433000D01*
X123086500Y-91435000D01*
X123085500Y-91438000D01*
X123085500Y-91440000D01*
X123084500Y-91443000D01*
X123083500Y-91445000D01*
X123082500Y-91448000D01*
X123080500Y-91450000D01*
X123079500Y-91452000D01*
X123077500Y-91454000D01*
X123076500Y-91456000D01*
X123074500Y-91458000D01*
X123072500Y-91460000D01*
X123070500Y-91462000D01*
X123068500Y-91464000D01*
X123066500Y-91465000D01*
X123064500Y-91467000D01*
X123062500Y-91468000D01*
X123060500Y-91470000D01*
X123057500Y-91471000D01*
X123055500Y-91472000D01*
X123052500Y-91473000D01*
X123050500Y-91473000D01*
X123047500Y-91474000D01*
X123045500Y-91474000D01*
X123042500Y-91475000D01*
X123040500Y-91475000D01*
X123037500Y-91475000D01*
X122787500Y-91475000D01*
X122784500Y-91475000D01*
X122782500Y-91475000D01*
X122779500Y-91474000D01*
X122777500Y-91474000D01*
X122774500Y-91473000D01*
X122772500Y-91473000D01*
X122769500Y-91472000D01*
X122767500Y-91471000D01*
X122764500Y-91470000D01*
X122762500Y-91468000D01*
X122760500Y-91467000D01*
X122758500Y-91465000D01*
X122756500Y-91464000D01*
X122754500Y-91462000D01*
X122752500Y-91460000D01*
X122750500Y-91458000D01*
X122748500Y-91456000D01*
X122747500Y-91454000D01*
X122745500Y-91452000D01*
X122744500Y-91450000D01*
X122742500Y-91448000D01*
X122741500Y-91445000D01*
X122740500Y-91443000D01*
X122739500Y-91440000D01*
X122739500Y-91438000D01*
X122738500Y-91435000D01*
X122738500Y-91433000D01*
X122737500Y-91430000D01*
X122737500Y-91428000D01*
X122737500Y-91425000D01*
X122737500Y-90875000D01*
X122737500Y-90872000D01*
X122737500Y-90870000D01*
X122738500Y-90867000D01*
X122738500Y-90865000D01*
X122739500Y-90862000D01*
X122739500Y-90860000D01*
X122740500Y-90857000D01*
X122741500Y-90855000D01*
X122742500Y-90852000D01*
X122744500Y-90850000D01*
X122745500Y-90848000D01*
X122747500Y-90846000D01*
X122748500Y-90844000D01*
X122750500Y-90842000D01*
X122752500Y-90840000D01*
X122754500Y-90838000D01*
X122756500Y-90836000D01*
X122758500Y-90835000D01*
X122760500Y-90833000D01*
X122762500Y-90832000D01*
X122764500Y-90830000D01*
X122767500Y-90829000D01*
X122769500Y-90828000D01*
X122772500Y-90827000D01*
X122774500Y-90827000D01*
X122777500Y-90826000D01*
X122779500Y-90826000D01*
X122782500Y-90825000D01*
X122784500Y-90825000D01*
X122787500Y-90825000D01*
X123037500Y-90825000D01*
X123040500Y-90825000D01*
X123042500Y-90825000D01*
X123045500Y-90826000D01*
G36*
X123045500Y-90826000D02*
G01*
X123047500Y-90826000D01*
X123050500Y-90827000D01*
X123052500Y-90827000D01*
X123055500Y-90828000D01*
X123057500Y-90829000D01*
X123060500Y-90830000D01*
X123062500Y-90832000D01*
X123064500Y-90833000D01*
X123066500Y-90835000D01*
X123068500Y-90836000D01*
X123070500Y-90838000D01*
X123072500Y-90840000D01*
X123074500Y-90842000D01*
X123076500Y-90844000D01*
X123077500Y-90846000D01*
X123079500Y-90848000D01*
X123080500Y-90850000D01*
X123082500Y-90852000D01*
X123083500Y-90855000D01*
X123084500Y-90857000D01*
X123085500Y-90860000D01*
X123085500Y-90862000D01*
X123086500Y-90865000D01*
X123086500Y-90867000D01*
X123087500Y-90870000D01*
X123087500Y-90872000D01*
X123087500Y-90875000D01*
X123087500Y-91425000D01*
X123087500Y-91428000D01*
X123087500Y-91430000D01*
X123086500Y-91433000D01*
X123086500Y-91435000D01*
X123085500Y-91438000D01*
X123085500Y-91440000D01*
X123084500Y-91443000D01*
X123083500Y-91445000D01*
X123082500Y-91448000D01*
X123080500Y-91450000D01*
X123079500Y-91452000D01*
X123077500Y-91454000D01*
X123076500Y-91456000D01*
X123074500Y-91458000D01*
X123072500Y-91460000D01*
X123070500Y-91462000D01*
X123068500Y-91464000D01*
X123066500Y-91465000D01*
X123064500Y-91467000D01*
X123062500Y-91468000D01*
X123060500Y-91470000D01*
X123057500Y-91471000D01*
X123055500Y-91472000D01*
X123052500Y-91473000D01*
X123050500Y-91473000D01*
X123047500Y-91474000D01*
X123045500Y-91474000D01*
X123042500Y-91475000D01*
X123040500Y-91475000D01*
X123037500Y-91475000D01*
X122787500Y-91475000D01*
X122784500Y-91475000D01*
X122782500Y-91475000D01*
X122779500Y-91474000D01*
X122777500Y-91474000D01*
X122774500Y-91473000D01*
X122772500Y-91473000D01*
X122769500Y-91472000D01*
X122767500Y-91471000D01*
X122764500Y-91470000D01*
X122762500Y-91468000D01*
X122760500Y-91467000D01*
X122758500Y-91465000D01*
X122756500Y-91464000D01*
X122754500Y-91462000D01*
X122752500Y-91460000D01*
X122750500Y-91458000D01*
X122748500Y-91456000D01*
X122747500Y-91454000D01*
X122745500Y-91452000D01*
X122744500Y-91450000D01*
X122742500Y-91448000D01*
X122741500Y-91445000D01*
X122740500Y-91443000D01*
X122739500Y-91440000D01*
X122739500Y-91438000D01*
X122738500Y-91435000D01*
X122738500Y-91433000D01*
X122737500Y-91430000D01*
X122737500Y-91428000D01*
X122737500Y-91425000D01*
X122737500Y-90875000D01*
X122737500Y-90872000D01*
X122737500Y-90870000D01*
X122738500Y-90867000D01*
X122738500Y-90865000D01*
X122739500Y-90862000D01*
X122739500Y-90860000D01*
X122740500Y-90857000D01*
X122741500Y-90855000D01*
X122742500Y-90852000D01*
X122744500Y-90850000D01*
X122745500Y-90848000D01*
X122747500Y-90846000D01*
X122748500Y-90844000D01*
X122750500Y-90842000D01*
X122752500Y-90840000D01*
X122754500Y-90838000D01*
X122756500Y-90836000D01*
X122758500Y-90835000D01*
X122760500Y-90833000D01*
X122762500Y-90832000D01*
X122764500Y-90830000D01*
X122767500Y-90829000D01*
X122769500Y-90828000D01*
X122772500Y-90827000D01*
X122774500Y-90827000D01*
X122777500Y-90826000D01*
X122779500Y-90826000D01*
X122782500Y-90825000D01*
X122784500Y-90825000D01*
X122787500Y-90825000D01*
X123037500Y-90825000D01*
X123040500Y-90825000D01*
X123042500Y-90825000D01*
X123045500Y-90826000D01*
G37*
X123545500Y-88676000D02*
X123547500Y-88676000D01*
X123550500Y-88677000D01*
X123552500Y-88677000D01*
X123555500Y-88678000D01*
X123557500Y-88679000D01*
X123560500Y-88680000D01*
X123562500Y-88682000D01*
X123564500Y-88683000D01*
X123566500Y-88685000D01*
X123568500Y-88686000D01*
X123570500Y-88688000D01*
X123572500Y-88690000D01*
X123574500Y-88692000D01*
X123576500Y-88694000D01*
X123577500Y-88696000D01*
X123579500Y-88698000D01*
X123580500Y-88700000D01*
X123582500Y-88702000D01*
X123583500Y-88705000D01*
X123584500Y-88707000D01*
X123585500Y-88710000D01*
X123585500Y-88712000D01*
X123586500Y-88715000D01*
X123586500Y-88717000D01*
X123587500Y-88720000D01*
X123587500Y-88722000D01*
X123587500Y-88725000D01*
X123587500Y-89275000D01*
X123587500Y-89278000D01*
X123587500Y-89280000D01*
X123586500Y-89283000D01*
X123586500Y-89285000D01*
X123585500Y-89288000D01*
X123585500Y-89290000D01*
X123584500Y-89293000D01*
X123583500Y-89295000D01*
X123582500Y-89298000D01*
X123580500Y-89300000D01*
X123579500Y-89302000D01*
X123577500Y-89304000D01*
X123576500Y-89306000D01*
X123574500Y-89308000D01*
X123572500Y-89310000D01*
X123570500Y-89312000D01*
X123568500Y-89314000D01*
X123566500Y-89315000D01*
X123564500Y-89317000D01*
X123562500Y-89318000D01*
X123560500Y-89320000D01*
X123557500Y-89321000D01*
X123555500Y-89322000D01*
X123552500Y-89323000D01*
X123550500Y-89323000D01*
X123547500Y-89324000D01*
X123545500Y-89324000D01*
X123542500Y-89325000D01*
X123540500Y-89325000D01*
X123537500Y-89325000D01*
X123287500Y-89325000D01*
X123284500Y-89325000D01*
X123282500Y-89325000D01*
X123279500Y-89324000D01*
X123277500Y-89324000D01*
X123274500Y-89323000D01*
X123272500Y-89323000D01*
X123269500Y-89322000D01*
X123267500Y-89321000D01*
X123264500Y-89320000D01*
X123262500Y-89318000D01*
X123260500Y-89317000D01*
X123258500Y-89315000D01*
X123256500Y-89314000D01*
X123254500Y-89312000D01*
X123252500Y-89310000D01*
X123250500Y-89308000D01*
X123248500Y-89306000D01*
X123247500Y-89304000D01*
X123245500Y-89302000D01*
X123244500Y-89300000D01*
X123242500Y-89298000D01*
X123241500Y-89295000D01*
X123240500Y-89293000D01*
X123239500Y-89290000D01*
X123239500Y-89288000D01*
X123238500Y-89285000D01*
X123238500Y-89283000D01*
X123237500Y-89280000D01*
X123237500Y-89278000D01*
X123237500Y-89275000D01*
X123237500Y-88725000D01*
X123237500Y-88722000D01*
X123237500Y-88720000D01*
X123238500Y-88717000D01*
X123238500Y-88715000D01*
X123239500Y-88712000D01*
X123239500Y-88710000D01*
X123240500Y-88707000D01*
X123241500Y-88705000D01*
X123242500Y-88702000D01*
X123244500Y-88700000D01*
X123245500Y-88698000D01*
X123247500Y-88696000D01*
X123248500Y-88694000D01*
X123250500Y-88692000D01*
X123252500Y-88690000D01*
X123254500Y-88688000D01*
X123256500Y-88686000D01*
X123258500Y-88685000D01*
X123260500Y-88683000D01*
X123262500Y-88682000D01*
X123264500Y-88680000D01*
X123267500Y-88679000D01*
X123269500Y-88678000D01*
X123272500Y-88677000D01*
X123274500Y-88677000D01*
X123277500Y-88676000D01*
X123279500Y-88676000D01*
X123282500Y-88675000D01*
X123284500Y-88675000D01*
X123287500Y-88675000D01*
X123537500Y-88675000D01*
X123540500Y-88675000D01*
X123542500Y-88675000D01*
X123545500Y-88676000D01*
G36*
X123545500Y-88676000D02*
G01*
X123547500Y-88676000D01*
X123550500Y-88677000D01*
X123552500Y-88677000D01*
X123555500Y-88678000D01*
X123557500Y-88679000D01*
X123560500Y-88680000D01*
X123562500Y-88682000D01*
X123564500Y-88683000D01*
X123566500Y-88685000D01*
X123568500Y-88686000D01*
X123570500Y-88688000D01*
X123572500Y-88690000D01*
X123574500Y-88692000D01*
X123576500Y-88694000D01*
X123577500Y-88696000D01*
X123579500Y-88698000D01*
X123580500Y-88700000D01*
X123582500Y-88702000D01*
X123583500Y-88705000D01*
X123584500Y-88707000D01*
X123585500Y-88710000D01*
X123585500Y-88712000D01*
X123586500Y-88715000D01*
X123586500Y-88717000D01*
X123587500Y-88720000D01*
X123587500Y-88722000D01*
X123587500Y-88725000D01*
X123587500Y-89275000D01*
X123587500Y-89278000D01*
X123587500Y-89280000D01*
X123586500Y-89283000D01*
X123586500Y-89285000D01*
X123585500Y-89288000D01*
X123585500Y-89290000D01*
X123584500Y-89293000D01*
X123583500Y-89295000D01*
X123582500Y-89298000D01*
X123580500Y-89300000D01*
X123579500Y-89302000D01*
X123577500Y-89304000D01*
X123576500Y-89306000D01*
X123574500Y-89308000D01*
X123572500Y-89310000D01*
X123570500Y-89312000D01*
X123568500Y-89314000D01*
X123566500Y-89315000D01*
X123564500Y-89317000D01*
X123562500Y-89318000D01*
X123560500Y-89320000D01*
X123557500Y-89321000D01*
X123555500Y-89322000D01*
X123552500Y-89323000D01*
X123550500Y-89323000D01*
X123547500Y-89324000D01*
X123545500Y-89324000D01*
X123542500Y-89325000D01*
X123540500Y-89325000D01*
X123537500Y-89325000D01*
X123287500Y-89325000D01*
X123284500Y-89325000D01*
X123282500Y-89325000D01*
X123279500Y-89324000D01*
X123277500Y-89324000D01*
X123274500Y-89323000D01*
X123272500Y-89323000D01*
X123269500Y-89322000D01*
X123267500Y-89321000D01*
X123264500Y-89320000D01*
X123262500Y-89318000D01*
X123260500Y-89317000D01*
X123258500Y-89315000D01*
X123256500Y-89314000D01*
X123254500Y-89312000D01*
X123252500Y-89310000D01*
X123250500Y-89308000D01*
X123248500Y-89306000D01*
X123247500Y-89304000D01*
X123245500Y-89302000D01*
X123244500Y-89300000D01*
X123242500Y-89298000D01*
X123241500Y-89295000D01*
X123240500Y-89293000D01*
X123239500Y-89290000D01*
X123239500Y-89288000D01*
X123238500Y-89285000D01*
X123238500Y-89283000D01*
X123237500Y-89280000D01*
X123237500Y-89278000D01*
X123237500Y-89275000D01*
X123237500Y-88725000D01*
X123237500Y-88722000D01*
X123237500Y-88720000D01*
X123238500Y-88717000D01*
X123238500Y-88715000D01*
X123239500Y-88712000D01*
X123239500Y-88710000D01*
X123240500Y-88707000D01*
X123241500Y-88705000D01*
X123242500Y-88702000D01*
X123244500Y-88700000D01*
X123245500Y-88698000D01*
X123247500Y-88696000D01*
X123248500Y-88694000D01*
X123250500Y-88692000D01*
X123252500Y-88690000D01*
X123254500Y-88688000D01*
X123256500Y-88686000D01*
X123258500Y-88685000D01*
X123260500Y-88683000D01*
X123262500Y-88682000D01*
X123264500Y-88680000D01*
X123267500Y-88679000D01*
X123269500Y-88678000D01*
X123272500Y-88677000D01*
X123274500Y-88677000D01*
X123277500Y-88676000D01*
X123279500Y-88676000D01*
X123282500Y-88675000D01*
X123284500Y-88675000D01*
X123287500Y-88675000D01*
X123537500Y-88675000D01*
X123540500Y-88675000D01*
X123542500Y-88675000D01*
X123545500Y-88676000D01*
G37*
X123545500Y-90826000D02*
X123547500Y-90826000D01*
X123550500Y-90827000D01*
X123552500Y-90827000D01*
X123555500Y-90828000D01*
X123557500Y-90829000D01*
X123560500Y-90830000D01*
X123562500Y-90832000D01*
X123564500Y-90833000D01*
X123566500Y-90835000D01*
X123568500Y-90836000D01*
X123570500Y-90838000D01*
X123572500Y-90840000D01*
X123574500Y-90842000D01*
X123576500Y-90844000D01*
X123577500Y-90846000D01*
X123579500Y-90848000D01*
X123580500Y-90850000D01*
X123582500Y-90852000D01*
X123583500Y-90855000D01*
X123584500Y-90857000D01*
X123585500Y-90860000D01*
X123585500Y-90862000D01*
X123586500Y-90865000D01*
X123586500Y-90867000D01*
X123587500Y-90870000D01*
X123587500Y-90872000D01*
X123587500Y-90875000D01*
X123587500Y-91425000D01*
X123587500Y-91428000D01*
X123587500Y-91430000D01*
X123586500Y-91433000D01*
X123586500Y-91435000D01*
X123585500Y-91438000D01*
X123585500Y-91440000D01*
X123584500Y-91443000D01*
X123583500Y-91445000D01*
X123582500Y-91448000D01*
X123580500Y-91450000D01*
X123579500Y-91452000D01*
X123577500Y-91454000D01*
X123576500Y-91456000D01*
X123574500Y-91458000D01*
X123572500Y-91460000D01*
X123570500Y-91462000D01*
X123568500Y-91464000D01*
X123566500Y-91465000D01*
X123564500Y-91467000D01*
X123562500Y-91468000D01*
X123560500Y-91470000D01*
X123557500Y-91471000D01*
X123555500Y-91472000D01*
X123552500Y-91473000D01*
X123550500Y-91473000D01*
X123547500Y-91474000D01*
X123545500Y-91474000D01*
X123542500Y-91475000D01*
X123540500Y-91475000D01*
X123537500Y-91475000D01*
X123287500Y-91475000D01*
X123284500Y-91475000D01*
X123282500Y-91475000D01*
X123279500Y-91474000D01*
X123277500Y-91474000D01*
X123274500Y-91473000D01*
X123272500Y-91473000D01*
X123269500Y-91472000D01*
X123267500Y-91471000D01*
X123264500Y-91470000D01*
X123262500Y-91468000D01*
X123260500Y-91467000D01*
X123258500Y-91465000D01*
X123256500Y-91464000D01*
X123254500Y-91462000D01*
X123252500Y-91460000D01*
X123250500Y-91458000D01*
X123248500Y-91456000D01*
X123247500Y-91454000D01*
X123245500Y-91452000D01*
X123244500Y-91450000D01*
X123242500Y-91448000D01*
X123241500Y-91445000D01*
X123240500Y-91443000D01*
X123239500Y-91440000D01*
X123239500Y-91438000D01*
X123238500Y-91435000D01*
X123238500Y-91433000D01*
X123237500Y-91430000D01*
X123237500Y-91428000D01*
X123237500Y-91425000D01*
X123237500Y-90875000D01*
X123237500Y-90872000D01*
X123237500Y-90870000D01*
X123238500Y-90867000D01*
X123238500Y-90865000D01*
X123239500Y-90862000D01*
X123239500Y-90860000D01*
X123240500Y-90857000D01*
X123241500Y-90855000D01*
X123242500Y-90852000D01*
X123244500Y-90850000D01*
X123245500Y-90848000D01*
X123247500Y-90846000D01*
X123248500Y-90844000D01*
X123250500Y-90842000D01*
X123252500Y-90840000D01*
X123254500Y-90838000D01*
X123256500Y-90836000D01*
X123258500Y-90835000D01*
X123260500Y-90833000D01*
X123262500Y-90832000D01*
X123264500Y-90830000D01*
X123267500Y-90829000D01*
X123269500Y-90828000D01*
X123272500Y-90827000D01*
X123274500Y-90827000D01*
X123277500Y-90826000D01*
X123279500Y-90826000D01*
X123282500Y-90825000D01*
X123284500Y-90825000D01*
X123287500Y-90825000D01*
X123537500Y-90825000D01*
X123540500Y-90825000D01*
X123542500Y-90825000D01*
X123545500Y-90826000D01*
G36*
X123545500Y-90826000D02*
G01*
X123547500Y-90826000D01*
X123550500Y-90827000D01*
X123552500Y-90827000D01*
X123555500Y-90828000D01*
X123557500Y-90829000D01*
X123560500Y-90830000D01*
X123562500Y-90832000D01*
X123564500Y-90833000D01*
X123566500Y-90835000D01*
X123568500Y-90836000D01*
X123570500Y-90838000D01*
X123572500Y-90840000D01*
X123574500Y-90842000D01*
X123576500Y-90844000D01*
X123577500Y-90846000D01*
X123579500Y-90848000D01*
X123580500Y-90850000D01*
X123582500Y-90852000D01*
X123583500Y-90855000D01*
X123584500Y-90857000D01*
X123585500Y-90860000D01*
X123585500Y-90862000D01*
X123586500Y-90865000D01*
X123586500Y-90867000D01*
X123587500Y-90870000D01*
X123587500Y-90872000D01*
X123587500Y-90875000D01*
X123587500Y-91425000D01*
X123587500Y-91428000D01*
X123587500Y-91430000D01*
X123586500Y-91433000D01*
X123586500Y-91435000D01*
X123585500Y-91438000D01*
X123585500Y-91440000D01*
X123584500Y-91443000D01*
X123583500Y-91445000D01*
X123582500Y-91448000D01*
X123580500Y-91450000D01*
X123579500Y-91452000D01*
X123577500Y-91454000D01*
X123576500Y-91456000D01*
X123574500Y-91458000D01*
X123572500Y-91460000D01*
X123570500Y-91462000D01*
X123568500Y-91464000D01*
X123566500Y-91465000D01*
X123564500Y-91467000D01*
X123562500Y-91468000D01*
X123560500Y-91470000D01*
X123557500Y-91471000D01*
X123555500Y-91472000D01*
X123552500Y-91473000D01*
X123550500Y-91473000D01*
X123547500Y-91474000D01*
X123545500Y-91474000D01*
X123542500Y-91475000D01*
X123540500Y-91475000D01*
X123537500Y-91475000D01*
X123287500Y-91475000D01*
X123284500Y-91475000D01*
X123282500Y-91475000D01*
X123279500Y-91474000D01*
X123277500Y-91474000D01*
X123274500Y-91473000D01*
X123272500Y-91473000D01*
X123269500Y-91472000D01*
X123267500Y-91471000D01*
X123264500Y-91470000D01*
X123262500Y-91468000D01*
X123260500Y-91467000D01*
X123258500Y-91465000D01*
X123256500Y-91464000D01*
X123254500Y-91462000D01*
X123252500Y-91460000D01*
X123250500Y-91458000D01*
X123248500Y-91456000D01*
X123247500Y-91454000D01*
X123245500Y-91452000D01*
X123244500Y-91450000D01*
X123242500Y-91448000D01*
X123241500Y-91445000D01*
X123240500Y-91443000D01*
X123239500Y-91440000D01*
X123239500Y-91438000D01*
X123238500Y-91435000D01*
X123238500Y-91433000D01*
X123237500Y-91430000D01*
X123237500Y-91428000D01*
X123237500Y-91425000D01*
X123237500Y-90875000D01*
X123237500Y-90872000D01*
X123237500Y-90870000D01*
X123238500Y-90867000D01*
X123238500Y-90865000D01*
X123239500Y-90862000D01*
X123239500Y-90860000D01*
X123240500Y-90857000D01*
X123241500Y-90855000D01*
X123242500Y-90852000D01*
X123244500Y-90850000D01*
X123245500Y-90848000D01*
X123247500Y-90846000D01*
X123248500Y-90844000D01*
X123250500Y-90842000D01*
X123252500Y-90840000D01*
X123254500Y-90838000D01*
X123256500Y-90836000D01*
X123258500Y-90835000D01*
X123260500Y-90833000D01*
X123262500Y-90832000D01*
X123264500Y-90830000D01*
X123267500Y-90829000D01*
X123269500Y-90828000D01*
X123272500Y-90827000D01*
X123274500Y-90827000D01*
X123277500Y-90826000D01*
X123279500Y-90826000D01*
X123282500Y-90825000D01*
X123284500Y-90825000D01*
X123287500Y-90825000D01*
X123537500Y-90825000D01*
X123540500Y-90825000D01*
X123542500Y-90825000D01*
X123545500Y-90826000D01*
G37*
X124370500Y-88676000D02*
X124372500Y-88676000D01*
X124375500Y-88677000D01*
X124377500Y-88677000D01*
X124380500Y-88678000D01*
X124382500Y-88679000D01*
X124385500Y-88680000D01*
X124387500Y-88682000D01*
X124389500Y-88683000D01*
X124391500Y-88685000D01*
X124393500Y-88686000D01*
X124395500Y-88688000D01*
X124397500Y-88690000D01*
X124399500Y-88692000D01*
X124401500Y-88694000D01*
X124402500Y-88696000D01*
X124404500Y-88698000D01*
X124405500Y-88700000D01*
X124407500Y-88702000D01*
X124408500Y-88705000D01*
X124409500Y-88707000D01*
X124410500Y-88710000D01*
X124410500Y-88712000D01*
X124411500Y-88715000D01*
X124411500Y-88717000D01*
X124412500Y-88720000D01*
X124412500Y-88722000D01*
X124412500Y-88725000D01*
X124412500Y-89275000D01*
X124412500Y-89278000D01*
X124412500Y-89280000D01*
X124411500Y-89283000D01*
X124411500Y-89285000D01*
X124410500Y-89288000D01*
X124410500Y-89290000D01*
X124409500Y-89293000D01*
X124408500Y-89295000D01*
X124407500Y-89298000D01*
X124405500Y-89300000D01*
X124404500Y-89302000D01*
X124402500Y-89304000D01*
X124401500Y-89306000D01*
X124399500Y-89308000D01*
X124397500Y-89310000D01*
X124395500Y-89312000D01*
X124393500Y-89314000D01*
X124391500Y-89315000D01*
X124389500Y-89317000D01*
X124387500Y-89318000D01*
X124385500Y-89320000D01*
X124382500Y-89321000D01*
X124380500Y-89322000D01*
X124377500Y-89323000D01*
X124375500Y-89323000D01*
X124372500Y-89324000D01*
X124370500Y-89324000D01*
X124367500Y-89325000D01*
X124365500Y-89325000D01*
X124362500Y-89325000D01*
X123787500Y-89325000D01*
X123784500Y-89325000D01*
X123782500Y-89325000D01*
X123779500Y-89324000D01*
X123777500Y-89324000D01*
X123774500Y-89323000D01*
X123772500Y-89323000D01*
X123769500Y-89322000D01*
X123767500Y-89321000D01*
X123764500Y-89320000D01*
X123762500Y-89318000D01*
X123760500Y-89317000D01*
X123758500Y-89315000D01*
X123756500Y-89314000D01*
X123754500Y-89312000D01*
X123752500Y-89310000D01*
X123750500Y-89308000D01*
X123748500Y-89306000D01*
X123747500Y-89304000D01*
X123745500Y-89302000D01*
X123744500Y-89300000D01*
X123742500Y-89298000D01*
X123741500Y-89295000D01*
X123740500Y-89293000D01*
X123739500Y-89290000D01*
X123739500Y-89288000D01*
X123738500Y-89285000D01*
X123738500Y-89283000D01*
X123737500Y-89280000D01*
X123737500Y-89278000D01*
X123737500Y-89275000D01*
X123737500Y-88725000D01*
X123737500Y-88722000D01*
X123737500Y-88720000D01*
X123738500Y-88717000D01*
X123738500Y-88715000D01*
X123739500Y-88712000D01*
X123739500Y-88710000D01*
X123740500Y-88707000D01*
X123741500Y-88705000D01*
X123742500Y-88702000D01*
X123744500Y-88700000D01*
X123745500Y-88698000D01*
X123747500Y-88696000D01*
X123748500Y-88694000D01*
X123750500Y-88692000D01*
X123752500Y-88690000D01*
X123754500Y-88688000D01*
X123756500Y-88686000D01*
X123758500Y-88685000D01*
X123760500Y-88683000D01*
X123762500Y-88682000D01*
X123764500Y-88680000D01*
X123767500Y-88679000D01*
X123769500Y-88678000D01*
X123772500Y-88677000D01*
X123774500Y-88677000D01*
X123777500Y-88676000D01*
X123779500Y-88676000D01*
X123782500Y-88675000D01*
X123784500Y-88675000D01*
X123787500Y-88675000D01*
X124362500Y-88675000D01*
X124365500Y-88675000D01*
X124367500Y-88675000D01*
X124370500Y-88676000D01*
G36*
X124370500Y-88676000D02*
G01*
X124372500Y-88676000D01*
X124375500Y-88677000D01*
X124377500Y-88677000D01*
X124380500Y-88678000D01*
X124382500Y-88679000D01*
X124385500Y-88680000D01*
X124387500Y-88682000D01*
X124389500Y-88683000D01*
X124391500Y-88685000D01*
X124393500Y-88686000D01*
X124395500Y-88688000D01*
X124397500Y-88690000D01*
X124399500Y-88692000D01*
X124401500Y-88694000D01*
X124402500Y-88696000D01*
X124404500Y-88698000D01*
X124405500Y-88700000D01*
X124407500Y-88702000D01*
X124408500Y-88705000D01*
X124409500Y-88707000D01*
X124410500Y-88710000D01*
X124410500Y-88712000D01*
X124411500Y-88715000D01*
X124411500Y-88717000D01*
X124412500Y-88720000D01*
X124412500Y-88722000D01*
X124412500Y-88725000D01*
X124412500Y-89275000D01*
X124412500Y-89278000D01*
X124412500Y-89280000D01*
X124411500Y-89283000D01*
X124411500Y-89285000D01*
X124410500Y-89288000D01*
X124410500Y-89290000D01*
X124409500Y-89293000D01*
X124408500Y-89295000D01*
X124407500Y-89298000D01*
X124405500Y-89300000D01*
X124404500Y-89302000D01*
X124402500Y-89304000D01*
X124401500Y-89306000D01*
X124399500Y-89308000D01*
X124397500Y-89310000D01*
X124395500Y-89312000D01*
X124393500Y-89314000D01*
X124391500Y-89315000D01*
X124389500Y-89317000D01*
X124387500Y-89318000D01*
X124385500Y-89320000D01*
X124382500Y-89321000D01*
X124380500Y-89322000D01*
X124377500Y-89323000D01*
X124375500Y-89323000D01*
X124372500Y-89324000D01*
X124370500Y-89324000D01*
X124367500Y-89325000D01*
X124365500Y-89325000D01*
X124362500Y-89325000D01*
X123787500Y-89325000D01*
X123784500Y-89325000D01*
X123782500Y-89325000D01*
X123779500Y-89324000D01*
X123777500Y-89324000D01*
X123774500Y-89323000D01*
X123772500Y-89323000D01*
X123769500Y-89322000D01*
X123767500Y-89321000D01*
X123764500Y-89320000D01*
X123762500Y-89318000D01*
X123760500Y-89317000D01*
X123758500Y-89315000D01*
X123756500Y-89314000D01*
X123754500Y-89312000D01*
X123752500Y-89310000D01*
X123750500Y-89308000D01*
X123748500Y-89306000D01*
X123747500Y-89304000D01*
X123745500Y-89302000D01*
X123744500Y-89300000D01*
X123742500Y-89298000D01*
X123741500Y-89295000D01*
X123740500Y-89293000D01*
X123739500Y-89290000D01*
X123739500Y-89288000D01*
X123738500Y-89285000D01*
X123738500Y-89283000D01*
X123737500Y-89280000D01*
X123737500Y-89278000D01*
X123737500Y-89275000D01*
X123737500Y-88725000D01*
X123737500Y-88722000D01*
X123737500Y-88720000D01*
X123738500Y-88717000D01*
X123738500Y-88715000D01*
X123739500Y-88712000D01*
X123739500Y-88710000D01*
X123740500Y-88707000D01*
X123741500Y-88705000D01*
X123742500Y-88702000D01*
X123744500Y-88700000D01*
X123745500Y-88698000D01*
X123747500Y-88696000D01*
X123748500Y-88694000D01*
X123750500Y-88692000D01*
X123752500Y-88690000D01*
X123754500Y-88688000D01*
X123756500Y-88686000D01*
X123758500Y-88685000D01*
X123760500Y-88683000D01*
X123762500Y-88682000D01*
X123764500Y-88680000D01*
X123767500Y-88679000D01*
X123769500Y-88678000D01*
X123772500Y-88677000D01*
X123774500Y-88677000D01*
X123777500Y-88676000D01*
X123779500Y-88676000D01*
X123782500Y-88675000D01*
X123784500Y-88675000D01*
X123787500Y-88675000D01*
X124362500Y-88675000D01*
X124365500Y-88675000D01*
X124367500Y-88675000D01*
X124370500Y-88676000D01*
G37*
X124370500Y-90826000D02*
X124372500Y-90826000D01*
X124375500Y-90827000D01*
X124377500Y-90827000D01*
X124380500Y-90828000D01*
X124382500Y-90829000D01*
X124385500Y-90830000D01*
X124387500Y-90832000D01*
X124389500Y-90833000D01*
X124391500Y-90835000D01*
X124393500Y-90836000D01*
X124395500Y-90838000D01*
X124397500Y-90840000D01*
X124399500Y-90842000D01*
X124401500Y-90844000D01*
X124402500Y-90846000D01*
X124404500Y-90848000D01*
X124405500Y-90850000D01*
X124407500Y-90852000D01*
X124408500Y-90855000D01*
X124409500Y-90857000D01*
X124410500Y-90860000D01*
X124410500Y-90862000D01*
X124411500Y-90865000D01*
X124411500Y-90867000D01*
X124412500Y-90870000D01*
X124412500Y-90872000D01*
X124412500Y-90875000D01*
X124412500Y-91425000D01*
X124412500Y-91428000D01*
X124412500Y-91430000D01*
X124411500Y-91433000D01*
X124411500Y-91435000D01*
X124410500Y-91438000D01*
X124410500Y-91440000D01*
X124409500Y-91443000D01*
X124408500Y-91445000D01*
X124407500Y-91448000D01*
X124405500Y-91450000D01*
X124404500Y-91452000D01*
X124402500Y-91454000D01*
X124401500Y-91456000D01*
X124399500Y-91458000D01*
X124397500Y-91460000D01*
X124395500Y-91462000D01*
X124393500Y-91464000D01*
X124391500Y-91465000D01*
X124389500Y-91467000D01*
X124387500Y-91468000D01*
X124385500Y-91470000D01*
X124382500Y-91471000D01*
X124380500Y-91472000D01*
X124377500Y-91473000D01*
X124375500Y-91473000D01*
X124372500Y-91474000D01*
X124370500Y-91474000D01*
X124367500Y-91475000D01*
X124365500Y-91475000D01*
X124362500Y-91475000D01*
X123787500Y-91475000D01*
X123784500Y-91475000D01*
X123782500Y-91475000D01*
X123779500Y-91474000D01*
X123777500Y-91474000D01*
X123774500Y-91473000D01*
X123772500Y-91473000D01*
X123769500Y-91472000D01*
X123767500Y-91471000D01*
X123764500Y-91470000D01*
X123762500Y-91468000D01*
X123760500Y-91467000D01*
X123758500Y-91465000D01*
X123756500Y-91464000D01*
X123754500Y-91462000D01*
X123752500Y-91460000D01*
X123750500Y-91458000D01*
X123748500Y-91456000D01*
X123747500Y-91454000D01*
X123745500Y-91452000D01*
X123744500Y-91450000D01*
X123742500Y-91448000D01*
X123741500Y-91445000D01*
X123740500Y-91443000D01*
X123739500Y-91440000D01*
X123739500Y-91438000D01*
X123738500Y-91435000D01*
X123738500Y-91433000D01*
X123737500Y-91430000D01*
X123737500Y-91428000D01*
X123737500Y-91425000D01*
X123737500Y-90875000D01*
X123737500Y-90872000D01*
X123737500Y-90870000D01*
X123738500Y-90867000D01*
X123738500Y-90865000D01*
X123739500Y-90862000D01*
X123739500Y-90860000D01*
X123740500Y-90857000D01*
X123741500Y-90855000D01*
X123742500Y-90852000D01*
X123744500Y-90850000D01*
X123745500Y-90848000D01*
X123747500Y-90846000D01*
X123748500Y-90844000D01*
X123750500Y-90842000D01*
X123752500Y-90840000D01*
X123754500Y-90838000D01*
X123756500Y-90836000D01*
X123758500Y-90835000D01*
X123760500Y-90833000D01*
X123762500Y-90832000D01*
X123764500Y-90830000D01*
X123767500Y-90829000D01*
X123769500Y-90828000D01*
X123772500Y-90827000D01*
X123774500Y-90827000D01*
X123777500Y-90826000D01*
X123779500Y-90826000D01*
X123782500Y-90825000D01*
X123784500Y-90825000D01*
X123787500Y-90825000D01*
X124362500Y-90825000D01*
X124365500Y-90825000D01*
X124367500Y-90825000D01*
X124370500Y-90826000D01*
G36*
X124370500Y-90826000D02*
G01*
X124372500Y-90826000D01*
X124375500Y-90827000D01*
X124377500Y-90827000D01*
X124380500Y-90828000D01*
X124382500Y-90829000D01*
X124385500Y-90830000D01*
X124387500Y-90832000D01*
X124389500Y-90833000D01*
X124391500Y-90835000D01*
X124393500Y-90836000D01*
X124395500Y-90838000D01*
X124397500Y-90840000D01*
X124399500Y-90842000D01*
X124401500Y-90844000D01*
X124402500Y-90846000D01*
X124404500Y-90848000D01*
X124405500Y-90850000D01*
X124407500Y-90852000D01*
X124408500Y-90855000D01*
X124409500Y-90857000D01*
X124410500Y-90860000D01*
X124410500Y-90862000D01*
X124411500Y-90865000D01*
X124411500Y-90867000D01*
X124412500Y-90870000D01*
X124412500Y-90872000D01*
X124412500Y-90875000D01*
X124412500Y-91425000D01*
X124412500Y-91428000D01*
X124412500Y-91430000D01*
X124411500Y-91433000D01*
X124411500Y-91435000D01*
X124410500Y-91438000D01*
X124410500Y-91440000D01*
X124409500Y-91443000D01*
X124408500Y-91445000D01*
X124407500Y-91448000D01*
X124405500Y-91450000D01*
X124404500Y-91452000D01*
X124402500Y-91454000D01*
X124401500Y-91456000D01*
X124399500Y-91458000D01*
X124397500Y-91460000D01*
X124395500Y-91462000D01*
X124393500Y-91464000D01*
X124391500Y-91465000D01*
X124389500Y-91467000D01*
X124387500Y-91468000D01*
X124385500Y-91470000D01*
X124382500Y-91471000D01*
X124380500Y-91472000D01*
X124377500Y-91473000D01*
X124375500Y-91473000D01*
X124372500Y-91474000D01*
X124370500Y-91474000D01*
X124367500Y-91475000D01*
X124365500Y-91475000D01*
X124362500Y-91475000D01*
X123787500Y-91475000D01*
X123784500Y-91475000D01*
X123782500Y-91475000D01*
X123779500Y-91474000D01*
X123777500Y-91474000D01*
X123774500Y-91473000D01*
X123772500Y-91473000D01*
X123769500Y-91472000D01*
X123767500Y-91471000D01*
X123764500Y-91470000D01*
X123762500Y-91468000D01*
X123760500Y-91467000D01*
X123758500Y-91465000D01*
X123756500Y-91464000D01*
X123754500Y-91462000D01*
X123752500Y-91460000D01*
X123750500Y-91458000D01*
X123748500Y-91456000D01*
X123747500Y-91454000D01*
X123745500Y-91452000D01*
X123744500Y-91450000D01*
X123742500Y-91448000D01*
X123741500Y-91445000D01*
X123740500Y-91443000D01*
X123739500Y-91440000D01*
X123739500Y-91438000D01*
X123738500Y-91435000D01*
X123738500Y-91433000D01*
X123737500Y-91430000D01*
X123737500Y-91428000D01*
X123737500Y-91425000D01*
X123737500Y-90875000D01*
X123737500Y-90872000D01*
X123737500Y-90870000D01*
X123738500Y-90867000D01*
X123738500Y-90865000D01*
X123739500Y-90862000D01*
X123739500Y-90860000D01*
X123740500Y-90857000D01*
X123741500Y-90855000D01*
X123742500Y-90852000D01*
X123744500Y-90850000D01*
X123745500Y-90848000D01*
X123747500Y-90846000D01*
X123748500Y-90844000D01*
X123750500Y-90842000D01*
X123752500Y-90840000D01*
X123754500Y-90838000D01*
X123756500Y-90836000D01*
X123758500Y-90835000D01*
X123760500Y-90833000D01*
X123762500Y-90832000D01*
X123764500Y-90830000D01*
X123767500Y-90829000D01*
X123769500Y-90828000D01*
X123772500Y-90827000D01*
X123774500Y-90827000D01*
X123777500Y-90826000D01*
X123779500Y-90826000D01*
X123782500Y-90825000D01*
X123784500Y-90825000D01*
X123787500Y-90825000D01*
X124362500Y-90825000D01*
X124365500Y-90825000D01*
X124367500Y-90825000D01*
X124370500Y-90826000D01*
G37*
D11*
X105750000Y-86935000D03*
X105750000Y-84565000D03*
D12*
X113490000Y-98000000D03*
X114510000Y-98000000D03*
D13*
X111590000Y-61070000D03*
X111590000Y-62030000D03*
D14*
X161750000Y-83010000D03*
X161750000Y-81990000D03*
D15*
X115250000Y-92565000D03*
X115250000Y-94935000D03*
D16*
X138710000Y-51600000D03*
X137690000Y-51600000D03*
D17*
X154480000Y-51600000D03*
X153520000Y-51600000D03*
D18*
X126750000Y-63725000D03*
X126750000Y-60775000D03*
D19*
X128750000Y-63025000D03*
X128750000Y-61475000D03*
D20*
X112250000Y-94240000D03*
X112250000Y-95260000D03*
D15*
X105750000Y-92565000D03*
X105750000Y-94935000D03*
D18*
X157250000Y-72725000D03*
X157250000Y-69775000D03*
D14*
X158750000Y-83010000D03*
X158750000Y-81990000D03*
D13*
X124250000Y-54520000D03*
X124250000Y-55480000D03*
D21*
X118500000Y-82500000D03*
D19*
X155250000Y-71775000D03*
X155250000Y-70225000D03*
D14*
X158750000Y-81010000D03*
X158750000Y-79990000D03*
D20*
X118500000Y-62990000D03*
X118500000Y-64010000D03*
D22*
X128500000Y-58287500D03*
X128500000Y-56712500D03*
D17*
X160730000Y-88000000D03*
X159770000Y-88000000D03*
D21*
X118500000Y-97000000D03*
D23*
X107950000Y-60087500D03*
X107950000Y-63012500D03*
D12*
X147990000Y-96250000D03*
X149010000Y-96250000D03*
D19*
X125412500Y-90850000D03*
X125412500Y-89300000D03*
D13*
X159750000Y-82020000D03*
X159750000Y-82980000D03*
D21*
X102500000Y-82500000D03*
D24*
X135725000Y-53750000D03*
X132775000Y-53750000D03*
X143225000Y-53750000D03*
X140275000Y-53750000D03*
D16*
X138710000Y-50600000D03*
X137690000Y-50600000D03*
D20*
X108750000Y-94240000D03*
X108750000Y-95260000D03*
D25*
X105625000Y-90500000D03*
X104075000Y-90500000D03*
D20*
X127000000Y-56990000D03*
X127000000Y-58010000D03*
D26*
X136400000Y-94000000D03*
X136400000Y-93200000D03*
X136400000Y-92400000D03*
X136400000Y-89200000D03*
X136400000Y-88400000D03*
X136400000Y-87600000D03*
X137200000Y-94000000D03*
X137200000Y-93200000D03*
X137200000Y-92400000D03*
X137200000Y-89200000D03*
X137200000Y-88400000D03*
X137200000Y-87600000D03*
X138000000Y-94000000D03*
X138000000Y-93200000D03*
X138000000Y-92400000D03*
X138000000Y-89200000D03*
X138000000Y-88400000D03*
X138000000Y-87600000D03*
X138800000Y-94000000D03*
X138800000Y-93200000D03*
X138800000Y-92400000D03*
X138800000Y-89200000D03*
X138800000Y-88400000D03*
X138800000Y-87600000D03*
X139600000Y-94000000D03*
X139600000Y-93200000D03*
X139600000Y-92400000D03*
X139600000Y-89200000D03*
X139600000Y-88400000D03*
X139600000Y-87600000D03*
X140400000Y-94000000D03*
X140400000Y-93200000D03*
X140400000Y-92400000D03*
X140400000Y-89200000D03*
X140400000Y-88400000D03*
X140400000Y-87600000D03*
X141200000Y-94000000D03*
X141200000Y-93200000D03*
X141200000Y-92400000D03*
X141200000Y-89200000D03*
X141200000Y-88400000D03*
X141200000Y-87600000D03*
X142000000Y-94000000D03*
X142000000Y-93200000D03*
X142000000Y-92400000D03*
X142000000Y-89200000D03*
X142000000Y-88400000D03*
X142000000Y-87600000D03*
X142800000Y-94000000D03*
X142800000Y-93200000D03*
X142800000Y-92400000D03*
X142800000Y-89200000D03*
X142800000Y-88400000D03*
X142800000Y-87600000D03*
X143600000Y-94000000D03*
X143600000Y-93200000D03*
X143600000Y-92400000D03*
X143600000Y-89200000D03*
X143600000Y-88400000D03*
X143600000Y-87600000D03*
X144400000Y-94000000D03*
X144400000Y-93200000D03*
X144400000Y-92400000D03*
X144400000Y-89200000D03*
X144400000Y-88400000D03*
X144400000Y-87600000D03*
X145200000Y-94000000D03*
X145200000Y-93200000D03*
X145200000Y-92400000D03*
X145200000Y-89200000D03*
X145200000Y-88400000D03*
X145200000Y-87600000D03*
X146000000Y-94000000D03*
X146000000Y-93200000D03*
X146000000Y-92400000D03*
X146000000Y-89200000D03*
X146000000Y-88400000D03*
X146000000Y-87600000D03*
X146800000Y-94000000D03*
X146800000Y-93200000D03*
X146800000Y-92400000D03*
X146800000Y-89200000D03*
X146800000Y-88400000D03*
X146800000Y-87600000D03*
X147600000Y-94000000D03*
X147600000Y-93200000D03*
X147600000Y-92400000D03*
X147600000Y-89200000D03*
X147600000Y-88400000D03*
X147600000Y-87600000D03*
X148400000Y-94000000D03*
X148400000Y-93200000D03*
X148400000Y-92400000D03*
X148400000Y-89200000D03*
X148400000Y-88400000D03*
X148400000Y-87600000D03*
D13*
X120662500Y-88845000D03*
X120662500Y-89805000D03*
D27*
X117000000Y-62712500D03*
X117000000Y-64287500D03*
D16*
X124672500Y-92325000D03*
X123652500Y-92325000D03*
D17*
X127230000Y-77250000D03*
X126270000Y-77250000D03*
D25*
X105625000Y-89000000D03*
X104075000Y-89000000D03*
D13*
X126400000Y-94870000D03*
X126400000Y-95830000D03*
D16*
X114760000Y-74500000D03*
X113740000Y-74500000D03*
D28*
X105950000Y-56130000D03*
X105950000Y-55170000D03*
D29*
X118500000Y-84975000D03*
X118500000Y-86525000D03*
D20*
X109750000Y-94240000D03*
X109750000Y-95260000D03*
D30*
X115375000Y-90500000D03*
X116925000Y-90500000D03*
X109725000Y-85500000D03*
X111275000Y-85500000D03*
D16*
X110650000Y-61000000D03*
X109630000Y-61000000D03*
D31*
X131500000Y-79500000D03*
X131500000Y-78500000D03*
X131500000Y-77500000D03*
X131500000Y-76500000D03*
X131500000Y-75500000D03*
X131500000Y-74500000D03*
X131500000Y-73500000D03*
X131500000Y-72500000D03*
X131500000Y-71500000D03*
X131500000Y-70500000D03*
X131500000Y-69500000D03*
X131500000Y-68500000D03*
X131500000Y-67500000D03*
X131500000Y-66500000D03*
X131500000Y-65500000D03*
X131500000Y-64500000D03*
X131500000Y-63500000D03*
X131500000Y-62500000D03*
X131500000Y-61500000D03*
X131500000Y-60500000D03*
X131500000Y-59500000D03*
X131500000Y-58500000D03*
X151500000Y-79500000D03*
X151500000Y-78500000D03*
X151500000Y-77500000D03*
X151500000Y-76500000D03*
X151500000Y-75500000D03*
X151500000Y-74500000D03*
X151500000Y-73500000D03*
X151500000Y-72500000D03*
X151500000Y-71500000D03*
X151500000Y-70500000D03*
X151500000Y-69500000D03*
X151500000Y-68500000D03*
X151500000Y-67500000D03*
X151500000Y-66500000D03*
X151500000Y-65500000D03*
X151500000Y-64500000D03*
X151500000Y-63500000D03*
X151500000Y-62500000D03*
X151500000Y-61500000D03*
X151500000Y-60500000D03*
X151500000Y-59500000D03*
X151500000Y-58500000D03*
X152500000Y-79500000D03*
X152500000Y-78500000D03*
X152500000Y-77500000D03*
X152500000Y-76500000D03*
X152500000Y-75500000D03*
X152500000Y-74500000D03*
X152500000Y-73500000D03*
X152500000Y-72500000D03*
X152500000Y-71500000D03*
X152500000Y-70500000D03*
X152500000Y-69500000D03*
X152500000Y-68500000D03*
X152500000Y-67500000D03*
X152500000Y-66500000D03*
X152500000Y-65500000D03*
X152500000Y-64500000D03*
X152500000Y-63500000D03*
X152500000Y-62500000D03*
X152500000Y-61500000D03*
X152500000Y-60500000D03*
X152500000Y-59500000D03*
X152500000Y-58500000D03*
X132500000Y-79500000D03*
X132500000Y-78500000D03*
X132500000Y-77500000D03*
X132500000Y-76500000D03*
X132500000Y-75500000D03*
X132500000Y-74500000D03*
X132500000Y-73500000D03*
X132500000Y-72500000D03*
X132500000Y-71500000D03*
X132500000Y-70500000D03*
X132500000Y-69500000D03*
X132500000Y-68500000D03*
X132500000Y-67500000D03*
X132500000Y-66500000D03*
X132500000Y-65500000D03*
X132500000Y-64500000D03*
X132500000Y-63500000D03*
X132500000Y-62500000D03*
X132500000Y-61500000D03*
X132500000Y-60500000D03*
X132500000Y-59500000D03*
X132500000Y-58500000D03*
X133500000Y-79500000D03*
X133500000Y-78500000D03*
X133500000Y-77500000D03*
X133500000Y-76500000D03*
X133500000Y-75500000D03*
X133500000Y-74500000D03*
X133500000Y-73500000D03*
X133500000Y-72500000D03*
X133500000Y-71500000D03*
X133500000Y-70500000D03*
X133500000Y-69500000D03*
X133500000Y-68500000D03*
X133500000Y-67500000D03*
X133500000Y-66500000D03*
X133500000Y-65500000D03*
X133500000Y-64500000D03*
X133500000Y-63500000D03*
X133500000Y-62500000D03*
X133500000Y-61500000D03*
X133500000Y-60500000D03*
X133500000Y-59500000D03*
X133500000Y-58500000D03*
X134500000Y-79500000D03*
X134500000Y-78500000D03*
X134500000Y-77500000D03*
X134500000Y-76500000D03*
X134500000Y-75500000D03*
X134500000Y-74500000D03*
X134500000Y-73500000D03*
X134500000Y-72500000D03*
X134500000Y-71500000D03*
X134500000Y-70500000D03*
X134500000Y-69500000D03*
X134500000Y-68500000D03*
X134500000Y-67500000D03*
X134500000Y-66500000D03*
X134500000Y-65500000D03*
X134500000Y-64500000D03*
X134500000Y-63500000D03*
X134500000Y-62500000D03*
X134500000Y-61500000D03*
X134500000Y-60500000D03*
X134500000Y-59500000D03*
X134500000Y-58500000D03*
X135500000Y-79500000D03*
X135500000Y-78500000D03*
X135500000Y-77500000D03*
X135500000Y-76500000D03*
X135500000Y-75500000D03*
X135500000Y-74500000D03*
X135500000Y-73500000D03*
X135500000Y-72500000D03*
X135500000Y-71500000D03*
X135500000Y-70500000D03*
X135500000Y-69500000D03*
X135500000Y-68500000D03*
X135500000Y-67500000D03*
X135500000Y-66500000D03*
X135500000Y-65500000D03*
X135500000Y-64500000D03*
X135500000Y-63500000D03*
X135500000Y-62500000D03*
X135500000Y-61500000D03*
X135500000Y-60500000D03*
X135500000Y-59500000D03*
X135500000Y-58500000D03*
X136500000Y-79500000D03*
X136500000Y-78500000D03*
X136500000Y-77500000D03*
X136500000Y-76500000D03*
X136500000Y-75500000D03*
X136500000Y-74500000D03*
X136500000Y-73500000D03*
X136500000Y-72500000D03*
X136500000Y-71500000D03*
X136500000Y-70500000D03*
X136500000Y-69500000D03*
X136500000Y-68500000D03*
X136500000Y-67500000D03*
X136500000Y-66500000D03*
X136500000Y-65500000D03*
X136500000Y-64500000D03*
X136500000Y-63500000D03*
X136500000Y-62500000D03*
X136500000Y-61500000D03*
X136500000Y-60500000D03*
X136500000Y-59500000D03*
X136500000Y-58500000D03*
X137500000Y-79500000D03*
X137500000Y-78500000D03*
X137500000Y-77500000D03*
X137500000Y-76500000D03*
X137500000Y-75500000D03*
X137500000Y-74500000D03*
X137500000Y-73500000D03*
X137500000Y-72500000D03*
X137500000Y-71500000D03*
X137500000Y-70500000D03*
X137500000Y-69500000D03*
X137500000Y-68500000D03*
X137500000Y-67500000D03*
X137500000Y-66500000D03*
X137500000Y-65500000D03*
X137500000Y-64500000D03*
X137500000Y-63500000D03*
X137500000Y-62500000D03*
X137500000Y-61500000D03*
X137500000Y-60500000D03*
X137500000Y-59500000D03*
X137500000Y-58500000D03*
X138500000Y-79500000D03*
X138500000Y-78500000D03*
X138500000Y-77500000D03*
X138500000Y-76500000D03*
X138500000Y-75500000D03*
X138500000Y-74500000D03*
X138500000Y-73500000D03*
X138500000Y-72500000D03*
X138500000Y-71500000D03*
X138500000Y-70500000D03*
X138500000Y-69500000D03*
X138500000Y-68500000D03*
X138500000Y-67500000D03*
X138500000Y-66500000D03*
X138500000Y-65500000D03*
X138500000Y-64500000D03*
X138500000Y-63500000D03*
X138500000Y-62500000D03*
X138500000Y-61500000D03*
X138500000Y-60500000D03*
X138500000Y-59500000D03*
X138500000Y-58500000D03*
X139500000Y-79500000D03*
X139500000Y-78500000D03*
X139500000Y-77500000D03*
X139500000Y-76500000D03*
X139500000Y-75500000D03*
X139500000Y-74500000D03*
X139500000Y-73500000D03*
X139500000Y-72500000D03*
X139500000Y-71500000D03*
X139500000Y-70500000D03*
X139500000Y-69500000D03*
X139500000Y-68500000D03*
X139500000Y-67500000D03*
X139500000Y-66500000D03*
X139500000Y-65500000D03*
X139500000Y-64500000D03*
X139500000Y-63500000D03*
X139500000Y-62500000D03*
X139500000Y-61500000D03*
X139500000Y-60500000D03*
X139500000Y-59500000D03*
X139500000Y-58500000D03*
X140500000Y-79500000D03*
X140500000Y-78500000D03*
X140500000Y-77500000D03*
X140500000Y-76500000D03*
X140500000Y-75500000D03*
X140500000Y-74500000D03*
X140500000Y-73500000D03*
X140500000Y-72500000D03*
X140500000Y-71500000D03*
X140500000Y-70500000D03*
X140500000Y-69500000D03*
X140500000Y-68500000D03*
X140500000Y-67500000D03*
X140500000Y-66500000D03*
X140500000Y-65500000D03*
X140500000Y-64500000D03*
X140500000Y-63500000D03*
X140500000Y-62500000D03*
X140500000Y-61500000D03*
X140500000Y-60500000D03*
X140500000Y-59500000D03*
X140500000Y-58500000D03*
X141500000Y-79500000D03*
X141500000Y-78500000D03*
X141500000Y-77500000D03*
X141500000Y-76500000D03*
X141500000Y-75500000D03*
X141500000Y-74500000D03*
X141500000Y-73500000D03*
X141500000Y-72500000D03*
X141500000Y-71500000D03*
X141500000Y-70500000D03*
X141500000Y-69500000D03*
X141500000Y-68500000D03*
X141500000Y-67500000D03*
X141500000Y-66500000D03*
X141500000Y-65500000D03*
X141500000Y-64500000D03*
X141500000Y-63500000D03*
X141500000Y-62500000D03*
X141500000Y-61500000D03*
X141500000Y-60500000D03*
X141500000Y-59500000D03*
X141500000Y-58500000D03*
X142500000Y-79500000D03*
X142500000Y-78500000D03*
X142500000Y-77500000D03*
X142500000Y-76500000D03*
X142500000Y-75500000D03*
X142500000Y-74500000D03*
X142500000Y-73500000D03*
X142500000Y-72500000D03*
X142500000Y-71500000D03*
X142500000Y-70500000D03*
X142500000Y-69500000D03*
X142500000Y-68500000D03*
X142500000Y-67500000D03*
X142500000Y-66500000D03*
X142500000Y-65500000D03*
X142500000Y-64500000D03*
X142500000Y-63500000D03*
X142500000Y-62500000D03*
X142500000Y-61500000D03*
X142500000Y-60500000D03*
X142500000Y-59500000D03*
X142500000Y-58500000D03*
X143500000Y-79500000D03*
X143500000Y-78500000D03*
X143500000Y-77500000D03*
X143500000Y-76500000D03*
X143500000Y-75500000D03*
X143500000Y-74500000D03*
X143500000Y-73500000D03*
X143500000Y-72500000D03*
X143500000Y-71500000D03*
X143500000Y-70500000D03*
X143500000Y-69500000D03*
X143500000Y-68500000D03*
X143500000Y-67500000D03*
X143500000Y-66500000D03*
X143500000Y-65500000D03*
X143500000Y-64500000D03*
X143500000Y-63500000D03*
X143500000Y-62500000D03*
X143500000Y-61500000D03*
X143500000Y-60500000D03*
X143500000Y-59500000D03*
X143500000Y-58500000D03*
X144500000Y-79500000D03*
X144500000Y-78500000D03*
X144500000Y-77500000D03*
X144500000Y-76500000D03*
X144500000Y-75500000D03*
X144500000Y-74500000D03*
X144500000Y-73500000D03*
X144500000Y-72500000D03*
X144500000Y-71500000D03*
X144500000Y-70500000D03*
X144500000Y-69500000D03*
X144500000Y-68500000D03*
X144500000Y-67500000D03*
X144500000Y-66500000D03*
X144500000Y-65500000D03*
X144500000Y-64500000D03*
X144500000Y-63500000D03*
X144500000Y-62500000D03*
X144500000Y-61500000D03*
X144500000Y-60500000D03*
X144500000Y-59500000D03*
X144500000Y-58500000D03*
X145500000Y-79500000D03*
X145500000Y-78500000D03*
X145500000Y-77500000D03*
X145500000Y-76500000D03*
X145500000Y-75500000D03*
X145500000Y-74500000D03*
X145500000Y-73500000D03*
X145500000Y-72500000D03*
X145500000Y-71500000D03*
X145500000Y-70500000D03*
X145500000Y-69500000D03*
X145500000Y-68500000D03*
X145500000Y-67500000D03*
X145500000Y-66500000D03*
X145500000Y-65500000D03*
X145500000Y-64500000D03*
X145500000Y-63500000D03*
X145500000Y-62500000D03*
X145500000Y-61500000D03*
X145500000Y-60500000D03*
X145500000Y-59500000D03*
X145500000Y-58500000D03*
X146500000Y-79500000D03*
X146500000Y-78500000D03*
X146500000Y-77500000D03*
X146500000Y-76500000D03*
X146500000Y-75500000D03*
X146500000Y-74500000D03*
X146500000Y-73500000D03*
X146500000Y-72500000D03*
X146500000Y-71500000D03*
X146500000Y-70500000D03*
X146500000Y-69500000D03*
X146500000Y-68500000D03*
X146500000Y-67500000D03*
X146500000Y-66500000D03*
X146500000Y-65500000D03*
X146500000Y-64500000D03*
X146500000Y-63500000D03*
X146500000Y-62500000D03*
X146500000Y-61500000D03*
X146500000Y-60500000D03*
X146500000Y-59500000D03*
X146500000Y-58500000D03*
X147500000Y-79500000D03*
X147500000Y-78500000D03*
X147500000Y-77500000D03*
X147500000Y-76500000D03*
X147500000Y-75500000D03*
X147500000Y-74500000D03*
X147500000Y-73500000D03*
X147500000Y-72500000D03*
X147500000Y-71500000D03*
X147500000Y-70500000D03*
X147500000Y-69500000D03*
X147500000Y-68500000D03*
X147500000Y-67500000D03*
X147500000Y-66500000D03*
X147500000Y-65500000D03*
X147500000Y-64500000D03*
X147500000Y-63500000D03*
X147500000Y-62500000D03*
X147500000Y-61500000D03*
X147500000Y-60500000D03*
X147500000Y-59500000D03*
X147500000Y-58500000D03*
X148500000Y-79500000D03*
X148500000Y-78500000D03*
X148500000Y-77500000D03*
X148500000Y-76500000D03*
X148500000Y-75500000D03*
X148500000Y-74500000D03*
X148500000Y-73500000D03*
X148500000Y-72500000D03*
X148500000Y-71500000D03*
X148500000Y-70500000D03*
X148500000Y-69500000D03*
X148500000Y-68500000D03*
X148500000Y-67500000D03*
X148500000Y-66500000D03*
X148500000Y-65500000D03*
X148500000Y-64500000D03*
X148500000Y-63500000D03*
X148500000Y-62500000D03*
X148500000Y-61500000D03*
X148500000Y-60500000D03*
X148500000Y-59500000D03*
X148500000Y-58500000D03*
X149500000Y-79500000D03*
X149500000Y-78500000D03*
X149500000Y-77500000D03*
X149500000Y-76500000D03*
X149500000Y-75500000D03*
X149500000Y-74500000D03*
X149500000Y-73500000D03*
X149500000Y-72500000D03*
X149500000Y-71500000D03*
X149500000Y-70500000D03*
X149500000Y-69500000D03*
X149500000Y-68500000D03*
X149500000Y-67500000D03*
X149500000Y-66500000D03*
X149500000Y-65500000D03*
X149500000Y-64500000D03*
X149500000Y-63500000D03*
X149500000Y-62500000D03*
X149500000Y-61500000D03*
X149500000Y-60500000D03*
X149500000Y-59500000D03*
X149500000Y-58500000D03*
X150500000Y-79500000D03*
X150500000Y-78500000D03*
X150500000Y-77500000D03*
X150500000Y-76500000D03*
X150500000Y-75500000D03*
X150500000Y-74500000D03*
X150500000Y-73500000D03*
X150500000Y-72500000D03*
X150500000Y-71500000D03*
X150500000Y-70500000D03*
X150500000Y-69500000D03*
X150500000Y-68500000D03*
X150500000Y-67500000D03*
X150500000Y-66500000D03*
X150500000Y-65500000D03*
X150500000Y-64500000D03*
X150500000Y-63500000D03*
X150500000Y-62500000D03*
X150500000Y-61500000D03*
X150500000Y-60500000D03*
X150500000Y-59500000D03*
X150500000Y-58500000D03*
D18*
X126750000Y-69225000D03*
X126750000Y-66275000D03*
D21*
X128000000Y-97500000D03*
D32*
X103500000Y-52500000D03*
D33*
X103500000Y-47500000D03*
D14*
X118800000Y-56110000D03*
X118800000Y-55090000D03*
D34*
X115950000Y-53562500D03*
X115450000Y-53562500D03*
X114950000Y-53562500D03*
X114450000Y-53562500D03*
D35*
X113762500Y-54250000D03*
X113762500Y-54750000D03*
X113762500Y-55250000D03*
X113762500Y-55750000D03*
D34*
X114450000Y-56437500D03*
X114950000Y-56437500D03*
X115450000Y-56437500D03*
X115950000Y-56437500D03*
D35*
X116637500Y-55750000D03*
X116637500Y-55250000D03*
X116637500Y-54750000D03*
X116637500Y-54250000D03*
D36*
X115200000Y-55000000D03*
D37*
X160250000Y-60790000D03*
X159234000Y-55710000D03*
X161266000Y-55710000D03*
D38*
X160885000Y-59520000D03*
X159615000Y-59520000D03*
X160885000Y-58250000D03*
X159615000Y-58250000D03*
X160885000Y-56980000D03*
X159615000Y-56980000D03*
D17*
X127230000Y-76250000D03*
X126270000Y-76250000D03*
D16*
X122672500Y-92325000D03*
X121652500Y-92325000D03*
D20*
X125400000Y-95840000D03*
X125400000Y-96860000D03*
D25*
X135025000Y-55750000D03*
X133475000Y-55750000D03*
D39*
X120150000Y-54237500D03*
X120150000Y-54737500D03*
X120150000Y-55237500D03*
X120150000Y-55737500D03*
X123050000Y-55737500D03*
X123050000Y-55237500D03*
X123050000Y-54737500D03*
X123050000Y-54237500D03*
D40*
X121600000Y-54987500D03*
D18*
X157250000Y-67475000D03*
X157250000Y-64525000D03*
D21*
X102500000Y-97000000D03*
D20*
X118800000Y-52890000D03*
X118800000Y-53910000D03*
X111250000Y-94240000D03*
X111250000Y-95260000D03*
D14*
X120662500Y-91835000D03*
X120662500Y-90815000D03*
D41*
X159125000Y-86550000D03*
D42*
X160250000Y-86550000D03*
D41*
X161375000Y-86550000D03*
X161375000Y-84950000D03*
D42*
X160250000Y-84950000D03*
D41*
X159125000Y-84950000D03*
D34*
X109350000Y-53562500D03*
X108850000Y-53562500D03*
X108350000Y-53562500D03*
X107850000Y-53562500D03*
D35*
X107162500Y-54250000D03*
X107162500Y-54750000D03*
X107162500Y-55250000D03*
X107162500Y-55750000D03*
D34*
X107850000Y-56437500D03*
X108350000Y-56437500D03*
X108850000Y-56437500D03*
X109350000Y-56437500D03*
D35*
X110037500Y-55750000D03*
X110037500Y-55250000D03*
X110037500Y-54750000D03*
X110037500Y-54250000D03*
D36*
X108600000Y-55000000D03*
D24*
X123887500Y-87075000D03*
X120937500Y-87075000D03*
D14*
X161750000Y-81010000D03*
X161750000Y-79990000D03*
D33*
X161500000Y-96500000D03*
D19*
X128750000Y-68525000D03*
X128750000Y-66975000D03*
X118500000Y-94525000D03*
X118500000Y-92975000D03*
D32*
X156500000Y-96500000D03*
D14*
X125400000Y-94860000D03*
X125400000Y-93840000D03*
D43*
X112037500Y-98000000D03*
X110462500Y-98000000D03*
D30*
X115375000Y-89000000D03*
X116925000Y-89000000D03*
D19*
X155250000Y-66775000D03*
X155250000Y-65225000D03*
X102500000Y-94525000D03*
X102500000Y-92975000D03*
D11*
X115250000Y-86935000D03*
X115250000Y-84565000D03*
D27*
X124700000Y-62262500D03*
X124700000Y-63837500D03*
D44*
X111850000Y-68000000D03*
X111850000Y-68500000D03*
X111850000Y-69000000D03*
X111850000Y-69500000D03*
X111850000Y-70000000D03*
X111850000Y-70500000D03*
X111850000Y-71000000D03*
X111850000Y-71500000D03*
X111850000Y-72000000D03*
X111850000Y-72500000D03*
X111850000Y-73000000D03*
X111850000Y-73500000D03*
X111850000Y-74000000D03*
X111850000Y-74500000D03*
X111850000Y-75000000D03*
X111850000Y-75500000D03*
X111850000Y-76000000D03*
D45*
X108600000Y-66100000D03*
X108600000Y-77900000D03*
D29*
X102500000Y-84975000D03*
X102500000Y-86525000D03*
D46*
X147087500Y-51595000D03*
X147087500Y-52865000D03*
X147087500Y-54135000D03*
X147087500Y-55405000D03*
X152412500Y-55405000D03*
X152412500Y-54135000D03*
X152412500Y-52865000D03*
X152412500Y-51595000D03*
D47*
X149750000Y-53500000D03*
D16*
X110650000Y-62100000D03*
X109630000Y-62100000D03*
D13*
X160750000Y-82020000D03*
X160750000Y-82980000D03*
D16*
X138710000Y-52600000D03*
X137690000Y-52600000D03*
D28*
X112550000Y-56130000D03*
X112550000Y-55170000D03*
D21*
X122749000Y-63863155D03*
D48*
X108537500Y-88550000D03*
X108537500Y-88950000D03*
X108537500Y-89350000D03*
X108537500Y-89750000D03*
X108537500Y-90150000D03*
X108537500Y-90550000D03*
X108537500Y-90950000D03*
D49*
X109300000Y-91712500D03*
X109700000Y-91712500D03*
X110100000Y-91712500D03*
X110500000Y-91712500D03*
X110900000Y-91712500D03*
X111300000Y-91712500D03*
X111700000Y-91712500D03*
D48*
X112462500Y-90950000D03*
X112462500Y-90550000D03*
X112462500Y-90150000D03*
X112462500Y-89750000D03*
X112462500Y-89350000D03*
X112462500Y-88950000D03*
X112462500Y-88550000D03*
D49*
X111700000Y-87787500D03*
X111300000Y-87787500D03*
X110900000Y-87787500D03*
X110500000Y-87787500D03*
X110100000Y-87787500D03*
X109700000Y-87787500D03*
X109300000Y-87787500D03*
D50*
X110500000Y-89750000D03*
D51*
X123650000Y-96812500D03*
X123650000Y-93887500D03*
D12*
X159740000Y-81000000D03*
X160760000Y-81000000D03*
D25*
X142525000Y-55750000D03*
X140975000Y-55750000D03*
D52*
X108370000Y-48770000D03*
D53*
X108370000Y-46230000D03*
X110910000Y-48770000D03*
X110910000Y-46230000D03*
X113450000Y-48770000D03*
X113450000Y-46230000D03*
X115990000Y-48770000D03*
X115990000Y-46230000D03*
X118530000Y-48770000D03*
X118530000Y-46230000D03*
X121070000Y-48770000D03*
X121070000Y-46230000D03*
X123610000Y-48770000D03*
X123610000Y-46230000D03*
X126150000Y-48770000D03*
X126150000Y-46230000D03*
X128690000Y-48770000D03*
X128690000Y-46230000D03*
X131230000Y-48770000D03*
X131230000Y-46230000D03*
X133770000Y-48770000D03*
X133770000Y-46230000D03*
X136310000Y-48770000D03*
X136310000Y-46230000D03*
X138850000Y-48770000D03*
X138850000Y-46230000D03*
X141390000Y-48770000D03*
X141390000Y-46230000D03*
X143930000Y-48770000D03*
X143930000Y-46230000D03*
X146470000Y-48770000D03*
X146470000Y-46230000D03*
X149010000Y-48770000D03*
X149010000Y-46230000D03*
X151550000Y-48770000D03*
X151550000Y-46230000D03*
X154090000Y-48770000D03*
X154090000Y-46230000D03*
X156630000Y-48770000D03*
X156630000Y-46230000D03*
M02*
