G04 #@! TF.GenerationSoftware,KiCad,Pcbnew,9.99.0-4890-gde912bdc9a*
G04 #@! TF.CreationDate,2026-01-24T23:45:41-08:00*
G04 #@! TF.ProjectId,RPi-HwAB-1,5250692d-4877-4414-922d-312e6b696361,rev?*
G04 #@! TF.SameCoordinates,Original*
G04 #@! TF.FileFunction,Legend,Bot*
G04 #@! TF.FilePolarity,Positive*
%FSLAX46Y46*%
G04 Gerber Fmt 4.6, Leading zero omitted, Abs format (unit mm)*
G04 Created by KiCad (PCBNEW 9.99.0-4890-gde912bdc9a) date 2026-01-24 23:45:41*
%MOMM*%
%LPD*%
G01*
G04 APERTURE LIST*
G04 Aperture macros list*
%AMRoundRect*
0 Rectangle with rounded corners*
0 $1 Rounding radius*
0 $2 $3 $4 $5 $6 $7 $8 $9 X,Y pos of 4 corners*
0 Add a 4 corners polygon primitive as box body*
4,1,4,$2,$3,$4,$5,$6,$7,$8,$9,$2,$3,0*
0 Add four circle primitives for the rounded corners*
1,1,$1+$1,$2,$3*
1,1,$1+$1,$4,$5*
1,1,$1+$1,$6,$7*
1,1,$1+$1,$8,$9*
0 Add four rect primitives between the rounded corners*
20,1,$1+$1,$2,$3,$4,$5,0*
20,1,$1+$1,$4,$5,$6,$7,0*
20,1,$1+$1,$6,$7,$8,$9,0*
20,1,$1+$1,$8,$9,$2,$3,0*%
G04 Aperture macros list end*
%ADD10C,0.150000*%
%ADD11C,0.180000*%
%ADD12C,0.120000*%
%ADD13C,2.700000*%
%ADD14C,0.990600*%
%ADD15R,1.700000X1.700000*%
%ADD16O,1.700000X1.700000*%
%ADD17RoundRect,0.140000X-0.140000X-0.170000X0.140000X-0.170000X0.140000X0.170000X-0.140000X0.170000X0*%
%ADD18RoundRect,0.135000X0.135000X0.185000X-0.135000X0.185000X-0.135000X-0.185000X0.135000X-0.185000X0*%
%ADD19RoundRect,0.135000X-0.135000X-0.185000X0.135000X-0.185000X0.135000X0.185000X-0.135000X0.185000X0*%
%ADD20RoundRect,0.140000X0.140000X0.170000X-0.140000X0.170000X-0.140000X-0.170000X0.140000X-0.170000X0*%
%ADD21RoundRect,0.135000X0.185000X-0.135000X0.185000X0.135000X-0.185000X0.135000X-0.185000X-0.135000X0*%
%ADD22RoundRect,0.140000X-0.170000X0.140000X-0.170000X-0.140000X0.170000X-0.140000X0.170000X0.140000X0*%
%ADD23RoundRect,0.135000X-0.185000X0.135000X-0.185000X-0.135000X0.185000X-0.135000X0.185000X0.135000X0*%
%ADD24R,1.500000X1.000000*%
%ADD25RoundRect,0.140000X0.170000X-0.140000X0.170000X0.140000X-0.170000X0.140000X-0.170000X-0.140000X0*%
%ADD26RoundRect,0.062500X0.062500X-0.337500X0.062500X0.337500X-0.062500X0.337500X-0.062500X-0.337500X0*%
%ADD27R,1.400000X1.700000*%
%ADD28RoundRect,0.225000X0.225000X0.250000X-0.225000X0.250000X-0.225000X-0.250000X0.225000X-0.250000X0*%
G04 APERTURE END LIST*
D10*
X163862295Y-60838092D02*
X163443247Y-60838092D01*
X163443247Y-60838092D02*
X163367057Y-60799997D01*
X163367057Y-60799997D02*
X163328961Y-60723806D01*
X163328961Y-60723806D02*
X163328961Y-60571425D01*
X163328961Y-60571425D02*
X163367057Y-60495235D01*
X163824200Y-60838092D02*
X163862295Y-60761901D01*
X163862295Y-60761901D02*
X163862295Y-60571425D01*
X163862295Y-60571425D02*
X163824200Y-60495235D01*
X163824200Y-60495235D02*
X163748009Y-60457139D01*
X163748009Y-60457139D02*
X163671819Y-60457139D01*
X163671819Y-60457139D02*
X163595628Y-60495235D01*
X163595628Y-60495235D02*
X163557533Y-60571425D01*
X163557533Y-60571425D02*
X163557533Y-60761901D01*
X163557533Y-60761901D02*
X163519438Y-60838092D01*
X163328961Y-61219045D02*
X163862295Y-61219045D01*
X163405152Y-61219045D02*
X163367057Y-61257140D01*
X163367057Y-61257140D02*
X163328961Y-61333330D01*
X163328961Y-61333330D02*
X163328961Y-61447616D01*
X163328961Y-61447616D02*
X163367057Y-61523807D01*
X163367057Y-61523807D02*
X163443247Y-61561902D01*
X163443247Y-61561902D02*
X163862295Y-61561902D01*
X163862295Y-62285712D02*
X163062295Y-62285712D01*
X163824200Y-62285712D02*
X163862295Y-62209521D01*
X163862295Y-62209521D02*
X163862295Y-62057140D01*
X163862295Y-62057140D02*
X163824200Y-61980950D01*
X163824200Y-61980950D02*
X163786104Y-61942855D01*
X163786104Y-61942855D02*
X163709914Y-61904759D01*
X163709914Y-61904759D02*
X163481342Y-61904759D01*
X163481342Y-61904759D02*
X163405152Y-61942855D01*
X163405152Y-61942855D02*
X163367057Y-61980950D01*
X163367057Y-61980950D02*
X163328961Y-62057140D01*
X163328961Y-62057140D02*
X163328961Y-62209521D01*
X163328961Y-62209521D02*
X163367057Y-62285712D01*
X163862295Y-62666665D02*
X163328961Y-62666665D01*
X163481342Y-62666665D02*
X163405152Y-62704760D01*
X163405152Y-62704760D02*
X163367057Y-62742855D01*
X163367057Y-62742855D02*
X163328961Y-62819046D01*
X163328961Y-62819046D02*
X163328961Y-62895236D01*
X163824200Y-63466665D02*
X163862295Y-63390474D01*
X163862295Y-63390474D02*
X163862295Y-63238093D01*
X163862295Y-63238093D02*
X163824200Y-63161903D01*
X163824200Y-63161903D02*
X163748009Y-63123807D01*
X163748009Y-63123807D02*
X163443247Y-63123807D01*
X163443247Y-63123807D02*
X163367057Y-63161903D01*
X163367057Y-63161903D02*
X163328961Y-63238093D01*
X163328961Y-63238093D02*
X163328961Y-63390474D01*
X163328961Y-63390474D02*
X163367057Y-63466665D01*
X163367057Y-63466665D02*
X163443247Y-63504760D01*
X163443247Y-63504760D02*
X163519438Y-63504760D01*
X163519438Y-63504760D02*
X163595628Y-63123807D01*
X163824200Y-64419045D02*
X163862295Y-64495236D01*
X163862295Y-64495236D02*
X163862295Y-64647617D01*
X163862295Y-64647617D02*
X163824200Y-64723807D01*
X163824200Y-64723807D02*
X163748009Y-64761903D01*
X163748009Y-64761903D02*
X163709914Y-64761903D01*
X163709914Y-64761903D02*
X163633723Y-64723807D01*
X163633723Y-64723807D02*
X163595628Y-64647617D01*
X163595628Y-64647617D02*
X163595628Y-64533331D01*
X163595628Y-64533331D02*
X163557533Y-64457141D01*
X163557533Y-64457141D02*
X163481342Y-64419045D01*
X163481342Y-64419045D02*
X163443247Y-64419045D01*
X163443247Y-64419045D02*
X163367057Y-64457141D01*
X163367057Y-64457141D02*
X163328961Y-64533331D01*
X163328961Y-64533331D02*
X163328961Y-64647617D01*
X163328961Y-64647617D02*
X163367057Y-64723807D01*
X163862295Y-65447617D02*
X163443247Y-65447617D01*
X163443247Y-65447617D02*
X163367057Y-65409522D01*
X163367057Y-65409522D02*
X163328961Y-65333331D01*
X163328961Y-65333331D02*
X163328961Y-65180950D01*
X163328961Y-65180950D02*
X163367057Y-65104760D01*
X163824200Y-65447617D02*
X163862295Y-65371426D01*
X163862295Y-65371426D02*
X163862295Y-65180950D01*
X163862295Y-65180950D02*
X163824200Y-65104760D01*
X163824200Y-65104760D02*
X163748009Y-65066664D01*
X163748009Y-65066664D02*
X163671819Y-65066664D01*
X163671819Y-65066664D02*
X163595628Y-65104760D01*
X163595628Y-65104760D02*
X163557533Y-65180950D01*
X163557533Y-65180950D02*
X163557533Y-65371426D01*
X163557533Y-65371426D02*
X163519438Y-65447617D01*
X163862295Y-65942855D02*
X163824200Y-65866665D01*
X163824200Y-65866665D02*
X163748009Y-65828570D01*
X163748009Y-65828570D02*
X163062295Y-65828570D01*
X163328961Y-66171427D02*
X163862295Y-66361903D01*
X163862295Y-66361903D02*
X163328961Y-66552380D01*
X163862295Y-67199999D02*
X163443247Y-67199999D01*
X163443247Y-67199999D02*
X163367057Y-67161904D01*
X163367057Y-67161904D02*
X163328961Y-67085713D01*
X163328961Y-67085713D02*
X163328961Y-66933332D01*
X163328961Y-66933332D02*
X163367057Y-66857142D01*
X163824200Y-67199999D02*
X163862295Y-67123808D01*
X163862295Y-67123808D02*
X163862295Y-66933332D01*
X163862295Y-66933332D02*
X163824200Y-66857142D01*
X163824200Y-66857142D02*
X163748009Y-66819046D01*
X163748009Y-66819046D02*
X163671819Y-66819046D01*
X163671819Y-66819046D02*
X163595628Y-66857142D01*
X163595628Y-66857142D02*
X163557533Y-66933332D01*
X163557533Y-66933332D02*
X163557533Y-67123808D01*
X163557533Y-67123808D02*
X163519438Y-67199999D01*
X163862295Y-67923809D02*
X163062295Y-67923809D01*
X163824200Y-67923809D02*
X163862295Y-67847618D01*
X163862295Y-67847618D02*
X163862295Y-67695237D01*
X163862295Y-67695237D02*
X163824200Y-67619047D01*
X163824200Y-67619047D02*
X163786104Y-67580952D01*
X163786104Y-67580952D02*
X163709914Y-67542856D01*
X163709914Y-67542856D02*
X163481342Y-67542856D01*
X163481342Y-67542856D02*
X163405152Y-67580952D01*
X163405152Y-67580952D02*
X163367057Y-67619047D01*
X163367057Y-67619047D02*
X163328961Y-67695237D01*
X163328961Y-67695237D02*
X163328961Y-67847618D01*
X163328961Y-67847618D02*
X163367057Y-67923809D01*
X163862295Y-68419047D02*
X163824200Y-68342857D01*
X163824200Y-68342857D02*
X163786104Y-68304762D01*
X163786104Y-68304762D02*
X163709914Y-68266666D01*
X163709914Y-68266666D02*
X163481342Y-68266666D01*
X163481342Y-68266666D02*
X163405152Y-68304762D01*
X163405152Y-68304762D02*
X163367057Y-68342857D01*
X163367057Y-68342857D02*
X163328961Y-68419047D01*
X163328961Y-68419047D02*
X163328961Y-68533333D01*
X163328961Y-68533333D02*
X163367057Y-68609524D01*
X163367057Y-68609524D02*
X163405152Y-68647619D01*
X163405152Y-68647619D02*
X163481342Y-68685714D01*
X163481342Y-68685714D02*
X163709914Y-68685714D01*
X163709914Y-68685714D02*
X163786104Y-68647619D01*
X163786104Y-68647619D02*
X163824200Y-68609524D01*
X163824200Y-68609524D02*
X163862295Y-68533333D01*
X163862295Y-68533333D02*
X163862295Y-68419047D01*
X163862295Y-69028572D02*
X163328961Y-69028572D01*
X163481342Y-69028572D02*
X163405152Y-69066667D01*
X163405152Y-69066667D02*
X163367057Y-69104762D01*
X163367057Y-69104762D02*
X163328961Y-69180953D01*
X163328961Y-69180953D02*
X163328961Y-69257143D01*
X163328961Y-70057143D02*
X163862295Y-70209524D01*
X163862295Y-70209524D02*
X163481342Y-70361905D01*
X163481342Y-70361905D02*
X163862295Y-70514286D01*
X163862295Y-70514286D02*
X163328961Y-70666667D01*
X163862295Y-70971429D02*
X163328961Y-70971429D01*
X163062295Y-70971429D02*
X163100390Y-70933333D01*
X163100390Y-70933333D02*
X163138485Y-70971429D01*
X163138485Y-70971429D02*
X163100390Y-71009524D01*
X163100390Y-71009524D02*
X163062295Y-70971429D01*
X163062295Y-70971429D02*
X163138485Y-70971429D01*
X163328961Y-71352381D02*
X163862295Y-71352381D01*
X163405152Y-71352381D02*
X163367057Y-71390476D01*
X163367057Y-71390476D02*
X163328961Y-71466666D01*
X163328961Y-71466666D02*
X163328961Y-71580952D01*
X163328961Y-71580952D02*
X163367057Y-71657143D01*
X163367057Y-71657143D02*
X163443247Y-71695238D01*
X163443247Y-71695238D02*
X163862295Y-71695238D01*
X163862295Y-72076191D02*
X163062295Y-72076191D01*
X163557533Y-72152381D02*
X163862295Y-72380953D01*
X163328961Y-72380953D02*
X163633723Y-72076191D01*
X163824200Y-73028572D02*
X163862295Y-72952381D01*
X163862295Y-72952381D02*
X163862295Y-72800000D01*
X163862295Y-72800000D02*
X163824200Y-72723810D01*
X163824200Y-72723810D02*
X163748009Y-72685714D01*
X163748009Y-72685714D02*
X163443247Y-72685714D01*
X163443247Y-72685714D02*
X163367057Y-72723810D01*
X163367057Y-72723810D02*
X163328961Y-72800000D01*
X163328961Y-72800000D02*
X163328961Y-72952381D01*
X163328961Y-72952381D02*
X163367057Y-73028572D01*
X163367057Y-73028572D02*
X163443247Y-73066667D01*
X163443247Y-73066667D02*
X163519438Y-73066667D01*
X163519438Y-73066667D02*
X163595628Y-72685714D01*
X163862295Y-73523809D02*
X163824200Y-73447619D01*
X163824200Y-73447619D02*
X163748009Y-73409524D01*
X163748009Y-73409524D02*
X163062295Y-73409524D01*
X164128961Y-74628572D02*
X162986104Y-74628572D01*
X163481342Y-76304763D02*
X163443247Y-76266668D01*
X163443247Y-76266668D02*
X163405152Y-76190477D01*
X163405152Y-76190477D02*
X163405152Y-76114287D01*
X163405152Y-76114287D02*
X163443247Y-76038096D01*
X163443247Y-76038096D02*
X163481342Y-76000001D01*
X163481342Y-76000001D02*
X163557533Y-75961906D01*
X163557533Y-75961906D02*
X163633723Y-75961906D01*
X163633723Y-75961906D02*
X163709914Y-76000001D01*
X163709914Y-76000001D02*
X163748009Y-76038096D01*
X163748009Y-76038096D02*
X163786104Y-76114287D01*
X163786104Y-76114287D02*
X163786104Y-76190477D01*
X163786104Y-76190477D02*
X163748009Y-76266668D01*
X163748009Y-76266668D02*
X163709914Y-76304763D01*
X163405152Y-76304763D02*
X163709914Y-76304763D01*
X163709914Y-76304763D02*
X163748009Y-76342858D01*
X163748009Y-76342858D02*
X163748009Y-76380953D01*
X163748009Y-76380953D02*
X163709914Y-76457144D01*
X163709914Y-76457144D02*
X163633723Y-76495239D01*
X163633723Y-76495239D02*
X163443247Y-76495239D01*
X163443247Y-76495239D02*
X163328961Y-76419049D01*
X163328961Y-76419049D02*
X163252771Y-76304763D01*
X163252771Y-76304763D02*
X163214676Y-76152382D01*
X163214676Y-76152382D02*
X163252771Y-76000001D01*
X163252771Y-76000001D02*
X163328961Y-75885715D01*
X163328961Y-75885715D02*
X163443247Y-75809525D01*
X163443247Y-75809525D02*
X163595628Y-75771429D01*
X163595628Y-75771429D02*
X163748009Y-75809525D01*
X163748009Y-75809525D02*
X163862295Y-75885715D01*
X163862295Y-75885715D02*
X163938485Y-76000001D01*
X163938485Y-76000001D02*
X163976580Y-76152382D01*
X163976580Y-76152382D02*
X163938485Y-76304763D01*
X163938485Y-76304763D02*
X163862295Y-76419049D01*
X163328961Y-76838096D02*
X164128961Y-76838096D01*
X163367057Y-76838096D02*
X163328961Y-76914286D01*
X163328961Y-76914286D02*
X163328961Y-77066667D01*
X163328961Y-77066667D02*
X163367057Y-77142858D01*
X163367057Y-77142858D02*
X163405152Y-77180953D01*
X163405152Y-77180953D02*
X163481342Y-77219048D01*
X163481342Y-77219048D02*
X163709914Y-77219048D01*
X163709914Y-77219048D02*
X163786104Y-77180953D01*
X163786104Y-77180953D02*
X163824200Y-77142858D01*
X163824200Y-77142858D02*
X163862295Y-77066667D01*
X163862295Y-77066667D02*
X163862295Y-76914286D01*
X163862295Y-76914286D02*
X163824200Y-76838096D01*
X163862295Y-77561906D02*
X163328961Y-77561906D01*
X163481342Y-77561906D02*
X163405152Y-77600001D01*
X163405152Y-77600001D02*
X163367057Y-77638096D01*
X163367057Y-77638096D02*
X163328961Y-77714287D01*
X163328961Y-77714287D02*
X163328961Y-77790477D01*
X163824200Y-78361906D02*
X163862295Y-78285715D01*
X163862295Y-78285715D02*
X163862295Y-78133334D01*
X163862295Y-78133334D02*
X163824200Y-78057144D01*
X163824200Y-78057144D02*
X163748009Y-78019048D01*
X163748009Y-78019048D02*
X163443247Y-78019048D01*
X163443247Y-78019048D02*
X163367057Y-78057144D01*
X163367057Y-78057144D02*
X163328961Y-78133334D01*
X163328961Y-78133334D02*
X163328961Y-78285715D01*
X163328961Y-78285715D02*
X163367057Y-78361906D01*
X163367057Y-78361906D02*
X163443247Y-78400001D01*
X163443247Y-78400001D02*
X163519438Y-78400001D01*
X163519438Y-78400001D02*
X163595628Y-78019048D01*
X163824200Y-78704762D02*
X163862295Y-78780953D01*
X163862295Y-78780953D02*
X163862295Y-78933334D01*
X163862295Y-78933334D02*
X163824200Y-79009524D01*
X163824200Y-79009524D02*
X163748009Y-79047620D01*
X163748009Y-79047620D02*
X163709914Y-79047620D01*
X163709914Y-79047620D02*
X163633723Y-79009524D01*
X163633723Y-79009524D02*
X163595628Y-78933334D01*
X163595628Y-78933334D02*
X163595628Y-78819048D01*
X163595628Y-78819048D02*
X163557533Y-78742858D01*
X163557533Y-78742858D02*
X163481342Y-78704762D01*
X163481342Y-78704762D02*
X163443247Y-78704762D01*
X163443247Y-78704762D02*
X163367057Y-78742858D01*
X163367057Y-78742858D02*
X163328961Y-78819048D01*
X163328961Y-78819048D02*
X163328961Y-78933334D01*
X163328961Y-78933334D02*
X163367057Y-79009524D01*
X163328961Y-79276191D02*
X163328961Y-79580953D01*
X163062295Y-79390477D02*
X163748009Y-79390477D01*
X163748009Y-79390477D02*
X163824200Y-79428572D01*
X163824200Y-79428572D02*
X163862295Y-79504762D01*
X163862295Y-79504762D02*
X163862295Y-79580953D01*
X163862295Y-79961905D02*
X163824200Y-79885715D01*
X163824200Y-79885715D02*
X163786104Y-79847620D01*
X163786104Y-79847620D02*
X163709914Y-79809524D01*
X163709914Y-79809524D02*
X163481342Y-79809524D01*
X163481342Y-79809524D02*
X163405152Y-79847620D01*
X163405152Y-79847620D02*
X163367057Y-79885715D01*
X163367057Y-79885715D02*
X163328961Y-79961905D01*
X163328961Y-79961905D02*
X163328961Y-80076191D01*
X163328961Y-80076191D02*
X163367057Y-80152382D01*
X163367057Y-80152382D02*
X163405152Y-80190477D01*
X163405152Y-80190477D02*
X163481342Y-80228572D01*
X163481342Y-80228572D02*
X163709914Y-80228572D01*
X163709914Y-80228572D02*
X163786104Y-80190477D01*
X163786104Y-80190477D02*
X163824200Y-80152382D01*
X163824200Y-80152382D02*
X163862295Y-80076191D01*
X163862295Y-80076191D02*
X163862295Y-79961905D01*
X163328961Y-80457144D02*
X163328961Y-80761906D01*
X163862295Y-80571430D02*
X163176580Y-80571430D01*
X163176580Y-80571430D02*
X163100390Y-80609525D01*
X163100390Y-80609525D02*
X163062295Y-80685715D01*
X163062295Y-80685715D02*
X163062295Y-80761906D01*
X163328961Y-81371430D02*
X163862295Y-81371430D01*
X163328961Y-81028573D02*
X163748009Y-81028573D01*
X163748009Y-81028573D02*
X163824200Y-81066668D01*
X163824200Y-81066668D02*
X163862295Y-81142858D01*
X163862295Y-81142858D02*
X163862295Y-81257144D01*
X163862295Y-81257144D02*
X163824200Y-81333335D01*
X163824200Y-81333335D02*
X163786104Y-81371430D01*
X163862295Y-81866668D02*
X163824200Y-81790478D01*
X163824200Y-81790478D02*
X163786104Y-81752383D01*
X163786104Y-81752383D02*
X163709914Y-81714287D01*
X163709914Y-81714287D02*
X163481342Y-81714287D01*
X163481342Y-81714287D02*
X163405152Y-81752383D01*
X163405152Y-81752383D02*
X163367057Y-81790478D01*
X163367057Y-81790478D02*
X163328961Y-81866668D01*
X163328961Y-81866668D02*
X163328961Y-81980954D01*
X163328961Y-81980954D02*
X163367057Y-82057145D01*
X163367057Y-82057145D02*
X163405152Y-82095240D01*
X163405152Y-82095240D02*
X163481342Y-82133335D01*
X163481342Y-82133335D02*
X163709914Y-82133335D01*
X163709914Y-82133335D02*
X163786104Y-82095240D01*
X163786104Y-82095240D02*
X163824200Y-82057145D01*
X163824200Y-82057145D02*
X163862295Y-81980954D01*
X163862295Y-81980954D02*
X163862295Y-81866668D01*
X163824200Y-82819050D02*
X163862295Y-82742859D01*
X163862295Y-82742859D02*
X163862295Y-82590478D01*
X163862295Y-82590478D02*
X163824200Y-82514288D01*
X163824200Y-82514288D02*
X163786104Y-82476193D01*
X163786104Y-82476193D02*
X163709914Y-82438097D01*
X163709914Y-82438097D02*
X163481342Y-82438097D01*
X163481342Y-82438097D02*
X163405152Y-82476193D01*
X163405152Y-82476193D02*
X163367057Y-82514288D01*
X163367057Y-82514288D02*
X163328961Y-82590478D01*
X163328961Y-82590478D02*
X163328961Y-82742859D01*
X163328961Y-82742859D02*
X163367057Y-82819050D01*
X163862295Y-83276192D02*
X163824200Y-83200002D01*
X163824200Y-83200002D02*
X163786104Y-83161907D01*
X163786104Y-83161907D02*
X163709914Y-83123811D01*
X163709914Y-83123811D02*
X163481342Y-83123811D01*
X163481342Y-83123811D02*
X163405152Y-83161907D01*
X163405152Y-83161907D02*
X163367057Y-83200002D01*
X163367057Y-83200002D02*
X163328961Y-83276192D01*
X163328961Y-83276192D02*
X163328961Y-83390478D01*
X163328961Y-83390478D02*
X163367057Y-83466669D01*
X163367057Y-83466669D02*
X163405152Y-83504764D01*
X163405152Y-83504764D02*
X163481342Y-83542859D01*
X163481342Y-83542859D02*
X163709914Y-83542859D01*
X163709914Y-83542859D02*
X163786104Y-83504764D01*
X163786104Y-83504764D02*
X163824200Y-83466669D01*
X163824200Y-83466669D02*
X163862295Y-83390478D01*
X163862295Y-83390478D02*
X163862295Y-83276192D01*
X127960839Y-55036385D02*
X127960839Y-54503051D01*
X127960839Y-54655432D02*
X127922744Y-54579242D01*
X127922744Y-54579242D02*
X127884649Y-54541147D01*
X127884649Y-54541147D02*
X127808458Y-54503051D01*
X127808458Y-54503051D02*
X127732268Y-54503051D01*
X127122744Y-55036385D02*
X127122744Y-54617337D01*
X127122744Y-54617337D02*
X127160839Y-54541147D01*
X127160839Y-54541147D02*
X127237030Y-54503051D01*
X127237030Y-54503051D02*
X127389411Y-54503051D01*
X127389411Y-54503051D02*
X127465601Y-54541147D01*
X127122744Y-54998290D02*
X127198935Y-55036385D01*
X127198935Y-55036385D02*
X127389411Y-55036385D01*
X127389411Y-55036385D02*
X127465601Y-54998290D01*
X127465601Y-54998290D02*
X127503697Y-54922099D01*
X127503697Y-54922099D02*
X127503697Y-54845909D01*
X127503697Y-54845909D02*
X127465601Y-54769718D01*
X127465601Y-54769718D02*
X127389411Y-54731623D01*
X127389411Y-54731623D02*
X127198935Y-54731623D01*
X127198935Y-54731623D02*
X127122744Y-54693528D01*
X126779887Y-54998290D02*
X126703696Y-55036385D01*
X126703696Y-55036385D02*
X126551315Y-55036385D01*
X126551315Y-55036385D02*
X126475125Y-54998290D01*
X126475125Y-54998290D02*
X126437029Y-54922099D01*
X126437029Y-54922099D02*
X126437029Y-54884004D01*
X126437029Y-54884004D02*
X126475125Y-54807813D01*
X126475125Y-54807813D02*
X126551315Y-54769718D01*
X126551315Y-54769718D02*
X126665601Y-54769718D01*
X126665601Y-54769718D02*
X126741791Y-54731623D01*
X126741791Y-54731623D02*
X126779887Y-54655432D01*
X126779887Y-54655432D02*
X126779887Y-54617337D01*
X126779887Y-54617337D02*
X126741791Y-54541147D01*
X126741791Y-54541147D02*
X126665601Y-54503051D01*
X126665601Y-54503051D02*
X126551315Y-54503051D01*
X126551315Y-54503051D02*
X126475125Y-54541147D01*
X126094172Y-54503051D02*
X126094172Y-55303051D01*
X126094172Y-54541147D02*
X126017982Y-54503051D01*
X126017982Y-54503051D02*
X125865601Y-54503051D01*
X125865601Y-54503051D02*
X125789410Y-54541147D01*
X125789410Y-54541147D02*
X125751315Y-54579242D01*
X125751315Y-54579242D02*
X125713220Y-54655432D01*
X125713220Y-54655432D02*
X125713220Y-54884004D01*
X125713220Y-54884004D02*
X125751315Y-54960194D01*
X125751315Y-54960194D02*
X125789410Y-54998290D01*
X125789410Y-54998290D02*
X125865601Y-55036385D01*
X125865601Y-55036385D02*
X126017982Y-55036385D01*
X126017982Y-55036385D02*
X126094172Y-54998290D01*
X125370362Y-55036385D02*
X125370362Y-54236385D01*
X125370362Y-54541147D02*
X125294172Y-54503051D01*
X125294172Y-54503051D02*
X125141791Y-54503051D01*
X125141791Y-54503051D02*
X125065600Y-54541147D01*
X125065600Y-54541147D02*
X125027505Y-54579242D01*
X125027505Y-54579242D02*
X124989410Y-54655432D01*
X124989410Y-54655432D02*
X124989410Y-54884004D01*
X124989410Y-54884004D02*
X125027505Y-54960194D01*
X125027505Y-54960194D02*
X125065600Y-54998290D01*
X125065600Y-54998290D02*
X125141791Y-55036385D01*
X125141791Y-55036385D02*
X125294172Y-55036385D01*
X125294172Y-55036385D02*
X125370362Y-54998290D01*
X124341790Y-54998290D02*
X124417981Y-55036385D01*
X124417981Y-55036385D02*
X124570362Y-55036385D01*
X124570362Y-55036385D02*
X124646552Y-54998290D01*
X124646552Y-54998290D02*
X124684648Y-54922099D01*
X124684648Y-54922099D02*
X124684648Y-54617337D01*
X124684648Y-54617337D02*
X124646552Y-54541147D01*
X124646552Y-54541147D02*
X124570362Y-54503051D01*
X124570362Y-54503051D02*
X124417981Y-54503051D01*
X124417981Y-54503051D02*
X124341790Y-54541147D01*
X124341790Y-54541147D02*
X124303695Y-54617337D01*
X124303695Y-54617337D02*
X124303695Y-54693528D01*
X124303695Y-54693528D02*
X124684648Y-54769718D01*
X123960838Y-55036385D02*
X123960838Y-54503051D01*
X123960838Y-54655432D02*
X123922743Y-54579242D01*
X123922743Y-54579242D02*
X123884648Y-54541147D01*
X123884648Y-54541147D02*
X123808457Y-54503051D01*
X123808457Y-54503051D02*
X123732267Y-54503051D01*
X123465600Y-55036385D02*
X123465600Y-54503051D01*
X123465600Y-54655432D02*
X123427505Y-54579242D01*
X123427505Y-54579242D02*
X123389410Y-54541147D01*
X123389410Y-54541147D02*
X123313219Y-54503051D01*
X123313219Y-54503051D02*
X123237029Y-54503051D01*
X123046553Y-54503051D02*
X122856077Y-55036385D01*
X122665600Y-54503051D02*
X122856077Y-55036385D01*
X122856077Y-55036385D02*
X122932267Y-55226861D01*
X122932267Y-55226861D02*
X122970362Y-55264956D01*
X122970362Y-55264956D02*
X123046553Y-55303051D01*
X121751314Y-54503051D02*
X121751314Y-55303051D01*
X121751314Y-54541147D02*
X121675124Y-54503051D01*
X121675124Y-54503051D02*
X121522743Y-54503051D01*
X121522743Y-54503051D02*
X121446552Y-54541147D01*
X121446552Y-54541147D02*
X121408457Y-54579242D01*
X121408457Y-54579242D02*
X121370362Y-54655432D01*
X121370362Y-54655432D02*
X121370362Y-54884004D01*
X121370362Y-54884004D02*
X121408457Y-54960194D01*
X121408457Y-54960194D02*
X121446552Y-54998290D01*
X121446552Y-54998290D02*
X121522743Y-55036385D01*
X121522743Y-55036385D02*
X121675124Y-55036385D01*
X121675124Y-55036385D02*
X121751314Y-54998290D01*
X121027504Y-55036385D02*
X121027504Y-54503051D01*
X121027504Y-54236385D02*
X121065600Y-54274480D01*
X121065600Y-54274480D02*
X121027504Y-54312575D01*
X121027504Y-54312575D02*
X120989409Y-54274480D01*
X120989409Y-54274480D02*
X121027504Y-54236385D01*
X121027504Y-54236385D02*
X121027504Y-54312575D01*
X120037028Y-55036385D02*
X120037028Y-54236385D01*
X119694171Y-55036385D02*
X119694171Y-54617337D01*
X119694171Y-54617337D02*
X119732266Y-54541147D01*
X119732266Y-54541147D02*
X119808457Y-54503051D01*
X119808457Y-54503051D02*
X119922743Y-54503051D01*
X119922743Y-54503051D02*
X119998933Y-54541147D01*
X119998933Y-54541147D02*
X120037028Y-54579242D01*
X118970361Y-55036385D02*
X118970361Y-54617337D01*
X118970361Y-54617337D02*
X119008456Y-54541147D01*
X119008456Y-54541147D02*
X119084647Y-54503051D01*
X119084647Y-54503051D02*
X119237028Y-54503051D01*
X119237028Y-54503051D02*
X119313218Y-54541147D01*
X118970361Y-54998290D02*
X119046552Y-55036385D01*
X119046552Y-55036385D02*
X119237028Y-55036385D01*
X119237028Y-55036385D02*
X119313218Y-54998290D01*
X119313218Y-54998290D02*
X119351314Y-54922099D01*
X119351314Y-54922099D02*
X119351314Y-54845909D01*
X119351314Y-54845909D02*
X119313218Y-54769718D01*
X119313218Y-54769718D02*
X119237028Y-54731623D01*
X119237028Y-54731623D02*
X119046552Y-54731623D01*
X119046552Y-54731623D02*
X118970361Y-54693528D01*
X118589408Y-55036385D02*
X118589408Y-54503051D01*
X118589408Y-54655432D02*
X118551313Y-54579242D01*
X118551313Y-54579242D02*
X118513218Y-54541147D01*
X118513218Y-54541147D02*
X118437027Y-54503051D01*
X118437027Y-54503051D02*
X118360837Y-54503051D01*
X117751313Y-55036385D02*
X117751313Y-54236385D01*
X117751313Y-54998290D02*
X117827504Y-55036385D01*
X117827504Y-55036385D02*
X117979885Y-55036385D01*
X117979885Y-55036385D02*
X118056075Y-54998290D01*
X118056075Y-54998290D02*
X118094170Y-54960194D01*
X118094170Y-54960194D02*
X118132266Y-54884004D01*
X118132266Y-54884004D02*
X118132266Y-54655432D01*
X118132266Y-54655432D02*
X118094170Y-54579242D01*
X118094170Y-54579242D02*
X118056075Y-54541147D01*
X118056075Y-54541147D02*
X117979885Y-54503051D01*
X117979885Y-54503051D02*
X117827504Y-54503051D01*
X117827504Y-54503051D02*
X117751313Y-54541147D01*
X117446551Y-54503051D02*
X117294170Y-55036385D01*
X117294170Y-55036385D02*
X117141789Y-54655432D01*
X117141789Y-54655432D02*
X116989408Y-55036385D01*
X116989408Y-55036385D02*
X116837027Y-54503051D01*
X116189408Y-55036385D02*
X116189408Y-54617337D01*
X116189408Y-54617337D02*
X116227503Y-54541147D01*
X116227503Y-54541147D02*
X116303694Y-54503051D01*
X116303694Y-54503051D02*
X116456075Y-54503051D01*
X116456075Y-54503051D02*
X116532265Y-54541147D01*
X116189408Y-54998290D02*
X116265599Y-55036385D01*
X116265599Y-55036385D02*
X116456075Y-55036385D01*
X116456075Y-55036385D02*
X116532265Y-54998290D01*
X116532265Y-54998290D02*
X116570361Y-54922099D01*
X116570361Y-54922099D02*
X116570361Y-54845909D01*
X116570361Y-54845909D02*
X116532265Y-54769718D01*
X116532265Y-54769718D02*
X116456075Y-54731623D01*
X116456075Y-54731623D02*
X116265599Y-54731623D01*
X116265599Y-54731623D02*
X116189408Y-54693528D01*
X115808455Y-55036385D02*
X115808455Y-54503051D01*
X115808455Y-54655432D02*
X115770360Y-54579242D01*
X115770360Y-54579242D02*
X115732265Y-54541147D01*
X115732265Y-54541147D02*
X115656074Y-54503051D01*
X115656074Y-54503051D02*
X115579884Y-54503051D01*
X115008455Y-54998290D02*
X115084646Y-55036385D01*
X115084646Y-55036385D02*
X115237027Y-55036385D01*
X115237027Y-55036385D02*
X115313217Y-54998290D01*
X115313217Y-54998290D02*
X115351313Y-54922099D01*
X115351313Y-54922099D02*
X115351313Y-54617337D01*
X115351313Y-54617337D02*
X115313217Y-54541147D01*
X115313217Y-54541147D02*
X115237027Y-54503051D01*
X115237027Y-54503051D02*
X115084646Y-54503051D01*
X115084646Y-54503051D02*
X115008455Y-54541147D01*
X115008455Y-54541147D02*
X114970360Y-54617337D01*
X114970360Y-54617337D02*
X114970360Y-54693528D01*
X114970360Y-54693528D02*
X115351313Y-54769718D01*
X113675122Y-55036385D02*
X113675122Y-54617337D01*
X113675122Y-54617337D02*
X113713217Y-54541147D01*
X113713217Y-54541147D02*
X113789408Y-54503051D01*
X113789408Y-54503051D02*
X113941789Y-54503051D01*
X113941789Y-54503051D02*
X114017979Y-54541147D01*
X113675122Y-54998290D02*
X113751313Y-55036385D01*
X113751313Y-55036385D02*
X113941789Y-55036385D01*
X113941789Y-55036385D02*
X114017979Y-54998290D01*
X114017979Y-54998290D02*
X114056075Y-54922099D01*
X114056075Y-54922099D02*
X114056075Y-54845909D01*
X114056075Y-54845909D02*
X114017979Y-54769718D01*
X114017979Y-54769718D02*
X113941789Y-54731623D01*
X113941789Y-54731623D02*
X113751313Y-54731623D01*
X113751313Y-54731623D02*
X113675122Y-54693528D01*
X112951312Y-54998290D02*
X113027503Y-55036385D01*
X113027503Y-55036385D02*
X113179884Y-55036385D01*
X113179884Y-55036385D02*
X113256074Y-54998290D01*
X113256074Y-54998290D02*
X113294169Y-54960194D01*
X113294169Y-54960194D02*
X113332265Y-54884004D01*
X113332265Y-54884004D02*
X113332265Y-54655432D01*
X113332265Y-54655432D02*
X113294169Y-54579242D01*
X113294169Y-54579242D02*
X113256074Y-54541147D01*
X113256074Y-54541147D02*
X113179884Y-54503051D01*
X113179884Y-54503051D02*
X113027503Y-54503051D01*
X113027503Y-54503051D02*
X112951312Y-54541147D01*
X112265598Y-54998290D02*
X112341789Y-55036385D01*
X112341789Y-55036385D02*
X112494170Y-55036385D01*
X112494170Y-55036385D02*
X112570360Y-54998290D01*
X112570360Y-54998290D02*
X112608455Y-54960194D01*
X112608455Y-54960194D02*
X112646551Y-54884004D01*
X112646551Y-54884004D02*
X112646551Y-54655432D01*
X112646551Y-54655432D02*
X112608455Y-54579242D01*
X112608455Y-54579242D02*
X112570360Y-54541147D01*
X112570360Y-54541147D02*
X112494170Y-54503051D01*
X112494170Y-54503051D02*
X112341789Y-54503051D01*
X112341789Y-54503051D02*
X112265598Y-54541147D01*
X111617979Y-54998290D02*
X111694170Y-55036385D01*
X111694170Y-55036385D02*
X111846551Y-55036385D01*
X111846551Y-55036385D02*
X111922741Y-54998290D01*
X111922741Y-54998290D02*
X111960837Y-54922099D01*
X111960837Y-54922099D02*
X111960837Y-54617337D01*
X111960837Y-54617337D02*
X111922741Y-54541147D01*
X111922741Y-54541147D02*
X111846551Y-54503051D01*
X111846551Y-54503051D02*
X111694170Y-54503051D01*
X111694170Y-54503051D02*
X111617979Y-54541147D01*
X111617979Y-54541147D02*
X111579884Y-54617337D01*
X111579884Y-54617337D02*
X111579884Y-54693528D01*
X111579884Y-54693528D02*
X111960837Y-54769718D01*
X111122742Y-55036385D02*
X111198932Y-54998290D01*
X111198932Y-54998290D02*
X111237027Y-54922099D01*
X111237027Y-54922099D02*
X111237027Y-54236385D01*
X110513217Y-54998290D02*
X110589408Y-55036385D01*
X110589408Y-55036385D02*
X110741789Y-55036385D01*
X110741789Y-55036385D02*
X110817979Y-54998290D01*
X110817979Y-54998290D02*
X110856075Y-54922099D01*
X110856075Y-54922099D02*
X110856075Y-54617337D01*
X110856075Y-54617337D02*
X110817979Y-54541147D01*
X110817979Y-54541147D02*
X110741789Y-54503051D01*
X110741789Y-54503051D02*
X110589408Y-54503051D01*
X110589408Y-54503051D02*
X110513217Y-54541147D01*
X110513217Y-54541147D02*
X110475122Y-54617337D01*
X110475122Y-54617337D02*
X110475122Y-54693528D01*
X110475122Y-54693528D02*
X110856075Y-54769718D01*
X110132265Y-55036385D02*
X110132265Y-54503051D01*
X110132265Y-54655432D02*
X110094170Y-54579242D01*
X110094170Y-54579242D02*
X110056075Y-54541147D01*
X110056075Y-54541147D02*
X109979884Y-54503051D01*
X109979884Y-54503051D02*
X109903694Y-54503051D01*
X109294170Y-55036385D02*
X109294170Y-54617337D01*
X109294170Y-54617337D02*
X109332265Y-54541147D01*
X109332265Y-54541147D02*
X109408456Y-54503051D01*
X109408456Y-54503051D02*
X109560837Y-54503051D01*
X109560837Y-54503051D02*
X109637027Y-54541147D01*
X109294170Y-54998290D02*
X109370361Y-55036385D01*
X109370361Y-55036385D02*
X109560837Y-55036385D01*
X109560837Y-55036385D02*
X109637027Y-54998290D01*
X109637027Y-54998290D02*
X109675123Y-54922099D01*
X109675123Y-54922099D02*
X109675123Y-54845909D01*
X109675123Y-54845909D02*
X109637027Y-54769718D01*
X109637027Y-54769718D02*
X109560837Y-54731623D01*
X109560837Y-54731623D02*
X109370361Y-54731623D01*
X109370361Y-54731623D02*
X109294170Y-54693528D01*
X109027503Y-54503051D02*
X108722741Y-54503051D01*
X108913217Y-54236385D02*
X108913217Y-54922099D01*
X108913217Y-54922099D02*
X108875122Y-54998290D01*
X108875122Y-54998290D02*
X108798932Y-55036385D01*
X108798932Y-55036385D02*
X108722741Y-55036385D01*
X108456074Y-55036385D02*
X108456074Y-54503051D01*
X108456074Y-54236385D02*
X108494170Y-54274480D01*
X108494170Y-54274480D02*
X108456074Y-54312575D01*
X108456074Y-54312575D02*
X108417979Y-54274480D01*
X108417979Y-54274480D02*
X108456074Y-54236385D01*
X108456074Y-54236385D02*
X108456074Y-54312575D01*
X107960837Y-55036385D02*
X108037027Y-54998290D01*
X108037027Y-54998290D02*
X108075122Y-54960194D01*
X108075122Y-54960194D02*
X108113218Y-54884004D01*
X108113218Y-54884004D02*
X108113218Y-54655432D01*
X108113218Y-54655432D02*
X108075122Y-54579242D01*
X108075122Y-54579242D02*
X108037027Y-54541147D01*
X108037027Y-54541147D02*
X107960837Y-54503051D01*
X107960837Y-54503051D02*
X107846551Y-54503051D01*
X107846551Y-54503051D02*
X107770360Y-54541147D01*
X107770360Y-54541147D02*
X107732265Y-54579242D01*
X107732265Y-54579242D02*
X107694170Y-54655432D01*
X107694170Y-54655432D02*
X107694170Y-54884004D01*
X107694170Y-54884004D02*
X107732265Y-54960194D01*
X107732265Y-54960194D02*
X107770360Y-54998290D01*
X107770360Y-54998290D02*
X107846551Y-55036385D01*
X107846551Y-55036385D02*
X107960837Y-55036385D01*
X107351312Y-54503051D02*
X107351312Y-55036385D01*
X107351312Y-54579242D02*
X107313217Y-54541147D01*
X107313217Y-54541147D02*
X107237027Y-54503051D01*
X107237027Y-54503051D02*
X107122741Y-54503051D01*
X107122741Y-54503051D02*
X107046550Y-54541147D01*
X107046550Y-54541147D02*
X107008455Y-54617337D01*
X107008455Y-54617337D02*
X107008455Y-55036385D01*
X106017978Y-55036385D02*
X106017978Y-54236385D01*
X105675121Y-55036385D02*
X105675121Y-54617337D01*
X105675121Y-54617337D02*
X105713216Y-54541147D01*
X105713216Y-54541147D02*
X105789407Y-54503051D01*
X105789407Y-54503051D02*
X105903693Y-54503051D01*
X105903693Y-54503051D02*
X105979883Y-54541147D01*
X105979883Y-54541147D02*
X106017978Y-54579242D01*
X104951311Y-55036385D02*
X104951311Y-54617337D01*
X104951311Y-54617337D02*
X104989406Y-54541147D01*
X104989406Y-54541147D02*
X105065597Y-54503051D01*
X105065597Y-54503051D02*
X105217978Y-54503051D01*
X105217978Y-54503051D02*
X105294168Y-54541147D01*
X104951311Y-54998290D02*
X105027502Y-55036385D01*
X105027502Y-55036385D02*
X105217978Y-55036385D01*
X105217978Y-55036385D02*
X105294168Y-54998290D01*
X105294168Y-54998290D02*
X105332264Y-54922099D01*
X105332264Y-54922099D02*
X105332264Y-54845909D01*
X105332264Y-54845909D02*
X105294168Y-54769718D01*
X105294168Y-54769718D02*
X105217978Y-54731623D01*
X105217978Y-54731623D02*
X105027502Y-54731623D01*
X105027502Y-54731623D02*
X104951311Y-54693528D01*
X104684644Y-54503051D02*
X104379882Y-54503051D01*
X104570358Y-54236385D02*
X104570358Y-54922099D01*
X104570358Y-54922099D02*
X104532263Y-54998290D01*
X104532263Y-54998290D02*
X104456073Y-55036385D01*
X104456073Y-55036385D02*
X104379882Y-55036385D01*
X104113215Y-54731623D02*
X103503692Y-54731623D01*
X103808453Y-55036385D02*
X103808453Y-54426861D01*
X127960839Y-56324340D02*
X127960839Y-55791006D01*
X127960839Y-55524340D02*
X127998935Y-55562435D01*
X127998935Y-55562435D02*
X127960839Y-55600530D01*
X127960839Y-55600530D02*
X127922744Y-55562435D01*
X127922744Y-55562435D02*
X127960839Y-55524340D01*
X127960839Y-55524340D02*
X127960839Y-55600530D01*
X127579887Y-55791006D02*
X127579887Y-56324340D01*
X127579887Y-55867197D02*
X127541792Y-55829102D01*
X127541792Y-55829102D02*
X127465602Y-55791006D01*
X127465602Y-55791006D02*
X127351316Y-55791006D01*
X127351316Y-55791006D02*
X127275125Y-55829102D01*
X127275125Y-55829102D02*
X127237030Y-55905292D01*
X127237030Y-55905292D02*
X127237030Y-56324340D01*
X126970363Y-55791006D02*
X126665601Y-55791006D01*
X126856077Y-55524340D02*
X126856077Y-56210054D01*
X126856077Y-56210054D02*
X126817982Y-56286245D01*
X126817982Y-56286245D02*
X126741792Y-56324340D01*
X126741792Y-56324340D02*
X126665601Y-56324340D01*
X126094172Y-56286245D02*
X126170363Y-56324340D01*
X126170363Y-56324340D02*
X126322744Y-56324340D01*
X126322744Y-56324340D02*
X126398934Y-56286245D01*
X126398934Y-56286245D02*
X126437030Y-56210054D01*
X126437030Y-56210054D02*
X126437030Y-55905292D01*
X126437030Y-55905292D02*
X126398934Y-55829102D01*
X126398934Y-55829102D02*
X126322744Y-55791006D01*
X126322744Y-55791006D02*
X126170363Y-55791006D01*
X126170363Y-55791006D02*
X126094172Y-55829102D01*
X126094172Y-55829102D02*
X126056077Y-55905292D01*
X126056077Y-55905292D02*
X126056077Y-55981483D01*
X126056077Y-55981483D02*
X126437030Y-56057673D01*
X125713220Y-56324340D02*
X125713220Y-55791006D01*
X125713220Y-55943387D02*
X125675125Y-55867197D01*
X125675125Y-55867197D02*
X125637030Y-55829102D01*
X125637030Y-55829102D02*
X125560839Y-55791006D01*
X125560839Y-55791006D02*
X125484649Y-55791006D01*
X125332268Y-55791006D02*
X125027506Y-55791006D01*
X125217982Y-56324340D02*
X125217982Y-55638625D01*
X125217982Y-55638625D02*
X125179887Y-55562435D01*
X125179887Y-55562435D02*
X125103697Y-55524340D01*
X125103697Y-55524340D02*
X125027506Y-55524340D01*
X124417982Y-56324340D02*
X124417982Y-55905292D01*
X124417982Y-55905292D02*
X124456077Y-55829102D01*
X124456077Y-55829102D02*
X124532268Y-55791006D01*
X124532268Y-55791006D02*
X124684649Y-55791006D01*
X124684649Y-55791006D02*
X124760839Y-55829102D01*
X124417982Y-56286245D02*
X124494173Y-56324340D01*
X124494173Y-56324340D02*
X124684649Y-56324340D01*
X124684649Y-56324340D02*
X124760839Y-56286245D01*
X124760839Y-56286245D02*
X124798935Y-56210054D01*
X124798935Y-56210054D02*
X124798935Y-56133864D01*
X124798935Y-56133864D02*
X124760839Y-56057673D01*
X124760839Y-56057673D02*
X124684649Y-56019578D01*
X124684649Y-56019578D02*
X124494173Y-56019578D01*
X124494173Y-56019578D02*
X124417982Y-55981483D01*
X123694172Y-56286245D02*
X123770363Y-56324340D01*
X123770363Y-56324340D02*
X123922744Y-56324340D01*
X123922744Y-56324340D02*
X123998934Y-56286245D01*
X123998934Y-56286245D02*
X124037029Y-56248149D01*
X124037029Y-56248149D02*
X124075125Y-56171959D01*
X124075125Y-56171959D02*
X124075125Y-55943387D01*
X124075125Y-55943387D02*
X124037029Y-55867197D01*
X124037029Y-55867197D02*
X123998934Y-55829102D01*
X123998934Y-55829102D02*
X123922744Y-55791006D01*
X123922744Y-55791006D02*
X123770363Y-55791006D01*
X123770363Y-55791006D02*
X123694172Y-55829102D01*
X123351315Y-56324340D02*
X123351315Y-55791006D01*
X123351315Y-55524340D02*
X123389411Y-55562435D01*
X123389411Y-55562435D02*
X123351315Y-55600530D01*
X123351315Y-55600530D02*
X123313220Y-55562435D01*
X123313220Y-55562435D02*
X123351315Y-55524340D01*
X123351315Y-55524340D02*
X123351315Y-55600530D01*
X122970363Y-55791006D02*
X122970363Y-56324340D01*
X122970363Y-55867197D02*
X122932268Y-55829102D01*
X122932268Y-55829102D02*
X122856078Y-55791006D01*
X122856078Y-55791006D02*
X122741792Y-55791006D01*
X122741792Y-55791006D02*
X122665601Y-55829102D01*
X122665601Y-55829102D02*
X122627506Y-55905292D01*
X122627506Y-55905292D02*
X122627506Y-56324340D01*
X121903696Y-55791006D02*
X121903696Y-56438625D01*
X121903696Y-56438625D02*
X121941791Y-56514816D01*
X121941791Y-56514816D02*
X121979887Y-56552911D01*
X121979887Y-56552911D02*
X122056077Y-56591006D01*
X122056077Y-56591006D02*
X122170363Y-56591006D01*
X122170363Y-56591006D02*
X122246553Y-56552911D01*
X121903696Y-56286245D02*
X121979887Y-56324340D01*
X121979887Y-56324340D02*
X122132268Y-56324340D01*
X122132268Y-56324340D02*
X122208458Y-56286245D01*
X122208458Y-56286245D02*
X122246553Y-56248149D01*
X122246553Y-56248149D02*
X122284649Y-56171959D01*
X122284649Y-56171959D02*
X122284649Y-55943387D01*
X122284649Y-55943387D02*
X122246553Y-55867197D01*
X122246553Y-55867197D02*
X122208458Y-55829102D01*
X122208458Y-55829102D02*
X122132268Y-55791006D01*
X122132268Y-55791006D02*
X121979887Y-55791006D01*
X121979887Y-55791006D02*
X121903696Y-55829102D01*
X120570362Y-56324340D02*
X120570362Y-55905292D01*
X120570362Y-55905292D02*
X120608457Y-55829102D01*
X120608457Y-55829102D02*
X120684648Y-55791006D01*
X120684648Y-55791006D02*
X120837029Y-55791006D01*
X120837029Y-55791006D02*
X120913219Y-55829102D01*
X120570362Y-56286245D02*
X120646553Y-56324340D01*
X120646553Y-56324340D02*
X120837029Y-56324340D01*
X120837029Y-56324340D02*
X120913219Y-56286245D01*
X120913219Y-56286245D02*
X120951315Y-56210054D01*
X120951315Y-56210054D02*
X120951315Y-56133864D01*
X120951315Y-56133864D02*
X120913219Y-56057673D01*
X120913219Y-56057673D02*
X120837029Y-56019578D01*
X120837029Y-56019578D02*
X120646553Y-56019578D01*
X120646553Y-56019578D02*
X120570362Y-55981483D01*
X120189409Y-56324340D02*
X120189409Y-55791006D01*
X120189409Y-55943387D02*
X120151314Y-55867197D01*
X120151314Y-55867197D02*
X120113219Y-55829102D01*
X120113219Y-55829102D02*
X120037028Y-55791006D01*
X120037028Y-55791006D02*
X119960838Y-55791006D01*
X119808457Y-55791006D02*
X119503695Y-55791006D01*
X119694171Y-55524340D02*
X119694171Y-56210054D01*
X119694171Y-56210054D02*
X119656076Y-56286245D01*
X119656076Y-56286245D02*
X119579886Y-56324340D01*
X119579886Y-56324340D02*
X119503695Y-56324340D01*
X119237028Y-56324340D02*
X119237028Y-55791006D01*
X119237028Y-55524340D02*
X119275124Y-55562435D01*
X119275124Y-55562435D02*
X119237028Y-55600530D01*
X119237028Y-55600530D02*
X119198933Y-55562435D01*
X119198933Y-55562435D02*
X119237028Y-55524340D01*
X119237028Y-55524340D02*
X119237028Y-55600530D01*
X118932267Y-56324340D02*
X118513219Y-55791006D01*
X118932267Y-55791006D02*
X118513219Y-56324340D01*
X117675124Y-55524340D02*
X117141790Y-55524340D01*
X117141790Y-55524340D02*
X117484648Y-56324340D01*
X115808457Y-56324340D02*
X116265600Y-56324340D01*
X116037028Y-56324340D02*
X116037028Y-55524340D01*
X116037028Y-55524340D02*
X116113219Y-55638625D01*
X116113219Y-55638625D02*
X116189409Y-55714816D01*
X116189409Y-55714816D02*
X116265600Y-55752911D01*
X115313218Y-55524340D02*
X115237028Y-55524340D01*
X115237028Y-55524340D02*
X115160837Y-55562435D01*
X115160837Y-55562435D02*
X115122742Y-55600530D01*
X115122742Y-55600530D02*
X115084647Y-55676721D01*
X115084647Y-55676721D02*
X115046552Y-55829102D01*
X115046552Y-55829102D02*
X115046552Y-56019578D01*
X115046552Y-56019578D02*
X115084647Y-56171959D01*
X115084647Y-56171959D02*
X115122742Y-56248149D01*
X115122742Y-56248149D02*
X115160837Y-56286245D01*
X115160837Y-56286245D02*
X115237028Y-56324340D01*
X115237028Y-56324340D02*
X115313218Y-56324340D01*
X115313218Y-56324340D02*
X115389409Y-56286245D01*
X115389409Y-56286245D02*
X115427504Y-56248149D01*
X115427504Y-56248149D02*
X115465599Y-56171959D01*
X115465599Y-56171959D02*
X115503695Y-56019578D01*
X115503695Y-56019578D02*
X115503695Y-55829102D01*
X115503695Y-55829102D02*
X115465599Y-55676721D01*
X115465599Y-55676721D02*
X115427504Y-55600530D01*
X115427504Y-55600530D02*
X115389409Y-55562435D01*
X115389409Y-55562435D02*
X115313218Y-55524340D01*
X114551313Y-55524340D02*
X114475123Y-55524340D01*
X114475123Y-55524340D02*
X114398932Y-55562435D01*
X114398932Y-55562435D02*
X114360837Y-55600530D01*
X114360837Y-55600530D02*
X114322742Y-55676721D01*
X114322742Y-55676721D02*
X114284647Y-55829102D01*
X114284647Y-55829102D02*
X114284647Y-56019578D01*
X114284647Y-56019578D02*
X114322742Y-56171959D01*
X114322742Y-56171959D02*
X114360837Y-56248149D01*
X114360837Y-56248149D02*
X114398932Y-56286245D01*
X114398932Y-56286245D02*
X114475123Y-56324340D01*
X114475123Y-56324340D02*
X114551313Y-56324340D01*
X114551313Y-56324340D02*
X114627504Y-56286245D01*
X114627504Y-56286245D02*
X114665599Y-56248149D01*
X114665599Y-56248149D02*
X114703694Y-56171959D01*
X114703694Y-56171959D02*
X114741790Y-56019578D01*
X114741790Y-56019578D02*
X114741790Y-55829102D01*
X114741790Y-55829102D02*
X114703694Y-55676721D01*
X114703694Y-55676721D02*
X114665599Y-55600530D01*
X114665599Y-55600530D02*
X114627504Y-55562435D01*
X114627504Y-55562435D02*
X114551313Y-55524340D01*
X114056075Y-55791006D02*
X113751313Y-55791006D01*
X113941789Y-55524340D02*
X113941789Y-56210054D01*
X113941789Y-56210054D02*
X113903694Y-56286245D01*
X113903694Y-56286245D02*
X113827504Y-56324340D01*
X113827504Y-56324340D02*
X113751313Y-56324340D01*
X112989408Y-55791006D02*
X112684646Y-55791006D01*
X112875122Y-55524340D02*
X112875122Y-56210054D01*
X112875122Y-56210054D02*
X112837027Y-56286245D01*
X112837027Y-56286245D02*
X112760837Y-56324340D01*
X112760837Y-56324340D02*
X112684646Y-56324340D01*
X112303694Y-56324340D02*
X112379884Y-56286245D01*
X112379884Y-56286245D02*
X112417979Y-56248149D01*
X112417979Y-56248149D02*
X112456075Y-56171959D01*
X112456075Y-56171959D02*
X112456075Y-55943387D01*
X112456075Y-55943387D02*
X112417979Y-55867197D01*
X112417979Y-55867197D02*
X112379884Y-55829102D01*
X112379884Y-55829102D02*
X112303694Y-55791006D01*
X112303694Y-55791006D02*
X112189408Y-55791006D01*
X112189408Y-55791006D02*
X112113217Y-55829102D01*
X112113217Y-55829102D02*
X112075122Y-55867197D01*
X112075122Y-55867197D02*
X112037027Y-55943387D01*
X112037027Y-55943387D02*
X112037027Y-56171959D01*
X112037027Y-56171959D02*
X112075122Y-56248149D01*
X112075122Y-56248149D02*
X112113217Y-56286245D01*
X112113217Y-56286245D02*
X112189408Y-56324340D01*
X112189408Y-56324340D02*
X112303694Y-56324340D01*
X111084645Y-56324340D02*
X111084645Y-55791006D01*
X111084645Y-55943387D02*
X111046550Y-55867197D01*
X111046550Y-55867197D02*
X111008455Y-55829102D01*
X111008455Y-55829102D02*
X110932264Y-55791006D01*
X110932264Y-55791006D02*
X110856074Y-55791006D01*
X110246550Y-56324340D02*
X110246550Y-55905292D01*
X110246550Y-55905292D02*
X110284645Y-55829102D01*
X110284645Y-55829102D02*
X110360836Y-55791006D01*
X110360836Y-55791006D02*
X110513217Y-55791006D01*
X110513217Y-55791006D02*
X110589407Y-55829102D01*
X110246550Y-56286245D02*
X110322741Y-56324340D01*
X110322741Y-56324340D02*
X110513217Y-56324340D01*
X110513217Y-56324340D02*
X110589407Y-56286245D01*
X110589407Y-56286245D02*
X110627503Y-56210054D01*
X110627503Y-56210054D02*
X110627503Y-56133864D01*
X110627503Y-56133864D02*
X110589407Y-56057673D01*
X110589407Y-56057673D02*
X110513217Y-56019578D01*
X110513217Y-56019578D02*
X110322741Y-56019578D01*
X110322741Y-56019578D02*
X110246550Y-55981483D01*
X109903693Y-56286245D02*
X109827502Y-56324340D01*
X109827502Y-56324340D02*
X109675121Y-56324340D01*
X109675121Y-56324340D02*
X109598931Y-56286245D01*
X109598931Y-56286245D02*
X109560835Y-56210054D01*
X109560835Y-56210054D02*
X109560835Y-56171959D01*
X109560835Y-56171959D02*
X109598931Y-56095768D01*
X109598931Y-56095768D02*
X109675121Y-56057673D01*
X109675121Y-56057673D02*
X109789407Y-56057673D01*
X109789407Y-56057673D02*
X109865597Y-56019578D01*
X109865597Y-56019578D02*
X109903693Y-55943387D01*
X109903693Y-55943387D02*
X109903693Y-55905292D01*
X109903693Y-55905292D02*
X109865597Y-55829102D01*
X109865597Y-55829102D02*
X109789407Y-55791006D01*
X109789407Y-55791006D02*
X109675121Y-55791006D01*
X109675121Y-55791006D02*
X109598931Y-55829102D01*
X109217978Y-55791006D02*
X109217978Y-56591006D01*
X109217978Y-55829102D02*
X109141788Y-55791006D01*
X109141788Y-55791006D02*
X108989407Y-55791006D01*
X108989407Y-55791006D02*
X108913216Y-55829102D01*
X108913216Y-55829102D02*
X108875121Y-55867197D01*
X108875121Y-55867197D02*
X108837026Y-55943387D01*
X108837026Y-55943387D02*
X108837026Y-56171959D01*
X108837026Y-56171959D02*
X108875121Y-56248149D01*
X108875121Y-56248149D02*
X108913216Y-56286245D01*
X108913216Y-56286245D02*
X108989407Y-56324340D01*
X108989407Y-56324340D02*
X109141788Y-56324340D01*
X109141788Y-56324340D02*
X109217978Y-56286245D01*
X108494168Y-56324340D02*
X108494168Y-55524340D01*
X108494168Y-55829102D02*
X108417978Y-55791006D01*
X108417978Y-55791006D02*
X108265597Y-55791006D01*
X108265597Y-55791006D02*
X108189406Y-55829102D01*
X108189406Y-55829102D02*
X108151311Y-55867197D01*
X108151311Y-55867197D02*
X108113216Y-55943387D01*
X108113216Y-55943387D02*
X108113216Y-56171959D01*
X108113216Y-56171959D02*
X108151311Y-56248149D01*
X108151311Y-56248149D02*
X108189406Y-56286245D01*
X108189406Y-56286245D02*
X108265597Y-56324340D01*
X108265597Y-56324340D02*
X108417978Y-56324340D01*
X108417978Y-56324340D02*
X108494168Y-56286245D01*
X107465596Y-56286245D02*
X107541787Y-56324340D01*
X107541787Y-56324340D02*
X107694168Y-56324340D01*
X107694168Y-56324340D02*
X107770358Y-56286245D01*
X107770358Y-56286245D02*
X107808454Y-56210054D01*
X107808454Y-56210054D02*
X107808454Y-55905292D01*
X107808454Y-55905292D02*
X107770358Y-55829102D01*
X107770358Y-55829102D02*
X107694168Y-55791006D01*
X107694168Y-55791006D02*
X107541787Y-55791006D01*
X107541787Y-55791006D02*
X107465596Y-55829102D01*
X107465596Y-55829102D02*
X107427501Y-55905292D01*
X107427501Y-55905292D02*
X107427501Y-55981483D01*
X107427501Y-55981483D02*
X107808454Y-56057673D01*
X107084644Y-56324340D02*
X107084644Y-55791006D01*
X107084644Y-55943387D02*
X107046549Y-55867197D01*
X107046549Y-55867197D02*
X107008454Y-55829102D01*
X107008454Y-55829102D02*
X106932263Y-55791006D01*
X106932263Y-55791006D02*
X106856073Y-55791006D01*
X106589406Y-56324340D02*
X106589406Y-55791006D01*
X106589406Y-55943387D02*
X106551311Y-55867197D01*
X106551311Y-55867197D02*
X106513216Y-55829102D01*
X106513216Y-55829102D02*
X106437025Y-55791006D01*
X106437025Y-55791006D02*
X106360835Y-55791006D01*
X106170359Y-55791006D02*
X105979883Y-56324340D01*
X105789406Y-55791006D02*
X105979883Y-56324340D01*
X105979883Y-56324340D02*
X106056073Y-56514816D01*
X106056073Y-56514816D02*
X106094168Y-56552911D01*
X106094168Y-56552911D02*
X106170359Y-56591006D01*
X104875120Y-55791006D02*
X104875120Y-56591006D01*
X104875120Y-55829102D02*
X104798930Y-55791006D01*
X104798930Y-55791006D02*
X104646549Y-55791006D01*
X104646549Y-55791006D02*
X104570358Y-55829102D01*
X104570358Y-55829102D02*
X104532263Y-55867197D01*
X104532263Y-55867197D02*
X104494168Y-55943387D01*
X104494168Y-55943387D02*
X104494168Y-56171959D01*
X104494168Y-56171959D02*
X104532263Y-56248149D01*
X104532263Y-56248149D02*
X104570358Y-56286245D01*
X104570358Y-56286245D02*
X104646549Y-56324340D01*
X104646549Y-56324340D02*
X104798930Y-56324340D01*
X104798930Y-56324340D02*
X104875120Y-56286245D01*
X104151310Y-56324340D02*
X104151310Y-55791006D01*
X104151310Y-55524340D02*
X104189406Y-55562435D01*
X104189406Y-55562435D02*
X104151310Y-55600530D01*
X104151310Y-55600530D02*
X104113215Y-55562435D01*
X104113215Y-55562435D02*
X104151310Y-55524340D01*
X104151310Y-55524340D02*
X104151310Y-55600530D01*
X127579887Y-56812295D02*
X127960839Y-56812295D01*
X127960839Y-56812295D02*
X127998935Y-57193247D01*
X127998935Y-57193247D02*
X127960839Y-57155152D01*
X127960839Y-57155152D02*
X127884649Y-57117057D01*
X127884649Y-57117057D02*
X127694173Y-57117057D01*
X127694173Y-57117057D02*
X127617982Y-57155152D01*
X127617982Y-57155152D02*
X127579887Y-57193247D01*
X127579887Y-57193247D02*
X127541792Y-57269438D01*
X127541792Y-57269438D02*
X127541792Y-57459914D01*
X127541792Y-57459914D02*
X127579887Y-57536104D01*
X127579887Y-57536104D02*
X127617982Y-57574200D01*
X127617982Y-57574200D02*
X127694173Y-57612295D01*
X127694173Y-57612295D02*
X127884649Y-57612295D01*
X127884649Y-57612295D02*
X127960839Y-57574200D01*
X127960839Y-57574200D02*
X127998935Y-57536104D01*
X126475125Y-57612295D02*
X126551315Y-57574200D01*
X126551315Y-57574200D02*
X126589410Y-57536104D01*
X126589410Y-57536104D02*
X126627506Y-57459914D01*
X126627506Y-57459914D02*
X126627506Y-57231342D01*
X126627506Y-57231342D02*
X126589410Y-57155152D01*
X126589410Y-57155152D02*
X126551315Y-57117057D01*
X126551315Y-57117057D02*
X126475125Y-57078961D01*
X126475125Y-57078961D02*
X126360839Y-57078961D01*
X126360839Y-57078961D02*
X126284648Y-57117057D01*
X126284648Y-57117057D02*
X126246553Y-57155152D01*
X126246553Y-57155152D02*
X126208458Y-57231342D01*
X126208458Y-57231342D02*
X126208458Y-57459914D01*
X126208458Y-57459914D02*
X126246553Y-57536104D01*
X126246553Y-57536104D02*
X126284648Y-57574200D01*
X126284648Y-57574200D02*
X126360839Y-57612295D01*
X126360839Y-57612295D02*
X126475125Y-57612295D01*
X125941791Y-57078961D02*
X125751315Y-57612295D01*
X125751315Y-57612295D02*
X125560838Y-57078961D01*
X124951314Y-57574200D02*
X125027505Y-57612295D01*
X125027505Y-57612295D02*
X125179886Y-57612295D01*
X125179886Y-57612295D02*
X125256076Y-57574200D01*
X125256076Y-57574200D02*
X125294172Y-57498009D01*
X125294172Y-57498009D02*
X125294172Y-57193247D01*
X125294172Y-57193247D02*
X125256076Y-57117057D01*
X125256076Y-57117057D02*
X125179886Y-57078961D01*
X125179886Y-57078961D02*
X125027505Y-57078961D01*
X125027505Y-57078961D02*
X124951314Y-57117057D01*
X124951314Y-57117057D02*
X124913219Y-57193247D01*
X124913219Y-57193247D02*
X124913219Y-57269438D01*
X124913219Y-57269438D02*
X125294172Y-57345628D01*
X124570362Y-57612295D02*
X124570362Y-57078961D01*
X124570362Y-57231342D02*
X124532267Y-57155152D01*
X124532267Y-57155152D02*
X124494172Y-57117057D01*
X124494172Y-57117057D02*
X124417981Y-57078961D01*
X124417981Y-57078961D02*
X124341791Y-57078961D01*
X123465600Y-57078961D02*
X123465600Y-57878961D01*
X123465600Y-57117057D02*
X123389410Y-57078961D01*
X123389410Y-57078961D02*
X123237029Y-57078961D01*
X123237029Y-57078961D02*
X123160838Y-57117057D01*
X123160838Y-57117057D02*
X123122743Y-57155152D01*
X123122743Y-57155152D02*
X123084648Y-57231342D01*
X123084648Y-57231342D02*
X123084648Y-57459914D01*
X123084648Y-57459914D02*
X123122743Y-57536104D01*
X123122743Y-57536104D02*
X123160838Y-57574200D01*
X123160838Y-57574200D02*
X123237029Y-57612295D01*
X123237029Y-57612295D02*
X123389410Y-57612295D01*
X123389410Y-57612295D02*
X123465600Y-57574200D01*
X122398933Y-57574200D02*
X122475124Y-57612295D01*
X122475124Y-57612295D02*
X122627505Y-57612295D01*
X122627505Y-57612295D02*
X122703695Y-57574200D01*
X122703695Y-57574200D02*
X122741790Y-57536104D01*
X122741790Y-57536104D02*
X122779886Y-57459914D01*
X122779886Y-57459914D02*
X122779886Y-57231342D01*
X122779886Y-57231342D02*
X122741790Y-57155152D01*
X122741790Y-57155152D02*
X122703695Y-57117057D01*
X122703695Y-57117057D02*
X122627505Y-57078961D01*
X122627505Y-57078961D02*
X122475124Y-57078961D01*
X122475124Y-57078961D02*
X122398933Y-57117057D01*
X122056076Y-57612295D02*
X122056076Y-57078961D01*
X122056076Y-56812295D02*
X122094172Y-56850390D01*
X122094172Y-56850390D02*
X122056076Y-56888485D01*
X122056076Y-56888485D02*
X122017981Y-56850390D01*
X122017981Y-56850390D02*
X122056076Y-56812295D01*
X122056076Y-56812295D02*
X122056076Y-56888485D01*
X121370362Y-57574200D02*
X121446553Y-57612295D01*
X121446553Y-57612295D02*
X121598934Y-57612295D01*
X121598934Y-57612295D02*
X121675124Y-57574200D01*
X121675124Y-57574200D02*
X121713220Y-57498009D01*
X121713220Y-57498009D02*
X121713220Y-57193247D01*
X121713220Y-57193247D02*
X121675124Y-57117057D01*
X121675124Y-57117057D02*
X121598934Y-57078961D01*
X121598934Y-57078961D02*
X121446553Y-57078961D01*
X121446553Y-57078961D02*
X121370362Y-57117057D01*
X121370362Y-57117057D02*
X121332267Y-57193247D01*
X121332267Y-57193247D02*
X121332267Y-57269438D01*
X121332267Y-57269438D02*
X121713220Y-57345628D01*
X120037029Y-57078961D02*
X120037029Y-57726580D01*
X120037029Y-57726580D02*
X120075124Y-57802771D01*
X120075124Y-57802771D02*
X120113220Y-57840866D01*
X120113220Y-57840866D02*
X120189410Y-57878961D01*
X120189410Y-57878961D02*
X120303696Y-57878961D01*
X120303696Y-57878961D02*
X120379886Y-57840866D01*
X120037029Y-57574200D02*
X120113220Y-57612295D01*
X120113220Y-57612295D02*
X120265601Y-57612295D01*
X120265601Y-57612295D02*
X120341791Y-57574200D01*
X120341791Y-57574200D02*
X120379886Y-57536104D01*
X120379886Y-57536104D02*
X120417982Y-57459914D01*
X120417982Y-57459914D02*
X120417982Y-57231342D01*
X120417982Y-57231342D02*
X120379886Y-57155152D01*
X120379886Y-57155152D02*
X120341791Y-57117057D01*
X120341791Y-57117057D02*
X120265601Y-57078961D01*
X120265601Y-57078961D02*
X120113220Y-57078961D01*
X120113220Y-57078961D02*
X120037029Y-57117057D01*
X119351314Y-57574200D02*
X119427505Y-57612295D01*
X119427505Y-57612295D02*
X119579886Y-57612295D01*
X119579886Y-57612295D02*
X119656076Y-57574200D01*
X119656076Y-57574200D02*
X119694172Y-57498009D01*
X119694172Y-57498009D02*
X119694172Y-57193247D01*
X119694172Y-57193247D02*
X119656076Y-57117057D01*
X119656076Y-57117057D02*
X119579886Y-57078961D01*
X119579886Y-57078961D02*
X119427505Y-57078961D01*
X119427505Y-57078961D02*
X119351314Y-57117057D01*
X119351314Y-57117057D02*
X119313219Y-57193247D01*
X119313219Y-57193247D02*
X119313219Y-57269438D01*
X119313219Y-57269438D02*
X119694172Y-57345628D01*
X118970362Y-57078961D02*
X118970362Y-57612295D01*
X118970362Y-57155152D02*
X118932267Y-57117057D01*
X118932267Y-57117057D02*
X118856077Y-57078961D01*
X118856077Y-57078961D02*
X118741791Y-57078961D01*
X118741791Y-57078961D02*
X118665600Y-57117057D01*
X118665600Y-57117057D02*
X118627505Y-57193247D01*
X118627505Y-57193247D02*
X118627505Y-57612295D01*
X117675124Y-56888485D02*
X117637028Y-56850390D01*
X117637028Y-56850390D02*
X117560838Y-56812295D01*
X117560838Y-56812295D02*
X117370362Y-56812295D01*
X117370362Y-56812295D02*
X117294171Y-56850390D01*
X117294171Y-56850390D02*
X117256076Y-56888485D01*
X117256076Y-56888485D02*
X117217981Y-56964676D01*
X117217981Y-56964676D02*
X117217981Y-57040866D01*
X117217981Y-57040866D02*
X117256076Y-57155152D01*
X117256076Y-57155152D02*
X117713219Y-57612295D01*
X117713219Y-57612295D02*
X117217981Y-57612295D01*
X116951314Y-57612295D02*
X116532266Y-57078961D01*
X116951314Y-57078961D02*
X116532266Y-57612295D01*
X115808457Y-57612295D02*
X116265600Y-57612295D01*
X116037028Y-57612295D02*
X116037028Y-56812295D01*
X116037028Y-56812295D02*
X116113219Y-56926580D01*
X116113219Y-56926580D02*
X116189409Y-57002771D01*
X116189409Y-57002771D02*
X116265600Y-57040866D01*
X114932266Y-57078961D02*
X114779885Y-57612295D01*
X114779885Y-57612295D02*
X114627504Y-57231342D01*
X114627504Y-57231342D02*
X114475123Y-57612295D01*
X114475123Y-57612295D02*
X114322742Y-57078961D01*
X114017980Y-57612295D02*
X114017980Y-57078961D01*
X114017980Y-56812295D02*
X114056076Y-56850390D01*
X114056076Y-56850390D02*
X114017980Y-56888485D01*
X114017980Y-56888485D02*
X113979885Y-56850390D01*
X113979885Y-56850390D02*
X114017980Y-56812295D01*
X114017980Y-56812295D02*
X114017980Y-56888485D01*
X113751314Y-57078961D02*
X113446552Y-57078961D01*
X113637028Y-56812295D02*
X113637028Y-57498009D01*
X113637028Y-57498009D02*
X113598933Y-57574200D01*
X113598933Y-57574200D02*
X113522743Y-57612295D01*
X113522743Y-57612295D02*
X113446552Y-57612295D01*
X113179885Y-57612295D02*
X113179885Y-56812295D01*
X112837028Y-57612295D02*
X112837028Y-57193247D01*
X112837028Y-57193247D02*
X112875123Y-57117057D01*
X112875123Y-57117057D02*
X112951314Y-57078961D01*
X112951314Y-57078961D02*
X113065600Y-57078961D01*
X113065600Y-57078961D02*
X113141790Y-57117057D01*
X113141790Y-57117057D02*
X113179885Y-57155152D01*
X111465599Y-56812295D02*
X111846551Y-56812295D01*
X111846551Y-56812295D02*
X111884647Y-57193247D01*
X111884647Y-57193247D02*
X111846551Y-57155152D01*
X111846551Y-57155152D02*
X111770361Y-57117057D01*
X111770361Y-57117057D02*
X111579885Y-57117057D01*
X111579885Y-57117057D02*
X111503694Y-57155152D01*
X111503694Y-57155152D02*
X111465599Y-57193247D01*
X111465599Y-57193247D02*
X111427504Y-57269438D01*
X111427504Y-57269438D02*
X111427504Y-57459914D01*
X111427504Y-57459914D02*
X111465599Y-57536104D01*
X111465599Y-57536104D02*
X111503694Y-57574200D01*
X111503694Y-57574200D02*
X111579885Y-57612295D01*
X111579885Y-57612295D02*
X111770361Y-57612295D01*
X111770361Y-57612295D02*
X111846551Y-57574200D01*
X111846551Y-57574200D02*
X111884647Y-57536104D01*
X110665599Y-57612295D02*
X111122742Y-57612295D01*
X110894170Y-57612295D02*
X110894170Y-56812295D01*
X110894170Y-56812295D02*
X110970361Y-56926580D01*
X110970361Y-56926580D02*
X111046551Y-57002771D01*
X111046551Y-57002771D02*
X111122742Y-57040866D01*
X110360837Y-56888485D02*
X110322741Y-56850390D01*
X110322741Y-56850390D02*
X110246551Y-56812295D01*
X110246551Y-56812295D02*
X110056075Y-56812295D01*
X110056075Y-56812295D02*
X109979884Y-56850390D01*
X109979884Y-56850390D02*
X109941789Y-56888485D01*
X109941789Y-56888485D02*
X109903694Y-56964676D01*
X109903694Y-56964676D02*
X109903694Y-57040866D01*
X109903694Y-57040866D02*
X109941789Y-57155152D01*
X109941789Y-57155152D02*
X110398932Y-57612295D01*
X110398932Y-57612295D02*
X109903694Y-57612295D01*
X109560836Y-57612295D02*
X109560836Y-56812295D01*
X109560836Y-56812295D02*
X109294170Y-57383723D01*
X109294170Y-57383723D02*
X109027503Y-56812295D01*
X109027503Y-56812295D02*
X109027503Y-57612295D01*
X108379884Y-57193247D02*
X108265598Y-57231342D01*
X108265598Y-57231342D02*
X108227503Y-57269438D01*
X108227503Y-57269438D02*
X108189407Y-57345628D01*
X108189407Y-57345628D02*
X108189407Y-57459914D01*
X108189407Y-57459914D02*
X108227503Y-57536104D01*
X108227503Y-57536104D02*
X108265598Y-57574200D01*
X108265598Y-57574200D02*
X108341788Y-57612295D01*
X108341788Y-57612295D02*
X108646550Y-57612295D01*
X108646550Y-57612295D02*
X108646550Y-56812295D01*
X108646550Y-56812295D02*
X108379884Y-56812295D01*
X108379884Y-56812295D02*
X108303693Y-56850390D01*
X108303693Y-56850390D02*
X108265598Y-56888485D01*
X108265598Y-56888485D02*
X108227503Y-56964676D01*
X108227503Y-56964676D02*
X108227503Y-57040866D01*
X108227503Y-57040866D02*
X108265598Y-57117057D01*
X108265598Y-57117057D02*
X108303693Y-57155152D01*
X108303693Y-57155152D02*
X108379884Y-57193247D01*
X108379884Y-57193247D02*
X108646550Y-57193247D01*
X107237026Y-57612295D02*
X107237026Y-56812295D01*
X107237026Y-56812295D02*
X107046550Y-56812295D01*
X107046550Y-56812295D02*
X106932264Y-56850390D01*
X106932264Y-56850390D02*
X106856074Y-56926580D01*
X106856074Y-56926580D02*
X106817979Y-57002771D01*
X106817979Y-57002771D02*
X106779883Y-57155152D01*
X106779883Y-57155152D02*
X106779883Y-57269438D01*
X106779883Y-57269438D02*
X106817979Y-57421819D01*
X106817979Y-57421819D02*
X106856074Y-57498009D01*
X106856074Y-57498009D02*
X106932264Y-57574200D01*
X106932264Y-57574200D02*
X107046550Y-57612295D01*
X107046550Y-57612295D02*
X107237026Y-57612295D01*
X106437026Y-57612295D02*
X106437026Y-56812295D01*
X106437026Y-56812295D02*
X106246550Y-56812295D01*
X106246550Y-56812295D02*
X106132264Y-56850390D01*
X106132264Y-56850390D02*
X106056074Y-56926580D01*
X106056074Y-56926580D02*
X106017979Y-57002771D01*
X106017979Y-57002771D02*
X105979883Y-57155152D01*
X105979883Y-57155152D02*
X105979883Y-57269438D01*
X105979883Y-57269438D02*
X106017979Y-57421819D01*
X106017979Y-57421819D02*
X106056074Y-57498009D01*
X106056074Y-57498009D02*
X106132264Y-57574200D01*
X106132264Y-57574200D02*
X106246550Y-57612295D01*
X106246550Y-57612295D02*
X106437026Y-57612295D01*
X105179883Y-57612295D02*
X105446550Y-57231342D01*
X105637026Y-57612295D02*
X105637026Y-56812295D01*
X105637026Y-56812295D02*
X105332264Y-56812295D01*
X105332264Y-56812295D02*
X105256074Y-56850390D01*
X105256074Y-56850390D02*
X105217979Y-56888485D01*
X105217979Y-56888485D02*
X105179883Y-56964676D01*
X105179883Y-56964676D02*
X105179883Y-57078961D01*
X105179883Y-57078961D02*
X105217979Y-57155152D01*
X105217979Y-57155152D02*
X105256074Y-57193247D01*
X105256074Y-57193247D02*
X105332264Y-57231342D01*
X105332264Y-57231342D02*
X105637026Y-57231342D01*
X104913217Y-56812295D02*
X104417979Y-56812295D01*
X104417979Y-56812295D02*
X104684645Y-57117057D01*
X104684645Y-57117057D02*
X104570360Y-57117057D01*
X104570360Y-57117057D02*
X104494169Y-57155152D01*
X104494169Y-57155152D02*
X104456074Y-57193247D01*
X104456074Y-57193247D02*
X104417979Y-57269438D01*
X104417979Y-57269438D02*
X104417979Y-57459914D01*
X104417979Y-57459914D02*
X104456074Y-57536104D01*
X104456074Y-57536104D02*
X104494169Y-57574200D01*
X104494169Y-57574200D02*
X104570360Y-57612295D01*
X104570360Y-57612295D02*
X104798931Y-57612295D01*
X104798931Y-57612295D02*
X104875122Y-57574200D01*
X104875122Y-57574200D02*
X104913217Y-57536104D01*
X103694169Y-57612295D02*
X104075121Y-57612295D01*
X104075121Y-57612295D02*
X104075121Y-56812295D01*
X103389407Y-57574200D02*
X103389407Y-57612295D01*
X103389407Y-57612295D02*
X103427502Y-57688485D01*
X103427502Y-57688485D02*
X103465598Y-57726580D01*
X127617982Y-58900250D02*
X127617982Y-58100250D01*
X127617982Y-58862155D02*
X127694173Y-58900250D01*
X127694173Y-58900250D02*
X127846554Y-58900250D01*
X127846554Y-58900250D02*
X127922744Y-58862155D01*
X127922744Y-58862155D02*
X127960839Y-58824059D01*
X127960839Y-58824059D02*
X127998935Y-58747869D01*
X127998935Y-58747869D02*
X127998935Y-58519297D01*
X127998935Y-58519297D02*
X127960839Y-58443107D01*
X127960839Y-58443107D02*
X127922744Y-58405012D01*
X127922744Y-58405012D02*
X127846554Y-58366916D01*
X127846554Y-58366916D02*
X127694173Y-58366916D01*
X127694173Y-58366916D02*
X127617982Y-58405012D01*
X126932267Y-58862155D02*
X127008458Y-58900250D01*
X127008458Y-58900250D02*
X127160839Y-58900250D01*
X127160839Y-58900250D02*
X127237029Y-58862155D01*
X127237029Y-58862155D02*
X127275125Y-58785964D01*
X127275125Y-58785964D02*
X127275125Y-58481202D01*
X127275125Y-58481202D02*
X127237029Y-58405012D01*
X127237029Y-58405012D02*
X127160839Y-58366916D01*
X127160839Y-58366916D02*
X127008458Y-58366916D01*
X127008458Y-58366916D02*
X126932267Y-58405012D01*
X126932267Y-58405012D02*
X126894172Y-58481202D01*
X126894172Y-58481202D02*
X126894172Y-58557393D01*
X126894172Y-58557393D02*
X127275125Y-58633583D01*
X126589411Y-58862155D02*
X126513220Y-58900250D01*
X126513220Y-58900250D02*
X126360839Y-58900250D01*
X126360839Y-58900250D02*
X126284649Y-58862155D01*
X126284649Y-58862155D02*
X126246553Y-58785964D01*
X126246553Y-58785964D02*
X126246553Y-58747869D01*
X126246553Y-58747869D02*
X126284649Y-58671678D01*
X126284649Y-58671678D02*
X126360839Y-58633583D01*
X126360839Y-58633583D02*
X126475125Y-58633583D01*
X126475125Y-58633583D02*
X126551315Y-58595488D01*
X126551315Y-58595488D02*
X126589411Y-58519297D01*
X126589411Y-58519297D02*
X126589411Y-58481202D01*
X126589411Y-58481202D02*
X126551315Y-58405012D01*
X126551315Y-58405012D02*
X126475125Y-58366916D01*
X126475125Y-58366916D02*
X126360839Y-58366916D01*
X126360839Y-58366916D02*
X126284649Y-58405012D01*
X125903696Y-58900250D02*
X125903696Y-58366916D01*
X125903696Y-58100250D02*
X125941792Y-58138345D01*
X125941792Y-58138345D02*
X125903696Y-58176440D01*
X125903696Y-58176440D02*
X125865601Y-58138345D01*
X125865601Y-58138345D02*
X125903696Y-58100250D01*
X125903696Y-58100250D02*
X125903696Y-58176440D01*
X125179887Y-58366916D02*
X125179887Y-59014535D01*
X125179887Y-59014535D02*
X125217982Y-59090726D01*
X125217982Y-59090726D02*
X125256078Y-59128821D01*
X125256078Y-59128821D02*
X125332268Y-59166916D01*
X125332268Y-59166916D02*
X125446554Y-59166916D01*
X125446554Y-59166916D02*
X125522744Y-59128821D01*
X125179887Y-58862155D02*
X125256078Y-58900250D01*
X125256078Y-58900250D02*
X125408459Y-58900250D01*
X125408459Y-58900250D02*
X125484649Y-58862155D01*
X125484649Y-58862155D02*
X125522744Y-58824059D01*
X125522744Y-58824059D02*
X125560840Y-58747869D01*
X125560840Y-58747869D02*
X125560840Y-58519297D01*
X125560840Y-58519297D02*
X125522744Y-58443107D01*
X125522744Y-58443107D02*
X125484649Y-58405012D01*
X125484649Y-58405012D02*
X125408459Y-58366916D01*
X125408459Y-58366916D02*
X125256078Y-58366916D01*
X125256078Y-58366916D02*
X125179887Y-58405012D01*
X124798934Y-58366916D02*
X124798934Y-58900250D01*
X124798934Y-58443107D02*
X124760839Y-58405012D01*
X124760839Y-58405012D02*
X124684649Y-58366916D01*
X124684649Y-58366916D02*
X124570363Y-58366916D01*
X124570363Y-58366916D02*
X124494172Y-58405012D01*
X124494172Y-58405012D02*
X124456077Y-58481202D01*
X124456077Y-58481202D02*
X124456077Y-58900250D01*
X123770362Y-58862155D02*
X123846553Y-58900250D01*
X123846553Y-58900250D02*
X123998934Y-58900250D01*
X123998934Y-58900250D02*
X124075124Y-58862155D01*
X124075124Y-58862155D02*
X124113220Y-58785964D01*
X124113220Y-58785964D02*
X124113220Y-58481202D01*
X124113220Y-58481202D02*
X124075124Y-58405012D01*
X124075124Y-58405012D02*
X123998934Y-58366916D01*
X123998934Y-58366916D02*
X123846553Y-58366916D01*
X123846553Y-58366916D02*
X123770362Y-58405012D01*
X123770362Y-58405012D02*
X123732267Y-58481202D01*
X123732267Y-58481202D02*
X123732267Y-58557393D01*
X123732267Y-58557393D02*
X124113220Y-58633583D01*
X123046553Y-58900250D02*
X123046553Y-58100250D01*
X123046553Y-58862155D02*
X123122744Y-58900250D01*
X123122744Y-58900250D02*
X123275125Y-58900250D01*
X123275125Y-58900250D02*
X123351315Y-58862155D01*
X123351315Y-58862155D02*
X123389410Y-58824059D01*
X123389410Y-58824059D02*
X123427506Y-58747869D01*
X123427506Y-58747869D02*
X123427506Y-58519297D01*
X123427506Y-58519297D02*
X123389410Y-58443107D01*
X123389410Y-58443107D02*
X123351315Y-58405012D01*
X123351315Y-58405012D02*
X123275125Y-58366916D01*
X123275125Y-58366916D02*
X123122744Y-58366916D01*
X123122744Y-58366916D02*
X123046553Y-58405012D01*
X122056076Y-58900250D02*
X122056076Y-58100250D01*
X122056076Y-58405012D02*
X121979886Y-58366916D01*
X121979886Y-58366916D02*
X121827505Y-58366916D01*
X121827505Y-58366916D02*
X121751314Y-58405012D01*
X121751314Y-58405012D02*
X121713219Y-58443107D01*
X121713219Y-58443107D02*
X121675124Y-58519297D01*
X121675124Y-58519297D02*
X121675124Y-58747869D01*
X121675124Y-58747869D02*
X121713219Y-58824059D01*
X121713219Y-58824059D02*
X121751314Y-58862155D01*
X121751314Y-58862155D02*
X121827505Y-58900250D01*
X121827505Y-58900250D02*
X121979886Y-58900250D01*
X121979886Y-58900250D02*
X122056076Y-58862155D01*
X121408457Y-58366916D02*
X121217981Y-58900250D01*
X121027504Y-58366916D02*
X121217981Y-58900250D01*
X121217981Y-58900250D02*
X121294171Y-59090726D01*
X121294171Y-59090726D02*
X121332266Y-59128821D01*
X121332266Y-59128821D02*
X121408457Y-59166916D01*
X119770361Y-58900250D02*
X119770361Y-58481202D01*
X119770361Y-58481202D02*
X119808456Y-58405012D01*
X119808456Y-58405012D02*
X119884647Y-58366916D01*
X119884647Y-58366916D02*
X120037028Y-58366916D01*
X120037028Y-58366916D02*
X120113218Y-58405012D01*
X119770361Y-58862155D02*
X119846552Y-58900250D01*
X119846552Y-58900250D02*
X120037028Y-58900250D01*
X120037028Y-58900250D02*
X120113218Y-58862155D01*
X120113218Y-58862155D02*
X120151314Y-58785964D01*
X120151314Y-58785964D02*
X120151314Y-58709774D01*
X120151314Y-58709774D02*
X120113218Y-58633583D01*
X120113218Y-58633583D02*
X120037028Y-58595488D01*
X120037028Y-58595488D02*
X119846552Y-58595488D01*
X119846552Y-58595488D02*
X119770361Y-58557393D01*
X119389408Y-58366916D02*
X119389408Y-58900250D01*
X119389408Y-58443107D02*
X119351313Y-58405012D01*
X119351313Y-58405012D02*
X119275123Y-58366916D01*
X119275123Y-58366916D02*
X119160837Y-58366916D01*
X119160837Y-58366916D02*
X119084646Y-58405012D01*
X119084646Y-58405012D02*
X119046551Y-58481202D01*
X119046551Y-58481202D02*
X119046551Y-58900250D01*
X118322741Y-58900250D02*
X118322741Y-58100250D01*
X118322741Y-58862155D02*
X118398932Y-58900250D01*
X118398932Y-58900250D02*
X118551313Y-58900250D01*
X118551313Y-58900250D02*
X118627503Y-58862155D01*
X118627503Y-58862155D02*
X118665598Y-58824059D01*
X118665598Y-58824059D02*
X118703694Y-58747869D01*
X118703694Y-58747869D02*
X118703694Y-58519297D01*
X118703694Y-58519297D02*
X118665598Y-58443107D01*
X118665598Y-58443107D02*
X118627503Y-58405012D01*
X118627503Y-58405012D02*
X118551313Y-58366916D01*
X118551313Y-58366916D02*
X118398932Y-58366916D01*
X118398932Y-58366916D02*
X118322741Y-58405012D01*
X117941788Y-58900250D02*
X117941788Y-58366916D01*
X117941788Y-58519297D02*
X117903693Y-58443107D01*
X117903693Y-58443107D02*
X117865598Y-58405012D01*
X117865598Y-58405012D02*
X117789407Y-58366916D01*
X117789407Y-58366916D02*
X117713217Y-58366916D01*
X117141788Y-58862155D02*
X117217979Y-58900250D01*
X117217979Y-58900250D02*
X117370360Y-58900250D01*
X117370360Y-58900250D02*
X117446550Y-58862155D01*
X117446550Y-58862155D02*
X117484646Y-58785964D01*
X117484646Y-58785964D02*
X117484646Y-58481202D01*
X117484646Y-58481202D02*
X117446550Y-58405012D01*
X117446550Y-58405012D02*
X117370360Y-58366916D01*
X117370360Y-58366916D02*
X117217979Y-58366916D01*
X117217979Y-58366916D02*
X117141788Y-58405012D01*
X117141788Y-58405012D02*
X117103693Y-58481202D01*
X117103693Y-58481202D02*
X117103693Y-58557393D01*
X117103693Y-58557393D02*
X117484646Y-58633583D01*
X116189408Y-58862155D02*
X116113217Y-58900250D01*
X116113217Y-58900250D02*
X115960836Y-58900250D01*
X115960836Y-58900250D02*
X115884646Y-58862155D01*
X115884646Y-58862155D02*
X115846550Y-58785964D01*
X115846550Y-58785964D02*
X115846550Y-58747869D01*
X115846550Y-58747869D02*
X115884646Y-58671678D01*
X115884646Y-58671678D02*
X115960836Y-58633583D01*
X115960836Y-58633583D02*
X116075122Y-58633583D01*
X116075122Y-58633583D02*
X116151312Y-58595488D01*
X116151312Y-58595488D02*
X116189408Y-58519297D01*
X116189408Y-58519297D02*
X116189408Y-58481202D01*
X116189408Y-58481202D02*
X116151312Y-58405012D01*
X116151312Y-58405012D02*
X116075122Y-58366916D01*
X116075122Y-58366916D02*
X115960836Y-58366916D01*
X115960836Y-58366916D02*
X115884646Y-58405012D01*
X115160836Y-58900250D02*
X115160836Y-58481202D01*
X115160836Y-58481202D02*
X115198931Y-58405012D01*
X115198931Y-58405012D02*
X115275122Y-58366916D01*
X115275122Y-58366916D02*
X115427503Y-58366916D01*
X115427503Y-58366916D02*
X115503693Y-58405012D01*
X115160836Y-58862155D02*
X115237027Y-58900250D01*
X115237027Y-58900250D02*
X115427503Y-58900250D01*
X115427503Y-58900250D02*
X115503693Y-58862155D01*
X115503693Y-58862155D02*
X115541789Y-58785964D01*
X115541789Y-58785964D02*
X115541789Y-58709774D01*
X115541789Y-58709774D02*
X115503693Y-58633583D01*
X115503693Y-58633583D02*
X115427503Y-58595488D01*
X115427503Y-58595488D02*
X115237027Y-58595488D01*
X115237027Y-58595488D02*
X115160836Y-58557393D01*
X114665598Y-58900250D02*
X114741788Y-58862155D01*
X114741788Y-58862155D02*
X114779883Y-58785964D01*
X114779883Y-58785964D02*
X114779883Y-58100250D01*
X114437026Y-58366916D02*
X114246550Y-58900250D01*
X114246550Y-58900250D02*
X114056073Y-58366916D01*
X113408454Y-58900250D02*
X113408454Y-58481202D01*
X113408454Y-58481202D02*
X113446549Y-58405012D01*
X113446549Y-58405012D02*
X113522740Y-58366916D01*
X113522740Y-58366916D02*
X113675121Y-58366916D01*
X113675121Y-58366916D02*
X113751311Y-58405012D01*
X113408454Y-58862155D02*
X113484645Y-58900250D01*
X113484645Y-58900250D02*
X113675121Y-58900250D01*
X113675121Y-58900250D02*
X113751311Y-58862155D01*
X113751311Y-58862155D02*
X113789407Y-58785964D01*
X113789407Y-58785964D02*
X113789407Y-58709774D01*
X113789407Y-58709774D02*
X113751311Y-58633583D01*
X113751311Y-58633583D02*
X113675121Y-58595488D01*
X113675121Y-58595488D02*
X113484645Y-58595488D01*
X113484645Y-58595488D02*
X113408454Y-58557393D01*
X112684644Y-58900250D02*
X112684644Y-58100250D01*
X112684644Y-58862155D02*
X112760835Y-58900250D01*
X112760835Y-58900250D02*
X112913216Y-58900250D01*
X112913216Y-58900250D02*
X112989406Y-58862155D01*
X112989406Y-58862155D02*
X113027501Y-58824059D01*
X113027501Y-58824059D02*
X113065597Y-58747869D01*
X113065597Y-58747869D02*
X113065597Y-58519297D01*
X113065597Y-58519297D02*
X113027501Y-58443107D01*
X113027501Y-58443107D02*
X112989406Y-58405012D01*
X112989406Y-58405012D02*
X112913216Y-58366916D01*
X112913216Y-58366916D02*
X112760835Y-58366916D01*
X112760835Y-58366916D02*
X112684644Y-58405012D01*
X112189406Y-58900250D02*
X112265596Y-58862155D01*
X112265596Y-58862155D02*
X112303691Y-58824059D01*
X112303691Y-58824059D02*
X112341787Y-58747869D01*
X112341787Y-58747869D02*
X112341787Y-58519297D01*
X112341787Y-58519297D02*
X112303691Y-58443107D01*
X112303691Y-58443107D02*
X112265596Y-58405012D01*
X112265596Y-58405012D02*
X112189406Y-58366916D01*
X112189406Y-58366916D02*
X112075120Y-58366916D01*
X112075120Y-58366916D02*
X111998929Y-58405012D01*
X111998929Y-58405012D02*
X111960834Y-58443107D01*
X111960834Y-58443107D02*
X111922739Y-58519297D01*
X111922739Y-58519297D02*
X111922739Y-58747869D01*
X111922739Y-58747869D02*
X111960834Y-58824059D01*
X111960834Y-58824059D02*
X111998929Y-58862155D01*
X111998929Y-58862155D02*
X112075120Y-58900250D01*
X112075120Y-58900250D02*
X112189406Y-58900250D01*
X111579881Y-58900250D02*
X111579881Y-58366916D01*
X111579881Y-58519297D02*
X111541786Y-58443107D01*
X111541786Y-58443107D02*
X111503691Y-58405012D01*
X111503691Y-58405012D02*
X111427500Y-58366916D01*
X111427500Y-58366916D02*
X111351310Y-58366916D01*
X110551310Y-58366916D02*
X110398929Y-58900250D01*
X110398929Y-58900250D02*
X110246548Y-58519297D01*
X110246548Y-58519297D02*
X110094167Y-58900250D01*
X110094167Y-58900250D02*
X109941786Y-58366916D01*
X109637024Y-58900250D02*
X109637024Y-58366916D01*
X109637024Y-58100250D02*
X109675120Y-58138345D01*
X109675120Y-58138345D02*
X109637024Y-58176440D01*
X109637024Y-58176440D02*
X109598929Y-58138345D01*
X109598929Y-58138345D02*
X109637024Y-58100250D01*
X109637024Y-58100250D02*
X109637024Y-58176440D01*
X109256072Y-58366916D02*
X109256072Y-58900250D01*
X109256072Y-58443107D02*
X109217977Y-58405012D01*
X109217977Y-58405012D02*
X109141787Y-58366916D01*
X109141787Y-58366916D02*
X109027501Y-58366916D01*
X109027501Y-58366916D02*
X108951310Y-58405012D01*
X108951310Y-58405012D02*
X108913215Y-58481202D01*
X108913215Y-58481202D02*
X108913215Y-58900250D01*
X108532262Y-58900250D02*
X108532262Y-58100250D01*
X108456072Y-58595488D02*
X108227500Y-58900250D01*
X108227500Y-58366916D02*
X108532262Y-58671678D01*
X107579881Y-58862155D02*
X107656072Y-58900250D01*
X107656072Y-58900250D02*
X107808453Y-58900250D01*
X107808453Y-58900250D02*
X107884643Y-58862155D01*
X107884643Y-58862155D02*
X107922739Y-58785964D01*
X107922739Y-58785964D02*
X107922739Y-58481202D01*
X107922739Y-58481202D02*
X107884643Y-58405012D01*
X107884643Y-58405012D02*
X107808453Y-58366916D01*
X107808453Y-58366916D02*
X107656072Y-58366916D01*
X107656072Y-58366916D02*
X107579881Y-58405012D01*
X107579881Y-58405012D02*
X107541786Y-58481202D01*
X107541786Y-58481202D02*
X107541786Y-58557393D01*
X107541786Y-58557393D02*
X107922739Y-58633583D01*
X107084644Y-58900250D02*
X107160834Y-58862155D01*
X107160834Y-58862155D02*
X107198929Y-58785964D01*
X107198929Y-58785964D02*
X107198929Y-58100250D01*
X106170357Y-58900250D02*
X106170357Y-58366916D01*
X106170357Y-58100250D02*
X106208453Y-58138345D01*
X106208453Y-58138345D02*
X106170357Y-58176440D01*
X106170357Y-58176440D02*
X106132262Y-58138345D01*
X106132262Y-58138345D02*
X106170357Y-58100250D01*
X106170357Y-58100250D02*
X106170357Y-58176440D01*
X105789405Y-58366916D02*
X105789405Y-58900250D01*
X105789405Y-58443107D02*
X105751310Y-58405012D01*
X105751310Y-58405012D02*
X105675120Y-58366916D01*
X105675120Y-58366916D02*
X105560834Y-58366916D01*
X105560834Y-58366916D02*
X105484643Y-58405012D01*
X105484643Y-58405012D02*
X105446548Y-58481202D01*
X105446548Y-58481202D02*
X105446548Y-58900250D01*
X127960839Y-59654871D02*
X127960839Y-60340586D01*
X127960839Y-60340586D02*
X127998935Y-60416776D01*
X127998935Y-60416776D02*
X128075125Y-60454871D01*
X128075125Y-60454871D02*
X128113220Y-60454871D01*
X127960839Y-59388205D02*
X127998935Y-59426300D01*
X127998935Y-59426300D02*
X127960839Y-59464395D01*
X127960839Y-59464395D02*
X127922744Y-59426300D01*
X127922744Y-59426300D02*
X127960839Y-59388205D01*
X127960839Y-59388205D02*
X127960839Y-59464395D01*
X127237030Y-60188205D02*
X127237030Y-59769157D01*
X127237030Y-59769157D02*
X127275125Y-59692967D01*
X127275125Y-59692967D02*
X127351316Y-59654871D01*
X127351316Y-59654871D02*
X127503697Y-59654871D01*
X127503697Y-59654871D02*
X127579887Y-59692967D01*
X127237030Y-60150110D02*
X127313221Y-60188205D01*
X127313221Y-60188205D02*
X127503697Y-60188205D01*
X127503697Y-60188205D02*
X127579887Y-60150110D01*
X127579887Y-60150110D02*
X127617983Y-60073919D01*
X127617983Y-60073919D02*
X127617983Y-59997729D01*
X127617983Y-59997729D02*
X127579887Y-59921538D01*
X127579887Y-59921538D02*
X127503697Y-59883443D01*
X127503697Y-59883443D02*
X127313221Y-59883443D01*
X127313221Y-59883443D02*
X127237030Y-59845348D01*
X126856077Y-59654871D02*
X126856077Y-60188205D01*
X126856077Y-59731062D02*
X126817982Y-59692967D01*
X126817982Y-59692967D02*
X126741792Y-59654871D01*
X126741792Y-59654871D02*
X126627506Y-59654871D01*
X126627506Y-59654871D02*
X126551315Y-59692967D01*
X126551315Y-59692967D02*
X126513220Y-59769157D01*
X126513220Y-59769157D02*
X126513220Y-60188205D01*
X125789410Y-59654871D02*
X125789410Y-60188205D01*
X126132267Y-59654871D02*
X126132267Y-60073919D01*
X126132267Y-60073919D02*
X126094172Y-60150110D01*
X126094172Y-60150110D02*
X126017982Y-60188205D01*
X126017982Y-60188205D02*
X125903696Y-60188205D01*
X125903696Y-60188205D02*
X125827505Y-60150110D01*
X125827505Y-60150110D02*
X125789410Y-60112014D01*
X125065600Y-60188205D02*
X125065600Y-59769157D01*
X125065600Y-59769157D02*
X125103695Y-59692967D01*
X125103695Y-59692967D02*
X125179886Y-59654871D01*
X125179886Y-59654871D02*
X125332267Y-59654871D01*
X125332267Y-59654871D02*
X125408457Y-59692967D01*
X125065600Y-60150110D02*
X125141791Y-60188205D01*
X125141791Y-60188205D02*
X125332267Y-60188205D01*
X125332267Y-60188205D02*
X125408457Y-60150110D01*
X125408457Y-60150110D02*
X125446553Y-60073919D01*
X125446553Y-60073919D02*
X125446553Y-59997729D01*
X125446553Y-59997729D02*
X125408457Y-59921538D01*
X125408457Y-59921538D02*
X125332267Y-59883443D01*
X125332267Y-59883443D02*
X125141791Y-59883443D01*
X125141791Y-59883443D02*
X125065600Y-59845348D01*
X124684647Y-60188205D02*
X124684647Y-59654871D01*
X124684647Y-59807252D02*
X124646552Y-59731062D01*
X124646552Y-59731062D02*
X124608457Y-59692967D01*
X124608457Y-59692967D02*
X124532266Y-59654871D01*
X124532266Y-59654871D02*
X124456076Y-59654871D01*
X124265600Y-59654871D02*
X124075124Y-60188205D01*
X123884647Y-59654871D02*
X124075124Y-60188205D01*
X124075124Y-60188205D02*
X124151314Y-60378681D01*
X124151314Y-60378681D02*
X124189409Y-60416776D01*
X124189409Y-60416776D02*
X124265600Y-60454871D01*
X123008457Y-59464395D02*
X122970361Y-59426300D01*
X122970361Y-59426300D02*
X122894171Y-59388205D01*
X122894171Y-59388205D02*
X122703695Y-59388205D01*
X122703695Y-59388205D02*
X122627504Y-59426300D01*
X122627504Y-59426300D02*
X122589409Y-59464395D01*
X122589409Y-59464395D02*
X122551314Y-59540586D01*
X122551314Y-59540586D02*
X122551314Y-59616776D01*
X122551314Y-59616776D02*
X122589409Y-59731062D01*
X122589409Y-59731062D02*
X123046552Y-60188205D01*
X123046552Y-60188205D02*
X122551314Y-60188205D01*
X122056075Y-59388205D02*
X121979885Y-59388205D01*
X121979885Y-59388205D02*
X121903694Y-59426300D01*
X121903694Y-59426300D02*
X121865599Y-59464395D01*
X121865599Y-59464395D02*
X121827504Y-59540586D01*
X121827504Y-59540586D02*
X121789409Y-59692967D01*
X121789409Y-59692967D02*
X121789409Y-59883443D01*
X121789409Y-59883443D02*
X121827504Y-60035824D01*
X121827504Y-60035824D02*
X121865599Y-60112014D01*
X121865599Y-60112014D02*
X121903694Y-60150110D01*
X121903694Y-60150110D02*
X121979885Y-60188205D01*
X121979885Y-60188205D02*
X122056075Y-60188205D01*
X122056075Y-60188205D02*
X122132266Y-60150110D01*
X122132266Y-60150110D02*
X122170361Y-60112014D01*
X122170361Y-60112014D02*
X122208456Y-60035824D01*
X122208456Y-60035824D02*
X122246552Y-59883443D01*
X122246552Y-59883443D02*
X122246552Y-59692967D01*
X122246552Y-59692967D02*
X122208456Y-59540586D01*
X122208456Y-59540586D02*
X122170361Y-59464395D01*
X122170361Y-59464395D02*
X122132266Y-59426300D01*
X122132266Y-59426300D02*
X122056075Y-59388205D01*
X121484647Y-59464395D02*
X121446551Y-59426300D01*
X121446551Y-59426300D02*
X121370361Y-59388205D01*
X121370361Y-59388205D02*
X121179885Y-59388205D01*
X121179885Y-59388205D02*
X121103694Y-59426300D01*
X121103694Y-59426300D02*
X121065599Y-59464395D01*
X121065599Y-59464395D02*
X121027504Y-59540586D01*
X121027504Y-59540586D02*
X121027504Y-59616776D01*
X121027504Y-59616776D02*
X121065599Y-59731062D01*
X121065599Y-59731062D02*
X121522742Y-60188205D01*
X121522742Y-60188205D02*
X121027504Y-60188205D01*
X120341789Y-59388205D02*
X120494170Y-59388205D01*
X120494170Y-59388205D02*
X120570361Y-59426300D01*
X120570361Y-59426300D02*
X120608456Y-59464395D01*
X120608456Y-59464395D02*
X120684646Y-59578681D01*
X120684646Y-59578681D02*
X120722742Y-59731062D01*
X120722742Y-59731062D02*
X120722742Y-60035824D01*
X120722742Y-60035824D02*
X120684646Y-60112014D01*
X120684646Y-60112014D02*
X120646551Y-60150110D01*
X120646551Y-60150110D02*
X120570361Y-60188205D01*
X120570361Y-60188205D02*
X120417980Y-60188205D01*
X120417980Y-60188205D02*
X120341789Y-60150110D01*
X120341789Y-60150110D02*
X120303694Y-60112014D01*
X120303694Y-60112014D02*
X120265599Y-60035824D01*
X120265599Y-60035824D02*
X120265599Y-59845348D01*
X120265599Y-59845348D02*
X120303694Y-59769157D01*
X120303694Y-59769157D02*
X120341789Y-59731062D01*
X120341789Y-59731062D02*
X120417980Y-59692967D01*
X120417980Y-59692967D02*
X120570361Y-59692967D01*
X120570361Y-59692967D02*
X120646551Y-59731062D01*
X120646551Y-59731062D02*
X120684646Y-59769157D01*
X120684646Y-59769157D02*
X120722742Y-59845348D01*
X119084646Y-60492967D02*
X119122741Y-60454871D01*
X119122741Y-60454871D02*
X119198932Y-60340586D01*
X119198932Y-60340586D02*
X119237027Y-60264395D01*
X119237027Y-60264395D02*
X119275122Y-60150110D01*
X119275122Y-60150110D02*
X119313217Y-59959633D01*
X119313217Y-59959633D02*
X119313217Y-59807252D01*
X119313217Y-59807252D02*
X119275122Y-59616776D01*
X119275122Y-59616776D02*
X119237027Y-59502490D01*
X119237027Y-59502490D02*
X119198932Y-59426300D01*
X119198932Y-59426300D02*
X119122741Y-59312014D01*
X119122741Y-59312014D02*
X119084646Y-59273919D01*
X118779884Y-60188205D02*
X118779884Y-59654871D01*
X118779884Y-59807252D02*
X118741789Y-59731062D01*
X118741789Y-59731062D02*
X118703694Y-59692967D01*
X118703694Y-59692967D02*
X118627503Y-59654871D01*
X118627503Y-59654871D02*
X118551313Y-59654871D01*
X117979884Y-60150110D02*
X118056075Y-60188205D01*
X118056075Y-60188205D02*
X118208456Y-60188205D01*
X118208456Y-60188205D02*
X118284646Y-60150110D01*
X118284646Y-60150110D02*
X118322742Y-60073919D01*
X118322742Y-60073919D02*
X118322742Y-59769157D01*
X118322742Y-59769157D02*
X118284646Y-59692967D01*
X118284646Y-59692967D02*
X118208456Y-59654871D01*
X118208456Y-59654871D02*
X118056075Y-59654871D01*
X118056075Y-59654871D02*
X117979884Y-59692967D01*
X117979884Y-59692967D02*
X117941789Y-59769157D01*
X117941789Y-59769157D02*
X117941789Y-59845348D01*
X117941789Y-59845348D02*
X118322742Y-59921538D01*
X117675123Y-59654871D02*
X117484647Y-60188205D01*
X117484647Y-60188205D02*
X117294170Y-59654871D01*
X116037027Y-60188205D02*
X116037027Y-59769157D01*
X116037027Y-59769157D02*
X116075122Y-59692967D01*
X116075122Y-59692967D02*
X116151313Y-59654871D01*
X116151313Y-59654871D02*
X116303694Y-59654871D01*
X116303694Y-59654871D02*
X116379884Y-59692967D01*
X116037027Y-60150110D02*
X116113218Y-60188205D01*
X116113218Y-60188205D02*
X116303694Y-60188205D01*
X116303694Y-60188205D02*
X116379884Y-60150110D01*
X116379884Y-60150110D02*
X116417980Y-60073919D01*
X116417980Y-60073919D02*
X116417980Y-59997729D01*
X116417980Y-59997729D02*
X116379884Y-59921538D01*
X116379884Y-59921538D02*
X116303694Y-59883443D01*
X116303694Y-59883443D02*
X116113218Y-59883443D01*
X116113218Y-59883443D02*
X116037027Y-59845348D01*
X115732265Y-60492967D02*
X115694170Y-60454871D01*
X115694170Y-60454871D02*
X115617979Y-60340586D01*
X115617979Y-60340586D02*
X115579884Y-60264395D01*
X115579884Y-60264395D02*
X115541789Y-60150110D01*
X115541789Y-60150110D02*
X115503693Y-59959633D01*
X115503693Y-59959633D02*
X115503693Y-59807252D01*
X115503693Y-59807252D02*
X115541789Y-59616776D01*
X115541789Y-59616776D02*
X115579884Y-59502490D01*
X115579884Y-59502490D02*
X115617979Y-59426300D01*
X115617979Y-59426300D02*
X115694170Y-59312014D01*
X115694170Y-59312014D02*
X115732265Y-59273919D01*
D11*
X105833333Y-48953259D02*
X105833333Y-49667544D01*
X105833333Y-49667544D02*
X105880952Y-49810401D01*
X105880952Y-49810401D02*
X105976190Y-49905640D01*
X105976190Y-49905640D02*
X106119047Y-49953259D01*
X106119047Y-49953259D02*
X106214285Y-49953259D01*
X105404761Y-49048497D02*
X105357142Y-49000878D01*
X105357142Y-49000878D02*
X105261904Y-48953259D01*
X105261904Y-48953259D02*
X105023809Y-48953259D01*
X105023809Y-48953259D02*
X104928571Y-49000878D01*
X104928571Y-49000878D02*
X104880952Y-49048497D01*
X104880952Y-49048497D02*
X104833333Y-49143735D01*
X104833333Y-49143735D02*
X104833333Y-49238973D01*
X104833333Y-49238973D02*
X104880952Y-49381830D01*
X104880952Y-49381830D02*
X105452380Y-49953259D01*
X105452380Y-49953259D02*
X104833333Y-49953259D01*
D10*
X138482143Y-65767735D02*
X138517857Y-65803450D01*
X138517857Y-65803450D02*
X138625000Y-65839164D01*
X138625000Y-65839164D02*
X138696428Y-65839164D01*
X138696428Y-65839164D02*
X138803571Y-65803450D01*
X138803571Y-65803450D02*
X138875000Y-65732021D01*
X138875000Y-65732021D02*
X138910714Y-65660592D01*
X138910714Y-65660592D02*
X138946428Y-65517735D01*
X138946428Y-65517735D02*
X138946428Y-65410592D01*
X138946428Y-65410592D02*
X138910714Y-65267735D01*
X138910714Y-65267735D02*
X138875000Y-65196307D01*
X138875000Y-65196307D02*
X138803571Y-65124878D01*
X138803571Y-65124878D02*
X138696428Y-65089164D01*
X138696428Y-65089164D02*
X138625000Y-65089164D01*
X138625000Y-65089164D02*
X138517857Y-65124878D01*
X138517857Y-65124878D02*
X138482143Y-65160592D01*
X138196428Y-65160592D02*
X138160714Y-65124878D01*
X138160714Y-65124878D02*
X138089286Y-65089164D01*
X138089286Y-65089164D02*
X137910714Y-65089164D01*
X137910714Y-65089164D02*
X137839286Y-65124878D01*
X137839286Y-65124878D02*
X137803571Y-65160592D01*
X137803571Y-65160592D02*
X137767857Y-65232021D01*
X137767857Y-65232021D02*
X137767857Y-65303450D01*
X137767857Y-65303450D02*
X137803571Y-65410592D01*
X137803571Y-65410592D02*
X138232143Y-65839164D01*
X138232143Y-65839164D02*
X137767857Y-65839164D01*
X137303571Y-65089164D02*
X137232142Y-65089164D01*
X137232142Y-65089164D02*
X137160714Y-65124878D01*
X137160714Y-65124878D02*
X137125000Y-65160592D01*
X137125000Y-65160592D02*
X137089285Y-65232021D01*
X137089285Y-65232021D02*
X137053571Y-65374878D01*
X137053571Y-65374878D02*
X137053571Y-65553450D01*
X137053571Y-65553450D02*
X137089285Y-65696307D01*
X137089285Y-65696307D02*
X137125000Y-65767735D01*
X137125000Y-65767735D02*
X137160714Y-65803450D01*
X137160714Y-65803450D02*
X137232142Y-65839164D01*
X137232142Y-65839164D02*
X137303571Y-65839164D01*
X137303571Y-65839164D02*
X137375000Y-65803450D01*
X137375000Y-65803450D02*
X137410714Y-65767735D01*
X137410714Y-65767735D02*
X137446428Y-65696307D01*
X137446428Y-65696307D02*
X137482142Y-65553450D01*
X137482142Y-65553450D02*
X137482142Y-65374878D01*
X137482142Y-65374878D02*
X137446428Y-65232021D01*
X137446428Y-65232021D02*
X137410714Y-65160592D01*
X137410714Y-65160592D02*
X137375000Y-65124878D01*
X137375000Y-65124878D02*
X137303571Y-65089164D01*
X162232143Y-49339164D02*
X162482143Y-48982021D01*
X162660714Y-49339164D02*
X162660714Y-48589164D01*
X162660714Y-48589164D02*
X162375000Y-48589164D01*
X162375000Y-48589164D02*
X162303571Y-48624878D01*
X162303571Y-48624878D02*
X162267857Y-48660592D01*
X162267857Y-48660592D02*
X162232143Y-48732021D01*
X162232143Y-48732021D02*
X162232143Y-48839164D01*
X162232143Y-48839164D02*
X162267857Y-48910592D01*
X162267857Y-48910592D02*
X162303571Y-48946307D01*
X162303571Y-48946307D02*
X162375000Y-48982021D01*
X162375000Y-48982021D02*
X162660714Y-48982021D01*
X161946428Y-48660592D02*
X161910714Y-48624878D01*
X161910714Y-48624878D02*
X161839286Y-48589164D01*
X161839286Y-48589164D02*
X161660714Y-48589164D01*
X161660714Y-48589164D02*
X161589286Y-48624878D01*
X161589286Y-48624878D02*
X161553571Y-48660592D01*
X161553571Y-48660592D02*
X161517857Y-48732021D01*
X161517857Y-48732021D02*
X161517857Y-48803450D01*
X161517857Y-48803450D02*
X161553571Y-48910592D01*
X161553571Y-48910592D02*
X161982143Y-49339164D01*
X161982143Y-49339164D02*
X161517857Y-49339164D01*
X160839285Y-48589164D02*
X161196428Y-48589164D01*
X161196428Y-48589164D02*
X161232142Y-48946307D01*
X161232142Y-48946307D02*
X161196428Y-48910592D01*
X161196428Y-48910592D02*
X161125000Y-48874878D01*
X161125000Y-48874878D02*
X160946428Y-48874878D01*
X160946428Y-48874878D02*
X160875000Y-48910592D01*
X160875000Y-48910592D02*
X160839285Y-48946307D01*
X160839285Y-48946307D02*
X160803571Y-49017735D01*
X160803571Y-49017735D02*
X160803571Y-49196307D01*
X160803571Y-49196307D02*
X160839285Y-49267735D01*
X160839285Y-49267735D02*
X160875000Y-49303450D01*
X160875000Y-49303450D02*
X160946428Y-49339164D01*
X160946428Y-49339164D02*
X161125000Y-49339164D01*
X161125000Y-49339164D02*
X161196428Y-49303450D01*
X161196428Y-49303450D02*
X161232142Y-49267735D01*
X143982143Y-68517735D02*
X144017857Y-68553450D01*
X144017857Y-68553450D02*
X144125000Y-68589164D01*
X144125000Y-68589164D02*
X144196428Y-68589164D01*
X144196428Y-68589164D02*
X144303571Y-68553450D01*
X144303571Y-68553450D02*
X144375000Y-68482021D01*
X144375000Y-68482021D02*
X144410714Y-68410592D01*
X144410714Y-68410592D02*
X144446428Y-68267735D01*
X144446428Y-68267735D02*
X144446428Y-68160592D01*
X144446428Y-68160592D02*
X144410714Y-68017735D01*
X144410714Y-68017735D02*
X144375000Y-67946307D01*
X144375000Y-67946307D02*
X144303571Y-67874878D01*
X144303571Y-67874878D02*
X144196428Y-67839164D01*
X144196428Y-67839164D02*
X144125000Y-67839164D01*
X144125000Y-67839164D02*
X144017857Y-67874878D01*
X144017857Y-67874878D02*
X143982143Y-67910592D01*
X143339286Y-68089164D02*
X143339286Y-68589164D01*
X143517857Y-67803450D02*
X143696428Y-68339164D01*
X143696428Y-68339164D02*
X143232143Y-68339164D01*
X143017857Y-67839164D02*
X142517857Y-67839164D01*
X142517857Y-67839164D02*
X142839285Y-68589164D01*
X121232143Y-87339164D02*
X121482143Y-86982021D01*
X121660714Y-87339164D02*
X121660714Y-86589164D01*
X121660714Y-86589164D02*
X121375000Y-86589164D01*
X121375000Y-86589164D02*
X121303571Y-86624878D01*
X121303571Y-86624878D02*
X121267857Y-86660592D01*
X121267857Y-86660592D02*
X121232143Y-86732021D01*
X121232143Y-86732021D02*
X121232143Y-86839164D01*
X121232143Y-86839164D02*
X121267857Y-86910592D01*
X121267857Y-86910592D02*
X121303571Y-86946307D01*
X121303571Y-86946307D02*
X121375000Y-86982021D01*
X121375000Y-86982021D02*
X121660714Y-86982021D01*
X120946428Y-86660592D02*
X120910714Y-86624878D01*
X120910714Y-86624878D02*
X120839286Y-86589164D01*
X120839286Y-86589164D02*
X120660714Y-86589164D01*
X120660714Y-86589164D02*
X120589286Y-86624878D01*
X120589286Y-86624878D02*
X120553571Y-86660592D01*
X120553571Y-86660592D02*
X120517857Y-86732021D01*
X120517857Y-86732021D02*
X120517857Y-86803450D01*
X120517857Y-86803450D02*
X120553571Y-86910592D01*
X120553571Y-86910592D02*
X120982143Y-87339164D01*
X120982143Y-87339164D02*
X120517857Y-87339164D01*
X119875000Y-86839164D02*
X119875000Y-87339164D01*
X120053571Y-86553450D02*
X120232142Y-87089164D01*
X120232142Y-87089164D02*
X119767857Y-87089164D01*
X145982143Y-73767735D02*
X146017857Y-73803450D01*
X146017857Y-73803450D02*
X146125000Y-73839164D01*
X146125000Y-73839164D02*
X146196428Y-73839164D01*
X146196428Y-73839164D02*
X146303571Y-73803450D01*
X146303571Y-73803450D02*
X146375000Y-73732021D01*
X146375000Y-73732021D02*
X146410714Y-73660592D01*
X146410714Y-73660592D02*
X146446428Y-73517735D01*
X146446428Y-73517735D02*
X146446428Y-73410592D01*
X146446428Y-73410592D02*
X146410714Y-73267735D01*
X146410714Y-73267735D02*
X146375000Y-73196307D01*
X146375000Y-73196307D02*
X146303571Y-73124878D01*
X146303571Y-73124878D02*
X146196428Y-73089164D01*
X146196428Y-73089164D02*
X146125000Y-73089164D01*
X146125000Y-73089164D02*
X146017857Y-73124878D01*
X146017857Y-73124878D02*
X145982143Y-73160592D01*
X145339286Y-73339164D02*
X145339286Y-73839164D01*
X145517857Y-73053450D02*
X145696428Y-73589164D01*
X145696428Y-73589164D02*
X145232143Y-73589164D01*
X144625000Y-73339164D02*
X144625000Y-73839164D01*
X144803571Y-73053450D02*
X144982142Y-73589164D01*
X144982142Y-73589164D02*
X144517857Y-73589164D01*
X136232143Y-93517735D02*
X136267857Y-93553450D01*
X136267857Y-93553450D02*
X136375000Y-93589164D01*
X136375000Y-93589164D02*
X136446428Y-93589164D01*
X136446428Y-93589164D02*
X136553571Y-93553450D01*
X136553571Y-93553450D02*
X136625000Y-93482021D01*
X136625000Y-93482021D02*
X136660714Y-93410592D01*
X136660714Y-93410592D02*
X136696428Y-93267735D01*
X136696428Y-93267735D02*
X136696428Y-93160592D01*
X136696428Y-93160592D02*
X136660714Y-93017735D01*
X136660714Y-93017735D02*
X136625000Y-92946307D01*
X136625000Y-92946307D02*
X136553571Y-92874878D01*
X136553571Y-92874878D02*
X136446428Y-92839164D01*
X136446428Y-92839164D02*
X136375000Y-92839164D01*
X136375000Y-92839164D02*
X136267857Y-92874878D01*
X136267857Y-92874878D02*
X136232143Y-92910592D01*
X135982143Y-92839164D02*
X135482143Y-92839164D01*
X135482143Y-92839164D02*
X135803571Y-93589164D01*
X135232142Y-92910592D02*
X135196428Y-92874878D01*
X135196428Y-92874878D02*
X135125000Y-92839164D01*
X135125000Y-92839164D02*
X134946428Y-92839164D01*
X134946428Y-92839164D02*
X134875000Y-92874878D01*
X134875000Y-92874878D02*
X134839285Y-92910592D01*
X134839285Y-92910592D02*
X134803571Y-92982021D01*
X134803571Y-92982021D02*
X134803571Y-93053450D01*
X134803571Y-93053450D02*
X134839285Y-93160592D01*
X134839285Y-93160592D02*
X135267857Y-93589164D01*
X135267857Y-93589164D02*
X134803571Y-93589164D01*
X136625000Y-51589164D02*
X136875000Y-51232021D01*
X137053571Y-51589164D02*
X137053571Y-50839164D01*
X137053571Y-50839164D02*
X136767857Y-50839164D01*
X136767857Y-50839164D02*
X136696428Y-50874878D01*
X136696428Y-50874878D02*
X136660714Y-50910592D01*
X136660714Y-50910592D02*
X136625000Y-50982021D01*
X136625000Y-50982021D02*
X136625000Y-51089164D01*
X136625000Y-51089164D02*
X136660714Y-51160592D01*
X136660714Y-51160592D02*
X136696428Y-51196307D01*
X136696428Y-51196307D02*
X136767857Y-51232021D01*
X136767857Y-51232021D02*
X137053571Y-51232021D01*
X136339285Y-50910592D02*
X136303571Y-50874878D01*
X136303571Y-50874878D02*
X136232143Y-50839164D01*
X136232143Y-50839164D02*
X136053571Y-50839164D01*
X136053571Y-50839164D02*
X135982143Y-50874878D01*
X135982143Y-50874878D02*
X135946428Y-50910592D01*
X135946428Y-50910592D02*
X135910714Y-50982021D01*
X135910714Y-50982021D02*
X135910714Y-51053450D01*
X135910714Y-51053450D02*
X135946428Y-51160592D01*
X135946428Y-51160592D02*
X136375000Y-51589164D01*
X136375000Y-51589164D02*
X135910714Y-51589164D01*
X132982143Y-69017735D02*
X133017857Y-69053450D01*
X133017857Y-69053450D02*
X133125000Y-69089164D01*
X133125000Y-69089164D02*
X133196428Y-69089164D01*
X133196428Y-69089164D02*
X133303571Y-69053450D01*
X133303571Y-69053450D02*
X133375000Y-68982021D01*
X133375000Y-68982021D02*
X133410714Y-68910592D01*
X133410714Y-68910592D02*
X133446428Y-68767735D01*
X133446428Y-68767735D02*
X133446428Y-68660592D01*
X133446428Y-68660592D02*
X133410714Y-68517735D01*
X133410714Y-68517735D02*
X133375000Y-68446307D01*
X133375000Y-68446307D02*
X133303571Y-68374878D01*
X133303571Y-68374878D02*
X133196428Y-68339164D01*
X133196428Y-68339164D02*
X133125000Y-68339164D01*
X133125000Y-68339164D02*
X133017857Y-68374878D01*
X133017857Y-68374878D02*
X132982143Y-68410592D01*
X132339286Y-68589164D02*
X132339286Y-69089164D01*
X132517857Y-68303450D02*
X132696428Y-68839164D01*
X132696428Y-68839164D02*
X132232143Y-68839164D01*
X131625000Y-68339164D02*
X131767857Y-68339164D01*
X131767857Y-68339164D02*
X131839285Y-68374878D01*
X131839285Y-68374878D02*
X131875000Y-68410592D01*
X131875000Y-68410592D02*
X131946428Y-68517735D01*
X131946428Y-68517735D02*
X131982142Y-68660592D01*
X131982142Y-68660592D02*
X131982142Y-68946307D01*
X131982142Y-68946307D02*
X131946428Y-69017735D01*
X131946428Y-69017735D02*
X131910714Y-69053450D01*
X131910714Y-69053450D02*
X131839285Y-69089164D01*
X131839285Y-69089164D02*
X131696428Y-69089164D01*
X131696428Y-69089164D02*
X131625000Y-69053450D01*
X131625000Y-69053450D02*
X131589285Y-69017735D01*
X131589285Y-69017735D02*
X131553571Y-68946307D01*
X131553571Y-68946307D02*
X131553571Y-68767735D01*
X131553571Y-68767735D02*
X131589285Y-68696307D01*
X131589285Y-68696307D02*
X131625000Y-68660592D01*
X131625000Y-68660592D02*
X131696428Y-68624878D01*
X131696428Y-68624878D02*
X131839285Y-68624878D01*
X131839285Y-68624878D02*
X131910714Y-68660592D01*
X131910714Y-68660592D02*
X131946428Y-68696307D01*
X131946428Y-68696307D02*
X131982142Y-68767735D01*
X150839164Y-66267856D02*
X150482021Y-66017856D01*
X150839164Y-65839285D02*
X150089164Y-65839285D01*
X150089164Y-65839285D02*
X150089164Y-66124999D01*
X150089164Y-66124999D02*
X150124878Y-66196428D01*
X150124878Y-66196428D02*
X150160592Y-66232142D01*
X150160592Y-66232142D02*
X150232021Y-66267856D01*
X150232021Y-66267856D02*
X150339164Y-66267856D01*
X150339164Y-66267856D02*
X150410592Y-66232142D01*
X150410592Y-66232142D02*
X150446307Y-66196428D01*
X150446307Y-66196428D02*
X150482021Y-66124999D01*
X150482021Y-66124999D02*
X150482021Y-65839285D01*
X150339164Y-66910714D02*
X150839164Y-66910714D01*
X150053450Y-66732142D02*
X150589164Y-66553571D01*
X150589164Y-66553571D02*
X150589164Y-67017856D01*
X150160592Y-67267857D02*
X150124878Y-67303571D01*
X150124878Y-67303571D02*
X150089164Y-67375000D01*
X150089164Y-67375000D02*
X150089164Y-67553571D01*
X150089164Y-67553571D02*
X150124878Y-67625000D01*
X150124878Y-67625000D02*
X150160592Y-67660714D01*
X150160592Y-67660714D02*
X150232021Y-67696428D01*
X150232021Y-67696428D02*
X150303450Y-67696428D01*
X150303450Y-67696428D02*
X150410592Y-67660714D01*
X150410592Y-67660714D02*
X150839164Y-67232142D01*
X150839164Y-67232142D02*
X150839164Y-67696428D01*
X162232143Y-48339164D02*
X162482143Y-47982021D01*
X162660714Y-48339164D02*
X162660714Y-47589164D01*
X162660714Y-47589164D02*
X162375000Y-47589164D01*
X162375000Y-47589164D02*
X162303571Y-47624878D01*
X162303571Y-47624878D02*
X162267857Y-47660592D01*
X162267857Y-47660592D02*
X162232143Y-47732021D01*
X162232143Y-47732021D02*
X162232143Y-47839164D01*
X162232143Y-47839164D02*
X162267857Y-47910592D01*
X162267857Y-47910592D02*
X162303571Y-47946307D01*
X162303571Y-47946307D02*
X162375000Y-47982021D01*
X162375000Y-47982021D02*
X162660714Y-47982021D01*
X161946428Y-47660592D02*
X161910714Y-47624878D01*
X161910714Y-47624878D02*
X161839286Y-47589164D01*
X161839286Y-47589164D02*
X161660714Y-47589164D01*
X161660714Y-47589164D02*
X161589286Y-47624878D01*
X161589286Y-47624878D02*
X161553571Y-47660592D01*
X161553571Y-47660592D02*
X161517857Y-47732021D01*
X161517857Y-47732021D02*
X161517857Y-47803450D01*
X161517857Y-47803450D02*
X161553571Y-47910592D01*
X161553571Y-47910592D02*
X161982143Y-48339164D01*
X161982143Y-48339164D02*
X161517857Y-48339164D01*
X160875000Y-47589164D02*
X161017857Y-47589164D01*
X161017857Y-47589164D02*
X161089285Y-47624878D01*
X161089285Y-47624878D02*
X161125000Y-47660592D01*
X161125000Y-47660592D02*
X161196428Y-47767735D01*
X161196428Y-47767735D02*
X161232142Y-47910592D01*
X161232142Y-47910592D02*
X161232142Y-48196307D01*
X161232142Y-48196307D02*
X161196428Y-48267735D01*
X161196428Y-48267735D02*
X161160714Y-48303450D01*
X161160714Y-48303450D02*
X161089285Y-48339164D01*
X161089285Y-48339164D02*
X160946428Y-48339164D01*
X160946428Y-48339164D02*
X160875000Y-48303450D01*
X160875000Y-48303450D02*
X160839285Y-48267735D01*
X160839285Y-48267735D02*
X160803571Y-48196307D01*
X160803571Y-48196307D02*
X160803571Y-48017735D01*
X160803571Y-48017735D02*
X160839285Y-47946307D01*
X160839285Y-47946307D02*
X160875000Y-47910592D01*
X160875000Y-47910592D02*
X160946428Y-47874878D01*
X160946428Y-47874878D02*
X161089285Y-47874878D01*
X161089285Y-47874878D02*
X161160714Y-47910592D01*
X161160714Y-47910592D02*
X161196428Y-47946307D01*
X161196428Y-47946307D02*
X161232142Y-48017735D01*
X139982143Y-68517735D02*
X140017857Y-68553450D01*
X140017857Y-68553450D02*
X140125000Y-68589164D01*
X140125000Y-68589164D02*
X140196428Y-68589164D01*
X140196428Y-68589164D02*
X140303571Y-68553450D01*
X140303571Y-68553450D02*
X140375000Y-68482021D01*
X140375000Y-68482021D02*
X140410714Y-68410592D01*
X140410714Y-68410592D02*
X140446428Y-68267735D01*
X140446428Y-68267735D02*
X140446428Y-68160592D01*
X140446428Y-68160592D02*
X140410714Y-68017735D01*
X140410714Y-68017735D02*
X140375000Y-67946307D01*
X140375000Y-67946307D02*
X140303571Y-67874878D01*
X140303571Y-67874878D02*
X140196428Y-67839164D01*
X140196428Y-67839164D02*
X140125000Y-67839164D01*
X140125000Y-67839164D02*
X140017857Y-67874878D01*
X140017857Y-67874878D02*
X139982143Y-67910592D01*
X139303571Y-67839164D02*
X139660714Y-67839164D01*
X139660714Y-67839164D02*
X139696428Y-68196307D01*
X139696428Y-68196307D02*
X139660714Y-68160592D01*
X139660714Y-68160592D02*
X139589286Y-68124878D01*
X139589286Y-68124878D02*
X139410714Y-68124878D01*
X139410714Y-68124878D02*
X139339286Y-68160592D01*
X139339286Y-68160592D02*
X139303571Y-68196307D01*
X139303571Y-68196307D02*
X139267857Y-68267735D01*
X139267857Y-68267735D02*
X139267857Y-68446307D01*
X139267857Y-68446307D02*
X139303571Y-68517735D01*
X139303571Y-68517735D02*
X139339286Y-68553450D01*
X139339286Y-68553450D02*
X139410714Y-68589164D01*
X139410714Y-68589164D02*
X139589286Y-68589164D01*
X139589286Y-68589164D02*
X139660714Y-68553450D01*
X139660714Y-68553450D02*
X139696428Y-68517735D01*
X138589285Y-67839164D02*
X138946428Y-67839164D01*
X138946428Y-67839164D02*
X138982142Y-68196307D01*
X138982142Y-68196307D02*
X138946428Y-68160592D01*
X138946428Y-68160592D02*
X138875000Y-68124878D01*
X138875000Y-68124878D02*
X138696428Y-68124878D01*
X138696428Y-68124878D02*
X138625000Y-68160592D01*
X138625000Y-68160592D02*
X138589285Y-68196307D01*
X138589285Y-68196307D02*
X138553571Y-68267735D01*
X138553571Y-68267735D02*
X138553571Y-68446307D01*
X138553571Y-68446307D02*
X138589285Y-68517735D01*
X138589285Y-68517735D02*
X138625000Y-68553450D01*
X138625000Y-68553450D02*
X138696428Y-68589164D01*
X138696428Y-68589164D02*
X138875000Y-68589164D01*
X138875000Y-68589164D02*
X138946428Y-68553450D01*
X138946428Y-68553450D02*
X138982142Y-68517735D01*
X140982143Y-96089164D02*
X141232143Y-95732021D01*
X141410714Y-96089164D02*
X141410714Y-95339164D01*
X141410714Y-95339164D02*
X141125000Y-95339164D01*
X141125000Y-95339164D02*
X141053571Y-95374878D01*
X141053571Y-95374878D02*
X141017857Y-95410592D01*
X141017857Y-95410592D02*
X140982143Y-95482021D01*
X140982143Y-95482021D02*
X140982143Y-95589164D01*
X140982143Y-95589164D02*
X141017857Y-95660592D01*
X141017857Y-95660592D02*
X141053571Y-95696307D01*
X141053571Y-95696307D02*
X141125000Y-95732021D01*
X141125000Y-95732021D02*
X141410714Y-95732021D01*
X140732143Y-95339164D02*
X140267857Y-95339164D01*
X140267857Y-95339164D02*
X140517857Y-95624878D01*
X140517857Y-95624878D02*
X140410714Y-95624878D01*
X140410714Y-95624878D02*
X140339286Y-95660592D01*
X140339286Y-95660592D02*
X140303571Y-95696307D01*
X140303571Y-95696307D02*
X140267857Y-95767735D01*
X140267857Y-95767735D02*
X140267857Y-95946307D01*
X140267857Y-95946307D02*
X140303571Y-96017735D01*
X140303571Y-96017735D02*
X140339286Y-96053450D01*
X140339286Y-96053450D02*
X140410714Y-96089164D01*
X140410714Y-96089164D02*
X140625000Y-96089164D01*
X140625000Y-96089164D02*
X140696428Y-96053450D01*
X140696428Y-96053450D02*
X140732143Y-96017735D01*
X139982142Y-95410592D02*
X139946428Y-95374878D01*
X139946428Y-95374878D02*
X139875000Y-95339164D01*
X139875000Y-95339164D02*
X139696428Y-95339164D01*
X139696428Y-95339164D02*
X139625000Y-95374878D01*
X139625000Y-95374878D02*
X139589285Y-95410592D01*
X139589285Y-95410592D02*
X139553571Y-95482021D01*
X139553571Y-95482021D02*
X139553571Y-95553450D01*
X139553571Y-95553450D02*
X139589285Y-95660592D01*
X139589285Y-95660592D02*
X140017857Y-96089164D01*
X140017857Y-96089164D02*
X139553571Y-96089164D01*
X144517735Y-71017856D02*
X144553450Y-70982142D01*
X144553450Y-70982142D02*
X144589164Y-70874999D01*
X144589164Y-70874999D02*
X144589164Y-70803571D01*
X144589164Y-70803571D02*
X144553450Y-70696428D01*
X144553450Y-70696428D02*
X144482021Y-70624999D01*
X144482021Y-70624999D02*
X144410592Y-70589285D01*
X144410592Y-70589285D02*
X144267735Y-70553571D01*
X144267735Y-70553571D02*
X144160592Y-70553571D01*
X144160592Y-70553571D02*
X144017735Y-70589285D01*
X144017735Y-70589285D02*
X143946307Y-70624999D01*
X143946307Y-70624999D02*
X143874878Y-70696428D01*
X143874878Y-70696428D02*
X143839164Y-70803571D01*
X143839164Y-70803571D02*
X143839164Y-70874999D01*
X143839164Y-70874999D02*
X143874878Y-70982142D01*
X143874878Y-70982142D02*
X143910592Y-71017856D01*
X144089164Y-71660714D02*
X144589164Y-71660714D01*
X143803450Y-71482142D02*
X144339164Y-71303571D01*
X144339164Y-71303571D02*
X144339164Y-71767856D01*
X143839164Y-72410714D02*
X143839164Y-72053571D01*
X143839164Y-72053571D02*
X144196307Y-72017857D01*
X144196307Y-72017857D02*
X144160592Y-72053571D01*
X144160592Y-72053571D02*
X144124878Y-72125000D01*
X144124878Y-72125000D02*
X144124878Y-72303571D01*
X144124878Y-72303571D02*
X144160592Y-72375000D01*
X144160592Y-72375000D02*
X144196307Y-72410714D01*
X144196307Y-72410714D02*
X144267735Y-72446428D01*
X144267735Y-72446428D02*
X144446307Y-72446428D01*
X144446307Y-72446428D02*
X144517735Y-72410714D01*
X144517735Y-72410714D02*
X144553450Y-72375000D01*
X144553450Y-72375000D02*
X144589164Y-72303571D01*
X144589164Y-72303571D02*
X144589164Y-72125000D01*
X144589164Y-72125000D02*
X144553450Y-72053571D01*
X144553450Y-72053571D02*
X144517735Y-72017857D01*
X137732143Y-75267735D02*
X137767857Y-75303450D01*
X137767857Y-75303450D02*
X137875000Y-75339164D01*
X137875000Y-75339164D02*
X137946428Y-75339164D01*
X137946428Y-75339164D02*
X138053571Y-75303450D01*
X138053571Y-75303450D02*
X138125000Y-75232021D01*
X138125000Y-75232021D02*
X138160714Y-75160592D01*
X138160714Y-75160592D02*
X138196428Y-75017735D01*
X138196428Y-75017735D02*
X138196428Y-74910592D01*
X138196428Y-74910592D02*
X138160714Y-74767735D01*
X138160714Y-74767735D02*
X138125000Y-74696307D01*
X138125000Y-74696307D02*
X138053571Y-74624878D01*
X138053571Y-74624878D02*
X137946428Y-74589164D01*
X137946428Y-74589164D02*
X137875000Y-74589164D01*
X137875000Y-74589164D02*
X137767857Y-74624878D01*
X137767857Y-74624878D02*
X137732143Y-74660592D01*
X137482143Y-74589164D02*
X137017857Y-74589164D01*
X137017857Y-74589164D02*
X137267857Y-74874878D01*
X137267857Y-74874878D02*
X137160714Y-74874878D01*
X137160714Y-74874878D02*
X137089286Y-74910592D01*
X137089286Y-74910592D02*
X137053571Y-74946307D01*
X137053571Y-74946307D02*
X137017857Y-75017735D01*
X137017857Y-75017735D02*
X137017857Y-75196307D01*
X137017857Y-75196307D02*
X137053571Y-75267735D01*
X137053571Y-75267735D02*
X137089286Y-75303450D01*
X137089286Y-75303450D02*
X137160714Y-75339164D01*
X137160714Y-75339164D02*
X137375000Y-75339164D01*
X137375000Y-75339164D02*
X137446428Y-75303450D01*
X137446428Y-75303450D02*
X137482143Y-75267735D01*
X136303571Y-75339164D02*
X136732142Y-75339164D01*
X136517857Y-75339164D02*
X136517857Y-74589164D01*
X136517857Y-74589164D02*
X136589285Y-74696307D01*
X136589285Y-74696307D02*
X136660714Y-74767735D01*
X136660714Y-74767735D02*
X136732142Y-74803450D01*
X139482143Y-63767735D02*
X139517857Y-63803450D01*
X139517857Y-63803450D02*
X139625000Y-63839164D01*
X139625000Y-63839164D02*
X139696428Y-63839164D01*
X139696428Y-63839164D02*
X139803571Y-63803450D01*
X139803571Y-63803450D02*
X139875000Y-63732021D01*
X139875000Y-63732021D02*
X139910714Y-63660592D01*
X139910714Y-63660592D02*
X139946428Y-63517735D01*
X139946428Y-63517735D02*
X139946428Y-63410592D01*
X139946428Y-63410592D02*
X139910714Y-63267735D01*
X139910714Y-63267735D02*
X139875000Y-63196307D01*
X139875000Y-63196307D02*
X139803571Y-63124878D01*
X139803571Y-63124878D02*
X139696428Y-63089164D01*
X139696428Y-63089164D02*
X139625000Y-63089164D01*
X139625000Y-63089164D02*
X139517857Y-63124878D01*
X139517857Y-63124878D02*
X139482143Y-63160592D01*
X139196428Y-63160592D02*
X139160714Y-63124878D01*
X139160714Y-63124878D02*
X139089286Y-63089164D01*
X139089286Y-63089164D02*
X138910714Y-63089164D01*
X138910714Y-63089164D02*
X138839286Y-63124878D01*
X138839286Y-63124878D02*
X138803571Y-63160592D01*
X138803571Y-63160592D02*
X138767857Y-63232021D01*
X138767857Y-63232021D02*
X138767857Y-63303450D01*
X138767857Y-63303450D02*
X138803571Y-63410592D01*
X138803571Y-63410592D02*
X139232143Y-63839164D01*
X139232143Y-63839164D02*
X138767857Y-63839164D01*
X138125000Y-63339164D02*
X138125000Y-63839164D01*
X138303571Y-63053450D02*
X138482142Y-63589164D01*
X138482142Y-63589164D02*
X138017857Y-63589164D01*
X136625000Y-52589164D02*
X136875000Y-52232021D01*
X137053571Y-52589164D02*
X137053571Y-51839164D01*
X137053571Y-51839164D02*
X136767857Y-51839164D01*
X136767857Y-51839164D02*
X136696428Y-51874878D01*
X136696428Y-51874878D02*
X136660714Y-51910592D01*
X136660714Y-51910592D02*
X136625000Y-51982021D01*
X136625000Y-51982021D02*
X136625000Y-52089164D01*
X136625000Y-52089164D02*
X136660714Y-52160592D01*
X136660714Y-52160592D02*
X136696428Y-52196307D01*
X136696428Y-52196307D02*
X136767857Y-52232021D01*
X136767857Y-52232021D02*
X137053571Y-52232021D01*
X135910714Y-52589164D02*
X136339285Y-52589164D01*
X136125000Y-52589164D02*
X136125000Y-51839164D01*
X136125000Y-51839164D02*
X136196428Y-51946307D01*
X136196428Y-51946307D02*
X136267857Y-52017735D01*
X136267857Y-52017735D02*
X136339285Y-52053450D01*
X146232143Y-96089164D02*
X146482143Y-95732021D01*
X146660714Y-96089164D02*
X146660714Y-95339164D01*
X146660714Y-95339164D02*
X146375000Y-95339164D01*
X146375000Y-95339164D02*
X146303571Y-95374878D01*
X146303571Y-95374878D02*
X146267857Y-95410592D01*
X146267857Y-95410592D02*
X146232143Y-95482021D01*
X146232143Y-95482021D02*
X146232143Y-95589164D01*
X146232143Y-95589164D02*
X146267857Y-95660592D01*
X146267857Y-95660592D02*
X146303571Y-95696307D01*
X146303571Y-95696307D02*
X146375000Y-95732021D01*
X146375000Y-95732021D02*
X146660714Y-95732021D01*
X145982143Y-95339164D02*
X145517857Y-95339164D01*
X145517857Y-95339164D02*
X145767857Y-95624878D01*
X145767857Y-95624878D02*
X145660714Y-95624878D01*
X145660714Y-95624878D02*
X145589286Y-95660592D01*
X145589286Y-95660592D02*
X145553571Y-95696307D01*
X145553571Y-95696307D02*
X145517857Y-95767735D01*
X145517857Y-95767735D02*
X145517857Y-95946307D01*
X145517857Y-95946307D02*
X145553571Y-96017735D01*
X145553571Y-96017735D02*
X145589286Y-96053450D01*
X145589286Y-96053450D02*
X145660714Y-96089164D01*
X145660714Y-96089164D02*
X145875000Y-96089164D01*
X145875000Y-96089164D02*
X145946428Y-96053450D01*
X145946428Y-96053450D02*
X145982143Y-96017735D01*
X144803571Y-96089164D02*
X145232142Y-96089164D01*
X145017857Y-96089164D02*
X145017857Y-95339164D01*
X145017857Y-95339164D02*
X145089285Y-95446307D01*
X145089285Y-95446307D02*
X145160714Y-95517735D01*
X145160714Y-95517735D02*
X145232142Y-95553450D01*
X144482143Y-65767735D02*
X144517857Y-65803450D01*
X144517857Y-65803450D02*
X144625000Y-65839164D01*
X144625000Y-65839164D02*
X144696428Y-65839164D01*
X144696428Y-65839164D02*
X144803571Y-65803450D01*
X144803571Y-65803450D02*
X144875000Y-65732021D01*
X144875000Y-65732021D02*
X144910714Y-65660592D01*
X144910714Y-65660592D02*
X144946428Y-65517735D01*
X144946428Y-65517735D02*
X144946428Y-65410592D01*
X144946428Y-65410592D02*
X144910714Y-65267735D01*
X144910714Y-65267735D02*
X144875000Y-65196307D01*
X144875000Y-65196307D02*
X144803571Y-65124878D01*
X144803571Y-65124878D02*
X144696428Y-65089164D01*
X144696428Y-65089164D02*
X144625000Y-65089164D01*
X144625000Y-65089164D02*
X144517857Y-65124878D01*
X144517857Y-65124878D02*
X144482143Y-65160592D01*
X143767857Y-65839164D02*
X144196428Y-65839164D01*
X143982143Y-65839164D02*
X143982143Y-65089164D01*
X143982143Y-65089164D02*
X144053571Y-65196307D01*
X144053571Y-65196307D02*
X144125000Y-65267735D01*
X144125000Y-65267735D02*
X144196428Y-65303450D01*
X143339285Y-65410592D02*
X143410714Y-65374878D01*
X143410714Y-65374878D02*
X143446428Y-65339164D01*
X143446428Y-65339164D02*
X143482142Y-65267735D01*
X143482142Y-65267735D02*
X143482142Y-65232021D01*
X143482142Y-65232021D02*
X143446428Y-65160592D01*
X143446428Y-65160592D02*
X143410714Y-65124878D01*
X143410714Y-65124878D02*
X143339285Y-65089164D01*
X143339285Y-65089164D02*
X143196428Y-65089164D01*
X143196428Y-65089164D02*
X143125000Y-65124878D01*
X143125000Y-65124878D02*
X143089285Y-65160592D01*
X143089285Y-65160592D02*
X143053571Y-65232021D01*
X143053571Y-65232021D02*
X143053571Y-65267735D01*
X143053571Y-65267735D02*
X143089285Y-65339164D01*
X143089285Y-65339164D02*
X143125000Y-65374878D01*
X143125000Y-65374878D02*
X143196428Y-65410592D01*
X143196428Y-65410592D02*
X143339285Y-65410592D01*
X143339285Y-65410592D02*
X143410714Y-65446307D01*
X143410714Y-65446307D02*
X143446428Y-65482021D01*
X143446428Y-65482021D02*
X143482142Y-65553450D01*
X143482142Y-65553450D02*
X143482142Y-65696307D01*
X143482142Y-65696307D02*
X143446428Y-65767735D01*
X143446428Y-65767735D02*
X143410714Y-65803450D01*
X143410714Y-65803450D02*
X143339285Y-65839164D01*
X143339285Y-65839164D02*
X143196428Y-65839164D01*
X143196428Y-65839164D02*
X143125000Y-65803450D01*
X143125000Y-65803450D02*
X143089285Y-65767735D01*
X143089285Y-65767735D02*
X143053571Y-65696307D01*
X143053571Y-65696307D02*
X143053571Y-65553450D01*
X143053571Y-65553450D02*
X143089285Y-65482021D01*
X143089285Y-65482021D02*
X143125000Y-65446307D01*
X143125000Y-65446307D02*
X143196428Y-65410592D01*
X162232143Y-47339164D02*
X162482143Y-46982021D01*
X162660714Y-47339164D02*
X162660714Y-46589164D01*
X162660714Y-46589164D02*
X162375000Y-46589164D01*
X162375000Y-46589164D02*
X162303571Y-46624878D01*
X162303571Y-46624878D02*
X162267857Y-46660592D01*
X162267857Y-46660592D02*
X162232143Y-46732021D01*
X162232143Y-46732021D02*
X162232143Y-46839164D01*
X162232143Y-46839164D02*
X162267857Y-46910592D01*
X162267857Y-46910592D02*
X162303571Y-46946307D01*
X162303571Y-46946307D02*
X162375000Y-46982021D01*
X162375000Y-46982021D02*
X162660714Y-46982021D01*
X161946428Y-46660592D02*
X161910714Y-46624878D01*
X161910714Y-46624878D02*
X161839286Y-46589164D01*
X161839286Y-46589164D02*
X161660714Y-46589164D01*
X161660714Y-46589164D02*
X161589286Y-46624878D01*
X161589286Y-46624878D02*
X161553571Y-46660592D01*
X161553571Y-46660592D02*
X161517857Y-46732021D01*
X161517857Y-46732021D02*
X161517857Y-46803450D01*
X161517857Y-46803450D02*
X161553571Y-46910592D01*
X161553571Y-46910592D02*
X161982143Y-47339164D01*
X161982143Y-47339164D02*
X161517857Y-47339164D01*
X161267857Y-46589164D02*
X160767857Y-46589164D01*
X160767857Y-46589164D02*
X161089285Y-47339164D01*
X131982143Y-72517735D02*
X132017857Y-72553450D01*
X132017857Y-72553450D02*
X132125000Y-72589164D01*
X132125000Y-72589164D02*
X132196428Y-72589164D01*
X132196428Y-72589164D02*
X132303571Y-72553450D01*
X132303571Y-72553450D02*
X132375000Y-72482021D01*
X132375000Y-72482021D02*
X132410714Y-72410592D01*
X132410714Y-72410592D02*
X132446428Y-72267735D01*
X132446428Y-72267735D02*
X132446428Y-72160592D01*
X132446428Y-72160592D02*
X132410714Y-72017735D01*
X132410714Y-72017735D02*
X132375000Y-71946307D01*
X132375000Y-71946307D02*
X132303571Y-71874878D01*
X132303571Y-71874878D02*
X132196428Y-71839164D01*
X132196428Y-71839164D02*
X132125000Y-71839164D01*
X132125000Y-71839164D02*
X132017857Y-71874878D01*
X132017857Y-71874878D02*
X131982143Y-71910592D01*
X131339286Y-72089164D02*
X131339286Y-72589164D01*
X131517857Y-71803450D02*
X131696428Y-72339164D01*
X131696428Y-72339164D02*
X131232143Y-72339164D01*
X130982142Y-71910592D02*
X130946428Y-71874878D01*
X130946428Y-71874878D02*
X130875000Y-71839164D01*
X130875000Y-71839164D02*
X130696428Y-71839164D01*
X130696428Y-71839164D02*
X130625000Y-71874878D01*
X130625000Y-71874878D02*
X130589285Y-71910592D01*
X130589285Y-71910592D02*
X130553571Y-71982021D01*
X130553571Y-71982021D02*
X130553571Y-72053450D01*
X130553571Y-72053450D02*
X130589285Y-72160592D01*
X130589285Y-72160592D02*
X131017857Y-72589164D01*
X131017857Y-72589164D02*
X130553571Y-72589164D01*
X139482143Y-58767735D02*
X139517857Y-58803450D01*
X139517857Y-58803450D02*
X139625000Y-58839164D01*
X139625000Y-58839164D02*
X139696428Y-58839164D01*
X139696428Y-58839164D02*
X139803571Y-58803450D01*
X139803571Y-58803450D02*
X139875000Y-58732021D01*
X139875000Y-58732021D02*
X139910714Y-58660592D01*
X139910714Y-58660592D02*
X139946428Y-58517735D01*
X139946428Y-58517735D02*
X139946428Y-58410592D01*
X139946428Y-58410592D02*
X139910714Y-58267735D01*
X139910714Y-58267735D02*
X139875000Y-58196307D01*
X139875000Y-58196307D02*
X139803571Y-58124878D01*
X139803571Y-58124878D02*
X139696428Y-58089164D01*
X139696428Y-58089164D02*
X139625000Y-58089164D01*
X139625000Y-58089164D02*
X139517857Y-58124878D01*
X139517857Y-58124878D02*
X139482143Y-58160592D01*
X139196428Y-58160592D02*
X139160714Y-58124878D01*
X139160714Y-58124878D02*
X139089286Y-58089164D01*
X139089286Y-58089164D02*
X138910714Y-58089164D01*
X138910714Y-58089164D02*
X138839286Y-58124878D01*
X138839286Y-58124878D02*
X138803571Y-58160592D01*
X138803571Y-58160592D02*
X138767857Y-58232021D01*
X138767857Y-58232021D02*
X138767857Y-58303450D01*
X138767857Y-58303450D02*
X138803571Y-58410592D01*
X138803571Y-58410592D02*
X139232143Y-58839164D01*
X139232143Y-58839164D02*
X138767857Y-58839164D01*
X138053571Y-58839164D02*
X138482142Y-58839164D01*
X138267857Y-58839164D02*
X138267857Y-58089164D01*
X138267857Y-58089164D02*
X138339285Y-58196307D01*
X138339285Y-58196307D02*
X138410714Y-58267735D01*
X138410714Y-58267735D02*
X138482142Y-58303450D01*
X140482143Y-61517735D02*
X140517857Y-61553450D01*
X140517857Y-61553450D02*
X140625000Y-61589164D01*
X140625000Y-61589164D02*
X140696428Y-61589164D01*
X140696428Y-61589164D02*
X140803571Y-61553450D01*
X140803571Y-61553450D02*
X140875000Y-61482021D01*
X140875000Y-61482021D02*
X140910714Y-61410592D01*
X140910714Y-61410592D02*
X140946428Y-61267735D01*
X140946428Y-61267735D02*
X140946428Y-61160592D01*
X140946428Y-61160592D02*
X140910714Y-61017735D01*
X140910714Y-61017735D02*
X140875000Y-60946307D01*
X140875000Y-60946307D02*
X140803571Y-60874878D01*
X140803571Y-60874878D02*
X140696428Y-60839164D01*
X140696428Y-60839164D02*
X140625000Y-60839164D01*
X140625000Y-60839164D02*
X140517857Y-60874878D01*
X140517857Y-60874878D02*
X140482143Y-60910592D01*
X140196428Y-60910592D02*
X140160714Y-60874878D01*
X140160714Y-60874878D02*
X140089286Y-60839164D01*
X140089286Y-60839164D02*
X139910714Y-60839164D01*
X139910714Y-60839164D02*
X139839286Y-60874878D01*
X139839286Y-60874878D02*
X139803571Y-60910592D01*
X139803571Y-60910592D02*
X139767857Y-60982021D01*
X139767857Y-60982021D02*
X139767857Y-61053450D01*
X139767857Y-61053450D02*
X139803571Y-61160592D01*
X139803571Y-61160592D02*
X140232143Y-61589164D01*
X140232143Y-61589164D02*
X139767857Y-61589164D01*
X139517857Y-60839164D02*
X139017857Y-60839164D01*
X139017857Y-60839164D02*
X139339285Y-61589164D01*
X142517735Y-51124999D02*
X142553450Y-51089285D01*
X142553450Y-51089285D02*
X142589164Y-50982142D01*
X142589164Y-50982142D02*
X142589164Y-50910714D01*
X142589164Y-50910714D02*
X142553450Y-50803571D01*
X142553450Y-50803571D02*
X142482021Y-50732142D01*
X142482021Y-50732142D02*
X142410592Y-50696428D01*
X142410592Y-50696428D02*
X142267735Y-50660714D01*
X142267735Y-50660714D02*
X142160592Y-50660714D01*
X142160592Y-50660714D02*
X142017735Y-50696428D01*
X142017735Y-50696428D02*
X141946307Y-50732142D01*
X141946307Y-50732142D02*
X141874878Y-50803571D01*
X141874878Y-50803571D02*
X141839164Y-50910714D01*
X141839164Y-50910714D02*
X141839164Y-50982142D01*
X141839164Y-50982142D02*
X141874878Y-51089285D01*
X141874878Y-51089285D02*
X141910592Y-51124999D01*
X142589164Y-51839285D02*
X142589164Y-51410714D01*
X142589164Y-51624999D02*
X141839164Y-51624999D01*
X141839164Y-51624999D02*
X141946307Y-51553571D01*
X141946307Y-51553571D02*
X142017735Y-51482142D01*
X142017735Y-51482142D02*
X142053450Y-51410714D01*
X143232143Y-89919164D02*
X143482143Y-89562021D01*
X143660714Y-89919164D02*
X143660714Y-89169164D01*
X143660714Y-89169164D02*
X143375000Y-89169164D01*
X143375000Y-89169164D02*
X143303571Y-89204878D01*
X143303571Y-89204878D02*
X143267857Y-89240592D01*
X143267857Y-89240592D02*
X143232143Y-89312021D01*
X143232143Y-89312021D02*
X143232143Y-89419164D01*
X143232143Y-89419164D02*
X143267857Y-89490592D01*
X143267857Y-89490592D02*
X143303571Y-89526307D01*
X143303571Y-89526307D02*
X143375000Y-89562021D01*
X143375000Y-89562021D02*
X143660714Y-89562021D01*
X142946428Y-89240592D02*
X142910714Y-89204878D01*
X142910714Y-89204878D02*
X142839286Y-89169164D01*
X142839286Y-89169164D02*
X142660714Y-89169164D01*
X142660714Y-89169164D02*
X142589286Y-89204878D01*
X142589286Y-89204878D02*
X142553571Y-89240592D01*
X142553571Y-89240592D02*
X142517857Y-89312021D01*
X142517857Y-89312021D02*
X142517857Y-89383450D01*
X142517857Y-89383450D02*
X142553571Y-89490592D01*
X142553571Y-89490592D02*
X142982143Y-89919164D01*
X142982143Y-89919164D02*
X142517857Y-89919164D01*
X142053571Y-89169164D02*
X141982142Y-89169164D01*
X141982142Y-89169164D02*
X141910714Y-89204878D01*
X141910714Y-89204878D02*
X141875000Y-89240592D01*
X141875000Y-89240592D02*
X141839285Y-89312021D01*
X141839285Y-89312021D02*
X141803571Y-89454878D01*
X141803571Y-89454878D02*
X141803571Y-89633450D01*
X141803571Y-89633450D02*
X141839285Y-89776307D01*
X141839285Y-89776307D02*
X141875000Y-89847735D01*
X141875000Y-89847735D02*
X141910714Y-89883450D01*
X141910714Y-89883450D02*
X141982142Y-89919164D01*
X141982142Y-89919164D02*
X142053571Y-89919164D01*
X142053571Y-89919164D02*
X142125000Y-89883450D01*
X142125000Y-89883450D02*
X142160714Y-89847735D01*
X142160714Y-89847735D02*
X142196428Y-89776307D01*
X142196428Y-89776307D02*
X142232142Y-89633450D01*
X142232142Y-89633450D02*
X142232142Y-89454878D01*
X142232142Y-89454878D02*
X142196428Y-89312021D01*
X142196428Y-89312021D02*
X142160714Y-89240592D01*
X142160714Y-89240592D02*
X142125000Y-89204878D01*
X142125000Y-89204878D02*
X142053571Y-89169164D01*
X137982143Y-70177735D02*
X138017857Y-70213450D01*
X138017857Y-70213450D02*
X138125000Y-70249164D01*
X138125000Y-70249164D02*
X138196428Y-70249164D01*
X138196428Y-70249164D02*
X138303571Y-70213450D01*
X138303571Y-70213450D02*
X138375000Y-70142021D01*
X138375000Y-70142021D02*
X138410714Y-70070592D01*
X138410714Y-70070592D02*
X138446428Y-69927735D01*
X138446428Y-69927735D02*
X138446428Y-69820592D01*
X138446428Y-69820592D02*
X138410714Y-69677735D01*
X138410714Y-69677735D02*
X138375000Y-69606307D01*
X138375000Y-69606307D02*
X138303571Y-69534878D01*
X138303571Y-69534878D02*
X138196428Y-69499164D01*
X138196428Y-69499164D02*
X138125000Y-69499164D01*
X138125000Y-69499164D02*
X138017857Y-69534878D01*
X138017857Y-69534878D02*
X137982143Y-69570592D01*
X137339286Y-69499164D02*
X137482143Y-69499164D01*
X137482143Y-69499164D02*
X137553571Y-69534878D01*
X137553571Y-69534878D02*
X137589286Y-69570592D01*
X137589286Y-69570592D02*
X137660714Y-69677735D01*
X137660714Y-69677735D02*
X137696428Y-69820592D01*
X137696428Y-69820592D02*
X137696428Y-70106307D01*
X137696428Y-70106307D02*
X137660714Y-70177735D01*
X137660714Y-70177735D02*
X137625000Y-70213450D01*
X137625000Y-70213450D02*
X137553571Y-70249164D01*
X137553571Y-70249164D02*
X137410714Y-70249164D01*
X137410714Y-70249164D02*
X137339286Y-70213450D01*
X137339286Y-70213450D02*
X137303571Y-70177735D01*
X137303571Y-70177735D02*
X137267857Y-70106307D01*
X137267857Y-70106307D02*
X137267857Y-69927735D01*
X137267857Y-69927735D02*
X137303571Y-69856307D01*
X137303571Y-69856307D02*
X137339286Y-69820592D01*
X137339286Y-69820592D02*
X137410714Y-69784878D01*
X137410714Y-69784878D02*
X137553571Y-69784878D01*
X137553571Y-69784878D02*
X137625000Y-69820592D01*
X137625000Y-69820592D02*
X137660714Y-69856307D01*
X137660714Y-69856307D02*
X137696428Y-69927735D01*
X136589285Y-69499164D02*
X136946428Y-69499164D01*
X136946428Y-69499164D02*
X136982142Y-69856307D01*
X136982142Y-69856307D02*
X136946428Y-69820592D01*
X136946428Y-69820592D02*
X136875000Y-69784878D01*
X136875000Y-69784878D02*
X136696428Y-69784878D01*
X136696428Y-69784878D02*
X136625000Y-69820592D01*
X136625000Y-69820592D02*
X136589285Y-69856307D01*
X136589285Y-69856307D02*
X136553571Y-69927735D01*
X136553571Y-69927735D02*
X136553571Y-70106307D01*
X136553571Y-70106307D02*
X136589285Y-70177735D01*
X136589285Y-70177735D02*
X136625000Y-70213450D01*
X136625000Y-70213450D02*
X136696428Y-70249164D01*
X136696428Y-70249164D02*
X136875000Y-70249164D01*
X136875000Y-70249164D02*
X136946428Y-70213450D01*
X136946428Y-70213450D02*
X136982142Y-70177735D01*
X133982143Y-71517735D02*
X134017857Y-71553450D01*
X134017857Y-71553450D02*
X134125000Y-71589164D01*
X134125000Y-71589164D02*
X134196428Y-71589164D01*
X134196428Y-71589164D02*
X134303571Y-71553450D01*
X134303571Y-71553450D02*
X134375000Y-71482021D01*
X134375000Y-71482021D02*
X134410714Y-71410592D01*
X134410714Y-71410592D02*
X134446428Y-71267735D01*
X134446428Y-71267735D02*
X134446428Y-71160592D01*
X134446428Y-71160592D02*
X134410714Y-71017735D01*
X134410714Y-71017735D02*
X134375000Y-70946307D01*
X134375000Y-70946307D02*
X134303571Y-70874878D01*
X134303571Y-70874878D02*
X134196428Y-70839164D01*
X134196428Y-70839164D02*
X134125000Y-70839164D01*
X134125000Y-70839164D02*
X134017857Y-70874878D01*
X134017857Y-70874878D02*
X133982143Y-70910592D01*
X133732143Y-70839164D02*
X133267857Y-70839164D01*
X133267857Y-70839164D02*
X133517857Y-71124878D01*
X133517857Y-71124878D02*
X133410714Y-71124878D01*
X133410714Y-71124878D02*
X133339286Y-71160592D01*
X133339286Y-71160592D02*
X133303571Y-71196307D01*
X133303571Y-71196307D02*
X133267857Y-71267735D01*
X133267857Y-71267735D02*
X133267857Y-71446307D01*
X133267857Y-71446307D02*
X133303571Y-71517735D01*
X133303571Y-71517735D02*
X133339286Y-71553450D01*
X133339286Y-71553450D02*
X133410714Y-71589164D01*
X133410714Y-71589164D02*
X133625000Y-71589164D01*
X133625000Y-71589164D02*
X133696428Y-71553450D01*
X133696428Y-71553450D02*
X133732143Y-71517735D01*
X132839285Y-71160592D02*
X132910714Y-71124878D01*
X132910714Y-71124878D02*
X132946428Y-71089164D01*
X132946428Y-71089164D02*
X132982142Y-71017735D01*
X132982142Y-71017735D02*
X132982142Y-70982021D01*
X132982142Y-70982021D02*
X132946428Y-70910592D01*
X132946428Y-70910592D02*
X132910714Y-70874878D01*
X132910714Y-70874878D02*
X132839285Y-70839164D01*
X132839285Y-70839164D02*
X132696428Y-70839164D01*
X132696428Y-70839164D02*
X132625000Y-70874878D01*
X132625000Y-70874878D02*
X132589285Y-70910592D01*
X132589285Y-70910592D02*
X132553571Y-70982021D01*
X132553571Y-70982021D02*
X132553571Y-71017735D01*
X132553571Y-71017735D02*
X132589285Y-71089164D01*
X132589285Y-71089164D02*
X132625000Y-71124878D01*
X132625000Y-71124878D02*
X132696428Y-71160592D01*
X132696428Y-71160592D02*
X132839285Y-71160592D01*
X132839285Y-71160592D02*
X132910714Y-71196307D01*
X132910714Y-71196307D02*
X132946428Y-71232021D01*
X132946428Y-71232021D02*
X132982142Y-71303450D01*
X132982142Y-71303450D02*
X132982142Y-71446307D01*
X132982142Y-71446307D02*
X132946428Y-71517735D01*
X132946428Y-71517735D02*
X132910714Y-71553450D01*
X132910714Y-71553450D02*
X132839285Y-71589164D01*
X132839285Y-71589164D02*
X132696428Y-71589164D01*
X132696428Y-71589164D02*
X132625000Y-71553450D01*
X132625000Y-71553450D02*
X132589285Y-71517735D01*
X132589285Y-71517735D02*
X132553571Y-71446307D01*
X132553571Y-71446307D02*
X132553571Y-71303450D01*
X132553571Y-71303450D02*
X132589285Y-71232021D01*
X132589285Y-71232021D02*
X132625000Y-71196307D01*
X132625000Y-71196307D02*
X132696428Y-71160592D01*
X131982143Y-70517735D02*
X132017857Y-70553450D01*
X132017857Y-70553450D02*
X132125000Y-70589164D01*
X132125000Y-70589164D02*
X132196428Y-70589164D01*
X132196428Y-70589164D02*
X132303571Y-70553450D01*
X132303571Y-70553450D02*
X132375000Y-70482021D01*
X132375000Y-70482021D02*
X132410714Y-70410592D01*
X132410714Y-70410592D02*
X132446428Y-70267735D01*
X132446428Y-70267735D02*
X132446428Y-70160592D01*
X132446428Y-70160592D02*
X132410714Y-70017735D01*
X132410714Y-70017735D02*
X132375000Y-69946307D01*
X132375000Y-69946307D02*
X132303571Y-69874878D01*
X132303571Y-69874878D02*
X132196428Y-69839164D01*
X132196428Y-69839164D02*
X132125000Y-69839164D01*
X132125000Y-69839164D02*
X132017857Y-69874878D01*
X132017857Y-69874878D02*
X131982143Y-69910592D01*
X131732143Y-69839164D02*
X131267857Y-69839164D01*
X131267857Y-69839164D02*
X131517857Y-70124878D01*
X131517857Y-70124878D02*
X131410714Y-70124878D01*
X131410714Y-70124878D02*
X131339286Y-70160592D01*
X131339286Y-70160592D02*
X131303571Y-70196307D01*
X131303571Y-70196307D02*
X131267857Y-70267735D01*
X131267857Y-70267735D02*
X131267857Y-70446307D01*
X131267857Y-70446307D02*
X131303571Y-70517735D01*
X131303571Y-70517735D02*
X131339286Y-70553450D01*
X131339286Y-70553450D02*
X131410714Y-70589164D01*
X131410714Y-70589164D02*
X131625000Y-70589164D01*
X131625000Y-70589164D02*
X131696428Y-70553450D01*
X131696428Y-70553450D02*
X131732143Y-70517735D01*
X130910714Y-70589164D02*
X130767857Y-70589164D01*
X130767857Y-70589164D02*
X130696428Y-70553450D01*
X130696428Y-70553450D02*
X130660714Y-70517735D01*
X130660714Y-70517735D02*
X130589285Y-70410592D01*
X130589285Y-70410592D02*
X130553571Y-70267735D01*
X130553571Y-70267735D02*
X130553571Y-69982021D01*
X130553571Y-69982021D02*
X130589285Y-69910592D01*
X130589285Y-69910592D02*
X130625000Y-69874878D01*
X130625000Y-69874878D02*
X130696428Y-69839164D01*
X130696428Y-69839164D02*
X130839285Y-69839164D01*
X130839285Y-69839164D02*
X130910714Y-69874878D01*
X130910714Y-69874878D02*
X130946428Y-69910592D01*
X130946428Y-69910592D02*
X130982142Y-69982021D01*
X130982142Y-69982021D02*
X130982142Y-70160592D01*
X130982142Y-70160592D02*
X130946428Y-70232021D01*
X130946428Y-70232021D02*
X130910714Y-70267735D01*
X130910714Y-70267735D02*
X130839285Y-70303450D01*
X130839285Y-70303450D02*
X130696428Y-70303450D01*
X130696428Y-70303450D02*
X130625000Y-70267735D01*
X130625000Y-70267735D02*
X130589285Y-70232021D01*
X130589285Y-70232021D02*
X130553571Y-70160592D01*
X144482143Y-60767735D02*
X144517857Y-60803450D01*
X144517857Y-60803450D02*
X144625000Y-60839164D01*
X144625000Y-60839164D02*
X144696428Y-60839164D01*
X144696428Y-60839164D02*
X144803571Y-60803450D01*
X144803571Y-60803450D02*
X144875000Y-60732021D01*
X144875000Y-60732021D02*
X144910714Y-60660592D01*
X144910714Y-60660592D02*
X144946428Y-60517735D01*
X144946428Y-60517735D02*
X144946428Y-60410592D01*
X144946428Y-60410592D02*
X144910714Y-60267735D01*
X144910714Y-60267735D02*
X144875000Y-60196307D01*
X144875000Y-60196307D02*
X144803571Y-60124878D01*
X144803571Y-60124878D02*
X144696428Y-60089164D01*
X144696428Y-60089164D02*
X144625000Y-60089164D01*
X144625000Y-60089164D02*
X144517857Y-60124878D01*
X144517857Y-60124878D02*
X144482143Y-60160592D01*
X144196428Y-60160592D02*
X144160714Y-60124878D01*
X144160714Y-60124878D02*
X144089286Y-60089164D01*
X144089286Y-60089164D02*
X143910714Y-60089164D01*
X143910714Y-60089164D02*
X143839286Y-60124878D01*
X143839286Y-60124878D02*
X143803571Y-60160592D01*
X143803571Y-60160592D02*
X143767857Y-60232021D01*
X143767857Y-60232021D02*
X143767857Y-60303450D01*
X143767857Y-60303450D02*
X143803571Y-60410592D01*
X143803571Y-60410592D02*
X144232143Y-60839164D01*
X144232143Y-60839164D02*
X143767857Y-60839164D01*
X143125000Y-60089164D02*
X143267857Y-60089164D01*
X143267857Y-60089164D02*
X143339285Y-60124878D01*
X143339285Y-60124878D02*
X143375000Y-60160592D01*
X143375000Y-60160592D02*
X143446428Y-60267735D01*
X143446428Y-60267735D02*
X143482142Y-60410592D01*
X143482142Y-60410592D02*
X143482142Y-60696307D01*
X143482142Y-60696307D02*
X143446428Y-60767735D01*
X143446428Y-60767735D02*
X143410714Y-60803450D01*
X143410714Y-60803450D02*
X143339285Y-60839164D01*
X143339285Y-60839164D02*
X143196428Y-60839164D01*
X143196428Y-60839164D02*
X143125000Y-60803450D01*
X143125000Y-60803450D02*
X143089285Y-60767735D01*
X143089285Y-60767735D02*
X143053571Y-60696307D01*
X143053571Y-60696307D02*
X143053571Y-60517735D01*
X143053571Y-60517735D02*
X143089285Y-60446307D01*
X143089285Y-60446307D02*
X143125000Y-60410592D01*
X143125000Y-60410592D02*
X143196428Y-60374878D01*
X143196428Y-60374878D02*
X143339285Y-60374878D01*
X143339285Y-60374878D02*
X143410714Y-60410592D01*
X143410714Y-60410592D02*
X143446428Y-60446307D01*
X143446428Y-60446307D02*
X143482142Y-60517735D01*
X145482143Y-58607735D02*
X145517857Y-58643450D01*
X145517857Y-58643450D02*
X145625000Y-58679164D01*
X145625000Y-58679164D02*
X145696428Y-58679164D01*
X145696428Y-58679164D02*
X145803571Y-58643450D01*
X145803571Y-58643450D02*
X145875000Y-58572021D01*
X145875000Y-58572021D02*
X145910714Y-58500592D01*
X145910714Y-58500592D02*
X145946428Y-58357735D01*
X145946428Y-58357735D02*
X145946428Y-58250592D01*
X145946428Y-58250592D02*
X145910714Y-58107735D01*
X145910714Y-58107735D02*
X145875000Y-58036307D01*
X145875000Y-58036307D02*
X145803571Y-57964878D01*
X145803571Y-57964878D02*
X145696428Y-57929164D01*
X145696428Y-57929164D02*
X145625000Y-57929164D01*
X145625000Y-57929164D02*
X145517857Y-57964878D01*
X145517857Y-57964878D02*
X145482143Y-58000592D01*
X144767857Y-58679164D02*
X145196428Y-58679164D01*
X144982143Y-58679164D02*
X144982143Y-57929164D01*
X144982143Y-57929164D02*
X145053571Y-58036307D01*
X145053571Y-58036307D02*
X145125000Y-58107735D01*
X145125000Y-58107735D02*
X145196428Y-58143450D01*
X144125000Y-57929164D02*
X144267857Y-57929164D01*
X144267857Y-57929164D02*
X144339285Y-57964878D01*
X144339285Y-57964878D02*
X144375000Y-58000592D01*
X144375000Y-58000592D02*
X144446428Y-58107735D01*
X144446428Y-58107735D02*
X144482142Y-58250592D01*
X144482142Y-58250592D02*
X144482142Y-58536307D01*
X144482142Y-58536307D02*
X144446428Y-58607735D01*
X144446428Y-58607735D02*
X144410714Y-58643450D01*
X144410714Y-58643450D02*
X144339285Y-58679164D01*
X144339285Y-58679164D02*
X144196428Y-58679164D01*
X144196428Y-58679164D02*
X144125000Y-58643450D01*
X144125000Y-58643450D02*
X144089285Y-58607735D01*
X144089285Y-58607735D02*
X144053571Y-58536307D01*
X144053571Y-58536307D02*
X144053571Y-58357735D01*
X144053571Y-58357735D02*
X144089285Y-58286307D01*
X144089285Y-58286307D02*
X144125000Y-58250592D01*
X144125000Y-58250592D02*
X144196428Y-58214878D01*
X144196428Y-58214878D02*
X144339285Y-58214878D01*
X144339285Y-58214878D02*
X144410714Y-58250592D01*
X144410714Y-58250592D02*
X144446428Y-58286307D01*
X144446428Y-58286307D02*
X144482142Y-58357735D01*
X138482143Y-93517735D02*
X138517857Y-93553450D01*
X138517857Y-93553450D02*
X138625000Y-93589164D01*
X138625000Y-93589164D02*
X138696428Y-93589164D01*
X138696428Y-93589164D02*
X138803571Y-93553450D01*
X138803571Y-93553450D02*
X138875000Y-93482021D01*
X138875000Y-93482021D02*
X138910714Y-93410592D01*
X138910714Y-93410592D02*
X138946428Y-93267735D01*
X138946428Y-93267735D02*
X138946428Y-93160592D01*
X138946428Y-93160592D02*
X138910714Y-93017735D01*
X138910714Y-93017735D02*
X138875000Y-92946307D01*
X138875000Y-92946307D02*
X138803571Y-92874878D01*
X138803571Y-92874878D02*
X138696428Y-92839164D01*
X138696428Y-92839164D02*
X138625000Y-92839164D01*
X138625000Y-92839164D02*
X138517857Y-92874878D01*
X138517857Y-92874878D02*
X138482143Y-92910592D01*
X138232143Y-92839164D02*
X137732143Y-92839164D01*
X137732143Y-92839164D02*
X138053571Y-93589164D01*
X137053571Y-93589164D02*
X137482142Y-93589164D01*
X137267857Y-93589164D02*
X137267857Y-92839164D01*
X137267857Y-92839164D02*
X137339285Y-92946307D01*
X137339285Y-92946307D02*
X137410714Y-93017735D01*
X137410714Y-93017735D02*
X137482142Y-93053450D01*
X140732143Y-93517735D02*
X140767857Y-93553450D01*
X140767857Y-93553450D02*
X140875000Y-93589164D01*
X140875000Y-93589164D02*
X140946428Y-93589164D01*
X140946428Y-93589164D02*
X141053571Y-93553450D01*
X141053571Y-93553450D02*
X141125000Y-93482021D01*
X141125000Y-93482021D02*
X141160714Y-93410592D01*
X141160714Y-93410592D02*
X141196428Y-93267735D01*
X141196428Y-93267735D02*
X141196428Y-93160592D01*
X141196428Y-93160592D02*
X141160714Y-93017735D01*
X141160714Y-93017735D02*
X141125000Y-92946307D01*
X141125000Y-92946307D02*
X141053571Y-92874878D01*
X141053571Y-92874878D02*
X140946428Y-92839164D01*
X140946428Y-92839164D02*
X140875000Y-92839164D01*
X140875000Y-92839164D02*
X140767857Y-92874878D01*
X140767857Y-92874878D02*
X140732143Y-92910592D01*
X140482143Y-92839164D02*
X139982143Y-92839164D01*
X139982143Y-92839164D02*
X140303571Y-93589164D01*
X139767857Y-92839164D02*
X139303571Y-92839164D01*
X139303571Y-92839164D02*
X139553571Y-93124878D01*
X139553571Y-93124878D02*
X139446428Y-93124878D01*
X139446428Y-93124878D02*
X139375000Y-93160592D01*
X139375000Y-93160592D02*
X139339285Y-93196307D01*
X139339285Y-93196307D02*
X139303571Y-93267735D01*
X139303571Y-93267735D02*
X139303571Y-93446307D01*
X139303571Y-93446307D02*
X139339285Y-93517735D01*
X139339285Y-93517735D02*
X139375000Y-93553450D01*
X139375000Y-93553450D02*
X139446428Y-93589164D01*
X139446428Y-93589164D02*
X139660714Y-93589164D01*
X139660714Y-93589164D02*
X139732142Y-93553450D01*
X139732142Y-93553450D02*
X139767857Y-93517735D01*
X129982143Y-71517735D02*
X130017857Y-71553450D01*
X130017857Y-71553450D02*
X130125000Y-71589164D01*
X130125000Y-71589164D02*
X130196428Y-71589164D01*
X130196428Y-71589164D02*
X130303571Y-71553450D01*
X130303571Y-71553450D02*
X130375000Y-71482021D01*
X130375000Y-71482021D02*
X130410714Y-71410592D01*
X130410714Y-71410592D02*
X130446428Y-71267735D01*
X130446428Y-71267735D02*
X130446428Y-71160592D01*
X130446428Y-71160592D02*
X130410714Y-71017735D01*
X130410714Y-71017735D02*
X130375000Y-70946307D01*
X130375000Y-70946307D02*
X130303571Y-70874878D01*
X130303571Y-70874878D02*
X130196428Y-70839164D01*
X130196428Y-70839164D02*
X130125000Y-70839164D01*
X130125000Y-70839164D02*
X130017857Y-70874878D01*
X130017857Y-70874878D02*
X129982143Y-70910592D01*
X129339286Y-71089164D02*
X129339286Y-71589164D01*
X129517857Y-70803450D02*
X129696428Y-71339164D01*
X129696428Y-71339164D02*
X129232143Y-71339164D01*
X128803571Y-70839164D02*
X128732142Y-70839164D01*
X128732142Y-70839164D02*
X128660714Y-70874878D01*
X128660714Y-70874878D02*
X128625000Y-70910592D01*
X128625000Y-70910592D02*
X128589285Y-70982021D01*
X128589285Y-70982021D02*
X128553571Y-71124878D01*
X128553571Y-71124878D02*
X128553571Y-71303450D01*
X128553571Y-71303450D02*
X128589285Y-71446307D01*
X128589285Y-71446307D02*
X128625000Y-71517735D01*
X128625000Y-71517735D02*
X128660714Y-71553450D01*
X128660714Y-71553450D02*
X128732142Y-71589164D01*
X128732142Y-71589164D02*
X128803571Y-71589164D01*
X128803571Y-71589164D02*
X128875000Y-71553450D01*
X128875000Y-71553450D02*
X128910714Y-71517735D01*
X128910714Y-71517735D02*
X128946428Y-71446307D01*
X128946428Y-71446307D02*
X128982142Y-71303450D01*
X128982142Y-71303450D02*
X128982142Y-71124878D01*
X128982142Y-71124878D02*
X128946428Y-70982021D01*
X128946428Y-70982021D02*
X128910714Y-70910592D01*
X128910714Y-70910592D02*
X128875000Y-70874878D01*
X128875000Y-70874878D02*
X128803571Y-70839164D01*
X140857735Y-73017856D02*
X140893450Y-72982142D01*
X140893450Y-72982142D02*
X140929164Y-72874999D01*
X140929164Y-72874999D02*
X140929164Y-72803571D01*
X140929164Y-72803571D02*
X140893450Y-72696428D01*
X140893450Y-72696428D02*
X140822021Y-72624999D01*
X140822021Y-72624999D02*
X140750592Y-72589285D01*
X140750592Y-72589285D02*
X140607735Y-72553571D01*
X140607735Y-72553571D02*
X140500592Y-72553571D01*
X140500592Y-72553571D02*
X140357735Y-72589285D01*
X140357735Y-72589285D02*
X140286307Y-72624999D01*
X140286307Y-72624999D02*
X140214878Y-72696428D01*
X140214878Y-72696428D02*
X140179164Y-72803571D01*
X140179164Y-72803571D02*
X140179164Y-72874999D01*
X140179164Y-72874999D02*
X140214878Y-72982142D01*
X140214878Y-72982142D02*
X140250592Y-73017856D01*
X140179164Y-73696428D02*
X140179164Y-73339285D01*
X140179164Y-73339285D02*
X140536307Y-73303571D01*
X140536307Y-73303571D02*
X140500592Y-73339285D01*
X140500592Y-73339285D02*
X140464878Y-73410714D01*
X140464878Y-73410714D02*
X140464878Y-73589285D01*
X140464878Y-73589285D02*
X140500592Y-73660714D01*
X140500592Y-73660714D02*
X140536307Y-73696428D01*
X140536307Y-73696428D02*
X140607735Y-73732142D01*
X140607735Y-73732142D02*
X140786307Y-73732142D01*
X140786307Y-73732142D02*
X140857735Y-73696428D01*
X140857735Y-73696428D02*
X140893450Y-73660714D01*
X140893450Y-73660714D02*
X140929164Y-73589285D01*
X140929164Y-73589285D02*
X140929164Y-73410714D01*
X140929164Y-73410714D02*
X140893450Y-73339285D01*
X140893450Y-73339285D02*
X140857735Y-73303571D01*
X140179164Y-74375000D02*
X140179164Y-74232142D01*
X140179164Y-74232142D02*
X140214878Y-74160714D01*
X140214878Y-74160714D02*
X140250592Y-74125000D01*
X140250592Y-74125000D02*
X140357735Y-74053571D01*
X140357735Y-74053571D02*
X140500592Y-74017857D01*
X140500592Y-74017857D02*
X140786307Y-74017857D01*
X140786307Y-74017857D02*
X140857735Y-74053571D01*
X140857735Y-74053571D02*
X140893450Y-74089285D01*
X140893450Y-74089285D02*
X140929164Y-74160714D01*
X140929164Y-74160714D02*
X140929164Y-74303571D01*
X140929164Y-74303571D02*
X140893450Y-74375000D01*
X140893450Y-74375000D02*
X140857735Y-74410714D01*
X140857735Y-74410714D02*
X140786307Y-74446428D01*
X140786307Y-74446428D02*
X140607735Y-74446428D01*
X140607735Y-74446428D02*
X140536307Y-74410714D01*
X140536307Y-74410714D02*
X140500592Y-74375000D01*
X140500592Y-74375000D02*
X140464878Y-74303571D01*
X140464878Y-74303571D02*
X140464878Y-74160714D01*
X140464878Y-74160714D02*
X140500592Y-74089285D01*
X140500592Y-74089285D02*
X140536307Y-74053571D01*
X140536307Y-74053571D02*
X140607735Y-74017857D01*
X147124999Y-52839164D02*
X147124999Y-53374878D01*
X147124999Y-53374878D02*
X147160714Y-53482021D01*
X147160714Y-53482021D02*
X147232142Y-53553450D01*
X147232142Y-53553450D02*
X147339285Y-53589164D01*
X147339285Y-53589164D02*
X147410714Y-53589164D01*
X146767856Y-53589164D02*
X146767856Y-52839164D01*
X146767856Y-52839164D02*
X146482142Y-52839164D01*
X146482142Y-52839164D02*
X146410713Y-52874878D01*
X146410713Y-52874878D02*
X146374999Y-52910592D01*
X146374999Y-52910592D02*
X146339285Y-52982021D01*
X146339285Y-52982021D02*
X146339285Y-53089164D01*
X146339285Y-53089164D02*
X146374999Y-53160592D01*
X146374999Y-53160592D02*
X146410713Y-53196307D01*
X146410713Y-53196307D02*
X146482142Y-53232021D01*
X146482142Y-53232021D02*
X146767856Y-53232021D01*
X145624999Y-53589164D02*
X146053570Y-53589164D01*
X145839285Y-53589164D02*
X145839285Y-52839164D01*
X145839285Y-52839164D02*
X145910713Y-52946307D01*
X145910713Y-52946307D02*
X145982142Y-53017735D01*
X145982142Y-53017735D02*
X146053570Y-53053450D01*
X148232143Y-76017735D02*
X148267857Y-76053450D01*
X148267857Y-76053450D02*
X148375000Y-76089164D01*
X148375000Y-76089164D02*
X148446428Y-76089164D01*
X148446428Y-76089164D02*
X148553571Y-76053450D01*
X148553571Y-76053450D02*
X148625000Y-75982021D01*
X148625000Y-75982021D02*
X148660714Y-75910592D01*
X148660714Y-75910592D02*
X148696428Y-75767735D01*
X148696428Y-75767735D02*
X148696428Y-75660592D01*
X148696428Y-75660592D02*
X148660714Y-75517735D01*
X148660714Y-75517735D02*
X148625000Y-75446307D01*
X148625000Y-75446307D02*
X148553571Y-75374878D01*
X148553571Y-75374878D02*
X148446428Y-75339164D01*
X148446428Y-75339164D02*
X148375000Y-75339164D01*
X148375000Y-75339164D02*
X148267857Y-75374878D01*
X148267857Y-75374878D02*
X148232143Y-75410592D01*
X147553571Y-75339164D02*
X147910714Y-75339164D01*
X147910714Y-75339164D02*
X147946428Y-75696307D01*
X147946428Y-75696307D02*
X147910714Y-75660592D01*
X147910714Y-75660592D02*
X147839286Y-75624878D01*
X147839286Y-75624878D02*
X147660714Y-75624878D01*
X147660714Y-75624878D02*
X147589286Y-75660592D01*
X147589286Y-75660592D02*
X147553571Y-75696307D01*
X147553571Y-75696307D02*
X147517857Y-75767735D01*
X147517857Y-75767735D02*
X147517857Y-75946307D01*
X147517857Y-75946307D02*
X147553571Y-76017735D01*
X147553571Y-76017735D02*
X147589286Y-76053450D01*
X147589286Y-76053450D02*
X147660714Y-76089164D01*
X147660714Y-76089164D02*
X147839286Y-76089164D01*
X147839286Y-76089164D02*
X147910714Y-76053450D01*
X147910714Y-76053450D02*
X147946428Y-76017735D01*
X146875000Y-75589164D02*
X146875000Y-76089164D01*
X147053571Y-75303450D02*
X147232142Y-75839164D01*
X147232142Y-75839164D02*
X146767857Y-75839164D01*
D11*
X138761904Y-53703259D02*
X138761904Y-54512782D01*
X138761904Y-54512782D02*
X138714285Y-54608020D01*
X138714285Y-54608020D02*
X138666666Y-54655640D01*
X138666666Y-54655640D02*
X138571428Y-54703259D01*
X138571428Y-54703259D02*
X138380952Y-54703259D01*
X138380952Y-54703259D02*
X138285714Y-54655640D01*
X138285714Y-54655640D02*
X138238095Y-54608020D01*
X138238095Y-54608020D02*
X138190476Y-54512782D01*
X138190476Y-54512782D02*
X138190476Y-53703259D01*
X137190476Y-54703259D02*
X137761904Y-54703259D01*
X137476190Y-54703259D02*
X137476190Y-53703259D01*
X137476190Y-53703259D02*
X137571428Y-53846116D01*
X137571428Y-53846116D02*
X137666666Y-53941354D01*
X137666666Y-53941354D02*
X137761904Y-53988973D01*
D10*
X150517735Y-70767856D02*
X150553450Y-70732142D01*
X150553450Y-70732142D02*
X150589164Y-70624999D01*
X150589164Y-70624999D02*
X150589164Y-70553571D01*
X150589164Y-70553571D02*
X150553450Y-70446428D01*
X150553450Y-70446428D02*
X150482021Y-70374999D01*
X150482021Y-70374999D02*
X150410592Y-70339285D01*
X150410592Y-70339285D02*
X150267735Y-70303571D01*
X150267735Y-70303571D02*
X150160592Y-70303571D01*
X150160592Y-70303571D02*
X150017735Y-70339285D01*
X150017735Y-70339285D02*
X149946307Y-70374999D01*
X149946307Y-70374999D02*
X149874878Y-70446428D01*
X149874878Y-70446428D02*
X149839164Y-70553571D01*
X149839164Y-70553571D02*
X149839164Y-70624999D01*
X149839164Y-70624999D02*
X149874878Y-70732142D01*
X149874878Y-70732142D02*
X149910592Y-70767856D01*
X149839164Y-71446428D02*
X149839164Y-71089285D01*
X149839164Y-71089285D02*
X150196307Y-71053571D01*
X150196307Y-71053571D02*
X150160592Y-71089285D01*
X150160592Y-71089285D02*
X150124878Y-71160714D01*
X150124878Y-71160714D02*
X150124878Y-71339285D01*
X150124878Y-71339285D02*
X150160592Y-71410714D01*
X150160592Y-71410714D02*
X150196307Y-71446428D01*
X150196307Y-71446428D02*
X150267735Y-71482142D01*
X150267735Y-71482142D02*
X150446307Y-71482142D01*
X150446307Y-71482142D02*
X150517735Y-71446428D01*
X150517735Y-71446428D02*
X150553450Y-71410714D01*
X150553450Y-71410714D02*
X150589164Y-71339285D01*
X150589164Y-71339285D02*
X150589164Y-71160714D01*
X150589164Y-71160714D02*
X150553450Y-71089285D01*
X150553450Y-71089285D02*
X150517735Y-71053571D01*
X149839164Y-71732142D02*
X149839164Y-72196428D01*
X149839164Y-72196428D02*
X150124878Y-71946428D01*
X150124878Y-71946428D02*
X150124878Y-72053571D01*
X150124878Y-72053571D02*
X150160592Y-72125000D01*
X150160592Y-72125000D02*
X150196307Y-72160714D01*
X150196307Y-72160714D02*
X150267735Y-72196428D01*
X150267735Y-72196428D02*
X150446307Y-72196428D01*
X150446307Y-72196428D02*
X150517735Y-72160714D01*
X150517735Y-72160714D02*
X150553450Y-72125000D01*
X150553450Y-72125000D02*
X150589164Y-72053571D01*
X150589164Y-72053571D02*
X150589164Y-71839285D01*
X150589164Y-71839285D02*
X150553450Y-71767857D01*
X150553450Y-71767857D02*
X150517735Y-71732142D01*
X135732143Y-66267735D02*
X135767857Y-66303450D01*
X135767857Y-66303450D02*
X135875000Y-66339164D01*
X135875000Y-66339164D02*
X135946428Y-66339164D01*
X135946428Y-66339164D02*
X136053571Y-66303450D01*
X136053571Y-66303450D02*
X136125000Y-66232021D01*
X136125000Y-66232021D02*
X136160714Y-66160592D01*
X136160714Y-66160592D02*
X136196428Y-66017735D01*
X136196428Y-66017735D02*
X136196428Y-65910592D01*
X136196428Y-65910592D02*
X136160714Y-65767735D01*
X136160714Y-65767735D02*
X136125000Y-65696307D01*
X136125000Y-65696307D02*
X136053571Y-65624878D01*
X136053571Y-65624878D02*
X135946428Y-65589164D01*
X135946428Y-65589164D02*
X135875000Y-65589164D01*
X135875000Y-65589164D02*
X135767857Y-65624878D01*
X135767857Y-65624878D02*
X135732143Y-65660592D01*
X135017857Y-66339164D02*
X135446428Y-66339164D01*
X135232143Y-66339164D02*
X135232143Y-65589164D01*
X135232143Y-65589164D02*
X135303571Y-65696307D01*
X135303571Y-65696307D02*
X135375000Y-65767735D01*
X135375000Y-65767735D02*
X135446428Y-65803450D01*
X134660714Y-66339164D02*
X134517857Y-66339164D01*
X134517857Y-66339164D02*
X134446428Y-66303450D01*
X134446428Y-66303450D02*
X134410714Y-66267735D01*
X134410714Y-66267735D02*
X134339285Y-66160592D01*
X134339285Y-66160592D02*
X134303571Y-66017735D01*
X134303571Y-66017735D02*
X134303571Y-65732021D01*
X134303571Y-65732021D02*
X134339285Y-65660592D01*
X134339285Y-65660592D02*
X134375000Y-65624878D01*
X134375000Y-65624878D02*
X134446428Y-65589164D01*
X134446428Y-65589164D02*
X134589285Y-65589164D01*
X134589285Y-65589164D02*
X134660714Y-65624878D01*
X134660714Y-65624878D02*
X134696428Y-65660592D01*
X134696428Y-65660592D02*
X134732142Y-65732021D01*
X134732142Y-65732021D02*
X134732142Y-65910592D01*
X134732142Y-65910592D02*
X134696428Y-65982021D01*
X134696428Y-65982021D02*
X134660714Y-66017735D01*
X134660714Y-66017735D02*
X134589285Y-66053450D01*
X134589285Y-66053450D02*
X134446428Y-66053450D01*
X134446428Y-66053450D02*
X134375000Y-66017735D01*
X134375000Y-66017735D02*
X134339285Y-65982021D01*
X134339285Y-65982021D02*
X134303571Y-65910592D01*
X154017735Y-72517856D02*
X154053450Y-72482142D01*
X154053450Y-72482142D02*
X154089164Y-72374999D01*
X154089164Y-72374999D02*
X154089164Y-72303571D01*
X154089164Y-72303571D02*
X154053450Y-72196428D01*
X154053450Y-72196428D02*
X153982021Y-72124999D01*
X153982021Y-72124999D02*
X153910592Y-72089285D01*
X153910592Y-72089285D02*
X153767735Y-72053571D01*
X153767735Y-72053571D02*
X153660592Y-72053571D01*
X153660592Y-72053571D02*
X153517735Y-72089285D01*
X153517735Y-72089285D02*
X153446307Y-72124999D01*
X153446307Y-72124999D02*
X153374878Y-72196428D01*
X153374878Y-72196428D02*
X153339164Y-72303571D01*
X153339164Y-72303571D02*
X153339164Y-72374999D01*
X153339164Y-72374999D02*
X153374878Y-72482142D01*
X153374878Y-72482142D02*
X153410592Y-72517856D01*
X153339164Y-72767856D02*
X153339164Y-73232142D01*
X153339164Y-73232142D02*
X153624878Y-72982142D01*
X153624878Y-72982142D02*
X153624878Y-73089285D01*
X153624878Y-73089285D02*
X153660592Y-73160714D01*
X153660592Y-73160714D02*
X153696307Y-73196428D01*
X153696307Y-73196428D02*
X153767735Y-73232142D01*
X153767735Y-73232142D02*
X153946307Y-73232142D01*
X153946307Y-73232142D02*
X154017735Y-73196428D01*
X154017735Y-73196428D02*
X154053450Y-73160714D01*
X154053450Y-73160714D02*
X154089164Y-73089285D01*
X154089164Y-73089285D02*
X154089164Y-72874999D01*
X154089164Y-72874999D02*
X154053450Y-72803571D01*
X154053450Y-72803571D02*
X154017735Y-72767856D01*
X153339164Y-73910714D02*
X153339164Y-73553571D01*
X153339164Y-73553571D02*
X153696307Y-73517857D01*
X153696307Y-73517857D02*
X153660592Y-73553571D01*
X153660592Y-73553571D02*
X153624878Y-73625000D01*
X153624878Y-73625000D02*
X153624878Y-73803571D01*
X153624878Y-73803571D02*
X153660592Y-73875000D01*
X153660592Y-73875000D02*
X153696307Y-73910714D01*
X153696307Y-73910714D02*
X153767735Y-73946428D01*
X153767735Y-73946428D02*
X153946307Y-73946428D01*
X153946307Y-73946428D02*
X154017735Y-73910714D01*
X154017735Y-73910714D02*
X154053450Y-73875000D01*
X154053450Y-73875000D02*
X154089164Y-73803571D01*
X154089164Y-73803571D02*
X154089164Y-73625000D01*
X154089164Y-73625000D02*
X154053450Y-73553571D01*
X154053450Y-73553571D02*
X154017735Y-73517857D01*
X136482143Y-56739164D02*
X136732143Y-56382021D01*
X136910714Y-56739164D02*
X136910714Y-55989164D01*
X136910714Y-55989164D02*
X136625000Y-55989164D01*
X136625000Y-55989164D02*
X136553571Y-56024878D01*
X136553571Y-56024878D02*
X136517857Y-56060592D01*
X136517857Y-56060592D02*
X136482143Y-56132021D01*
X136482143Y-56132021D02*
X136482143Y-56239164D01*
X136482143Y-56239164D02*
X136517857Y-56310592D01*
X136517857Y-56310592D02*
X136553571Y-56346307D01*
X136553571Y-56346307D02*
X136625000Y-56382021D01*
X136625000Y-56382021D02*
X136910714Y-56382021D01*
X136232143Y-55989164D02*
X135767857Y-55989164D01*
X135767857Y-55989164D02*
X136017857Y-56274878D01*
X136017857Y-56274878D02*
X135910714Y-56274878D01*
X135910714Y-56274878D02*
X135839286Y-56310592D01*
X135839286Y-56310592D02*
X135803571Y-56346307D01*
X135803571Y-56346307D02*
X135767857Y-56417735D01*
X135767857Y-56417735D02*
X135767857Y-56596307D01*
X135767857Y-56596307D02*
X135803571Y-56667735D01*
X135803571Y-56667735D02*
X135839286Y-56703450D01*
X135839286Y-56703450D02*
X135910714Y-56739164D01*
X135910714Y-56739164D02*
X136125000Y-56739164D01*
X136125000Y-56739164D02*
X136196428Y-56703450D01*
X136196428Y-56703450D02*
X136232143Y-56667735D01*
X135125000Y-56239164D02*
X135125000Y-56739164D01*
X135303571Y-55953450D02*
X135482142Y-56489164D01*
X135482142Y-56489164D02*
X135017857Y-56489164D01*
X129982143Y-73517735D02*
X130017857Y-73553450D01*
X130017857Y-73553450D02*
X130125000Y-73589164D01*
X130125000Y-73589164D02*
X130196428Y-73589164D01*
X130196428Y-73589164D02*
X130303571Y-73553450D01*
X130303571Y-73553450D02*
X130375000Y-73482021D01*
X130375000Y-73482021D02*
X130410714Y-73410592D01*
X130410714Y-73410592D02*
X130446428Y-73267735D01*
X130446428Y-73267735D02*
X130446428Y-73160592D01*
X130446428Y-73160592D02*
X130410714Y-73017735D01*
X130410714Y-73017735D02*
X130375000Y-72946307D01*
X130375000Y-72946307D02*
X130303571Y-72874878D01*
X130303571Y-72874878D02*
X130196428Y-72839164D01*
X130196428Y-72839164D02*
X130125000Y-72839164D01*
X130125000Y-72839164D02*
X130017857Y-72874878D01*
X130017857Y-72874878D02*
X129982143Y-72910592D01*
X129339286Y-73089164D02*
X129339286Y-73589164D01*
X129517857Y-72803450D02*
X129696428Y-73339164D01*
X129696428Y-73339164D02*
X129232143Y-73339164D01*
X128553571Y-73589164D02*
X128982142Y-73589164D01*
X128767857Y-73589164D02*
X128767857Y-72839164D01*
X128767857Y-72839164D02*
X128839285Y-72946307D01*
X128839285Y-72946307D02*
X128910714Y-73017735D01*
X128910714Y-73017735D02*
X128982142Y-73053450D01*
X145282143Y-77227735D02*
X145317857Y-77263450D01*
X145317857Y-77263450D02*
X145425000Y-77299164D01*
X145425000Y-77299164D02*
X145496428Y-77299164D01*
X145496428Y-77299164D02*
X145603571Y-77263450D01*
X145603571Y-77263450D02*
X145675000Y-77192021D01*
X145675000Y-77192021D02*
X145710714Y-77120592D01*
X145710714Y-77120592D02*
X145746428Y-76977735D01*
X145746428Y-76977735D02*
X145746428Y-76870592D01*
X145746428Y-76870592D02*
X145710714Y-76727735D01*
X145710714Y-76727735D02*
X145675000Y-76656307D01*
X145675000Y-76656307D02*
X145603571Y-76584878D01*
X145603571Y-76584878D02*
X145496428Y-76549164D01*
X145496428Y-76549164D02*
X145425000Y-76549164D01*
X145425000Y-76549164D02*
X145317857Y-76584878D01*
X145317857Y-76584878D02*
X145282143Y-76620592D01*
X145032143Y-76549164D02*
X144567857Y-76549164D01*
X144567857Y-76549164D02*
X144817857Y-76834878D01*
X144817857Y-76834878D02*
X144710714Y-76834878D01*
X144710714Y-76834878D02*
X144639286Y-76870592D01*
X144639286Y-76870592D02*
X144603571Y-76906307D01*
X144603571Y-76906307D02*
X144567857Y-76977735D01*
X144567857Y-76977735D02*
X144567857Y-77156307D01*
X144567857Y-77156307D02*
X144603571Y-77227735D01*
X144603571Y-77227735D02*
X144639286Y-77263450D01*
X144639286Y-77263450D02*
X144710714Y-77299164D01*
X144710714Y-77299164D02*
X144925000Y-77299164D01*
X144925000Y-77299164D02*
X144996428Y-77263450D01*
X144996428Y-77263450D02*
X145032143Y-77227735D01*
X144103571Y-76549164D02*
X144032142Y-76549164D01*
X144032142Y-76549164D02*
X143960714Y-76584878D01*
X143960714Y-76584878D02*
X143925000Y-76620592D01*
X143925000Y-76620592D02*
X143889285Y-76692021D01*
X143889285Y-76692021D02*
X143853571Y-76834878D01*
X143853571Y-76834878D02*
X143853571Y-77013450D01*
X143853571Y-77013450D02*
X143889285Y-77156307D01*
X143889285Y-77156307D02*
X143925000Y-77227735D01*
X143925000Y-77227735D02*
X143960714Y-77263450D01*
X143960714Y-77263450D02*
X144032142Y-77299164D01*
X144032142Y-77299164D02*
X144103571Y-77299164D01*
X144103571Y-77299164D02*
X144175000Y-77263450D01*
X144175000Y-77263450D02*
X144210714Y-77227735D01*
X144210714Y-77227735D02*
X144246428Y-77156307D01*
X144246428Y-77156307D02*
X144282142Y-77013450D01*
X144282142Y-77013450D02*
X144282142Y-76834878D01*
X144282142Y-76834878D02*
X144246428Y-76692021D01*
X144246428Y-76692021D02*
X144210714Y-76620592D01*
X144210714Y-76620592D02*
X144175000Y-76584878D01*
X144175000Y-76584878D02*
X144103571Y-76549164D01*
X146982143Y-66767735D02*
X147017857Y-66803450D01*
X147017857Y-66803450D02*
X147125000Y-66839164D01*
X147125000Y-66839164D02*
X147196428Y-66839164D01*
X147196428Y-66839164D02*
X147303571Y-66803450D01*
X147303571Y-66803450D02*
X147375000Y-66732021D01*
X147375000Y-66732021D02*
X147410714Y-66660592D01*
X147410714Y-66660592D02*
X147446428Y-66517735D01*
X147446428Y-66517735D02*
X147446428Y-66410592D01*
X147446428Y-66410592D02*
X147410714Y-66267735D01*
X147410714Y-66267735D02*
X147375000Y-66196307D01*
X147375000Y-66196307D02*
X147303571Y-66124878D01*
X147303571Y-66124878D02*
X147196428Y-66089164D01*
X147196428Y-66089164D02*
X147125000Y-66089164D01*
X147125000Y-66089164D02*
X147017857Y-66124878D01*
X147017857Y-66124878D02*
X146982143Y-66160592D01*
X146696428Y-66160592D02*
X146660714Y-66124878D01*
X146660714Y-66124878D02*
X146589286Y-66089164D01*
X146589286Y-66089164D02*
X146410714Y-66089164D01*
X146410714Y-66089164D02*
X146339286Y-66124878D01*
X146339286Y-66124878D02*
X146303571Y-66160592D01*
X146303571Y-66160592D02*
X146267857Y-66232021D01*
X146267857Y-66232021D02*
X146267857Y-66303450D01*
X146267857Y-66303450D02*
X146303571Y-66410592D01*
X146303571Y-66410592D02*
X146732143Y-66839164D01*
X146732143Y-66839164D02*
X146267857Y-66839164D01*
X145982142Y-66160592D02*
X145946428Y-66124878D01*
X145946428Y-66124878D02*
X145875000Y-66089164D01*
X145875000Y-66089164D02*
X145696428Y-66089164D01*
X145696428Y-66089164D02*
X145625000Y-66124878D01*
X145625000Y-66124878D02*
X145589285Y-66160592D01*
X145589285Y-66160592D02*
X145553571Y-66232021D01*
X145553571Y-66232021D02*
X145553571Y-66303450D01*
X145553571Y-66303450D02*
X145589285Y-66410592D01*
X145589285Y-66410592D02*
X146017857Y-66839164D01*
X146017857Y-66839164D02*
X145553571Y-66839164D01*
X141589164Y-66267856D02*
X141232021Y-66017856D01*
X141589164Y-65839285D02*
X140839164Y-65839285D01*
X140839164Y-65839285D02*
X140839164Y-66124999D01*
X140839164Y-66124999D02*
X140874878Y-66196428D01*
X140874878Y-66196428D02*
X140910592Y-66232142D01*
X140910592Y-66232142D02*
X140982021Y-66267856D01*
X140982021Y-66267856D02*
X141089164Y-66267856D01*
X141089164Y-66267856D02*
X141160592Y-66232142D01*
X141160592Y-66232142D02*
X141196307Y-66196428D01*
X141196307Y-66196428D02*
X141232021Y-66124999D01*
X141232021Y-66124999D02*
X141232021Y-65839285D01*
X140839164Y-66517856D02*
X140839164Y-66982142D01*
X140839164Y-66982142D02*
X141124878Y-66732142D01*
X141124878Y-66732142D02*
X141124878Y-66839285D01*
X141124878Y-66839285D02*
X141160592Y-66910714D01*
X141160592Y-66910714D02*
X141196307Y-66946428D01*
X141196307Y-66946428D02*
X141267735Y-66982142D01*
X141267735Y-66982142D02*
X141446307Y-66982142D01*
X141446307Y-66982142D02*
X141517735Y-66946428D01*
X141517735Y-66946428D02*
X141553450Y-66910714D01*
X141553450Y-66910714D02*
X141589164Y-66839285D01*
X141589164Y-66839285D02*
X141589164Y-66624999D01*
X141589164Y-66624999D02*
X141553450Y-66553571D01*
X141553450Y-66553571D02*
X141517735Y-66517856D01*
X141589164Y-67339285D02*
X141589164Y-67482142D01*
X141589164Y-67482142D02*
X141553450Y-67553571D01*
X141553450Y-67553571D02*
X141517735Y-67589285D01*
X141517735Y-67589285D02*
X141410592Y-67660714D01*
X141410592Y-67660714D02*
X141267735Y-67696428D01*
X141267735Y-67696428D02*
X140982021Y-67696428D01*
X140982021Y-67696428D02*
X140910592Y-67660714D01*
X140910592Y-67660714D02*
X140874878Y-67625000D01*
X140874878Y-67625000D02*
X140839164Y-67553571D01*
X140839164Y-67553571D02*
X140839164Y-67410714D01*
X140839164Y-67410714D02*
X140874878Y-67339285D01*
X140874878Y-67339285D02*
X140910592Y-67303571D01*
X140910592Y-67303571D02*
X140982021Y-67267857D01*
X140982021Y-67267857D02*
X141160592Y-67267857D01*
X141160592Y-67267857D02*
X141232021Y-67303571D01*
X141232021Y-67303571D02*
X141267735Y-67339285D01*
X141267735Y-67339285D02*
X141303450Y-67410714D01*
X141303450Y-67410714D02*
X141303450Y-67553571D01*
X141303450Y-67553571D02*
X141267735Y-67625000D01*
X141267735Y-67625000D02*
X141232021Y-67660714D01*
X141232021Y-67660714D02*
X141160592Y-67696428D01*
X142107735Y-75017856D02*
X142143450Y-74982142D01*
X142143450Y-74982142D02*
X142179164Y-74874999D01*
X142179164Y-74874999D02*
X142179164Y-74803571D01*
X142179164Y-74803571D02*
X142143450Y-74696428D01*
X142143450Y-74696428D02*
X142072021Y-74624999D01*
X142072021Y-74624999D02*
X142000592Y-74589285D01*
X142000592Y-74589285D02*
X141857735Y-74553571D01*
X141857735Y-74553571D02*
X141750592Y-74553571D01*
X141750592Y-74553571D02*
X141607735Y-74589285D01*
X141607735Y-74589285D02*
X141536307Y-74624999D01*
X141536307Y-74624999D02*
X141464878Y-74696428D01*
X141464878Y-74696428D02*
X141429164Y-74803571D01*
X141429164Y-74803571D02*
X141429164Y-74874999D01*
X141429164Y-74874999D02*
X141464878Y-74982142D01*
X141464878Y-74982142D02*
X141500592Y-75017856D01*
X141429164Y-75267856D02*
X141429164Y-75732142D01*
X141429164Y-75732142D02*
X141714878Y-75482142D01*
X141714878Y-75482142D02*
X141714878Y-75589285D01*
X141714878Y-75589285D02*
X141750592Y-75660714D01*
X141750592Y-75660714D02*
X141786307Y-75696428D01*
X141786307Y-75696428D02*
X141857735Y-75732142D01*
X141857735Y-75732142D02*
X142036307Y-75732142D01*
X142036307Y-75732142D02*
X142107735Y-75696428D01*
X142107735Y-75696428D02*
X142143450Y-75660714D01*
X142143450Y-75660714D02*
X142179164Y-75589285D01*
X142179164Y-75589285D02*
X142179164Y-75374999D01*
X142179164Y-75374999D02*
X142143450Y-75303571D01*
X142143450Y-75303571D02*
X142107735Y-75267856D01*
X141429164Y-75982142D02*
X141429164Y-76446428D01*
X141429164Y-76446428D02*
X141714878Y-76196428D01*
X141714878Y-76196428D02*
X141714878Y-76303571D01*
X141714878Y-76303571D02*
X141750592Y-76375000D01*
X141750592Y-76375000D02*
X141786307Y-76410714D01*
X141786307Y-76410714D02*
X141857735Y-76446428D01*
X141857735Y-76446428D02*
X142036307Y-76446428D01*
X142036307Y-76446428D02*
X142107735Y-76410714D01*
X142107735Y-76410714D02*
X142143450Y-76375000D01*
X142143450Y-76375000D02*
X142179164Y-76303571D01*
X142179164Y-76303571D02*
X142179164Y-76089285D01*
X142179164Y-76089285D02*
X142143450Y-76017857D01*
X142143450Y-76017857D02*
X142107735Y-75982142D01*
X162232143Y-46339164D02*
X162482143Y-45982021D01*
X162660714Y-46339164D02*
X162660714Y-45589164D01*
X162660714Y-45589164D02*
X162375000Y-45589164D01*
X162375000Y-45589164D02*
X162303571Y-45624878D01*
X162303571Y-45624878D02*
X162267857Y-45660592D01*
X162267857Y-45660592D02*
X162232143Y-45732021D01*
X162232143Y-45732021D02*
X162232143Y-45839164D01*
X162232143Y-45839164D02*
X162267857Y-45910592D01*
X162267857Y-45910592D02*
X162303571Y-45946307D01*
X162303571Y-45946307D02*
X162375000Y-45982021D01*
X162375000Y-45982021D02*
X162660714Y-45982021D01*
X161946428Y-45660592D02*
X161910714Y-45624878D01*
X161910714Y-45624878D02*
X161839286Y-45589164D01*
X161839286Y-45589164D02*
X161660714Y-45589164D01*
X161660714Y-45589164D02*
X161589286Y-45624878D01*
X161589286Y-45624878D02*
X161553571Y-45660592D01*
X161553571Y-45660592D02*
X161517857Y-45732021D01*
X161517857Y-45732021D02*
X161517857Y-45803450D01*
X161517857Y-45803450D02*
X161553571Y-45910592D01*
X161553571Y-45910592D02*
X161982143Y-46339164D01*
X161982143Y-46339164D02*
X161517857Y-46339164D01*
X161089285Y-45910592D02*
X161160714Y-45874878D01*
X161160714Y-45874878D02*
X161196428Y-45839164D01*
X161196428Y-45839164D02*
X161232142Y-45767735D01*
X161232142Y-45767735D02*
X161232142Y-45732021D01*
X161232142Y-45732021D02*
X161196428Y-45660592D01*
X161196428Y-45660592D02*
X161160714Y-45624878D01*
X161160714Y-45624878D02*
X161089285Y-45589164D01*
X161089285Y-45589164D02*
X160946428Y-45589164D01*
X160946428Y-45589164D02*
X160875000Y-45624878D01*
X160875000Y-45624878D02*
X160839285Y-45660592D01*
X160839285Y-45660592D02*
X160803571Y-45732021D01*
X160803571Y-45732021D02*
X160803571Y-45767735D01*
X160803571Y-45767735D02*
X160839285Y-45839164D01*
X160839285Y-45839164D02*
X160875000Y-45874878D01*
X160875000Y-45874878D02*
X160946428Y-45910592D01*
X160946428Y-45910592D02*
X161089285Y-45910592D01*
X161089285Y-45910592D02*
X161160714Y-45946307D01*
X161160714Y-45946307D02*
X161196428Y-45982021D01*
X161196428Y-45982021D02*
X161232142Y-46053450D01*
X161232142Y-46053450D02*
X161232142Y-46196307D01*
X161232142Y-46196307D02*
X161196428Y-46267735D01*
X161196428Y-46267735D02*
X161160714Y-46303450D01*
X161160714Y-46303450D02*
X161089285Y-46339164D01*
X161089285Y-46339164D02*
X160946428Y-46339164D01*
X160946428Y-46339164D02*
X160875000Y-46303450D01*
X160875000Y-46303450D02*
X160839285Y-46267735D01*
X160839285Y-46267735D02*
X160803571Y-46196307D01*
X160803571Y-46196307D02*
X160803571Y-46053450D01*
X160803571Y-46053450D02*
X160839285Y-45982021D01*
X160839285Y-45982021D02*
X160875000Y-45946307D01*
X160875000Y-45946307D02*
X160946428Y-45910592D01*
X143082143Y-94267735D02*
X143117857Y-94303450D01*
X143117857Y-94303450D02*
X143225000Y-94339164D01*
X143225000Y-94339164D02*
X143296428Y-94339164D01*
X143296428Y-94339164D02*
X143403571Y-94303450D01*
X143403571Y-94303450D02*
X143475000Y-94232021D01*
X143475000Y-94232021D02*
X143510714Y-94160592D01*
X143510714Y-94160592D02*
X143546428Y-94017735D01*
X143546428Y-94017735D02*
X143546428Y-93910592D01*
X143546428Y-93910592D02*
X143510714Y-93767735D01*
X143510714Y-93767735D02*
X143475000Y-93696307D01*
X143475000Y-93696307D02*
X143403571Y-93624878D01*
X143403571Y-93624878D02*
X143296428Y-93589164D01*
X143296428Y-93589164D02*
X143225000Y-93589164D01*
X143225000Y-93589164D02*
X143117857Y-93624878D01*
X143117857Y-93624878D02*
X143082143Y-93660592D01*
X142439286Y-93589164D02*
X142582143Y-93589164D01*
X142582143Y-93589164D02*
X142653571Y-93624878D01*
X142653571Y-93624878D02*
X142689286Y-93660592D01*
X142689286Y-93660592D02*
X142760714Y-93767735D01*
X142760714Y-93767735D02*
X142796428Y-93910592D01*
X142796428Y-93910592D02*
X142796428Y-94196307D01*
X142796428Y-94196307D02*
X142760714Y-94267735D01*
X142760714Y-94267735D02*
X142725000Y-94303450D01*
X142725000Y-94303450D02*
X142653571Y-94339164D01*
X142653571Y-94339164D02*
X142510714Y-94339164D01*
X142510714Y-94339164D02*
X142439286Y-94303450D01*
X142439286Y-94303450D02*
X142403571Y-94267735D01*
X142403571Y-94267735D02*
X142367857Y-94196307D01*
X142367857Y-94196307D02*
X142367857Y-94017735D01*
X142367857Y-94017735D02*
X142403571Y-93946307D01*
X142403571Y-93946307D02*
X142439286Y-93910592D01*
X142439286Y-93910592D02*
X142510714Y-93874878D01*
X142510714Y-93874878D02*
X142653571Y-93874878D01*
X142653571Y-93874878D02*
X142725000Y-93910592D01*
X142725000Y-93910592D02*
X142760714Y-93946307D01*
X142760714Y-93946307D02*
X142796428Y-94017735D01*
X142010714Y-94339164D02*
X141867857Y-94339164D01*
X141867857Y-94339164D02*
X141796428Y-94303450D01*
X141796428Y-94303450D02*
X141760714Y-94267735D01*
X141760714Y-94267735D02*
X141689285Y-94160592D01*
X141689285Y-94160592D02*
X141653571Y-94017735D01*
X141653571Y-94017735D02*
X141653571Y-93732021D01*
X141653571Y-93732021D02*
X141689285Y-93660592D01*
X141689285Y-93660592D02*
X141725000Y-93624878D01*
X141725000Y-93624878D02*
X141796428Y-93589164D01*
X141796428Y-93589164D02*
X141939285Y-93589164D01*
X141939285Y-93589164D02*
X142010714Y-93624878D01*
X142010714Y-93624878D02*
X142046428Y-93660592D01*
X142046428Y-93660592D02*
X142082142Y-93732021D01*
X142082142Y-93732021D02*
X142082142Y-93910592D01*
X142082142Y-93910592D02*
X142046428Y-93982021D01*
X142046428Y-93982021D02*
X142010714Y-94017735D01*
X142010714Y-94017735D02*
X141939285Y-94053450D01*
X141939285Y-94053450D02*
X141796428Y-94053450D01*
X141796428Y-94053450D02*
X141725000Y-94017735D01*
X141725000Y-94017735D02*
X141689285Y-93982021D01*
X141689285Y-93982021D02*
X141653571Y-93910592D01*
X149232143Y-69517735D02*
X149267857Y-69553450D01*
X149267857Y-69553450D02*
X149375000Y-69589164D01*
X149375000Y-69589164D02*
X149446428Y-69589164D01*
X149446428Y-69589164D02*
X149553571Y-69553450D01*
X149553571Y-69553450D02*
X149625000Y-69482021D01*
X149625000Y-69482021D02*
X149660714Y-69410592D01*
X149660714Y-69410592D02*
X149696428Y-69267735D01*
X149696428Y-69267735D02*
X149696428Y-69160592D01*
X149696428Y-69160592D02*
X149660714Y-69017735D01*
X149660714Y-69017735D02*
X149625000Y-68946307D01*
X149625000Y-68946307D02*
X149553571Y-68874878D01*
X149553571Y-68874878D02*
X149446428Y-68839164D01*
X149446428Y-68839164D02*
X149375000Y-68839164D01*
X149375000Y-68839164D02*
X149267857Y-68874878D01*
X149267857Y-68874878D02*
X149232143Y-68910592D01*
X148589286Y-68839164D02*
X148732143Y-68839164D01*
X148732143Y-68839164D02*
X148803571Y-68874878D01*
X148803571Y-68874878D02*
X148839286Y-68910592D01*
X148839286Y-68910592D02*
X148910714Y-69017735D01*
X148910714Y-69017735D02*
X148946428Y-69160592D01*
X148946428Y-69160592D02*
X148946428Y-69446307D01*
X148946428Y-69446307D02*
X148910714Y-69517735D01*
X148910714Y-69517735D02*
X148875000Y-69553450D01*
X148875000Y-69553450D02*
X148803571Y-69589164D01*
X148803571Y-69589164D02*
X148660714Y-69589164D01*
X148660714Y-69589164D02*
X148589286Y-69553450D01*
X148589286Y-69553450D02*
X148553571Y-69517735D01*
X148553571Y-69517735D02*
X148517857Y-69446307D01*
X148517857Y-69446307D02*
X148517857Y-69267735D01*
X148517857Y-69267735D02*
X148553571Y-69196307D01*
X148553571Y-69196307D02*
X148589286Y-69160592D01*
X148589286Y-69160592D02*
X148660714Y-69124878D01*
X148660714Y-69124878D02*
X148803571Y-69124878D01*
X148803571Y-69124878D02*
X148875000Y-69160592D01*
X148875000Y-69160592D02*
X148910714Y-69196307D01*
X148910714Y-69196307D02*
X148946428Y-69267735D01*
X148267857Y-68839164D02*
X147803571Y-68839164D01*
X147803571Y-68839164D02*
X148053571Y-69124878D01*
X148053571Y-69124878D02*
X147946428Y-69124878D01*
X147946428Y-69124878D02*
X147875000Y-69160592D01*
X147875000Y-69160592D02*
X147839285Y-69196307D01*
X147839285Y-69196307D02*
X147803571Y-69267735D01*
X147803571Y-69267735D02*
X147803571Y-69446307D01*
X147803571Y-69446307D02*
X147839285Y-69517735D01*
X147839285Y-69517735D02*
X147875000Y-69553450D01*
X147875000Y-69553450D02*
X147946428Y-69589164D01*
X147946428Y-69589164D02*
X148160714Y-69589164D01*
X148160714Y-69589164D02*
X148232142Y-69553450D01*
X148232142Y-69553450D02*
X148267857Y-69517735D01*
X146482143Y-97767735D02*
X146517857Y-97803450D01*
X146517857Y-97803450D02*
X146625000Y-97839164D01*
X146625000Y-97839164D02*
X146696428Y-97839164D01*
X146696428Y-97839164D02*
X146803571Y-97803450D01*
X146803571Y-97803450D02*
X146875000Y-97732021D01*
X146875000Y-97732021D02*
X146910714Y-97660592D01*
X146910714Y-97660592D02*
X146946428Y-97517735D01*
X146946428Y-97517735D02*
X146946428Y-97410592D01*
X146946428Y-97410592D02*
X146910714Y-97267735D01*
X146910714Y-97267735D02*
X146875000Y-97196307D01*
X146875000Y-97196307D02*
X146803571Y-97124878D01*
X146803571Y-97124878D02*
X146696428Y-97089164D01*
X146696428Y-97089164D02*
X146625000Y-97089164D01*
X146625000Y-97089164D02*
X146517857Y-97124878D01*
X146517857Y-97124878D02*
X146482143Y-97160592D01*
X146232143Y-97089164D02*
X145732143Y-97089164D01*
X145732143Y-97089164D02*
X146053571Y-97839164D01*
X145303571Y-97089164D02*
X145232142Y-97089164D01*
X145232142Y-97089164D02*
X145160714Y-97124878D01*
X145160714Y-97124878D02*
X145125000Y-97160592D01*
X145125000Y-97160592D02*
X145089285Y-97232021D01*
X145089285Y-97232021D02*
X145053571Y-97374878D01*
X145053571Y-97374878D02*
X145053571Y-97553450D01*
X145053571Y-97553450D02*
X145089285Y-97696307D01*
X145089285Y-97696307D02*
X145125000Y-97767735D01*
X145125000Y-97767735D02*
X145160714Y-97803450D01*
X145160714Y-97803450D02*
X145232142Y-97839164D01*
X145232142Y-97839164D02*
X145303571Y-97839164D01*
X145303571Y-97839164D02*
X145375000Y-97803450D01*
X145375000Y-97803450D02*
X145410714Y-97767735D01*
X145410714Y-97767735D02*
X145446428Y-97696307D01*
X145446428Y-97696307D02*
X145482142Y-97553450D01*
X145482142Y-97553450D02*
X145482142Y-97374878D01*
X145482142Y-97374878D02*
X145446428Y-97232021D01*
X145446428Y-97232021D02*
X145410714Y-97160592D01*
X145410714Y-97160592D02*
X145375000Y-97124878D01*
X145375000Y-97124878D02*
X145303571Y-97089164D01*
X145482143Y-63767735D02*
X145517857Y-63803450D01*
X145517857Y-63803450D02*
X145625000Y-63839164D01*
X145625000Y-63839164D02*
X145696428Y-63839164D01*
X145696428Y-63839164D02*
X145803571Y-63803450D01*
X145803571Y-63803450D02*
X145875000Y-63732021D01*
X145875000Y-63732021D02*
X145910714Y-63660592D01*
X145910714Y-63660592D02*
X145946428Y-63517735D01*
X145946428Y-63517735D02*
X145946428Y-63410592D01*
X145946428Y-63410592D02*
X145910714Y-63267735D01*
X145910714Y-63267735D02*
X145875000Y-63196307D01*
X145875000Y-63196307D02*
X145803571Y-63124878D01*
X145803571Y-63124878D02*
X145696428Y-63089164D01*
X145696428Y-63089164D02*
X145625000Y-63089164D01*
X145625000Y-63089164D02*
X145517857Y-63124878D01*
X145517857Y-63124878D02*
X145482143Y-63160592D01*
X144767857Y-63839164D02*
X145196428Y-63839164D01*
X144982143Y-63839164D02*
X144982143Y-63089164D01*
X144982143Y-63089164D02*
X145053571Y-63196307D01*
X145053571Y-63196307D02*
X145125000Y-63267735D01*
X145125000Y-63267735D02*
X145196428Y-63303450D01*
X144517857Y-63089164D02*
X144017857Y-63089164D01*
X144017857Y-63089164D02*
X144339285Y-63839164D01*
X143482143Y-80227735D02*
X143517857Y-80263450D01*
X143517857Y-80263450D02*
X143625000Y-80299164D01*
X143625000Y-80299164D02*
X143696428Y-80299164D01*
X143696428Y-80299164D02*
X143803571Y-80263450D01*
X143803571Y-80263450D02*
X143875000Y-80192021D01*
X143875000Y-80192021D02*
X143910714Y-80120592D01*
X143910714Y-80120592D02*
X143946428Y-79977735D01*
X143946428Y-79977735D02*
X143946428Y-79870592D01*
X143946428Y-79870592D02*
X143910714Y-79727735D01*
X143910714Y-79727735D02*
X143875000Y-79656307D01*
X143875000Y-79656307D02*
X143803571Y-79584878D01*
X143803571Y-79584878D02*
X143696428Y-79549164D01*
X143696428Y-79549164D02*
X143625000Y-79549164D01*
X143625000Y-79549164D02*
X143517857Y-79584878D01*
X143517857Y-79584878D02*
X143482143Y-79620592D01*
X143232143Y-79549164D02*
X142767857Y-79549164D01*
X142767857Y-79549164D02*
X143017857Y-79834878D01*
X143017857Y-79834878D02*
X142910714Y-79834878D01*
X142910714Y-79834878D02*
X142839286Y-79870592D01*
X142839286Y-79870592D02*
X142803571Y-79906307D01*
X142803571Y-79906307D02*
X142767857Y-79977735D01*
X142767857Y-79977735D02*
X142767857Y-80156307D01*
X142767857Y-80156307D02*
X142803571Y-80227735D01*
X142803571Y-80227735D02*
X142839286Y-80263450D01*
X142839286Y-80263450D02*
X142910714Y-80299164D01*
X142910714Y-80299164D02*
X143125000Y-80299164D01*
X143125000Y-80299164D02*
X143196428Y-80263450D01*
X143196428Y-80263450D02*
X143232143Y-80227735D01*
X142125000Y-79799164D02*
X142125000Y-80299164D01*
X142303571Y-79513450D02*
X142482142Y-80049164D01*
X142482142Y-80049164D02*
X142017857Y-80049164D01*
X133982143Y-75339164D02*
X134232143Y-74982021D01*
X134410714Y-75339164D02*
X134410714Y-74589164D01*
X134410714Y-74589164D02*
X134125000Y-74589164D01*
X134125000Y-74589164D02*
X134053571Y-74624878D01*
X134053571Y-74624878D02*
X134017857Y-74660592D01*
X134017857Y-74660592D02*
X133982143Y-74732021D01*
X133982143Y-74732021D02*
X133982143Y-74839164D01*
X133982143Y-74839164D02*
X134017857Y-74910592D01*
X134017857Y-74910592D02*
X134053571Y-74946307D01*
X134053571Y-74946307D02*
X134125000Y-74982021D01*
X134125000Y-74982021D02*
X134410714Y-74982021D01*
X133267857Y-75339164D02*
X133696428Y-75339164D01*
X133482143Y-75339164D02*
X133482143Y-74589164D01*
X133482143Y-74589164D02*
X133553571Y-74696307D01*
X133553571Y-74696307D02*
X133625000Y-74767735D01*
X133625000Y-74767735D02*
X133696428Y-74803450D01*
X132910714Y-75339164D02*
X132767857Y-75339164D01*
X132767857Y-75339164D02*
X132696428Y-75303450D01*
X132696428Y-75303450D02*
X132660714Y-75267735D01*
X132660714Y-75267735D02*
X132589285Y-75160592D01*
X132589285Y-75160592D02*
X132553571Y-75017735D01*
X132553571Y-75017735D02*
X132553571Y-74732021D01*
X132553571Y-74732021D02*
X132589285Y-74660592D01*
X132589285Y-74660592D02*
X132625000Y-74624878D01*
X132625000Y-74624878D02*
X132696428Y-74589164D01*
X132696428Y-74589164D02*
X132839285Y-74589164D01*
X132839285Y-74589164D02*
X132910714Y-74624878D01*
X132910714Y-74624878D02*
X132946428Y-74660592D01*
X132946428Y-74660592D02*
X132982142Y-74732021D01*
X132982142Y-74732021D02*
X132982142Y-74910592D01*
X132982142Y-74910592D02*
X132946428Y-74982021D01*
X132946428Y-74982021D02*
X132910714Y-75017735D01*
X132910714Y-75017735D02*
X132839285Y-75053450D01*
X132839285Y-75053450D02*
X132696428Y-75053450D01*
X132696428Y-75053450D02*
X132625000Y-75017735D01*
X132625000Y-75017735D02*
X132589285Y-74982021D01*
X132589285Y-74982021D02*
X132553571Y-74910592D01*
X135482143Y-61517735D02*
X135517857Y-61553450D01*
X135517857Y-61553450D02*
X135625000Y-61589164D01*
X135625000Y-61589164D02*
X135696428Y-61589164D01*
X135696428Y-61589164D02*
X135803571Y-61553450D01*
X135803571Y-61553450D02*
X135875000Y-61482021D01*
X135875000Y-61482021D02*
X135910714Y-61410592D01*
X135910714Y-61410592D02*
X135946428Y-61267735D01*
X135946428Y-61267735D02*
X135946428Y-61160592D01*
X135946428Y-61160592D02*
X135910714Y-61017735D01*
X135910714Y-61017735D02*
X135875000Y-60946307D01*
X135875000Y-60946307D02*
X135803571Y-60874878D01*
X135803571Y-60874878D02*
X135696428Y-60839164D01*
X135696428Y-60839164D02*
X135625000Y-60839164D01*
X135625000Y-60839164D02*
X135517857Y-60874878D01*
X135517857Y-60874878D02*
X135482143Y-60910592D01*
X135196428Y-60910592D02*
X135160714Y-60874878D01*
X135160714Y-60874878D02*
X135089286Y-60839164D01*
X135089286Y-60839164D02*
X134910714Y-60839164D01*
X134910714Y-60839164D02*
X134839286Y-60874878D01*
X134839286Y-60874878D02*
X134803571Y-60910592D01*
X134803571Y-60910592D02*
X134767857Y-60982021D01*
X134767857Y-60982021D02*
X134767857Y-61053450D01*
X134767857Y-61053450D02*
X134803571Y-61160592D01*
X134803571Y-61160592D02*
X135232143Y-61589164D01*
X135232143Y-61589164D02*
X134767857Y-61589164D01*
X134089285Y-60839164D02*
X134446428Y-60839164D01*
X134446428Y-60839164D02*
X134482142Y-61196307D01*
X134482142Y-61196307D02*
X134446428Y-61160592D01*
X134446428Y-61160592D02*
X134375000Y-61124878D01*
X134375000Y-61124878D02*
X134196428Y-61124878D01*
X134196428Y-61124878D02*
X134125000Y-61160592D01*
X134125000Y-61160592D02*
X134089285Y-61196307D01*
X134089285Y-61196307D02*
X134053571Y-61267735D01*
X134053571Y-61267735D02*
X134053571Y-61446307D01*
X134053571Y-61446307D02*
X134089285Y-61517735D01*
X134089285Y-61517735D02*
X134125000Y-61553450D01*
X134125000Y-61553450D02*
X134196428Y-61589164D01*
X134196428Y-61589164D02*
X134375000Y-61589164D01*
X134375000Y-61589164D02*
X134446428Y-61553450D01*
X134446428Y-61553450D02*
X134482142Y-61517735D01*
X151017735Y-73517856D02*
X151053450Y-73482142D01*
X151053450Y-73482142D02*
X151089164Y-73374999D01*
X151089164Y-73374999D02*
X151089164Y-73303571D01*
X151089164Y-73303571D02*
X151053450Y-73196428D01*
X151053450Y-73196428D02*
X150982021Y-73124999D01*
X150982021Y-73124999D02*
X150910592Y-73089285D01*
X150910592Y-73089285D02*
X150767735Y-73053571D01*
X150767735Y-73053571D02*
X150660592Y-73053571D01*
X150660592Y-73053571D02*
X150517735Y-73089285D01*
X150517735Y-73089285D02*
X150446307Y-73124999D01*
X150446307Y-73124999D02*
X150374878Y-73196428D01*
X150374878Y-73196428D02*
X150339164Y-73303571D01*
X150339164Y-73303571D02*
X150339164Y-73374999D01*
X150339164Y-73374999D02*
X150374878Y-73482142D01*
X150374878Y-73482142D02*
X150410592Y-73517856D01*
X150339164Y-73767856D02*
X150339164Y-74232142D01*
X150339164Y-74232142D02*
X150624878Y-73982142D01*
X150624878Y-73982142D02*
X150624878Y-74089285D01*
X150624878Y-74089285D02*
X150660592Y-74160714D01*
X150660592Y-74160714D02*
X150696307Y-74196428D01*
X150696307Y-74196428D02*
X150767735Y-74232142D01*
X150767735Y-74232142D02*
X150946307Y-74232142D01*
X150946307Y-74232142D02*
X151017735Y-74196428D01*
X151017735Y-74196428D02*
X151053450Y-74160714D01*
X151053450Y-74160714D02*
X151089164Y-74089285D01*
X151089164Y-74089285D02*
X151089164Y-73874999D01*
X151089164Y-73874999D02*
X151053450Y-73803571D01*
X151053450Y-73803571D02*
X151017735Y-73767856D01*
X150410592Y-74517857D02*
X150374878Y-74553571D01*
X150374878Y-74553571D02*
X150339164Y-74625000D01*
X150339164Y-74625000D02*
X150339164Y-74803571D01*
X150339164Y-74803571D02*
X150374878Y-74875000D01*
X150374878Y-74875000D02*
X150410592Y-74910714D01*
X150410592Y-74910714D02*
X150482021Y-74946428D01*
X150482021Y-74946428D02*
X150553450Y-74946428D01*
X150553450Y-74946428D02*
X150660592Y-74910714D01*
X150660592Y-74910714D02*
X151089164Y-74482142D01*
X151089164Y-74482142D02*
X151089164Y-74946428D01*
X142177735Y-71017856D02*
X142213450Y-70982142D01*
X142213450Y-70982142D02*
X142249164Y-70874999D01*
X142249164Y-70874999D02*
X142249164Y-70803571D01*
X142249164Y-70803571D02*
X142213450Y-70696428D01*
X142213450Y-70696428D02*
X142142021Y-70624999D01*
X142142021Y-70624999D02*
X142070592Y-70589285D01*
X142070592Y-70589285D02*
X141927735Y-70553571D01*
X141927735Y-70553571D02*
X141820592Y-70553571D01*
X141820592Y-70553571D02*
X141677735Y-70589285D01*
X141677735Y-70589285D02*
X141606307Y-70624999D01*
X141606307Y-70624999D02*
X141534878Y-70696428D01*
X141534878Y-70696428D02*
X141499164Y-70803571D01*
X141499164Y-70803571D02*
X141499164Y-70874999D01*
X141499164Y-70874999D02*
X141534878Y-70982142D01*
X141534878Y-70982142D02*
X141570592Y-71017856D01*
X141499164Y-71660714D02*
X141499164Y-71517856D01*
X141499164Y-71517856D02*
X141534878Y-71446428D01*
X141534878Y-71446428D02*
X141570592Y-71410714D01*
X141570592Y-71410714D02*
X141677735Y-71339285D01*
X141677735Y-71339285D02*
X141820592Y-71303571D01*
X141820592Y-71303571D02*
X142106307Y-71303571D01*
X142106307Y-71303571D02*
X142177735Y-71339285D01*
X142177735Y-71339285D02*
X142213450Y-71374999D01*
X142213450Y-71374999D02*
X142249164Y-71446428D01*
X142249164Y-71446428D02*
X142249164Y-71589285D01*
X142249164Y-71589285D02*
X142213450Y-71660714D01*
X142213450Y-71660714D02*
X142177735Y-71696428D01*
X142177735Y-71696428D02*
X142106307Y-71732142D01*
X142106307Y-71732142D02*
X141927735Y-71732142D01*
X141927735Y-71732142D02*
X141856307Y-71696428D01*
X141856307Y-71696428D02*
X141820592Y-71660714D01*
X141820592Y-71660714D02*
X141784878Y-71589285D01*
X141784878Y-71589285D02*
X141784878Y-71446428D01*
X141784878Y-71446428D02*
X141820592Y-71374999D01*
X141820592Y-71374999D02*
X141856307Y-71339285D01*
X141856307Y-71339285D02*
X141927735Y-71303571D01*
X141749164Y-72375000D02*
X142249164Y-72375000D01*
X141463450Y-72196428D02*
X141999164Y-72017857D01*
X141999164Y-72017857D02*
X141999164Y-72482142D01*
X148482143Y-62517735D02*
X148517857Y-62553450D01*
X148517857Y-62553450D02*
X148625000Y-62589164D01*
X148625000Y-62589164D02*
X148696428Y-62589164D01*
X148696428Y-62589164D02*
X148803571Y-62553450D01*
X148803571Y-62553450D02*
X148875000Y-62482021D01*
X148875000Y-62482021D02*
X148910714Y-62410592D01*
X148910714Y-62410592D02*
X148946428Y-62267735D01*
X148946428Y-62267735D02*
X148946428Y-62160592D01*
X148946428Y-62160592D02*
X148910714Y-62017735D01*
X148910714Y-62017735D02*
X148875000Y-61946307D01*
X148875000Y-61946307D02*
X148803571Y-61874878D01*
X148803571Y-61874878D02*
X148696428Y-61839164D01*
X148696428Y-61839164D02*
X148625000Y-61839164D01*
X148625000Y-61839164D02*
X148517857Y-61874878D01*
X148517857Y-61874878D02*
X148482143Y-61910592D01*
X148196428Y-61910592D02*
X148160714Y-61874878D01*
X148160714Y-61874878D02*
X148089286Y-61839164D01*
X148089286Y-61839164D02*
X147910714Y-61839164D01*
X147910714Y-61839164D02*
X147839286Y-61874878D01*
X147839286Y-61874878D02*
X147803571Y-61910592D01*
X147803571Y-61910592D02*
X147767857Y-61982021D01*
X147767857Y-61982021D02*
X147767857Y-62053450D01*
X147767857Y-62053450D02*
X147803571Y-62160592D01*
X147803571Y-62160592D02*
X148232143Y-62589164D01*
X148232143Y-62589164D02*
X147767857Y-62589164D01*
X147517857Y-61839164D02*
X147053571Y-61839164D01*
X147053571Y-61839164D02*
X147303571Y-62124878D01*
X147303571Y-62124878D02*
X147196428Y-62124878D01*
X147196428Y-62124878D02*
X147125000Y-62160592D01*
X147125000Y-62160592D02*
X147089285Y-62196307D01*
X147089285Y-62196307D02*
X147053571Y-62267735D01*
X147053571Y-62267735D02*
X147053571Y-62446307D01*
X147053571Y-62446307D02*
X147089285Y-62517735D01*
X147089285Y-62517735D02*
X147125000Y-62553450D01*
X147125000Y-62553450D02*
X147196428Y-62589164D01*
X147196428Y-62589164D02*
X147410714Y-62589164D01*
X147410714Y-62589164D02*
X147482142Y-62553450D01*
X147482142Y-62553450D02*
X147517857Y-62517735D01*
D12*
X107040000Y-44900000D02*
X107040000Y-47500000D01*
X107040000Y-44900000D02*
X157960000Y-44900000D01*
X107040000Y-47500000D02*
X109640000Y-47500000D01*
X107040000Y-48770000D02*
X107040000Y-50100000D01*
X107040000Y-50100000D02*
X108370000Y-50100000D01*
X109640000Y-47500000D02*
X109640000Y-50100000D01*
X109640000Y-50100000D02*
X157960000Y-50100000D01*
X157960000Y-44900000D02*
X157960000Y-50100000D01*
X137892164Y-66140000D02*
X138107836Y-66140000D01*
X137892164Y-66860000D02*
X138107836Y-66860000D01*
X159653641Y-48620000D02*
X159346359Y-48620000D01*
X159653641Y-49380000D02*
X159346359Y-49380000D01*
X143392164Y-68890000D02*
X143607836Y-68890000D01*
X143392164Y-69610000D02*
X143607836Y-69610000D01*
X120596359Y-87870000D02*
X120903641Y-87870000D01*
X120596359Y-88630000D02*
X120903641Y-88630000D01*
X145392164Y-74390000D02*
X145607836Y-74390000D01*
X145392164Y-75110000D02*
X145607836Y-75110000D01*
X136607836Y-93890000D02*
X136392164Y-93890000D01*
X136607836Y-94610000D02*
X136392164Y-94610000D01*
X138096359Y-50870000D02*
X138403641Y-50870000D01*
X138096359Y-51630000D02*
X138403641Y-51630000D01*
X134392164Y-68390000D02*
X134607836Y-68390000D01*
X134392164Y-69110000D02*
X134607836Y-69110000D01*
X148620000Y-66903641D02*
X148620000Y-66596359D01*
X149380000Y-66903641D02*
X149380000Y-66596359D01*
X159653641Y-47620000D02*
X159346359Y-47620000D01*
X159653641Y-48380000D02*
X159346359Y-48380000D01*
X139607836Y-68890000D02*
X139392164Y-68890000D01*
X139607836Y-69610000D02*
X139392164Y-69610000D01*
X142753641Y-95620000D02*
X142446359Y-95620000D01*
X142753641Y-96380000D02*
X142446359Y-96380000D01*
X142640000Y-71392164D02*
X142640000Y-71607836D01*
X143360000Y-71392164D02*
X143360000Y-71607836D01*
X139357836Y-74640000D02*
X139142164Y-74640000D01*
X139357836Y-75360000D02*
X139142164Y-75360000D01*
X139107836Y-64140000D02*
X138892164Y-64140000D01*
X139107836Y-64860000D02*
X138892164Y-64860000D01*
X138096359Y-51870000D02*
X138403641Y-51870000D01*
X138096359Y-52630000D02*
X138403641Y-52630000D01*
X143720000Y-95346359D02*
X143720000Y-95653641D01*
X144480000Y-95346359D02*
X144480000Y-95653641D01*
X144107836Y-66140000D02*
X143892164Y-66140000D01*
X144107836Y-66860000D02*
X143892164Y-66860000D01*
X159653641Y-46620000D02*
X159346359Y-46620000D01*
X159653641Y-47380000D02*
X159346359Y-47380000D01*
X133607836Y-71890000D02*
X133392164Y-71890000D01*
X133607836Y-72610000D02*
X133392164Y-72610000D01*
X138892164Y-59140000D02*
X139107836Y-59140000D01*
X138892164Y-59860000D02*
X139107836Y-59860000D01*
X139892164Y-62140000D02*
X140107836Y-62140000D01*
X139892164Y-62860000D02*
X140107836Y-62860000D01*
X141890000Y-52892164D02*
X141890000Y-53107836D01*
X142610000Y-52892164D02*
X142610000Y-53107836D01*
X142903641Y-90370000D02*
X142596359Y-90370000D01*
X142903641Y-91130000D02*
X142596359Y-91130000D01*
X137392164Y-68390000D02*
X137607836Y-68390000D01*
X137392164Y-69110000D02*
X137607836Y-69110000D01*
X135392164Y-70890000D02*
X135607836Y-70890000D01*
X135392164Y-71610000D02*
X135607836Y-71610000D01*
X133392164Y-69890000D02*
X133607836Y-69890000D01*
X133392164Y-70610000D02*
X133607836Y-70610000D01*
X143892164Y-61140000D02*
X144107836Y-61140000D01*
X143892164Y-61860000D02*
X144107836Y-61860000D01*
X145107836Y-59140000D02*
X144892164Y-59140000D01*
X145107836Y-59860000D02*
X144892164Y-59860000D01*
X138607836Y-93890000D02*
X138392164Y-93890000D01*
X138607836Y-94610000D02*
X138392164Y-94610000D01*
X140607836Y-93890000D02*
X140392164Y-93890000D01*
X140607836Y-94610000D02*
X140392164Y-94610000D01*
X131392164Y-70890000D02*
X131607836Y-70890000D01*
X131392164Y-71610000D02*
X131607836Y-71610000D01*
X141390000Y-73392164D02*
X141390000Y-73607836D01*
X142110000Y-73392164D02*
X142110000Y-73607836D01*
X143000000Y-50850000D02*
X143000000Y-53650000D01*
X143000000Y-53650000D02*
X145000000Y-53650000D01*
X145000000Y-50850000D02*
X143000000Y-50850000D01*
X145000000Y-53650000D02*
X145000000Y-50850000D01*
X147390000Y-74357836D02*
X147390000Y-74142164D01*
X148110000Y-74357836D02*
X148110000Y-74142164D01*
X139365000Y-51340000D02*
X139365000Y-54560000D01*
X141635000Y-54135568D02*
X141635000Y-51340000D01*
X141830000Y-54570000D02*
X141640000Y-54430000D01*
X141830000Y-54290000D01*
X141830000Y-54570000D01*
G36*
X141830000Y-54570000D02*
G01*
X141640000Y-54430000D01*
X141830000Y-54290000D01*
X141830000Y-54570000D01*
G37*
X148640000Y-71142164D02*
X148640000Y-71357836D01*
X149360000Y-71142164D02*
X149360000Y-71357836D01*
X135142164Y-66640000D02*
X135357836Y-66640000D01*
X135142164Y-67360000D02*
X135357836Y-67360000D01*
X152140000Y-72892164D02*
X152140000Y-73107836D01*
X152860000Y-72892164D02*
X152860000Y-73107836D01*
X138153641Y-56020000D02*
X137846359Y-56020000D01*
X138153641Y-56780000D02*
X137846359Y-56780000D01*
X131392164Y-72890000D02*
X131607836Y-72890000D01*
X131392164Y-73610000D02*
X131607836Y-73610000D01*
X144692164Y-75440000D02*
X144907836Y-75440000D01*
X144692164Y-76160000D02*
X144907836Y-76160000D01*
X145942164Y-67240000D02*
X146157836Y-67240000D01*
X145942164Y-67960000D02*
X146157836Y-67960000D01*
X141870000Y-66903641D02*
X141870000Y-66596359D01*
X142630000Y-66903641D02*
X142630000Y-66596359D01*
X142640000Y-75392164D02*
X142640000Y-75607836D01*
X143360000Y-75392164D02*
X143360000Y-75607836D01*
X159653641Y-45620000D02*
X159346359Y-45620000D01*
X159653641Y-46380000D02*
X159346359Y-46380000D01*
X142492164Y-94640000D02*
X142707836Y-94640000D01*
X142492164Y-95360000D02*
X142707836Y-95360000D01*
X146607836Y-68890000D02*
X146392164Y-68890000D01*
X146607836Y-69610000D02*
X146392164Y-69610000D01*
X143340580Y-96840000D02*
X143059420Y-96840000D01*
X143340580Y-97860000D02*
X143059420Y-97860000D01*
X144892164Y-64140000D02*
X145107836Y-64140000D01*
X144892164Y-64860000D02*
X145107836Y-64860000D01*
X142892164Y-78440000D02*
X143107836Y-78440000D01*
X142892164Y-79160000D02*
X143107836Y-79160000D01*
X133653641Y-73495000D02*
X133346359Y-73495000D01*
X133653641Y-74255000D02*
X133346359Y-74255000D01*
X135107836Y-62140000D02*
X134892164Y-62140000D01*
X135107836Y-62860000D02*
X134892164Y-62860000D01*
X149140000Y-73892164D02*
X149140000Y-74107836D01*
X149860000Y-73892164D02*
X149860000Y-74107836D01*
X140390000Y-71607836D02*
X140390000Y-71392164D01*
X141110000Y-71607836D02*
X141110000Y-71392164D01*
X147892164Y-63140000D02*
X148107836Y-63140000D01*
X147892164Y-63860000D02*
X148107836Y-63860000D01*
%LPC*%
G36*
X143250000Y-52100000D02*
G01*
X144750000Y-52100000D01*
X144750000Y-52400000D01*
X143250000Y-52400000D01*
X143250000Y-52100000D01*
G37*
D13*
X103500000Y-47500000D03*
D14*
X160250000Y-60790000D03*
X159234000Y-55710000D03*
X161266000Y-55710000D03*
D13*
X161500000Y-96500000D03*
D15*
X108370000Y-48770000D03*
D16*
X108370000Y-46230000D03*
X110910000Y-48770000D03*
X110910000Y-46230000D03*
X113450000Y-48770000D03*
X113450000Y-46230000D03*
X115990000Y-48770000D03*
X115990000Y-46230000D03*
X118530000Y-48770000D03*
X118530000Y-46230000D03*
X121070000Y-48770000D03*
X121070000Y-46230000D03*
X123610000Y-48770000D03*
X123610000Y-46230000D03*
X126150000Y-48770000D03*
X126150000Y-46230000D03*
X128690000Y-48770000D03*
X128690000Y-46230000D03*
X131230000Y-48770000D03*
X131230000Y-46230000D03*
X133770000Y-48770000D03*
X133770000Y-46230000D03*
X136310000Y-48770000D03*
X136310000Y-46230000D03*
X138850000Y-48770000D03*
X138850000Y-46230000D03*
X141390000Y-48770000D03*
X141390000Y-46230000D03*
X143930000Y-48770000D03*
X143930000Y-46230000D03*
X146470000Y-48770000D03*
X146470000Y-46230000D03*
X149010000Y-48770000D03*
X149010000Y-46230000D03*
X151550000Y-48770000D03*
X151550000Y-46230000D03*
X154090000Y-48770000D03*
X154090000Y-46230000D03*
X156630000Y-48770000D03*
X156630000Y-46230000D03*
D17*
X137520000Y-66500000D03*
X138480000Y-66500000D03*
D18*
X160010000Y-49000000D03*
X158990000Y-49000000D03*
D17*
X143020000Y-69250000D03*
X143980000Y-69250000D03*
D19*
X120240000Y-88250000D03*
X121260000Y-88250000D03*
D17*
X145020000Y-74750000D03*
X145980000Y-74750000D03*
D20*
X136980000Y-94250000D03*
X136020000Y-94250000D03*
D19*
X137740000Y-51250000D03*
X138760000Y-51250000D03*
D17*
X134020000Y-68750000D03*
X134980000Y-68750000D03*
D21*
X149000000Y-67260000D03*
X149000000Y-66240000D03*
D18*
X160010000Y-48000000D03*
X158990000Y-48000000D03*
D20*
X139980000Y-69250000D03*
X139020000Y-69250000D03*
D18*
X143110000Y-96000000D03*
X142090000Y-96000000D03*
D22*
X143000000Y-71020000D03*
X143000000Y-71980000D03*
D20*
X139730000Y-75000000D03*
X138770000Y-75000000D03*
X139480000Y-64500000D03*
X138520000Y-64500000D03*
D19*
X137740000Y-52250000D03*
X138760000Y-52250000D03*
D23*
X144100000Y-94990000D03*
X144100000Y-96010000D03*
D20*
X144480000Y-66500000D03*
X143520000Y-66500000D03*
D18*
X160010000Y-47000000D03*
X158990000Y-47000000D03*
D20*
X133980000Y-72250000D03*
X133020000Y-72250000D03*
D17*
X138520000Y-59500000D03*
X139480000Y-59500000D03*
X139520000Y-62500000D03*
X140480000Y-62500000D03*
D22*
X142250000Y-52520000D03*
X142250000Y-53480000D03*
D18*
X143260000Y-90750000D03*
X142240000Y-90750000D03*
D17*
X137020000Y-68750000D03*
X137980000Y-68750000D03*
X135020000Y-71250000D03*
X135980000Y-71250000D03*
X133020000Y-70250000D03*
X133980000Y-70250000D03*
X143520000Y-61500000D03*
X144480000Y-61500000D03*
D20*
X145480000Y-59500000D03*
X144520000Y-59500000D03*
X138980000Y-94250000D03*
X138020000Y-94250000D03*
X140980000Y-94250000D03*
X140020000Y-94250000D03*
D17*
X131020000Y-71250000D03*
X131980000Y-71250000D03*
D22*
X141750000Y-73020000D03*
X141750000Y-73980000D03*
D24*
X144000000Y-51600000D03*
X144000000Y-52900000D03*
D25*
X147750000Y-74730000D03*
X147750000Y-73770000D03*
D26*
X141250000Y-54400000D03*
X140750000Y-54400000D03*
X140250000Y-54400000D03*
X139750000Y-54400000D03*
X139750000Y-51500000D03*
X140250000Y-51500000D03*
X140750000Y-51500000D03*
X141250000Y-51500000D03*
D27*
X140500000Y-52950000D03*
D22*
X149000000Y-70770000D03*
X149000000Y-71730000D03*
D17*
X134770000Y-67000000D03*
X135730000Y-67000000D03*
D22*
X152500000Y-72520000D03*
X152500000Y-73480000D03*
D18*
X138510000Y-56400000D03*
X137490000Y-56400000D03*
D17*
X131020000Y-73250000D03*
X131980000Y-73250000D03*
X144320000Y-75800000D03*
X145280000Y-75800000D03*
X145570000Y-67600000D03*
X146530000Y-67600000D03*
D21*
X142250000Y-67260000D03*
X142250000Y-66240000D03*
D22*
X143000000Y-75020000D03*
X143000000Y-75980000D03*
D18*
X160010000Y-46000000D03*
X158990000Y-46000000D03*
D17*
X142120000Y-95000000D03*
X143080000Y-95000000D03*
D20*
X146980000Y-69250000D03*
X146020000Y-69250000D03*
D28*
X143975000Y-97350000D03*
X142425000Y-97350000D03*
D17*
X144520000Y-64500000D03*
X145480000Y-64500000D03*
X142520000Y-78800000D03*
X143480000Y-78800000D03*
D18*
X134010000Y-73875000D03*
X132990000Y-73875000D03*
D20*
X135480000Y-62500000D03*
X134520000Y-62500000D03*
D22*
X149500000Y-73520000D03*
X149500000Y-74480000D03*
D25*
X140750000Y-71980000D03*
X140750000Y-71020000D03*
D17*
X147520000Y-63500000D03*
X148480000Y-63500000D03*
%LPD*%
M02*
