G04 #@! TF.GenerationSoftware,KiCad,Pcbnew,9.99.0-4890-gde912bdc9a*
G04 #@! TF.CreationDate,2026-01-24T23:45:41-08:00*
G04 #@! TF.ProjectId,RPi-HwAB-1,5250692d-4877-4414-922d-312e6b696361,rev?*
G04 #@! TF.SameCoordinates,Original*
G04 #@! TF.FileFunction,Paste,Top*
G04 #@! TF.FilePolarity,Positive*
%FSLAX46Y46*%
G04 Gerber Fmt 4.6, Leading zero omitted, Abs format (unit mm)*
G04 Created by KiCad (PCBNEW 9.99.0-4890-gde912bdc9a) date 2026-01-24 23:45:41*
%MOMM*%
%LPD*%
G01*
G04 APERTURE LIST*
G04 Aperture macros list*
%AMRoundRect*
0 Rectangle with rounded corners*
0 $1 Rounding radius*
0 $2 $3 $4 $5 $6 $7 $8 $9 X,Y pos of 4 corners*
0 Add a 4 corners polygon primitive as box body*
4,1,4,$2,$3,$4,$5,$6,$7,$8,$9,$2,$3,0*
0 Add four circle primitives for the rounded corners*
1,1,$1+$1,$2,$3*
1,1,$1+$1,$4,$5*
1,1,$1+$1,$6,$7*
1,1,$1+$1,$8,$9*
0 Add four rect primitives between the rounded corners*
20,1,$1+$1,$2,$3,$4,$5,0*
20,1,$1+$1,$4,$5,$6,$7,0*
20,1,$1+$1,$6,$7,$8,$9,0*
20,1,$1+$1,$8,$9,$2,$3,0*%
G04 Aperture macros list end*
%ADD10C,0.010000*%
%ADD11RoundRect,0.082500X-0.205000X0.192500X-0.205000X-0.192500X0.205000X-0.192500X0.205000X0.192500X0*%
%ADD12RoundRect,0.037500X-0.087500X0.237500X-0.087500X-0.237500X0.087500X-0.237500X0.087500X0.237500X0*%
%ADD13RoundRect,0.245000X1.455000X-0.245000X1.455000X0.245000X-1.455000X0.245000X-1.455000X-0.245000X0*%
%ADD14RoundRect,0.135000X-0.135000X-0.185000X0.135000X-0.185000X0.135000X0.185000X-0.135000X0.185000X0*%
%ADD15RoundRect,0.140000X-0.170000X0.140000X-0.170000X-0.140000X0.170000X-0.140000X0.170000X0.140000X0*%
%ADD16RoundRect,0.135000X0.185000X-0.135000X0.185000X0.135000X-0.185000X0.135000X-0.185000X-0.135000X0*%
%ADD17RoundRect,0.245000X-1.455000X0.245000X-1.455000X-0.245000X1.455000X-0.245000X1.455000X0.245000X0*%
%ADD18RoundRect,0.135000X0.135000X0.185000X-0.135000X0.185000X-0.135000X-0.185000X0.135000X-0.185000X0*%
%ADD19RoundRect,0.140000X0.140000X0.170000X-0.140000X0.170000X-0.140000X-0.170000X0.140000X-0.170000X0*%
%ADD20RoundRect,0.250000X0.650000X-0.325000X0.650000X0.325000X-0.650000X0.325000X-0.650000X-0.325000X0*%
%ADD21RoundRect,0.225000X0.250000X-0.225000X0.250000X0.225000X-0.250000X0.225000X-0.250000X-0.225000X0*%
%ADD22RoundRect,0.135000X-0.185000X0.135000X-0.185000X-0.135000X0.185000X-0.135000X0.185000X0.135000X0*%
%ADD23RoundRect,0.218750X0.256250X-0.218750X0.256250X0.218750X-0.256250X0.218750X-0.256250X-0.218750X0*%
%ADD24RoundRect,0.250000X-0.625000X0.312500X-0.625000X-0.312500X0.625000X-0.312500X0.625000X0.312500X0*%
%ADD25RoundRect,0.250000X0.325000X0.650000X-0.325000X0.650000X-0.325000X-0.650000X0.325000X-0.650000X0*%
%ADD26RoundRect,0.225000X0.225000X0.250000X-0.225000X0.250000X-0.225000X-0.250000X0.225000X-0.250000X0*%
%ADD27C,0.520000*%
%ADD28RoundRect,0.218750X-0.256250X0.218750X-0.256250X-0.218750X0.256250X-0.218750X0.256250X0.218750X0*%
%ADD29RoundRect,0.140000X0.170000X-0.140000X0.170000X0.140000X-0.170000X0.140000X-0.170000X-0.140000X0*%
%ADD30RoundRect,0.225000X-0.250000X0.225000X-0.250000X-0.225000X0.250000X-0.225000X0.250000X0.225000X0*%
%ADD31RoundRect,0.225000X-0.225000X-0.250000X0.225000X-0.250000X0.225000X0.250000X-0.225000X0.250000X0*%
%ADD32C,0.500000*%
%ADD33RoundRect,0.160000X-0.160000X0.160000X-0.160000X-0.160000X0.160000X-0.160000X0.160000X0.160000X0*%
%ADD34RoundRect,0.062500X-0.062500X0.375000X-0.062500X-0.375000X0.062500X-0.375000X0.062500X0.375000X0*%
%ADD35RoundRect,0.062500X-0.375000X0.062500X-0.375000X-0.062500X0.375000X-0.062500X0.375000X0.062500X0*%
%ADD36RoundRect,0.140000X-0.205000X-0.140000X0.205000X-0.140000X0.205000X0.140000X-0.205000X0.140000X0*%
%ADD37RoundRect,0.062500X-0.337500X-0.062500X0.337500X-0.062500X0.337500X0.062500X-0.337500X0.062500X0*%
%ADD38RoundRect,0.250000X0.275000X-0.250000X0.275000X0.250000X-0.275000X0.250000X-0.275000X-0.250000X0*%
%ADD39RoundRect,0.162500X0.162500X-0.337500X0.162500X0.337500X-0.162500X0.337500X-0.162500X-0.337500X0*%
%ADD40RoundRect,0.218750X0.218750X0.256250X-0.218750X0.256250X-0.218750X-0.256250X0.218750X-0.256250X0*%
%ADD41R,1.300000X0.300000*%
%ADD42R,2.200000X1.800000*%
%ADD43RoundRect,0.250000X-0.435000X-0.555000X0.435000X-0.555000X0.435000X0.555000X-0.435000X0.555000X0*%
%ADD44RoundRect,0.125000X-0.262500X-0.125000X0.262500X-0.125000X0.262500X0.125000X-0.262500X0.125000X0*%
%ADD45RoundRect,0.250000X-0.295000X-0.295000X0.295000X-0.295000X0.295000X0.295000X-0.295000X0.295000X0*%
%ADD46RoundRect,0.050000X-0.362500X-0.050000X0.362500X-0.050000X0.362500X0.050000X-0.362500X0.050000X0*%
%ADD47RoundRect,0.050000X-0.050000X-0.362500X0.050000X-0.362500X0.050000X0.362500X-0.050000X0.362500X0*%
%ADD48RoundRect,0.250000X0.625000X-0.312500X0.625000X0.312500X-0.625000X0.312500X-0.625000X-0.312500X0*%
G04 APERTURE END LIST*
D10*
X122770500Y-89676000D02*
X122772500Y-89676000D01*
X122775500Y-89677000D01*
X122777500Y-89677000D01*
X122780500Y-89678000D01*
X122782500Y-89679000D01*
X122785500Y-89680000D01*
X122787500Y-89682000D01*
X122789500Y-89683000D01*
X122791500Y-89685000D01*
X122793500Y-89686000D01*
X122795500Y-89688000D01*
X122797500Y-89690000D01*
X122799500Y-89692000D01*
X122801500Y-89694000D01*
X122802500Y-89696000D01*
X122804500Y-89698000D01*
X122805500Y-89700000D01*
X122807500Y-89702000D01*
X122808500Y-89705000D01*
X122809500Y-89707000D01*
X122810500Y-89710000D01*
X122810500Y-89712000D01*
X122811500Y-89715000D01*
X122811500Y-89717000D01*
X122812500Y-89720000D01*
X122812500Y-89722000D01*
X122812500Y-89725000D01*
X122812500Y-90425000D01*
X122812500Y-90428000D01*
X122812500Y-90430000D01*
X122811500Y-90433000D01*
X122811500Y-90435000D01*
X122810500Y-90438000D01*
X122810500Y-90440000D01*
X122809500Y-90443000D01*
X122808500Y-90445000D01*
X122807500Y-90448000D01*
X122805500Y-90450000D01*
X122804500Y-90452000D01*
X122802500Y-90454000D01*
X122801500Y-90456000D01*
X122799500Y-90458000D01*
X122797500Y-90460000D01*
X122795500Y-90462000D01*
X122793500Y-90464000D01*
X122791500Y-90465000D01*
X122789500Y-90467000D01*
X122787500Y-90468000D01*
X122785500Y-90470000D01*
X122782500Y-90471000D01*
X122780500Y-90472000D01*
X122777500Y-90473000D01*
X122775500Y-90473000D01*
X122772500Y-90474000D01*
X122770500Y-90474000D01*
X122767500Y-90475000D01*
X122765500Y-90475000D01*
X122762500Y-90475000D01*
X121562500Y-90475000D01*
X121559500Y-90475000D01*
X121557500Y-90475000D01*
X121554500Y-90474000D01*
X121552500Y-90474000D01*
X121549500Y-90473000D01*
X121547500Y-90473000D01*
X121544500Y-90472000D01*
X121542500Y-90471000D01*
X121539500Y-90470000D01*
X121537500Y-90468000D01*
X121535500Y-90467000D01*
X121533500Y-90465000D01*
X121531500Y-90464000D01*
X121529500Y-90462000D01*
X121527500Y-90460000D01*
X121525500Y-90458000D01*
X121523500Y-90456000D01*
X121522500Y-90454000D01*
X121520500Y-90452000D01*
X121519500Y-90450000D01*
X121517500Y-90448000D01*
X121516500Y-90445000D01*
X121515500Y-90443000D01*
X121514500Y-90440000D01*
X121514500Y-90438000D01*
X121513500Y-90435000D01*
X121513500Y-90433000D01*
X121512500Y-90430000D01*
X121512500Y-90428000D01*
X121512500Y-90425000D01*
X121512500Y-89725000D01*
X121512500Y-89722000D01*
X121512500Y-89720000D01*
X121513500Y-89717000D01*
X121513500Y-89715000D01*
X121514500Y-89712000D01*
X121514500Y-89710000D01*
X121515500Y-89707000D01*
X121516500Y-89705000D01*
X121517500Y-89702000D01*
X121519500Y-89700000D01*
X121520500Y-89698000D01*
X121522500Y-89696000D01*
X121523500Y-89694000D01*
X121525500Y-89692000D01*
X121527500Y-89690000D01*
X121529500Y-89688000D01*
X121531500Y-89686000D01*
X121533500Y-89685000D01*
X121535500Y-89683000D01*
X121537500Y-89682000D01*
X121539500Y-89680000D01*
X121542500Y-89679000D01*
X121544500Y-89678000D01*
X121547500Y-89677000D01*
X121549500Y-89677000D01*
X121552500Y-89676000D01*
X121554500Y-89676000D01*
X121557500Y-89675000D01*
X121559500Y-89675000D01*
X121562500Y-89675000D01*
X122762500Y-89675000D01*
X122765500Y-89675000D01*
X122767500Y-89675000D01*
X122770500Y-89676000D01*
G36*
X122770500Y-89676000D02*
G01*
X122772500Y-89676000D01*
X122775500Y-89677000D01*
X122777500Y-89677000D01*
X122780500Y-89678000D01*
X122782500Y-89679000D01*
X122785500Y-89680000D01*
X122787500Y-89682000D01*
X122789500Y-89683000D01*
X122791500Y-89685000D01*
X122793500Y-89686000D01*
X122795500Y-89688000D01*
X122797500Y-89690000D01*
X122799500Y-89692000D01*
X122801500Y-89694000D01*
X122802500Y-89696000D01*
X122804500Y-89698000D01*
X122805500Y-89700000D01*
X122807500Y-89702000D01*
X122808500Y-89705000D01*
X122809500Y-89707000D01*
X122810500Y-89710000D01*
X122810500Y-89712000D01*
X122811500Y-89715000D01*
X122811500Y-89717000D01*
X122812500Y-89720000D01*
X122812500Y-89722000D01*
X122812500Y-89725000D01*
X122812500Y-90425000D01*
X122812500Y-90428000D01*
X122812500Y-90430000D01*
X122811500Y-90433000D01*
X122811500Y-90435000D01*
X122810500Y-90438000D01*
X122810500Y-90440000D01*
X122809500Y-90443000D01*
X122808500Y-90445000D01*
X122807500Y-90448000D01*
X122805500Y-90450000D01*
X122804500Y-90452000D01*
X122802500Y-90454000D01*
X122801500Y-90456000D01*
X122799500Y-90458000D01*
X122797500Y-90460000D01*
X122795500Y-90462000D01*
X122793500Y-90464000D01*
X122791500Y-90465000D01*
X122789500Y-90467000D01*
X122787500Y-90468000D01*
X122785500Y-90470000D01*
X122782500Y-90471000D01*
X122780500Y-90472000D01*
X122777500Y-90473000D01*
X122775500Y-90473000D01*
X122772500Y-90474000D01*
X122770500Y-90474000D01*
X122767500Y-90475000D01*
X122765500Y-90475000D01*
X122762500Y-90475000D01*
X121562500Y-90475000D01*
X121559500Y-90475000D01*
X121557500Y-90475000D01*
X121554500Y-90474000D01*
X121552500Y-90474000D01*
X121549500Y-90473000D01*
X121547500Y-90473000D01*
X121544500Y-90472000D01*
X121542500Y-90471000D01*
X121539500Y-90470000D01*
X121537500Y-90468000D01*
X121535500Y-90467000D01*
X121533500Y-90465000D01*
X121531500Y-90464000D01*
X121529500Y-90462000D01*
X121527500Y-90460000D01*
X121525500Y-90458000D01*
X121523500Y-90456000D01*
X121522500Y-90454000D01*
X121520500Y-90452000D01*
X121519500Y-90450000D01*
X121517500Y-90448000D01*
X121516500Y-90445000D01*
X121515500Y-90443000D01*
X121514500Y-90440000D01*
X121514500Y-90438000D01*
X121513500Y-90435000D01*
X121513500Y-90433000D01*
X121512500Y-90430000D01*
X121512500Y-90428000D01*
X121512500Y-90425000D01*
X121512500Y-89725000D01*
X121512500Y-89722000D01*
X121512500Y-89720000D01*
X121513500Y-89717000D01*
X121513500Y-89715000D01*
X121514500Y-89712000D01*
X121514500Y-89710000D01*
X121515500Y-89707000D01*
X121516500Y-89705000D01*
X121517500Y-89702000D01*
X121519500Y-89700000D01*
X121520500Y-89698000D01*
X121522500Y-89696000D01*
X121523500Y-89694000D01*
X121525500Y-89692000D01*
X121527500Y-89690000D01*
X121529500Y-89688000D01*
X121531500Y-89686000D01*
X121533500Y-89685000D01*
X121535500Y-89683000D01*
X121537500Y-89682000D01*
X121539500Y-89680000D01*
X121542500Y-89679000D01*
X121544500Y-89678000D01*
X121547500Y-89677000D01*
X121549500Y-89677000D01*
X121552500Y-89676000D01*
X121554500Y-89676000D01*
X121557500Y-89675000D01*
X121559500Y-89675000D01*
X121562500Y-89675000D01*
X122762500Y-89675000D01*
X122765500Y-89675000D01*
X122767500Y-89675000D01*
X122770500Y-89676000D01*
G37*
X124270500Y-89676000D02*
X124272500Y-89676000D01*
X124275500Y-89677000D01*
X124277500Y-89677000D01*
X124280500Y-89678000D01*
X124282500Y-89679000D01*
X124285500Y-89680000D01*
X124287500Y-89682000D01*
X124289500Y-89683000D01*
X124291500Y-89685000D01*
X124293500Y-89686000D01*
X124295500Y-89688000D01*
X124297500Y-89690000D01*
X124299500Y-89692000D01*
X124301500Y-89694000D01*
X124302500Y-89696000D01*
X124304500Y-89698000D01*
X124305500Y-89700000D01*
X124307500Y-89702000D01*
X124308500Y-89705000D01*
X124309500Y-89707000D01*
X124310500Y-89710000D01*
X124310500Y-89712000D01*
X124311500Y-89715000D01*
X124311500Y-89717000D01*
X124312500Y-89720000D01*
X124312500Y-89722000D01*
X124312500Y-89725000D01*
X124312500Y-90425000D01*
X124312500Y-90428000D01*
X124312500Y-90430000D01*
X124311500Y-90433000D01*
X124311500Y-90435000D01*
X124310500Y-90438000D01*
X124310500Y-90440000D01*
X124309500Y-90443000D01*
X124308500Y-90445000D01*
X124307500Y-90448000D01*
X124305500Y-90450000D01*
X124304500Y-90452000D01*
X124302500Y-90454000D01*
X124301500Y-90456000D01*
X124299500Y-90458000D01*
X124297500Y-90460000D01*
X124295500Y-90462000D01*
X124293500Y-90464000D01*
X124291500Y-90465000D01*
X124289500Y-90467000D01*
X124287500Y-90468000D01*
X124285500Y-90470000D01*
X124282500Y-90471000D01*
X124280500Y-90472000D01*
X124277500Y-90473000D01*
X124275500Y-90473000D01*
X124272500Y-90474000D01*
X124270500Y-90474000D01*
X124267500Y-90475000D01*
X124265500Y-90475000D01*
X124262500Y-90475000D01*
X123062500Y-90475000D01*
X123059500Y-90475000D01*
X123057500Y-90475000D01*
X123054500Y-90474000D01*
X123052500Y-90474000D01*
X123049500Y-90473000D01*
X123047500Y-90473000D01*
X123044500Y-90472000D01*
X123042500Y-90471000D01*
X123039500Y-90470000D01*
X123037500Y-90468000D01*
X123035500Y-90467000D01*
X123033500Y-90465000D01*
X123031500Y-90464000D01*
X123029500Y-90462000D01*
X123027500Y-90460000D01*
X123025500Y-90458000D01*
X123023500Y-90456000D01*
X123022500Y-90454000D01*
X123020500Y-90452000D01*
X123019500Y-90450000D01*
X123017500Y-90448000D01*
X123016500Y-90445000D01*
X123015500Y-90443000D01*
X123014500Y-90440000D01*
X123014500Y-90438000D01*
X123013500Y-90435000D01*
X123013500Y-90433000D01*
X123012500Y-90430000D01*
X123012500Y-90428000D01*
X123012500Y-90425000D01*
X123012500Y-89725000D01*
X123012500Y-89722000D01*
X123012500Y-89720000D01*
X123013500Y-89717000D01*
X123013500Y-89715000D01*
X123014500Y-89712000D01*
X123014500Y-89710000D01*
X123015500Y-89707000D01*
X123016500Y-89705000D01*
X123017500Y-89702000D01*
X123019500Y-89700000D01*
X123020500Y-89698000D01*
X123022500Y-89696000D01*
X123023500Y-89694000D01*
X123025500Y-89692000D01*
X123027500Y-89690000D01*
X123029500Y-89688000D01*
X123031500Y-89686000D01*
X123033500Y-89685000D01*
X123035500Y-89683000D01*
X123037500Y-89682000D01*
X123039500Y-89680000D01*
X123042500Y-89679000D01*
X123044500Y-89678000D01*
X123047500Y-89677000D01*
X123049500Y-89677000D01*
X123052500Y-89676000D01*
X123054500Y-89676000D01*
X123057500Y-89675000D01*
X123059500Y-89675000D01*
X123062500Y-89675000D01*
X124262500Y-89675000D01*
X124265500Y-89675000D01*
X124267500Y-89675000D01*
X124270500Y-89676000D01*
G36*
X124270500Y-89676000D02*
G01*
X124272500Y-89676000D01*
X124275500Y-89677000D01*
X124277500Y-89677000D01*
X124280500Y-89678000D01*
X124282500Y-89679000D01*
X124285500Y-89680000D01*
X124287500Y-89682000D01*
X124289500Y-89683000D01*
X124291500Y-89685000D01*
X124293500Y-89686000D01*
X124295500Y-89688000D01*
X124297500Y-89690000D01*
X124299500Y-89692000D01*
X124301500Y-89694000D01*
X124302500Y-89696000D01*
X124304500Y-89698000D01*
X124305500Y-89700000D01*
X124307500Y-89702000D01*
X124308500Y-89705000D01*
X124309500Y-89707000D01*
X124310500Y-89710000D01*
X124310500Y-89712000D01*
X124311500Y-89715000D01*
X124311500Y-89717000D01*
X124312500Y-89720000D01*
X124312500Y-89722000D01*
X124312500Y-89725000D01*
X124312500Y-90425000D01*
X124312500Y-90428000D01*
X124312500Y-90430000D01*
X124311500Y-90433000D01*
X124311500Y-90435000D01*
X124310500Y-90438000D01*
X124310500Y-90440000D01*
X124309500Y-90443000D01*
X124308500Y-90445000D01*
X124307500Y-90448000D01*
X124305500Y-90450000D01*
X124304500Y-90452000D01*
X124302500Y-90454000D01*
X124301500Y-90456000D01*
X124299500Y-90458000D01*
X124297500Y-90460000D01*
X124295500Y-90462000D01*
X124293500Y-90464000D01*
X124291500Y-90465000D01*
X124289500Y-90467000D01*
X124287500Y-90468000D01*
X124285500Y-90470000D01*
X124282500Y-90471000D01*
X124280500Y-90472000D01*
X124277500Y-90473000D01*
X124275500Y-90473000D01*
X124272500Y-90474000D01*
X124270500Y-90474000D01*
X124267500Y-90475000D01*
X124265500Y-90475000D01*
X124262500Y-90475000D01*
X123062500Y-90475000D01*
X123059500Y-90475000D01*
X123057500Y-90475000D01*
X123054500Y-90474000D01*
X123052500Y-90474000D01*
X123049500Y-90473000D01*
X123047500Y-90473000D01*
X123044500Y-90472000D01*
X123042500Y-90471000D01*
X123039500Y-90470000D01*
X123037500Y-90468000D01*
X123035500Y-90467000D01*
X123033500Y-90465000D01*
X123031500Y-90464000D01*
X123029500Y-90462000D01*
X123027500Y-90460000D01*
X123025500Y-90458000D01*
X123023500Y-90456000D01*
X123022500Y-90454000D01*
X123020500Y-90452000D01*
X123019500Y-90450000D01*
X123017500Y-90448000D01*
X123016500Y-90445000D01*
X123015500Y-90443000D01*
X123014500Y-90440000D01*
X123014500Y-90438000D01*
X123013500Y-90435000D01*
X123013500Y-90433000D01*
X123012500Y-90430000D01*
X123012500Y-90428000D01*
X123012500Y-90425000D01*
X123012500Y-89725000D01*
X123012500Y-89722000D01*
X123012500Y-89720000D01*
X123013500Y-89717000D01*
X123013500Y-89715000D01*
X123014500Y-89712000D01*
X123014500Y-89710000D01*
X123015500Y-89707000D01*
X123016500Y-89705000D01*
X123017500Y-89702000D01*
X123019500Y-89700000D01*
X123020500Y-89698000D01*
X123022500Y-89696000D01*
X123023500Y-89694000D01*
X123025500Y-89692000D01*
X123027500Y-89690000D01*
X123029500Y-89688000D01*
X123031500Y-89686000D01*
X123033500Y-89685000D01*
X123035500Y-89683000D01*
X123037500Y-89682000D01*
X123039500Y-89680000D01*
X123042500Y-89679000D01*
X123044500Y-89678000D01*
X123047500Y-89677000D01*
X123049500Y-89677000D01*
X123052500Y-89676000D01*
X123054500Y-89676000D01*
X123057500Y-89675000D01*
X123059500Y-89675000D01*
X123062500Y-89675000D01*
X124262500Y-89675000D01*
X124265500Y-89675000D01*
X124267500Y-89675000D01*
X124270500Y-89676000D01*
G37*
D11*
X124075000Y-89000000D03*
D12*
X123412500Y-89000000D03*
X122912500Y-89000000D03*
X122412500Y-89000000D03*
D11*
X121750000Y-89000000D03*
X121750000Y-91150000D03*
D12*
X122412500Y-91150000D03*
X122912500Y-91150000D03*
X123412500Y-91150000D03*
D11*
X124075000Y-91150000D03*
D13*
X105750000Y-86935000D03*
X105750000Y-84565000D03*
D14*
X113490000Y-98000000D03*
X114510000Y-98000000D03*
D15*
X111590000Y-61070000D03*
X111590000Y-62030000D03*
D16*
X161750000Y-83010000D03*
X161750000Y-81990000D03*
D17*
X115250000Y-92565000D03*
X115250000Y-94935000D03*
D18*
X138710000Y-51600000D03*
X137690000Y-51600000D03*
D19*
X154480000Y-51600000D03*
X153520000Y-51600000D03*
D20*
X126750000Y-63725000D03*
X126750000Y-60775000D03*
D21*
X128750000Y-63025000D03*
X128750000Y-61475000D03*
D22*
X112250000Y-94240000D03*
X112250000Y-95260000D03*
D17*
X105750000Y-92565000D03*
X105750000Y-94935000D03*
D20*
X157250000Y-72725000D03*
X157250000Y-69775000D03*
D16*
X158750000Y-83010000D03*
X158750000Y-81990000D03*
D15*
X124250000Y-54520000D03*
X124250000Y-55480000D03*
D21*
X155250000Y-71775000D03*
X155250000Y-70225000D03*
D16*
X158750000Y-81010000D03*
X158750000Y-79990000D03*
D22*
X118500000Y-62990000D03*
X118500000Y-64010000D03*
D23*
X128500000Y-58287500D03*
X128500000Y-56712500D03*
D19*
X160730000Y-88000000D03*
X159770000Y-88000000D03*
D24*
X107950000Y-60087500D03*
X107950000Y-63012500D03*
D14*
X147990000Y-96250000D03*
X149010000Y-96250000D03*
D21*
X125412500Y-90850000D03*
X125412500Y-89300000D03*
D15*
X159750000Y-82020000D03*
X159750000Y-82980000D03*
D25*
X135725000Y-53750000D03*
X132775000Y-53750000D03*
X143225000Y-53750000D03*
X140275000Y-53750000D03*
D18*
X138710000Y-50600000D03*
X137690000Y-50600000D03*
D22*
X108750000Y-94240000D03*
X108750000Y-95260000D03*
D26*
X105625000Y-90500000D03*
X104075000Y-90500000D03*
D22*
X127000000Y-56990000D03*
X127000000Y-58010000D03*
D27*
X136400000Y-94000000D03*
X136400000Y-93200000D03*
X136400000Y-92400000D03*
X136400000Y-89200000D03*
X136400000Y-88400000D03*
X136400000Y-87600000D03*
X137200000Y-94000000D03*
X137200000Y-93200000D03*
X137200000Y-92400000D03*
X137200000Y-89200000D03*
X137200000Y-88400000D03*
X137200000Y-87600000D03*
X138000000Y-94000000D03*
X138000000Y-93200000D03*
X138000000Y-92400000D03*
X138000000Y-89200000D03*
X138000000Y-88400000D03*
X138000000Y-87600000D03*
X138800000Y-94000000D03*
X138800000Y-93200000D03*
X138800000Y-92400000D03*
X138800000Y-89200000D03*
X138800000Y-88400000D03*
X138800000Y-87600000D03*
X139600000Y-94000000D03*
X139600000Y-93200000D03*
X139600000Y-92400000D03*
X139600000Y-89200000D03*
X139600000Y-88400000D03*
X139600000Y-87600000D03*
X140400000Y-94000000D03*
X140400000Y-93200000D03*
X140400000Y-92400000D03*
X140400000Y-89200000D03*
X140400000Y-88400000D03*
X140400000Y-87600000D03*
X141200000Y-94000000D03*
X141200000Y-93200000D03*
X141200000Y-92400000D03*
X141200000Y-89200000D03*
X141200000Y-88400000D03*
X141200000Y-87600000D03*
X142000000Y-94000000D03*
X142000000Y-93200000D03*
X142000000Y-92400000D03*
X142000000Y-89200000D03*
X142000000Y-88400000D03*
X142000000Y-87600000D03*
X142800000Y-94000000D03*
X142800000Y-93200000D03*
X142800000Y-92400000D03*
X142800000Y-89200000D03*
X142800000Y-88400000D03*
X142800000Y-87600000D03*
X143600000Y-94000000D03*
X143600000Y-93200000D03*
X143600000Y-92400000D03*
X143600000Y-89200000D03*
X143600000Y-88400000D03*
X143600000Y-87600000D03*
X144400000Y-94000000D03*
X144400000Y-93200000D03*
X144400000Y-92400000D03*
X144400000Y-89200000D03*
X144400000Y-88400000D03*
X144400000Y-87600000D03*
X145200000Y-94000000D03*
X145200000Y-93200000D03*
X145200000Y-92400000D03*
X145200000Y-89200000D03*
X145200000Y-88400000D03*
X145200000Y-87600000D03*
X146000000Y-94000000D03*
X146000000Y-93200000D03*
X146000000Y-92400000D03*
X146000000Y-89200000D03*
X146000000Y-88400000D03*
X146000000Y-87600000D03*
X146800000Y-94000000D03*
X146800000Y-93200000D03*
X146800000Y-92400000D03*
X146800000Y-89200000D03*
X146800000Y-88400000D03*
X146800000Y-87600000D03*
X147600000Y-94000000D03*
X147600000Y-93200000D03*
X147600000Y-92400000D03*
X147600000Y-89200000D03*
X147600000Y-88400000D03*
X147600000Y-87600000D03*
X148400000Y-94000000D03*
X148400000Y-93200000D03*
X148400000Y-92400000D03*
X148400000Y-89200000D03*
X148400000Y-88400000D03*
X148400000Y-87600000D03*
D15*
X120662500Y-88845000D03*
X120662500Y-89805000D03*
D28*
X117000000Y-62712500D03*
X117000000Y-64287500D03*
D18*
X124672500Y-92325000D03*
X123652500Y-92325000D03*
D19*
X127230000Y-77250000D03*
X126270000Y-77250000D03*
D26*
X105625000Y-89000000D03*
X104075000Y-89000000D03*
D15*
X126400000Y-94870000D03*
X126400000Y-95830000D03*
D18*
X114760000Y-74500000D03*
X113740000Y-74500000D03*
D29*
X105950000Y-56130000D03*
X105950000Y-55170000D03*
D30*
X118500000Y-84975000D03*
X118500000Y-86525000D03*
D22*
X109750000Y-94240000D03*
X109750000Y-95260000D03*
D31*
X115375000Y-90500000D03*
X116925000Y-90500000D03*
X109725000Y-85500000D03*
X111275000Y-85500000D03*
D18*
X110650000Y-61000000D03*
X109630000Y-61000000D03*
D32*
X131500000Y-79500000D03*
X131500000Y-78500000D03*
X131500000Y-77500000D03*
X131500000Y-76500000D03*
X131500000Y-75500000D03*
X131500000Y-74500000D03*
X131500000Y-73500000D03*
X131500000Y-72500000D03*
X131500000Y-71500000D03*
X131500000Y-70500000D03*
X131500000Y-69500000D03*
X131500000Y-68500000D03*
X131500000Y-67500000D03*
X131500000Y-66500000D03*
X131500000Y-65500000D03*
X131500000Y-64500000D03*
X131500000Y-63500000D03*
X131500000Y-62500000D03*
X131500000Y-61500000D03*
X131500000Y-60500000D03*
X131500000Y-59500000D03*
X131500000Y-58500000D03*
X151500000Y-79500000D03*
X151500000Y-78500000D03*
X151500000Y-77500000D03*
X151500000Y-76500000D03*
X151500000Y-75500000D03*
X151500000Y-74500000D03*
X151500000Y-73500000D03*
X151500000Y-72500000D03*
X151500000Y-71500000D03*
X151500000Y-70500000D03*
X151500000Y-69500000D03*
X151500000Y-68500000D03*
X151500000Y-67500000D03*
X151500000Y-66500000D03*
X151500000Y-65500000D03*
X151500000Y-64500000D03*
X151500000Y-63500000D03*
X151500000Y-62500000D03*
X151500000Y-61500000D03*
X151500000Y-60500000D03*
X151500000Y-59500000D03*
X151500000Y-58500000D03*
X152500000Y-79500000D03*
X152500000Y-78500000D03*
X152500000Y-77500000D03*
X152500000Y-76500000D03*
X152500000Y-75500000D03*
X152500000Y-74500000D03*
X152500000Y-73500000D03*
X152500000Y-72500000D03*
X152500000Y-71500000D03*
X152500000Y-70500000D03*
X152500000Y-69500000D03*
X152500000Y-68500000D03*
X152500000Y-67500000D03*
X152500000Y-66500000D03*
X152500000Y-65500000D03*
X152500000Y-64500000D03*
X152500000Y-63500000D03*
X152500000Y-62500000D03*
X152500000Y-61500000D03*
X152500000Y-60500000D03*
X152500000Y-59500000D03*
X152500000Y-58500000D03*
X132500000Y-79500000D03*
X132500000Y-78500000D03*
X132500000Y-77500000D03*
X132500000Y-76500000D03*
X132500000Y-75500000D03*
X132500000Y-74500000D03*
X132500000Y-73500000D03*
X132500000Y-72500000D03*
X132500000Y-71500000D03*
X132500000Y-70500000D03*
X132500000Y-69500000D03*
X132500000Y-68500000D03*
X132500000Y-67500000D03*
X132500000Y-66500000D03*
X132500000Y-65500000D03*
X132500000Y-64500000D03*
X132500000Y-63500000D03*
X132500000Y-62500000D03*
X132500000Y-61500000D03*
X132500000Y-60500000D03*
X132500000Y-59500000D03*
X132500000Y-58500000D03*
X133500000Y-79500000D03*
X133500000Y-78500000D03*
X133500000Y-77500000D03*
X133500000Y-76500000D03*
X133500000Y-75500000D03*
X133500000Y-74500000D03*
X133500000Y-73500000D03*
X133500000Y-72500000D03*
X133500000Y-71500000D03*
X133500000Y-70500000D03*
X133500000Y-69500000D03*
X133500000Y-68500000D03*
X133500000Y-67500000D03*
X133500000Y-66500000D03*
X133500000Y-65500000D03*
X133500000Y-64500000D03*
X133500000Y-63500000D03*
X133500000Y-62500000D03*
X133500000Y-61500000D03*
X133500000Y-60500000D03*
X133500000Y-59500000D03*
X133500000Y-58500000D03*
X134500000Y-79500000D03*
X134500000Y-78500000D03*
X134500000Y-77500000D03*
X134500000Y-76500000D03*
X134500000Y-75500000D03*
X134500000Y-74500000D03*
X134500000Y-73500000D03*
X134500000Y-72500000D03*
X134500000Y-71500000D03*
X134500000Y-70500000D03*
X134500000Y-69500000D03*
X134500000Y-68500000D03*
X134500000Y-67500000D03*
X134500000Y-66500000D03*
X134500000Y-65500000D03*
X134500000Y-64500000D03*
X134500000Y-63500000D03*
X134500000Y-62500000D03*
X134500000Y-61500000D03*
X134500000Y-60500000D03*
X134500000Y-59500000D03*
X134500000Y-58500000D03*
X135500000Y-79500000D03*
X135500000Y-78500000D03*
X135500000Y-77500000D03*
X135500000Y-76500000D03*
X135500000Y-75500000D03*
X135500000Y-74500000D03*
X135500000Y-73500000D03*
X135500000Y-72500000D03*
X135500000Y-71500000D03*
X135500000Y-70500000D03*
X135500000Y-69500000D03*
X135500000Y-68500000D03*
X135500000Y-67500000D03*
X135500000Y-66500000D03*
X135500000Y-65500000D03*
X135500000Y-64500000D03*
X135500000Y-63500000D03*
X135500000Y-62500000D03*
X135500000Y-61500000D03*
X135500000Y-60500000D03*
X135500000Y-59500000D03*
X135500000Y-58500000D03*
X136500000Y-79500000D03*
X136500000Y-78500000D03*
X136500000Y-77500000D03*
X136500000Y-76500000D03*
X136500000Y-75500000D03*
X136500000Y-74500000D03*
X136500000Y-73500000D03*
X136500000Y-72500000D03*
X136500000Y-71500000D03*
X136500000Y-70500000D03*
X136500000Y-69500000D03*
X136500000Y-68500000D03*
X136500000Y-67500000D03*
X136500000Y-66500000D03*
X136500000Y-65500000D03*
X136500000Y-64500000D03*
X136500000Y-63500000D03*
X136500000Y-62500000D03*
X136500000Y-61500000D03*
X136500000Y-60500000D03*
X136500000Y-59500000D03*
X136500000Y-58500000D03*
X137500000Y-79500000D03*
X137500000Y-78500000D03*
X137500000Y-77500000D03*
X137500000Y-76500000D03*
X137500000Y-75500000D03*
X137500000Y-74500000D03*
X137500000Y-73500000D03*
X137500000Y-72500000D03*
X137500000Y-71500000D03*
X137500000Y-70500000D03*
X137500000Y-69500000D03*
X137500000Y-68500000D03*
X137500000Y-67500000D03*
X137500000Y-66500000D03*
X137500000Y-65500000D03*
X137500000Y-64500000D03*
X137500000Y-63500000D03*
X137500000Y-62500000D03*
X137500000Y-61500000D03*
X137500000Y-60500000D03*
X137500000Y-59500000D03*
X137500000Y-58500000D03*
X138500000Y-79500000D03*
X138500000Y-78500000D03*
X138500000Y-77500000D03*
X138500000Y-76500000D03*
X138500000Y-75500000D03*
X138500000Y-74500000D03*
X138500000Y-73500000D03*
X138500000Y-72500000D03*
X138500000Y-71500000D03*
X138500000Y-70500000D03*
X138500000Y-69500000D03*
X138500000Y-68500000D03*
X138500000Y-67500000D03*
X138500000Y-66500000D03*
X138500000Y-65500000D03*
X138500000Y-64500000D03*
X138500000Y-63500000D03*
X138500000Y-62500000D03*
X138500000Y-61500000D03*
X138500000Y-60500000D03*
X138500000Y-59500000D03*
X138500000Y-58500000D03*
X139500000Y-79500000D03*
X139500000Y-78500000D03*
X139500000Y-77500000D03*
X139500000Y-76500000D03*
X139500000Y-75500000D03*
X139500000Y-74500000D03*
X139500000Y-73500000D03*
X139500000Y-72500000D03*
X139500000Y-71500000D03*
X139500000Y-70500000D03*
X139500000Y-69500000D03*
X139500000Y-68500000D03*
X139500000Y-67500000D03*
X139500000Y-66500000D03*
X139500000Y-65500000D03*
X139500000Y-64500000D03*
X139500000Y-63500000D03*
X139500000Y-62500000D03*
X139500000Y-61500000D03*
X139500000Y-60500000D03*
X139500000Y-59500000D03*
X139500000Y-58500000D03*
X140500000Y-79500000D03*
X140500000Y-78500000D03*
X140500000Y-77500000D03*
X140500000Y-76500000D03*
X140500000Y-75500000D03*
X140500000Y-74500000D03*
X140500000Y-73500000D03*
X140500000Y-72500000D03*
X140500000Y-71500000D03*
X140500000Y-70500000D03*
X140500000Y-69500000D03*
X140500000Y-68500000D03*
X140500000Y-67500000D03*
X140500000Y-66500000D03*
X140500000Y-65500000D03*
X140500000Y-64500000D03*
X140500000Y-63500000D03*
X140500000Y-62500000D03*
X140500000Y-61500000D03*
X140500000Y-60500000D03*
X140500000Y-59500000D03*
X140500000Y-58500000D03*
X141500000Y-79500000D03*
X141500000Y-78500000D03*
X141500000Y-77500000D03*
X141500000Y-76500000D03*
X141500000Y-75500000D03*
X141500000Y-74500000D03*
X141500000Y-73500000D03*
X141500000Y-72500000D03*
X141500000Y-71500000D03*
X141500000Y-70500000D03*
X141500000Y-69500000D03*
X141500000Y-68500000D03*
X141500000Y-67500000D03*
X141500000Y-66500000D03*
X141500000Y-65500000D03*
X141500000Y-64500000D03*
X141500000Y-63500000D03*
X141500000Y-62500000D03*
X141500000Y-61500000D03*
X141500000Y-60500000D03*
X141500000Y-59500000D03*
X141500000Y-58500000D03*
X142500000Y-79500000D03*
X142500000Y-78500000D03*
X142500000Y-77500000D03*
X142500000Y-76500000D03*
X142500000Y-75500000D03*
X142500000Y-74500000D03*
X142500000Y-73500000D03*
X142500000Y-72500000D03*
X142500000Y-71500000D03*
X142500000Y-70500000D03*
X142500000Y-69500000D03*
X142500000Y-68500000D03*
X142500000Y-67500000D03*
X142500000Y-66500000D03*
X142500000Y-65500000D03*
X142500000Y-64500000D03*
X142500000Y-63500000D03*
X142500000Y-62500000D03*
X142500000Y-61500000D03*
X142500000Y-60500000D03*
X142500000Y-59500000D03*
X142500000Y-58500000D03*
X143500000Y-79500000D03*
X143500000Y-78500000D03*
X143500000Y-77500000D03*
X143500000Y-76500000D03*
X143500000Y-75500000D03*
X143500000Y-74500000D03*
X143500000Y-73500000D03*
X143500000Y-72500000D03*
X143500000Y-71500000D03*
X143500000Y-70500000D03*
X143500000Y-69500000D03*
X143500000Y-68500000D03*
X143500000Y-67500000D03*
X143500000Y-66500000D03*
X143500000Y-65500000D03*
X143500000Y-64500000D03*
X143500000Y-63500000D03*
X143500000Y-62500000D03*
X143500000Y-61500000D03*
X143500000Y-60500000D03*
X143500000Y-59500000D03*
X143500000Y-58500000D03*
X144500000Y-79500000D03*
X144500000Y-78500000D03*
X144500000Y-77500000D03*
X144500000Y-76500000D03*
X144500000Y-75500000D03*
X144500000Y-74500000D03*
X144500000Y-73500000D03*
X144500000Y-72500000D03*
X144500000Y-71500000D03*
X144500000Y-70500000D03*
X144500000Y-69500000D03*
X144500000Y-68500000D03*
X144500000Y-67500000D03*
X144500000Y-66500000D03*
X144500000Y-65500000D03*
X144500000Y-64500000D03*
X144500000Y-63500000D03*
X144500000Y-62500000D03*
X144500000Y-61500000D03*
X144500000Y-60500000D03*
X144500000Y-59500000D03*
X144500000Y-58500000D03*
X145500000Y-79500000D03*
X145500000Y-78500000D03*
X145500000Y-77500000D03*
X145500000Y-76500000D03*
X145500000Y-75500000D03*
X145500000Y-74500000D03*
X145500000Y-73500000D03*
X145500000Y-72500000D03*
X145500000Y-71500000D03*
X145500000Y-70500000D03*
X145500000Y-69500000D03*
X145500000Y-68500000D03*
X145500000Y-67500000D03*
X145500000Y-66500000D03*
X145500000Y-65500000D03*
X145500000Y-64500000D03*
X145500000Y-63500000D03*
X145500000Y-62500000D03*
X145500000Y-61500000D03*
X145500000Y-60500000D03*
X145500000Y-59500000D03*
X145500000Y-58500000D03*
X146500000Y-79500000D03*
X146500000Y-78500000D03*
X146500000Y-77500000D03*
X146500000Y-76500000D03*
X146500000Y-75500000D03*
X146500000Y-74500000D03*
X146500000Y-73500000D03*
X146500000Y-72500000D03*
X146500000Y-71500000D03*
X146500000Y-70500000D03*
X146500000Y-69500000D03*
X146500000Y-68500000D03*
X146500000Y-67500000D03*
X146500000Y-66500000D03*
X146500000Y-65500000D03*
X146500000Y-64500000D03*
X146500000Y-63500000D03*
X146500000Y-62500000D03*
X146500000Y-61500000D03*
X146500000Y-60500000D03*
X146500000Y-59500000D03*
X146500000Y-58500000D03*
X147500000Y-79500000D03*
X147500000Y-78500000D03*
X147500000Y-77500000D03*
X147500000Y-76500000D03*
X147500000Y-75500000D03*
X147500000Y-74500000D03*
X147500000Y-73500000D03*
X147500000Y-72500000D03*
X147500000Y-71500000D03*
X147500000Y-70500000D03*
X147500000Y-69500000D03*
X147500000Y-68500000D03*
X147500000Y-67500000D03*
X147500000Y-66500000D03*
X147500000Y-65500000D03*
X147500000Y-64500000D03*
X147500000Y-63500000D03*
X147500000Y-62500000D03*
X147500000Y-61500000D03*
X147500000Y-60500000D03*
X147500000Y-59500000D03*
X147500000Y-58500000D03*
X148500000Y-79500000D03*
X148500000Y-78500000D03*
X148500000Y-77500000D03*
X148500000Y-76500000D03*
X148500000Y-75500000D03*
X148500000Y-74500000D03*
X148500000Y-73500000D03*
X148500000Y-72500000D03*
X148500000Y-71500000D03*
X148500000Y-70500000D03*
X148500000Y-69500000D03*
X148500000Y-68500000D03*
X148500000Y-67500000D03*
X148500000Y-66500000D03*
X148500000Y-65500000D03*
X148500000Y-64500000D03*
X148500000Y-63500000D03*
X148500000Y-62500000D03*
X148500000Y-61500000D03*
X148500000Y-60500000D03*
X148500000Y-59500000D03*
X148500000Y-58500000D03*
X149500000Y-79500000D03*
X149500000Y-78500000D03*
X149500000Y-77500000D03*
X149500000Y-76500000D03*
X149500000Y-75500000D03*
X149500000Y-74500000D03*
X149500000Y-73500000D03*
X149500000Y-72500000D03*
X149500000Y-71500000D03*
X149500000Y-70500000D03*
X149500000Y-69500000D03*
X149500000Y-68500000D03*
X149500000Y-67500000D03*
X149500000Y-66500000D03*
X149500000Y-65500000D03*
X149500000Y-64500000D03*
X149500000Y-63500000D03*
X149500000Y-62500000D03*
X149500000Y-61500000D03*
X149500000Y-60500000D03*
X149500000Y-59500000D03*
X149500000Y-58500000D03*
X150500000Y-79500000D03*
X150500000Y-78500000D03*
X150500000Y-77500000D03*
X150500000Y-76500000D03*
X150500000Y-75500000D03*
X150500000Y-74500000D03*
X150500000Y-73500000D03*
X150500000Y-72500000D03*
X150500000Y-71500000D03*
X150500000Y-70500000D03*
X150500000Y-69500000D03*
X150500000Y-68500000D03*
X150500000Y-67500000D03*
X150500000Y-66500000D03*
X150500000Y-65500000D03*
X150500000Y-64500000D03*
X150500000Y-63500000D03*
X150500000Y-62500000D03*
X150500000Y-61500000D03*
X150500000Y-60500000D03*
X150500000Y-59500000D03*
X150500000Y-58500000D03*
D20*
X126750000Y-69225000D03*
X126750000Y-66275000D03*
D16*
X118800000Y-56110000D03*
X118800000Y-55090000D03*
D33*
X115600000Y-54600000D03*
X114800000Y-54600000D03*
X115600000Y-55400000D03*
X114800000Y-55400000D03*
D34*
X115950000Y-53562500D03*
X115450000Y-53562500D03*
X114950000Y-53562500D03*
X114450000Y-53562500D03*
D35*
X113762500Y-54250000D03*
X113762500Y-54750000D03*
X113762500Y-55250000D03*
X113762500Y-55750000D03*
D34*
X114450000Y-56437500D03*
X114950000Y-56437500D03*
X115450000Y-56437500D03*
X115950000Y-56437500D03*
D35*
X116637500Y-55750000D03*
X116637500Y-55250000D03*
X116637500Y-54750000D03*
X116637500Y-54250000D03*
D19*
X127230000Y-76250000D03*
X126270000Y-76250000D03*
D18*
X122672500Y-92325000D03*
X121652500Y-92325000D03*
D22*
X125400000Y-95840000D03*
X125400000Y-96860000D03*
D26*
X135025000Y-55750000D03*
X133475000Y-55750000D03*
D36*
X121175000Y-54637500D03*
X121175000Y-55337500D03*
X122025000Y-54637500D03*
X122025000Y-55337500D03*
D37*
X120150000Y-54237500D03*
X120150000Y-54737500D03*
X120150000Y-55237500D03*
X120150000Y-55737500D03*
X123050000Y-55737500D03*
X123050000Y-55237500D03*
X123050000Y-54737500D03*
X123050000Y-54237500D03*
D20*
X157250000Y-67475000D03*
X157250000Y-64525000D03*
D22*
X118800000Y-52890000D03*
X118800000Y-53910000D03*
X111250000Y-94240000D03*
X111250000Y-95260000D03*
D16*
X120662500Y-91835000D03*
X120662500Y-90815000D03*
D38*
X159125000Y-86550000D03*
D39*
X160250000Y-86550000D03*
D38*
X161375000Y-86550000D03*
X161375000Y-84950000D03*
D39*
X160250000Y-84950000D03*
D38*
X159125000Y-84950000D03*
D33*
X109000000Y-54600000D03*
X108200000Y-54600000D03*
X109000000Y-55400000D03*
X108200000Y-55400000D03*
D34*
X109350000Y-53562500D03*
X108850000Y-53562500D03*
X108350000Y-53562500D03*
X107850000Y-53562500D03*
D35*
X107162500Y-54250000D03*
X107162500Y-54750000D03*
X107162500Y-55250000D03*
X107162500Y-55750000D03*
D34*
X107850000Y-56437500D03*
X108350000Y-56437500D03*
X108850000Y-56437500D03*
X109350000Y-56437500D03*
D35*
X110037500Y-55750000D03*
X110037500Y-55250000D03*
X110037500Y-54750000D03*
X110037500Y-54250000D03*
D25*
X123887500Y-87075000D03*
X120937500Y-87075000D03*
D16*
X161750000Y-81010000D03*
X161750000Y-79990000D03*
D21*
X128750000Y-68525000D03*
X128750000Y-66975000D03*
X118500000Y-94525000D03*
X118500000Y-92975000D03*
D16*
X125400000Y-94860000D03*
X125400000Y-93840000D03*
D40*
X112037500Y-98000000D03*
X110462500Y-98000000D03*
D31*
X115375000Y-89000000D03*
X116925000Y-89000000D03*
D21*
X155250000Y-66775000D03*
X155250000Y-65225000D03*
X102500000Y-94525000D03*
X102500000Y-92975000D03*
D13*
X115250000Y-86935000D03*
X115250000Y-84565000D03*
D28*
X124700000Y-62262500D03*
X124700000Y-63837500D03*
D41*
X111850000Y-68000000D03*
X111850000Y-68500000D03*
X111850000Y-69000000D03*
X111850000Y-69500000D03*
X111850000Y-70000000D03*
X111850000Y-70500000D03*
X111850000Y-71000000D03*
X111850000Y-71500000D03*
X111850000Y-72000000D03*
X111850000Y-72500000D03*
X111850000Y-73000000D03*
X111850000Y-73500000D03*
X111850000Y-74000000D03*
X111850000Y-74500000D03*
X111850000Y-75000000D03*
X111850000Y-75500000D03*
X111850000Y-76000000D03*
D42*
X108600000Y-66100000D03*
X108600000Y-77900000D03*
D30*
X102500000Y-84975000D03*
X102500000Y-86525000D03*
D43*
X148900000Y-52500000D03*
X148900000Y-54500000D03*
X150600000Y-52500000D03*
X150600000Y-54500000D03*
D44*
X147087500Y-51595000D03*
X147087500Y-52865000D03*
X147087500Y-54135000D03*
X147087500Y-55405000D03*
X152412500Y-55405000D03*
X152412500Y-54135000D03*
X152412500Y-52865000D03*
X152412500Y-51595000D03*
D18*
X110650000Y-62100000D03*
X109630000Y-62100000D03*
D15*
X160750000Y-82020000D03*
X160750000Y-82980000D03*
D18*
X138710000Y-52600000D03*
X137690000Y-52600000D03*
D29*
X112550000Y-56130000D03*
X112550000Y-55170000D03*
D45*
X109825000Y-89075000D03*
X109825000Y-90425000D03*
X111175000Y-89075000D03*
X111175000Y-90425000D03*
D46*
X108537500Y-88550000D03*
X108537500Y-88950000D03*
X108537500Y-89350000D03*
X108537500Y-89750000D03*
X108537500Y-90150000D03*
X108537500Y-90550000D03*
X108537500Y-90950000D03*
D47*
X109300000Y-91712500D03*
X109700000Y-91712500D03*
X110100000Y-91712500D03*
X110500000Y-91712500D03*
X110900000Y-91712500D03*
X111300000Y-91712500D03*
X111700000Y-91712500D03*
D46*
X112462500Y-90950000D03*
X112462500Y-90550000D03*
X112462500Y-90150000D03*
X112462500Y-89750000D03*
X112462500Y-89350000D03*
X112462500Y-88950000D03*
X112462500Y-88550000D03*
D47*
X111700000Y-87787500D03*
X111300000Y-87787500D03*
X110900000Y-87787500D03*
X110500000Y-87787500D03*
X110100000Y-87787500D03*
X109700000Y-87787500D03*
X109300000Y-87787500D03*
D48*
X123650000Y-96812500D03*
X123650000Y-93887500D03*
D14*
X159740000Y-81000000D03*
X160760000Y-81000000D03*
D26*
X142525000Y-55750000D03*
X140975000Y-55750000D03*
M02*
