%TF.GenerationSoftware,KiCad,Pcbnew,9.99.0-4890-gde912bdc9a*%
%TF.CreationDate,2026-01-24T23:46:00-08:00*%
%TF.ProjectId,RPi-HwAB-1,5250692d-4877-4414-922d-312e6b696361,rev?*%
%TF.SameCoordinates,Original*%
%TF.FileFunction,Drillmap*%
%TF.FilePolarity,Positive*%
%FSLAX45Y45*%
G04 Gerber Fmt 4.5, Leading zero omitted, Abs format (unit mm)*
G04 Created by KiCad (PCBNEW 9.99.0-4890-gde912bdc9a) date 2026-01-24 23:46:00*
%MOMM*%
%LPD*%
G01*
G04 APERTURE LIST*
%ADD10C,0.100000*%
%ADD11C,0.200000*%
G04 APERTURE END LIST*
D10*
X10050000Y-6350000D02*
G75*
G02*
X10000000Y-6300000I0J50000D01*
G01*
X16200000Y-4400000D02*
G75*
G02*
X16500000Y-4700000I0J-300000D01*
G01*
X16500000Y-9700000D02*
X16500000Y-4700000D01*
X10000000Y-4700000D02*
X10000000Y-6300000D01*
X10300000Y-10000000D02*
G75*
G02*
X10000000Y-9700000I0J300000D01*
G01*
X10300000Y-10000000D02*
X16200000Y-10000000D01*
X10450000Y-8050000D02*
X10050000Y-8050000D01*
X10000000Y-8100000D02*
G75*
G02*
X10049913Y-8050000I50000J0D01*
G01*
X16500000Y-9700000D02*
G75*
G02*
X16200000Y-10000000I-300000J0D01*
G01*
X10500000Y-6400000D02*
X10500000Y-8000000D01*
X10000000Y-4700000D02*
G75*
G02*
X10300000Y-4400000I300000J0D01*
G01*
X10000000Y-8100000D02*
X10000000Y-9700000D01*
X10050000Y-6350000D02*
X10450000Y-6350000D01*
X10500000Y-8000000D02*
G75*
G02*
X10450000Y-8050000I-50000J0D01*
G01*
X10450000Y-6350000D02*
G75*
G02*
X10500000Y-6400000I0J-50000D01*
G01*
X16200000Y-4400000D02*
X10300000Y-4400000D01*
D11*
D10*
X10610000Y-5415000D02*
X10630000Y-5435000D01*
X10630000Y-5415000D02*
X10610000Y-5435000D01*
X10875000Y-5775000D02*
X10895000Y-5795000D01*
X10895000Y-5775000D02*
X10875000Y-5795000D01*
X10993750Y-5656250D02*
X11013750Y-5676250D01*
X11013750Y-5656250D02*
X10993750Y-5676250D01*
X11036250Y-9690000D02*
X11056250Y-9710000D01*
X11056250Y-9690000D02*
X11036250Y-9710000D01*
X11215000Y-9340000D02*
X11235000Y-9360000D01*
X11235000Y-9340000D02*
X11215000Y-9360000D01*
X11240000Y-5415000D02*
X11260000Y-5435000D01*
X11260000Y-5415000D02*
X11240000Y-5435000D01*
X11290000Y-7390000D02*
X11310000Y-7410000D01*
X11310000Y-7390000D02*
X11290000Y-7410000D01*
X11290000Y-7540000D02*
X11310000Y-7560000D01*
X11310000Y-7540000D02*
X11290000Y-7560000D01*
X11333584Y-8980606D02*
X11353584Y-9000606D01*
X11353584Y-8980606D02*
X11333584Y-9000606D01*
X11340000Y-7085000D02*
X11360000Y-7105000D01*
X11360000Y-7085000D02*
X11340000Y-7105000D01*
X11340000Y-7145000D02*
X11360000Y-7165000D01*
X11360000Y-7145000D02*
X11340000Y-7165000D01*
X11397847Y-8980654D02*
X11417847Y-9000654D01*
X11417847Y-8980654D02*
X11397847Y-9000654D01*
X11441000Y-9864000D02*
X11461000Y-9884000D01*
X11461000Y-9864000D02*
X11441000Y-9884000D01*
X11532500Y-5770000D02*
X11552500Y-5790000D01*
X11552500Y-5770000D02*
X11532500Y-5790000D01*
X11590000Y-5770000D02*
X11610000Y-5790000D01*
X11610000Y-5770000D02*
X11590000Y-5790000D01*
X11690000Y-6165000D02*
X11710000Y-6185000D01*
X11710000Y-6165000D02*
X11690000Y-6185000D01*
X11791250Y-5463750D02*
X11811250Y-5483750D01*
X11811250Y-5463750D02*
X11791250Y-5483750D01*
X11793787Y-7536213D02*
X11813787Y-7556213D01*
X11813787Y-7536213D02*
X11793787Y-7556213D01*
X11818787Y-7086213D02*
X11838787Y-7106213D01*
X11838787Y-7086213D02*
X11818787Y-7106213D01*
X11836213Y-7493787D02*
X11856213Y-7513787D01*
X11856213Y-7493787D02*
X11836213Y-7513787D01*
X11840000Y-6190000D02*
X11860000Y-6210000D01*
X11860000Y-6190000D02*
X11840000Y-6210000D01*
X11861213Y-7043787D02*
X11881213Y-7063787D01*
X11881213Y-7043787D02*
X11861213Y-7063787D01*
X11970000Y-9175000D02*
X11990000Y-9195000D01*
X11990000Y-9175000D02*
X11970000Y-9195000D01*
X12281250Y-8831250D02*
X12301250Y-8851250D01*
X12301250Y-8831250D02*
X12281250Y-8851250D01*
X12400000Y-8830000D02*
X12420000Y-8850000D01*
X12420000Y-8830000D02*
X12400000Y-8850000D01*
X12616000Y-5791000D02*
X12636000Y-5811000D01*
X12636000Y-5791000D02*
X12616000Y-5811000D01*
X12702000Y-9477000D02*
X12722000Y-9497000D01*
X12722000Y-9477000D02*
X12702000Y-9497000D01*
X12710000Y-9570000D02*
X12730000Y-9590000D01*
X12730000Y-9570000D02*
X12710000Y-9590000D01*
X12938125Y-5916875D02*
X12958125Y-5936875D01*
X12958125Y-5916875D02*
X12938125Y-5936875D01*
X13090000Y-5790000D02*
X13110000Y-5810000D01*
X13110000Y-5790000D02*
X13090000Y-5810000D01*
X13090000Y-6290000D02*
X13110000Y-6310000D01*
X13110000Y-6290000D02*
X13090000Y-6310000D01*
X13090000Y-6790000D02*
X13110000Y-6810000D01*
X13110000Y-6790000D02*
X13090000Y-6810000D01*
X13090000Y-6990000D02*
X13110000Y-7010000D01*
X13110000Y-6990000D02*
X13090000Y-7010000D01*
X13090000Y-7190000D02*
X13110000Y-7210000D01*
X13110000Y-7190000D02*
X13090000Y-7210000D01*
X13090000Y-7390000D02*
X13110000Y-7410000D01*
X13110000Y-7390000D02*
X13090000Y-7410000D01*
X13090000Y-7590000D02*
X13110000Y-7610000D01*
X13110000Y-7590000D02*
X13090000Y-7610000D01*
X13090000Y-7790000D02*
X13110000Y-7810000D01*
X13110000Y-7790000D02*
X13090000Y-7810000D01*
X13090000Y-7890000D02*
X13110000Y-7910000D01*
X13110000Y-7890000D02*
X13090000Y-7910000D01*
X13190000Y-6090000D02*
X13210000Y-6110000D01*
X13210000Y-6090000D02*
X13190000Y-6110000D01*
X13190000Y-6590000D02*
X13210000Y-6610000D01*
X13210000Y-6590000D02*
X13190000Y-6610000D01*
X13190000Y-6790000D02*
X13210000Y-6810000D01*
X13210000Y-6790000D02*
X13190000Y-6810000D01*
X13190000Y-6990000D02*
X13210000Y-7010000D01*
X13210000Y-6990000D02*
X13190000Y-7010000D01*
X13190000Y-7190000D02*
X13210000Y-7210000D01*
X13210000Y-7190000D02*
X13190000Y-7210000D01*
X13190000Y-7390000D02*
X13210000Y-7410000D01*
X13210000Y-7390000D02*
X13190000Y-7410000D01*
X13190000Y-7590000D02*
X13210000Y-7610000D01*
X13210000Y-7590000D02*
X13190000Y-7610000D01*
X13190000Y-7790000D02*
X13210000Y-7810000D01*
X13210000Y-7790000D02*
X13190000Y-7810000D01*
X13290000Y-5890000D02*
X13310000Y-5910000D01*
X13310000Y-5890000D02*
X13290000Y-5910000D01*
X13290000Y-6390000D02*
X13310000Y-6410000D01*
X13310000Y-6390000D02*
X13290000Y-6410000D01*
X13290000Y-6790000D02*
X13310000Y-6810000D01*
X13310000Y-6790000D02*
X13290000Y-6810000D01*
X13290000Y-7090000D02*
X13310000Y-7110000D01*
X13310000Y-7090000D02*
X13290000Y-7110000D01*
X13290000Y-7290000D02*
X13310000Y-7310000D01*
X13310000Y-7290000D02*
X13290000Y-7310000D01*
X13290000Y-7490000D02*
X13310000Y-7510000D01*
X13310000Y-7490000D02*
X13290000Y-7510000D01*
X13290000Y-7690000D02*
X13310000Y-7710000D01*
X13310000Y-7690000D02*
X13290000Y-7710000D01*
X13290000Y-7790000D02*
X13310000Y-7810000D01*
X13310000Y-7790000D02*
X13290000Y-7810000D01*
X13290000Y-7890000D02*
X13310000Y-7910000D01*
X13310000Y-7890000D02*
X13290000Y-7910000D01*
X13340000Y-8015000D02*
X13360000Y-8035000D01*
X13360000Y-8015000D02*
X13340000Y-8035000D01*
X13390000Y-6190000D02*
X13410000Y-6210000D01*
X13410000Y-6190000D02*
X13390000Y-6210000D01*
X13390000Y-6690000D02*
X13410000Y-6710000D01*
X13410000Y-6690000D02*
X13390000Y-6710000D01*
X13390000Y-6790000D02*
X13410000Y-6810000D01*
X13410000Y-6790000D02*
X13390000Y-6810000D01*
X13390000Y-7090000D02*
X13410000Y-7110000D01*
X13410000Y-7090000D02*
X13390000Y-7110000D01*
X13390000Y-7290000D02*
X13410000Y-7310000D01*
X13410000Y-7290000D02*
X13390000Y-7310000D01*
X13390000Y-7490000D02*
X13410000Y-7510000D01*
X13410000Y-7490000D02*
X13390000Y-7510000D01*
X13390000Y-7690000D02*
X13410000Y-7710000D01*
X13410000Y-7690000D02*
X13390000Y-7710000D01*
X13390000Y-7790000D02*
X13410000Y-7810000D01*
X13410000Y-7790000D02*
X13390000Y-7810000D01*
X13390000Y-7890000D02*
X13410000Y-7910000D01*
X13410000Y-7890000D02*
X13390000Y-7910000D01*
X13440000Y-8015000D02*
X13460000Y-8035000D01*
X13460000Y-8015000D02*
X13440000Y-8035000D01*
X13490000Y-5990000D02*
X13510000Y-6010000D01*
X13510000Y-5990000D02*
X13490000Y-6010000D01*
X13490000Y-6490000D02*
X13510000Y-6510000D01*
X13510000Y-6490000D02*
X13490000Y-6510000D01*
X13490000Y-6790000D02*
X13510000Y-6810000D01*
X13510000Y-6790000D02*
X13490000Y-6810000D01*
X13490000Y-6990000D02*
X13510000Y-7010000D01*
X13510000Y-6990000D02*
X13490000Y-7010000D01*
X13490000Y-7190000D02*
X13510000Y-7210000D01*
X13510000Y-7190000D02*
X13490000Y-7210000D01*
X13490000Y-7290000D02*
X13510000Y-7310000D01*
X13510000Y-7290000D02*
X13490000Y-7310000D01*
X13490000Y-7390000D02*
X13510000Y-7410000D01*
X13510000Y-7390000D02*
X13490000Y-7410000D01*
X13490000Y-7490000D02*
X13510000Y-7510000D01*
X13510000Y-7490000D02*
X13490000Y-7510000D01*
X13490000Y-7590000D02*
X13510000Y-7610000D01*
X13510000Y-7590000D02*
X13490000Y-7610000D01*
X13490000Y-7690000D02*
X13510000Y-7710000D01*
X13510000Y-7690000D02*
X13490000Y-7710000D01*
X13540000Y-8015000D02*
X13560000Y-8035000D01*
X13560000Y-8015000D02*
X13540000Y-8035000D01*
X13590000Y-5790000D02*
X13610000Y-5810000D01*
X13610000Y-5790000D02*
X13590000Y-5810000D01*
X13590000Y-6290000D02*
X13610000Y-6310000D01*
X13610000Y-6290000D02*
X13590000Y-6310000D01*
X13590000Y-6790000D02*
X13610000Y-6810000D01*
X13610000Y-6790000D02*
X13590000Y-6810000D01*
X13590000Y-6990000D02*
X13610000Y-7010000D01*
X13610000Y-6990000D02*
X13590000Y-7010000D01*
X13590000Y-7190000D02*
X13610000Y-7210000D01*
X13610000Y-7190000D02*
X13590000Y-7210000D01*
X13590000Y-7290000D02*
X13610000Y-7310000D01*
X13610000Y-7290000D02*
X13590000Y-7310000D01*
X13590000Y-7390000D02*
X13610000Y-7410000D01*
X13610000Y-7390000D02*
X13590000Y-7410000D01*
X13590000Y-7490000D02*
X13610000Y-7510000D01*
X13610000Y-7490000D02*
X13590000Y-7510000D01*
X13590000Y-7590000D02*
X13610000Y-7610000D01*
X13610000Y-7590000D02*
X13590000Y-7610000D01*
X13590000Y-7790000D02*
X13610000Y-7810000D01*
X13610000Y-7790000D02*
X13590000Y-7810000D01*
X13590000Y-7890000D02*
X13610000Y-7910000D01*
X13610000Y-7890000D02*
X13590000Y-7910000D01*
X13590000Y-8710000D02*
X13610000Y-8730000D01*
X13610000Y-8710000D02*
X13590000Y-8730000D01*
X13590000Y-8790000D02*
X13610000Y-8810000D01*
X13610000Y-8790000D02*
X13590000Y-8810000D01*
X13590000Y-9350000D02*
X13610000Y-9370000D01*
X13610000Y-9350000D02*
X13590000Y-9370000D01*
X13670000Y-8710000D02*
X13690000Y-8730000D01*
X13690000Y-8710000D02*
X13670000Y-8730000D01*
X13670000Y-8790000D02*
X13690000Y-8810000D01*
X13690000Y-8790000D02*
X13670000Y-8810000D01*
X13670000Y-9190000D02*
X13690000Y-9210000D01*
X13690000Y-9190000D02*
X13670000Y-9210000D01*
X13670000Y-9270000D02*
X13690000Y-9290000D01*
X13690000Y-9270000D02*
X13670000Y-9290000D01*
X13670000Y-9350000D02*
X13690000Y-9370000D01*
X13690000Y-9350000D02*
X13670000Y-9370000D01*
X13690000Y-6090000D02*
X13710000Y-6110000D01*
X13710000Y-6090000D02*
X13690000Y-6110000D01*
X13690000Y-6590000D02*
X13710000Y-6610000D01*
X13710000Y-6590000D02*
X13690000Y-6610000D01*
X13690000Y-6790000D02*
X13710000Y-6810000D01*
X13710000Y-6790000D02*
X13690000Y-6810000D01*
X13690000Y-6990000D02*
X13710000Y-7010000D01*
X13710000Y-6990000D02*
X13690000Y-7010000D01*
X13690000Y-7090000D02*
X13710000Y-7110000D01*
X13710000Y-7090000D02*
X13690000Y-7110000D01*
X13690000Y-7190000D02*
X13710000Y-7210000D01*
X13710000Y-7190000D02*
X13690000Y-7210000D01*
X13690000Y-7290000D02*
X13710000Y-7310000D01*
X13710000Y-7290000D02*
X13690000Y-7310000D01*
X13690000Y-7390000D02*
X13710000Y-7410000D01*
X13710000Y-7390000D02*
X13690000Y-7410000D01*
X13690000Y-7490000D02*
X13710000Y-7510000D01*
X13710000Y-7490000D02*
X13690000Y-7510000D01*
X13690000Y-7590000D02*
X13710000Y-7610000D01*
X13710000Y-7590000D02*
X13690000Y-7610000D01*
X13690000Y-7690000D02*
X13710000Y-7710000D01*
X13710000Y-7690000D02*
X13690000Y-7710000D01*
X13690000Y-7790000D02*
X13710000Y-7810000D01*
X13710000Y-7790000D02*
X13690000Y-7810000D01*
X13690000Y-7890000D02*
X13710000Y-7910000D01*
X13710000Y-7890000D02*
X13690000Y-7910000D01*
X13690000Y-7990000D02*
X13710000Y-8010000D01*
X13710000Y-7990000D02*
X13690000Y-8010000D01*
X13710000Y-8650000D02*
X13730000Y-8670000D01*
X13730000Y-8650000D02*
X13710000Y-8670000D01*
X13722300Y-9010000D02*
X13742300Y-9030000D01*
X13742300Y-9010000D02*
X13722300Y-9030000D01*
X13750000Y-8710000D02*
X13770000Y-8730000D01*
X13770000Y-8710000D02*
X13750000Y-8730000D01*
X13750000Y-8790000D02*
X13770000Y-8810000D01*
X13770000Y-8790000D02*
X13750000Y-8810000D01*
X13750000Y-9190000D02*
X13770000Y-9210000D01*
X13770000Y-9190000D02*
X13750000Y-9210000D01*
X13750000Y-9270000D02*
X13770000Y-9290000D01*
X13770000Y-9270000D02*
X13750000Y-9290000D01*
X13750000Y-9350000D02*
X13770000Y-9370000D01*
X13770000Y-9350000D02*
X13750000Y-9370000D01*
X13777700Y-9010000D02*
X13797700Y-9030000D01*
X13797700Y-9010000D02*
X13777700Y-9030000D01*
X13790000Y-5890000D02*
X13810000Y-5910000D01*
X13810000Y-5890000D02*
X13790000Y-5910000D01*
X13790000Y-6390000D02*
X13810000Y-6410000D01*
X13810000Y-6390000D02*
X13790000Y-6410000D01*
X13790000Y-6790000D02*
X13810000Y-6810000D01*
X13810000Y-6790000D02*
X13790000Y-6810000D01*
X13790000Y-6990000D02*
X13810000Y-7010000D01*
X13810000Y-6990000D02*
X13790000Y-7010000D01*
X13790000Y-7090000D02*
X13810000Y-7110000D01*
X13810000Y-7090000D02*
X13790000Y-7110000D01*
X13790000Y-7190000D02*
X13810000Y-7210000D01*
X13810000Y-7190000D02*
X13790000Y-7210000D01*
X13790000Y-7290000D02*
X13810000Y-7310000D01*
X13810000Y-7290000D02*
X13790000Y-7310000D01*
X13790000Y-7390000D02*
X13810000Y-7410000D01*
X13810000Y-7390000D02*
X13790000Y-7410000D01*
X13790000Y-7490000D02*
X13810000Y-7510000D01*
X13810000Y-7490000D02*
X13790000Y-7510000D01*
X13790000Y-7590000D02*
X13810000Y-7610000D01*
X13810000Y-7590000D02*
X13790000Y-7610000D01*
X13790000Y-7690000D02*
X13810000Y-7710000D01*
X13810000Y-7690000D02*
X13790000Y-7710000D01*
X13790000Y-7790000D02*
X13810000Y-7810000D01*
X13810000Y-7790000D02*
X13790000Y-7810000D01*
X13790000Y-7890000D02*
X13810000Y-7910000D01*
X13810000Y-7890000D02*
X13790000Y-7910000D01*
X13790000Y-7990000D02*
X13810000Y-8010000D01*
X13810000Y-7990000D02*
X13790000Y-8010000D01*
X13830000Y-8710000D02*
X13850000Y-8730000D01*
X13850000Y-8710000D02*
X13830000Y-8730000D01*
X13830000Y-8790000D02*
X13850000Y-8810000D01*
X13850000Y-8790000D02*
X13830000Y-8810000D01*
X13830000Y-8870000D02*
X13850000Y-8890000D01*
X13850000Y-8870000D02*
X13830000Y-8890000D01*
X13830000Y-9270000D02*
X13850000Y-9290000D01*
X13850000Y-9270000D02*
X13830000Y-9290000D01*
X13830000Y-9350000D02*
X13850000Y-9370000D01*
X13850000Y-9350000D02*
X13830000Y-9370000D01*
X13890000Y-6190000D02*
X13910000Y-6210000D01*
X13910000Y-6190000D02*
X13890000Y-6210000D01*
X13890000Y-6690000D02*
X13910000Y-6710000D01*
X13910000Y-6690000D02*
X13890000Y-6710000D01*
X13890000Y-6790000D02*
X13910000Y-6810000D01*
X13910000Y-6790000D02*
X13890000Y-6810000D01*
X13890000Y-6990000D02*
X13910000Y-7010000D01*
X13910000Y-6990000D02*
X13890000Y-7010000D01*
X13890000Y-7090000D02*
X13910000Y-7110000D01*
X13910000Y-7090000D02*
X13890000Y-7110000D01*
X13890000Y-7190000D02*
X13910000Y-7210000D01*
X13910000Y-7190000D02*
X13890000Y-7210000D01*
X13890000Y-7290000D02*
X13910000Y-7310000D01*
X13910000Y-7290000D02*
X13890000Y-7310000D01*
X13890000Y-7390000D02*
X13910000Y-7410000D01*
X13910000Y-7390000D02*
X13890000Y-7410000D01*
X13890000Y-7590000D02*
X13910000Y-7610000D01*
X13910000Y-7590000D02*
X13890000Y-7610000D01*
X13890000Y-7790000D02*
X13910000Y-7810000D01*
X13910000Y-7790000D02*
X13890000Y-7810000D01*
X13890000Y-7890000D02*
X13910000Y-7910000D01*
X13910000Y-7890000D02*
X13890000Y-7910000D01*
X13890000Y-7990000D02*
X13910000Y-8010000D01*
X13910000Y-7990000D02*
X13890000Y-8010000D01*
X13910000Y-8710000D02*
X13930000Y-8730000D01*
X13930000Y-8710000D02*
X13910000Y-8730000D01*
X13910000Y-8790000D02*
X13930000Y-8810000D01*
X13930000Y-8790000D02*
X13910000Y-8810000D01*
X13910000Y-8870000D02*
X13930000Y-8890000D01*
X13930000Y-8870000D02*
X13910000Y-8890000D01*
X13910000Y-9190000D02*
X13930000Y-9210000D01*
X13930000Y-9190000D02*
X13910000Y-9210000D01*
X13910000Y-9270000D02*
X13930000Y-9290000D01*
X13930000Y-9270000D02*
X13910000Y-9290000D01*
X13910000Y-9350000D02*
X13930000Y-9370000D01*
X13930000Y-9350000D02*
X13910000Y-9370000D01*
X13950000Y-8570000D02*
X13970000Y-8590000D01*
X13970000Y-8570000D02*
X13950000Y-8590000D01*
X13965000Y-9062300D02*
X13985000Y-9082300D01*
X13985000Y-9062300D02*
X13965000Y-9082300D01*
X13965000Y-9117700D02*
X13985000Y-9137700D01*
X13985000Y-9117700D02*
X13965000Y-9137700D01*
X13990000Y-5990000D02*
X14010000Y-6010000D01*
X14010000Y-5990000D02*
X13990000Y-6010000D01*
X13990000Y-6490000D02*
X14010000Y-6510000D01*
X14010000Y-6490000D02*
X13990000Y-6510000D01*
X13990000Y-6790000D02*
X14010000Y-6810000D01*
X14010000Y-6790000D02*
X13990000Y-6810000D01*
X13990000Y-6990000D02*
X14010000Y-7010000D01*
X14010000Y-6990000D02*
X13990000Y-7010000D01*
X13990000Y-7090000D02*
X14010000Y-7110000D01*
X14010000Y-7090000D02*
X13990000Y-7110000D01*
X13990000Y-7190000D02*
X14010000Y-7210000D01*
X14010000Y-7190000D02*
X13990000Y-7210000D01*
X13990000Y-7290000D02*
X14010000Y-7310000D01*
X14010000Y-7290000D02*
X13990000Y-7310000D01*
X13990000Y-7390000D02*
X14010000Y-7410000D01*
X14010000Y-7390000D02*
X13990000Y-7410000D01*
X13990000Y-7590000D02*
X14010000Y-7610000D01*
X14010000Y-7590000D02*
X13990000Y-7610000D01*
X13990000Y-7890000D02*
X14010000Y-7910000D01*
X14010000Y-7890000D02*
X13990000Y-7910000D01*
X13990000Y-8710000D02*
X14010000Y-8730000D01*
X14010000Y-8710000D02*
X13990000Y-8730000D01*
X13990000Y-8790000D02*
X14010000Y-8810000D01*
X14010000Y-8790000D02*
X13990000Y-8810000D01*
X13990000Y-8870000D02*
X14010000Y-8890000D01*
X14010000Y-8870000D02*
X13990000Y-8890000D01*
X13990000Y-9270000D02*
X14010000Y-9290000D01*
X14010000Y-9270000D02*
X13990000Y-9290000D01*
X13990000Y-9350000D02*
X14010000Y-9370000D01*
X14010000Y-9350000D02*
X13990000Y-9370000D01*
X14070000Y-8710000D02*
X14090000Y-8730000D01*
X14090000Y-8710000D02*
X14070000Y-8730000D01*
X14070000Y-8790000D02*
X14090000Y-8810000D01*
X14090000Y-8790000D02*
X14070000Y-8810000D01*
X14070000Y-8870000D02*
X14090000Y-8890000D01*
X14090000Y-8870000D02*
X14070000Y-8890000D01*
X14070000Y-9270000D02*
X14090000Y-9290000D01*
X14090000Y-9270000D02*
X14070000Y-9290000D01*
X14070000Y-9350000D02*
X14090000Y-9370000D01*
X14090000Y-9350000D02*
X14070000Y-9370000D01*
X14090000Y-5790000D02*
X14110000Y-5810000D01*
X14110000Y-5790000D02*
X14090000Y-5810000D01*
X14090000Y-6290000D02*
X14110000Y-6310000D01*
X14110000Y-6290000D02*
X14090000Y-6310000D01*
X14090000Y-6790000D02*
X14110000Y-6810000D01*
X14110000Y-6790000D02*
X14090000Y-6810000D01*
X14090000Y-6990000D02*
X14110000Y-7010000D01*
X14110000Y-6990000D02*
X14090000Y-7010000D01*
X14090000Y-7290000D02*
X14110000Y-7310000D01*
X14110000Y-7290000D02*
X14090000Y-7310000D01*
X14090000Y-7390000D02*
X14110000Y-7410000D01*
X14110000Y-7390000D02*
X14090000Y-7410000D01*
X14150000Y-8710000D02*
X14170000Y-8730000D01*
X14170000Y-8710000D02*
X14150000Y-8730000D01*
X14150000Y-8790000D02*
X14170000Y-8810000D01*
X14170000Y-8790000D02*
X14150000Y-8810000D01*
X14150000Y-8870000D02*
X14170000Y-8890000D01*
X14170000Y-8870000D02*
X14150000Y-8890000D01*
X14150000Y-9190000D02*
X14170000Y-9210000D01*
X14170000Y-9190000D02*
X14150000Y-9210000D01*
X14150000Y-9270000D02*
X14170000Y-9290000D01*
X14170000Y-9270000D02*
X14150000Y-9290000D01*
X14150000Y-9350000D02*
X14170000Y-9370000D01*
X14170000Y-9350000D02*
X14150000Y-9370000D01*
X14190000Y-7690000D02*
X14210000Y-7710000D01*
X14210000Y-7690000D02*
X14190000Y-7710000D01*
X14190000Y-7810000D02*
X14210000Y-7830000D01*
X14210000Y-7810000D02*
X14190000Y-7830000D01*
X14290000Y-6090000D02*
X14310000Y-6110000D01*
X14310000Y-6090000D02*
X14290000Y-6110000D01*
X14290000Y-6590000D02*
X14310000Y-6610000D01*
X14310000Y-6590000D02*
X14290000Y-6610000D01*
X14290000Y-6790000D02*
X14310000Y-6810000D01*
X14310000Y-6790000D02*
X14290000Y-6810000D01*
X14290000Y-6990000D02*
X14310000Y-7010000D01*
X14310000Y-6990000D02*
X14290000Y-7010000D01*
X14290000Y-7290000D02*
X14310000Y-7310000D01*
X14310000Y-7290000D02*
X14290000Y-7310000D01*
X14290000Y-7390000D02*
X14310000Y-7410000D01*
X14310000Y-7390000D02*
X14290000Y-7410000D01*
X14290000Y-7690000D02*
X14310000Y-7710000D01*
X14310000Y-7690000D02*
X14290000Y-7710000D01*
X14310000Y-8790000D02*
X14330000Y-8810000D01*
X14330000Y-8790000D02*
X14310000Y-8810000D01*
X14310000Y-8870000D02*
X14330000Y-8890000D01*
X14330000Y-8870000D02*
X14310000Y-8890000D01*
X14310000Y-9190000D02*
X14330000Y-9210000D01*
X14330000Y-9190000D02*
X14310000Y-9210000D01*
X14310000Y-9270000D02*
X14330000Y-9290000D01*
X14330000Y-9270000D02*
X14310000Y-9290000D01*
X14390000Y-5890000D02*
X14410000Y-5910000D01*
X14410000Y-5890000D02*
X14390000Y-5910000D01*
X14390000Y-6390000D02*
X14410000Y-6410000D01*
X14410000Y-6390000D02*
X14390000Y-6410000D01*
X14390000Y-6790000D02*
X14410000Y-6810000D01*
X14410000Y-6790000D02*
X14390000Y-6810000D01*
X14390000Y-6990000D02*
X14410000Y-7010000D01*
X14410000Y-6990000D02*
X14390000Y-7010000D01*
X14390000Y-7090000D02*
X14410000Y-7110000D01*
X14410000Y-7090000D02*
X14390000Y-7110000D01*
X14390000Y-7190000D02*
X14410000Y-7210000D01*
X14410000Y-7190000D02*
X14390000Y-7210000D01*
X14390000Y-7290000D02*
X14410000Y-7310000D01*
X14410000Y-7290000D02*
X14390000Y-7310000D01*
X14390000Y-7390000D02*
X14410000Y-7410000D01*
X14410000Y-7390000D02*
X14390000Y-7410000D01*
X14390000Y-7490000D02*
X14410000Y-7510000D01*
X14410000Y-7490000D02*
X14390000Y-7510000D01*
X14390000Y-7990000D02*
X14410000Y-8010000D01*
X14410000Y-7990000D02*
X14390000Y-8010000D01*
X14390000Y-8790000D02*
X14410000Y-8810000D01*
X14410000Y-8790000D02*
X14390000Y-8810000D01*
X14390000Y-8870000D02*
X14410000Y-8890000D01*
X14410000Y-8870000D02*
X14390000Y-8890000D01*
X14390000Y-9190000D02*
X14410000Y-9210000D01*
X14410000Y-9190000D02*
X14390000Y-9210000D01*
X14390000Y-9270000D02*
X14410000Y-9290000D01*
X14410000Y-9270000D02*
X14390000Y-9290000D01*
X14390000Y-9350000D02*
X14410000Y-9370000D01*
X14410000Y-9350000D02*
X14390000Y-9370000D01*
X14440000Y-5770000D02*
X14460000Y-5790000D01*
X14460000Y-5770000D02*
X14440000Y-5790000D01*
X14470000Y-8790000D02*
X14490000Y-8810000D01*
X14490000Y-8790000D02*
X14470000Y-8810000D01*
X14470000Y-9190000D02*
X14490000Y-9210000D01*
X14490000Y-9190000D02*
X14470000Y-9210000D01*
X14470000Y-9270000D02*
X14490000Y-9290000D01*
X14490000Y-9270000D02*
X14470000Y-9290000D01*
X14490000Y-6190000D02*
X14510000Y-6210000D01*
X14510000Y-6190000D02*
X14490000Y-6210000D01*
X14490000Y-6690000D02*
X14510000Y-6710000D01*
X14510000Y-6690000D02*
X14490000Y-6710000D01*
X14490000Y-6790000D02*
X14510000Y-6810000D01*
X14510000Y-6790000D02*
X14490000Y-6810000D01*
X14490000Y-6990000D02*
X14510000Y-7010000D01*
X14510000Y-6990000D02*
X14490000Y-7010000D01*
X14490000Y-7090000D02*
X14510000Y-7110000D01*
X14510000Y-7090000D02*
X14490000Y-7110000D01*
X14490000Y-7190000D02*
X14510000Y-7210000D01*
X14510000Y-7190000D02*
X14490000Y-7210000D01*
X14490000Y-7290000D02*
X14510000Y-7310000D01*
X14510000Y-7290000D02*
X14490000Y-7310000D01*
X14490000Y-7390000D02*
X14510000Y-7410000D01*
X14510000Y-7390000D02*
X14490000Y-7410000D01*
X14490000Y-7770000D02*
X14510000Y-7790000D01*
X14510000Y-7770000D02*
X14490000Y-7790000D01*
X14530000Y-9470000D02*
X14550000Y-9490000D01*
X14550000Y-9470000D02*
X14530000Y-9490000D01*
X14550000Y-8710000D02*
X14570000Y-8730000D01*
X14570000Y-8710000D02*
X14550000Y-8730000D01*
X14550000Y-8790000D02*
X14570000Y-8810000D01*
X14570000Y-8790000D02*
X14550000Y-8810000D01*
X14550000Y-9190000D02*
X14570000Y-9210000D01*
X14570000Y-9190000D02*
X14550000Y-9210000D01*
X14550000Y-9270000D02*
X14570000Y-9290000D01*
X14570000Y-9270000D02*
X14550000Y-9290000D01*
X14550000Y-9350000D02*
X14570000Y-9370000D01*
X14570000Y-9350000D02*
X14550000Y-9370000D01*
X14565000Y-8015000D02*
X14585000Y-8035000D01*
X14585000Y-8015000D02*
X14565000Y-8035000D01*
X14590000Y-5990000D02*
X14610000Y-6010000D01*
X14610000Y-5990000D02*
X14590000Y-6010000D01*
X14590000Y-6490000D02*
X14610000Y-6510000D01*
X14610000Y-6490000D02*
X14590000Y-6510000D01*
X14590000Y-6690000D02*
X14610000Y-6710000D01*
X14610000Y-6690000D02*
X14590000Y-6710000D01*
X14590000Y-6790000D02*
X14610000Y-6810000D01*
X14610000Y-6790000D02*
X14590000Y-6810000D01*
X14590000Y-6990000D02*
X14610000Y-7010000D01*
X14610000Y-6990000D02*
X14590000Y-7010000D01*
X14590000Y-7090000D02*
X14610000Y-7110000D01*
X14610000Y-7090000D02*
X14590000Y-7110000D01*
X14590000Y-7190000D02*
X14610000Y-7210000D01*
X14610000Y-7190000D02*
X14590000Y-7210000D01*
X14590000Y-7290000D02*
X14610000Y-7310000D01*
X14610000Y-7290000D02*
X14590000Y-7310000D01*
X14590000Y-7390000D02*
X14610000Y-7410000D01*
X14610000Y-7390000D02*
X14590000Y-7410000D01*
X14590000Y-7590000D02*
X14610000Y-7610000D01*
X14610000Y-7590000D02*
X14590000Y-7610000D01*
X14590000Y-7690000D02*
X14610000Y-7710000D01*
X14610000Y-7690000D02*
X14590000Y-7710000D01*
X14590000Y-7790000D02*
X14610000Y-7810000D01*
X14610000Y-7790000D02*
X14590000Y-7810000D01*
X14590000Y-7890000D02*
X14610000Y-7910000D01*
X14610000Y-7890000D02*
X14590000Y-7910000D01*
X14615000Y-5149500D02*
X14635000Y-5169500D01*
X14635000Y-5149500D02*
X14615000Y-5169500D01*
X14630000Y-8710000D02*
X14650000Y-8730000D01*
X14650000Y-8710000D02*
X14630000Y-8730000D01*
X14630000Y-8790000D02*
X14650000Y-8810000D01*
X14650000Y-8790000D02*
X14630000Y-8810000D01*
X14630000Y-9190000D02*
X14650000Y-9210000D01*
X14650000Y-9190000D02*
X14630000Y-9210000D01*
X14630000Y-9270000D02*
X14650000Y-9290000D01*
X14650000Y-9270000D02*
X14630000Y-9290000D01*
X14630000Y-9350000D02*
X14650000Y-9370000D01*
X14650000Y-9350000D02*
X14630000Y-9370000D01*
X14650000Y-8490000D02*
X14670000Y-8510000D01*
X14670000Y-8490000D02*
X14650000Y-8510000D01*
X14690000Y-5790000D02*
X14710000Y-5810000D01*
X14710000Y-5790000D02*
X14690000Y-5810000D01*
X14690000Y-6090000D02*
X14710000Y-6110000D01*
X14710000Y-6090000D02*
X14690000Y-6110000D01*
X14690000Y-6290000D02*
X14710000Y-6310000D01*
X14710000Y-6290000D02*
X14690000Y-6310000D01*
X14690000Y-6690000D02*
X14710000Y-6710000D01*
X14710000Y-6690000D02*
X14690000Y-6710000D01*
X14690000Y-6790000D02*
X14710000Y-6810000D01*
X14710000Y-6790000D02*
X14690000Y-6810000D01*
X14690000Y-6990000D02*
X14710000Y-7010000D01*
X14710000Y-6990000D02*
X14690000Y-7010000D01*
X14690000Y-7090000D02*
X14710000Y-7110000D01*
X14710000Y-7090000D02*
X14690000Y-7110000D01*
X14690000Y-7190000D02*
X14710000Y-7210000D01*
X14710000Y-7190000D02*
X14690000Y-7210000D01*
X14690000Y-7290000D02*
X14710000Y-7310000D01*
X14710000Y-7290000D02*
X14690000Y-7310000D01*
X14690000Y-7390000D02*
X14710000Y-7410000D01*
X14710000Y-7390000D02*
X14690000Y-7410000D01*
X14690000Y-7690000D02*
X14710000Y-7710000D01*
X14710000Y-7690000D02*
X14690000Y-7710000D01*
X14690000Y-7890000D02*
X14710000Y-7910000D01*
X14710000Y-7890000D02*
X14690000Y-7910000D01*
X14710000Y-8710000D02*
X14730000Y-8730000D01*
X14730000Y-8710000D02*
X14710000Y-8730000D01*
X14710000Y-8790000D02*
X14730000Y-8810000D01*
X14730000Y-8790000D02*
X14710000Y-8810000D01*
X14710000Y-8870000D02*
X14730000Y-8890000D01*
X14730000Y-8870000D02*
X14710000Y-8890000D01*
X14710000Y-9190000D02*
X14730000Y-9210000D01*
X14730000Y-9190000D02*
X14710000Y-9210000D01*
X14710000Y-9270000D02*
X14730000Y-9290000D01*
X14730000Y-9270000D02*
X14710000Y-9290000D01*
X14710000Y-9350000D02*
X14730000Y-9370000D01*
X14730000Y-9350000D02*
X14710000Y-9370000D01*
X14790000Y-6090000D02*
X14810000Y-6110000D01*
X14810000Y-6090000D02*
X14790000Y-6110000D01*
X14790000Y-6590000D02*
X14810000Y-6610000D01*
X14810000Y-6590000D02*
X14790000Y-6610000D01*
X14790000Y-6690000D02*
X14810000Y-6710000D01*
X14810000Y-6690000D02*
X14790000Y-6710000D01*
X14790000Y-6790000D02*
X14810000Y-6810000D01*
X14810000Y-6790000D02*
X14790000Y-6810000D01*
X14790000Y-6990000D02*
X14810000Y-7010000D01*
X14810000Y-6990000D02*
X14790000Y-7010000D01*
X14790000Y-7090000D02*
X14810000Y-7110000D01*
X14810000Y-7090000D02*
X14790000Y-7110000D01*
X14790000Y-7190000D02*
X14810000Y-7210000D01*
X14810000Y-7190000D02*
X14790000Y-7210000D01*
X14790000Y-7290000D02*
X14810000Y-7310000D01*
X14810000Y-7290000D02*
X14790000Y-7310000D01*
X14790000Y-7690000D02*
X14810000Y-7710000D01*
X14810000Y-7690000D02*
X14790000Y-7710000D01*
X14790000Y-7790000D02*
X14810000Y-7810000D01*
X14810000Y-7790000D02*
X14790000Y-7810000D01*
X14790000Y-8710000D02*
X14810000Y-8730000D01*
X14810000Y-8710000D02*
X14790000Y-8730000D01*
X14790000Y-8790000D02*
X14810000Y-8810000D01*
X14810000Y-8790000D02*
X14790000Y-8810000D01*
X14790000Y-9190000D02*
X14810000Y-9210000D01*
X14810000Y-9190000D02*
X14790000Y-9210000D01*
X14790000Y-9270000D02*
X14810000Y-9290000D01*
X14810000Y-9270000D02*
X14790000Y-9290000D01*
X14790000Y-9350000D02*
X14810000Y-9370000D01*
X14810000Y-9350000D02*
X14790000Y-9370000D01*
X14840000Y-8015000D02*
X14860000Y-8035000D01*
X14860000Y-8015000D02*
X14840000Y-8035000D01*
X14865000Y-9115000D02*
X14885000Y-9135000D01*
X14885000Y-9115000D02*
X14865000Y-9135000D01*
X14870000Y-8710000D02*
X14890000Y-8730000D01*
X14890000Y-8710000D02*
X14870000Y-8730000D01*
X14870000Y-8790000D02*
X14890000Y-8810000D01*
X14890000Y-8790000D02*
X14870000Y-8810000D01*
X14870000Y-9350000D02*
X14890000Y-9370000D01*
X14890000Y-9350000D02*
X14870000Y-9370000D01*
X14890000Y-5890000D02*
X14910000Y-5910000D01*
X14910000Y-5890000D02*
X14890000Y-5910000D01*
X14890000Y-6390000D02*
X14910000Y-6410000D01*
X14910000Y-6390000D02*
X14890000Y-6410000D01*
X14890000Y-6790000D02*
X14910000Y-6810000D01*
X14910000Y-6790000D02*
X14890000Y-6810000D01*
X14890000Y-6990000D02*
X14910000Y-7010000D01*
X14910000Y-6990000D02*
X14890000Y-7010000D01*
X14890000Y-7490000D02*
X14910000Y-7510000D01*
X14910000Y-7490000D02*
X14890000Y-7510000D01*
X14890000Y-7690000D02*
X14910000Y-7710000D01*
X14910000Y-7690000D02*
X14890000Y-7710000D01*
X14890000Y-7790000D02*
X14910000Y-7810000D01*
X14910000Y-7790000D02*
X14890000Y-7810000D01*
X14890000Y-9040000D02*
X14910000Y-9060000D01*
X14910000Y-9040000D02*
X14890000Y-9060000D01*
X14915000Y-8965000D02*
X14935000Y-8985000D01*
X14935000Y-8965000D02*
X14915000Y-8985000D01*
X14990000Y-6190000D02*
X15010000Y-6210000D01*
X15010000Y-6190000D02*
X14990000Y-6210000D01*
X14990000Y-6690000D02*
X15010000Y-6710000D01*
X15010000Y-6690000D02*
X14990000Y-6710000D01*
X14990000Y-7290000D02*
X15010000Y-7310000D01*
X15010000Y-7290000D02*
X14990000Y-7310000D01*
X14990000Y-7490000D02*
X15010000Y-7510000D01*
X15010000Y-7490000D02*
X14990000Y-7510000D01*
X14990000Y-7590000D02*
X15010000Y-7610000D01*
X15010000Y-7590000D02*
X14990000Y-7610000D01*
X14990000Y-7690000D02*
X15010000Y-7710000D01*
X15010000Y-7690000D02*
X14990000Y-7710000D01*
X14990000Y-7790000D02*
X15010000Y-7810000D01*
X15010000Y-7790000D02*
X14990000Y-7810000D01*
X15090000Y-5890000D02*
X15110000Y-5910000D01*
X15110000Y-5890000D02*
X15090000Y-5910000D01*
X15090000Y-5990000D02*
X15110000Y-6010000D01*
X15110000Y-5990000D02*
X15090000Y-6010000D01*
X15090000Y-6490000D02*
X15110000Y-6510000D01*
X15110000Y-6490000D02*
X15090000Y-6510000D01*
X15090000Y-7090000D02*
X15110000Y-7110000D01*
X15110000Y-7090000D02*
X15090000Y-7110000D01*
X15090000Y-7590000D02*
X15110000Y-7610000D01*
X15110000Y-7590000D02*
X15090000Y-7610000D01*
X15090000Y-7690000D02*
X15110000Y-7710000D01*
X15110000Y-7690000D02*
X15090000Y-7710000D01*
X15090000Y-7790000D02*
X15110000Y-7810000D01*
X15110000Y-7790000D02*
X15090000Y-7810000D01*
X15090000Y-9040000D02*
X15110000Y-9060000D01*
X15110000Y-9040000D02*
X15090000Y-9060000D01*
X15165000Y-8890000D02*
X15185000Y-8910000D01*
X15185000Y-8890000D02*
X15165000Y-8910000D01*
X15167500Y-8492500D02*
X15187500Y-8512500D01*
X15187500Y-8492500D02*
X15167500Y-8512500D01*
X15190000Y-5790000D02*
X15210000Y-5810000D01*
X15210000Y-5790000D02*
X15190000Y-5810000D01*
X15190000Y-6290000D02*
X15210000Y-6310000D01*
X15210000Y-6290000D02*
X15190000Y-6310000D01*
X15190000Y-6790000D02*
X15210000Y-6810000D01*
X15210000Y-6790000D02*
X15190000Y-6810000D01*
X15190000Y-7390000D02*
X15210000Y-7410000D01*
X15210000Y-7390000D02*
X15190000Y-7410000D01*
X15190000Y-7690000D02*
X15210000Y-7710000D01*
X15210000Y-7690000D02*
X15190000Y-7710000D01*
X15190000Y-7890000D02*
X15210000Y-7910000D01*
X15210000Y-7890000D02*
X15190000Y-7910000D01*
X15250000Y-8810000D02*
X15270000Y-8830000D01*
X15270000Y-8810000D02*
X15250000Y-8830000D01*
X15267500Y-8192500D02*
X15287500Y-8212500D01*
X15287500Y-8192500D02*
X15267500Y-8212500D01*
X15290000Y-6090000D02*
X15310000Y-6110000D01*
X15310000Y-6090000D02*
X15290000Y-6110000D01*
X15290000Y-6590000D02*
X15310000Y-6610000D01*
X15310000Y-6590000D02*
X15290000Y-6610000D01*
X15290000Y-7190000D02*
X15310000Y-7210000D01*
X15310000Y-7190000D02*
X15290000Y-7210000D01*
X15290000Y-7690000D02*
X15310000Y-7710000D01*
X15310000Y-7690000D02*
X15290000Y-7710000D01*
X15315000Y-5403000D02*
X15335000Y-5423000D01*
X15335000Y-5403000D02*
X15315000Y-5423000D01*
X15315000Y-5530000D02*
X15335000Y-5550000D01*
X15335000Y-5530000D02*
X15315000Y-5550000D01*
X15370000Y-7670000D02*
X15390000Y-7690000D01*
X15390000Y-7670000D02*
X15370000Y-7690000D01*
X15390000Y-9210000D02*
X15410000Y-9230000D01*
X15410000Y-9210000D02*
X15390000Y-9230000D01*
X15410000Y-8130000D02*
X15430000Y-8150000D01*
X15430000Y-8130000D02*
X15410000Y-8150000D01*
X15465000Y-8770000D02*
X15485000Y-8790000D01*
X15485000Y-8770000D02*
X15465000Y-8790000D01*
X15470000Y-8910000D02*
X15490000Y-8930000D01*
X15490000Y-8910000D02*
X15470000Y-8930000D01*
X15490000Y-5940000D02*
X15510000Y-5960000D01*
X15510000Y-5940000D02*
X15490000Y-5960000D01*
X15490000Y-7690000D02*
X15510000Y-7710000D01*
X15510000Y-7690000D02*
X15490000Y-7710000D01*
X15510000Y-8170000D02*
X15530000Y-8190000D01*
X15530000Y-8170000D02*
X15510000Y-8190000D01*
X15590000Y-8250000D02*
X15610000Y-8270000D01*
X15610000Y-8250000D02*
X15590000Y-8270000D01*
X15740000Y-5465000D02*
X15760000Y-5485000D01*
X15760000Y-5465000D02*
X15740000Y-5485000D01*
X15815000Y-4790000D02*
X15835000Y-4810000D01*
X15835000Y-4790000D02*
X15815000Y-4810000D01*
X15815000Y-5690000D02*
X15835000Y-5710000D01*
X15835000Y-5690000D02*
X15815000Y-5710000D01*
X15815000Y-5815000D02*
X15835000Y-5835000D01*
X15835000Y-5815000D02*
X15815000Y-5835000D01*
X15890000Y-7762300D02*
X15910000Y-7782300D01*
X15910000Y-7762300D02*
X15890000Y-7782300D01*
X15890000Y-7817700D02*
X15910000Y-7837700D01*
X15910000Y-7817700D02*
X15890000Y-7837700D01*
X16215000Y-4840000D02*
X16235000Y-4860000D01*
X16235000Y-4840000D02*
X16215000Y-4860000D01*
X16290000Y-5765000D02*
X16310000Y-5785000D01*
X16310000Y-5765000D02*
X16290000Y-5785000D01*
X12181250Y-9007500D02*
G75*
G02*
X12161250Y-9007500I-10000J0D01*
G01*
X12161250Y-9007500D02*
G75*
G02*
X12181250Y-9007500I10000J0D01*
G01*
X12301250Y-9007500D02*
G75*
G02*
X12281250Y-9007500I-10000J0D01*
G01*
X12281250Y-9007500D02*
G75*
G02*
X12301250Y-9007500I10000J0D01*
G01*
X12421250Y-9007500D02*
G75*
G02*
X12401250Y-9007500I-10000J0D01*
G01*
X12401250Y-9007500D02*
G75*
G02*
X12421250Y-9007500I10000J0D01*
G01*
X10500000Y-5462500D02*
X10500000Y-5487500D01*
X10487500Y-5475000D02*
X10512500Y-5475000D01*
X10500000Y-5537500D02*
X10500000Y-5562500D01*
X10487500Y-5550000D02*
X10512500Y-5550000D01*
X10595000Y-5682500D02*
X10595000Y-5707500D01*
X10582500Y-5695000D02*
X10607500Y-5695000D01*
X10686056Y-8980516D02*
X10686056Y-9005516D01*
X10673556Y-8993016D02*
X10698556Y-8993016D01*
X10759989Y-8980253D02*
X10759989Y-9005253D01*
X10747489Y-8992753D02*
X10772489Y-8992753D01*
X10760000Y-8832500D02*
X10760000Y-8857500D01*
X10747500Y-8845000D02*
X10772500Y-8845000D01*
X10785000Y-9147500D02*
X10785000Y-9172500D01*
X10772500Y-9160000D02*
X10797500Y-9160000D01*
X10820000Y-5727500D02*
X10820000Y-5752500D01*
X10807500Y-5740000D02*
X10832500Y-5740000D01*
X10850000Y-8692500D02*
X10850000Y-8717500D01*
X10837500Y-8705000D02*
X10862500Y-8705000D01*
X10850000Y-8787500D02*
X10850000Y-8812500D01*
X10837500Y-8800000D02*
X10862500Y-8800000D01*
X10865000Y-9187500D02*
X10865000Y-9212500D01*
X10852500Y-9200000D02*
X10877500Y-9200000D01*
X10875000Y-9312500D02*
X10875000Y-9337500D01*
X10862500Y-9325000D02*
X10887500Y-9325000D01*
X10880000Y-5247500D02*
X10880000Y-5272500D01*
X10867500Y-5260000D02*
X10892500Y-5260000D01*
X10920000Y-8642500D02*
X10920000Y-8667500D01*
X10907500Y-8655000D02*
X10932500Y-8655000D01*
X10940000Y-5247500D02*
X10940000Y-5272500D01*
X10927500Y-5260000D02*
X10952500Y-5260000D01*
X11025000Y-5312500D02*
X11025000Y-5337500D01*
X11012500Y-5325000D02*
X11037500Y-5325000D01*
X11050000Y-9337500D02*
X11050000Y-9362500D01*
X11037500Y-9350000D02*
X11062500Y-9350000D01*
X11099267Y-8627445D02*
X11099267Y-8652445D01*
X11086767Y-8639945D02*
X11111767Y-8639945D01*
X11125000Y-9337500D02*
X11125000Y-9362500D01*
X11112500Y-9350000D02*
X11137500Y-9350000D01*
X11160000Y-5467500D02*
X11160000Y-5492500D01*
X11147500Y-5480000D02*
X11172500Y-5480000D01*
X11160000Y-5527500D02*
X11160000Y-5552500D01*
X11147500Y-5540000D02*
X11172500Y-5540000D01*
X11162500Y-8642500D02*
X11162500Y-8667500D01*
X11150000Y-8655000D02*
X11175000Y-8655000D01*
X11225000Y-9237500D02*
X11225000Y-9262500D01*
X11212500Y-9250000D02*
X11237500Y-9250000D01*
X11245000Y-8692500D02*
X11245000Y-8717500D01*
X11232500Y-8705000D02*
X11257500Y-8705000D01*
X11250000Y-8787500D02*
X11250000Y-8812500D01*
X11237500Y-8800000D02*
X11262500Y-8800000D01*
X11250000Y-9162500D02*
X11250000Y-9187500D01*
X11237500Y-9175000D02*
X11262500Y-9175000D01*
X11255000Y-5682500D02*
X11255000Y-5707500D01*
X11242500Y-5695000D02*
X11267500Y-5695000D01*
X11312500Y-8720000D02*
X11312500Y-8745000D01*
X11300000Y-8732500D02*
X11325000Y-8732500D01*
X11316250Y-9117500D02*
X11316250Y-9142500D01*
X11303750Y-9130000D02*
X11328750Y-9130000D01*
X11480000Y-5727500D02*
X11480000Y-5752500D01*
X11467500Y-5740000D02*
X11492500Y-5740000D01*
X11545000Y-5242500D02*
X11545000Y-5267500D01*
X11532500Y-5255000D02*
X11557500Y-5255000D01*
X11550000Y-7437500D02*
X11550000Y-7462500D01*
X11537500Y-7450000D02*
X11562500Y-7450000D01*
X11660000Y-5327500D02*
X11660000Y-5352500D01*
X11647500Y-5340000D02*
X11672500Y-5340000D01*
X11880000Y-5192500D02*
X11880000Y-5217500D01*
X11867500Y-5205000D02*
X11892500Y-5205000D01*
X11880000Y-5682500D02*
X11880000Y-5707500D01*
X11867500Y-5695000D02*
X11892500Y-5695000D01*
X12020000Y-5627500D02*
X12020000Y-5652500D01*
X12007500Y-5640000D02*
X12032500Y-5640000D01*
X12150000Y-5312500D02*
X12150000Y-5337500D01*
X12137500Y-5325000D02*
X12162500Y-5325000D01*
X12240000Y-5627500D02*
X12240000Y-5652500D01*
X12227500Y-5640000D02*
X12252500Y-5640000D01*
X12440000Y-5607500D02*
X12440000Y-5632500D01*
X12427500Y-5620000D02*
X12452500Y-5620000D01*
X12500000Y-5547500D02*
X12500000Y-5572500D01*
X12487500Y-5560000D02*
X12512500Y-5560000D01*
X12512000Y-5439500D02*
X12512000Y-5464500D01*
X12499500Y-5452000D02*
X12524500Y-5452000D01*
X13691582Y-5079215D02*
X13691582Y-5104215D01*
X13679082Y-5091715D02*
X13704082Y-5091715D01*
X13774000Y-5341500D02*
X13774000Y-5366500D01*
X13761500Y-5354000D02*
X13786500Y-5354000D01*
X13900000Y-5487500D02*
X13900000Y-5512500D01*
X13887500Y-5500000D02*
X13912500Y-5500000D01*
X14220000Y-5427500D02*
X14220000Y-5452500D01*
X14207500Y-5440000D02*
X14232500Y-5440000D01*
X14400000Y-9066500D02*
X14400000Y-9091500D01*
X14387500Y-9079000D02*
X14412500Y-9079000D01*
X14500000Y-5347500D02*
X14500000Y-5372500D01*
X14487500Y-5360000D02*
X14512500Y-5360000D01*
X14540000Y-5187500D02*
X14540000Y-5212500D01*
X14527500Y-5200000D02*
X14552500Y-5200000D01*
X14600000Y-5527500D02*
X14600000Y-5552500D01*
X14587500Y-5540000D02*
X14612500Y-5540000D01*
X14980000Y-5587500D02*
X14980000Y-5612500D01*
X14967500Y-5600000D02*
X14992500Y-5600000D01*
X15000000Y-5887500D02*
X15000000Y-5912500D01*
X14987500Y-5900000D02*
X15012500Y-5900000D01*
X15120000Y-5087500D02*
X15120000Y-5112500D01*
X15107500Y-5100000D02*
X15132500Y-5100000D01*
X10260607Y-8385607D02*
X10260607Y-8364393D01*
X10239393Y-8364393D01*
X10239393Y-8385607D01*
X10260607Y-8385607D01*
X10260607Y-8758107D02*
X10260607Y-8736893D01*
X10239393Y-8736893D01*
X10239393Y-8758107D01*
X10260607Y-8758107D01*
X10260607Y-9230607D02*
X10260607Y-9209393D01*
X10239393Y-9209393D01*
X10239393Y-9230607D01*
X10260607Y-9230607D01*
X10260607Y-9585607D02*
X10260607Y-9564393D01*
X10239393Y-9564393D01*
X10239393Y-9585607D01*
X10260607Y-9585607D01*
X10320607Y-8910607D02*
X10320607Y-8889393D01*
X10299393Y-8889393D01*
X10299393Y-8910607D01*
X10320607Y-8910607D01*
X10320607Y-9060607D02*
X10320607Y-9039393D01*
X10299393Y-9039393D01*
X10299393Y-9060607D01*
X10320607Y-9060607D01*
X10485607Y-8360607D02*
X10485607Y-8339393D01*
X10464393Y-8339393D01*
X10464393Y-8360607D01*
X10485607Y-8360607D01*
X10485607Y-9610607D02*
X10485607Y-9589393D01*
X10464393Y-9589393D01*
X10464393Y-9610607D01*
X10485607Y-9610607D01*
X10573107Y-8823107D02*
X10573107Y-8801893D01*
X10551893Y-8801893D01*
X10551893Y-8823107D01*
X10573107Y-8823107D01*
X10573107Y-9145607D02*
X10573107Y-9124393D01*
X10551893Y-9124393D01*
X10551893Y-9145607D01*
X10573107Y-9145607D01*
X10635607Y-6355607D02*
X10635607Y-6334393D01*
X10614393Y-6334393D01*
X10614393Y-6355607D01*
X10635607Y-6355607D01*
X10655607Y-6205607D02*
X10655607Y-6184393D01*
X10634393Y-6184393D01*
X10634393Y-6205607D01*
X10655607Y-6205607D01*
X10660607Y-6019357D02*
X10660607Y-5998143D01*
X10639393Y-5998143D01*
X10639393Y-6019357D01*
X10660607Y-6019357D01*
X10660607Y-8360607D02*
X10660607Y-8339393D01*
X10639393Y-8339393D01*
X10639393Y-8360607D01*
X10660607Y-8360607D01*
X10660607Y-9610607D02*
X10660607Y-9589393D01*
X10639393Y-9589393D01*
X10639393Y-9610607D01*
X10660607Y-9610607D01*
X10735607Y-6445607D02*
X10735607Y-6424393D01*
X10714393Y-6424393D01*
X10714393Y-6445607D01*
X10735607Y-6445607D01*
X10805607Y-5910607D02*
X10805607Y-5889393D01*
X10784393Y-5889393D01*
X10784393Y-5910607D01*
X10805607Y-5910607D01*
X10805607Y-6180607D02*
X10805607Y-6159393D01*
X10784393Y-6159393D01*
X10784393Y-6180607D01*
X10805607Y-6180607D01*
X10885607Y-9610607D02*
X10885607Y-9589393D01*
X10864393Y-9589393D01*
X10864393Y-9610607D01*
X10885607Y-9610607D01*
X10908107Y-8488107D02*
X10908107Y-8466893D01*
X10886893Y-8466893D01*
X10886893Y-8488107D01*
X10908107Y-8488107D01*
X10965607Y-6430607D02*
X10965607Y-6409393D01*
X10944393Y-6409393D01*
X10944393Y-6430607D01*
X10965607Y-6430607D01*
X10985607Y-9610607D02*
X10985607Y-9589393D01*
X10964393Y-9589393D01*
X10964393Y-9610607D01*
X10985607Y-9610607D01*
X11010607Y-6330607D02*
X11010607Y-6309393D01*
X10989393Y-6309393D01*
X10989393Y-6330607D01*
X11010607Y-6330607D01*
X11060607Y-6910607D02*
X11060607Y-6889393D01*
X11039393Y-6889393D01*
X11039393Y-6910607D01*
X11060607Y-6910607D01*
X11060607Y-7060607D02*
X11060607Y-7039393D01*
X11039393Y-7039393D01*
X11039393Y-7060607D01*
X11060607Y-7060607D01*
X11060607Y-7210607D02*
X11060607Y-7189393D01*
X11039393Y-7189393D01*
X11039393Y-7210607D01*
X11060607Y-7210607D01*
X11060607Y-7360607D02*
X11060607Y-7339393D01*
X11039393Y-7339393D01*
X11039393Y-7360607D01*
X11060607Y-7360607D01*
X11060607Y-7510607D02*
X11060607Y-7489393D01*
X11039393Y-7489393D01*
X11039393Y-7510607D01*
X11060607Y-7510607D01*
X11060607Y-7610607D02*
X11060607Y-7589393D01*
X11039393Y-7589393D01*
X11039393Y-7610607D01*
X11060607Y-7610607D01*
X11135607Y-9610607D02*
X11135607Y-9589393D01*
X11114393Y-9589393D01*
X11114393Y-9610607D01*
X11135607Y-9610607D01*
X11160607Y-6735607D02*
X11160607Y-6714393D01*
X11139393Y-6714393D01*
X11139393Y-6735607D01*
X11160607Y-6735607D01*
X11210607Y-8488107D02*
X11210607Y-8466893D01*
X11189393Y-8466893D01*
X11189393Y-8488107D01*
X11210607Y-8488107D01*
X11235607Y-6735607D02*
X11235607Y-6714393D01*
X11214393Y-6714393D01*
X11214393Y-6735607D01*
X11235607Y-6735607D01*
X11235607Y-9610607D02*
X11235607Y-9589393D01*
X11214393Y-9589393D01*
X11214393Y-9610607D01*
X11235607Y-9610607D01*
X11460607Y-8360607D02*
X11460607Y-8339393D01*
X11439393Y-8339393D01*
X11439393Y-8360607D01*
X11460607Y-8360607D01*
X11460607Y-9610607D02*
X11460607Y-9589393D01*
X11439393Y-9589393D01*
X11439393Y-9610607D01*
X11460607Y-9610607D01*
X11548107Y-8823107D02*
X11548107Y-8801893D01*
X11526893Y-8801893D01*
X11526893Y-8823107D01*
X11548107Y-8823107D01*
X11548107Y-9148107D02*
X11548107Y-9126893D01*
X11526893Y-9126893D01*
X11526893Y-9148107D01*
X11548107Y-9148107D01*
X11635607Y-8360607D02*
X11635607Y-8339393D01*
X11614393Y-8339393D01*
X11614393Y-8360607D01*
X11635607Y-8360607D01*
X11635607Y-9610607D02*
X11635607Y-9589393D01*
X11614393Y-9589393D01*
X11614393Y-9610607D01*
X11635607Y-9610607D01*
X11800607Y-8910607D02*
X11800607Y-8889393D01*
X11779393Y-8889393D01*
X11779393Y-8910607D01*
X11800607Y-8910607D01*
X11800607Y-9060607D02*
X11800607Y-9039393D01*
X11779393Y-9039393D01*
X11779393Y-9060607D01*
X11800607Y-9060607D01*
X11860607Y-8385607D02*
X11860607Y-8364393D01*
X11839393Y-8364393D01*
X11839393Y-8385607D01*
X11860607Y-8385607D01*
X11860607Y-8758107D02*
X11860607Y-8736893D01*
X11839393Y-8736893D01*
X11839393Y-8758107D01*
X11860607Y-8758107D01*
X11860607Y-9210607D02*
X11860607Y-9189393D01*
X11839393Y-9189393D01*
X11839393Y-9210607D01*
X11860607Y-9210607D01*
X11860607Y-9585607D02*
X11860607Y-9564393D01*
X11839393Y-9564393D01*
X11839393Y-9585607D01*
X11860607Y-9585607D01*
X11985607Y-8760607D02*
X11985607Y-8739393D01*
X11964393Y-8739393D01*
X11964393Y-8760607D01*
X11985607Y-8760607D01*
X11990607Y-8990607D02*
X11990607Y-8969393D01*
X11969393Y-8969393D01*
X11969393Y-8990607D01*
X11990607Y-8990607D01*
X11992107Y-9092107D02*
X11992107Y-9070893D01*
X11970893Y-9070893D01*
X11970893Y-9092107D01*
X11992107Y-9092107D01*
X12060607Y-8535607D02*
X12060607Y-8514393D01*
X12039393Y-8514393D01*
X12039393Y-8535607D01*
X12060607Y-8535607D01*
X12175857Y-9325607D02*
X12175857Y-9304393D01*
X12154643Y-9304393D01*
X12154643Y-9325607D01*
X12175857Y-9325607D01*
X12280607Y-8670607D02*
X12280607Y-8649393D01*
X12259393Y-8649393D01*
X12259393Y-8670607D01*
X12280607Y-8670607D01*
X12280607Y-8750607D02*
X12280607Y-8729393D01*
X12259393Y-8729393D01*
X12259393Y-8750607D01*
X12280607Y-8750607D01*
X12361857Y-6236857D02*
X12361857Y-6215643D01*
X12340643Y-6215643D01*
X12340643Y-6236857D01*
X12361857Y-6236857D01*
X12375607Y-9815607D02*
X12375607Y-9794393D01*
X12354393Y-9794393D01*
X12354393Y-9815607D01*
X12375607Y-9815607D01*
X12513107Y-6088107D02*
X12513107Y-6066893D01*
X12491893Y-6066893D01*
X12491893Y-6088107D01*
X12513107Y-6088107D01*
X12513107Y-6638107D02*
X12513107Y-6616893D01*
X12491893Y-6616893D01*
X12491893Y-6638107D01*
X12513107Y-6638107D01*
X12550607Y-9795607D02*
X12550607Y-9774393D01*
X12529393Y-9774393D01*
X12529393Y-9795607D01*
X12550607Y-9795607D01*
X12650607Y-9695607D02*
X12650607Y-9674393D01*
X12629393Y-9674393D01*
X12629393Y-9695607D01*
X12650607Y-9695607D01*
X12885607Y-6035607D02*
X12885607Y-6014393D01*
X12864393Y-6014393D01*
X12864393Y-6035607D01*
X12885607Y-6035607D01*
X12885607Y-6410607D02*
X12885607Y-6389393D01*
X12864393Y-6389393D01*
X12864393Y-6410607D01*
X12885607Y-6410607D01*
X12885607Y-6585607D02*
X12885607Y-6564393D01*
X12864393Y-6564393D01*
X12864393Y-6585607D01*
X12885607Y-6585607D01*
X12885607Y-6960607D02*
X12885607Y-6939393D01*
X12864393Y-6939393D01*
X12864393Y-6960607D01*
X12885607Y-6960607D01*
X13185607Y-5385607D02*
X13185607Y-5364393D01*
X13164393Y-5364393D01*
X13164393Y-5385607D01*
X13185607Y-5385607D01*
X13260607Y-5585607D02*
X13260607Y-5564393D01*
X13239393Y-5564393D01*
X13239393Y-5585607D01*
X13260607Y-5585607D01*
X13583107Y-5515607D02*
X13583107Y-5494393D01*
X13561893Y-5494393D01*
X13561893Y-5515607D01*
X13583107Y-5515607D01*
X13935607Y-5385607D02*
X13935607Y-5364393D01*
X13914393Y-5364393D01*
X13914393Y-5385607D01*
X13935607Y-5385607D01*
X14010607Y-5585607D02*
X14010607Y-5564393D01*
X13989393Y-5564393D01*
X13989393Y-5585607D01*
X14010607Y-5585607D01*
X14090607Y-9590607D02*
X14090607Y-9569393D01*
X14069393Y-9569393D01*
X14069393Y-9590607D01*
X14090607Y-9590607D01*
X14150607Y-9650607D02*
X14150607Y-9629393D01*
X14129393Y-9629393D01*
X14129393Y-9650607D01*
X14150607Y-9650607D01*
X14155607Y-9745607D02*
X14155607Y-9724393D01*
X14134393Y-9724393D01*
X14134393Y-9745607D01*
X14155607Y-9745607D01*
X14333107Y-5515607D02*
X14333107Y-5494393D01*
X14311893Y-5494393D01*
X14311893Y-5515607D01*
X14333107Y-5515607D01*
X15362607Y-5098607D02*
X15362607Y-5077393D01*
X15341393Y-5077393D01*
X15341393Y-5098607D01*
X15362607Y-5098607D01*
X15535607Y-6435607D02*
X15535607Y-6414393D01*
X15514393Y-6414393D01*
X15514393Y-6435607D01*
X15535607Y-6435607D01*
X15535607Y-6935607D02*
X15535607Y-6914393D01*
X15514393Y-6914393D01*
X15514393Y-6935607D01*
X15535607Y-6935607D01*
X15605607Y-6758107D02*
X15605607Y-6736893D01*
X15584393Y-6736893D01*
X15584393Y-6758107D01*
X15605607Y-6758107D01*
X15606857Y-7283107D02*
X15606857Y-7261893D01*
X15585643Y-7261893D01*
X15585643Y-7283107D01*
X15606857Y-7283107D01*
X15735607Y-6585607D02*
X15735607Y-6564393D01*
X15714393Y-6564393D01*
X15714393Y-6585607D01*
X15735607Y-6585607D01*
X15810607Y-8311607D02*
X15810607Y-8290393D01*
X15789393Y-8290393D01*
X15789393Y-8311607D01*
X15810607Y-8311607D01*
X15811607Y-8009607D02*
X15811607Y-7988393D01*
X15790393Y-7988393D01*
X15790393Y-8009607D01*
X15811607Y-8009607D01*
X15815607Y-8505607D02*
X15815607Y-8484393D01*
X15794393Y-8484393D01*
X15794393Y-8505607D01*
X15815607Y-8505607D01*
X15885607Y-6988107D02*
X15885607Y-6966893D01*
X15864393Y-6966893D01*
X15864393Y-6988107D01*
X15885607Y-6988107D01*
X15987607Y-8908607D02*
X15987607Y-8887393D01*
X15966393Y-8887393D01*
X15966393Y-8908607D01*
X15987607Y-8908607D01*
X16160607Y-8810607D02*
X16160607Y-8789393D01*
X16139393Y-8789393D01*
X16139393Y-8810607D01*
X16160607Y-8810607D01*
X16185607Y-5710607D02*
X16185607Y-5689393D01*
X16164393Y-5689393D01*
X16164393Y-5710607D01*
X16185607Y-5710607D01*
X16185607Y-5960607D02*
X16185607Y-5939393D01*
X16164393Y-5939393D01*
X16164393Y-5960607D01*
X16185607Y-5960607D01*
X16255607Y-8665607D02*
X16255607Y-8644393D01*
X16234393Y-8644393D01*
X16234393Y-8665607D01*
X16255607Y-8665607D01*
X16259607Y-8009607D02*
X16259607Y-7988393D01*
X16238393Y-7988393D01*
X16238393Y-8009607D01*
X16259607Y-8009607D01*
X16260607Y-8311607D02*
X16260607Y-8290393D01*
X16239393Y-8290393D01*
X16239393Y-8311607D01*
X16260607Y-8311607D01*
X10837000Y-4673000D02*
X10887000Y-4623000D01*
X10837000Y-4573000D01*
X10787000Y-4623000D01*
X10837000Y-4673000D01*
X10837000Y-4927000D02*
X10887000Y-4877000D01*
X10837000Y-4827000D01*
X10787000Y-4877000D01*
X10837000Y-4927000D01*
X11091000Y-4673000D02*
X11141000Y-4623000D01*
X11091000Y-4573000D01*
X11041000Y-4623000D01*
X11091000Y-4673000D01*
X11091000Y-4927000D02*
X11141000Y-4877000D01*
X11091000Y-4827000D01*
X11041000Y-4877000D01*
X11091000Y-4927000D01*
X11345000Y-4673000D02*
X11395000Y-4623000D01*
X11345000Y-4573000D01*
X11295000Y-4623000D01*
X11345000Y-4673000D01*
X11345000Y-4927000D02*
X11395000Y-4877000D01*
X11345000Y-4827000D01*
X11295000Y-4877000D01*
X11345000Y-4927000D01*
X11599000Y-4673000D02*
X11649000Y-4623000D01*
X11599000Y-4573000D01*
X11549000Y-4623000D01*
X11599000Y-4673000D01*
X11599000Y-4927000D02*
X11649000Y-4877000D01*
X11599000Y-4827000D01*
X11549000Y-4877000D01*
X11599000Y-4927000D01*
X11853000Y-4673000D02*
X11903000Y-4623000D01*
X11853000Y-4573000D01*
X11803000Y-4623000D01*
X11853000Y-4673000D01*
X11853000Y-4927000D02*
X11903000Y-4877000D01*
X11853000Y-4827000D01*
X11803000Y-4877000D01*
X11853000Y-4927000D01*
X12107000Y-4673000D02*
X12157000Y-4623000D01*
X12107000Y-4573000D01*
X12057000Y-4623000D01*
X12107000Y-4673000D01*
X12107000Y-4927000D02*
X12157000Y-4877000D01*
X12107000Y-4827000D01*
X12057000Y-4877000D01*
X12107000Y-4927000D01*
X12361000Y-4673000D02*
X12411000Y-4623000D01*
X12361000Y-4573000D01*
X12311000Y-4623000D01*
X12361000Y-4673000D01*
X12361000Y-4927000D02*
X12411000Y-4877000D01*
X12361000Y-4827000D01*
X12311000Y-4877000D01*
X12361000Y-4927000D01*
X12615000Y-4673000D02*
X12665000Y-4623000D01*
X12615000Y-4573000D01*
X12565000Y-4623000D01*
X12615000Y-4673000D01*
X12615000Y-4927000D02*
X12665000Y-4877000D01*
X12615000Y-4827000D01*
X12565000Y-4877000D01*
X12615000Y-4927000D01*
X12869000Y-4673000D02*
X12919000Y-4623000D01*
X12869000Y-4573000D01*
X12819000Y-4623000D01*
X12869000Y-4673000D01*
X12869000Y-4927000D02*
X12919000Y-4877000D01*
X12869000Y-4827000D01*
X12819000Y-4877000D01*
X12869000Y-4927000D01*
X13123000Y-4673000D02*
X13173000Y-4623000D01*
X13123000Y-4573000D01*
X13073000Y-4623000D01*
X13123000Y-4673000D01*
X13123000Y-4927000D02*
X13173000Y-4877000D01*
X13123000Y-4827000D01*
X13073000Y-4877000D01*
X13123000Y-4927000D01*
X13377000Y-4673000D02*
X13427000Y-4623000D01*
X13377000Y-4573000D01*
X13327000Y-4623000D01*
X13377000Y-4673000D01*
X13377000Y-4927000D02*
X13427000Y-4877000D01*
X13377000Y-4827000D01*
X13327000Y-4877000D01*
X13377000Y-4927000D01*
X13631000Y-4673000D02*
X13681000Y-4623000D01*
X13631000Y-4573000D01*
X13581000Y-4623000D01*
X13631000Y-4673000D01*
X13631000Y-4927000D02*
X13681000Y-4877000D01*
X13631000Y-4827000D01*
X13581000Y-4877000D01*
X13631000Y-4927000D01*
X13885000Y-4673000D02*
X13935000Y-4623000D01*
X13885000Y-4573000D01*
X13835000Y-4623000D01*
X13885000Y-4673000D01*
X13885000Y-4927000D02*
X13935000Y-4877000D01*
X13885000Y-4827000D01*
X13835000Y-4877000D01*
X13885000Y-4927000D01*
X14139000Y-4673000D02*
X14189000Y-4623000D01*
X14139000Y-4573000D01*
X14089000Y-4623000D01*
X14139000Y-4673000D01*
X14139000Y-4927000D02*
X14189000Y-4877000D01*
X14139000Y-4827000D01*
X14089000Y-4877000D01*
X14139000Y-4927000D01*
X14393000Y-4673000D02*
X14443000Y-4623000D01*
X14393000Y-4573000D01*
X14343000Y-4623000D01*
X14393000Y-4673000D01*
X14393000Y-4927000D02*
X14443000Y-4877000D01*
X14393000Y-4827000D01*
X14343000Y-4877000D01*
X14393000Y-4927000D01*
X14647000Y-4673000D02*
X14697000Y-4623000D01*
X14647000Y-4573000D01*
X14597000Y-4623000D01*
X14647000Y-4673000D01*
X14647000Y-4927000D02*
X14697000Y-4877000D01*
X14647000Y-4827000D01*
X14597000Y-4877000D01*
X14647000Y-4927000D01*
X14901000Y-4673000D02*
X14951000Y-4623000D01*
X14901000Y-4573000D01*
X14851000Y-4623000D01*
X14901000Y-4673000D01*
X14901000Y-4927000D02*
X14951000Y-4877000D01*
X14901000Y-4827000D01*
X14851000Y-4877000D01*
X14901000Y-4927000D01*
X15155000Y-4673000D02*
X15205000Y-4623000D01*
X15155000Y-4573000D01*
X15105000Y-4623000D01*
X15155000Y-4673000D01*
X15155000Y-4927000D02*
X15205000Y-4877000D01*
X15155000Y-4827000D01*
X15105000Y-4877000D01*
X15155000Y-4927000D01*
X15409000Y-4673000D02*
X15459000Y-4623000D01*
X15409000Y-4573000D01*
X15359000Y-4623000D01*
X15409000Y-4673000D01*
X15409000Y-4927000D02*
X15459000Y-4877000D01*
X15409000Y-4827000D01*
X15359000Y-4877000D01*
X15409000Y-4927000D01*
X15663000Y-4673000D02*
X15713000Y-4623000D01*
X15663000Y-4573000D01*
X15613000Y-4623000D01*
X15663000Y-4673000D01*
X15663000Y-4927000D02*
X15713000Y-4877000D01*
X15663000Y-4827000D01*
X15613000Y-4877000D01*
X15663000Y-4927000D01*
D11*
X10255777Y-10316484D02*
X10255777Y-10116484D01*
X10255777Y-10116484D02*
X10303396Y-10116484D01*
X10303396Y-10116484D02*
X10331967Y-10126008D01*
X10331967Y-10126008D02*
X10351015Y-10145055D01*
X10351015Y-10145055D02*
X10360539Y-10164103D01*
X10360539Y-10164103D02*
X10370063Y-10202198D01*
X10370063Y-10202198D02*
X10370063Y-10230770D01*
X10370063Y-10230770D02*
X10360539Y-10268865D01*
X10360539Y-10268865D02*
X10351015Y-10287912D01*
X10351015Y-10287912D02*
X10331967Y-10306960D01*
X10331967Y-10306960D02*
X10303396Y-10316484D01*
X10303396Y-10316484D02*
X10255777Y-10316484D01*
X10455777Y-10316484D02*
X10455777Y-10183150D01*
X10455777Y-10221246D02*
X10465301Y-10202198D01*
X10465301Y-10202198D02*
X10474824Y-10192674D01*
X10474824Y-10192674D02*
X10493872Y-10183150D01*
X10493872Y-10183150D02*
X10512920Y-10183150D01*
X10579586Y-10316484D02*
X10579586Y-10183150D01*
X10579586Y-10116484D02*
X10570063Y-10126008D01*
X10570063Y-10126008D02*
X10579586Y-10135531D01*
X10579586Y-10135531D02*
X10589110Y-10126008D01*
X10589110Y-10126008D02*
X10579586Y-10116484D01*
X10579586Y-10116484D02*
X10579586Y-10135531D01*
X10703396Y-10316484D02*
X10684348Y-10306960D01*
X10684348Y-10306960D02*
X10674824Y-10287912D01*
X10674824Y-10287912D02*
X10674824Y-10116484D01*
X10808158Y-10316484D02*
X10789110Y-10306960D01*
X10789110Y-10306960D02*
X10779586Y-10287912D01*
X10779586Y-10287912D02*
X10779586Y-10116484D01*
X11036729Y-10316484D02*
X11036729Y-10116484D01*
X11036729Y-10116484D02*
X11103396Y-10259341D01*
X11103396Y-10259341D02*
X11170063Y-10116484D01*
X11170063Y-10116484D02*
X11170063Y-10316484D01*
X11351015Y-10316484D02*
X11351015Y-10211722D01*
X11351015Y-10211722D02*
X11341491Y-10192674D01*
X11341491Y-10192674D02*
X11322443Y-10183150D01*
X11322443Y-10183150D02*
X11284348Y-10183150D01*
X11284348Y-10183150D02*
X11265301Y-10192674D01*
X11351015Y-10306960D02*
X11331967Y-10316484D01*
X11331967Y-10316484D02*
X11284348Y-10316484D01*
X11284348Y-10316484D02*
X11265301Y-10306960D01*
X11265301Y-10306960D02*
X11255777Y-10287912D01*
X11255777Y-10287912D02*
X11255777Y-10268865D01*
X11255777Y-10268865D02*
X11265301Y-10249817D01*
X11265301Y-10249817D02*
X11284348Y-10240293D01*
X11284348Y-10240293D02*
X11331967Y-10240293D01*
X11331967Y-10240293D02*
X11351015Y-10230770D01*
X11446253Y-10183150D02*
X11446253Y-10383150D01*
X11446253Y-10192674D02*
X11465301Y-10183150D01*
X11465301Y-10183150D02*
X11503396Y-10183150D01*
X11503396Y-10183150D02*
X11522443Y-10192674D01*
X11522443Y-10192674D02*
X11531967Y-10202198D01*
X11531967Y-10202198D02*
X11541491Y-10221246D01*
X11541491Y-10221246D02*
X11541491Y-10278389D01*
X11541491Y-10278389D02*
X11531967Y-10297436D01*
X11531967Y-10297436D02*
X11522443Y-10306960D01*
X11522443Y-10306960D02*
X11503396Y-10316484D01*
X11503396Y-10316484D02*
X11465301Y-10316484D01*
X11465301Y-10316484D02*
X11446253Y-10306960D01*
X11627205Y-10297436D02*
X11636729Y-10306960D01*
X11636729Y-10306960D02*
X11627205Y-10316484D01*
X11627205Y-10316484D02*
X11617682Y-10306960D01*
X11617682Y-10306960D02*
X11627205Y-10297436D01*
X11627205Y-10297436D02*
X11627205Y-10316484D01*
X11627205Y-10192674D02*
X11636729Y-10202198D01*
X11636729Y-10202198D02*
X11627205Y-10211722D01*
X11627205Y-10211722D02*
X11617682Y-10202198D01*
X11617682Y-10202198D02*
X11627205Y-10192674D01*
X11627205Y-10192674D02*
X11627205Y-10211722D01*
D10*
X9975000Y-10635000D02*
X9995000Y-10655000D01*
X9995000Y-10635000D02*
X9975000Y-10655000D01*
D11*
X10293872Y-10536484D02*
X10312920Y-10536484D01*
X10312920Y-10536484D02*
X10331967Y-10546008D01*
X10331967Y-10546008D02*
X10341491Y-10555531D01*
X10341491Y-10555531D02*
X10351015Y-10574579D01*
X10351015Y-10574579D02*
X10360539Y-10612674D01*
X10360539Y-10612674D02*
X10360539Y-10660293D01*
X10360539Y-10660293D02*
X10351015Y-10698389D01*
X10351015Y-10698389D02*
X10341491Y-10717436D01*
X10341491Y-10717436D02*
X10331967Y-10726960D01*
X10331967Y-10726960D02*
X10312920Y-10736484D01*
X10312920Y-10736484D02*
X10293872Y-10736484D01*
X10293872Y-10736484D02*
X10274824Y-10726960D01*
X10274824Y-10726960D02*
X10265301Y-10717436D01*
X10265301Y-10717436D02*
X10255777Y-10698389D01*
X10255777Y-10698389D02*
X10246253Y-10660293D01*
X10246253Y-10660293D02*
X10246253Y-10612674D01*
X10246253Y-10612674D02*
X10255777Y-10574579D01*
X10255777Y-10574579D02*
X10265301Y-10555531D01*
X10265301Y-10555531D02*
X10274824Y-10546008D01*
X10274824Y-10546008D02*
X10293872Y-10536484D01*
X10446253Y-10717436D02*
X10455777Y-10726960D01*
X10455777Y-10726960D02*
X10446253Y-10736484D01*
X10446253Y-10736484D02*
X10436729Y-10726960D01*
X10436729Y-10726960D02*
X10446253Y-10717436D01*
X10446253Y-10717436D02*
X10446253Y-10736484D01*
X10531967Y-10555531D02*
X10541491Y-10546008D01*
X10541491Y-10546008D02*
X10560539Y-10536484D01*
X10560539Y-10536484D02*
X10608158Y-10536484D01*
X10608158Y-10536484D02*
X10627205Y-10546008D01*
X10627205Y-10546008D02*
X10636729Y-10555531D01*
X10636729Y-10555531D02*
X10646253Y-10574579D01*
X10646253Y-10574579D02*
X10646253Y-10593627D01*
X10646253Y-10593627D02*
X10636729Y-10622198D01*
X10636729Y-10622198D02*
X10522444Y-10736484D01*
X10522444Y-10736484D02*
X10646253Y-10736484D01*
X10770063Y-10536484D02*
X10789110Y-10536484D01*
X10789110Y-10536484D02*
X10808158Y-10546008D01*
X10808158Y-10546008D02*
X10817682Y-10555531D01*
X10817682Y-10555531D02*
X10827205Y-10574579D01*
X10827205Y-10574579D02*
X10836729Y-10612674D01*
X10836729Y-10612674D02*
X10836729Y-10660293D01*
X10836729Y-10660293D02*
X10827205Y-10698389D01*
X10827205Y-10698389D02*
X10817682Y-10717436D01*
X10817682Y-10717436D02*
X10808158Y-10726960D01*
X10808158Y-10726960D02*
X10789110Y-10736484D01*
X10789110Y-10736484D02*
X10770063Y-10736484D01*
X10770063Y-10736484D02*
X10751015Y-10726960D01*
X10751015Y-10726960D02*
X10741491Y-10717436D01*
X10741491Y-10717436D02*
X10731967Y-10698389D01*
X10731967Y-10698389D02*
X10722444Y-10660293D01*
X10722444Y-10660293D02*
X10722444Y-10612674D01*
X10722444Y-10612674D02*
X10731967Y-10574579D01*
X10731967Y-10574579D02*
X10741491Y-10555531D01*
X10741491Y-10555531D02*
X10751015Y-10546008D01*
X10751015Y-10546008D02*
X10770063Y-10536484D01*
X10960539Y-10536484D02*
X10979586Y-10536484D01*
X10979586Y-10536484D02*
X10998634Y-10546008D01*
X10998634Y-10546008D02*
X11008158Y-10555531D01*
X11008158Y-10555531D02*
X11017682Y-10574579D01*
X11017682Y-10574579D02*
X11027205Y-10612674D01*
X11027205Y-10612674D02*
X11027205Y-10660293D01*
X11027205Y-10660293D02*
X11017682Y-10698389D01*
X11017682Y-10698389D02*
X11008158Y-10717436D01*
X11008158Y-10717436D02*
X10998634Y-10726960D01*
X10998634Y-10726960D02*
X10979586Y-10736484D01*
X10979586Y-10736484D02*
X10960539Y-10736484D01*
X10960539Y-10736484D02*
X10941491Y-10726960D01*
X10941491Y-10726960D02*
X10931967Y-10717436D01*
X10931967Y-10717436D02*
X10922444Y-10698389D01*
X10922444Y-10698389D02*
X10912920Y-10660293D01*
X10912920Y-10660293D02*
X10912920Y-10612674D01*
X10912920Y-10612674D02*
X10922444Y-10574579D01*
X10922444Y-10574579D02*
X10931967Y-10555531D01*
X10931967Y-10555531D02*
X10941491Y-10546008D01*
X10941491Y-10546008D02*
X10960539Y-10536484D01*
X11112920Y-10736484D02*
X11112920Y-10603150D01*
X11112920Y-10622198D02*
X11122444Y-10612674D01*
X11122444Y-10612674D02*
X11141491Y-10603150D01*
X11141491Y-10603150D02*
X11170063Y-10603150D01*
X11170063Y-10603150D02*
X11189110Y-10612674D01*
X11189110Y-10612674D02*
X11198634Y-10631722D01*
X11198634Y-10631722D02*
X11198634Y-10736484D01*
X11198634Y-10631722D02*
X11208158Y-10612674D01*
X11208158Y-10612674D02*
X11227205Y-10603150D01*
X11227205Y-10603150D02*
X11255777Y-10603150D01*
X11255777Y-10603150D02*
X11274824Y-10612674D01*
X11274824Y-10612674D02*
X11284348Y-10631722D01*
X11284348Y-10631722D02*
X11284348Y-10736484D01*
X11379586Y-10736484D02*
X11379586Y-10603150D01*
X11379586Y-10622198D02*
X11389110Y-10612674D01*
X11389110Y-10612674D02*
X11408158Y-10603150D01*
X11408158Y-10603150D02*
X11436729Y-10603150D01*
X11436729Y-10603150D02*
X11455777Y-10612674D01*
X11455777Y-10612674D02*
X11465301Y-10631722D01*
X11465301Y-10631722D02*
X11465301Y-10736484D01*
X11465301Y-10631722D02*
X11474824Y-10612674D01*
X11474824Y-10612674D02*
X11493872Y-10603150D01*
X11493872Y-10603150D02*
X11522443Y-10603150D01*
X11522443Y-10603150D02*
X11541491Y-10612674D01*
X11541491Y-10612674D02*
X11551015Y-10631722D01*
X11551015Y-10631722D02*
X11551015Y-10736484D01*
X11941491Y-10526960D02*
X11770063Y-10784103D01*
X12198634Y-10536484D02*
X12217682Y-10536484D01*
X12217682Y-10536484D02*
X12236729Y-10546008D01*
X12236729Y-10546008D02*
X12246253Y-10555531D01*
X12246253Y-10555531D02*
X12255777Y-10574579D01*
X12255777Y-10574579D02*
X12265301Y-10612674D01*
X12265301Y-10612674D02*
X12265301Y-10660293D01*
X12265301Y-10660293D02*
X12255777Y-10698389D01*
X12255777Y-10698389D02*
X12246253Y-10717436D01*
X12246253Y-10717436D02*
X12236729Y-10726960D01*
X12236729Y-10726960D02*
X12217682Y-10736484D01*
X12217682Y-10736484D02*
X12198634Y-10736484D01*
X12198634Y-10736484D02*
X12179586Y-10726960D01*
X12179586Y-10726960D02*
X12170063Y-10717436D01*
X12170063Y-10717436D02*
X12160539Y-10698389D01*
X12160539Y-10698389D02*
X12151015Y-10660293D01*
X12151015Y-10660293D02*
X12151015Y-10612674D01*
X12151015Y-10612674D02*
X12160539Y-10574579D01*
X12160539Y-10574579D02*
X12170063Y-10555531D01*
X12170063Y-10555531D02*
X12179586Y-10546008D01*
X12179586Y-10546008D02*
X12198634Y-10536484D01*
X12351015Y-10717436D02*
X12360539Y-10726960D01*
X12360539Y-10726960D02*
X12351015Y-10736484D01*
X12351015Y-10736484D02*
X12341491Y-10726960D01*
X12341491Y-10726960D02*
X12351015Y-10717436D01*
X12351015Y-10717436D02*
X12351015Y-10736484D01*
X12484348Y-10536484D02*
X12503396Y-10536484D01*
X12503396Y-10536484D02*
X12522444Y-10546008D01*
X12522444Y-10546008D02*
X12531967Y-10555531D01*
X12531967Y-10555531D02*
X12541491Y-10574579D01*
X12541491Y-10574579D02*
X12551015Y-10612674D01*
X12551015Y-10612674D02*
X12551015Y-10660293D01*
X12551015Y-10660293D02*
X12541491Y-10698389D01*
X12541491Y-10698389D02*
X12531967Y-10717436D01*
X12531967Y-10717436D02*
X12522444Y-10726960D01*
X12522444Y-10726960D02*
X12503396Y-10736484D01*
X12503396Y-10736484D02*
X12484348Y-10736484D01*
X12484348Y-10736484D02*
X12465301Y-10726960D01*
X12465301Y-10726960D02*
X12455777Y-10717436D01*
X12455777Y-10717436D02*
X12446253Y-10698389D01*
X12446253Y-10698389D02*
X12436729Y-10660293D01*
X12436729Y-10660293D02*
X12436729Y-10612674D01*
X12436729Y-10612674D02*
X12446253Y-10574579D01*
X12446253Y-10574579D02*
X12455777Y-10555531D01*
X12455777Y-10555531D02*
X12465301Y-10546008D01*
X12465301Y-10546008D02*
X12484348Y-10536484D01*
X12674825Y-10536484D02*
X12693872Y-10536484D01*
X12693872Y-10536484D02*
X12712920Y-10546008D01*
X12712920Y-10546008D02*
X12722444Y-10555531D01*
X12722444Y-10555531D02*
X12731967Y-10574579D01*
X12731967Y-10574579D02*
X12741491Y-10612674D01*
X12741491Y-10612674D02*
X12741491Y-10660293D01*
X12741491Y-10660293D02*
X12731967Y-10698389D01*
X12731967Y-10698389D02*
X12722444Y-10717436D01*
X12722444Y-10717436D02*
X12712920Y-10726960D01*
X12712920Y-10726960D02*
X12693872Y-10736484D01*
X12693872Y-10736484D02*
X12674825Y-10736484D01*
X12674825Y-10736484D02*
X12655777Y-10726960D01*
X12655777Y-10726960D02*
X12646253Y-10717436D01*
X12646253Y-10717436D02*
X12636729Y-10698389D01*
X12636729Y-10698389D02*
X12627206Y-10660293D01*
X12627206Y-10660293D02*
X12627206Y-10612674D01*
X12627206Y-10612674D02*
X12636729Y-10574579D01*
X12636729Y-10574579D02*
X12646253Y-10555531D01*
X12646253Y-10555531D02*
X12655777Y-10546008D01*
X12655777Y-10546008D02*
X12674825Y-10536484D01*
X12808158Y-10536484D02*
X12941491Y-10536484D01*
X12941491Y-10536484D02*
X12855777Y-10736484D01*
X13027206Y-10736484D02*
X13065301Y-10736484D01*
X13065301Y-10736484D02*
X13084348Y-10726960D01*
X13084348Y-10726960D02*
X13093872Y-10717436D01*
X13093872Y-10717436D02*
X13112920Y-10688865D01*
X13112920Y-10688865D02*
X13122444Y-10650770D01*
X13122444Y-10650770D02*
X13122444Y-10574579D01*
X13122444Y-10574579D02*
X13112920Y-10555531D01*
X13112920Y-10555531D02*
X13103396Y-10546008D01*
X13103396Y-10546008D02*
X13084348Y-10536484D01*
X13084348Y-10536484D02*
X13046253Y-10536484D01*
X13046253Y-10536484D02*
X13027206Y-10546008D01*
X13027206Y-10546008D02*
X13017682Y-10555531D01*
X13017682Y-10555531D02*
X13008158Y-10574579D01*
X13008158Y-10574579D02*
X13008158Y-10622198D01*
X13008158Y-10622198D02*
X13017682Y-10641246D01*
X13017682Y-10641246D02*
X13027206Y-10650770D01*
X13027206Y-10650770D02*
X13046253Y-10660293D01*
X13046253Y-10660293D02*
X13084348Y-10660293D01*
X13084348Y-10660293D02*
X13103396Y-10650770D01*
X13103396Y-10650770D02*
X13112920Y-10641246D01*
X13112920Y-10641246D02*
X13122444Y-10622198D01*
X13198634Y-10536484D02*
X13198634Y-10574579D01*
X13274825Y-10536484D02*
X13274825Y-10574579D01*
X13570063Y-10812674D02*
X13560539Y-10803150D01*
X13560539Y-10803150D02*
X13541491Y-10774579D01*
X13541491Y-10774579D02*
X13531968Y-10755531D01*
X13531968Y-10755531D02*
X13522444Y-10726960D01*
X13522444Y-10726960D02*
X13512920Y-10679341D01*
X13512920Y-10679341D02*
X13512920Y-10641246D01*
X13512920Y-10641246D02*
X13522444Y-10593627D01*
X13522444Y-10593627D02*
X13531968Y-10565055D01*
X13531968Y-10565055D02*
X13541491Y-10546008D01*
X13541491Y-10546008D02*
X13560539Y-10517436D01*
X13560539Y-10517436D02*
X13570063Y-10507912D01*
X13627206Y-10536484D02*
X13751015Y-10536484D01*
X13751015Y-10536484D02*
X13684348Y-10612674D01*
X13684348Y-10612674D02*
X13712920Y-10612674D01*
X13712920Y-10612674D02*
X13731968Y-10622198D01*
X13731968Y-10622198D02*
X13741491Y-10631722D01*
X13741491Y-10631722D02*
X13751015Y-10650770D01*
X13751015Y-10650770D02*
X13751015Y-10698389D01*
X13751015Y-10698389D02*
X13741491Y-10717436D01*
X13741491Y-10717436D02*
X13731968Y-10726960D01*
X13731968Y-10726960D02*
X13712920Y-10736484D01*
X13712920Y-10736484D02*
X13655777Y-10736484D01*
X13655777Y-10736484D02*
X13636729Y-10726960D01*
X13636729Y-10726960D02*
X13627206Y-10717436D01*
X13931968Y-10536484D02*
X13836729Y-10536484D01*
X13836729Y-10536484D02*
X13827206Y-10631722D01*
X13827206Y-10631722D02*
X13836729Y-10622198D01*
X13836729Y-10622198D02*
X13855777Y-10612674D01*
X13855777Y-10612674D02*
X13903396Y-10612674D01*
X13903396Y-10612674D02*
X13922444Y-10622198D01*
X13922444Y-10622198D02*
X13931968Y-10631722D01*
X13931968Y-10631722D02*
X13941491Y-10650770D01*
X13941491Y-10650770D02*
X13941491Y-10698389D01*
X13941491Y-10698389D02*
X13931968Y-10717436D01*
X13931968Y-10717436D02*
X13922444Y-10726960D01*
X13922444Y-10726960D02*
X13903396Y-10736484D01*
X13903396Y-10736484D02*
X13855777Y-10736484D01*
X13855777Y-10736484D02*
X13836729Y-10726960D01*
X13836729Y-10726960D02*
X13827206Y-10717436D01*
X14008158Y-10536484D02*
X14131968Y-10536484D01*
X14131968Y-10536484D02*
X14065301Y-10612674D01*
X14065301Y-10612674D02*
X14093872Y-10612674D01*
X14093872Y-10612674D02*
X14112920Y-10622198D01*
X14112920Y-10622198D02*
X14122444Y-10631722D01*
X14122444Y-10631722D02*
X14131968Y-10650770D01*
X14131968Y-10650770D02*
X14131968Y-10698389D01*
X14131968Y-10698389D02*
X14122444Y-10717436D01*
X14122444Y-10717436D02*
X14112920Y-10726960D01*
X14112920Y-10726960D02*
X14093872Y-10736484D01*
X14093872Y-10736484D02*
X14036729Y-10736484D01*
X14036729Y-10736484D02*
X14017682Y-10726960D01*
X14017682Y-10726960D02*
X14008158Y-10717436D01*
X14370063Y-10736484D02*
X14370063Y-10536484D01*
X14455777Y-10736484D02*
X14455777Y-10631722D01*
X14455777Y-10631722D02*
X14446253Y-10612674D01*
X14446253Y-10612674D02*
X14427206Y-10603150D01*
X14427206Y-10603150D02*
X14398634Y-10603150D01*
X14398634Y-10603150D02*
X14379587Y-10612674D01*
X14379587Y-10612674D02*
X14370063Y-10622198D01*
X14579587Y-10736484D02*
X14560539Y-10726960D01*
X14560539Y-10726960D02*
X14551015Y-10717436D01*
X14551015Y-10717436D02*
X14541491Y-10698389D01*
X14541491Y-10698389D02*
X14541491Y-10641246D01*
X14541491Y-10641246D02*
X14551015Y-10622198D01*
X14551015Y-10622198D02*
X14560539Y-10612674D01*
X14560539Y-10612674D02*
X14579587Y-10603150D01*
X14579587Y-10603150D02*
X14608158Y-10603150D01*
X14608158Y-10603150D02*
X14627206Y-10612674D01*
X14627206Y-10612674D02*
X14636730Y-10622198D01*
X14636730Y-10622198D02*
X14646253Y-10641246D01*
X14646253Y-10641246D02*
X14646253Y-10698389D01*
X14646253Y-10698389D02*
X14636730Y-10717436D01*
X14636730Y-10717436D02*
X14627206Y-10726960D01*
X14627206Y-10726960D02*
X14608158Y-10736484D01*
X14608158Y-10736484D02*
X14579587Y-10736484D01*
X14760539Y-10736484D02*
X14741491Y-10726960D01*
X14741491Y-10726960D02*
X14731968Y-10707912D01*
X14731968Y-10707912D02*
X14731968Y-10536484D01*
X14912920Y-10726960D02*
X14893872Y-10736484D01*
X14893872Y-10736484D02*
X14855777Y-10736484D01*
X14855777Y-10736484D02*
X14836730Y-10726960D01*
X14836730Y-10726960D02*
X14827206Y-10707912D01*
X14827206Y-10707912D02*
X14827206Y-10631722D01*
X14827206Y-10631722D02*
X14836730Y-10612674D01*
X14836730Y-10612674D02*
X14855777Y-10603150D01*
X14855777Y-10603150D02*
X14893872Y-10603150D01*
X14893872Y-10603150D02*
X14912920Y-10612674D01*
X14912920Y-10612674D02*
X14922444Y-10631722D01*
X14922444Y-10631722D02*
X14922444Y-10650770D01*
X14922444Y-10650770D02*
X14827206Y-10669817D01*
X14998634Y-10726960D02*
X15017682Y-10736484D01*
X15017682Y-10736484D02*
X15055777Y-10736484D01*
X15055777Y-10736484D02*
X15074825Y-10726960D01*
X15074825Y-10726960D02*
X15084349Y-10707912D01*
X15084349Y-10707912D02*
X15084349Y-10698389D01*
X15084349Y-10698389D02*
X15074825Y-10679341D01*
X15074825Y-10679341D02*
X15055777Y-10669817D01*
X15055777Y-10669817D02*
X15027206Y-10669817D01*
X15027206Y-10669817D02*
X15008158Y-10660293D01*
X15008158Y-10660293D02*
X14998634Y-10641246D01*
X14998634Y-10641246D02*
X14998634Y-10631722D01*
X14998634Y-10631722D02*
X15008158Y-10612674D01*
X15008158Y-10612674D02*
X15027206Y-10603150D01*
X15027206Y-10603150D02*
X15055777Y-10603150D01*
X15055777Y-10603150D02*
X15074825Y-10612674D01*
X15151015Y-10812674D02*
X15160539Y-10803150D01*
X15160539Y-10803150D02*
X15179587Y-10774579D01*
X15179587Y-10774579D02*
X15189111Y-10755531D01*
X15189111Y-10755531D02*
X15198634Y-10726960D01*
X15198634Y-10726960D02*
X15208158Y-10679341D01*
X15208158Y-10679341D02*
X15208158Y-10641246D01*
X15208158Y-10641246D02*
X15198634Y-10593627D01*
X15198634Y-10593627D02*
X15189111Y-10565055D01*
X15189111Y-10565055D02*
X15179587Y-10546008D01*
X15179587Y-10546008D02*
X15160539Y-10517436D01*
X15160539Y-10517436D02*
X15151015Y-10507912D01*
D10*
X9995000Y-10909000D02*
G75*
G02*
X9975000Y-10909000I-10000J0D01*
G01*
X9975000Y-10909000D02*
G75*
G02*
X9995000Y-10909000I10000J0D01*
G01*
D11*
X10293872Y-10800484D02*
X10312920Y-10800484D01*
X10312920Y-10800484D02*
X10331967Y-10810008D01*
X10331967Y-10810008D02*
X10341491Y-10819531D01*
X10341491Y-10819531D02*
X10351015Y-10838579D01*
X10351015Y-10838579D02*
X10360539Y-10876674D01*
X10360539Y-10876674D02*
X10360539Y-10924293D01*
X10360539Y-10924293D02*
X10351015Y-10962389D01*
X10351015Y-10962389D02*
X10341491Y-10981436D01*
X10341491Y-10981436D02*
X10331967Y-10990960D01*
X10331967Y-10990960D02*
X10312920Y-11000484D01*
X10312920Y-11000484D02*
X10293872Y-11000484D01*
X10293872Y-11000484D02*
X10274824Y-10990960D01*
X10274824Y-10990960D02*
X10265301Y-10981436D01*
X10265301Y-10981436D02*
X10255777Y-10962389D01*
X10255777Y-10962389D02*
X10246253Y-10924293D01*
X10246253Y-10924293D02*
X10246253Y-10876674D01*
X10246253Y-10876674D02*
X10255777Y-10838579D01*
X10255777Y-10838579D02*
X10265301Y-10819531D01*
X10265301Y-10819531D02*
X10274824Y-10810008D01*
X10274824Y-10810008D02*
X10293872Y-10800484D01*
X10446253Y-10981436D02*
X10455777Y-10990960D01*
X10455777Y-10990960D02*
X10446253Y-11000484D01*
X10446253Y-11000484D02*
X10436729Y-10990960D01*
X10436729Y-10990960D02*
X10446253Y-10981436D01*
X10446253Y-10981436D02*
X10446253Y-11000484D01*
X10531967Y-10819531D02*
X10541491Y-10810008D01*
X10541491Y-10810008D02*
X10560539Y-10800484D01*
X10560539Y-10800484D02*
X10608158Y-10800484D01*
X10608158Y-10800484D02*
X10627205Y-10810008D01*
X10627205Y-10810008D02*
X10636729Y-10819531D01*
X10636729Y-10819531D02*
X10646253Y-10838579D01*
X10646253Y-10838579D02*
X10646253Y-10857627D01*
X10646253Y-10857627D02*
X10636729Y-10886198D01*
X10636729Y-10886198D02*
X10522444Y-11000484D01*
X10522444Y-11000484D02*
X10646253Y-11000484D01*
X10770063Y-10800484D02*
X10789110Y-10800484D01*
X10789110Y-10800484D02*
X10808158Y-10810008D01*
X10808158Y-10810008D02*
X10817682Y-10819531D01*
X10817682Y-10819531D02*
X10827205Y-10838579D01*
X10827205Y-10838579D02*
X10836729Y-10876674D01*
X10836729Y-10876674D02*
X10836729Y-10924293D01*
X10836729Y-10924293D02*
X10827205Y-10962389D01*
X10827205Y-10962389D02*
X10817682Y-10981436D01*
X10817682Y-10981436D02*
X10808158Y-10990960D01*
X10808158Y-10990960D02*
X10789110Y-11000484D01*
X10789110Y-11000484D02*
X10770063Y-11000484D01*
X10770063Y-11000484D02*
X10751015Y-10990960D01*
X10751015Y-10990960D02*
X10741491Y-10981436D01*
X10741491Y-10981436D02*
X10731967Y-10962389D01*
X10731967Y-10962389D02*
X10722444Y-10924293D01*
X10722444Y-10924293D02*
X10722444Y-10876674D01*
X10722444Y-10876674D02*
X10731967Y-10838579D01*
X10731967Y-10838579D02*
X10741491Y-10819531D01*
X10741491Y-10819531D02*
X10751015Y-10810008D01*
X10751015Y-10810008D02*
X10770063Y-10800484D01*
X10960539Y-10800484D02*
X10979586Y-10800484D01*
X10979586Y-10800484D02*
X10998634Y-10810008D01*
X10998634Y-10810008D02*
X11008158Y-10819531D01*
X11008158Y-10819531D02*
X11017682Y-10838579D01*
X11017682Y-10838579D02*
X11027205Y-10876674D01*
X11027205Y-10876674D02*
X11027205Y-10924293D01*
X11027205Y-10924293D02*
X11017682Y-10962389D01*
X11017682Y-10962389D02*
X11008158Y-10981436D01*
X11008158Y-10981436D02*
X10998634Y-10990960D01*
X10998634Y-10990960D02*
X10979586Y-11000484D01*
X10979586Y-11000484D02*
X10960539Y-11000484D01*
X10960539Y-11000484D02*
X10941491Y-10990960D01*
X10941491Y-10990960D02*
X10931967Y-10981436D01*
X10931967Y-10981436D02*
X10922444Y-10962389D01*
X10922444Y-10962389D02*
X10912920Y-10924293D01*
X10912920Y-10924293D02*
X10912920Y-10876674D01*
X10912920Y-10876674D02*
X10922444Y-10838579D01*
X10922444Y-10838579D02*
X10931967Y-10819531D01*
X10931967Y-10819531D02*
X10941491Y-10810008D01*
X10941491Y-10810008D02*
X10960539Y-10800484D01*
X11112920Y-11000484D02*
X11112920Y-10867150D01*
X11112920Y-10886198D02*
X11122444Y-10876674D01*
X11122444Y-10876674D02*
X11141491Y-10867150D01*
X11141491Y-10867150D02*
X11170063Y-10867150D01*
X11170063Y-10867150D02*
X11189110Y-10876674D01*
X11189110Y-10876674D02*
X11198634Y-10895722D01*
X11198634Y-10895722D02*
X11198634Y-11000484D01*
X11198634Y-10895722D02*
X11208158Y-10876674D01*
X11208158Y-10876674D02*
X11227205Y-10867150D01*
X11227205Y-10867150D02*
X11255777Y-10867150D01*
X11255777Y-10867150D02*
X11274824Y-10876674D01*
X11274824Y-10876674D02*
X11284348Y-10895722D01*
X11284348Y-10895722D02*
X11284348Y-11000484D01*
X11379586Y-11000484D02*
X11379586Y-10867150D01*
X11379586Y-10886198D02*
X11389110Y-10876674D01*
X11389110Y-10876674D02*
X11408158Y-10867150D01*
X11408158Y-10867150D02*
X11436729Y-10867150D01*
X11436729Y-10867150D02*
X11455777Y-10876674D01*
X11455777Y-10876674D02*
X11465301Y-10895722D01*
X11465301Y-10895722D02*
X11465301Y-11000484D01*
X11465301Y-10895722D02*
X11474824Y-10876674D01*
X11474824Y-10876674D02*
X11493872Y-10867150D01*
X11493872Y-10867150D02*
X11522443Y-10867150D01*
X11522443Y-10867150D02*
X11541491Y-10876674D01*
X11541491Y-10876674D02*
X11551015Y-10895722D01*
X11551015Y-10895722D02*
X11551015Y-11000484D01*
X11941491Y-10790960D02*
X11770063Y-11048103D01*
X12198634Y-10800484D02*
X12217682Y-10800484D01*
X12217682Y-10800484D02*
X12236729Y-10810008D01*
X12236729Y-10810008D02*
X12246253Y-10819531D01*
X12246253Y-10819531D02*
X12255777Y-10838579D01*
X12255777Y-10838579D02*
X12265301Y-10876674D01*
X12265301Y-10876674D02*
X12265301Y-10924293D01*
X12265301Y-10924293D02*
X12255777Y-10962389D01*
X12255777Y-10962389D02*
X12246253Y-10981436D01*
X12246253Y-10981436D02*
X12236729Y-10990960D01*
X12236729Y-10990960D02*
X12217682Y-11000484D01*
X12217682Y-11000484D02*
X12198634Y-11000484D01*
X12198634Y-11000484D02*
X12179586Y-10990960D01*
X12179586Y-10990960D02*
X12170063Y-10981436D01*
X12170063Y-10981436D02*
X12160539Y-10962389D01*
X12160539Y-10962389D02*
X12151015Y-10924293D01*
X12151015Y-10924293D02*
X12151015Y-10876674D01*
X12151015Y-10876674D02*
X12160539Y-10838579D01*
X12160539Y-10838579D02*
X12170063Y-10819531D01*
X12170063Y-10819531D02*
X12179586Y-10810008D01*
X12179586Y-10810008D02*
X12198634Y-10800484D01*
X12351015Y-10981436D02*
X12360539Y-10990960D01*
X12360539Y-10990960D02*
X12351015Y-11000484D01*
X12351015Y-11000484D02*
X12341491Y-10990960D01*
X12341491Y-10990960D02*
X12351015Y-10981436D01*
X12351015Y-10981436D02*
X12351015Y-11000484D01*
X12484348Y-10800484D02*
X12503396Y-10800484D01*
X12503396Y-10800484D02*
X12522444Y-10810008D01*
X12522444Y-10810008D02*
X12531967Y-10819531D01*
X12531967Y-10819531D02*
X12541491Y-10838579D01*
X12541491Y-10838579D02*
X12551015Y-10876674D01*
X12551015Y-10876674D02*
X12551015Y-10924293D01*
X12551015Y-10924293D02*
X12541491Y-10962389D01*
X12541491Y-10962389D02*
X12531967Y-10981436D01*
X12531967Y-10981436D02*
X12522444Y-10990960D01*
X12522444Y-10990960D02*
X12503396Y-11000484D01*
X12503396Y-11000484D02*
X12484348Y-11000484D01*
X12484348Y-11000484D02*
X12465301Y-10990960D01*
X12465301Y-10990960D02*
X12455777Y-10981436D01*
X12455777Y-10981436D02*
X12446253Y-10962389D01*
X12446253Y-10962389D02*
X12436729Y-10924293D01*
X12436729Y-10924293D02*
X12436729Y-10876674D01*
X12436729Y-10876674D02*
X12446253Y-10838579D01*
X12446253Y-10838579D02*
X12455777Y-10819531D01*
X12455777Y-10819531D02*
X12465301Y-10810008D01*
X12465301Y-10810008D02*
X12484348Y-10800484D01*
X12674825Y-10800484D02*
X12693872Y-10800484D01*
X12693872Y-10800484D02*
X12712920Y-10810008D01*
X12712920Y-10810008D02*
X12722444Y-10819531D01*
X12722444Y-10819531D02*
X12731967Y-10838579D01*
X12731967Y-10838579D02*
X12741491Y-10876674D01*
X12741491Y-10876674D02*
X12741491Y-10924293D01*
X12741491Y-10924293D02*
X12731967Y-10962389D01*
X12731967Y-10962389D02*
X12722444Y-10981436D01*
X12722444Y-10981436D02*
X12712920Y-10990960D01*
X12712920Y-10990960D02*
X12693872Y-11000484D01*
X12693872Y-11000484D02*
X12674825Y-11000484D01*
X12674825Y-11000484D02*
X12655777Y-10990960D01*
X12655777Y-10990960D02*
X12646253Y-10981436D01*
X12646253Y-10981436D02*
X12636729Y-10962389D01*
X12636729Y-10962389D02*
X12627206Y-10924293D01*
X12627206Y-10924293D02*
X12627206Y-10876674D01*
X12627206Y-10876674D02*
X12636729Y-10838579D01*
X12636729Y-10838579D02*
X12646253Y-10819531D01*
X12646253Y-10819531D02*
X12655777Y-10810008D01*
X12655777Y-10810008D02*
X12674825Y-10800484D01*
X12808158Y-10800484D02*
X12941491Y-10800484D01*
X12941491Y-10800484D02*
X12855777Y-11000484D01*
X13027206Y-11000484D02*
X13065301Y-11000484D01*
X13065301Y-11000484D02*
X13084348Y-10990960D01*
X13084348Y-10990960D02*
X13093872Y-10981436D01*
X13093872Y-10981436D02*
X13112920Y-10952865D01*
X13112920Y-10952865D02*
X13122444Y-10914770D01*
X13122444Y-10914770D02*
X13122444Y-10838579D01*
X13122444Y-10838579D02*
X13112920Y-10819531D01*
X13112920Y-10819531D02*
X13103396Y-10810008D01*
X13103396Y-10810008D02*
X13084348Y-10800484D01*
X13084348Y-10800484D02*
X13046253Y-10800484D01*
X13046253Y-10800484D02*
X13027206Y-10810008D01*
X13027206Y-10810008D02*
X13017682Y-10819531D01*
X13017682Y-10819531D02*
X13008158Y-10838579D01*
X13008158Y-10838579D02*
X13008158Y-10886198D01*
X13008158Y-10886198D02*
X13017682Y-10905246D01*
X13017682Y-10905246D02*
X13027206Y-10914770D01*
X13027206Y-10914770D02*
X13046253Y-10924293D01*
X13046253Y-10924293D02*
X13084348Y-10924293D01*
X13084348Y-10924293D02*
X13103396Y-10914770D01*
X13103396Y-10914770D02*
X13112920Y-10905246D01*
X13112920Y-10905246D02*
X13122444Y-10886198D01*
X13198634Y-10800484D02*
X13198634Y-10838579D01*
X13274825Y-10800484D02*
X13274825Y-10838579D01*
X13570063Y-11076674D02*
X13560539Y-11067150D01*
X13560539Y-11067150D02*
X13541491Y-11038579D01*
X13541491Y-11038579D02*
X13531968Y-11019531D01*
X13531968Y-11019531D02*
X13522444Y-10990960D01*
X13522444Y-10990960D02*
X13512920Y-10943341D01*
X13512920Y-10943341D02*
X13512920Y-10905246D01*
X13512920Y-10905246D02*
X13522444Y-10857627D01*
X13522444Y-10857627D02*
X13531968Y-10829055D01*
X13531968Y-10829055D02*
X13541491Y-10810008D01*
X13541491Y-10810008D02*
X13560539Y-10781436D01*
X13560539Y-10781436D02*
X13570063Y-10771912D01*
X13627206Y-10800484D02*
X13751015Y-10800484D01*
X13751015Y-10800484D02*
X13684348Y-10876674D01*
X13684348Y-10876674D02*
X13712920Y-10876674D01*
X13712920Y-10876674D02*
X13731968Y-10886198D01*
X13731968Y-10886198D02*
X13741491Y-10895722D01*
X13741491Y-10895722D02*
X13751015Y-10914770D01*
X13751015Y-10914770D02*
X13751015Y-10962389D01*
X13751015Y-10962389D02*
X13741491Y-10981436D01*
X13741491Y-10981436D02*
X13731968Y-10990960D01*
X13731968Y-10990960D02*
X13712920Y-11000484D01*
X13712920Y-11000484D02*
X13655777Y-11000484D01*
X13655777Y-11000484D02*
X13636729Y-10990960D01*
X13636729Y-10990960D02*
X13627206Y-10981436D01*
X13989110Y-11000484D02*
X13989110Y-10800484D01*
X14074825Y-11000484D02*
X14074825Y-10895722D01*
X14074825Y-10895722D02*
X14065301Y-10876674D01*
X14065301Y-10876674D02*
X14046253Y-10867150D01*
X14046253Y-10867150D02*
X14017682Y-10867150D01*
X14017682Y-10867150D02*
X13998634Y-10876674D01*
X13998634Y-10876674D02*
X13989110Y-10886198D01*
X14198634Y-11000484D02*
X14179587Y-10990960D01*
X14179587Y-10990960D02*
X14170063Y-10981436D01*
X14170063Y-10981436D02*
X14160539Y-10962389D01*
X14160539Y-10962389D02*
X14160539Y-10905246D01*
X14160539Y-10905246D02*
X14170063Y-10886198D01*
X14170063Y-10886198D02*
X14179587Y-10876674D01*
X14179587Y-10876674D02*
X14198634Y-10867150D01*
X14198634Y-10867150D02*
X14227206Y-10867150D01*
X14227206Y-10867150D02*
X14246253Y-10876674D01*
X14246253Y-10876674D02*
X14255777Y-10886198D01*
X14255777Y-10886198D02*
X14265301Y-10905246D01*
X14265301Y-10905246D02*
X14265301Y-10962389D01*
X14265301Y-10962389D02*
X14255777Y-10981436D01*
X14255777Y-10981436D02*
X14246253Y-10990960D01*
X14246253Y-10990960D02*
X14227206Y-11000484D01*
X14227206Y-11000484D02*
X14198634Y-11000484D01*
X14379587Y-11000484D02*
X14360539Y-10990960D01*
X14360539Y-10990960D02*
X14351015Y-10971912D01*
X14351015Y-10971912D02*
X14351015Y-10800484D01*
X14531968Y-10990960D02*
X14512920Y-11000484D01*
X14512920Y-11000484D02*
X14474825Y-11000484D01*
X14474825Y-11000484D02*
X14455777Y-10990960D01*
X14455777Y-10990960D02*
X14446253Y-10971912D01*
X14446253Y-10971912D02*
X14446253Y-10895722D01*
X14446253Y-10895722D02*
X14455777Y-10876674D01*
X14455777Y-10876674D02*
X14474825Y-10867150D01*
X14474825Y-10867150D02*
X14512920Y-10867150D01*
X14512920Y-10867150D02*
X14531968Y-10876674D01*
X14531968Y-10876674D02*
X14541491Y-10895722D01*
X14541491Y-10895722D02*
X14541491Y-10914770D01*
X14541491Y-10914770D02*
X14446253Y-10933817D01*
X14617682Y-10990960D02*
X14636730Y-11000484D01*
X14636730Y-11000484D02*
X14674825Y-11000484D01*
X14674825Y-11000484D02*
X14693872Y-10990960D01*
X14693872Y-10990960D02*
X14703396Y-10971912D01*
X14703396Y-10971912D02*
X14703396Y-10962389D01*
X14703396Y-10962389D02*
X14693872Y-10943341D01*
X14693872Y-10943341D02*
X14674825Y-10933817D01*
X14674825Y-10933817D02*
X14646253Y-10933817D01*
X14646253Y-10933817D02*
X14627206Y-10924293D01*
X14627206Y-10924293D02*
X14617682Y-10905246D01*
X14617682Y-10905246D02*
X14617682Y-10895722D01*
X14617682Y-10895722D02*
X14627206Y-10876674D01*
X14627206Y-10876674D02*
X14646253Y-10867150D01*
X14646253Y-10867150D02*
X14674825Y-10867150D01*
X14674825Y-10867150D02*
X14693872Y-10876674D01*
X14770063Y-11076674D02*
X14779587Y-11067150D01*
X14779587Y-11067150D02*
X14798634Y-11038579D01*
X14798634Y-11038579D02*
X14808158Y-11019531D01*
X14808158Y-11019531D02*
X14817682Y-10990960D01*
X14817682Y-10990960D02*
X14827206Y-10943341D01*
X14827206Y-10943341D02*
X14827206Y-10905246D01*
X14827206Y-10905246D02*
X14817682Y-10857627D01*
X14817682Y-10857627D02*
X14808158Y-10829055D01*
X14808158Y-10829055D02*
X14798634Y-10810008D01*
X14798634Y-10810008D02*
X14779587Y-10781436D01*
X14779587Y-10781436D02*
X14770063Y-10771912D01*
D10*
X9982500Y-11160500D02*
X9982500Y-11185500D01*
X9970000Y-11173000D02*
X9995000Y-11173000D01*
D11*
X10293872Y-11064484D02*
X10312920Y-11064484D01*
X10312920Y-11064484D02*
X10331967Y-11074008D01*
X10331967Y-11074008D02*
X10341491Y-11083531D01*
X10341491Y-11083531D02*
X10351015Y-11102579D01*
X10351015Y-11102579D02*
X10360539Y-11140674D01*
X10360539Y-11140674D02*
X10360539Y-11188293D01*
X10360539Y-11188293D02*
X10351015Y-11226388D01*
X10351015Y-11226388D02*
X10341491Y-11245436D01*
X10341491Y-11245436D02*
X10331967Y-11254960D01*
X10331967Y-11254960D02*
X10312920Y-11264484D01*
X10312920Y-11264484D02*
X10293872Y-11264484D01*
X10293872Y-11264484D02*
X10274824Y-11254960D01*
X10274824Y-11254960D02*
X10265301Y-11245436D01*
X10265301Y-11245436D02*
X10255777Y-11226388D01*
X10255777Y-11226388D02*
X10246253Y-11188293D01*
X10246253Y-11188293D02*
X10246253Y-11140674D01*
X10246253Y-11140674D02*
X10255777Y-11102579D01*
X10255777Y-11102579D02*
X10265301Y-11083531D01*
X10265301Y-11083531D02*
X10274824Y-11074008D01*
X10274824Y-11074008D02*
X10293872Y-11064484D01*
X10446253Y-11245436D02*
X10455777Y-11254960D01*
X10455777Y-11254960D02*
X10446253Y-11264484D01*
X10446253Y-11264484D02*
X10436729Y-11254960D01*
X10436729Y-11254960D02*
X10446253Y-11245436D01*
X10446253Y-11245436D02*
X10446253Y-11264484D01*
X10531967Y-11083531D02*
X10541491Y-11074008D01*
X10541491Y-11074008D02*
X10560539Y-11064484D01*
X10560539Y-11064484D02*
X10608158Y-11064484D01*
X10608158Y-11064484D02*
X10627205Y-11074008D01*
X10627205Y-11074008D02*
X10636729Y-11083531D01*
X10636729Y-11083531D02*
X10646253Y-11102579D01*
X10646253Y-11102579D02*
X10646253Y-11121627D01*
X10646253Y-11121627D02*
X10636729Y-11150198D01*
X10636729Y-11150198D02*
X10522444Y-11264484D01*
X10522444Y-11264484D02*
X10646253Y-11264484D01*
X10827205Y-11064484D02*
X10731967Y-11064484D01*
X10731967Y-11064484D02*
X10722444Y-11159722D01*
X10722444Y-11159722D02*
X10731967Y-11150198D01*
X10731967Y-11150198D02*
X10751015Y-11140674D01*
X10751015Y-11140674D02*
X10798634Y-11140674D01*
X10798634Y-11140674D02*
X10817682Y-11150198D01*
X10817682Y-11150198D02*
X10827205Y-11159722D01*
X10827205Y-11159722D02*
X10836729Y-11178770D01*
X10836729Y-11178770D02*
X10836729Y-11226388D01*
X10836729Y-11226388D02*
X10827205Y-11245436D01*
X10827205Y-11245436D02*
X10817682Y-11254960D01*
X10817682Y-11254960D02*
X10798634Y-11264484D01*
X10798634Y-11264484D02*
X10751015Y-11264484D01*
X10751015Y-11264484D02*
X10731967Y-11254960D01*
X10731967Y-11254960D02*
X10722444Y-11245436D01*
X10960539Y-11064484D02*
X10979586Y-11064484D01*
X10979586Y-11064484D02*
X10998634Y-11074008D01*
X10998634Y-11074008D02*
X11008158Y-11083531D01*
X11008158Y-11083531D02*
X11017682Y-11102579D01*
X11017682Y-11102579D02*
X11027205Y-11140674D01*
X11027205Y-11140674D02*
X11027205Y-11188293D01*
X11027205Y-11188293D02*
X11017682Y-11226388D01*
X11017682Y-11226388D02*
X11008158Y-11245436D01*
X11008158Y-11245436D02*
X10998634Y-11254960D01*
X10998634Y-11254960D02*
X10979586Y-11264484D01*
X10979586Y-11264484D02*
X10960539Y-11264484D01*
X10960539Y-11264484D02*
X10941491Y-11254960D01*
X10941491Y-11254960D02*
X10931967Y-11245436D01*
X10931967Y-11245436D02*
X10922444Y-11226388D01*
X10922444Y-11226388D02*
X10912920Y-11188293D01*
X10912920Y-11188293D02*
X10912920Y-11140674D01*
X10912920Y-11140674D02*
X10922444Y-11102579D01*
X10922444Y-11102579D02*
X10931967Y-11083531D01*
X10931967Y-11083531D02*
X10941491Y-11074008D01*
X10941491Y-11074008D02*
X10960539Y-11064484D01*
X11112920Y-11264484D02*
X11112920Y-11131150D01*
X11112920Y-11150198D02*
X11122444Y-11140674D01*
X11122444Y-11140674D02*
X11141491Y-11131150D01*
X11141491Y-11131150D02*
X11170063Y-11131150D01*
X11170063Y-11131150D02*
X11189110Y-11140674D01*
X11189110Y-11140674D02*
X11198634Y-11159722D01*
X11198634Y-11159722D02*
X11198634Y-11264484D01*
X11198634Y-11159722D02*
X11208158Y-11140674D01*
X11208158Y-11140674D02*
X11227205Y-11131150D01*
X11227205Y-11131150D02*
X11255777Y-11131150D01*
X11255777Y-11131150D02*
X11274824Y-11140674D01*
X11274824Y-11140674D02*
X11284348Y-11159722D01*
X11284348Y-11159722D02*
X11284348Y-11264484D01*
X11379586Y-11264484D02*
X11379586Y-11131150D01*
X11379586Y-11150198D02*
X11389110Y-11140674D01*
X11389110Y-11140674D02*
X11408158Y-11131150D01*
X11408158Y-11131150D02*
X11436729Y-11131150D01*
X11436729Y-11131150D02*
X11455777Y-11140674D01*
X11455777Y-11140674D02*
X11465301Y-11159722D01*
X11465301Y-11159722D02*
X11465301Y-11264484D01*
X11465301Y-11159722D02*
X11474824Y-11140674D01*
X11474824Y-11140674D02*
X11493872Y-11131150D01*
X11493872Y-11131150D02*
X11522443Y-11131150D01*
X11522443Y-11131150D02*
X11541491Y-11140674D01*
X11541491Y-11140674D02*
X11551015Y-11159722D01*
X11551015Y-11159722D02*
X11551015Y-11264484D01*
X11941491Y-11054960D02*
X11770063Y-11312103D01*
X12198634Y-11064484D02*
X12217682Y-11064484D01*
X12217682Y-11064484D02*
X12236729Y-11074008D01*
X12236729Y-11074008D02*
X12246253Y-11083531D01*
X12246253Y-11083531D02*
X12255777Y-11102579D01*
X12255777Y-11102579D02*
X12265301Y-11140674D01*
X12265301Y-11140674D02*
X12265301Y-11188293D01*
X12265301Y-11188293D02*
X12255777Y-11226388D01*
X12255777Y-11226388D02*
X12246253Y-11245436D01*
X12246253Y-11245436D02*
X12236729Y-11254960D01*
X12236729Y-11254960D02*
X12217682Y-11264484D01*
X12217682Y-11264484D02*
X12198634Y-11264484D01*
X12198634Y-11264484D02*
X12179586Y-11254960D01*
X12179586Y-11254960D02*
X12170063Y-11245436D01*
X12170063Y-11245436D02*
X12160539Y-11226388D01*
X12160539Y-11226388D02*
X12151015Y-11188293D01*
X12151015Y-11188293D02*
X12151015Y-11140674D01*
X12151015Y-11140674D02*
X12160539Y-11102579D01*
X12160539Y-11102579D02*
X12170063Y-11083531D01*
X12170063Y-11083531D02*
X12179586Y-11074008D01*
X12179586Y-11074008D02*
X12198634Y-11064484D01*
X12351015Y-11245436D02*
X12360539Y-11254960D01*
X12360539Y-11254960D02*
X12351015Y-11264484D01*
X12351015Y-11264484D02*
X12341491Y-11254960D01*
X12341491Y-11254960D02*
X12351015Y-11245436D01*
X12351015Y-11245436D02*
X12351015Y-11264484D01*
X12484348Y-11064484D02*
X12503396Y-11064484D01*
X12503396Y-11064484D02*
X12522444Y-11074008D01*
X12522444Y-11074008D02*
X12531967Y-11083531D01*
X12531967Y-11083531D02*
X12541491Y-11102579D01*
X12541491Y-11102579D02*
X12551015Y-11140674D01*
X12551015Y-11140674D02*
X12551015Y-11188293D01*
X12551015Y-11188293D02*
X12541491Y-11226388D01*
X12541491Y-11226388D02*
X12531967Y-11245436D01*
X12531967Y-11245436D02*
X12522444Y-11254960D01*
X12522444Y-11254960D02*
X12503396Y-11264484D01*
X12503396Y-11264484D02*
X12484348Y-11264484D01*
X12484348Y-11264484D02*
X12465301Y-11254960D01*
X12465301Y-11254960D02*
X12455777Y-11245436D01*
X12455777Y-11245436D02*
X12446253Y-11226388D01*
X12446253Y-11226388D02*
X12436729Y-11188293D01*
X12436729Y-11188293D02*
X12436729Y-11140674D01*
X12436729Y-11140674D02*
X12446253Y-11102579D01*
X12446253Y-11102579D02*
X12455777Y-11083531D01*
X12455777Y-11083531D02*
X12465301Y-11074008D01*
X12465301Y-11074008D02*
X12484348Y-11064484D01*
X12674825Y-11064484D02*
X12693872Y-11064484D01*
X12693872Y-11064484D02*
X12712920Y-11074008D01*
X12712920Y-11074008D02*
X12722444Y-11083531D01*
X12722444Y-11083531D02*
X12731967Y-11102579D01*
X12731967Y-11102579D02*
X12741491Y-11140674D01*
X12741491Y-11140674D02*
X12741491Y-11188293D01*
X12741491Y-11188293D02*
X12731967Y-11226388D01*
X12731967Y-11226388D02*
X12722444Y-11245436D01*
X12722444Y-11245436D02*
X12712920Y-11254960D01*
X12712920Y-11254960D02*
X12693872Y-11264484D01*
X12693872Y-11264484D02*
X12674825Y-11264484D01*
X12674825Y-11264484D02*
X12655777Y-11254960D01*
X12655777Y-11254960D02*
X12646253Y-11245436D01*
X12646253Y-11245436D02*
X12636729Y-11226388D01*
X12636729Y-11226388D02*
X12627206Y-11188293D01*
X12627206Y-11188293D02*
X12627206Y-11140674D01*
X12627206Y-11140674D02*
X12636729Y-11102579D01*
X12636729Y-11102579D02*
X12646253Y-11083531D01*
X12646253Y-11083531D02*
X12655777Y-11074008D01*
X12655777Y-11074008D02*
X12674825Y-11064484D01*
X12836729Y-11264484D02*
X12874825Y-11264484D01*
X12874825Y-11264484D02*
X12893872Y-11254960D01*
X12893872Y-11254960D02*
X12903396Y-11245436D01*
X12903396Y-11245436D02*
X12922444Y-11216865D01*
X12922444Y-11216865D02*
X12931967Y-11178770D01*
X12931967Y-11178770D02*
X12931967Y-11102579D01*
X12931967Y-11102579D02*
X12922444Y-11083531D01*
X12922444Y-11083531D02*
X12912920Y-11074008D01*
X12912920Y-11074008D02*
X12893872Y-11064484D01*
X12893872Y-11064484D02*
X12855777Y-11064484D01*
X12855777Y-11064484D02*
X12836729Y-11074008D01*
X12836729Y-11074008D02*
X12827206Y-11083531D01*
X12827206Y-11083531D02*
X12817682Y-11102579D01*
X12817682Y-11102579D02*
X12817682Y-11150198D01*
X12817682Y-11150198D02*
X12827206Y-11169246D01*
X12827206Y-11169246D02*
X12836729Y-11178770D01*
X12836729Y-11178770D02*
X12855777Y-11188293D01*
X12855777Y-11188293D02*
X12893872Y-11188293D01*
X12893872Y-11188293D02*
X12912920Y-11178770D01*
X12912920Y-11178770D02*
X12922444Y-11169246D01*
X12922444Y-11169246D02*
X12931967Y-11150198D01*
X13046253Y-11150198D02*
X13027206Y-11140674D01*
X13027206Y-11140674D02*
X13017682Y-11131150D01*
X13017682Y-11131150D02*
X13008158Y-11112103D01*
X13008158Y-11112103D02*
X13008158Y-11102579D01*
X13008158Y-11102579D02*
X13017682Y-11083531D01*
X13017682Y-11083531D02*
X13027206Y-11074008D01*
X13027206Y-11074008D02*
X13046253Y-11064484D01*
X13046253Y-11064484D02*
X13084348Y-11064484D01*
X13084348Y-11064484D02*
X13103396Y-11074008D01*
X13103396Y-11074008D02*
X13112920Y-11083531D01*
X13112920Y-11083531D02*
X13122444Y-11102579D01*
X13122444Y-11102579D02*
X13122444Y-11112103D01*
X13122444Y-11112103D02*
X13112920Y-11131150D01*
X13112920Y-11131150D02*
X13103396Y-11140674D01*
X13103396Y-11140674D02*
X13084348Y-11150198D01*
X13084348Y-11150198D02*
X13046253Y-11150198D01*
X13046253Y-11150198D02*
X13027206Y-11159722D01*
X13027206Y-11159722D02*
X13017682Y-11169246D01*
X13017682Y-11169246D02*
X13008158Y-11188293D01*
X13008158Y-11188293D02*
X13008158Y-11226388D01*
X13008158Y-11226388D02*
X13017682Y-11245436D01*
X13017682Y-11245436D02*
X13027206Y-11254960D01*
X13027206Y-11254960D02*
X13046253Y-11264484D01*
X13046253Y-11264484D02*
X13084348Y-11264484D01*
X13084348Y-11264484D02*
X13103396Y-11254960D01*
X13103396Y-11254960D02*
X13112920Y-11245436D01*
X13112920Y-11245436D02*
X13122444Y-11226388D01*
X13122444Y-11226388D02*
X13122444Y-11188293D01*
X13122444Y-11188293D02*
X13112920Y-11169246D01*
X13112920Y-11169246D02*
X13103396Y-11159722D01*
X13103396Y-11159722D02*
X13084348Y-11150198D01*
X13198634Y-11064484D02*
X13198634Y-11102579D01*
X13274825Y-11064484D02*
X13274825Y-11102579D01*
X13570063Y-11340674D02*
X13560539Y-11331150D01*
X13560539Y-11331150D02*
X13541491Y-11302579D01*
X13541491Y-11302579D02*
X13531968Y-11283531D01*
X13531968Y-11283531D02*
X13522444Y-11254960D01*
X13522444Y-11254960D02*
X13512920Y-11207341D01*
X13512920Y-11207341D02*
X13512920Y-11169246D01*
X13512920Y-11169246D02*
X13522444Y-11121627D01*
X13522444Y-11121627D02*
X13531968Y-11093055D01*
X13531968Y-11093055D02*
X13541491Y-11074008D01*
X13541491Y-11074008D02*
X13560539Y-11045436D01*
X13560539Y-11045436D02*
X13570063Y-11035912D01*
X13741491Y-11064484D02*
X13646253Y-11064484D01*
X13646253Y-11064484D02*
X13636729Y-11159722D01*
X13636729Y-11159722D02*
X13646253Y-11150198D01*
X13646253Y-11150198D02*
X13665301Y-11140674D01*
X13665301Y-11140674D02*
X13712920Y-11140674D01*
X13712920Y-11140674D02*
X13731968Y-11150198D01*
X13731968Y-11150198D02*
X13741491Y-11159722D01*
X13741491Y-11159722D02*
X13751015Y-11178770D01*
X13751015Y-11178770D02*
X13751015Y-11226388D01*
X13751015Y-11226388D02*
X13741491Y-11245436D01*
X13741491Y-11245436D02*
X13731968Y-11254960D01*
X13731968Y-11254960D02*
X13712920Y-11264484D01*
X13712920Y-11264484D02*
X13665301Y-11264484D01*
X13665301Y-11264484D02*
X13646253Y-11254960D01*
X13646253Y-11254960D02*
X13636729Y-11245436D01*
X13827206Y-11083531D02*
X13836729Y-11074008D01*
X13836729Y-11074008D02*
X13855777Y-11064484D01*
X13855777Y-11064484D02*
X13903396Y-11064484D01*
X13903396Y-11064484D02*
X13922444Y-11074008D01*
X13922444Y-11074008D02*
X13931968Y-11083531D01*
X13931968Y-11083531D02*
X13941491Y-11102579D01*
X13941491Y-11102579D02*
X13941491Y-11121627D01*
X13941491Y-11121627D02*
X13931968Y-11150198D01*
X13931968Y-11150198D02*
X13817682Y-11264484D01*
X13817682Y-11264484D02*
X13941491Y-11264484D01*
X14179587Y-11264484D02*
X14179587Y-11064484D01*
X14265301Y-11264484D02*
X14265301Y-11159722D01*
X14265301Y-11159722D02*
X14255777Y-11140674D01*
X14255777Y-11140674D02*
X14236730Y-11131150D01*
X14236730Y-11131150D02*
X14208158Y-11131150D01*
X14208158Y-11131150D02*
X14189110Y-11140674D01*
X14189110Y-11140674D02*
X14179587Y-11150198D01*
X14389110Y-11264484D02*
X14370063Y-11254960D01*
X14370063Y-11254960D02*
X14360539Y-11245436D01*
X14360539Y-11245436D02*
X14351015Y-11226388D01*
X14351015Y-11226388D02*
X14351015Y-11169246D01*
X14351015Y-11169246D02*
X14360539Y-11150198D01*
X14360539Y-11150198D02*
X14370063Y-11140674D01*
X14370063Y-11140674D02*
X14389110Y-11131150D01*
X14389110Y-11131150D02*
X14417682Y-11131150D01*
X14417682Y-11131150D02*
X14436730Y-11140674D01*
X14436730Y-11140674D02*
X14446253Y-11150198D01*
X14446253Y-11150198D02*
X14455777Y-11169246D01*
X14455777Y-11169246D02*
X14455777Y-11226388D01*
X14455777Y-11226388D02*
X14446253Y-11245436D01*
X14446253Y-11245436D02*
X14436730Y-11254960D01*
X14436730Y-11254960D02*
X14417682Y-11264484D01*
X14417682Y-11264484D02*
X14389110Y-11264484D01*
X14570063Y-11264484D02*
X14551015Y-11254960D01*
X14551015Y-11254960D02*
X14541491Y-11235912D01*
X14541491Y-11235912D02*
X14541491Y-11064484D01*
X14722444Y-11254960D02*
X14703396Y-11264484D01*
X14703396Y-11264484D02*
X14665301Y-11264484D01*
X14665301Y-11264484D02*
X14646253Y-11254960D01*
X14646253Y-11254960D02*
X14636730Y-11235912D01*
X14636730Y-11235912D02*
X14636730Y-11159722D01*
X14636730Y-11159722D02*
X14646253Y-11140674D01*
X14646253Y-11140674D02*
X14665301Y-11131150D01*
X14665301Y-11131150D02*
X14703396Y-11131150D01*
X14703396Y-11131150D02*
X14722444Y-11140674D01*
X14722444Y-11140674D02*
X14731968Y-11159722D01*
X14731968Y-11159722D02*
X14731968Y-11178770D01*
X14731968Y-11178770D02*
X14636730Y-11197817D01*
X14808158Y-11254960D02*
X14827206Y-11264484D01*
X14827206Y-11264484D02*
X14865301Y-11264484D01*
X14865301Y-11264484D02*
X14884349Y-11254960D01*
X14884349Y-11254960D02*
X14893872Y-11235912D01*
X14893872Y-11235912D02*
X14893872Y-11226388D01*
X14893872Y-11226388D02*
X14884349Y-11207341D01*
X14884349Y-11207341D02*
X14865301Y-11197817D01*
X14865301Y-11197817D02*
X14836730Y-11197817D01*
X14836730Y-11197817D02*
X14817682Y-11188293D01*
X14817682Y-11188293D02*
X14808158Y-11169246D01*
X14808158Y-11169246D02*
X14808158Y-11159722D01*
X14808158Y-11159722D02*
X14817682Y-11140674D01*
X14817682Y-11140674D02*
X14836730Y-11131150D01*
X14836730Y-11131150D02*
X14865301Y-11131150D01*
X14865301Y-11131150D02*
X14884349Y-11140674D01*
X14960539Y-11340674D02*
X14970063Y-11331150D01*
X14970063Y-11331150D02*
X14989111Y-11302579D01*
X14989111Y-11302579D02*
X14998634Y-11283531D01*
X14998634Y-11283531D02*
X15008158Y-11254960D01*
X15008158Y-11254960D02*
X15017682Y-11207341D01*
X15017682Y-11207341D02*
X15017682Y-11169246D01*
X15017682Y-11169246D02*
X15008158Y-11121627D01*
X15008158Y-11121627D02*
X14998634Y-11093055D01*
X14998634Y-11093055D02*
X14989111Y-11074008D01*
X14989111Y-11074008D02*
X14970063Y-11045436D01*
X14970063Y-11045436D02*
X14960539Y-11035912D01*
D10*
X9990607Y-11447607D02*
X9990607Y-11426393D01*
X9969393Y-11426393D01*
X9969393Y-11447607D01*
X9990607Y-11447607D01*
D11*
X10293872Y-11328484D02*
X10312920Y-11328484D01*
X10312920Y-11328484D02*
X10331967Y-11338008D01*
X10331967Y-11338008D02*
X10341491Y-11347531D01*
X10341491Y-11347531D02*
X10351015Y-11366579D01*
X10351015Y-11366579D02*
X10360539Y-11404674D01*
X10360539Y-11404674D02*
X10360539Y-11452293D01*
X10360539Y-11452293D02*
X10351015Y-11490388D01*
X10351015Y-11490388D02*
X10341491Y-11509436D01*
X10341491Y-11509436D02*
X10331967Y-11518960D01*
X10331967Y-11518960D02*
X10312920Y-11528484D01*
X10312920Y-11528484D02*
X10293872Y-11528484D01*
X10293872Y-11528484D02*
X10274824Y-11518960D01*
X10274824Y-11518960D02*
X10265301Y-11509436D01*
X10265301Y-11509436D02*
X10255777Y-11490388D01*
X10255777Y-11490388D02*
X10246253Y-11452293D01*
X10246253Y-11452293D02*
X10246253Y-11404674D01*
X10246253Y-11404674D02*
X10255777Y-11366579D01*
X10255777Y-11366579D02*
X10265301Y-11347531D01*
X10265301Y-11347531D02*
X10274824Y-11338008D01*
X10274824Y-11338008D02*
X10293872Y-11328484D01*
X10446253Y-11509436D02*
X10455777Y-11518960D01*
X10455777Y-11518960D02*
X10446253Y-11528484D01*
X10446253Y-11528484D02*
X10436729Y-11518960D01*
X10436729Y-11518960D02*
X10446253Y-11509436D01*
X10446253Y-11509436D02*
X10446253Y-11528484D01*
X10522444Y-11328484D02*
X10646253Y-11328484D01*
X10646253Y-11328484D02*
X10579586Y-11404674D01*
X10579586Y-11404674D02*
X10608158Y-11404674D01*
X10608158Y-11404674D02*
X10627205Y-11414198D01*
X10627205Y-11414198D02*
X10636729Y-11423722D01*
X10636729Y-11423722D02*
X10646253Y-11442769D01*
X10646253Y-11442769D02*
X10646253Y-11490388D01*
X10646253Y-11490388D02*
X10636729Y-11509436D01*
X10636729Y-11509436D02*
X10627205Y-11518960D01*
X10627205Y-11518960D02*
X10608158Y-11528484D01*
X10608158Y-11528484D02*
X10551015Y-11528484D01*
X10551015Y-11528484D02*
X10531967Y-11518960D01*
X10531967Y-11518960D02*
X10522444Y-11509436D01*
X10770063Y-11328484D02*
X10789110Y-11328484D01*
X10789110Y-11328484D02*
X10808158Y-11338008D01*
X10808158Y-11338008D02*
X10817682Y-11347531D01*
X10817682Y-11347531D02*
X10827205Y-11366579D01*
X10827205Y-11366579D02*
X10836729Y-11404674D01*
X10836729Y-11404674D02*
X10836729Y-11452293D01*
X10836729Y-11452293D02*
X10827205Y-11490388D01*
X10827205Y-11490388D02*
X10817682Y-11509436D01*
X10817682Y-11509436D02*
X10808158Y-11518960D01*
X10808158Y-11518960D02*
X10789110Y-11528484D01*
X10789110Y-11528484D02*
X10770063Y-11528484D01*
X10770063Y-11528484D02*
X10751015Y-11518960D01*
X10751015Y-11518960D02*
X10741491Y-11509436D01*
X10741491Y-11509436D02*
X10731967Y-11490388D01*
X10731967Y-11490388D02*
X10722444Y-11452293D01*
X10722444Y-11452293D02*
X10722444Y-11404674D01*
X10722444Y-11404674D02*
X10731967Y-11366579D01*
X10731967Y-11366579D02*
X10741491Y-11347531D01*
X10741491Y-11347531D02*
X10751015Y-11338008D01*
X10751015Y-11338008D02*
X10770063Y-11328484D01*
X10960539Y-11328484D02*
X10979586Y-11328484D01*
X10979586Y-11328484D02*
X10998634Y-11338008D01*
X10998634Y-11338008D02*
X11008158Y-11347531D01*
X11008158Y-11347531D02*
X11017682Y-11366579D01*
X11017682Y-11366579D02*
X11027205Y-11404674D01*
X11027205Y-11404674D02*
X11027205Y-11452293D01*
X11027205Y-11452293D02*
X11017682Y-11490388D01*
X11017682Y-11490388D02*
X11008158Y-11509436D01*
X11008158Y-11509436D02*
X10998634Y-11518960D01*
X10998634Y-11518960D02*
X10979586Y-11528484D01*
X10979586Y-11528484D02*
X10960539Y-11528484D01*
X10960539Y-11528484D02*
X10941491Y-11518960D01*
X10941491Y-11518960D02*
X10931967Y-11509436D01*
X10931967Y-11509436D02*
X10922444Y-11490388D01*
X10922444Y-11490388D02*
X10912920Y-11452293D01*
X10912920Y-11452293D02*
X10912920Y-11404674D01*
X10912920Y-11404674D02*
X10922444Y-11366579D01*
X10922444Y-11366579D02*
X10931967Y-11347531D01*
X10931967Y-11347531D02*
X10941491Y-11338008D01*
X10941491Y-11338008D02*
X10960539Y-11328484D01*
X11112920Y-11528484D02*
X11112920Y-11395150D01*
X11112920Y-11414198D02*
X11122444Y-11404674D01*
X11122444Y-11404674D02*
X11141491Y-11395150D01*
X11141491Y-11395150D02*
X11170063Y-11395150D01*
X11170063Y-11395150D02*
X11189110Y-11404674D01*
X11189110Y-11404674D02*
X11198634Y-11423722D01*
X11198634Y-11423722D02*
X11198634Y-11528484D01*
X11198634Y-11423722D02*
X11208158Y-11404674D01*
X11208158Y-11404674D02*
X11227205Y-11395150D01*
X11227205Y-11395150D02*
X11255777Y-11395150D01*
X11255777Y-11395150D02*
X11274824Y-11404674D01*
X11274824Y-11404674D02*
X11284348Y-11423722D01*
X11284348Y-11423722D02*
X11284348Y-11528484D01*
X11379586Y-11528484D02*
X11379586Y-11395150D01*
X11379586Y-11414198D02*
X11389110Y-11404674D01*
X11389110Y-11404674D02*
X11408158Y-11395150D01*
X11408158Y-11395150D02*
X11436729Y-11395150D01*
X11436729Y-11395150D02*
X11455777Y-11404674D01*
X11455777Y-11404674D02*
X11465301Y-11423722D01*
X11465301Y-11423722D02*
X11465301Y-11528484D01*
X11465301Y-11423722D02*
X11474824Y-11404674D01*
X11474824Y-11404674D02*
X11493872Y-11395150D01*
X11493872Y-11395150D02*
X11522443Y-11395150D01*
X11522443Y-11395150D02*
X11541491Y-11404674D01*
X11541491Y-11404674D02*
X11551015Y-11423722D01*
X11551015Y-11423722D02*
X11551015Y-11528484D01*
X11941491Y-11318960D02*
X11770063Y-11576103D01*
X12198634Y-11328484D02*
X12217682Y-11328484D01*
X12217682Y-11328484D02*
X12236729Y-11338008D01*
X12236729Y-11338008D02*
X12246253Y-11347531D01*
X12246253Y-11347531D02*
X12255777Y-11366579D01*
X12255777Y-11366579D02*
X12265301Y-11404674D01*
X12265301Y-11404674D02*
X12265301Y-11452293D01*
X12265301Y-11452293D02*
X12255777Y-11490388D01*
X12255777Y-11490388D02*
X12246253Y-11509436D01*
X12246253Y-11509436D02*
X12236729Y-11518960D01*
X12236729Y-11518960D02*
X12217682Y-11528484D01*
X12217682Y-11528484D02*
X12198634Y-11528484D01*
X12198634Y-11528484D02*
X12179586Y-11518960D01*
X12179586Y-11518960D02*
X12170063Y-11509436D01*
X12170063Y-11509436D02*
X12160539Y-11490388D01*
X12160539Y-11490388D02*
X12151015Y-11452293D01*
X12151015Y-11452293D02*
X12151015Y-11404674D01*
X12151015Y-11404674D02*
X12160539Y-11366579D01*
X12160539Y-11366579D02*
X12170063Y-11347531D01*
X12170063Y-11347531D02*
X12179586Y-11338008D01*
X12179586Y-11338008D02*
X12198634Y-11328484D01*
X12351015Y-11509436D02*
X12360539Y-11518960D01*
X12360539Y-11518960D02*
X12351015Y-11528484D01*
X12351015Y-11528484D02*
X12341491Y-11518960D01*
X12341491Y-11518960D02*
X12351015Y-11509436D01*
X12351015Y-11509436D02*
X12351015Y-11528484D01*
X12484348Y-11328484D02*
X12503396Y-11328484D01*
X12503396Y-11328484D02*
X12522444Y-11338008D01*
X12522444Y-11338008D02*
X12531967Y-11347531D01*
X12531967Y-11347531D02*
X12541491Y-11366579D01*
X12541491Y-11366579D02*
X12551015Y-11404674D01*
X12551015Y-11404674D02*
X12551015Y-11452293D01*
X12551015Y-11452293D02*
X12541491Y-11490388D01*
X12541491Y-11490388D02*
X12531967Y-11509436D01*
X12531967Y-11509436D02*
X12522444Y-11518960D01*
X12522444Y-11518960D02*
X12503396Y-11528484D01*
X12503396Y-11528484D02*
X12484348Y-11528484D01*
X12484348Y-11528484D02*
X12465301Y-11518960D01*
X12465301Y-11518960D02*
X12455777Y-11509436D01*
X12455777Y-11509436D02*
X12446253Y-11490388D01*
X12446253Y-11490388D02*
X12436729Y-11452293D01*
X12436729Y-11452293D02*
X12436729Y-11404674D01*
X12436729Y-11404674D02*
X12446253Y-11366579D01*
X12446253Y-11366579D02*
X12455777Y-11347531D01*
X12455777Y-11347531D02*
X12465301Y-11338008D01*
X12465301Y-11338008D02*
X12484348Y-11328484D01*
X12741491Y-11528484D02*
X12627206Y-11528484D01*
X12684348Y-11528484D02*
X12684348Y-11328484D01*
X12684348Y-11328484D02*
X12665301Y-11357055D01*
X12665301Y-11357055D02*
X12646253Y-11376103D01*
X12646253Y-11376103D02*
X12627206Y-11385627D01*
X12931967Y-11528484D02*
X12817682Y-11528484D01*
X12874825Y-11528484D02*
X12874825Y-11328484D01*
X12874825Y-11328484D02*
X12855777Y-11357055D01*
X12855777Y-11357055D02*
X12836729Y-11376103D01*
X12836729Y-11376103D02*
X12817682Y-11385627D01*
X13046253Y-11414198D02*
X13027206Y-11404674D01*
X13027206Y-11404674D02*
X13017682Y-11395150D01*
X13017682Y-11395150D02*
X13008158Y-11376103D01*
X13008158Y-11376103D02*
X13008158Y-11366579D01*
X13008158Y-11366579D02*
X13017682Y-11347531D01*
X13017682Y-11347531D02*
X13027206Y-11338008D01*
X13027206Y-11338008D02*
X13046253Y-11328484D01*
X13046253Y-11328484D02*
X13084348Y-11328484D01*
X13084348Y-11328484D02*
X13103396Y-11338008D01*
X13103396Y-11338008D02*
X13112920Y-11347531D01*
X13112920Y-11347531D02*
X13122444Y-11366579D01*
X13122444Y-11366579D02*
X13122444Y-11376103D01*
X13122444Y-11376103D02*
X13112920Y-11395150D01*
X13112920Y-11395150D02*
X13103396Y-11404674D01*
X13103396Y-11404674D02*
X13084348Y-11414198D01*
X13084348Y-11414198D02*
X13046253Y-11414198D01*
X13046253Y-11414198D02*
X13027206Y-11423722D01*
X13027206Y-11423722D02*
X13017682Y-11433246D01*
X13017682Y-11433246D02*
X13008158Y-11452293D01*
X13008158Y-11452293D02*
X13008158Y-11490388D01*
X13008158Y-11490388D02*
X13017682Y-11509436D01*
X13017682Y-11509436D02*
X13027206Y-11518960D01*
X13027206Y-11518960D02*
X13046253Y-11528484D01*
X13046253Y-11528484D02*
X13084348Y-11528484D01*
X13084348Y-11528484D02*
X13103396Y-11518960D01*
X13103396Y-11518960D02*
X13112920Y-11509436D01*
X13112920Y-11509436D02*
X13122444Y-11490388D01*
X13122444Y-11490388D02*
X13122444Y-11452293D01*
X13122444Y-11452293D02*
X13112920Y-11433246D01*
X13112920Y-11433246D02*
X13103396Y-11423722D01*
X13103396Y-11423722D02*
X13084348Y-11414198D01*
X13198634Y-11328484D02*
X13198634Y-11366579D01*
X13274825Y-11328484D02*
X13274825Y-11366579D01*
X13570063Y-11604674D02*
X13560539Y-11595150D01*
X13560539Y-11595150D02*
X13541491Y-11566579D01*
X13541491Y-11566579D02*
X13531968Y-11547531D01*
X13531968Y-11547531D02*
X13522444Y-11518960D01*
X13522444Y-11518960D02*
X13512920Y-11471341D01*
X13512920Y-11471341D02*
X13512920Y-11433246D01*
X13512920Y-11433246D02*
X13522444Y-11385627D01*
X13522444Y-11385627D02*
X13531968Y-11357055D01*
X13531968Y-11357055D02*
X13541491Y-11338008D01*
X13541491Y-11338008D02*
X13560539Y-11309436D01*
X13560539Y-11309436D02*
X13570063Y-11299912D01*
X13674825Y-11414198D02*
X13655777Y-11404674D01*
X13655777Y-11404674D02*
X13646253Y-11395150D01*
X13646253Y-11395150D02*
X13636729Y-11376103D01*
X13636729Y-11376103D02*
X13636729Y-11366579D01*
X13636729Y-11366579D02*
X13646253Y-11347531D01*
X13646253Y-11347531D02*
X13655777Y-11338008D01*
X13655777Y-11338008D02*
X13674825Y-11328484D01*
X13674825Y-11328484D02*
X13712920Y-11328484D01*
X13712920Y-11328484D02*
X13731968Y-11338008D01*
X13731968Y-11338008D02*
X13741491Y-11347531D01*
X13741491Y-11347531D02*
X13751015Y-11366579D01*
X13751015Y-11366579D02*
X13751015Y-11376103D01*
X13751015Y-11376103D02*
X13741491Y-11395150D01*
X13741491Y-11395150D02*
X13731968Y-11404674D01*
X13731968Y-11404674D02*
X13712920Y-11414198D01*
X13712920Y-11414198D02*
X13674825Y-11414198D01*
X13674825Y-11414198D02*
X13655777Y-11423722D01*
X13655777Y-11423722D02*
X13646253Y-11433246D01*
X13646253Y-11433246D02*
X13636729Y-11452293D01*
X13636729Y-11452293D02*
X13636729Y-11490388D01*
X13636729Y-11490388D02*
X13646253Y-11509436D01*
X13646253Y-11509436D02*
X13655777Y-11518960D01*
X13655777Y-11518960D02*
X13674825Y-11528484D01*
X13674825Y-11528484D02*
X13712920Y-11528484D01*
X13712920Y-11528484D02*
X13731968Y-11518960D01*
X13731968Y-11518960D02*
X13741491Y-11509436D01*
X13741491Y-11509436D02*
X13751015Y-11490388D01*
X13751015Y-11490388D02*
X13751015Y-11452293D01*
X13751015Y-11452293D02*
X13741491Y-11433246D01*
X13741491Y-11433246D02*
X13731968Y-11423722D01*
X13731968Y-11423722D02*
X13712920Y-11414198D01*
X13846253Y-11528484D02*
X13884348Y-11528484D01*
X13884348Y-11528484D02*
X13903396Y-11518960D01*
X13903396Y-11518960D02*
X13912920Y-11509436D01*
X13912920Y-11509436D02*
X13931968Y-11480865D01*
X13931968Y-11480865D02*
X13941491Y-11442769D01*
X13941491Y-11442769D02*
X13941491Y-11366579D01*
X13941491Y-11366579D02*
X13931968Y-11347531D01*
X13931968Y-11347531D02*
X13922444Y-11338008D01*
X13922444Y-11338008D02*
X13903396Y-11328484D01*
X13903396Y-11328484D02*
X13865301Y-11328484D01*
X13865301Y-11328484D02*
X13846253Y-11338008D01*
X13846253Y-11338008D02*
X13836729Y-11347531D01*
X13836729Y-11347531D02*
X13827206Y-11366579D01*
X13827206Y-11366579D02*
X13827206Y-11414198D01*
X13827206Y-11414198D02*
X13836729Y-11433246D01*
X13836729Y-11433246D02*
X13846253Y-11442769D01*
X13846253Y-11442769D02*
X13865301Y-11452293D01*
X13865301Y-11452293D02*
X13903396Y-11452293D01*
X13903396Y-11452293D02*
X13922444Y-11442769D01*
X13922444Y-11442769D02*
X13931968Y-11433246D01*
X13931968Y-11433246D02*
X13941491Y-11414198D01*
X14179587Y-11528484D02*
X14179587Y-11328484D01*
X14265301Y-11528484D02*
X14265301Y-11423722D01*
X14265301Y-11423722D02*
X14255777Y-11404674D01*
X14255777Y-11404674D02*
X14236730Y-11395150D01*
X14236730Y-11395150D02*
X14208158Y-11395150D01*
X14208158Y-11395150D02*
X14189110Y-11404674D01*
X14189110Y-11404674D02*
X14179587Y-11414198D01*
X14389110Y-11528484D02*
X14370063Y-11518960D01*
X14370063Y-11518960D02*
X14360539Y-11509436D01*
X14360539Y-11509436D02*
X14351015Y-11490388D01*
X14351015Y-11490388D02*
X14351015Y-11433246D01*
X14351015Y-11433246D02*
X14360539Y-11414198D01*
X14360539Y-11414198D02*
X14370063Y-11404674D01*
X14370063Y-11404674D02*
X14389110Y-11395150D01*
X14389110Y-11395150D02*
X14417682Y-11395150D01*
X14417682Y-11395150D02*
X14436730Y-11404674D01*
X14436730Y-11404674D02*
X14446253Y-11414198D01*
X14446253Y-11414198D02*
X14455777Y-11433246D01*
X14455777Y-11433246D02*
X14455777Y-11490388D01*
X14455777Y-11490388D02*
X14446253Y-11509436D01*
X14446253Y-11509436D02*
X14436730Y-11518960D01*
X14436730Y-11518960D02*
X14417682Y-11528484D01*
X14417682Y-11528484D02*
X14389110Y-11528484D01*
X14570063Y-11528484D02*
X14551015Y-11518960D01*
X14551015Y-11518960D02*
X14541491Y-11499912D01*
X14541491Y-11499912D02*
X14541491Y-11328484D01*
X14722444Y-11518960D02*
X14703396Y-11528484D01*
X14703396Y-11528484D02*
X14665301Y-11528484D01*
X14665301Y-11528484D02*
X14646253Y-11518960D01*
X14646253Y-11518960D02*
X14636730Y-11499912D01*
X14636730Y-11499912D02*
X14636730Y-11423722D01*
X14636730Y-11423722D02*
X14646253Y-11404674D01*
X14646253Y-11404674D02*
X14665301Y-11395150D01*
X14665301Y-11395150D02*
X14703396Y-11395150D01*
X14703396Y-11395150D02*
X14722444Y-11404674D01*
X14722444Y-11404674D02*
X14731968Y-11423722D01*
X14731968Y-11423722D02*
X14731968Y-11442769D01*
X14731968Y-11442769D02*
X14636730Y-11461817D01*
X14808158Y-11518960D02*
X14827206Y-11528484D01*
X14827206Y-11528484D02*
X14865301Y-11528484D01*
X14865301Y-11528484D02*
X14884349Y-11518960D01*
X14884349Y-11518960D02*
X14893872Y-11499912D01*
X14893872Y-11499912D02*
X14893872Y-11490388D01*
X14893872Y-11490388D02*
X14884349Y-11471341D01*
X14884349Y-11471341D02*
X14865301Y-11461817D01*
X14865301Y-11461817D02*
X14836730Y-11461817D01*
X14836730Y-11461817D02*
X14817682Y-11452293D01*
X14817682Y-11452293D02*
X14808158Y-11433246D01*
X14808158Y-11433246D02*
X14808158Y-11423722D01*
X14808158Y-11423722D02*
X14817682Y-11404674D01*
X14817682Y-11404674D02*
X14836730Y-11395150D01*
X14836730Y-11395150D02*
X14865301Y-11395150D01*
X14865301Y-11395150D02*
X14884349Y-11404674D01*
X14960539Y-11604674D02*
X14970063Y-11595150D01*
X14970063Y-11595150D02*
X14989111Y-11566579D01*
X14989111Y-11566579D02*
X14998634Y-11547531D01*
X14998634Y-11547531D02*
X15008158Y-11518960D01*
X15008158Y-11518960D02*
X15017682Y-11471341D01*
X15017682Y-11471341D02*
X15017682Y-11433246D01*
X15017682Y-11433246D02*
X15008158Y-11385627D01*
X15008158Y-11385627D02*
X14998634Y-11357055D01*
X14998634Y-11357055D02*
X14989111Y-11338008D01*
X14989111Y-11338008D02*
X14970063Y-11309436D01*
X14970063Y-11309436D02*
X14960539Y-11299912D01*
D10*
X9945000Y-11751000D02*
X9995000Y-11701000D01*
X9945000Y-11651000D01*
X9895000Y-11701000D01*
X9945000Y-11751000D01*
D11*
X10360539Y-11792484D02*
X10246253Y-11792484D01*
X10303396Y-11792484D02*
X10303396Y-11592484D01*
X10303396Y-11592484D02*
X10284348Y-11621055D01*
X10284348Y-11621055D02*
X10265301Y-11640103D01*
X10265301Y-11640103D02*
X10246253Y-11649627D01*
X10446253Y-11773436D02*
X10455777Y-11782960D01*
X10455777Y-11782960D02*
X10446253Y-11792484D01*
X10446253Y-11792484D02*
X10436729Y-11782960D01*
X10436729Y-11782960D02*
X10446253Y-11773436D01*
X10446253Y-11773436D02*
X10446253Y-11792484D01*
X10579586Y-11592484D02*
X10598634Y-11592484D01*
X10598634Y-11592484D02*
X10617682Y-11602008D01*
X10617682Y-11602008D02*
X10627205Y-11611531D01*
X10627205Y-11611531D02*
X10636729Y-11630579D01*
X10636729Y-11630579D02*
X10646253Y-11668674D01*
X10646253Y-11668674D02*
X10646253Y-11716293D01*
X10646253Y-11716293D02*
X10636729Y-11754388D01*
X10636729Y-11754388D02*
X10627205Y-11773436D01*
X10627205Y-11773436D02*
X10617682Y-11782960D01*
X10617682Y-11782960D02*
X10598634Y-11792484D01*
X10598634Y-11792484D02*
X10579586Y-11792484D01*
X10579586Y-11792484D02*
X10560539Y-11782960D01*
X10560539Y-11782960D02*
X10551015Y-11773436D01*
X10551015Y-11773436D02*
X10541491Y-11754388D01*
X10541491Y-11754388D02*
X10531967Y-11716293D01*
X10531967Y-11716293D02*
X10531967Y-11668674D01*
X10531967Y-11668674D02*
X10541491Y-11630579D01*
X10541491Y-11630579D02*
X10551015Y-11611531D01*
X10551015Y-11611531D02*
X10560539Y-11602008D01*
X10560539Y-11602008D02*
X10579586Y-11592484D01*
X10770063Y-11592484D02*
X10789110Y-11592484D01*
X10789110Y-11592484D02*
X10808158Y-11602008D01*
X10808158Y-11602008D02*
X10817682Y-11611531D01*
X10817682Y-11611531D02*
X10827205Y-11630579D01*
X10827205Y-11630579D02*
X10836729Y-11668674D01*
X10836729Y-11668674D02*
X10836729Y-11716293D01*
X10836729Y-11716293D02*
X10827205Y-11754388D01*
X10827205Y-11754388D02*
X10817682Y-11773436D01*
X10817682Y-11773436D02*
X10808158Y-11782960D01*
X10808158Y-11782960D02*
X10789110Y-11792484D01*
X10789110Y-11792484D02*
X10770063Y-11792484D01*
X10770063Y-11792484D02*
X10751015Y-11782960D01*
X10751015Y-11782960D02*
X10741491Y-11773436D01*
X10741491Y-11773436D02*
X10731967Y-11754388D01*
X10731967Y-11754388D02*
X10722444Y-11716293D01*
X10722444Y-11716293D02*
X10722444Y-11668674D01*
X10722444Y-11668674D02*
X10731967Y-11630579D01*
X10731967Y-11630579D02*
X10741491Y-11611531D01*
X10741491Y-11611531D02*
X10751015Y-11602008D01*
X10751015Y-11602008D02*
X10770063Y-11592484D01*
X10960539Y-11592484D02*
X10979586Y-11592484D01*
X10979586Y-11592484D02*
X10998634Y-11602008D01*
X10998634Y-11602008D02*
X11008158Y-11611531D01*
X11008158Y-11611531D02*
X11017682Y-11630579D01*
X11017682Y-11630579D02*
X11027205Y-11668674D01*
X11027205Y-11668674D02*
X11027205Y-11716293D01*
X11027205Y-11716293D02*
X11017682Y-11754388D01*
X11017682Y-11754388D02*
X11008158Y-11773436D01*
X11008158Y-11773436D02*
X10998634Y-11782960D01*
X10998634Y-11782960D02*
X10979586Y-11792484D01*
X10979586Y-11792484D02*
X10960539Y-11792484D01*
X10960539Y-11792484D02*
X10941491Y-11782960D01*
X10941491Y-11782960D02*
X10931967Y-11773436D01*
X10931967Y-11773436D02*
X10922444Y-11754388D01*
X10922444Y-11754388D02*
X10912920Y-11716293D01*
X10912920Y-11716293D02*
X10912920Y-11668674D01*
X10912920Y-11668674D02*
X10922444Y-11630579D01*
X10922444Y-11630579D02*
X10931967Y-11611531D01*
X10931967Y-11611531D02*
X10941491Y-11602008D01*
X10941491Y-11602008D02*
X10960539Y-11592484D01*
X11112920Y-11792484D02*
X11112920Y-11659150D01*
X11112920Y-11678198D02*
X11122444Y-11668674D01*
X11122444Y-11668674D02*
X11141491Y-11659150D01*
X11141491Y-11659150D02*
X11170063Y-11659150D01*
X11170063Y-11659150D02*
X11189110Y-11668674D01*
X11189110Y-11668674D02*
X11198634Y-11687722D01*
X11198634Y-11687722D02*
X11198634Y-11792484D01*
X11198634Y-11687722D02*
X11208158Y-11668674D01*
X11208158Y-11668674D02*
X11227205Y-11659150D01*
X11227205Y-11659150D02*
X11255777Y-11659150D01*
X11255777Y-11659150D02*
X11274824Y-11668674D01*
X11274824Y-11668674D02*
X11284348Y-11687722D01*
X11284348Y-11687722D02*
X11284348Y-11792484D01*
X11379586Y-11792484D02*
X11379586Y-11659150D01*
X11379586Y-11678198D02*
X11389110Y-11668674D01*
X11389110Y-11668674D02*
X11408158Y-11659150D01*
X11408158Y-11659150D02*
X11436729Y-11659150D01*
X11436729Y-11659150D02*
X11455777Y-11668674D01*
X11455777Y-11668674D02*
X11465301Y-11687722D01*
X11465301Y-11687722D02*
X11465301Y-11792484D01*
X11465301Y-11687722D02*
X11474824Y-11668674D01*
X11474824Y-11668674D02*
X11493872Y-11659150D01*
X11493872Y-11659150D02*
X11522443Y-11659150D01*
X11522443Y-11659150D02*
X11541491Y-11668674D01*
X11541491Y-11668674D02*
X11551015Y-11687722D01*
X11551015Y-11687722D02*
X11551015Y-11792484D01*
X11941491Y-11582960D02*
X11770063Y-11840103D01*
X12198634Y-11592484D02*
X12217682Y-11592484D01*
X12217682Y-11592484D02*
X12236729Y-11602008D01*
X12236729Y-11602008D02*
X12246253Y-11611531D01*
X12246253Y-11611531D02*
X12255777Y-11630579D01*
X12255777Y-11630579D02*
X12265301Y-11668674D01*
X12265301Y-11668674D02*
X12265301Y-11716293D01*
X12265301Y-11716293D02*
X12255777Y-11754388D01*
X12255777Y-11754388D02*
X12246253Y-11773436D01*
X12246253Y-11773436D02*
X12236729Y-11782960D01*
X12236729Y-11782960D02*
X12217682Y-11792484D01*
X12217682Y-11792484D02*
X12198634Y-11792484D01*
X12198634Y-11792484D02*
X12179586Y-11782960D01*
X12179586Y-11782960D02*
X12170063Y-11773436D01*
X12170063Y-11773436D02*
X12160539Y-11754388D01*
X12160539Y-11754388D02*
X12151015Y-11716293D01*
X12151015Y-11716293D02*
X12151015Y-11668674D01*
X12151015Y-11668674D02*
X12160539Y-11630579D01*
X12160539Y-11630579D02*
X12170063Y-11611531D01*
X12170063Y-11611531D02*
X12179586Y-11602008D01*
X12179586Y-11602008D02*
X12198634Y-11592484D01*
X12351015Y-11773436D02*
X12360539Y-11782960D01*
X12360539Y-11782960D02*
X12351015Y-11792484D01*
X12351015Y-11792484D02*
X12341491Y-11782960D01*
X12341491Y-11782960D02*
X12351015Y-11773436D01*
X12351015Y-11773436D02*
X12351015Y-11792484D01*
X12484348Y-11592484D02*
X12503396Y-11592484D01*
X12503396Y-11592484D02*
X12522444Y-11602008D01*
X12522444Y-11602008D02*
X12531967Y-11611531D01*
X12531967Y-11611531D02*
X12541491Y-11630579D01*
X12541491Y-11630579D02*
X12551015Y-11668674D01*
X12551015Y-11668674D02*
X12551015Y-11716293D01*
X12551015Y-11716293D02*
X12541491Y-11754388D01*
X12541491Y-11754388D02*
X12531967Y-11773436D01*
X12531967Y-11773436D02*
X12522444Y-11782960D01*
X12522444Y-11782960D02*
X12503396Y-11792484D01*
X12503396Y-11792484D02*
X12484348Y-11792484D01*
X12484348Y-11792484D02*
X12465301Y-11782960D01*
X12465301Y-11782960D02*
X12455777Y-11773436D01*
X12455777Y-11773436D02*
X12446253Y-11754388D01*
X12446253Y-11754388D02*
X12436729Y-11716293D01*
X12436729Y-11716293D02*
X12436729Y-11668674D01*
X12436729Y-11668674D02*
X12446253Y-11630579D01*
X12446253Y-11630579D02*
X12455777Y-11611531D01*
X12455777Y-11611531D02*
X12465301Y-11602008D01*
X12465301Y-11602008D02*
X12484348Y-11592484D01*
X12617682Y-11592484D02*
X12741491Y-11592484D01*
X12741491Y-11592484D02*
X12674825Y-11668674D01*
X12674825Y-11668674D02*
X12703396Y-11668674D01*
X12703396Y-11668674D02*
X12722444Y-11678198D01*
X12722444Y-11678198D02*
X12731967Y-11687722D01*
X12731967Y-11687722D02*
X12741491Y-11706769D01*
X12741491Y-11706769D02*
X12741491Y-11754388D01*
X12741491Y-11754388D02*
X12731967Y-11773436D01*
X12731967Y-11773436D02*
X12722444Y-11782960D01*
X12722444Y-11782960D02*
X12703396Y-11792484D01*
X12703396Y-11792484D02*
X12646253Y-11792484D01*
X12646253Y-11792484D02*
X12627206Y-11782960D01*
X12627206Y-11782960D02*
X12617682Y-11773436D01*
X12836729Y-11792484D02*
X12874825Y-11792484D01*
X12874825Y-11792484D02*
X12893872Y-11782960D01*
X12893872Y-11782960D02*
X12903396Y-11773436D01*
X12903396Y-11773436D02*
X12922444Y-11744865D01*
X12922444Y-11744865D02*
X12931967Y-11706769D01*
X12931967Y-11706769D02*
X12931967Y-11630579D01*
X12931967Y-11630579D02*
X12922444Y-11611531D01*
X12922444Y-11611531D02*
X12912920Y-11602008D01*
X12912920Y-11602008D02*
X12893872Y-11592484D01*
X12893872Y-11592484D02*
X12855777Y-11592484D01*
X12855777Y-11592484D02*
X12836729Y-11602008D01*
X12836729Y-11602008D02*
X12827206Y-11611531D01*
X12827206Y-11611531D02*
X12817682Y-11630579D01*
X12817682Y-11630579D02*
X12817682Y-11678198D01*
X12817682Y-11678198D02*
X12827206Y-11697246D01*
X12827206Y-11697246D02*
X12836729Y-11706769D01*
X12836729Y-11706769D02*
X12855777Y-11716293D01*
X12855777Y-11716293D02*
X12893872Y-11716293D01*
X12893872Y-11716293D02*
X12912920Y-11706769D01*
X12912920Y-11706769D02*
X12922444Y-11697246D01*
X12922444Y-11697246D02*
X12931967Y-11678198D01*
X13103396Y-11659150D02*
X13103396Y-11792484D01*
X13055777Y-11582960D02*
X13008158Y-11725817D01*
X13008158Y-11725817D02*
X13131967Y-11725817D01*
X13198634Y-11592484D02*
X13198634Y-11630579D01*
X13274825Y-11592484D02*
X13274825Y-11630579D01*
X13570063Y-11868674D02*
X13560539Y-11859150D01*
X13560539Y-11859150D02*
X13541491Y-11830579D01*
X13541491Y-11830579D02*
X13531968Y-11811531D01*
X13531968Y-11811531D02*
X13522444Y-11782960D01*
X13522444Y-11782960D02*
X13512920Y-11735341D01*
X13512920Y-11735341D02*
X13512920Y-11697246D01*
X13512920Y-11697246D02*
X13522444Y-11649627D01*
X13522444Y-11649627D02*
X13531968Y-11621055D01*
X13531968Y-11621055D02*
X13541491Y-11602008D01*
X13541491Y-11602008D02*
X13560539Y-11573436D01*
X13560539Y-11573436D02*
X13570063Y-11563912D01*
X13731968Y-11659150D02*
X13731968Y-11792484D01*
X13684348Y-11582960D02*
X13636729Y-11725817D01*
X13636729Y-11725817D02*
X13760539Y-11725817D01*
X13874825Y-11592484D02*
X13893872Y-11592484D01*
X13893872Y-11592484D02*
X13912920Y-11602008D01*
X13912920Y-11602008D02*
X13922444Y-11611531D01*
X13922444Y-11611531D02*
X13931968Y-11630579D01*
X13931968Y-11630579D02*
X13941491Y-11668674D01*
X13941491Y-11668674D02*
X13941491Y-11716293D01*
X13941491Y-11716293D02*
X13931968Y-11754388D01*
X13931968Y-11754388D02*
X13922444Y-11773436D01*
X13922444Y-11773436D02*
X13912920Y-11782960D01*
X13912920Y-11782960D02*
X13893872Y-11792484D01*
X13893872Y-11792484D02*
X13874825Y-11792484D01*
X13874825Y-11792484D02*
X13855777Y-11782960D01*
X13855777Y-11782960D02*
X13846253Y-11773436D01*
X13846253Y-11773436D02*
X13836729Y-11754388D01*
X13836729Y-11754388D02*
X13827206Y-11716293D01*
X13827206Y-11716293D02*
X13827206Y-11668674D01*
X13827206Y-11668674D02*
X13836729Y-11630579D01*
X13836729Y-11630579D02*
X13846253Y-11611531D01*
X13846253Y-11611531D02*
X13855777Y-11602008D01*
X13855777Y-11602008D02*
X13874825Y-11592484D01*
X14179587Y-11792484D02*
X14179587Y-11592484D01*
X14265301Y-11792484D02*
X14265301Y-11687722D01*
X14265301Y-11687722D02*
X14255777Y-11668674D01*
X14255777Y-11668674D02*
X14236730Y-11659150D01*
X14236730Y-11659150D02*
X14208158Y-11659150D01*
X14208158Y-11659150D02*
X14189110Y-11668674D01*
X14189110Y-11668674D02*
X14179587Y-11678198D01*
X14389110Y-11792484D02*
X14370063Y-11782960D01*
X14370063Y-11782960D02*
X14360539Y-11773436D01*
X14360539Y-11773436D02*
X14351015Y-11754388D01*
X14351015Y-11754388D02*
X14351015Y-11697246D01*
X14351015Y-11697246D02*
X14360539Y-11678198D01*
X14360539Y-11678198D02*
X14370063Y-11668674D01*
X14370063Y-11668674D02*
X14389110Y-11659150D01*
X14389110Y-11659150D02*
X14417682Y-11659150D01*
X14417682Y-11659150D02*
X14436730Y-11668674D01*
X14436730Y-11668674D02*
X14446253Y-11678198D01*
X14446253Y-11678198D02*
X14455777Y-11697246D01*
X14455777Y-11697246D02*
X14455777Y-11754388D01*
X14455777Y-11754388D02*
X14446253Y-11773436D01*
X14446253Y-11773436D02*
X14436730Y-11782960D01*
X14436730Y-11782960D02*
X14417682Y-11792484D01*
X14417682Y-11792484D02*
X14389110Y-11792484D01*
X14570063Y-11792484D02*
X14551015Y-11782960D01*
X14551015Y-11782960D02*
X14541491Y-11763912D01*
X14541491Y-11763912D02*
X14541491Y-11592484D01*
X14722444Y-11782960D02*
X14703396Y-11792484D01*
X14703396Y-11792484D02*
X14665301Y-11792484D01*
X14665301Y-11792484D02*
X14646253Y-11782960D01*
X14646253Y-11782960D02*
X14636730Y-11763912D01*
X14636730Y-11763912D02*
X14636730Y-11687722D01*
X14636730Y-11687722D02*
X14646253Y-11668674D01*
X14646253Y-11668674D02*
X14665301Y-11659150D01*
X14665301Y-11659150D02*
X14703396Y-11659150D01*
X14703396Y-11659150D02*
X14722444Y-11668674D01*
X14722444Y-11668674D02*
X14731968Y-11687722D01*
X14731968Y-11687722D02*
X14731968Y-11706769D01*
X14731968Y-11706769D02*
X14636730Y-11725817D01*
X14808158Y-11782960D02*
X14827206Y-11792484D01*
X14827206Y-11792484D02*
X14865301Y-11792484D01*
X14865301Y-11792484D02*
X14884349Y-11782960D01*
X14884349Y-11782960D02*
X14893872Y-11763912D01*
X14893872Y-11763912D02*
X14893872Y-11754388D01*
X14893872Y-11754388D02*
X14884349Y-11735341D01*
X14884349Y-11735341D02*
X14865301Y-11725817D01*
X14865301Y-11725817D02*
X14836730Y-11725817D01*
X14836730Y-11725817D02*
X14817682Y-11716293D01*
X14817682Y-11716293D02*
X14808158Y-11697246D01*
X14808158Y-11697246D02*
X14808158Y-11687722D01*
X14808158Y-11687722D02*
X14817682Y-11668674D01*
X14817682Y-11668674D02*
X14836730Y-11659150D01*
X14836730Y-11659150D02*
X14865301Y-11659150D01*
X14865301Y-11659150D02*
X14884349Y-11668674D01*
X14960539Y-11868674D02*
X14970063Y-11859150D01*
X14970063Y-11859150D02*
X14989111Y-11830579D01*
X14989111Y-11830579D02*
X14998634Y-11811531D01*
X14998634Y-11811531D02*
X15008158Y-11782960D01*
X15008158Y-11782960D02*
X15017682Y-11735341D01*
X15017682Y-11735341D02*
X15017682Y-11697246D01*
X15017682Y-11697246D02*
X15008158Y-11649627D01*
X15008158Y-11649627D02*
X14998634Y-11621055D01*
X14998634Y-11621055D02*
X14989111Y-11602008D01*
X14989111Y-11602008D02*
X14970063Y-11573436D01*
X14970063Y-11573436D02*
X14960539Y-11563912D01*
M02*
