G04 #@! TF.GenerationSoftware,KiCad,Pcbnew,9.0.5*
G04 #@! TF.CreationDate,2026-01-22T23:29:58-08:00*
G04 #@! TF.ProjectId,RPi-HwAB-1,5250692d-4877-4414-922d-312e6b696361,rev?*
G04 #@! TF.SameCoordinates,Original*
G04 #@! TF.FileFunction,Legend,Bot*
G04 #@! TF.FilePolarity,Positive*
%FSLAX46Y46*%
G04 Gerber Fmt 4.6, Leading zero omitted, Abs format (unit mm)*
G04 Created by KiCad (PCBNEW 9.0.5) date 2026-01-22 23:29:58*
%MOMM*%
%LPD*%
G01*
G04 APERTURE LIST*
G04 Aperture macros list*
%AMRoundRect*
0 Rectangle with rounded corners*
0 $1 Rounding radius*
0 $2 $3 $4 $5 $6 $7 $8 $9 X,Y pos of 4 corners*
0 Add a 4 corners polygon primitive as box body*
4,1,4,$2,$3,$4,$5,$6,$7,$8,$9,$2,$3,0*
0 Add four circle primitives for the rounded corners*
1,1,$1+$1,$2,$3*
1,1,$1+$1,$4,$5*
1,1,$1+$1,$6,$7*
1,1,$1+$1,$8,$9*
0 Add four rect primitives between the rounded corners*
20,1,$1+$1,$2,$3,$4,$5,0*
20,1,$1+$1,$4,$5,$6,$7,0*
20,1,$1+$1,$6,$7,$8,$9,0*
20,1,$1+$1,$8,$9,$2,$3,0*%
G04 Aperture macros list end*
%ADD10C,0.150000*%
%ADD11C,0.120000*%
%ADD12C,2.700000*%
%ADD13C,0.990600*%
%ADD14R,1.700000X1.700000*%
%ADD15O,1.700000X1.700000*%
%ADD16RoundRect,0.140000X-0.140000X-0.170000X0.140000X-0.170000X0.140000X0.170000X-0.140000X0.170000X0*%
%ADD17RoundRect,0.135000X0.135000X0.185000X-0.135000X0.185000X-0.135000X-0.185000X0.135000X-0.185000X0*%
%ADD18RoundRect,0.135000X-0.135000X-0.185000X0.135000X-0.185000X0.135000X0.185000X-0.135000X0.185000X0*%
%ADD19RoundRect,0.140000X0.140000X0.170000X-0.140000X0.170000X-0.140000X-0.170000X0.140000X-0.170000X0*%
%ADD20RoundRect,0.140000X-0.170000X0.140000X-0.170000X-0.140000X0.170000X-0.140000X0.170000X0.140000X0*%
%ADD21RoundRect,0.135000X-0.185000X0.135000X-0.185000X-0.135000X0.185000X-0.135000X0.185000X0.135000X0*%
%ADD22R,1.500000X1.000000*%
%ADD23RoundRect,0.140000X0.170000X-0.140000X0.170000X0.140000X-0.170000X0.140000X-0.170000X-0.140000X0*%
%ADD24RoundRect,0.062500X0.062500X-0.337500X0.062500X0.337500X-0.062500X0.337500X-0.062500X-0.337500X0*%
%ADD25R,1.400000X1.700000*%
%ADD26RoundRect,0.225000X0.225000X0.250000X-0.225000X0.250000X-0.225000X-0.250000X0.225000X-0.250000X0*%
G04 APERTURE END LIST*
D10*
X108703333Y-50724819D02*
X108703333Y-51439104D01*
X108703333Y-51439104D02*
X108750952Y-51581961D01*
X108750952Y-51581961D02*
X108846190Y-51677200D01*
X108846190Y-51677200D02*
X108989047Y-51724819D01*
X108989047Y-51724819D02*
X109084285Y-51724819D01*
X108274761Y-50820057D02*
X108227142Y-50772438D01*
X108227142Y-50772438D02*
X108131904Y-50724819D01*
X108131904Y-50724819D02*
X107893809Y-50724819D01*
X107893809Y-50724819D02*
X107798571Y-50772438D01*
X107798571Y-50772438D02*
X107750952Y-50820057D01*
X107750952Y-50820057D02*
X107703333Y-50915295D01*
X107703333Y-50915295D02*
X107703333Y-51010533D01*
X107703333Y-51010533D02*
X107750952Y-51153390D01*
X107750952Y-51153390D02*
X108322380Y-51724819D01*
X108322380Y-51724819D02*
X107703333Y-51724819D01*
X138642857Y-68019580D02*
X138690476Y-68067200D01*
X138690476Y-68067200D02*
X138833333Y-68114819D01*
X138833333Y-68114819D02*
X138928571Y-68114819D01*
X138928571Y-68114819D02*
X139071428Y-68067200D01*
X139071428Y-68067200D02*
X139166666Y-67971961D01*
X139166666Y-67971961D02*
X139214285Y-67876723D01*
X139214285Y-67876723D02*
X139261904Y-67686247D01*
X139261904Y-67686247D02*
X139261904Y-67543390D01*
X139261904Y-67543390D02*
X139214285Y-67352914D01*
X139214285Y-67352914D02*
X139166666Y-67257676D01*
X139166666Y-67257676D02*
X139071428Y-67162438D01*
X139071428Y-67162438D02*
X138928571Y-67114819D01*
X138928571Y-67114819D02*
X138833333Y-67114819D01*
X138833333Y-67114819D02*
X138690476Y-67162438D01*
X138690476Y-67162438D02*
X138642857Y-67210057D01*
X138261904Y-67210057D02*
X138214285Y-67162438D01*
X138214285Y-67162438D02*
X138119047Y-67114819D01*
X138119047Y-67114819D02*
X137880952Y-67114819D01*
X137880952Y-67114819D02*
X137785714Y-67162438D01*
X137785714Y-67162438D02*
X137738095Y-67210057D01*
X137738095Y-67210057D02*
X137690476Y-67305295D01*
X137690476Y-67305295D02*
X137690476Y-67400533D01*
X137690476Y-67400533D02*
X137738095Y-67543390D01*
X137738095Y-67543390D02*
X138309523Y-68114819D01*
X138309523Y-68114819D02*
X137690476Y-68114819D01*
X137071428Y-67114819D02*
X136976190Y-67114819D01*
X136976190Y-67114819D02*
X136880952Y-67162438D01*
X136880952Y-67162438D02*
X136833333Y-67210057D01*
X136833333Y-67210057D02*
X136785714Y-67305295D01*
X136785714Y-67305295D02*
X136738095Y-67495771D01*
X136738095Y-67495771D02*
X136738095Y-67733866D01*
X136738095Y-67733866D02*
X136785714Y-67924342D01*
X136785714Y-67924342D02*
X136833333Y-68019580D01*
X136833333Y-68019580D02*
X136880952Y-68067200D01*
X136880952Y-68067200D02*
X136976190Y-68114819D01*
X136976190Y-68114819D02*
X137071428Y-68114819D01*
X137071428Y-68114819D02*
X137166666Y-68067200D01*
X137166666Y-68067200D02*
X137214285Y-68019580D01*
X137214285Y-68019580D02*
X137261904Y-67924342D01*
X137261904Y-67924342D02*
X137309523Y-67733866D01*
X137309523Y-67733866D02*
X137309523Y-67495771D01*
X137309523Y-67495771D02*
X137261904Y-67305295D01*
X137261904Y-67305295D02*
X137214285Y-67210057D01*
X137214285Y-67210057D02*
X137166666Y-67162438D01*
X137166666Y-67162438D02*
X137071428Y-67114819D01*
X160142857Y-48284819D02*
X160476190Y-47808628D01*
X160714285Y-48284819D02*
X160714285Y-47284819D01*
X160714285Y-47284819D02*
X160333333Y-47284819D01*
X160333333Y-47284819D02*
X160238095Y-47332438D01*
X160238095Y-47332438D02*
X160190476Y-47380057D01*
X160190476Y-47380057D02*
X160142857Y-47475295D01*
X160142857Y-47475295D02*
X160142857Y-47618152D01*
X160142857Y-47618152D02*
X160190476Y-47713390D01*
X160190476Y-47713390D02*
X160238095Y-47761009D01*
X160238095Y-47761009D02*
X160333333Y-47808628D01*
X160333333Y-47808628D02*
X160714285Y-47808628D01*
X159761904Y-47380057D02*
X159714285Y-47332438D01*
X159714285Y-47332438D02*
X159619047Y-47284819D01*
X159619047Y-47284819D02*
X159380952Y-47284819D01*
X159380952Y-47284819D02*
X159285714Y-47332438D01*
X159285714Y-47332438D02*
X159238095Y-47380057D01*
X159238095Y-47380057D02*
X159190476Y-47475295D01*
X159190476Y-47475295D02*
X159190476Y-47570533D01*
X159190476Y-47570533D02*
X159238095Y-47713390D01*
X159238095Y-47713390D02*
X159809523Y-48284819D01*
X159809523Y-48284819D02*
X159190476Y-48284819D01*
X158285714Y-47284819D02*
X158761904Y-47284819D01*
X158761904Y-47284819D02*
X158809523Y-47761009D01*
X158809523Y-47761009D02*
X158761904Y-47713390D01*
X158761904Y-47713390D02*
X158666666Y-47665771D01*
X158666666Y-47665771D02*
X158428571Y-47665771D01*
X158428571Y-47665771D02*
X158333333Y-47713390D01*
X158333333Y-47713390D02*
X158285714Y-47761009D01*
X158285714Y-47761009D02*
X158238095Y-47856247D01*
X158238095Y-47856247D02*
X158238095Y-48094342D01*
X158238095Y-48094342D02*
X158285714Y-48189580D01*
X158285714Y-48189580D02*
X158333333Y-48237200D01*
X158333333Y-48237200D02*
X158428571Y-48284819D01*
X158428571Y-48284819D02*
X158666666Y-48284819D01*
X158666666Y-48284819D02*
X158761904Y-48237200D01*
X158761904Y-48237200D02*
X158809523Y-48189580D01*
X144142857Y-70769580D02*
X144190476Y-70817200D01*
X144190476Y-70817200D02*
X144333333Y-70864819D01*
X144333333Y-70864819D02*
X144428571Y-70864819D01*
X144428571Y-70864819D02*
X144571428Y-70817200D01*
X144571428Y-70817200D02*
X144666666Y-70721961D01*
X144666666Y-70721961D02*
X144714285Y-70626723D01*
X144714285Y-70626723D02*
X144761904Y-70436247D01*
X144761904Y-70436247D02*
X144761904Y-70293390D01*
X144761904Y-70293390D02*
X144714285Y-70102914D01*
X144714285Y-70102914D02*
X144666666Y-70007676D01*
X144666666Y-70007676D02*
X144571428Y-69912438D01*
X144571428Y-69912438D02*
X144428571Y-69864819D01*
X144428571Y-69864819D02*
X144333333Y-69864819D01*
X144333333Y-69864819D02*
X144190476Y-69912438D01*
X144190476Y-69912438D02*
X144142857Y-69960057D01*
X143285714Y-70198152D02*
X143285714Y-70864819D01*
X143523809Y-69817200D02*
X143761904Y-70531485D01*
X143761904Y-70531485D02*
X143142857Y-70531485D01*
X142857142Y-69864819D02*
X142190476Y-69864819D01*
X142190476Y-69864819D02*
X142619047Y-70864819D01*
X121392857Y-89874819D02*
X121726190Y-89398628D01*
X121964285Y-89874819D02*
X121964285Y-88874819D01*
X121964285Y-88874819D02*
X121583333Y-88874819D01*
X121583333Y-88874819D02*
X121488095Y-88922438D01*
X121488095Y-88922438D02*
X121440476Y-88970057D01*
X121440476Y-88970057D02*
X121392857Y-89065295D01*
X121392857Y-89065295D02*
X121392857Y-89208152D01*
X121392857Y-89208152D02*
X121440476Y-89303390D01*
X121440476Y-89303390D02*
X121488095Y-89351009D01*
X121488095Y-89351009D02*
X121583333Y-89398628D01*
X121583333Y-89398628D02*
X121964285Y-89398628D01*
X121011904Y-88970057D02*
X120964285Y-88922438D01*
X120964285Y-88922438D02*
X120869047Y-88874819D01*
X120869047Y-88874819D02*
X120630952Y-88874819D01*
X120630952Y-88874819D02*
X120535714Y-88922438D01*
X120535714Y-88922438D02*
X120488095Y-88970057D01*
X120488095Y-88970057D02*
X120440476Y-89065295D01*
X120440476Y-89065295D02*
X120440476Y-89160533D01*
X120440476Y-89160533D02*
X120488095Y-89303390D01*
X120488095Y-89303390D02*
X121059523Y-89874819D01*
X121059523Y-89874819D02*
X120440476Y-89874819D01*
X119583333Y-89208152D02*
X119583333Y-89874819D01*
X119821428Y-88827200D02*
X120059523Y-89541485D01*
X120059523Y-89541485D02*
X119440476Y-89541485D01*
X146142857Y-76269580D02*
X146190476Y-76317200D01*
X146190476Y-76317200D02*
X146333333Y-76364819D01*
X146333333Y-76364819D02*
X146428571Y-76364819D01*
X146428571Y-76364819D02*
X146571428Y-76317200D01*
X146571428Y-76317200D02*
X146666666Y-76221961D01*
X146666666Y-76221961D02*
X146714285Y-76126723D01*
X146714285Y-76126723D02*
X146761904Y-75936247D01*
X146761904Y-75936247D02*
X146761904Y-75793390D01*
X146761904Y-75793390D02*
X146714285Y-75602914D01*
X146714285Y-75602914D02*
X146666666Y-75507676D01*
X146666666Y-75507676D02*
X146571428Y-75412438D01*
X146571428Y-75412438D02*
X146428571Y-75364819D01*
X146428571Y-75364819D02*
X146333333Y-75364819D01*
X146333333Y-75364819D02*
X146190476Y-75412438D01*
X146190476Y-75412438D02*
X146142857Y-75460057D01*
X145285714Y-75698152D02*
X145285714Y-76364819D01*
X145523809Y-75317200D02*
X145761904Y-76031485D01*
X145761904Y-76031485D02*
X145142857Y-76031485D01*
X144333333Y-75698152D02*
X144333333Y-76364819D01*
X144571428Y-75317200D02*
X144809523Y-76031485D01*
X144809523Y-76031485D02*
X144190476Y-76031485D01*
X137142857Y-93449580D02*
X137190476Y-93497200D01*
X137190476Y-93497200D02*
X137333333Y-93544819D01*
X137333333Y-93544819D02*
X137428571Y-93544819D01*
X137428571Y-93544819D02*
X137571428Y-93497200D01*
X137571428Y-93497200D02*
X137666666Y-93401961D01*
X137666666Y-93401961D02*
X137714285Y-93306723D01*
X137714285Y-93306723D02*
X137761904Y-93116247D01*
X137761904Y-93116247D02*
X137761904Y-92973390D01*
X137761904Y-92973390D02*
X137714285Y-92782914D01*
X137714285Y-92782914D02*
X137666666Y-92687676D01*
X137666666Y-92687676D02*
X137571428Y-92592438D01*
X137571428Y-92592438D02*
X137428571Y-92544819D01*
X137428571Y-92544819D02*
X137333333Y-92544819D01*
X137333333Y-92544819D02*
X137190476Y-92592438D01*
X137190476Y-92592438D02*
X137142857Y-92640057D01*
X136809523Y-92544819D02*
X136142857Y-92544819D01*
X136142857Y-92544819D02*
X136571428Y-93544819D01*
X135809523Y-92640057D02*
X135761904Y-92592438D01*
X135761904Y-92592438D02*
X135666666Y-92544819D01*
X135666666Y-92544819D02*
X135428571Y-92544819D01*
X135428571Y-92544819D02*
X135333333Y-92592438D01*
X135333333Y-92592438D02*
X135285714Y-92640057D01*
X135285714Y-92640057D02*
X135238095Y-92735295D01*
X135238095Y-92735295D02*
X135238095Y-92830533D01*
X135238095Y-92830533D02*
X135285714Y-92973390D01*
X135285714Y-92973390D02*
X135857142Y-93544819D01*
X135857142Y-93544819D02*
X135238095Y-93544819D01*
X138416666Y-52874819D02*
X138749999Y-52398628D01*
X138988094Y-52874819D02*
X138988094Y-51874819D01*
X138988094Y-51874819D02*
X138607142Y-51874819D01*
X138607142Y-51874819D02*
X138511904Y-51922438D01*
X138511904Y-51922438D02*
X138464285Y-51970057D01*
X138464285Y-51970057D02*
X138416666Y-52065295D01*
X138416666Y-52065295D02*
X138416666Y-52208152D01*
X138416666Y-52208152D02*
X138464285Y-52303390D01*
X138464285Y-52303390D02*
X138511904Y-52351009D01*
X138511904Y-52351009D02*
X138607142Y-52398628D01*
X138607142Y-52398628D02*
X138988094Y-52398628D01*
X138035713Y-51970057D02*
X137988094Y-51922438D01*
X137988094Y-51922438D02*
X137892856Y-51874819D01*
X137892856Y-51874819D02*
X137654761Y-51874819D01*
X137654761Y-51874819D02*
X137559523Y-51922438D01*
X137559523Y-51922438D02*
X137511904Y-51970057D01*
X137511904Y-51970057D02*
X137464285Y-52065295D01*
X137464285Y-52065295D02*
X137464285Y-52160533D01*
X137464285Y-52160533D02*
X137511904Y-52303390D01*
X137511904Y-52303390D02*
X138083332Y-52874819D01*
X138083332Y-52874819D02*
X137464285Y-52874819D01*
X135142857Y-70269580D02*
X135190476Y-70317200D01*
X135190476Y-70317200D02*
X135333333Y-70364819D01*
X135333333Y-70364819D02*
X135428571Y-70364819D01*
X135428571Y-70364819D02*
X135571428Y-70317200D01*
X135571428Y-70317200D02*
X135666666Y-70221961D01*
X135666666Y-70221961D02*
X135714285Y-70126723D01*
X135714285Y-70126723D02*
X135761904Y-69936247D01*
X135761904Y-69936247D02*
X135761904Y-69793390D01*
X135761904Y-69793390D02*
X135714285Y-69602914D01*
X135714285Y-69602914D02*
X135666666Y-69507676D01*
X135666666Y-69507676D02*
X135571428Y-69412438D01*
X135571428Y-69412438D02*
X135428571Y-69364819D01*
X135428571Y-69364819D02*
X135333333Y-69364819D01*
X135333333Y-69364819D02*
X135190476Y-69412438D01*
X135190476Y-69412438D02*
X135142857Y-69460057D01*
X134285714Y-69698152D02*
X134285714Y-70364819D01*
X134523809Y-69317200D02*
X134761904Y-70031485D01*
X134761904Y-70031485D02*
X134142857Y-70031485D01*
X133333333Y-69364819D02*
X133523809Y-69364819D01*
X133523809Y-69364819D02*
X133619047Y-69412438D01*
X133619047Y-69412438D02*
X133666666Y-69460057D01*
X133666666Y-69460057D02*
X133761904Y-69602914D01*
X133761904Y-69602914D02*
X133809523Y-69793390D01*
X133809523Y-69793390D02*
X133809523Y-70174342D01*
X133809523Y-70174342D02*
X133761904Y-70269580D01*
X133761904Y-70269580D02*
X133714285Y-70317200D01*
X133714285Y-70317200D02*
X133619047Y-70364819D01*
X133619047Y-70364819D02*
X133428571Y-70364819D01*
X133428571Y-70364819D02*
X133333333Y-70317200D01*
X133333333Y-70317200D02*
X133285714Y-70269580D01*
X133285714Y-70269580D02*
X133238095Y-70174342D01*
X133238095Y-70174342D02*
X133238095Y-69936247D01*
X133238095Y-69936247D02*
X133285714Y-69841009D01*
X133285714Y-69841009D02*
X133333333Y-69793390D01*
X133333333Y-69793390D02*
X133428571Y-69745771D01*
X133428571Y-69745771D02*
X133619047Y-69745771D01*
X133619047Y-69745771D02*
X133714285Y-69793390D01*
X133714285Y-69793390D02*
X133761904Y-69841009D01*
X133761904Y-69841009D02*
X133809523Y-69936247D01*
X160142857Y-47284819D02*
X160476190Y-46808628D01*
X160714285Y-47284819D02*
X160714285Y-46284819D01*
X160714285Y-46284819D02*
X160333333Y-46284819D01*
X160333333Y-46284819D02*
X160238095Y-46332438D01*
X160238095Y-46332438D02*
X160190476Y-46380057D01*
X160190476Y-46380057D02*
X160142857Y-46475295D01*
X160142857Y-46475295D02*
X160142857Y-46618152D01*
X160142857Y-46618152D02*
X160190476Y-46713390D01*
X160190476Y-46713390D02*
X160238095Y-46761009D01*
X160238095Y-46761009D02*
X160333333Y-46808628D01*
X160333333Y-46808628D02*
X160714285Y-46808628D01*
X159761904Y-46380057D02*
X159714285Y-46332438D01*
X159714285Y-46332438D02*
X159619047Y-46284819D01*
X159619047Y-46284819D02*
X159380952Y-46284819D01*
X159380952Y-46284819D02*
X159285714Y-46332438D01*
X159285714Y-46332438D02*
X159238095Y-46380057D01*
X159238095Y-46380057D02*
X159190476Y-46475295D01*
X159190476Y-46475295D02*
X159190476Y-46570533D01*
X159190476Y-46570533D02*
X159238095Y-46713390D01*
X159238095Y-46713390D02*
X159809523Y-47284819D01*
X159809523Y-47284819D02*
X159190476Y-47284819D01*
X158333333Y-46284819D02*
X158523809Y-46284819D01*
X158523809Y-46284819D02*
X158619047Y-46332438D01*
X158619047Y-46332438D02*
X158666666Y-46380057D01*
X158666666Y-46380057D02*
X158761904Y-46522914D01*
X158761904Y-46522914D02*
X158809523Y-46713390D01*
X158809523Y-46713390D02*
X158809523Y-47094342D01*
X158809523Y-47094342D02*
X158761904Y-47189580D01*
X158761904Y-47189580D02*
X158714285Y-47237200D01*
X158714285Y-47237200D02*
X158619047Y-47284819D01*
X158619047Y-47284819D02*
X158428571Y-47284819D01*
X158428571Y-47284819D02*
X158333333Y-47237200D01*
X158333333Y-47237200D02*
X158285714Y-47189580D01*
X158285714Y-47189580D02*
X158238095Y-47094342D01*
X158238095Y-47094342D02*
X158238095Y-46856247D01*
X158238095Y-46856247D02*
X158285714Y-46761009D01*
X158285714Y-46761009D02*
X158333333Y-46713390D01*
X158333333Y-46713390D02*
X158428571Y-46665771D01*
X158428571Y-46665771D02*
X158619047Y-46665771D01*
X158619047Y-46665771D02*
X158714285Y-46713390D01*
X158714285Y-46713390D02*
X158761904Y-46761009D01*
X158761904Y-46761009D02*
X158809523Y-46856247D01*
X140142857Y-68449580D02*
X140190476Y-68497200D01*
X140190476Y-68497200D02*
X140333333Y-68544819D01*
X140333333Y-68544819D02*
X140428571Y-68544819D01*
X140428571Y-68544819D02*
X140571428Y-68497200D01*
X140571428Y-68497200D02*
X140666666Y-68401961D01*
X140666666Y-68401961D02*
X140714285Y-68306723D01*
X140714285Y-68306723D02*
X140761904Y-68116247D01*
X140761904Y-68116247D02*
X140761904Y-67973390D01*
X140761904Y-67973390D02*
X140714285Y-67782914D01*
X140714285Y-67782914D02*
X140666666Y-67687676D01*
X140666666Y-67687676D02*
X140571428Y-67592438D01*
X140571428Y-67592438D02*
X140428571Y-67544819D01*
X140428571Y-67544819D02*
X140333333Y-67544819D01*
X140333333Y-67544819D02*
X140190476Y-67592438D01*
X140190476Y-67592438D02*
X140142857Y-67640057D01*
X139238095Y-67544819D02*
X139714285Y-67544819D01*
X139714285Y-67544819D02*
X139761904Y-68021009D01*
X139761904Y-68021009D02*
X139714285Y-67973390D01*
X139714285Y-67973390D02*
X139619047Y-67925771D01*
X139619047Y-67925771D02*
X139380952Y-67925771D01*
X139380952Y-67925771D02*
X139285714Y-67973390D01*
X139285714Y-67973390D02*
X139238095Y-68021009D01*
X139238095Y-68021009D02*
X139190476Y-68116247D01*
X139190476Y-68116247D02*
X139190476Y-68354342D01*
X139190476Y-68354342D02*
X139238095Y-68449580D01*
X139238095Y-68449580D02*
X139285714Y-68497200D01*
X139285714Y-68497200D02*
X139380952Y-68544819D01*
X139380952Y-68544819D02*
X139619047Y-68544819D01*
X139619047Y-68544819D02*
X139714285Y-68497200D01*
X139714285Y-68497200D02*
X139761904Y-68449580D01*
X138285714Y-67544819D02*
X138761904Y-67544819D01*
X138761904Y-67544819D02*
X138809523Y-68021009D01*
X138809523Y-68021009D02*
X138761904Y-67973390D01*
X138761904Y-67973390D02*
X138666666Y-67925771D01*
X138666666Y-67925771D02*
X138428571Y-67925771D01*
X138428571Y-67925771D02*
X138333333Y-67973390D01*
X138333333Y-67973390D02*
X138285714Y-68021009D01*
X138285714Y-68021009D02*
X138238095Y-68116247D01*
X138238095Y-68116247D02*
X138238095Y-68354342D01*
X138238095Y-68354342D02*
X138285714Y-68449580D01*
X138285714Y-68449580D02*
X138333333Y-68497200D01*
X138333333Y-68497200D02*
X138428571Y-68544819D01*
X138428571Y-68544819D02*
X138666666Y-68544819D01*
X138666666Y-68544819D02*
X138761904Y-68497200D01*
X138761904Y-68497200D02*
X138809523Y-68449580D01*
X143242857Y-95284819D02*
X143576190Y-94808628D01*
X143814285Y-95284819D02*
X143814285Y-94284819D01*
X143814285Y-94284819D02*
X143433333Y-94284819D01*
X143433333Y-94284819D02*
X143338095Y-94332438D01*
X143338095Y-94332438D02*
X143290476Y-94380057D01*
X143290476Y-94380057D02*
X143242857Y-94475295D01*
X143242857Y-94475295D02*
X143242857Y-94618152D01*
X143242857Y-94618152D02*
X143290476Y-94713390D01*
X143290476Y-94713390D02*
X143338095Y-94761009D01*
X143338095Y-94761009D02*
X143433333Y-94808628D01*
X143433333Y-94808628D02*
X143814285Y-94808628D01*
X142909523Y-94284819D02*
X142290476Y-94284819D01*
X142290476Y-94284819D02*
X142623809Y-94665771D01*
X142623809Y-94665771D02*
X142480952Y-94665771D01*
X142480952Y-94665771D02*
X142385714Y-94713390D01*
X142385714Y-94713390D02*
X142338095Y-94761009D01*
X142338095Y-94761009D02*
X142290476Y-94856247D01*
X142290476Y-94856247D02*
X142290476Y-95094342D01*
X142290476Y-95094342D02*
X142338095Y-95189580D01*
X142338095Y-95189580D02*
X142385714Y-95237200D01*
X142385714Y-95237200D02*
X142480952Y-95284819D01*
X142480952Y-95284819D02*
X142766666Y-95284819D01*
X142766666Y-95284819D02*
X142861904Y-95237200D01*
X142861904Y-95237200D02*
X142909523Y-95189580D01*
X141909523Y-94380057D02*
X141861904Y-94332438D01*
X141861904Y-94332438D02*
X141766666Y-94284819D01*
X141766666Y-94284819D02*
X141528571Y-94284819D01*
X141528571Y-94284819D02*
X141433333Y-94332438D01*
X141433333Y-94332438D02*
X141385714Y-94380057D01*
X141385714Y-94380057D02*
X141338095Y-94475295D01*
X141338095Y-94475295D02*
X141338095Y-94570533D01*
X141338095Y-94570533D02*
X141385714Y-94713390D01*
X141385714Y-94713390D02*
X141957142Y-95284819D01*
X141957142Y-95284819D02*
X141338095Y-95284819D01*
X142199580Y-70857142D02*
X142247200Y-70809523D01*
X142247200Y-70809523D02*
X142294819Y-70666666D01*
X142294819Y-70666666D02*
X142294819Y-70571428D01*
X142294819Y-70571428D02*
X142247200Y-70428571D01*
X142247200Y-70428571D02*
X142151961Y-70333333D01*
X142151961Y-70333333D02*
X142056723Y-70285714D01*
X142056723Y-70285714D02*
X141866247Y-70238095D01*
X141866247Y-70238095D02*
X141723390Y-70238095D01*
X141723390Y-70238095D02*
X141532914Y-70285714D01*
X141532914Y-70285714D02*
X141437676Y-70333333D01*
X141437676Y-70333333D02*
X141342438Y-70428571D01*
X141342438Y-70428571D02*
X141294819Y-70571428D01*
X141294819Y-70571428D02*
X141294819Y-70666666D01*
X141294819Y-70666666D02*
X141342438Y-70809523D01*
X141342438Y-70809523D02*
X141390057Y-70857142D01*
X141628152Y-71714285D02*
X142294819Y-71714285D01*
X141247200Y-71476190D02*
X141961485Y-71238095D01*
X141961485Y-71238095D02*
X141961485Y-71857142D01*
X141294819Y-72714285D02*
X141294819Y-72238095D01*
X141294819Y-72238095D02*
X141771009Y-72190476D01*
X141771009Y-72190476D02*
X141723390Y-72238095D01*
X141723390Y-72238095D02*
X141675771Y-72333333D01*
X141675771Y-72333333D02*
X141675771Y-72571428D01*
X141675771Y-72571428D02*
X141723390Y-72666666D01*
X141723390Y-72666666D02*
X141771009Y-72714285D01*
X141771009Y-72714285D02*
X141866247Y-72761904D01*
X141866247Y-72761904D02*
X142104342Y-72761904D01*
X142104342Y-72761904D02*
X142199580Y-72714285D01*
X142199580Y-72714285D02*
X142247200Y-72666666D01*
X142247200Y-72666666D02*
X142294819Y-72571428D01*
X142294819Y-72571428D02*
X142294819Y-72333333D01*
X142294819Y-72333333D02*
X142247200Y-72238095D01*
X142247200Y-72238095D02*
X142199580Y-72190476D01*
X139892857Y-74199580D02*
X139940476Y-74247200D01*
X139940476Y-74247200D02*
X140083333Y-74294819D01*
X140083333Y-74294819D02*
X140178571Y-74294819D01*
X140178571Y-74294819D02*
X140321428Y-74247200D01*
X140321428Y-74247200D02*
X140416666Y-74151961D01*
X140416666Y-74151961D02*
X140464285Y-74056723D01*
X140464285Y-74056723D02*
X140511904Y-73866247D01*
X140511904Y-73866247D02*
X140511904Y-73723390D01*
X140511904Y-73723390D02*
X140464285Y-73532914D01*
X140464285Y-73532914D02*
X140416666Y-73437676D01*
X140416666Y-73437676D02*
X140321428Y-73342438D01*
X140321428Y-73342438D02*
X140178571Y-73294819D01*
X140178571Y-73294819D02*
X140083333Y-73294819D01*
X140083333Y-73294819D02*
X139940476Y-73342438D01*
X139940476Y-73342438D02*
X139892857Y-73390057D01*
X139559523Y-73294819D02*
X138940476Y-73294819D01*
X138940476Y-73294819D02*
X139273809Y-73675771D01*
X139273809Y-73675771D02*
X139130952Y-73675771D01*
X139130952Y-73675771D02*
X139035714Y-73723390D01*
X139035714Y-73723390D02*
X138988095Y-73771009D01*
X138988095Y-73771009D02*
X138940476Y-73866247D01*
X138940476Y-73866247D02*
X138940476Y-74104342D01*
X138940476Y-74104342D02*
X138988095Y-74199580D01*
X138988095Y-74199580D02*
X139035714Y-74247200D01*
X139035714Y-74247200D02*
X139130952Y-74294819D01*
X139130952Y-74294819D02*
X139416666Y-74294819D01*
X139416666Y-74294819D02*
X139511904Y-74247200D01*
X139511904Y-74247200D02*
X139559523Y-74199580D01*
X137988095Y-74294819D02*
X138559523Y-74294819D01*
X138273809Y-74294819D02*
X138273809Y-73294819D01*
X138273809Y-73294819D02*
X138369047Y-73437676D01*
X138369047Y-73437676D02*
X138464285Y-73532914D01*
X138464285Y-73532914D02*
X138559523Y-73580533D01*
X139642857Y-63699580D02*
X139690476Y-63747200D01*
X139690476Y-63747200D02*
X139833333Y-63794819D01*
X139833333Y-63794819D02*
X139928571Y-63794819D01*
X139928571Y-63794819D02*
X140071428Y-63747200D01*
X140071428Y-63747200D02*
X140166666Y-63651961D01*
X140166666Y-63651961D02*
X140214285Y-63556723D01*
X140214285Y-63556723D02*
X140261904Y-63366247D01*
X140261904Y-63366247D02*
X140261904Y-63223390D01*
X140261904Y-63223390D02*
X140214285Y-63032914D01*
X140214285Y-63032914D02*
X140166666Y-62937676D01*
X140166666Y-62937676D02*
X140071428Y-62842438D01*
X140071428Y-62842438D02*
X139928571Y-62794819D01*
X139928571Y-62794819D02*
X139833333Y-62794819D01*
X139833333Y-62794819D02*
X139690476Y-62842438D01*
X139690476Y-62842438D02*
X139642857Y-62890057D01*
X139261904Y-62890057D02*
X139214285Y-62842438D01*
X139214285Y-62842438D02*
X139119047Y-62794819D01*
X139119047Y-62794819D02*
X138880952Y-62794819D01*
X138880952Y-62794819D02*
X138785714Y-62842438D01*
X138785714Y-62842438D02*
X138738095Y-62890057D01*
X138738095Y-62890057D02*
X138690476Y-62985295D01*
X138690476Y-62985295D02*
X138690476Y-63080533D01*
X138690476Y-63080533D02*
X138738095Y-63223390D01*
X138738095Y-63223390D02*
X139309523Y-63794819D01*
X139309523Y-63794819D02*
X138690476Y-63794819D01*
X137833333Y-63128152D02*
X137833333Y-63794819D01*
X138071428Y-62747200D02*
X138309523Y-63461485D01*
X138309523Y-63461485D02*
X137690476Y-63461485D01*
X138416666Y-53874819D02*
X138749999Y-53398628D01*
X138988094Y-53874819D02*
X138988094Y-52874819D01*
X138988094Y-52874819D02*
X138607142Y-52874819D01*
X138607142Y-52874819D02*
X138511904Y-52922438D01*
X138511904Y-52922438D02*
X138464285Y-52970057D01*
X138464285Y-52970057D02*
X138416666Y-53065295D01*
X138416666Y-53065295D02*
X138416666Y-53208152D01*
X138416666Y-53208152D02*
X138464285Y-53303390D01*
X138464285Y-53303390D02*
X138511904Y-53351009D01*
X138511904Y-53351009D02*
X138607142Y-53398628D01*
X138607142Y-53398628D02*
X138988094Y-53398628D01*
X137464285Y-53874819D02*
X138035713Y-53874819D01*
X137749999Y-53874819D02*
X137749999Y-52874819D01*
X137749999Y-52874819D02*
X137845237Y-53017676D01*
X137845237Y-53017676D02*
X137940475Y-53112914D01*
X137940475Y-53112914D02*
X138035713Y-53160533D01*
X143384819Y-94857142D02*
X142908628Y-94523809D01*
X143384819Y-94285714D02*
X142384819Y-94285714D01*
X142384819Y-94285714D02*
X142384819Y-94666666D01*
X142384819Y-94666666D02*
X142432438Y-94761904D01*
X142432438Y-94761904D02*
X142480057Y-94809523D01*
X142480057Y-94809523D02*
X142575295Y-94857142D01*
X142575295Y-94857142D02*
X142718152Y-94857142D01*
X142718152Y-94857142D02*
X142813390Y-94809523D01*
X142813390Y-94809523D02*
X142861009Y-94761904D01*
X142861009Y-94761904D02*
X142908628Y-94666666D01*
X142908628Y-94666666D02*
X142908628Y-94285714D01*
X142384819Y-95190476D02*
X142384819Y-95809523D01*
X142384819Y-95809523D02*
X142765771Y-95476190D01*
X142765771Y-95476190D02*
X142765771Y-95619047D01*
X142765771Y-95619047D02*
X142813390Y-95714285D01*
X142813390Y-95714285D02*
X142861009Y-95761904D01*
X142861009Y-95761904D02*
X142956247Y-95809523D01*
X142956247Y-95809523D02*
X143194342Y-95809523D01*
X143194342Y-95809523D02*
X143289580Y-95761904D01*
X143289580Y-95761904D02*
X143337200Y-95714285D01*
X143337200Y-95714285D02*
X143384819Y-95619047D01*
X143384819Y-95619047D02*
X143384819Y-95333333D01*
X143384819Y-95333333D02*
X143337200Y-95238095D01*
X143337200Y-95238095D02*
X143289580Y-95190476D01*
X143384819Y-96761904D02*
X143384819Y-96190476D01*
X143384819Y-96476190D02*
X142384819Y-96476190D01*
X142384819Y-96476190D02*
X142527676Y-96380952D01*
X142527676Y-96380952D02*
X142622914Y-96285714D01*
X142622914Y-96285714D02*
X142670533Y-96190476D01*
X144642857Y-65699580D02*
X144690476Y-65747200D01*
X144690476Y-65747200D02*
X144833333Y-65794819D01*
X144833333Y-65794819D02*
X144928571Y-65794819D01*
X144928571Y-65794819D02*
X145071428Y-65747200D01*
X145071428Y-65747200D02*
X145166666Y-65651961D01*
X145166666Y-65651961D02*
X145214285Y-65556723D01*
X145214285Y-65556723D02*
X145261904Y-65366247D01*
X145261904Y-65366247D02*
X145261904Y-65223390D01*
X145261904Y-65223390D02*
X145214285Y-65032914D01*
X145214285Y-65032914D02*
X145166666Y-64937676D01*
X145166666Y-64937676D02*
X145071428Y-64842438D01*
X145071428Y-64842438D02*
X144928571Y-64794819D01*
X144928571Y-64794819D02*
X144833333Y-64794819D01*
X144833333Y-64794819D02*
X144690476Y-64842438D01*
X144690476Y-64842438D02*
X144642857Y-64890057D01*
X143690476Y-65794819D02*
X144261904Y-65794819D01*
X143976190Y-65794819D02*
X143976190Y-64794819D01*
X143976190Y-64794819D02*
X144071428Y-64937676D01*
X144071428Y-64937676D02*
X144166666Y-65032914D01*
X144166666Y-65032914D02*
X144261904Y-65080533D01*
X143119047Y-65223390D02*
X143214285Y-65175771D01*
X143214285Y-65175771D02*
X143261904Y-65128152D01*
X143261904Y-65128152D02*
X143309523Y-65032914D01*
X143309523Y-65032914D02*
X143309523Y-64985295D01*
X143309523Y-64985295D02*
X143261904Y-64890057D01*
X143261904Y-64890057D02*
X143214285Y-64842438D01*
X143214285Y-64842438D02*
X143119047Y-64794819D01*
X143119047Y-64794819D02*
X142928571Y-64794819D01*
X142928571Y-64794819D02*
X142833333Y-64842438D01*
X142833333Y-64842438D02*
X142785714Y-64890057D01*
X142785714Y-64890057D02*
X142738095Y-64985295D01*
X142738095Y-64985295D02*
X142738095Y-65032914D01*
X142738095Y-65032914D02*
X142785714Y-65128152D01*
X142785714Y-65128152D02*
X142833333Y-65175771D01*
X142833333Y-65175771D02*
X142928571Y-65223390D01*
X142928571Y-65223390D02*
X143119047Y-65223390D01*
X143119047Y-65223390D02*
X143214285Y-65271009D01*
X143214285Y-65271009D02*
X143261904Y-65318628D01*
X143261904Y-65318628D02*
X143309523Y-65413866D01*
X143309523Y-65413866D02*
X143309523Y-65604342D01*
X143309523Y-65604342D02*
X143261904Y-65699580D01*
X143261904Y-65699580D02*
X143214285Y-65747200D01*
X143214285Y-65747200D02*
X143119047Y-65794819D01*
X143119047Y-65794819D02*
X142928571Y-65794819D01*
X142928571Y-65794819D02*
X142833333Y-65747200D01*
X142833333Y-65747200D02*
X142785714Y-65699580D01*
X142785714Y-65699580D02*
X142738095Y-65604342D01*
X142738095Y-65604342D02*
X142738095Y-65413866D01*
X142738095Y-65413866D02*
X142785714Y-65318628D01*
X142785714Y-65318628D02*
X142833333Y-65271009D01*
X142833333Y-65271009D02*
X142928571Y-65223390D01*
X160142857Y-46284819D02*
X160476190Y-45808628D01*
X160714285Y-46284819D02*
X160714285Y-45284819D01*
X160714285Y-45284819D02*
X160333333Y-45284819D01*
X160333333Y-45284819D02*
X160238095Y-45332438D01*
X160238095Y-45332438D02*
X160190476Y-45380057D01*
X160190476Y-45380057D02*
X160142857Y-45475295D01*
X160142857Y-45475295D02*
X160142857Y-45618152D01*
X160142857Y-45618152D02*
X160190476Y-45713390D01*
X160190476Y-45713390D02*
X160238095Y-45761009D01*
X160238095Y-45761009D02*
X160333333Y-45808628D01*
X160333333Y-45808628D02*
X160714285Y-45808628D01*
X159761904Y-45380057D02*
X159714285Y-45332438D01*
X159714285Y-45332438D02*
X159619047Y-45284819D01*
X159619047Y-45284819D02*
X159380952Y-45284819D01*
X159380952Y-45284819D02*
X159285714Y-45332438D01*
X159285714Y-45332438D02*
X159238095Y-45380057D01*
X159238095Y-45380057D02*
X159190476Y-45475295D01*
X159190476Y-45475295D02*
X159190476Y-45570533D01*
X159190476Y-45570533D02*
X159238095Y-45713390D01*
X159238095Y-45713390D02*
X159809523Y-46284819D01*
X159809523Y-46284819D02*
X159190476Y-46284819D01*
X158857142Y-45284819D02*
X158190476Y-45284819D01*
X158190476Y-45284819D02*
X158619047Y-46284819D01*
X134142857Y-71449580D02*
X134190476Y-71497200D01*
X134190476Y-71497200D02*
X134333333Y-71544819D01*
X134333333Y-71544819D02*
X134428571Y-71544819D01*
X134428571Y-71544819D02*
X134571428Y-71497200D01*
X134571428Y-71497200D02*
X134666666Y-71401961D01*
X134666666Y-71401961D02*
X134714285Y-71306723D01*
X134714285Y-71306723D02*
X134761904Y-71116247D01*
X134761904Y-71116247D02*
X134761904Y-70973390D01*
X134761904Y-70973390D02*
X134714285Y-70782914D01*
X134714285Y-70782914D02*
X134666666Y-70687676D01*
X134666666Y-70687676D02*
X134571428Y-70592438D01*
X134571428Y-70592438D02*
X134428571Y-70544819D01*
X134428571Y-70544819D02*
X134333333Y-70544819D01*
X134333333Y-70544819D02*
X134190476Y-70592438D01*
X134190476Y-70592438D02*
X134142857Y-70640057D01*
X133285714Y-70878152D02*
X133285714Y-71544819D01*
X133523809Y-70497200D02*
X133761904Y-71211485D01*
X133761904Y-71211485D02*
X133142857Y-71211485D01*
X132809523Y-70640057D02*
X132761904Y-70592438D01*
X132761904Y-70592438D02*
X132666666Y-70544819D01*
X132666666Y-70544819D02*
X132428571Y-70544819D01*
X132428571Y-70544819D02*
X132333333Y-70592438D01*
X132333333Y-70592438D02*
X132285714Y-70640057D01*
X132285714Y-70640057D02*
X132238095Y-70735295D01*
X132238095Y-70735295D02*
X132238095Y-70830533D01*
X132238095Y-70830533D02*
X132285714Y-70973390D01*
X132285714Y-70973390D02*
X132857142Y-71544819D01*
X132857142Y-71544819D02*
X132238095Y-71544819D01*
X139642857Y-61019580D02*
X139690476Y-61067200D01*
X139690476Y-61067200D02*
X139833333Y-61114819D01*
X139833333Y-61114819D02*
X139928571Y-61114819D01*
X139928571Y-61114819D02*
X140071428Y-61067200D01*
X140071428Y-61067200D02*
X140166666Y-60971961D01*
X140166666Y-60971961D02*
X140214285Y-60876723D01*
X140214285Y-60876723D02*
X140261904Y-60686247D01*
X140261904Y-60686247D02*
X140261904Y-60543390D01*
X140261904Y-60543390D02*
X140214285Y-60352914D01*
X140214285Y-60352914D02*
X140166666Y-60257676D01*
X140166666Y-60257676D02*
X140071428Y-60162438D01*
X140071428Y-60162438D02*
X139928571Y-60114819D01*
X139928571Y-60114819D02*
X139833333Y-60114819D01*
X139833333Y-60114819D02*
X139690476Y-60162438D01*
X139690476Y-60162438D02*
X139642857Y-60210057D01*
X139261904Y-60210057D02*
X139214285Y-60162438D01*
X139214285Y-60162438D02*
X139119047Y-60114819D01*
X139119047Y-60114819D02*
X138880952Y-60114819D01*
X138880952Y-60114819D02*
X138785714Y-60162438D01*
X138785714Y-60162438D02*
X138738095Y-60210057D01*
X138738095Y-60210057D02*
X138690476Y-60305295D01*
X138690476Y-60305295D02*
X138690476Y-60400533D01*
X138690476Y-60400533D02*
X138738095Y-60543390D01*
X138738095Y-60543390D02*
X139309523Y-61114819D01*
X139309523Y-61114819D02*
X138690476Y-61114819D01*
X137738095Y-61114819D02*
X138309523Y-61114819D01*
X138023809Y-61114819D02*
X138023809Y-60114819D01*
X138023809Y-60114819D02*
X138119047Y-60257676D01*
X138119047Y-60257676D02*
X138214285Y-60352914D01*
X138214285Y-60352914D02*
X138309523Y-60400533D01*
X140642857Y-64019580D02*
X140690476Y-64067200D01*
X140690476Y-64067200D02*
X140833333Y-64114819D01*
X140833333Y-64114819D02*
X140928571Y-64114819D01*
X140928571Y-64114819D02*
X141071428Y-64067200D01*
X141071428Y-64067200D02*
X141166666Y-63971961D01*
X141166666Y-63971961D02*
X141214285Y-63876723D01*
X141214285Y-63876723D02*
X141261904Y-63686247D01*
X141261904Y-63686247D02*
X141261904Y-63543390D01*
X141261904Y-63543390D02*
X141214285Y-63352914D01*
X141214285Y-63352914D02*
X141166666Y-63257676D01*
X141166666Y-63257676D02*
X141071428Y-63162438D01*
X141071428Y-63162438D02*
X140928571Y-63114819D01*
X140928571Y-63114819D02*
X140833333Y-63114819D01*
X140833333Y-63114819D02*
X140690476Y-63162438D01*
X140690476Y-63162438D02*
X140642857Y-63210057D01*
X140261904Y-63210057D02*
X140214285Y-63162438D01*
X140214285Y-63162438D02*
X140119047Y-63114819D01*
X140119047Y-63114819D02*
X139880952Y-63114819D01*
X139880952Y-63114819D02*
X139785714Y-63162438D01*
X139785714Y-63162438D02*
X139738095Y-63210057D01*
X139738095Y-63210057D02*
X139690476Y-63305295D01*
X139690476Y-63305295D02*
X139690476Y-63400533D01*
X139690476Y-63400533D02*
X139738095Y-63543390D01*
X139738095Y-63543390D02*
X140309523Y-64114819D01*
X140309523Y-64114819D02*
X139690476Y-64114819D01*
X139357142Y-63114819D02*
X138690476Y-63114819D01*
X138690476Y-63114819D02*
X139119047Y-64114819D01*
X141449580Y-52833333D02*
X141497200Y-52785714D01*
X141497200Y-52785714D02*
X141544819Y-52642857D01*
X141544819Y-52642857D02*
X141544819Y-52547619D01*
X141544819Y-52547619D02*
X141497200Y-52404762D01*
X141497200Y-52404762D02*
X141401961Y-52309524D01*
X141401961Y-52309524D02*
X141306723Y-52261905D01*
X141306723Y-52261905D02*
X141116247Y-52214286D01*
X141116247Y-52214286D02*
X140973390Y-52214286D01*
X140973390Y-52214286D02*
X140782914Y-52261905D01*
X140782914Y-52261905D02*
X140687676Y-52309524D01*
X140687676Y-52309524D02*
X140592438Y-52404762D01*
X140592438Y-52404762D02*
X140544819Y-52547619D01*
X140544819Y-52547619D02*
X140544819Y-52642857D01*
X140544819Y-52642857D02*
X140592438Y-52785714D01*
X140592438Y-52785714D02*
X140640057Y-52833333D01*
X141544819Y-53785714D02*
X141544819Y-53214286D01*
X141544819Y-53500000D02*
X140544819Y-53500000D01*
X140544819Y-53500000D02*
X140687676Y-53404762D01*
X140687676Y-53404762D02*
X140782914Y-53309524D01*
X140782914Y-53309524D02*
X140830533Y-53214286D01*
X143392857Y-90034819D02*
X143726190Y-89558628D01*
X143964285Y-90034819D02*
X143964285Y-89034819D01*
X143964285Y-89034819D02*
X143583333Y-89034819D01*
X143583333Y-89034819D02*
X143488095Y-89082438D01*
X143488095Y-89082438D02*
X143440476Y-89130057D01*
X143440476Y-89130057D02*
X143392857Y-89225295D01*
X143392857Y-89225295D02*
X143392857Y-89368152D01*
X143392857Y-89368152D02*
X143440476Y-89463390D01*
X143440476Y-89463390D02*
X143488095Y-89511009D01*
X143488095Y-89511009D02*
X143583333Y-89558628D01*
X143583333Y-89558628D02*
X143964285Y-89558628D01*
X143011904Y-89130057D02*
X142964285Y-89082438D01*
X142964285Y-89082438D02*
X142869047Y-89034819D01*
X142869047Y-89034819D02*
X142630952Y-89034819D01*
X142630952Y-89034819D02*
X142535714Y-89082438D01*
X142535714Y-89082438D02*
X142488095Y-89130057D01*
X142488095Y-89130057D02*
X142440476Y-89225295D01*
X142440476Y-89225295D02*
X142440476Y-89320533D01*
X142440476Y-89320533D02*
X142488095Y-89463390D01*
X142488095Y-89463390D02*
X143059523Y-90034819D01*
X143059523Y-90034819D02*
X142440476Y-90034819D01*
X141821428Y-89034819D02*
X141726190Y-89034819D01*
X141726190Y-89034819D02*
X141630952Y-89082438D01*
X141630952Y-89082438D02*
X141583333Y-89130057D01*
X141583333Y-89130057D02*
X141535714Y-89225295D01*
X141535714Y-89225295D02*
X141488095Y-89415771D01*
X141488095Y-89415771D02*
X141488095Y-89653866D01*
X141488095Y-89653866D02*
X141535714Y-89844342D01*
X141535714Y-89844342D02*
X141583333Y-89939580D01*
X141583333Y-89939580D02*
X141630952Y-89987200D01*
X141630952Y-89987200D02*
X141726190Y-90034819D01*
X141726190Y-90034819D02*
X141821428Y-90034819D01*
X141821428Y-90034819D02*
X141916666Y-89987200D01*
X141916666Y-89987200D02*
X141964285Y-89939580D01*
X141964285Y-89939580D02*
X142011904Y-89844342D01*
X142011904Y-89844342D02*
X142059523Y-89653866D01*
X142059523Y-89653866D02*
X142059523Y-89415771D01*
X142059523Y-89415771D02*
X142011904Y-89225295D01*
X142011904Y-89225295D02*
X141964285Y-89130057D01*
X141964285Y-89130057D02*
X141916666Y-89082438D01*
X141916666Y-89082438D02*
X141821428Y-89034819D01*
X138142857Y-70269580D02*
X138190476Y-70317200D01*
X138190476Y-70317200D02*
X138333333Y-70364819D01*
X138333333Y-70364819D02*
X138428571Y-70364819D01*
X138428571Y-70364819D02*
X138571428Y-70317200D01*
X138571428Y-70317200D02*
X138666666Y-70221961D01*
X138666666Y-70221961D02*
X138714285Y-70126723D01*
X138714285Y-70126723D02*
X138761904Y-69936247D01*
X138761904Y-69936247D02*
X138761904Y-69793390D01*
X138761904Y-69793390D02*
X138714285Y-69602914D01*
X138714285Y-69602914D02*
X138666666Y-69507676D01*
X138666666Y-69507676D02*
X138571428Y-69412438D01*
X138571428Y-69412438D02*
X138428571Y-69364819D01*
X138428571Y-69364819D02*
X138333333Y-69364819D01*
X138333333Y-69364819D02*
X138190476Y-69412438D01*
X138190476Y-69412438D02*
X138142857Y-69460057D01*
X137285714Y-69364819D02*
X137476190Y-69364819D01*
X137476190Y-69364819D02*
X137571428Y-69412438D01*
X137571428Y-69412438D02*
X137619047Y-69460057D01*
X137619047Y-69460057D02*
X137714285Y-69602914D01*
X137714285Y-69602914D02*
X137761904Y-69793390D01*
X137761904Y-69793390D02*
X137761904Y-70174342D01*
X137761904Y-70174342D02*
X137714285Y-70269580D01*
X137714285Y-70269580D02*
X137666666Y-70317200D01*
X137666666Y-70317200D02*
X137571428Y-70364819D01*
X137571428Y-70364819D02*
X137380952Y-70364819D01*
X137380952Y-70364819D02*
X137285714Y-70317200D01*
X137285714Y-70317200D02*
X137238095Y-70269580D01*
X137238095Y-70269580D02*
X137190476Y-70174342D01*
X137190476Y-70174342D02*
X137190476Y-69936247D01*
X137190476Y-69936247D02*
X137238095Y-69841009D01*
X137238095Y-69841009D02*
X137285714Y-69793390D01*
X137285714Y-69793390D02*
X137380952Y-69745771D01*
X137380952Y-69745771D02*
X137571428Y-69745771D01*
X137571428Y-69745771D02*
X137666666Y-69793390D01*
X137666666Y-69793390D02*
X137714285Y-69841009D01*
X137714285Y-69841009D02*
X137761904Y-69936247D01*
X136285714Y-69364819D02*
X136761904Y-69364819D01*
X136761904Y-69364819D02*
X136809523Y-69841009D01*
X136809523Y-69841009D02*
X136761904Y-69793390D01*
X136761904Y-69793390D02*
X136666666Y-69745771D01*
X136666666Y-69745771D02*
X136428571Y-69745771D01*
X136428571Y-69745771D02*
X136333333Y-69793390D01*
X136333333Y-69793390D02*
X136285714Y-69841009D01*
X136285714Y-69841009D02*
X136238095Y-69936247D01*
X136238095Y-69936247D02*
X136238095Y-70174342D01*
X136238095Y-70174342D02*
X136285714Y-70269580D01*
X136285714Y-70269580D02*
X136333333Y-70317200D01*
X136333333Y-70317200D02*
X136428571Y-70364819D01*
X136428571Y-70364819D02*
X136666666Y-70364819D01*
X136666666Y-70364819D02*
X136761904Y-70317200D01*
X136761904Y-70317200D02*
X136809523Y-70269580D01*
X136142857Y-72769580D02*
X136190476Y-72817200D01*
X136190476Y-72817200D02*
X136333333Y-72864819D01*
X136333333Y-72864819D02*
X136428571Y-72864819D01*
X136428571Y-72864819D02*
X136571428Y-72817200D01*
X136571428Y-72817200D02*
X136666666Y-72721961D01*
X136666666Y-72721961D02*
X136714285Y-72626723D01*
X136714285Y-72626723D02*
X136761904Y-72436247D01*
X136761904Y-72436247D02*
X136761904Y-72293390D01*
X136761904Y-72293390D02*
X136714285Y-72102914D01*
X136714285Y-72102914D02*
X136666666Y-72007676D01*
X136666666Y-72007676D02*
X136571428Y-71912438D01*
X136571428Y-71912438D02*
X136428571Y-71864819D01*
X136428571Y-71864819D02*
X136333333Y-71864819D01*
X136333333Y-71864819D02*
X136190476Y-71912438D01*
X136190476Y-71912438D02*
X136142857Y-71960057D01*
X135809523Y-71864819D02*
X135190476Y-71864819D01*
X135190476Y-71864819D02*
X135523809Y-72245771D01*
X135523809Y-72245771D02*
X135380952Y-72245771D01*
X135380952Y-72245771D02*
X135285714Y-72293390D01*
X135285714Y-72293390D02*
X135238095Y-72341009D01*
X135238095Y-72341009D02*
X135190476Y-72436247D01*
X135190476Y-72436247D02*
X135190476Y-72674342D01*
X135190476Y-72674342D02*
X135238095Y-72769580D01*
X135238095Y-72769580D02*
X135285714Y-72817200D01*
X135285714Y-72817200D02*
X135380952Y-72864819D01*
X135380952Y-72864819D02*
X135666666Y-72864819D01*
X135666666Y-72864819D02*
X135761904Y-72817200D01*
X135761904Y-72817200D02*
X135809523Y-72769580D01*
X134619047Y-72293390D02*
X134714285Y-72245771D01*
X134714285Y-72245771D02*
X134761904Y-72198152D01*
X134761904Y-72198152D02*
X134809523Y-72102914D01*
X134809523Y-72102914D02*
X134809523Y-72055295D01*
X134809523Y-72055295D02*
X134761904Y-71960057D01*
X134761904Y-71960057D02*
X134714285Y-71912438D01*
X134714285Y-71912438D02*
X134619047Y-71864819D01*
X134619047Y-71864819D02*
X134428571Y-71864819D01*
X134428571Y-71864819D02*
X134333333Y-71912438D01*
X134333333Y-71912438D02*
X134285714Y-71960057D01*
X134285714Y-71960057D02*
X134238095Y-72055295D01*
X134238095Y-72055295D02*
X134238095Y-72102914D01*
X134238095Y-72102914D02*
X134285714Y-72198152D01*
X134285714Y-72198152D02*
X134333333Y-72245771D01*
X134333333Y-72245771D02*
X134428571Y-72293390D01*
X134428571Y-72293390D02*
X134619047Y-72293390D01*
X134619047Y-72293390D02*
X134714285Y-72341009D01*
X134714285Y-72341009D02*
X134761904Y-72388628D01*
X134761904Y-72388628D02*
X134809523Y-72483866D01*
X134809523Y-72483866D02*
X134809523Y-72674342D01*
X134809523Y-72674342D02*
X134761904Y-72769580D01*
X134761904Y-72769580D02*
X134714285Y-72817200D01*
X134714285Y-72817200D02*
X134619047Y-72864819D01*
X134619047Y-72864819D02*
X134428571Y-72864819D01*
X134428571Y-72864819D02*
X134333333Y-72817200D01*
X134333333Y-72817200D02*
X134285714Y-72769580D01*
X134285714Y-72769580D02*
X134238095Y-72674342D01*
X134238095Y-72674342D02*
X134238095Y-72483866D01*
X134238095Y-72483866D02*
X134285714Y-72388628D01*
X134285714Y-72388628D02*
X134333333Y-72341009D01*
X134333333Y-72341009D02*
X134428571Y-72293390D01*
X134142857Y-71769580D02*
X134190476Y-71817200D01*
X134190476Y-71817200D02*
X134333333Y-71864819D01*
X134333333Y-71864819D02*
X134428571Y-71864819D01*
X134428571Y-71864819D02*
X134571428Y-71817200D01*
X134571428Y-71817200D02*
X134666666Y-71721961D01*
X134666666Y-71721961D02*
X134714285Y-71626723D01*
X134714285Y-71626723D02*
X134761904Y-71436247D01*
X134761904Y-71436247D02*
X134761904Y-71293390D01*
X134761904Y-71293390D02*
X134714285Y-71102914D01*
X134714285Y-71102914D02*
X134666666Y-71007676D01*
X134666666Y-71007676D02*
X134571428Y-70912438D01*
X134571428Y-70912438D02*
X134428571Y-70864819D01*
X134428571Y-70864819D02*
X134333333Y-70864819D01*
X134333333Y-70864819D02*
X134190476Y-70912438D01*
X134190476Y-70912438D02*
X134142857Y-70960057D01*
X133809523Y-70864819D02*
X133190476Y-70864819D01*
X133190476Y-70864819D02*
X133523809Y-71245771D01*
X133523809Y-71245771D02*
X133380952Y-71245771D01*
X133380952Y-71245771D02*
X133285714Y-71293390D01*
X133285714Y-71293390D02*
X133238095Y-71341009D01*
X133238095Y-71341009D02*
X133190476Y-71436247D01*
X133190476Y-71436247D02*
X133190476Y-71674342D01*
X133190476Y-71674342D02*
X133238095Y-71769580D01*
X133238095Y-71769580D02*
X133285714Y-71817200D01*
X133285714Y-71817200D02*
X133380952Y-71864819D01*
X133380952Y-71864819D02*
X133666666Y-71864819D01*
X133666666Y-71864819D02*
X133761904Y-71817200D01*
X133761904Y-71817200D02*
X133809523Y-71769580D01*
X132714285Y-71864819D02*
X132523809Y-71864819D01*
X132523809Y-71864819D02*
X132428571Y-71817200D01*
X132428571Y-71817200D02*
X132380952Y-71769580D01*
X132380952Y-71769580D02*
X132285714Y-71626723D01*
X132285714Y-71626723D02*
X132238095Y-71436247D01*
X132238095Y-71436247D02*
X132238095Y-71055295D01*
X132238095Y-71055295D02*
X132285714Y-70960057D01*
X132285714Y-70960057D02*
X132333333Y-70912438D01*
X132333333Y-70912438D02*
X132428571Y-70864819D01*
X132428571Y-70864819D02*
X132619047Y-70864819D01*
X132619047Y-70864819D02*
X132714285Y-70912438D01*
X132714285Y-70912438D02*
X132761904Y-70960057D01*
X132761904Y-70960057D02*
X132809523Y-71055295D01*
X132809523Y-71055295D02*
X132809523Y-71293390D01*
X132809523Y-71293390D02*
X132761904Y-71388628D01*
X132761904Y-71388628D02*
X132714285Y-71436247D01*
X132714285Y-71436247D02*
X132619047Y-71483866D01*
X132619047Y-71483866D02*
X132428571Y-71483866D01*
X132428571Y-71483866D02*
X132333333Y-71436247D01*
X132333333Y-71436247D02*
X132285714Y-71388628D01*
X132285714Y-71388628D02*
X132238095Y-71293390D01*
X144642857Y-63019580D02*
X144690476Y-63067200D01*
X144690476Y-63067200D02*
X144833333Y-63114819D01*
X144833333Y-63114819D02*
X144928571Y-63114819D01*
X144928571Y-63114819D02*
X145071428Y-63067200D01*
X145071428Y-63067200D02*
X145166666Y-62971961D01*
X145166666Y-62971961D02*
X145214285Y-62876723D01*
X145214285Y-62876723D02*
X145261904Y-62686247D01*
X145261904Y-62686247D02*
X145261904Y-62543390D01*
X145261904Y-62543390D02*
X145214285Y-62352914D01*
X145214285Y-62352914D02*
X145166666Y-62257676D01*
X145166666Y-62257676D02*
X145071428Y-62162438D01*
X145071428Y-62162438D02*
X144928571Y-62114819D01*
X144928571Y-62114819D02*
X144833333Y-62114819D01*
X144833333Y-62114819D02*
X144690476Y-62162438D01*
X144690476Y-62162438D02*
X144642857Y-62210057D01*
X144261904Y-62210057D02*
X144214285Y-62162438D01*
X144214285Y-62162438D02*
X144119047Y-62114819D01*
X144119047Y-62114819D02*
X143880952Y-62114819D01*
X143880952Y-62114819D02*
X143785714Y-62162438D01*
X143785714Y-62162438D02*
X143738095Y-62210057D01*
X143738095Y-62210057D02*
X143690476Y-62305295D01*
X143690476Y-62305295D02*
X143690476Y-62400533D01*
X143690476Y-62400533D02*
X143738095Y-62543390D01*
X143738095Y-62543390D02*
X144309523Y-63114819D01*
X144309523Y-63114819D02*
X143690476Y-63114819D01*
X142833333Y-62114819D02*
X143023809Y-62114819D01*
X143023809Y-62114819D02*
X143119047Y-62162438D01*
X143119047Y-62162438D02*
X143166666Y-62210057D01*
X143166666Y-62210057D02*
X143261904Y-62352914D01*
X143261904Y-62352914D02*
X143309523Y-62543390D01*
X143309523Y-62543390D02*
X143309523Y-62924342D01*
X143309523Y-62924342D02*
X143261904Y-63019580D01*
X143261904Y-63019580D02*
X143214285Y-63067200D01*
X143214285Y-63067200D02*
X143119047Y-63114819D01*
X143119047Y-63114819D02*
X142928571Y-63114819D01*
X142928571Y-63114819D02*
X142833333Y-63067200D01*
X142833333Y-63067200D02*
X142785714Y-63019580D01*
X142785714Y-63019580D02*
X142738095Y-62924342D01*
X142738095Y-62924342D02*
X142738095Y-62686247D01*
X142738095Y-62686247D02*
X142785714Y-62591009D01*
X142785714Y-62591009D02*
X142833333Y-62543390D01*
X142833333Y-62543390D02*
X142928571Y-62495771D01*
X142928571Y-62495771D02*
X143119047Y-62495771D01*
X143119047Y-62495771D02*
X143214285Y-62543390D01*
X143214285Y-62543390D02*
X143261904Y-62591009D01*
X143261904Y-62591009D02*
X143309523Y-62686247D01*
X145642857Y-58699580D02*
X145690476Y-58747200D01*
X145690476Y-58747200D02*
X145833333Y-58794819D01*
X145833333Y-58794819D02*
X145928571Y-58794819D01*
X145928571Y-58794819D02*
X146071428Y-58747200D01*
X146071428Y-58747200D02*
X146166666Y-58651961D01*
X146166666Y-58651961D02*
X146214285Y-58556723D01*
X146214285Y-58556723D02*
X146261904Y-58366247D01*
X146261904Y-58366247D02*
X146261904Y-58223390D01*
X146261904Y-58223390D02*
X146214285Y-58032914D01*
X146214285Y-58032914D02*
X146166666Y-57937676D01*
X146166666Y-57937676D02*
X146071428Y-57842438D01*
X146071428Y-57842438D02*
X145928571Y-57794819D01*
X145928571Y-57794819D02*
X145833333Y-57794819D01*
X145833333Y-57794819D02*
X145690476Y-57842438D01*
X145690476Y-57842438D02*
X145642857Y-57890057D01*
X144690476Y-58794819D02*
X145261904Y-58794819D01*
X144976190Y-58794819D02*
X144976190Y-57794819D01*
X144976190Y-57794819D02*
X145071428Y-57937676D01*
X145071428Y-57937676D02*
X145166666Y-58032914D01*
X145166666Y-58032914D02*
X145261904Y-58080533D01*
X143833333Y-57794819D02*
X144023809Y-57794819D01*
X144023809Y-57794819D02*
X144119047Y-57842438D01*
X144119047Y-57842438D02*
X144166666Y-57890057D01*
X144166666Y-57890057D02*
X144261904Y-58032914D01*
X144261904Y-58032914D02*
X144309523Y-58223390D01*
X144309523Y-58223390D02*
X144309523Y-58604342D01*
X144309523Y-58604342D02*
X144261904Y-58699580D01*
X144261904Y-58699580D02*
X144214285Y-58747200D01*
X144214285Y-58747200D02*
X144119047Y-58794819D01*
X144119047Y-58794819D02*
X143928571Y-58794819D01*
X143928571Y-58794819D02*
X143833333Y-58747200D01*
X143833333Y-58747200D02*
X143785714Y-58699580D01*
X143785714Y-58699580D02*
X143738095Y-58604342D01*
X143738095Y-58604342D02*
X143738095Y-58366247D01*
X143738095Y-58366247D02*
X143785714Y-58271009D01*
X143785714Y-58271009D02*
X143833333Y-58223390D01*
X143833333Y-58223390D02*
X143928571Y-58175771D01*
X143928571Y-58175771D02*
X144119047Y-58175771D01*
X144119047Y-58175771D02*
X144214285Y-58223390D01*
X144214285Y-58223390D02*
X144261904Y-58271009D01*
X144261904Y-58271009D02*
X144309523Y-58366247D01*
X139142857Y-93449580D02*
X139190476Y-93497200D01*
X139190476Y-93497200D02*
X139333333Y-93544819D01*
X139333333Y-93544819D02*
X139428571Y-93544819D01*
X139428571Y-93544819D02*
X139571428Y-93497200D01*
X139571428Y-93497200D02*
X139666666Y-93401961D01*
X139666666Y-93401961D02*
X139714285Y-93306723D01*
X139714285Y-93306723D02*
X139761904Y-93116247D01*
X139761904Y-93116247D02*
X139761904Y-92973390D01*
X139761904Y-92973390D02*
X139714285Y-92782914D01*
X139714285Y-92782914D02*
X139666666Y-92687676D01*
X139666666Y-92687676D02*
X139571428Y-92592438D01*
X139571428Y-92592438D02*
X139428571Y-92544819D01*
X139428571Y-92544819D02*
X139333333Y-92544819D01*
X139333333Y-92544819D02*
X139190476Y-92592438D01*
X139190476Y-92592438D02*
X139142857Y-92640057D01*
X138809523Y-92544819D02*
X138142857Y-92544819D01*
X138142857Y-92544819D02*
X138571428Y-93544819D01*
X137238095Y-93544819D02*
X137809523Y-93544819D01*
X137523809Y-93544819D02*
X137523809Y-92544819D01*
X137523809Y-92544819D02*
X137619047Y-92687676D01*
X137619047Y-92687676D02*
X137714285Y-92782914D01*
X137714285Y-92782914D02*
X137809523Y-92830533D01*
X141142857Y-93449580D02*
X141190476Y-93497200D01*
X141190476Y-93497200D02*
X141333333Y-93544819D01*
X141333333Y-93544819D02*
X141428571Y-93544819D01*
X141428571Y-93544819D02*
X141571428Y-93497200D01*
X141571428Y-93497200D02*
X141666666Y-93401961D01*
X141666666Y-93401961D02*
X141714285Y-93306723D01*
X141714285Y-93306723D02*
X141761904Y-93116247D01*
X141761904Y-93116247D02*
X141761904Y-92973390D01*
X141761904Y-92973390D02*
X141714285Y-92782914D01*
X141714285Y-92782914D02*
X141666666Y-92687676D01*
X141666666Y-92687676D02*
X141571428Y-92592438D01*
X141571428Y-92592438D02*
X141428571Y-92544819D01*
X141428571Y-92544819D02*
X141333333Y-92544819D01*
X141333333Y-92544819D02*
X141190476Y-92592438D01*
X141190476Y-92592438D02*
X141142857Y-92640057D01*
X140809523Y-92544819D02*
X140142857Y-92544819D01*
X140142857Y-92544819D02*
X140571428Y-93544819D01*
X139857142Y-92544819D02*
X139238095Y-92544819D01*
X139238095Y-92544819D02*
X139571428Y-92925771D01*
X139571428Y-92925771D02*
X139428571Y-92925771D01*
X139428571Y-92925771D02*
X139333333Y-92973390D01*
X139333333Y-92973390D02*
X139285714Y-93021009D01*
X139285714Y-93021009D02*
X139238095Y-93116247D01*
X139238095Y-93116247D02*
X139238095Y-93354342D01*
X139238095Y-93354342D02*
X139285714Y-93449580D01*
X139285714Y-93449580D02*
X139333333Y-93497200D01*
X139333333Y-93497200D02*
X139428571Y-93544819D01*
X139428571Y-93544819D02*
X139714285Y-93544819D01*
X139714285Y-93544819D02*
X139809523Y-93497200D01*
X139809523Y-93497200D02*
X139857142Y-93449580D01*
X132142857Y-72769580D02*
X132190476Y-72817200D01*
X132190476Y-72817200D02*
X132333333Y-72864819D01*
X132333333Y-72864819D02*
X132428571Y-72864819D01*
X132428571Y-72864819D02*
X132571428Y-72817200D01*
X132571428Y-72817200D02*
X132666666Y-72721961D01*
X132666666Y-72721961D02*
X132714285Y-72626723D01*
X132714285Y-72626723D02*
X132761904Y-72436247D01*
X132761904Y-72436247D02*
X132761904Y-72293390D01*
X132761904Y-72293390D02*
X132714285Y-72102914D01*
X132714285Y-72102914D02*
X132666666Y-72007676D01*
X132666666Y-72007676D02*
X132571428Y-71912438D01*
X132571428Y-71912438D02*
X132428571Y-71864819D01*
X132428571Y-71864819D02*
X132333333Y-71864819D01*
X132333333Y-71864819D02*
X132190476Y-71912438D01*
X132190476Y-71912438D02*
X132142857Y-71960057D01*
X131285714Y-72198152D02*
X131285714Y-72864819D01*
X131523809Y-71817200D02*
X131761904Y-72531485D01*
X131761904Y-72531485D02*
X131142857Y-72531485D01*
X130571428Y-71864819D02*
X130476190Y-71864819D01*
X130476190Y-71864819D02*
X130380952Y-71912438D01*
X130380952Y-71912438D02*
X130333333Y-71960057D01*
X130333333Y-71960057D02*
X130285714Y-72055295D01*
X130285714Y-72055295D02*
X130238095Y-72245771D01*
X130238095Y-72245771D02*
X130238095Y-72483866D01*
X130238095Y-72483866D02*
X130285714Y-72674342D01*
X130285714Y-72674342D02*
X130333333Y-72769580D01*
X130333333Y-72769580D02*
X130380952Y-72817200D01*
X130380952Y-72817200D02*
X130476190Y-72864819D01*
X130476190Y-72864819D02*
X130571428Y-72864819D01*
X130571428Y-72864819D02*
X130666666Y-72817200D01*
X130666666Y-72817200D02*
X130714285Y-72769580D01*
X130714285Y-72769580D02*
X130761904Y-72674342D01*
X130761904Y-72674342D02*
X130809523Y-72483866D01*
X130809523Y-72483866D02*
X130809523Y-72245771D01*
X130809523Y-72245771D02*
X130761904Y-72055295D01*
X130761904Y-72055295D02*
X130714285Y-71960057D01*
X130714285Y-71960057D02*
X130666666Y-71912438D01*
X130666666Y-71912438D02*
X130571428Y-71864819D01*
X140949580Y-72857142D02*
X140997200Y-72809523D01*
X140997200Y-72809523D02*
X141044819Y-72666666D01*
X141044819Y-72666666D02*
X141044819Y-72571428D01*
X141044819Y-72571428D02*
X140997200Y-72428571D01*
X140997200Y-72428571D02*
X140901961Y-72333333D01*
X140901961Y-72333333D02*
X140806723Y-72285714D01*
X140806723Y-72285714D02*
X140616247Y-72238095D01*
X140616247Y-72238095D02*
X140473390Y-72238095D01*
X140473390Y-72238095D02*
X140282914Y-72285714D01*
X140282914Y-72285714D02*
X140187676Y-72333333D01*
X140187676Y-72333333D02*
X140092438Y-72428571D01*
X140092438Y-72428571D02*
X140044819Y-72571428D01*
X140044819Y-72571428D02*
X140044819Y-72666666D01*
X140044819Y-72666666D02*
X140092438Y-72809523D01*
X140092438Y-72809523D02*
X140140057Y-72857142D01*
X140044819Y-73761904D02*
X140044819Y-73285714D01*
X140044819Y-73285714D02*
X140521009Y-73238095D01*
X140521009Y-73238095D02*
X140473390Y-73285714D01*
X140473390Y-73285714D02*
X140425771Y-73380952D01*
X140425771Y-73380952D02*
X140425771Y-73619047D01*
X140425771Y-73619047D02*
X140473390Y-73714285D01*
X140473390Y-73714285D02*
X140521009Y-73761904D01*
X140521009Y-73761904D02*
X140616247Y-73809523D01*
X140616247Y-73809523D02*
X140854342Y-73809523D01*
X140854342Y-73809523D02*
X140949580Y-73761904D01*
X140949580Y-73761904D02*
X140997200Y-73714285D01*
X140997200Y-73714285D02*
X141044819Y-73619047D01*
X141044819Y-73619047D02*
X141044819Y-73380952D01*
X141044819Y-73380952D02*
X140997200Y-73285714D01*
X140997200Y-73285714D02*
X140949580Y-73238095D01*
X140044819Y-74666666D02*
X140044819Y-74476190D01*
X140044819Y-74476190D02*
X140092438Y-74380952D01*
X140092438Y-74380952D02*
X140140057Y-74333333D01*
X140140057Y-74333333D02*
X140282914Y-74238095D01*
X140282914Y-74238095D02*
X140473390Y-74190476D01*
X140473390Y-74190476D02*
X140854342Y-74190476D01*
X140854342Y-74190476D02*
X140949580Y-74238095D01*
X140949580Y-74238095D02*
X140997200Y-74285714D01*
X140997200Y-74285714D02*
X141044819Y-74380952D01*
X141044819Y-74380952D02*
X141044819Y-74571428D01*
X141044819Y-74571428D02*
X140997200Y-74666666D01*
X140997200Y-74666666D02*
X140949580Y-74714285D01*
X140949580Y-74714285D02*
X140854342Y-74761904D01*
X140854342Y-74761904D02*
X140616247Y-74761904D01*
X140616247Y-74761904D02*
X140521009Y-74714285D01*
X140521009Y-74714285D02*
X140473390Y-74666666D01*
X140473390Y-74666666D02*
X140425771Y-74571428D01*
X140425771Y-74571428D02*
X140425771Y-74380952D01*
X140425771Y-74380952D02*
X140473390Y-74285714D01*
X140473390Y-74285714D02*
X140521009Y-74238095D01*
X140521009Y-74238095D02*
X140616247Y-74190476D01*
X141654819Y-51416666D02*
X142369104Y-51416666D01*
X142369104Y-51416666D02*
X142511961Y-51369047D01*
X142511961Y-51369047D02*
X142607200Y-51273809D01*
X142607200Y-51273809D02*
X142654819Y-51130952D01*
X142654819Y-51130952D02*
X142654819Y-51035714D01*
X142654819Y-51892857D02*
X141654819Y-51892857D01*
X141654819Y-51892857D02*
X141654819Y-52273809D01*
X141654819Y-52273809D02*
X141702438Y-52369047D01*
X141702438Y-52369047D02*
X141750057Y-52416666D01*
X141750057Y-52416666D02*
X141845295Y-52464285D01*
X141845295Y-52464285D02*
X141988152Y-52464285D01*
X141988152Y-52464285D02*
X142083390Y-52416666D01*
X142083390Y-52416666D02*
X142131009Y-52369047D01*
X142131009Y-52369047D02*
X142178628Y-52273809D01*
X142178628Y-52273809D02*
X142178628Y-51892857D01*
X142654819Y-53416666D02*
X142654819Y-52845238D01*
X142654819Y-53130952D02*
X141654819Y-53130952D01*
X141654819Y-53130952D02*
X141797676Y-53035714D01*
X141797676Y-53035714D02*
X141892914Y-52940476D01*
X141892914Y-52940476D02*
X141940533Y-52845238D01*
X149269580Y-72857142D02*
X149317200Y-72809523D01*
X149317200Y-72809523D02*
X149364819Y-72666666D01*
X149364819Y-72666666D02*
X149364819Y-72571428D01*
X149364819Y-72571428D02*
X149317200Y-72428571D01*
X149317200Y-72428571D02*
X149221961Y-72333333D01*
X149221961Y-72333333D02*
X149126723Y-72285714D01*
X149126723Y-72285714D02*
X148936247Y-72238095D01*
X148936247Y-72238095D02*
X148793390Y-72238095D01*
X148793390Y-72238095D02*
X148602914Y-72285714D01*
X148602914Y-72285714D02*
X148507676Y-72333333D01*
X148507676Y-72333333D02*
X148412438Y-72428571D01*
X148412438Y-72428571D02*
X148364819Y-72571428D01*
X148364819Y-72571428D02*
X148364819Y-72666666D01*
X148364819Y-72666666D02*
X148412438Y-72809523D01*
X148412438Y-72809523D02*
X148460057Y-72857142D01*
X148364819Y-73761904D02*
X148364819Y-73285714D01*
X148364819Y-73285714D02*
X148841009Y-73238095D01*
X148841009Y-73238095D02*
X148793390Y-73285714D01*
X148793390Y-73285714D02*
X148745771Y-73380952D01*
X148745771Y-73380952D02*
X148745771Y-73619047D01*
X148745771Y-73619047D02*
X148793390Y-73714285D01*
X148793390Y-73714285D02*
X148841009Y-73761904D01*
X148841009Y-73761904D02*
X148936247Y-73809523D01*
X148936247Y-73809523D02*
X149174342Y-73809523D01*
X149174342Y-73809523D02*
X149269580Y-73761904D01*
X149269580Y-73761904D02*
X149317200Y-73714285D01*
X149317200Y-73714285D02*
X149364819Y-73619047D01*
X149364819Y-73619047D02*
X149364819Y-73380952D01*
X149364819Y-73380952D02*
X149317200Y-73285714D01*
X149317200Y-73285714D02*
X149269580Y-73238095D01*
X148698152Y-74666666D02*
X149364819Y-74666666D01*
X148317200Y-74428571D02*
X149031485Y-74190476D01*
X149031485Y-74190476D02*
X149031485Y-74809523D01*
X141904819Y-52188095D02*
X142714342Y-52188095D01*
X142714342Y-52188095D02*
X142809580Y-52235714D01*
X142809580Y-52235714D02*
X142857200Y-52283333D01*
X142857200Y-52283333D02*
X142904819Y-52378571D01*
X142904819Y-52378571D02*
X142904819Y-52569047D01*
X142904819Y-52569047D02*
X142857200Y-52664285D01*
X142857200Y-52664285D02*
X142809580Y-52711904D01*
X142809580Y-52711904D02*
X142714342Y-52759523D01*
X142714342Y-52759523D02*
X141904819Y-52759523D01*
X142904819Y-53759523D02*
X142904819Y-53188095D01*
X142904819Y-53473809D02*
X141904819Y-53473809D01*
X141904819Y-53473809D02*
X142047676Y-53378571D01*
X142047676Y-53378571D02*
X142142914Y-53283333D01*
X142142914Y-53283333D02*
X142190533Y-53188095D01*
X149269580Y-70857142D02*
X149317200Y-70809523D01*
X149317200Y-70809523D02*
X149364819Y-70666666D01*
X149364819Y-70666666D02*
X149364819Y-70571428D01*
X149364819Y-70571428D02*
X149317200Y-70428571D01*
X149317200Y-70428571D02*
X149221961Y-70333333D01*
X149221961Y-70333333D02*
X149126723Y-70285714D01*
X149126723Y-70285714D02*
X148936247Y-70238095D01*
X148936247Y-70238095D02*
X148793390Y-70238095D01*
X148793390Y-70238095D02*
X148602914Y-70285714D01*
X148602914Y-70285714D02*
X148507676Y-70333333D01*
X148507676Y-70333333D02*
X148412438Y-70428571D01*
X148412438Y-70428571D02*
X148364819Y-70571428D01*
X148364819Y-70571428D02*
X148364819Y-70666666D01*
X148364819Y-70666666D02*
X148412438Y-70809523D01*
X148412438Y-70809523D02*
X148460057Y-70857142D01*
X148364819Y-71761904D02*
X148364819Y-71285714D01*
X148364819Y-71285714D02*
X148841009Y-71238095D01*
X148841009Y-71238095D02*
X148793390Y-71285714D01*
X148793390Y-71285714D02*
X148745771Y-71380952D01*
X148745771Y-71380952D02*
X148745771Y-71619047D01*
X148745771Y-71619047D02*
X148793390Y-71714285D01*
X148793390Y-71714285D02*
X148841009Y-71761904D01*
X148841009Y-71761904D02*
X148936247Y-71809523D01*
X148936247Y-71809523D02*
X149174342Y-71809523D01*
X149174342Y-71809523D02*
X149269580Y-71761904D01*
X149269580Y-71761904D02*
X149317200Y-71714285D01*
X149317200Y-71714285D02*
X149364819Y-71619047D01*
X149364819Y-71619047D02*
X149364819Y-71380952D01*
X149364819Y-71380952D02*
X149317200Y-71285714D01*
X149317200Y-71285714D02*
X149269580Y-71238095D01*
X148364819Y-72142857D02*
X148364819Y-72761904D01*
X148364819Y-72761904D02*
X148745771Y-72428571D01*
X148745771Y-72428571D02*
X148745771Y-72571428D01*
X148745771Y-72571428D02*
X148793390Y-72666666D01*
X148793390Y-72666666D02*
X148841009Y-72714285D01*
X148841009Y-72714285D02*
X148936247Y-72761904D01*
X148936247Y-72761904D02*
X149174342Y-72761904D01*
X149174342Y-72761904D02*
X149269580Y-72714285D01*
X149269580Y-72714285D02*
X149317200Y-72666666D01*
X149317200Y-72666666D02*
X149364819Y-72571428D01*
X149364819Y-72571428D02*
X149364819Y-72285714D01*
X149364819Y-72285714D02*
X149317200Y-72190476D01*
X149317200Y-72190476D02*
X149269580Y-72142857D01*
X135892857Y-68519580D02*
X135940476Y-68567200D01*
X135940476Y-68567200D02*
X136083333Y-68614819D01*
X136083333Y-68614819D02*
X136178571Y-68614819D01*
X136178571Y-68614819D02*
X136321428Y-68567200D01*
X136321428Y-68567200D02*
X136416666Y-68471961D01*
X136416666Y-68471961D02*
X136464285Y-68376723D01*
X136464285Y-68376723D02*
X136511904Y-68186247D01*
X136511904Y-68186247D02*
X136511904Y-68043390D01*
X136511904Y-68043390D02*
X136464285Y-67852914D01*
X136464285Y-67852914D02*
X136416666Y-67757676D01*
X136416666Y-67757676D02*
X136321428Y-67662438D01*
X136321428Y-67662438D02*
X136178571Y-67614819D01*
X136178571Y-67614819D02*
X136083333Y-67614819D01*
X136083333Y-67614819D02*
X135940476Y-67662438D01*
X135940476Y-67662438D02*
X135892857Y-67710057D01*
X134940476Y-68614819D02*
X135511904Y-68614819D01*
X135226190Y-68614819D02*
X135226190Y-67614819D01*
X135226190Y-67614819D02*
X135321428Y-67757676D01*
X135321428Y-67757676D02*
X135416666Y-67852914D01*
X135416666Y-67852914D02*
X135511904Y-67900533D01*
X134464285Y-68614819D02*
X134273809Y-68614819D01*
X134273809Y-68614819D02*
X134178571Y-68567200D01*
X134178571Y-68567200D02*
X134130952Y-68519580D01*
X134130952Y-68519580D02*
X134035714Y-68376723D01*
X134035714Y-68376723D02*
X133988095Y-68186247D01*
X133988095Y-68186247D02*
X133988095Y-67805295D01*
X133988095Y-67805295D02*
X134035714Y-67710057D01*
X134035714Y-67710057D02*
X134083333Y-67662438D01*
X134083333Y-67662438D02*
X134178571Y-67614819D01*
X134178571Y-67614819D02*
X134369047Y-67614819D01*
X134369047Y-67614819D02*
X134464285Y-67662438D01*
X134464285Y-67662438D02*
X134511904Y-67710057D01*
X134511904Y-67710057D02*
X134559523Y-67805295D01*
X134559523Y-67805295D02*
X134559523Y-68043390D01*
X134559523Y-68043390D02*
X134511904Y-68138628D01*
X134511904Y-68138628D02*
X134464285Y-68186247D01*
X134464285Y-68186247D02*
X134369047Y-68233866D01*
X134369047Y-68233866D02*
X134178571Y-68233866D01*
X134178571Y-68233866D02*
X134083333Y-68186247D01*
X134083333Y-68186247D02*
X134035714Y-68138628D01*
X134035714Y-68138628D02*
X133988095Y-68043390D01*
X151699580Y-72357142D02*
X151747200Y-72309523D01*
X151747200Y-72309523D02*
X151794819Y-72166666D01*
X151794819Y-72166666D02*
X151794819Y-72071428D01*
X151794819Y-72071428D02*
X151747200Y-71928571D01*
X151747200Y-71928571D02*
X151651961Y-71833333D01*
X151651961Y-71833333D02*
X151556723Y-71785714D01*
X151556723Y-71785714D02*
X151366247Y-71738095D01*
X151366247Y-71738095D02*
X151223390Y-71738095D01*
X151223390Y-71738095D02*
X151032914Y-71785714D01*
X151032914Y-71785714D02*
X150937676Y-71833333D01*
X150937676Y-71833333D02*
X150842438Y-71928571D01*
X150842438Y-71928571D02*
X150794819Y-72071428D01*
X150794819Y-72071428D02*
X150794819Y-72166666D01*
X150794819Y-72166666D02*
X150842438Y-72309523D01*
X150842438Y-72309523D02*
X150890057Y-72357142D01*
X150794819Y-72690476D02*
X150794819Y-73309523D01*
X150794819Y-73309523D02*
X151175771Y-72976190D01*
X151175771Y-72976190D02*
X151175771Y-73119047D01*
X151175771Y-73119047D02*
X151223390Y-73214285D01*
X151223390Y-73214285D02*
X151271009Y-73261904D01*
X151271009Y-73261904D02*
X151366247Y-73309523D01*
X151366247Y-73309523D02*
X151604342Y-73309523D01*
X151604342Y-73309523D02*
X151699580Y-73261904D01*
X151699580Y-73261904D02*
X151747200Y-73214285D01*
X151747200Y-73214285D02*
X151794819Y-73119047D01*
X151794819Y-73119047D02*
X151794819Y-72833333D01*
X151794819Y-72833333D02*
X151747200Y-72738095D01*
X151747200Y-72738095D02*
X151699580Y-72690476D01*
X150794819Y-74214285D02*
X150794819Y-73738095D01*
X150794819Y-73738095D02*
X151271009Y-73690476D01*
X151271009Y-73690476D02*
X151223390Y-73738095D01*
X151223390Y-73738095D02*
X151175771Y-73833333D01*
X151175771Y-73833333D02*
X151175771Y-74071428D01*
X151175771Y-74071428D02*
X151223390Y-74166666D01*
X151223390Y-74166666D02*
X151271009Y-74214285D01*
X151271009Y-74214285D02*
X151366247Y-74261904D01*
X151366247Y-74261904D02*
X151604342Y-74261904D01*
X151604342Y-74261904D02*
X151699580Y-74214285D01*
X151699580Y-74214285D02*
X151747200Y-74166666D01*
X151747200Y-74166666D02*
X151794819Y-74071428D01*
X151794819Y-74071428D02*
X151794819Y-73833333D01*
X151794819Y-73833333D02*
X151747200Y-73738095D01*
X151747200Y-73738095D02*
X151699580Y-73690476D01*
X132142857Y-74769580D02*
X132190476Y-74817200D01*
X132190476Y-74817200D02*
X132333333Y-74864819D01*
X132333333Y-74864819D02*
X132428571Y-74864819D01*
X132428571Y-74864819D02*
X132571428Y-74817200D01*
X132571428Y-74817200D02*
X132666666Y-74721961D01*
X132666666Y-74721961D02*
X132714285Y-74626723D01*
X132714285Y-74626723D02*
X132761904Y-74436247D01*
X132761904Y-74436247D02*
X132761904Y-74293390D01*
X132761904Y-74293390D02*
X132714285Y-74102914D01*
X132714285Y-74102914D02*
X132666666Y-74007676D01*
X132666666Y-74007676D02*
X132571428Y-73912438D01*
X132571428Y-73912438D02*
X132428571Y-73864819D01*
X132428571Y-73864819D02*
X132333333Y-73864819D01*
X132333333Y-73864819D02*
X132190476Y-73912438D01*
X132190476Y-73912438D02*
X132142857Y-73960057D01*
X131285714Y-74198152D02*
X131285714Y-74864819D01*
X131523809Y-73817200D02*
X131761904Y-74531485D01*
X131761904Y-74531485D02*
X131142857Y-74531485D01*
X130238095Y-74864819D02*
X130809523Y-74864819D01*
X130523809Y-74864819D02*
X130523809Y-73864819D01*
X130523809Y-73864819D02*
X130619047Y-74007676D01*
X130619047Y-74007676D02*
X130714285Y-74102914D01*
X130714285Y-74102914D02*
X130809523Y-74150533D01*
X145442857Y-77319580D02*
X145490476Y-77367200D01*
X145490476Y-77367200D02*
X145633333Y-77414819D01*
X145633333Y-77414819D02*
X145728571Y-77414819D01*
X145728571Y-77414819D02*
X145871428Y-77367200D01*
X145871428Y-77367200D02*
X145966666Y-77271961D01*
X145966666Y-77271961D02*
X146014285Y-77176723D01*
X146014285Y-77176723D02*
X146061904Y-76986247D01*
X146061904Y-76986247D02*
X146061904Y-76843390D01*
X146061904Y-76843390D02*
X146014285Y-76652914D01*
X146014285Y-76652914D02*
X145966666Y-76557676D01*
X145966666Y-76557676D02*
X145871428Y-76462438D01*
X145871428Y-76462438D02*
X145728571Y-76414819D01*
X145728571Y-76414819D02*
X145633333Y-76414819D01*
X145633333Y-76414819D02*
X145490476Y-76462438D01*
X145490476Y-76462438D02*
X145442857Y-76510057D01*
X145109523Y-76414819D02*
X144490476Y-76414819D01*
X144490476Y-76414819D02*
X144823809Y-76795771D01*
X144823809Y-76795771D02*
X144680952Y-76795771D01*
X144680952Y-76795771D02*
X144585714Y-76843390D01*
X144585714Y-76843390D02*
X144538095Y-76891009D01*
X144538095Y-76891009D02*
X144490476Y-76986247D01*
X144490476Y-76986247D02*
X144490476Y-77224342D01*
X144490476Y-77224342D02*
X144538095Y-77319580D01*
X144538095Y-77319580D02*
X144585714Y-77367200D01*
X144585714Y-77367200D02*
X144680952Y-77414819D01*
X144680952Y-77414819D02*
X144966666Y-77414819D01*
X144966666Y-77414819D02*
X145061904Y-77367200D01*
X145061904Y-77367200D02*
X145109523Y-77319580D01*
X143871428Y-76414819D02*
X143776190Y-76414819D01*
X143776190Y-76414819D02*
X143680952Y-76462438D01*
X143680952Y-76462438D02*
X143633333Y-76510057D01*
X143633333Y-76510057D02*
X143585714Y-76605295D01*
X143585714Y-76605295D02*
X143538095Y-76795771D01*
X143538095Y-76795771D02*
X143538095Y-77033866D01*
X143538095Y-77033866D02*
X143585714Y-77224342D01*
X143585714Y-77224342D02*
X143633333Y-77319580D01*
X143633333Y-77319580D02*
X143680952Y-77367200D01*
X143680952Y-77367200D02*
X143776190Y-77414819D01*
X143776190Y-77414819D02*
X143871428Y-77414819D01*
X143871428Y-77414819D02*
X143966666Y-77367200D01*
X143966666Y-77367200D02*
X144014285Y-77319580D01*
X144014285Y-77319580D02*
X144061904Y-77224342D01*
X144061904Y-77224342D02*
X144109523Y-77033866D01*
X144109523Y-77033866D02*
X144109523Y-76795771D01*
X144109523Y-76795771D02*
X144061904Y-76605295D01*
X144061904Y-76605295D02*
X144014285Y-76510057D01*
X144014285Y-76510057D02*
X143966666Y-76462438D01*
X143966666Y-76462438D02*
X143871428Y-76414819D01*
X146692857Y-69119580D02*
X146740476Y-69167200D01*
X146740476Y-69167200D02*
X146883333Y-69214819D01*
X146883333Y-69214819D02*
X146978571Y-69214819D01*
X146978571Y-69214819D02*
X147121428Y-69167200D01*
X147121428Y-69167200D02*
X147216666Y-69071961D01*
X147216666Y-69071961D02*
X147264285Y-68976723D01*
X147264285Y-68976723D02*
X147311904Y-68786247D01*
X147311904Y-68786247D02*
X147311904Y-68643390D01*
X147311904Y-68643390D02*
X147264285Y-68452914D01*
X147264285Y-68452914D02*
X147216666Y-68357676D01*
X147216666Y-68357676D02*
X147121428Y-68262438D01*
X147121428Y-68262438D02*
X146978571Y-68214819D01*
X146978571Y-68214819D02*
X146883333Y-68214819D01*
X146883333Y-68214819D02*
X146740476Y-68262438D01*
X146740476Y-68262438D02*
X146692857Y-68310057D01*
X146311904Y-68310057D02*
X146264285Y-68262438D01*
X146264285Y-68262438D02*
X146169047Y-68214819D01*
X146169047Y-68214819D02*
X145930952Y-68214819D01*
X145930952Y-68214819D02*
X145835714Y-68262438D01*
X145835714Y-68262438D02*
X145788095Y-68310057D01*
X145788095Y-68310057D02*
X145740476Y-68405295D01*
X145740476Y-68405295D02*
X145740476Y-68500533D01*
X145740476Y-68500533D02*
X145788095Y-68643390D01*
X145788095Y-68643390D02*
X146359523Y-69214819D01*
X146359523Y-69214819D02*
X145740476Y-69214819D01*
X145359523Y-68310057D02*
X145311904Y-68262438D01*
X145311904Y-68262438D02*
X145216666Y-68214819D01*
X145216666Y-68214819D02*
X144978571Y-68214819D01*
X144978571Y-68214819D02*
X144883333Y-68262438D01*
X144883333Y-68262438D02*
X144835714Y-68310057D01*
X144835714Y-68310057D02*
X144788095Y-68405295D01*
X144788095Y-68405295D02*
X144788095Y-68500533D01*
X144788095Y-68500533D02*
X144835714Y-68643390D01*
X144835714Y-68643390D02*
X145407142Y-69214819D01*
X145407142Y-69214819D02*
X144788095Y-69214819D01*
X142199580Y-74857142D02*
X142247200Y-74809523D01*
X142247200Y-74809523D02*
X142294819Y-74666666D01*
X142294819Y-74666666D02*
X142294819Y-74571428D01*
X142294819Y-74571428D02*
X142247200Y-74428571D01*
X142247200Y-74428571D02*
X142151961Y-74333333D01*
X142151961Y-74333333D02*
X142056723Y-74285714D01*
X142056723Y-74285714D02*
X141866247Y-74238095D01*
X141866247Y-74238095D02*
X141723390Y-74238095D01*
X141723390Y-74238095D02*
X141532914Y-74285714D01*
X141532914Y-74285714D02*
X141437676Y-74333333D01*
X141437676Y-74333333D02*
X141342438Y-74428571D01*
X141342438Y-74428571D02*
X141294819Y-74571428D01*
X141294819Y-74571428D02*
X141294819Y-74666666D01*
X141294819Y-74666666D02*
X141342438Y-74809523D01*
X141342438Y-74809523D02*
X141390057Y-74857142D01*
X141294819Y-75190476D02*
X141294819Y-75809523D01*
X141294819Y-75809523D02*
X141675771Y-75476190D01*
X141675771Y-75476190D02*
X141675771Y-75619047D01*
X141675771Y-75619047D02*
X141723390Y-75714285D01*
X141723390Y-75714285D02*
X141771009Y-75761904D01*
X141771009Y-75761904D02*
X141866247Y-75809523D01*
X141866247Y-75809523D02*
X142104342Y-75809523D01*
X142104342Y-75809523D02*
X142199580Y-75761904D01*
X142199580Y-75761904D02*
X142247200Y-75714285D01*
X142247200Y-75714285D02*
X142294819Y-75619047D01*
X142294819Y-75619047D02*
X142294819Y-75333333D01*
X142294819Y-75333333D02*
X142247200Y-75238095D01*
X142247200Y-75238095D02*
X142199580Y-75190476D01*
X141294819Y-76142857D02*
X141294819Y-76761904D01*
X141294819Y-76761904D02*
X141675771Y-76428571D01*
X141675771Y-76428571D02*
X141675771Y-76571428D01*
X141675771Y-76571428D02*
X141723390Y-76666666D01*
X141723390Y-76666666D02*
X141771009Y-76714285D01*
X141771009Y-76714285D02*
X141866247Y-76761904D01*
X141866247Y-76761904D02*
X142104342Y-76761904D01*
X142104342Y-76761904D02*
X142199580Y-76714285D01*
X142199580Y-76714285D02*
X142247200Y-76666666D01*
X142247200Y-76666666D02*
X142294819Y-76571428D01*
X142294819Y-76571428D02*
X142294819Y-76285714D01*
X142294819Y-76285714D02*
X142247200Y-76190476D01*
X142247200Y-76190476D02*
X142199580Y-76142857D01*
X160142857Y-45284819D02*
X160476190Y-44808628D01*
X160714285Y-45284819D02*
X160714285Y-44284819D01*
X160714285Y-44284819D02*
X160333333Y-44284819D01*
X160333333Y-44284819D02*
X160238095Y-44332438D01*
X160238095Y-44332438D02*
X160190476Y-44380057D01*
X160190476Y-44380057D02*
X160142857Y-44475295D01*
X160142857Y-44475295D02*
X160142857Y-44618152D01*
X160142857Y-44618152D02*
X160190476Y-44713390D01*
X160190476Y-44713390D02*
X160238095Y-44761009D01*
X160238095Y-44761009D02*
X160333333Y-44808628D01*
X160333333Y-44808628D02*
X160714285Y-44808628D01*
X159761904Y-44380057D02*
X159714285Y-44332438D01*
X159714285Y-44332438D02*
X159619047Y-44284819D01*
X159619047Y-44284819D02*
X159380952Y-44284819D01*
X159380952Y-44284819D02*
X159285714Y-44332438D01*
X159285714Y-44332438D02*
X159238095Y-44380057D01*
X159238095Y-44380057D02*
X159190476Y-44475295D01*
X159190476Y-44475295D02*
X159190476Y-44570533D01*
X159190476Y-44570533D02*
X159238095Y-44713390D01*
X159238095Y-44713390D02*
X159809523Y-45284819D01*
X159809523Y-45284819D02*
X159190476Y-45284819D01*
X158619047Y-44713390D02*
X158714285Y-44665771D01*
X158714285Y-44665771D02*
X158761904Y-44618152D01*
X158761904Y-44618152D02*
X158809523Y-44522914D01*
X158809523Y-44522914D02*
X158809523Y-44475295D01*
X158809523Y-44475295D02*
X158761904Y-44380057D01*
X158761904Y-44380057D02*
X158714285Y-44332438D01*
X158714285Y-44332438D02*
X158619047Y-44284819D01*
X158619047Y-44284819D02*
X158428571Y-44284819D01*
X158428571Y-44284819D02*
X158333333Y-44332438D01*
X158333333Y-44332438D02*
X158285714Y-44380057D01*
X158285714Y-44380057D02*
X158238095Y-44475295D01*
X158238095Y-44475295D02*
X158238095Y-44522914D01*
X158238095Y-44522914D02*
X158285714Y-44618152D01*
X158285714Y-44618152D02*
X158333333Y-44665771D01*
X158333333Y-44665771D02*
X158428571Y-44713390D01*
X158428571Y-44713390D02*
X158619047Y-44713390D01*
X158619047Y-44713390D02*
X158714285Y-44761009D01*
X158714285Y-44761009D02*
X158761904Y-44808628D01*
X158761904Y-44808628D02*
X158809523Y-44903866D01*
X158809523Y-44903866D02*
X158809523Y-45094342D01*
X158809523Y-45094342D02*
X158761904Y-45189580D01*
X158761904Y-45189580D02*
X158714285Y-45237200D01*
X158714285Y-45237200D02*
X158619047Y-45284819D01*
X158619047Y-45284819D02*
X158428571Y-45284819D01*
X158428571Y-45284819D02*
X158333333Y-45237200D01*
X158333333Y-45237200D02*
X158285714Y-45189580D01*
X158285714Y-45189580D02*
X158238095Y-45094342D01*
X158238095Y-45094342D02*
X158238095Y-44903866D01*
X158238095Y-44903866D02*
X158285714Y-44808628D01*
X158285714Y-44808628D02*
X158333333Y-44761009D01*
X158333333Y-44761009D02*
X158428571Y-44713390D01*
X143242857Y-96519580D02*
X143290476Y-96567200D01*
X143290476Y-96567200D02*
X143433333Y-96614819D01*
X143433333Y-96614819D02*
X143528571Y-96614819D01*
X143528571Y-96614819D02*
X143671428Y-96567200D01*
X143671428Y-96567200D02*
X143766666Y-96471961D01*
X143766666Y-96471961D02*
X143814285Y-96376723D01*
X143814285Y-96376723D02*
X143861904Y-96186247D01*
X143861904Y-96186247D02*
X143861904Y-96043390D01*
X143861904Y-96043390D02*
X143814285Y-95852914D01*
X143814285Y-95852914D02*
X143766666Y-95757676D01*
X143766666Y-95757676D02*
X143671428Y-95662438D01*
X143671428Y-95662438D02*
X143528571Y-95614819D01*
X143528571Y-95614819D02*
X143433333Y-95614819D01*
X143433333Y-95614819D02*
X143290476Y-95662438D01*
X143290476Y-95662438D02*
X143242857Y-95710057D01*
X142385714Y-95614819D02*
X142576190Y-95614819D01*
X142576190Y-95614819D02*
X142671428Y-95662438D01*
X142671428Y-95662438D02*
X142719047Y-95710057D01*
X142719047Y-95710057D02*
X142814285Y-95852914D01*
X142814285Y-95852914D02*
X142861904Y-96043390D01*
X142861904Y-96043390D02*
X142861904Y-96424342D01*
X142861904Y-96424342D02*
X142814285Y-96519580D01*
X142814285Y-96519580D02*
X142766666Y-96567200D01*
X142766666Y-96567200D02*
X142671428Y-96614819D01*
X142671428Y-96614819D02*
X142480952Y-96614819D01*
X142480952Y-96614819D02*
X142385714Y-96567200D01*
X142385714Y-96567200D02*
X142338095Y-96519580D01*
X142338095Y-96519580D02*
X142290476Y-96424342D01*
X142290476Y-96424342D02*
X142290476Y-96186247D01*
X142290476Y-96186247D02*
X142338095Y-96091009D01*
X142338095Y-96091009D02*
X142385714Y-96043390D01*
X142385714Y-96043390D02*
X142480952Y-95995771D01*
X142480952Y-95995771D02*
X142671428Y-95995771D01*
X142671428Y-95995771D02*
X142766666Y-96043390D01*
X142766666Y-96043390D02*
X142814285Y-96091009D01*
X142814285Y-96091009D02*
X142861904Y-96186247D01*
X141814285Y-96614819D02*
X141623809Y-96614819D01*
X141623809Y-96614819D02*
X141528571Y-96567200D01*
X141528571Y-96567200D02*
X141480952Y-96519580D01*
X141480952Y-96519580D02*
X141385714Y-96376723D01*
X141385714Y-96376723D02*
X141338095Y-96186247D01*
X141338095Y-96186247D02*
X141338095Y-95805295D01*
X141338095Y-95805295D02*
X141385714Y-95710057D01*
X141385714Y-95710057D02*
X141433333Y-95662438D01*
X141433333Y-95662438D02*
X141528571Y-95614819D01*
X141528571Y-95614819D02*
X141719047Y-95614819D01*
X141719047Y-95614819D02*
X141814285Y-95662438D01*
X141814285Y-95662438D02*
X141861904Y-95710057D01*
X141861904Y-95710057D02*
X141909523Y-95805295D01*
X141909523Y-95805295D02*
X141909523Y-96043390D01*
X141909523Y-96043390D02*
X141861904Y-96138628D01*
X141861904Y-96138628D02*
X141814285Y-96186247D01*
X141814285Y-96186247D02*
X141719047Y-96233866D01*
X141719047Y-96233866D02*
X141528571Y-96233866D01*
X141528571Y-96233866D02*
X141433333Y-96186247D01*
X141433333Y-96186247D02*
X141385714Y-96138628D01*
X141385714Y-96138628D02*
X141338095Y-96043390D01*
X147142857Y-68449580D02*
X147190476Y-68497200D01*
X147190476Y-68497200D02*
X147333333Y-68544819D01*
X147333333Y-68544819D02*
X147428571Y-68544819D01*
X147428571Y-68544819D02*
X147571428Y-68497200D01*
X147571428Y-68497200D02*
X147666666Y-68401961D01*
X147666666Y-68401961D02*
X147714285Y-68306723D01*
X147714285Y-68306723D02*
X147761904Y-68116247D01*
X147761904Y-68116247D02*
X147761904Y-67973390D01*
X147761904Y-67973390D02*
X147714285Y-67782914D01*
X147714285Y-67782914D02*
X147666666Y-67687676D01*
X147666666Y-67687676D02*
X147571428Y-67592438D01*
X147571428Y-67592438D02*
X147428571Y-67544819D01*
X147428571Y-67544819D02*
X147333333Y-67544819D01*
X147333333Y-67544819D02*
X147190476Y-67592438D01*
X147190476Y-67592438D02*
X147142857Y-67640057D01*
X146285714Y-67544819D02*
X146476190Y-67544819D01*
X146476190Y-67544819D02*
X146571428Y-67592438D01*
X146571428Y-67592438D02*
X146619047Y-67640057D01*
X146619047Y-67640057D02*
X146714285Y-67782914D01*
X146714285Y-67782914D02*
X146761904Y-67973390D01*
X146761904Y-67973390D02*
X146761904Y-68354342D01*
X146761904Y-68354342D02*
X146714285Y-68449580D01*
X146714285Y-68449580D02*
X146666666Y-68497200D01*
X146666666Y-68497200D02*
X146571428Y-68544819D01*
X146571428Y-68544819D02*
X146380952Y-68544819D01*
X146380952Y-68544819D02*
X146285714Y-68497200D01*
X146285714Y-68497200D02*
X146238095Y-68449580D01*
X146238095Y-68449580D02*
X146190476Y-68354342D01*
X146190476Y-68354342D02*
X146190476Y-68116247D01*
X146190476Y-68116247D02*
X146238095Y-68021009D01*
X146238095Y-68021009D02*
X146285714Y-67973390D01*
X146285714Y-67973390D02*
X146380952Y-67925771D01*
X146380952Y-67925771D02*
X146571428Y-67925771D01*
X146571428Y-67925771D02*
X146666666Y-67973390D01*
X146666666Y-67973390D02*
X146714285Y-68021009D01*
X146714285Y-68021009D02*
X146761904Y-68116247D01*
X145857142Y-67544819D02*
X145238095Y-67544819D01*
X145238095Y-67544819D02*
X145571428Y-67925771D01*
X145571428Y-67925771D02*
X145428571Y-67925771D01*
X145428571Y-67925771D02*
X145333333Y-67973390D01*
X145333333Y-67973390D02*
X145285714Y-68021009D01*
X145285714Y-68021009D02*
X145238095Y-68116247D01*
X145238095Y-68116247D02*
X145238095Y-68354342D01*
X145238095Y-68354342D02*
X145285714Y-68449580D01*
X145285714Y-68449580D02*
X145333333Y-68497200D01*
X145333333Y-68497200D02*
X145428571Y-68544819D01*
X145428571Y-68544819D02*
X145714285Y-68544819D01*
X145714285Y-68544819D02*
X145809523Y-68497200D01*
X145809523Y-68497200D02*
X145857142Y-68449580D01*
X143842857Y-96279580D02*
X143890476Y-96327200D01*
X143890476Y-96327200D02*
X144033333Y-96374819D01*
X144033333Y-96374819D02*
X144128571Y-96374819D01*
X144128571Y-96374819D02*
X144271428Y-96327200D01*
X144271428Y-96327200D02*
X144366666Y-96231961D01*
X144366666Y-96231961D02*
X144414285Y-96136723D01*
X144414285Y-96136723D02*
X144461904Y-95946247D01*
X144461904Y-95946247D02*
X144461904Y-95803390D01*
X144461904Y-95803390D02*
X144414285Y-95612914D01*
X144414285Y-95612914D02*
X144366666Y-95517676D01*
X144366666Y-95517676D02*
X144271428Y-95422438D01*
X144271428Y-95422438D02*
X144128571Y-95374819D01*
X144128571Y-95374819D02*
X144033333Y-95374819D01*
X144033333Y-95374819D02*
X143890476Y-95422438D01*
X143890476Y-95422438D02*
X143842857Y-95470057D01*
X143509523Y-95374819D02*
X142842857Y-95374819D01*
X142842857Y-95374819D02*
X143271428Y-96374819D01*
X142271428Y-95374819D02*
X142176190Y-95374819D01*
X142176190Y-95374819D02*
X142080952Y-95422438D01*
X142080952Y-95422438D02*
X142033333Y-95470057D01*
X142033333Y-95470057D02*
X141985714Y-95565295D01*
X141985714Y-95565295D02*
X141938095Y-95755771D01*
X141938095Y-95755771D02*
X141938095Y-95993866D01*
X141938095Y-95993866D02*
X141985714Y-96184342D01*
X141985714Y-96184342D02*
X142033333Y-96279580D01*
X142033333Y-96279580D02*
X142080952Y-96327200D01*
X142080952Y-96327200D02*
X142176190Y-96374819D01*
X142176190Y-96374819D02*
X142271428Y-96374819D01*
X142271428Y-96374819D02*
X142366666Y-96327200D01*
X142366666Y-96327200D02*
X142414285Y-96279580D01*
X142414285Y-96279580D02*
X142461904Y-96184342D01*
X142461904Y-96184342D02*
X142509523Y-95993866D01*
X142509523Y-95993866D02*
X142509523Y-95755771D01*
X142509523Y-95755771D02*
X142461904Y-95565295D01*
X142461904Y-95565295D02*
X142414285Y-95470057D01*
X142414285Y-95470057D02*
X142366666Y-95422438D01*
X142366666Y-95422438D02*
X142271428Y-95374819D01*
X145642857Y-66019580D02*
X145690476Y-66067200D01*
X145690476Y-66067200D02*
X145833333Y-66114819D01*
X145833333Y-66114819D02*
X145928571Y-66114819D01*
X145928571Y-66114819D02*
X146071428Y-66067200D01*
X146071428Y-66067200D02*
X146166666Y-65971961D01*
X146166666Y-65971961D02*
X146214285Y-65876723D01*
X146214285Y-65876723D02*
X146261904Y-65686247D01*
X146261904Y-65686247D02*
X146261904Y-65543390D01*
X146261904Y-65543390D02*
X146214285Y-65352914D01*
X146214285Y-65352914D02*
X146166666Y-65257676D01*
X146166666Y-65257676D02*
X146071428Y-65162438D01*
X146071428Y-65162438D02*
X145928571Y-65114819D01*
X145928571Y-65114819D02*
X145833333Y-65114819D01*
X145833333Y-65114819D02*
X145690476Y-65162438D01*
X145690476Y-65162438D02*
X145642857Y-65210057D01*
X144690476Y-66114819D02*
X145261904Y-66114819D01*
X144976190Y-66114819D02*
X144976190Y-65114819D01*
X144976190Y-65114819D02*
X145071428Y-65257676D01*
X145071428Y-65257676D02*
X145166666Y-65352914D01*
X145166666Y-65352914D02*
X145261904Y-65400533D01*
X144357142Y-65114819D02*
X143690476Y-65114819D01*
X143690476Y-65114819D02*
X144119047Y-66114819D01*
X143699580Y-78357142D02*
X143747200Y-78309523D01*
X143747200Y-78309523D02*
X143794819Y-78166666D01*
X143794819Y-78166666D02*
X143794819Y-78071428D01*
X143794819Y-78071428D02*
X143747200Y-77928571D01*
X143747200Y-77928571D02*
X143651961Y-77833333D01*
X143651961Y-77833333D02*
X143556723Y-77785714D01*
X143556723Y-77785714D02*
X143366247Y-77738095D01*
X143366247Y-77738095D02*
X143223390Y-77738095D01*
X143223390Y-77738095D02*
X143032914Y-77785714D01*
X143032914Y-77785714D02*
X142937676Y-77833333D01*
X142937676Y-77833333D02*
X142842438Y-77928571D01*
X142842438Y-77928571D02*
X142794819Y-78071428D01*
X142794819Y-78071428D02*
X142794819Y-78166666D01*
X142794819Y-78166666D02*
X142842438Y-78309523D01*
X142842438Y-78309523D02*
X142890057Y-78357142D01*
X142794819Y-78690476D02*
X142794819Y-79309523D01*
X142794819Y-79309523D02*
X143175771Y-78976190D01*
X143175771Y-78976190D02*
X143175771Y-79119047D01*
X143175771Y-79119047D02*
X143223390Y-79214285D01*
X143223390Y-79214285D02*
X143271009Y-79261904D01*
X143271009Y-79261904D02*
X143366247Y-79309523D01*
X143366247Y-79309523D02*
X143604342Y-79309523D01*
X143604342Y-79309523D02*
X143699580Y-79261904D01*
X143699580Y-79261904D02*
X143747200Y-79214285D01*
X143747200Y-79214285D02*
X143794819Y-79119047D01*
X143794819Y-79119047D02*
X143794819Y-78833333D01*
X143794819Y-78833333D02*
X143747200Y-78738095D01*
X143747200Y-78738095D02*
X143699580Y-78690476D01*
X143128152Y-80166666D02*
X143794819Y-80166666D01*
X142747200Y-79928571D02*
X143461485Y-79690476D01*
X143461485Y-79690476D02*
X143461485Y-80309523D01*
X134142857Y-73159819D02*
X134476190Y-72683628D01*
X134714285Y-73159819D02*
X134714285Y-72159819D01*
X134714285Y-72159819D02*
X134333333Y-72159819D01*
X134333333Y-72159819D02*
X134238095Y-72207438D01*
X134238095Y-72207438D02*
X134190476Y-72255057D01*
X134190476Y-72255057D02*
X134142857Y-72350295D01*
X134142857Y-72350295D02*
X134142857Y-72493152D01*
X134142857Y-72493152D02*
X134190476Y-72588390D01*
X134190476Y-72588390D02*
X134238095Y-72636009D01*
X134238095Y-72636009D02*
X134333333Y-72683628D01*
X134333333Y-72683628D02*
X134714285Y-72683628D01*
X133190476Y-73159819D02*
X133761904Y-73159819D01*
X133476190Y-73159819D02*
X133476190Y-72159819D01*
X133476190Y-72159819D02*
X133571428Y-72302676D01*
X133571428Y-72302676D02*
X133666666Y-72397914D01*
X133666666Y-72397914D02*
X133761904Y-72445533D01*
X132714285Y-73159819D02*
X132523809Y-73159819D01*
X132523809Y-73159819D02*
X132428571Y-73112200D01*
X132428571Y-73112200D02*
X132380952Y-73064580D01*
X132380952Y-73064580D02*
X132285714Y-72921723D01*
X132285714Y-72921723D02*
X132238095Y-72731247D01*
X132238095Y-72731247D02*
X132238095Y-72350295D01*
X132238095Y-72350295D02*
X132285714Y-72255057D01*
X132285714Y-72255057D02*
X132333333Y-72207438D01*
X132333333Y-72207438D02*
X132428571Y-72159819D01*
X132428571Y-72159819D02*
X132619047Y-72159819D01*
X132619047Y-72159819D02*
X132714285Y-72207438D01*
X132714285Y-72207438D02*
X132761904Y-72255057D01*
X132761904Y-72255057D02*
X132809523Y-72350295D01*
X132809523Y-72350295D02*
X132809523Y-72588390D01*
X132809523Y-72588390D02*
X132761904Y-72683628D01*
X132761904Y-72683628D02*
X132714285Y-72731247D01*
X132714285Y-72731247D02*
X132619047Y-72778866D01*
X132619047Y-72778866D02*
X132428571Y-72778866D01*
X132428571Y-72778866D02*
X132333333Y-72731247D01*
X132333333Y-72731247D02*
X132285714Y-72683628D01*
X132285714Y-72683628D02*
X132238095Y-72588390D01*
X135642857Y-61699580D02*
X135690476Y-61747200D01*
X135690476Y-61747200D02*
X135833333Y-61794819D01*
X135833333Y-61794819D02*
X135928571Y-61794819D01*
X135928571Y-61794819D02*
X136071428Y-61747200D01*
X136071428Y-61747200D02*
X136166666Y-61651961D01*
X136166666Y-61651961D02*
X136214285Y-61556723D01*
X136214285Y-61556723D02*
X136261904Y-61366247D01*
X136261904Y-61366247D02*
X136261904Y-61223390D01*
X136261904Y-61223390D02*
X136214285Y-61032914D01*
X136214285Y-61032914D02*
X136166666Y-60937676D01*
X136166666Y-60937676D02*
X136071428Y-60842438D01*
X136071428Y-60842438D02*
X135928571Y-60794819D01*
X135928571Y-60794819D02*
X135833333Y-60794819D01*
X135833333Y-60794819D02*
X135690476Y-60842438D01*
X135690476Y-60842438D02*
X135642857Y-60890057D01*
X135261904Y-60890057D02*
X135214285Y-60842438D01*
X135214285Y-60842438D02*
X135119047Y-60794819D01*
X135119047Y-60794819D02*
X134880952Y-60794819D01*
X134880952Y-60794819D02*
X134785714Y-60842438D01*
X134785714Y-60842438D02*
X134738095Y-60890057D01*
X134738095Y-60890057D02*
X134690476Y-60985295D01*
X134690476Y-60985295D02*
X134690476Y-61080533D01*
X134690476Y-61080533D02*
X134738095Y-61223390D01*
X134738095Y-61223390D02*
X135309523Y-61794819D01*
X135309523Y-61794819D02*
X134690476Y-61794819D01*
X133785714Y-60794819D02*
X134261904Y-60794819D01*
X134261904Y-60794819D02*
X134309523Y-61271009D01*
X134309523Y-61271009D02*
X134261904Y-61223390D01*
X134261904Y-61223390D02*
X134166666Y-61175771D01*
X134166666Y-61175771D02*
X133928571Y-61175771D01*
X133928571Y-61175771D02*
X133833333Y-61223390D01*
X133833333Y-61223390D02*
X133785714Y-61271009D01*
X133785714Y-61271009D02*
X133738095Y-61366247D01*
X133738095Y-61366247D02*
X133738095Y-61604342D01*
X133738095Y-61604342D02*
X133785714Y-61699580D01*
X133785714Y-61699580D02*
X133833333Y-61747200D01*
X133833333Y-61747200D02*
X133928571Y-61794819D01*
X133928571Y-61794819D02*
X134166666Y-61794819D01*
X134166666Y-61794819D02*
X134261904Y-61747200D01*
X134261904Y-61747200D02*
X134309523Y-61699580D01*
X148699580Y-73357142D02*
X148747200Y-73309523D01*
X148747200Y-73309523D02*
X148794819Y-73166666D01*
X148794819Y-73166666D02*
X148794819Y-73071428D01*
X148794819Y-73071428D02*
X148747200Y-72928571D01*
X148747200Y-72928571D02*
X148651961Y-72833333D01*
X148651961Y-72833333D02*
X148556723Y-72785714D01*
X148556723Y-72785714D02*
X148366247Y-72738095D01*
X148366247Y-72738095D02*
X148223390Y-72738095D01*
X148223390Y-72738095D02*
X148032914Y-72785714D01*
X148032914Y-72785714D02*
X147937676Y-72833333D01*
X147937676Y-72833333D02*
X147842438Y-72928571D01*
X147842438Y-72928571D02*
X147794819Y-73071428D01*
X147794819Y-73071428D02*
X147794819Y-73166666D01*
X147794819Y-73166666D02*
X147842438Y-73309523D01*
X147842438Y-73309523D02*
X147890057Y-73357142D01*
X147794819Y-73690476D02*
X147794819Y-74309523D01*
X147794819Y-74309523D02*
X148175771Y-73976190D01*
X148175771Y-73976190D02*
X148175771Y-74119047D01*
X148175771Y-74119047D02*
X148223390Y-74214285D01*
X148223390Y-74214285D02*
X148271009Y-74261904D01*
X148271009Y-74261904D02*
X148366247Y-74309523D01*
X148366247Y-74309523D02*
X148604342Y-74309523D01*
X148604342Y-74309523D02*
X148699580Y-74261904D01*
X148699580Y-74261904D02*
X148747200Y-74214285D01*
X148747200Y-74214285D02*
X148794819Y-74119047D01*
X148794819Y-74119047D02*
X148794819Y-73833333D01*
X148794819Y-73833333D02*
X148747200Y-73738095D01*
X148747200Y-73738095D02*
X148699580Y-73690476D01*
X147890057Y-74690476D02*
X147842438Y-74738095D01*
X147842438Y-74738095D02*
X147794819Y-74833333D01*
X147794819Y-74833333D02*
X147794819Y-75071428D01*
X147794819Y-75071428D02*
X147842438Y-75166666D01*
X147842438Y-75166666D02*
X147890057Y-75214285D01*
X147890057Y-75214285D02*
X147985295Y-75261904D01*
X147985295Y-75261904D02*
X148080533Y-75261904D01*
X148080533Y-75261904D02*
X148223390Y-75214285D01*
X148223390Y-75214285D02*
X148794819Y-74642857D01*
X148794819Y-74642857D02*
X148794819Y-75261904D01*
X142269580Y-70857142D02*
X142317200Y-70809523D01*
X142317200Y-70809523D02*
X142364819Y-70666666D01*
X142364819Y-70666666D02*
X142364819Y-70571428D01*
X142364819Y-70571428D02*
X142317200Y-70428571D01*
X142317200Y-70428571D02*
X142221961Y-70333333D01*
X142221961Y-70333333D02*
X142126723Y-70285714D01*
X142126723Y-70285714D02*
X141936247Y-70238095D01*
X141936247Y-70238095D02*
X141793390Y-70238095D01*
X141793390Y-70238095D02*
X141602914Y-70285714D01*
X141602914Y-70285714D02*
X141507676Y-70333333D01*
X141507676Y-70333333D02*
X141412438Y-70428571D01*
X141412438Y-70428571D02*
X141364819Y-70571428D01*
X141364819Y-70571428D02*
X141364819Y-70666666D01*
X141364819Y-70666666D02*
X141412438Y-70809523D01*
X141412438Y-70809523D02*
X141460057Y-70857142D01*
X141364819Y-71714285D02*
X141364819Y-71523809D01*
X141364819Y-71523809D02*
X141412438Y-71428571D01*
X141412438Y-71428571D02*
X141460057Y-71380952D01*
X141460057Y-71380952D02*
X141602914Y-71285714D01*
X141602914Y-71285714D02*
X141793390Y-71238095D01*
X141793390Y-71238095D02*
X142174342Y-71238095D01*
X142174342Y-71238095D02*
X142269580Y-71285714D01*
X142269580Y-71285714D02*
X142317200Y-71333333D01*
X142317200Y-71333333D02*
X142364819Y-71428571D01*
X142364819Y-71428571D02*
X142364819Y-71619047D01*
X142364819Y-71619047D02*
X142317200Y-71714285D01*
X142317200Y-71714285D02*
X142269580Y-71761904D01*
X142269580Y-71761904D02*
X142174342Y-71809523D01*
X142174342Y-71809523D02*
X141936247Y-71809523D01*
X141936247Y-71809523D02*
X141841009Y-71761904D01*
X141841009Y-71761904D02*
X141793390Y-71714285D01*
X141793390Y-71714285D02*
X141745771Y-71619047D01*
X141745771Y-71619047D02*
X141745771Y-71428571D01*
X141745771Y-71428571D02*
X141793390Y-71333333D01*
X141793390Y-71333333D02*
X141841009Y-71285714D01*
X141841009Y-71285714D02*
X141936247Y-71238095D01*
X141698152Y-72666666D02*
X142364819Y-72666666D01*
X141317200Y-72428571D02*
X142031485Y-72190476D01*
X142031485Y-72190476D02*
X142031485Y-72809523D01*
X148642857Y-65019580D02*
X148690476Y-65067200D01*
X148690476Y-65067200D02*
X148833333Y-65114819D01*
X148833333Y-65114819D02*
X148928571Y-65114819D01*
X148928571Y-65114819D02*
X149071428Y-65067200D01*
X149071428Y-65067200D02*
X149166666Y-64971961D01*
X149166666Y-64971961D02*
X149214285Y-64876723D01*
X149214285Y-64876723D02*
X149261904Y-64686247D01*
X149261904Y-64686247D02*
X149261904Y-64543390D01*
X149261904Y-64543390D02*
X149214285Y-64352914D01*
X149214285Y-64352914D02*
X149166666Y-64257676D01*
X149166666Y-64257676D02*
X149071428Y-64162438D01*
X149071428Y-64162438D02*
X148928571Y-64114819D01*
X148928571Y-64114819D02*
X148833333Y-64114819D01*
X148833333Y-64114819D02*
X148690476Y-64162438D01*
X148690476Y-64162438D02*
X148642857Y-64210057D01*
X148261904Y-64210057D02*
X148214285Y-64162438D01*
X148214285Y-64162438D02*
X148119047Y-64114819D01*
X148119047Y-64114819D02*
X147880952Y-64114819D01*
X147880952Y-64114819D02*
X147785714Y-64162438D01*
X147785714Y-64162438D02*
X147738095Y-64210057D01*
X147738095Y-64210057D02*
X147690476Y-64305295D01*
X147690476Y-64305295D02*
X147690476Y-64400533D01*
X147690476Y-64400533D02*
X147738095Y-64543390D01*
X147738095Y-64543390D02*
X148309523Y-65114819D01*
X148309523Y-65114819D02*
X147690476Y-65114819D01*
X147357142Y-64114819D02*
X146738095Y-64114819D01*
X146738095Y-64114819D02*
X147071428Y-64495771D01*
X147071428Y-64495771D02*
X146928571Y-64495771D01*
X146928571Y-64495771D02*
X146833333Y-64543390D01*
X146833333Y-64543390D02*
X146785714Y-64591009D01*
X146785714Y-64591009D02*
X146738095Y-64686247D01*
X146738095Y-64686247D02*
X146738095Y-64924342D01*
X146738095Y-64924342D02*
X146785714Y-65019580D01*
X146785714Y-65019580D02*
X146833333Y-65067200D01*
X146833333Y-65067200D02*
X146928571Y-65114819D01*
X146928571Y-65114819D02*
X147214285Y-65114819D01*
X147214285Y-65114819D02*
X147309523Y-65067200D01*
X147309523Y-65067200D02*
X147357142Y-65019580D01*
D11*
X107040000Y-44900000D02*
X107040000Y-47500000D01*
X107040000Y-44900000D02*
X157960000Y-44900000D01*
X107040000Y-47500000D02*
X109640000Y-47500000D01*
X107040000Y-48770000D02*
X107040000Y-50100000D01*
X107040000Y-50100000D02*
X108370000Y-50100000D01*
X109640000Y-47500000D02*
X109640000Y-50100000D01*
X109640000Y-50100000D02*
X157960000Y-50100000D01*
X157960000Y-44900000D02*
X157960000Y-50100000D01*
X137892164Y-66140000D02*
X138107836Y-66140000D01*
X137892164Y-66860000D02*
X138107836Y-66860000D01*
X159653641Y-48620000D02*
X159346359Y-48620000D01*
X159653641Y-49380000D02*
X159346359Y-49380000D01*
X143392164Y-68890000D02*
X143607836Y-68890000D01*
X143392164Y-69610000D02*
X143607836Y-69610000D01*
X120596359Y-87870000D02*
X120903641Y-87870000D01*
X120596359Y-88630000D02*
X120903641Y-88630000D01*
X145392164Y-74390000D02*
X145607836Y-74390000D01*
X145392164Y-75110000D02*
X145607836Y-75110000D01*
X136607836Y-93890000D02*
X136392164Y-93890000D01*
X136607836Y-94610000D02*
X136392164Y-94610000D01*
X138096359Y-50870000D02*
X138403641Y-50870000D01*
X138096359Y-51630000D02*
X138403641Y-51630000D01*
X134392164Y-68390000D02*
X134607836Y-68390000D01*
X134392164Y-69110000D02*
X134607836Y-69110000D01*
X159653641Y-47620000D02*
X159346359Y-47620000D01*
X159653641Y-48380000D02*
X159346359Y-48380000D01*
X139607836Y-68890000D02*
X139392164Y-68890000D01*
X139607836Y-69610000D02*
X139392164Y-69610000D01*
X142753641Y-95620000D02*
X142446359Y-95620000D01*
X142753641Y-96380000D02*
X142446359Y-96380000D01*
X142640000Y-71392164D02*
X142640000Y-71607836D01*
X143360000Y-71392164D02*
X143360000Y-71607836D01*
X139357836Y-74640000D02*
X139142164Y-74640000D01*
X139357836Y-75360000D02*
X139142164Y-75360000D01*
X139107836Y-64140000D02*
X138892164Y-64140000D01*
X139107836Y-64860000D02*
X138892164Y-64860000D01*
X138096359Y-51870000D02*
X138403641Y-51870000D01*
X138096359Y-52630000D02*
X138403641Y-52630000D01*
X143720000Y-95346359D02*
X143720000Y-95653641D01*
X144480000Y-95346359D02*
X144480000Y-95653641D01*
X144107836Y-66140000D02*
X143892164Y-66140000D01*
X144107836Y-66860000D02*
X143892164Y-66860000D01*
X159653641Y-46620000D02*
X159346359Y-46620000D01*
X159653641Y-47380000D02*
X159346359Y-47380000D01*
X133607836Y-71890000D02*
X133392164Y-71890000D01*
X133607836Y-72610000D02*
X133392164Y-72610000D01*
X138892164Y-59140000D02*
X139107836Y-59140000D01*
X138892164Y-59860000D02*
X139107836Y-59860000D01*
X139892164Y-62140000D02*
X140107836Y-62140000D01*
X139892164Y-62860000D02*
X140107836Y-62860000D01*
X141890000Y-52892164D02*
X141890000Y-53107836D01*
X142610000Y-52892164D02*
X142610000Y-53107836D01*
X142903641Y-90370000D02*
X142596359Y-90370000D01*
X142903641Y-91130000D02*
X142596359Y-91130000D01*
X137392164Y-68390000D02*
X137607836Y-68390000D01*
X137392164Y-69110000D02*
X137607836Y-69110000D01*
X135392164Y-70890000D02*
X135607836Y-70890000D01*
X135392164Y-71610000D02*
X135607836Y-71610000D01*
X133392164Y-69890000D02*
X133607836Y-69890000D01*
X133392164Y-70610000D02*
X133607836Y-70610000D01*
X143892164Y-61140000D02*
X144107836Y-61140000D01*
X143892164Y-61860000D02*
X144107836Y-61860000D01*
X145107836Y-59140000D02*
X144892164Y-59140000D01*
X145107836Y-59860000D02*
X144892164Y-59860000D01*
X138607836Y-93890000D02*
X138392164Y-93890000D01*
X138607836Y-94610000D02*
X138392164Y-94610000D01*
X140607836Y-93890000D02*
X140392164Y-93890000D01*
X140607836Y-94610000D02*
X140392164Y-94610000D01*
X131392164Y-70890000D02*
X131607836Y-70890000D01*
X131392164Y-71610000D02*
X131607836Y-71610000D01*
X141390000Y-73392164D02*
X141390000Y-73607836D01*
X142110000Y-73392164D02*
X142110000Y-73607836D01*
X143000000Y-50850000D02*
X143000000Y-53650000D01*
X143000000Y-53650000D02*
X145000000Y-53650000D01*
X145000000Y-50850000D02*
X143000000Y-50850000D01*
X145000000Y-53650000D02*
X145000000Y-50850000D01*
X147390000Y-73607836D02*
X147390000Y-73392164D01*
X148110000Y-73607836D02*
X148110000Y-73392164D01*
X139365000Y-51340000D02*
X139365000Y-54560000D01*
X141635000Y-54135568D02*
X141635000Y-51340000D01*
X141830000Y-54570000D02*
X141640000Y-54430000D01*
X141830000Y-54290000D01*
X141830000Y-54570000D01*
G36*
X141830000Y-54570000D02*
G01*
X141640000Y-54430000D01*
X141830000Y-54290000D01*
X141830000Y-54570000D01*
G37*
X147390000Y-71607836D02*
X147390000Y-71392164D01*
X148110000Y-71607836D02*
X148110000Y-71392164D01*
X135142164Y-66640000D02*
X135357836Y-66640000D01*
X135142164Y-67360000D02*
X135357836Y-67360000D01*
X152140000Y-72892164D02*
X152140000Y-73107836D01*
X152860000Y-72892164D02*
X152860000Y-73107836D01*
X131392164Y-72890000D02*
X131607836Y-72890000D01*
X131392164Y-73610000D02*
X131607836Y-73610000D01*
X144692164Y-75440000D02*
X144907836Y-75440000D01*
X144692164Y-76160000D02*
X144907836Y-76160000D01*
X145942164Y-67240000D02*
X146157836Y-67240000D01*
X145942164Y-67960000D02*
X146157836Y-67960000D01*
X142640000Y-75392164D02*
X142640000Y-75607836D01*
X143360000Y-75392164D02*
X143360000Y-75607836D01*
X159653641Y-45620000D02*
X159346359Y-45620000D01*
X159653641Y-46380000D02*
X159346359Y-46380000D01*
X142492164Y-94640000D02*
X142707836Y-94640000D01*
X142492164Y-95360000D02*
X142707836Y-95360000D01*
X146607836Y-68890000D02*
X146392164Y-68890000D01*
X146607836Y-69610000D02*
X146392164Y-69610000D01*
X143340580Y-96840000D02*
X143059420Y-96840000D01*
X143340580Y-97860000D02*
X143059420Y-97860000D01*
X144892164Y-64140000D02*
X145107836Y-64140000D01*
X144892164Y-64860000D02*
X145107836Y-64860000D01*
X144140000Y-78892164D02*
X144140000Y-79107836D01*
X144860000Y-78892164D02*
X144860000Y-79107836D01*
X133653641Y-73495000D02*
X133346359Y-73495000D01*
X133653641Y-74255000D02*
X133346359Y-74255000D01*
X135107836Y-62140000D02*
X134892164Y-62140000D01*
X135107836Y-62860000D02*
X134892164Y-62860000D01*
X149140000Y-73892164D02*
X149140000Y-74107836D01*
X149860000Y-73892164D02*
X149860000Y-74107836D01*
X140390000Y-71607836D02*
X140390000Y-71392164D01*
X141110000Y-71607836D02*
X141110000Y-71392164D01*
X147892164Y-63140000D02*
X148107836Y-63140000D01*
X147892164Y-63860000D02*
X148107836Y-63860000D01*
%LPC*%
G36*
X143250000Y-52100000D02*
G01*
X144750000Y-52100000D01*
X144750000Y-52400000D01*
X143250000Y-52400000D01*
X143250000Y-52100000D01*
G37*
D12*
X103500000Y-47500000D03*
D13*
X160250000Y-60790000D03*
X159234000Y-55710000D03*
X161266000Y-55710000D03*
D12*
X161500000Y-96500000D03*
D14*
X108370000Y-48770000D03*
D15*
X108370000Y-46230000D03*
X110910000Y-48770000D03*
X110910000Y-46230000D03*
X113450000Y-48770000D03*
X113450000Y-46230000D03*
X115990000Y-48770000D03*
X115990000Y-46230000D03*
X118530000Y-48770000D03*
X118530000Y-46230000D03*
X121070000Y-48770000D03*
X121070000Y-46230000D03*
X123610000Y-48770000D03*
X123610000Y-46230000D03*
X126150000Y-48770000D03*
X126150000Y-46230000D03*
X128690000Y-48770000D03*
X128690000Y-46230000D03*
X131230000Y-48770000D03*
X131230000Y-46230000D03*
X133770000Y-48770000D03*
X133770000Y-46230000D03*
X136310000Y-48770000D03*
X136310000Y-46230000D03*
X138850000Y-48770000D03*
X138850000Y-46230000D03*
X141390000Y-48770000D03*
X141390000Y-46230000D03*
X143930000Y-48770000D03*
X143930000Y-46230000D03*
X146470000Y-48770000D03*
X146470000Y-46230000D03*
X149010000Y-48770000D03*
X149010000Y-46230000D03*
X151550000Y-48770000D03*
X151550000Y-46230000D03*
X154090000Y-48770000D03*
X154090000Y-46230000D03*
X156630000Y-48770000D03*
X156630000Y-46230000D03*
D16*
X137520000Y-66500000D03*
X138480000Y-66500000D03*
D17*
X160010000Y-49000000D03*
X158990000Y-49000000D03*
D16*
X143020000Y-69250000D03*
X143980000Y-69250000D03*
D18*
X120240000Y-88250000D03*
X121260000Y-88250000D03*
D16*
X145020000Y-74750000D03*
X145980000Y-74750000D03*
D19*
X136980000Y-94250000D03*
X136020000Y-94250000D03*
D18*
X137740000Y-51250000D03*
X138760000Y-51250000D03*
D16*
X134020000Y-68750000D03*
X134980000Y-68750000D03*
D17*
X160010000Y-48000000D03*
X158990000Y-48000000D03*
D19*
X139980000Y-69250000D03*
X139020000Y-69250000D03*
D17*
X143110000Y-96000000D03*
X142090000Y-96000000D03*
D20*
X143000000Y-71020000D03*
X143000000Y-71980000D03*
D19*
X139730000Y-75000000D03*
X138770000Y-75000000D03*
X139480000Y-64500000D03*
X138520000Y-64500000D03*
D18*
X137740000Y-52250000D03*
X138760000Y-52250000D03*
D21*
X144100000Y-94990000D03*
X144100000Y-96010000D03*
D19*
X144480000Y-66500000D03*
X143520000Y-66500000D03*
D17*
X160010000Y-47000000D03*
X158990000Y-47000000D03*
D19*
X133980000Y-72250000D03*
X133020000Y-72250000D03*
D16*
X138520000Y-59500000D03*
X139480000Y-59500000D03*
X139520000Y-62500000D03*
X140480000Y-62500000D03*
D20*
X142250000Y-52520000D03*
X142250000Y-53480000D03*
D17*
X143260000Y-90750000D03*
X142240000Y-90750000D03*
D16*
X137020000Y-68750000D03*
X137980000Y-68750000D03*
X135020000Y-71250000D03*
X135980000Y-71250000D03*
X133020000Y-70250000D03*
X133980000Y-70250000D03*
X143520000Y-61500000D03*
X144480000Y-61500000D03*
D19*
X145480000Y-59500000D03*
X144520000Y-59500000D03*
X138980000Y-94250000D03*
X138020000Y-94250000D03*
X140980000Y-94250000D03*
X140020000Y-94250000D03*
D16*
X131020000Y-71250000D03*
X131980000Y-71250000D03*
D20*
X141750000Y-73020000D03*
X141750000Y-73980000D03*
D22*
X144000000Y-51600000D03*
X144000000Y-52900000D03*
D23*
X147750000Y-73980000D03*
X147750000Y-73020000D03*
D24*
X141250000Y-54400000D03*
X140750000Y-54400000D03*
X140250000Y-54400000D03*
X139750000Y-54400000D03*
X139750000Y-51500000D03*
X140250000Y-51500000D03*
X140750000Y-51500000D03*
X141250000Y-51500000D03*
D25*
X140500000Y-52950000D03*
D23*
X147750000Y-71980000D03*
X147750000Y-71020000D03*
D16*
X134770000Y-67000000D03*
X135730000Y-67000000D03*
D20*
X152500000Y-72520000D03*
X152500000Y-73480000D03*
D16*
X131020000Y-73250000D03*
X131980000Y-73250000D03*
X144320000Y-75800000D03*
X145280000Y-75800000D03*
X145570000Y-67600000D03*
X146530000Y-67600000D03*
D20*
X143000000Y-75020000D03*
X143000000Y-75980000D03*
D17*
X160010000Y-46000000D03*
X158990000Y-46000000D03*
D16*
X142120000Y-95000000D03*
X143080000Y-95000000D03*
D19*
X146980000Y-69250000D03*
X146020000Y-69250000D03*
D26*
X143975000Y-97350000D03*
X142425000Y-97350000D03*
D16*
X144520000Y-64500000D03*
X145480000Y-64500000D03*
D20*
X144500000Y-78520000D03*
X144500000Y-79480000D03*
D17*
X134010000Y-73875000D03*
X132990000Y-73875000D03*
D19*
X135480000Y-62500000D03*
X134520000Y-62500000D03*
D20*
X149500000Y-73520000D03*
X149500000Y-74480000D03*
D23*
X140750000Y-71980000D03*
X140750000Y-71020000D03*
D16*
X147520000Y-63500000D03*
X148480000Y-63500000D03*
%LPD*%
M02*
