G04 #@! TF.GenerationSoftware,KiCad,Pcbnew,9.99.0-4890-gde912bdc9a*
G04 #@! TF.CreationDate,2026-01-24T23:45:41-08:00*
G04 #@! TF.ProjectId,RPi-HwAB-1,5250692d-4877-4414-922d-312e6b696361,rev?*
G04 #@! TF.SameCoordinates,Original*
G04 #@! TF.FileFunction,Soldermask,Bot*
G04 #@! TF.FilePolarity,Negative*
%FSLAX46Y46*%
G04 Gerber Fmt 4.6, Leading zero omitted, Abs format (unit mm)*
G04 Created by KiCad (PCBNEW 9.99.0-4890-gde912bdc9a) date 2026-01-24 23:45:41*
%MOMM*%
%LPD*%
G01*
G04 APERTURE LIST*
G04 Aperture macros list*
%AMRoundRect*
0 Rectangle with rounded corners*
0 $1 Rounding radius*
0 $2 $3 $4 $5 $6 $7 $8 $9 X,Y pos of 4 corners*
0 Add a 4 corners polygon primitive as box body*
4,1,4,$2,$3,$4,$5,$6,$7,$8,$9,$2,$3,0*
0 Add four circle primitives for the rounded corners*
1,1,$1+$1,$2,$3*
1,1,$1+$1,$4,$5*
1,1,$1+$1,$6,$7*
1,1,$1+$1,$8,$9*
0 Add four rect primitives between the rounded corners*
20,1,$1+$1,$2,$3,$4,$5,0*
20,1,$1+$1,$4,$5,$6,$7,0*
20,1,$1+$1,$6,$7,$8,$9,0*
20,1,$1+$1,$8,$9,$2,$3,0*%
G04 Aperture macros list end*
%ADD10C,2.700000*%
%ADD11C,0.990600*%
%ADD12R,1.700000X1.700000*%
%ADD13O,1.700000X1.700000*%
%ADD14RoundRect,0.140000X-0.140000X-0.170000X0.140000X-0.170000X0.140000X0.170000X-0.140000X0.170000X0*%
%ADD15RoundRect,0.135000X0.135000X0.185000X-0.135000X0.185000X-0.135000X-0.185000X0.135000X-0.185000X0*%
%ADD16RoundRect,0.135000X-0.135000X-0.185000X0.135000X-0.185000X0.135000X0.185000X-0.135000X0.185000X0*%
%ADD17RoundRect,0.140000X0.140000X0.170000X-0.140000X0.170000X-0.140000X-0.170000X0.140000X-0.170000X0*%
%ADD18RoundRect,0.135000X0.185000X-0.135000X0.185000X0.135000X-0.185000X0.135000X-0.185000X-0.135000X0*%
%ADD19RoundRect,0.140000X-0.170000X0.140000X-0.170000X-0.140000X0.170000X-0.140000X0.170000X0.140000X0*%
%ADD20RoundRect,0.135000X-0.185000X0.135000X-0.185000X-0.135000X0.185000X-0.135000X0.185000X0.135000X0*%
%ADD21R,1.500000X1.000000*%
%ADD22RoundRect,0.140000X0.170000X-0.140000X0.170000X0.140000X-0.170000X0.140000X-0.170000X-0.140000X0*%
%ADD23RoundRect,0.062500X0.062500X-0.337500X0.062500X0.337500X-0.062500X0.337500X-0.062500X-0.337500X0*%
%ADD24R,1.400000X1.700000*%
%ADD25RoundRect,0.225000X0.225000X0.250000X-0.225000X0.250000X-0.225000X-0.250000X0.225000X-0.250000X0*%
G04 APERTURE END LIST*
G36*
X143250000Y-52100000D02*
G01*
X144750000Y-52100000D01*
X144750000Y-52400000D01*
X143250000Y-52400000D01*
X143250000Y-52100000D01*
G37*
D10*
X103500000Y-47500000D03*
D11*
X160250000Y-60790000D03*
X159234000Y-55710000D03*
X161266000Y-55710000D03*
D10*
X161500000Y-96500000D03*
D12*
X108370000Y-48770000D03*
D13*
X108370000Y-46230000D03*
X110910000Y-48770000D03*
X110910000Y-46230000D03*
X113450000Y-48770000D03*
X113450000Y-46230000D03*
X115990000Y-48770000D03*
X115990000Y-46230000D03*
X118530000Y-48770000D03*
X118530000Y-46230000D03*
X121070000Y-48770000D03*
X121070000Y-46230000D03*
X123610000Y-48770000D03*
X123610000Y-46230000D03*
X126150000Y-48770000D03*
X126150000Y-46230000D03*
X128690000Y-48770000D03*
X128690000Y-46230000D03*
X131230000Y-48770000D03*
X131230000Y-46230000D03*
X133770000Y-48770000D03*
X133770000Y-46230000D03*
X136310000Y-48770000D03*
X136310000Y-46230000D03*
X138850000Y-48770000D03*
X138850000Y-46230000D03*
X141390000Y-48770000D03*
X141390000Y-46230000D03*
X143930000Y-48770000D03*
X143930000Y-46230000D03*
X146470000Y-48770000D03*
X146470000Y-46230000D03*
X149010000Y-48770000D03*
X149010000Y-46230000D03*
X151550000Y-48770000D03*
X151550000Y-46230000D03*
X154090000Y-48770000D03*
X154090000Y-46230000D03*
X156630000Y-48770000D03*
X156630000Y-46230000D03*
D14*
X137520000Y-66500000D03*
X138480000Y-66500000D03*
D15*
X160010000Y-49000000D03*
X158990000Y-49000000D03*
D14*
X143020000Y-69250000D03*
X143980000Y-69250000D03*
D16*
X120240000Y-88250000D03*
X121260000Y-88250000D03*
D14*
X145020000Y-74750000D03*
X145980000Y-74750000D03*
D17*
X136980000Y-94250000D03*
X136020000Y-94250000D03*
D16*
X137740000Y-51250000D03*
X138760000Y-51250000D03*
D14*
X134020000Y-68750000D03*
X134980000Y-68750000D03*
D18*
X149000000Y-67260000D03*
X149000000Y-66240000D03*
D15*
X160010000Y-48000000D03*
X158990000Y-48000000D03*
D17*
X139980000Y-69250000D03*
X139020000Y-69250000D03*
D15*
X143110000Y-96000000D03*
X142090000Y-96000000D03*
D19*
X143000000Y-71020000D03*
X143000000Y-71980000D03*
D17*
X139730000Y-75000000D03*
X138770000Y-75000000D03*
X139480000Y-64500000D03*
X138520000Y-64500000D03*
D16*
X137740000Y-52250000D03*
X138760000Y-52250000D03*
D20*
X144100000Y-94990000D03*
X144100000Y-96010000D03*
D17*
X144480000Y-66500000D03*
X143520000Y-66500000D03*
D15*
X160010000Y-47000000D03*
X158990000Y-47000000D03*
D17*
X133980000Y-72250000D03*
X133020000Y-72250000D03*
D14*
X138520000Y-59500000D03*
X139480000Y-59500000D03*
X139520000Y-62500000D03*
X140480000Y-62500000D03*
D19*
X142250000Y-52520000D03*
X142250000Y-53480000D03*
D15*
X143260000Y-90750000D03*
X142240000Y-90750000D03*
D14*
X137020000Y-68750000D03*
X137980000Y-68750000D03*
X135020000Y-71250000D03*
X135980000Y-71250000D03*
X133020000Y-70250000D03*
X133980000Y-70250000D03*
X143520000Y-61500000D03*
X144480000Y-61500000D03*
D17*
X145480000Y-59500000D03*
X144520000Y-59500000D03*
X138980000Y-94250000D03*
X138020000Y-94250000D03*
X140980000Y-94250000D03*
X140020000Y-94250000D03*
D14*
X131020000Y-71250000D03*
X131980000Y-71250000D03*
D19*
X141750000Y-73020000D03*
X141750000Y-73980000D03*
D21*
X144000000Y-51600000D03*
X144000000Y-52900000D03*
D22*
X147750000Y-74730000D03*
X147750000Y-73770000D03*
D23*
X141250000Y-54400000D03*
X140750000Y-54400000D03*
X140250000Y-54400000D03*
X139750000Y-54400000D03*
X139750000Y-51500000D03*
X140250000Y-51500000D03*
X140750000Y-51500000D03*
X141250000Y-51500000D03*
D24*
X140500000Y-52950000D03*
D19*
X149000000Y-70770000D03*
X149000000Y-71730000D03*
D14*
X134770000Y-67000000D03*
X135730000Y-67000000D03*
D19*
X152500000Y-72520000D03*
X152500000Y-73480000D03*
D15*
X138510000Y-56400000D03*
X137490000Y-56400000D03*
D14*
X131020000Y-73250000D03*
X131980000Y-73250000D03*
X144320000Y-75800000D03*
X145280000Y-75800000D03*
X145570000Y-67600000D03*
X146530000Y-67600000D03*
D18*
X142250000Y-67260000D03*
X142250000Y-66240000D03*
D19*
X143000000Y-75020000D03*
X143000000Y-75980000D03*
D15*
X160010000Y-46000000D03*
X158990000Y-46000000D03*
D14*
X142120000Y-95000000D03*
X143080000Y-95000000D03*
D17*
X146980000Y-69250000D03*
X146020000Y-69250000D03*
D25*
X143975000Y-97350000D03*
X142425000Y-97350000D03*
D14*
X144520000Y-64500000D03*
X145480000Y-64500000D03*
X142520000Y-78800000D03*
X143480000Y-78800000D03*
D15*
X134010000Y-73875000D03*
X132990000Y-73875000D03*
D17*
X135480000Y-62500000D03*
X134520000Y-62500000D03*
D19*
X149500000Y-73520000D03*
X149500000Y-74480000D03*
D22*
X140750000Y-71980000D03*
X140750000Y-71020000D03*
D14*
X147520000Y-63500000D03*
X148480000Y-63500000D03*
M02*
