ISO-10303-21;
HEADER;
/* Generated by software containing ST-Developer
 * from STEP Tools, Inc. (www.steptools.com) 
 */

FILE_DESCRIPTION(
/* description */ (''),
/* implementation_level */ '2;1');

FILE_NAME(
/* name */ 'D:\\Dokuments\\SiTime\\MBO\\Q3_2017\\QFN_5032_6pins.stp',
/* time_stamp */ '2017-09-15T11:25:25+03:00',
/* author */ ('Oleh Se'),
/* organization */ (''),
/* preprocessor_version */ 'ST-DEVELOPER v15.6',
/* originating_system */ 'Autodesk Inventor 2015',
/* authorisation */ '');

FILE_SCHEMA (('AUTOMOTIVE_DESIGN { 1 0 10303 214 3 1 1 }'));
ENDSEC;

DATA;
#10=MECHANICAL_DESIGN_GEOMETRIC_PRESENTATION_REPRESENTATION('',(#894,#895,
#896,#883,#882,#881,#884,#886,#885,#887,#891,#890,#889,#888,#892,#893,#879,
#880,#874,#875,#876,#877,#878,#873,#872,#871,#860,#859,#861,#864,#863,#862,
#870,#868,#869,#865,#866,#867,#858,#857,#856,#846,#849,#847,#850,#851,#848,
#852,#853,#854,#855),#1533);
#11=SHAPE_REPRESENTATION_RELATIONSHIP('SRR','None',#1542,#12);
#12=ADVANCED_BREP_SHAPE_REPRESENTATION($,(#13),#1532);
#13=MANIFOLD_SOLID_BREP('Solid1',#947);
#14=LINE('',#1287,#110);
#15=LINE('',#1290,#111);
#16=LINE('',#1293,#112);
#17=LINE('',#1295,#113);
#18=LINE('',#1296,#114);
#19=LINE('',#1299,#115);
#20=LINE('',#1301,#116);
#21=LINE('',#1302,#117);
#22=LINE('',#1305,#118);
#23=LINE('',#1307,#119);
#24=LINE('',#1308,#120);
#25=LINE('',#1314,#121);
#26=LINE('',#1316,#122);
#27=LINE('',#1317,#123);
#28=LINE('',#1322,#124);
#29=LINE('',#1324,#125);
#30=LINE('',#1326,#126);
#31=LINE('',#1327,#127);
#32=LINE('',#1333,#128);
#33=LINE('',#1336,#129);
#34=LINE('',#1338,#130);
#35=LINE('',#1339,#131);
#36=LINE('',#1345,#132);
#37=LINE('',#1348,#133);
#38=LINE('',#1350,#134);
#39=LINE('',#1351,#135);
#40=LINE('',#1353,#136);
#41=LINE('',#1354,#137);
#42=LINE('',#1359,#138);
#43=LINE('',#1361,#139);
#44=LINE('',#1363,#140);
#45=LINE('',#1364,#141);
#46=LINE('',#1370,#142);
#47=LINE('',#1373,#143);
#48=LINE('',#1375,#144);
#49=LINE('',#1376,#145);
#50=LINE('',#1382,#146);
#51=LINE('',#1385,#147);
#52=LINE('',#1387,#148);
#53=LINE('',#1388,#149);
#54=LINE('',#1390,#150);
#55=LINE('',#1391,#151);
#56=LINE('',#1396,#152);
#57=LINE('',#1398,#153);
#58=LINE('',#1400,#154);
#59=LINE('',#1401,#155);
#60=LINE('',#1404,#156);
#61=LINE('',#1406,#157);
#62=LINE('',#1407,#158);
#63=LINE('',#1413,#159);
#64=LINE('',#1416,#160);
#65=LINE('',#1418,#161);
#66=LINE('',#1419,#162);
#67=LINE('',#1425,#163);
#68=LINE('',#1427,#164);
#69=LINE('',#1428,#165);
#70=LINE('',#1433,#166);
#71=LINE('',#1435,#167);
#72=LINE('',#1437,#168);
#73=LINE('',#1438,#169);
#74=LINE('',#1444,#170);
#75=LINE('',#1447,#171);
#76=LINE('',#1449,#172);
#77=LINE('',#1450,#173);
#78=LINE('',#1456,#174);
#79=LINE('',#1459,#175);
#80=LINE('',#1461,#176);
#81=LINE('',#1462,#177);
#82=LINE('',#1464,#178);
#83=LINE('',#1465,#179);
#84=LINE('',#1470,#180);
#85=LINE('',#1472,#181);
#86=LINE('',#1474,#182);
#87=LINE('',#1475,#183);
#88=LINE('',#1481,#184);
#89=LINE('',#1484,#185);
#90=LINE('',#1486,#186);
#91=LINE('',#1487,#187);
#92=LINE('',#1493,#188);
#93=LINE('',#1496,#189);
#94=LINE('',#1498,#190);
#95=LINE('',#1499,#191);
#96=LINE('',#1501,#192);
#97=LINE('',#1502,#193);
#98=LINE('',#1507,#194);
#99=LINE('',#1509,#195);
#100=LINE('',#1511,#196);
#101=LINE('',#1512,#197);
#102=LINE('',#1515,#198);
#103=LINE('',#1517,#199);
#104=LINE('',#1518,#200);
#105=LINE('',#1521,#201);
#106=LINE('',#1522,#202);
#107=LINE('',#1525,#203);
#108=LINE('',#1526,#204);
#109=LINE('',#1528,#205);
#110=VECTOR('',#1039,0.05);
#111=VECTOR('',#1042,0.05);
#112=VECTOR('',#1045,0.7);
#113=VECTOR('',#1046,0.7);
#114=VECTOR('',#1047,0.05);
#115=VECTOR('',#1050,0.64);
#116=VECTOR('',#1051,0.64);
#117=VECTOR('',#1052,0.05);
#118=VECTOR('',#1055,0.7);
#119=VECTOR('',#1056,0.7);
#120=VECTOR('',#1057,0.05);
#121=VECTOR('',#1064,0.05);
#122=VECTOR('',#1067,0.24);
#123=VECTOR('',#1068,0.24);
#124=VECTOR('',#1073,0.7);
#125=VECTOR('',#1074,0.05);
#126=VECTOR('',#1075,0.7);
#127=VECTOR('',#1076,0.05);
#128=VECTOR('',#1083,0.05);
#129=VECTOR('',#1086,0.24);
#130=VECTOR('',#1087,0.24);
#131=VECTOR('',#1088,0.05);
#132=VECTOR('',#1095,0.05);
#133=VECTOR('',#1098,0.7);
#134=VECTOR('',#1099,0.7);
#135=VECTOR('',#1100,0.05);
#136=VECTOR('',#1103,0.64);
#137=VECTOR('',#1104,0.64);
#138=VECTOR('',#1109,0.6);
#139=VECTOR('',#1110,0.05);
#140=VECTOR('',#1111,0.6);
#141=VECTOR('',#1112,0.05);
#142=VECTOR('',#1119,0.05);
#143=VECTOR('',#1122,0.14);
#144=VECTOR('',#1123,0.14);
#145=VECTOR('',#1124,0.05);
#146=VECTOR('',#1131,0.05);
#147=VECTOR('',#1134,0.7);
#148=VECTOR('',#1135,0.7);
#149=VECTOR('',#1136,0.05);
#150=VECTOR('',#1139,0.64);
#151=VECTOR('',#1140,0.64);
#152=VECTOR('',#1145,0.64);
#153=VECTOR('',#1146,0.05);
#154=VECTOR('',#1147,0.64);
#155=VECTOR('',#1148,0.05);
#156=VECTOR('',#1151,0.7);
#157=VECTOR('',#1152,0.7);
#158=VECTOR('',#1153,0.05);
#159=VECTOR('',#1160,0.05);
#160=VECTOR('',#1163,0.24);
#161=VECTOR('',#1164,0.24);
#162=VECTOR('',#1165,0.05);
#163=VECTOR('',#1172,0.05);
#164=VECTOR('',#1175,0.7);
#165=VECTOR('',#1176,0.7);
#166=VECTOR('',#1181,0.7);
#167=VECTOR('',#1182,0.05);
#168=VECTOR('',#1183,0.7);
#169=VECTOR('',#1184,0.05);
#170=VECTOR('',#1191,0.05);
#171=VECTOR('',#1194,0.24);
#172=VECTOR('',#1195,0.24);
#173=VECTOR('',#1196,0.05);
#174=VECTOR('',#1203,0.05);
#175=VECTOR('',#1206,0.7);
#176=VECTOR('',#1207,0.7);
#177=VECTOR('',#1208,0.05);
#178=VECTOR('',#1211,0.64);
#179=VECTOR('',#1212,0.64);
#180=VECTOR('',#1217,0.7);
#181=VECTOR('',#1218,0.05);
#182=VECTOR('',#1219,0.7);
#183=VECTOR('',#1220,0.05);
#184=VECTOR('',#1227,0.05);
#185=VECTOR('',#1230,0.24);
#186=VECTOR('',#1231,0.24);
#187=VECTOR('',#1232,0.05);
#188=VECTOR('',#1239,0.05);
#189=VECTOR('',#1242,0.7);
#190=VECTOR('',#1243,0.7);
#191=VECTOR('',#1244,0.05);
#192=VECTOR('',#1247,0.64);
#193=VECTOR('',#1248,0.64);
#194=VECTOR('',#1253,0.803118920210451);
#195=VECTOR('',#1254,4.9);
#196=VECTOR('',#1255,0.803118920210451);
#197=VECTOR('',#1256,5.);
#198=VECTOR('',#1259,3.1);
#199=VECTOR('',#1260,0.803118920210451);
#200=VECTOR('',#1261,3.2);
#201=VECTOR('',#1264,3.1);
#202=VECTOR('',#1265,4.9);
#203=VECTOR('',#1268,0.803118920210451);
#204=VECTOR('',#1269,5.);
#205=VECTOR('',#1272,3.2);
#206=PLANE('',#952);
#207=PLANE('',#956);
#208=PLANE('',#957);
#209=PLANE('',#958);
#210=PLANE('',#962);
#211=PLANE('',#963);
#212=PLANE('',#964);
#213=PLANE('',#968);
#214=PLANE('',#972);
#215=PLANE('',#973);
#216=PLANE('',#974);
#217=PLANE('',#975);
#218=PLANE('',#979);
#219=PLANE('',#983);
#220=PLANE('',#984);
#221=PLANE('',#985);
#222=PLANE('',#986);
#223=PLANE('',#987);
#224=PLANE('',#991);
#225=PLANE('',#995);
#226=PLANE('',#996);
#227=PLANE('',#997);
#228=PLANE('',#1001);
#229=PLANE('',#1005);
#230=PLANE('',#1006);
#231=PLANE('',#1007);
#232=PLANE('',#1008);
#233=PLANE('',#1012);
#234=PLANE('',#1016);
#235=PLANE('',#1017);
#236=PLANE('',#1018);
#237=PLANE('',#1019);
#238=PLANE('',#1020);
#239=PLANE('',#1021);
#240=PLANE('',#1022);
#241=PLANE('',#1023);
#242=PLANE('',#1024);
#243=FACE_BOUND('',#302,.T.);
#244=FACE_BOUND('',#349,.T.);
#245=FACE_BOUND('',#353,.T.);
#246=FACE_BOUND('',#354,.T.);
#247=FACE_BOUND('',#355,.T.);
#248=FACE_BOUND('',#356,.T.);
#249=FACE_BOUND('',#357,.T.);
#250=FACE_BOUND('',#358,.T.);
#251=FACE_OUTER_BOUND('',#301,.T.);
#252=FACE_OUTER_BOUND('',#303,.T.);
#253=FACE_OUTER_BOUND('',#304,.T.);
#254=FACE_OUTER_BOUND('',#305,.T.);
#255=FACE_OUTER_BOUND('',#306,.T.);
#256=FACE_OUTER_BOUND('',#307,.T.);
#257=FACE_OUTER_BOUND('',#308,.T.);
#258=FACE_OUTER_BOUND('',#309,.T.);
#259=FACE_OUTER_BOUND('',#310,.T.);
#260=FACE_OUTER_BOUND('',#311,.T.);
#261=FACE_OUTER_BOUND('',#312,.T.);
#262=FACE_OUTER_BOUND('',#313,.T.);
#263=FACE_OUTER_BOUND('',#314,.T.);
#264=FACE_OUTER_BOUND('',#315,.T.);
#265=FACE_OUTER_BOUND('',#316,.T.);
#266=FACE_OUTER_BOUND('',#317,.T.);
#267=FACE_OUTER_BOUND('',#318,.T.);
#268=FACE_OUTER_BOUND('',#319,.T.);
#269=FACE_OUTER_BOUND('',#320,.T.);
#270=FACE_OUTER_BOUND('',#321,.T.);
#271=FACE_OUTER_BOUND('',#322,.T.);
#272=FACE_OUTER_BOUND('',#323,.T.);
#273=FACE_OUTER_BOUND('',#324,.T.);
#274=FACE_OUTER_BOUND('',#325,.T.);
#275=FACE_OUTER_BOUND('',#326,.T.);
#276=FACE_OUTER_BOUND('',#327,.T.);
#277=FACE_OUTER_BOUND('',#328,.T.);
#278=FACE_OUTER_BOUND('',#329,.T.);
#279=FACE_OUTER_BOUND('',#330,.T.);
#280=FACE_OUTER_BOUND('',#331,.T.);
#281=FACE_OUTER_BOUND('',#332,.T.);
#282=FACE_OUTER_BOUND('',#333,.T.);
#283=FACE_OUTER_BOUND('',#334,.T.);
#284=FACE_OUTER_BOUND('',#335,.T.);
#285=FACE_OUTER_BOUND('',#336,.T.);
#286=FACE_OUTER_BOUND('',#337,.T.);
#287=FACE_OUTER_BOUND('',#338,.T.);
#288=FACE_OUTER_BOUND('',#339,.T.);
#289=FACE_OUTER_BOUND('',#340,.T.);
#290=FACE_OUTER_BOUND('',#341,.T.);
#291=FACE_OUTER_BOUND('',#342,.T.);
#292=FACE_OUTER_BOUND('',#343,.T.);
#293=FACE_OUTER_BOUND('',#344,.T.);
#294=FACE_OUTER_BOUND('',#345,.T.);
#295=FACE_OUTER_BOUND('',#346,.T.);
#296=FACE_OUTER_BOUND('',#347,.T.);
#297=FACE_OUTER_BOUND('',#348,.T.);
#298=FACE_OUTER_BOUND('',#350,.T.);
#299=FACE_OUTER_BOUND('',#351,.T.);
#300=FACE_OUTER_BOUND('',#352,.T.);
#301=EDGE_LOOP('',(#589));
#302=EDGE_LOOP('',(#590));
#303=EDGE_LOOP('',(#591));
#304=EDGE_LOOP('',(#592,#593,#594,#595));
#305=EDGE_LOOP('',(#596,#597,#598,#599));
#306=EDGE_LOOP('',(#600,#601,#602,#603));
#307=EDGE_LOOP('',(#604,#605,#606,#607));
#308=EDGE_LOOP('',(#608,#609,#610,#611));
#309=EDGE_LOOP('',(#612,#613,#614,#615));
#310=EDGE_LOOP('',(#616,#617,#618,#619,#620,#621));
#311=EDGE_LOOP('',(#622,#623,#624,#625));
#312=EDGE_LOOP('',(#626,#627,#628,#629));
#313=EDGE_LOOP('',(#630,#631,#632,#633));
#314=EDGE_LOOP('',(#634,#635,#636,#637));
#315=EDGE_LOOP('',(#638,#639,#640,#641));
#316=EDGE_LOOP('',(#642,#643,#644,#645));
#317=EDGE_LOOP('',(#646,#647,#648,#649,#650,#651));
#318=EDGE_LOOP('',(#652,#653,#654,#655));
#319=EDGE_LOOP('',(#656,#657,#658,#659));
#320=EDGE_LOOP('',(#660,#661,#662,#663));
#321=EDGE_LOOP('',(#664,#665,#666,#667));
#322=EDGE_LOOP('',(#668,#669,#670,#671));
#323=EDGE_LOOP('',(#672,#673,#674,#675));
#324=EDGE_LOOP('',(#676,#677,#678,#679,#680,#681));
#325=EDGE_LOOP('',(#682,#683,#684,#685));
#326=EDGE_LOOP('',(#686,#687,#688,#689));
#327=EDGE_LOOP('',(#690,#691,#692,#693));
#328=EDGE_LOOP('',(#694,#695,#696,#697));
#329=EDGE_LOOP('',(#698,#699,#700,#701));
#330=EDGE_LOOP('',(#702,#703,#704,#705));
#331=EDGE_LOOP('',(#706,#707,#708,#709,#710,#711));
#332=EDGE_LOOP('',(#712,#713,#714,#715));
#333=EDGE_LOOP('',(#716,#717,#718,#719));
#334=EDGE_LOOP('',(#720,#721,#722,#723));
#335=EDGE_LOOP('',(#724,#725,#726,#727));
#336=EDGE_LOOP('',(#728,#729,#730,#731));
#337=EDGE_LOOP('',(#732,#733,#734,#735));
#338=EDGE_LOOP('',(#736,#737,#738,#739,#740,#741));
#339=EDGE_LOOP('',(#742,#743,#744,#745));
#340=EDGE_LOOP('',(#746,#747,#748,#749));
#341=EDGE_LOOP('',(#750,#751,#752,#753));
#342=EDGE_LOOP('',(#754,#755,#756,#757));
#343=EDGE_LOOP('',(#758,#759,#760,#761));
#344=EDGE_LOOP('',(#762,#763,#764,#765));
#345=EDGE_LOOP('',(#766,#767,#768,#769,#770,#771));
#346=EDGE_LOOP('',(#772,#773,#774,#775));
#347=EDGE_LOOP('',(#776,#777,#778,#779));
#348=EDGE_LOOP('',(#780,#781,#782,#783));
#349=EDGE_LOOP('',(#784));
#350=EDGE_LOOP('',(#785,#786,#787,#788));
#351=EDGE_LOOP('',(#789,#790,#791,#792));
#352=EDGE_LOOP('',(#793,#794,#795,#796));
#353=EDGE_LOOP('',(#797,#798,#799,#800,#801,#802));
#354=EDGE_LOOP('',(#803,#804,#805,#806,#807,#808));
#355=EDGE_LOOP('',(#809,#810,#811,#812,#813,#814));
#356=EDGE_LOOP('',(#815,#816,#817,#818,#819,#820));
#357=EDGE_LOOP('',(#821,#822,#823,#824,#825,#826));
#358=EDGE_LOOP('',(#827,#828,#829,#830,#831,#832));
#359=CIRCLE('',#950,0.2);
#360=CIRCLE('',#951,0.2);
#361=CIRCLE('',#954,0.2);
#362=CIRCLE('',#955,0.2);
#363=CIRCLE('',#960,0.2);
#364=CIRCLE('',#961,0.2);
#365=CIRCLE('',#966,0.2);
#366=CIRCLE('',#967,0.2);
#367=CIRCLE('',#970,0.2);
#368=CIRCLE('',#971,0.2);
#369=CIRCLE('',#977,0.3);
#370=CIRCLE('',#978,0.3);
#371=CIRCLE('',#981,0.2);
#372=CIRCLE('',#982,0.2);
#373=CIRCLE('',#989,0.2);
#374=CIRCLE('',#990,0.2);
#375=CIRCLE('',#993,0.2);
#376=CIRCLE('',#994,0.2);
#377=CIRCLE('',#999,0.2);
#378=CIRCLE('',#1000,0.2);
#379=CIRCLE('',#1003,0.2);
#380=CIRCLE('',#1004,0.2);
#381=CIRCLE('',#1010,0.2);
#382=CIRCLE('',#1011,0.2);
#383=CIRCLE('',#1014,0.2);
#384=CIRCLE('',#1015,0.2);
#385=VERTEX_POINT('',#1277);
#386=VERTEX_POINT('',#1279);
#387=VERTEX_POINT('',#1283);
#388=VERTEX_POINT('',#1284);
#389=VERTEX_POINT('',#1286);
#390=VERTEX_POINT('',#1288);
#391=VERTEX_POINT('',#1292);
#392=VERTEX_POINT('',#1294);
#393=VERTEX_POINT('',#1298);
#394=VERTEX_POINT('',#1300);
#395=VERTEX_POINT('',#1304);
#396=VERTEX_POINT('',#1306);
#397=VERTEX_POINT('',#1310);
#398=VERTEX_POINT('',#1312);
#399=VERTEX_POINT('',#1320);
#400=VERTEX_POINT('',#1321);
#401=VERTEX_POINT('',#1323);
#402=VERTEX_POINT('',#1325);
#403=VERTEX_POINT('',#1329);
#404=VERTEX_POINT('',#1331);
#405=VERTEX_POINT('',#1335);
#406=VERTEX_POINT('',#1337);
#407=VERTEX_POINT('',#1341);
#408=VERTEX_POINT('',#1343);
#409=VERTEX_POINT('',#1347);
#410=VERTEX_POINT('',#1349);
#411=VERTEX_POINT('',#1357);
#412=VERTEX_POINT('',#1358);
#413=VERTEX_POINT('',#1360);
#414=VERTEX_POINT('',#1362);
#415=VERTEX_POINT('',#1366);
#416=VERTEX_POINT('',#1368);
#417=VERTEX_POINT('',#1372);
#418=VERTEX_POINT('',#1374);
#419=VERTEX_POINT('',#1378);
#420=VERTEX_POINT('',#1380);
#421=VERTEX_POINT('',#1384);
#422=VERTEX_POINT('',#1386);
#423=VERTEX_POINT('',#1394);
#424=VERTEX_POINT('',#1395);
#425=VERTEX_POINT('',#1397);
#426=VERTEX_POINT('',#1399);
#427=VERTEX_POINT('',#1403);
#428=VERTEX_POINT('',#1405);
#429=VERTEX_POINT('',#1409);
#430=VERTEX_POINT('',#1411);
#431=VERTEX_POINT('',#1415);
#432=VERTEX_POINT('',#1417);
#433=VERTEX_POINT('',#1421);
#434=VERTEX_POINT('',#1423);
#435=VERTEX_POINT('',#1431);
#436=VERTEX_POINT('',#1432);
#437=VERTEX_POINT('',#1434);
#438=VERTEX_POINT('',#1436);
#439=VERTEX_POINT('',#1440);
#440=VERTEX_POINT('',#1442);
#441=VERTEX_POINT('',#1446);
#442=VERTEX_POINT('',#1448);
#443=VERTEX_POINT('',#1452);
#444=VERTEX_POINT('',#1454);
#445=VERTEX_POINT('',#1458);
#446=VERTEX_POINT('',#1460);
#447=VERTEX_POINT('',#1468);
#448=VERTEX_POINT('',#1469);
#449=VERTEX_POINT('',#1471);
#450=VERTEX_POINT('',#1473);
#451=VERTEX_POINT('',#1477);
#452=VERTEX_POINT('',#1479);
#453=VERTEX_POINT('',#1483);
#454=VERTEX_POINT('',#1485);
#455=VERTEX_POINT('',#1489);
#456=VERTEX_POINT('',#1491);
#457=VERTEX_POINT('',#1495);
#458=VERTEX_POINT('',#1497);
#459=VERTEX_POINT('',#1505);
#460=VERTEX_POINT('',#1506);
#461=VERTEX_POINT('',#1508);
#462=VERTEX_POINT('',#1510);
#463=VERTEX_POINT('',#1514);
#464=VERTEX_POINT('',#1516);
#465=VERTEX_POINT('',#1520);
#466=VERTEX_POINT('',#1524);
#467=EDGE_CURVE('',#385,#385,#359,.T.);
#468=EDGE_CURVE('',#386,#386,#360,.T.);
#469=EDGE_CURVE('',#387,#388,#361,.T.);
#470=EDGE_CURVE('',#387,#389,#14,.T.);
#471=EDGE_CURVE('',#390,#389,#362,.T.);
#472=EDGE_CURVE('',#388,#390,#15,.T.);
#473=EDGE_CURVE('',#388,#391,#16,.T.);
#474=EDGE_CURVE('',#392,#390,#17,.T.);
#475=EDGE_CURVE('',#391,#392,#18,.T.);
#476=EDGE_CURVE('',#391,#393,#19,.T.);
#477=EDGE_CURVE('',#394,#392,#20,.T.);
#478=EDGE_CURVE('',#393,#394,#21,.T.);
#479=EDGE_CURVE('',#393,#395,#22,.T.);
#480=EDGE_CURVE('',#396,#394,#23,.T.);
#481=EDGE_CURVE('',#395,#396,#24,.T.);
#482=EDGE_CURVE('',#395,#397,#363,.T.);
#483=EDGE_CURVE('',#398,#396,#364,.T.);
#484=EDGE_CURVE('',#397,#398,#25,.T.);
#485=EDGE_CURVE('',#397,#387,#26,.T.);
#486=EDGE_CURVE('',#389,#398,#27,.T.);
#487=EDGE_CURVE('',#399,#400,#28,.T.);
#488=EDGE_CURVE('',#399,#401,#29,.T.);
#489=EDGE_CURVE('',#402,#401,#30,.T.);
#490=EDGE_CURVE('',#400,#402,#31,.T.);
#491=EDGE_CURVE('',#400,#403,#365,.T.);
#492=EDGE_CURVE('',#404,#402,#366,.T.);
#493=EDGE_CURVE('',#403,#404,#32,.T.);
#494=EDGE_CURVE('',#403,#405,#33,.T.);
#495=EDGE_CURVE('',#406,#404,#34,.T.);
#496=EDGE_CURVE('',#405,#406,#35,.T.);
#497=EDGE_CURVE('',#405,#407,#367,.T.);
#498=EDGE_CURVE('',#408,#406,#368,.T.);
#499=EDGE_CURVE('',#407,#408,#36,.T.);
#500=EDGE_CURVE('',#407,#409,#37,.T.);
#501=EDGE_CURVE('',#410,#408,#38,.T.);
#502=EDGE_CURVE('',#409,#410,#39,.T.);
#503=EDGE_CURVE('',#409,#399,#40,.T.);
#504=EDGE_CURVE('',#401,#410,#41,.T.);
#505=EDGE_CURVE('',#411,#412,#42,.T.);
#506=EDGE_CURVE('',#411,#413,#43,.T.);
#507=EDGE_CURVE('',#414,#413,#44,.T.);
#508=EDGE_CURVE('',#412,#414,#45,.T.);
#509=EDGE_CURVE('',#412,#415,#369,.T.);
#510=EDGE_CURVE('',#416,#414,#370,.T.);
#511=EDGE_CURVE('',#415,#416,#46,.T.);
#512=EDGE_CURVE('',#415,#417,#47,.T.);
#513=EDGE_CURVE('',#418,#416,#48,.T.);
#514=EDGE_CURVE('',#417,#418,#49,.T.);
#515=EDGE_CURVE('',#417,#419,#371,.T.);
#516=EDGE_CURVE('',#420,#418,#372,.T.);
#517=EDGE_CURVE('',#419,#420,#50,.T.);
#518=EDGE_CURVE('',#419,#421,#51,.T.);
#519=EDGE_CURVE('',#422,#420,#52,.T.);
#520=EDGE_CURVE('',#421,#422,#53,.T.);
#521=EDGE_CURVE('',#421,#411,#54,.T.);
#522=EDGE_CURVE('',#413,#422,#55,.T.);
#523=EDGE_CURVE('',#423,#424,#56,.T.);
#524=EDGE_CURVE('',#423,#425,#57,.T.);
#525=EDGE_CURVE('',#426,#425,#58,.T.);
#526=EDGE_CURVE('',#424,#426,#59,.T.);
#527=EDGE_CURVE('',#424,#427,#60,.T.);
#528=EDGE_CURVE('',#428,#426,#61,.T.);
#529=EDGE_CURVE('',#427,#428,#62,.T.);
#530=EDGE_CURVE('',#427,#429,#373,.T.);
#531=EDGE_CURVE('',#430,#428,#374,.T.);
#532=EDGE_CURVE('',#429,#430,#63,.T.);
#533=EDGE_CURVE('',#429,#431,#64,.T.);
#534=EDGE_CURVE('',#432,#430,#65,.T.);
#535=EDGE_CURVE('',#431,#432,#66,.T.);
#536=EDGE_CURVE('',#431,#433,#375,.T.);
#537=EDGE_CURVE('',#434,#432,#376,.T.);
#538=EDGE_CURVE('',#433,#434,#67,.T.);
#539=EDGE_CURVE('',#433,#423,#68,.T.);
#540=EDGE_CURVE('',#425,#434,#69,.T.);
#541=EDGE_CURVE('',#435,#436,#70,.T.);
#542=EDGE_CURVE('',#435,#437,#71,.T.);
#543=EDGE_CURVE('',#438,#437,#72,.T.);
#544=EDGE_CURVE('',#436,#438,#73,.T.);
#545=EDGE_CURVE('',#436,#439,#377,.T.);
#546=EDGE_CURVE('',#440,#438,#378,.T.);
#547=EDGE_CURVE('',#439,#440,#74,.T.);
#548=EDGE_CURVE('',#439,#441,#75,.T.);
#549=EDGE_CURVE('',#442,#440,#76,.T.);
#550=EDGE_CURVE('',#441,#442,#77,.T.);
#551=EDGE_CURVE('',#441,#443,#379,.T.);
#552=EDGE_CURVE('',#444,#442,#380,.T.);
#553=EDGE_CURVE('',#443,#444,#78,.T.);
#554=EDGE_CURVE('',#443,#445,#79,.T.);
#555=EDGE_CURVE('',#446,#444,#80,.T.);
#556=EDGE_CURVE('',#445,#446,#81,.T.);
#557=EDGE_CURVE('',#445,#435,#82,.T.);
#558=EDGE_CURVE('',#437,#446,#83,.T.);
#559=EDGE_CURVE('',#447,#448,#84,.T.);
#560=EDGE_CURVE('',#447,#449,#85,.T.);
#561=EDGE_CURVE('',#450,#449,#86,.T.);
#562=EDGE_CURVE('',#448,#450,#87,.T.);
#563=EDGE_CURVE('',#448,#451,#381,.T.);
#564=EDGE_CURVE('',#452,#450,#382,.T.);
#565=EDGE_CURVE('',#451,#452,#88,.T.);
#566=EDGE_CURVE('',#451,#453,#89,.T.);
#567=EDGE_CURVE('',#454,#452,#90,.T.);
#568=EDGE_CURVE('',#453,#454,#91,.T.);
#569=EDGE_CURVE('',#453,#455,#383,.T.);
#570=EDGE_CURVE('',#456,#454,#384,.T.);
#571=EDGE_CURVE('',#455,#456,#92,.T.);
#572=EDGE_CURVE('',#455,#457,#93,.T.);
#573=EDGE_CURVE('',#458,#456,#94,.T.);
#574=EDGE_CURVE('',#457,#458,#95,.T.);
#575=EDGE_CURVE('',#457,#447,#96,.T.);
#576=EDGE_CURVE('',#449,#458,#97,.T.);
#577=EDGE_CURVE('',#459,#460,#98,.T.);
#578=EDGE_CURVE('',#460,#461,#99,.T.);
#579=EDGE_CURVE('',#461,#462,#100,.T.);
#580=EDGE_CURVE('',#459,#462,#101,.T.);
#581=EDGE_CURVE('',#461,#463,#102,.T.);
#582=EDGE_CURVE('',#464,#463,#103,.T.);
#583=EDGE_CURVE('',#462,#464,#104,.T.);
#584=EDGE_CURVE('',#465,#460,#105,.T.);
#585=EDGE_CURVE('',#463,#465,#106,.T.);
#586=EDGE_CURVE('',#465,#466,#107,.T.);
#587=EDGE_CURVE('',#464,#466,#108,.T.);
#588=EDGE_CURVE('',#466,#459,#109,.T.);
#589=ORIENTED_EDGE('',*,*,#467,.T.);
#590=ORIENTED_EDGE('',*,*,#468,.F.);
#591=ORIENTED_EDGE('',*,*,#467,.F.);
#592=ORIENTED_EDGE('',*,*,#469,.F.);
#593=ORIENTED_EDGE('',*,*,#470,.T.);
#594=ORIENTED_EDGE('',*,*,#471,.F.);
#595=ORIENTED_EDGE('',*,*,#472,.F.);
#596=ORIENTED_EDGE('',*,*,#473,.F.);
#597=ORIENTED_EDGE('',*,*,#472,.T.);
#598=ORIENTED_EDGE('',*,*,#474,.F.);
#599=ORIENTED_EDGE('',*,*,#475,.F.);
#600=ORIENTED_EDGE('',*,*,#476,.F.);
#601=ORIENTED_EDGE('',*,*,#475,.T.);
#602=ORIENTED_EDGE('',*,*,#477,.F.);
#603=ORIENTED_EDGE('',*,*,#478,.F.);
#604=ORIENTED_EDGE('',*,*,#479,.F.);
#605=ORIENTED_EDGE('',*,*,#478,.T.);
#606=ORIENTED_EDGE('',*,*,#480,.F.);
#607=ORIENTED_EDGE('',*,*,#481,.F.);
#608=ORIENTED_EDGE('',*,*,#482,.F.);
#609=ORIENTED_EDGE('',*,*,#481,.T.);
#610=ORIENTED_EDGE('',*,*,#483,.F.);
#611=ORIENTED_EDGE('',*,*,#484,.F.);
#612=ORIENTED_EDGE('',*,*,#485,.F.);
#613=ORIENTED_EDGE('',*,*,#484,.T.);
#614=ORIENTED_EDGE('',*,*,#486,.F.);
#615=ORIENTED_EDGE('',*,*,#470,.F.);
#616=ORIENTED_EDGE('',*,*,#486,.T.);
#617=ORIENTED_EDGE('',*,*,#483,.T.);
#618=ORIENTED_EDGE('',*,*,#480,.T.);
#619=ORIENTED_EDGE('',*,*,#477,.T.);
#620=ORIENTED_EDGE('',*,*,#474,.T.);
#621=ORIENTED_EDGE('',*,*,#471,.T.);
#622=ORIENTED_EDGE('',*,*,#487,.F.);
#623=ORIENTED_EDGE('',*,*,#488,.T.);
#624=ORIENTED_EDGE('',*,*,#489,.F.);
#625=ORIENTED_EDGE('',*,*,#490,.F.);
#626=ORIENTED_EDGE('',*,*,#491,.F.);
#627=ORIENTED_EDGE('',*,*,#490,.T.);
#628=ORIENTED_EDGE('',*,*,#492,.F.);
#629=ORIENTED_EDGE('',*,*,#493,.F.);
#630=ORIENTED_EDGE('',*,*,#494,.F.);
#631=ORIENTED_EDGE('',*,*,#493,.T.);
#632=ORIENTED_EDGE('',*,*,#495,.F.);
#633=ORIENTED_EDGE('',*,*,#496,.F.);
#634=ORIENTED_EDGE('',*,*,#497,.F.);
#635=ORIENTED_EDGE('',*,*,#496,.T.);
#636=ORIENTED_EDGE('',*,*,#498,.F.);
#637=ORIENTED_EDGE('',*,*,#499,.F.);
#638=ORIENTED_EDGE('',*,*,#500,.F.);
#639=ORIENTED_EDGE('',*,*,#499,.T.);
#640=ORIENTED_EDGE('',*,*,#501,.F.);
#641=ORIENTED_EDGE('',*,*,#502,.F.);
#642=ORIENTED_EDGE('',*,*,#503,.F.);
#643=ORIENTED_EDGE('',*,*,#502,.T.);
#644=ORIENTED_EDGE('',*,*,#504,.F.);
#645=ORIENTED_EDGE('',*,*,#488,.F.);
#646=ORIENTED_EDGE('',*,*,#504,.T.);
#647=ORIENTED_EDGE('',*,*,#501,.T.);
#648=ORIENTED_EDGE('',*,*,#498,.T.);
#649=ORIENTED_EDGE('',*,*,#495,.T.);
#650=ORIENTED_EDGE('',*,*,#492,.T.);
#651=ORIENTED_EDGE('',*,*,#489,.T.);
#652=ORIENTED_EDGE('',*,*,#505,.F.);
#653=ORIENTED_EDGE('',*,*,#506,.T.);
#654=ORIENTED_EDGE('',*,*,#507,.F.);
#655=ORIENTED_EDGE('',*,*,#508,.F.);
#656=ORIENTED_EDGE('',*,*,#509,.F.);
#657=ORIENTED_EDGE('',*,*,#508,.T.);
#658=ORIENTED_EDGE('',*,*,#510,.F.);
#659=ORIENTED_EDGE('',*,*,#511,.F.);
#660=ORIENTED_EDGE('',*,*,#512,.F.);
#661=ORIENTED_EDGE('',*,*,#511,.T.);
#662=ORIENTED_EDGE('',*,*,#513,.F.);
#663=ORIENTED_EDGE('',*,*,#514,.F.);
#664=ORIENTED_EDGE('',*,*,#515,.F.);
#665=ORIENTED_EDGE('',*,*,#514,.T.);
#666=ORIENTED_EDGE('',*,*,#516,.F.);
#667=ORIENTED_EDGE('',*,*,#517,.F.);
#668=ORIENTED_EDGE('',*,*,#518,.F.);
#669=ORIENTED_EDGE('',*,*,#517,.T.);
#670=ORIENTED_EDGE('',*,*,#519,.F.);
#671=ORIENTED_EDGE('',*,*,#520,.F.);
#672=ORIENTED_EDGE('',*,*,#521,.F.);
#673=ORIENTED_EDGE('',*,*,#520,.T.);
#674=ORIENTED_EDGE('',*,*,#522,.F.);
#675=ORIENTED_EDGE('',*,*,#506,.F.);
#676=ORIENTED_EDGE('',*,*,#522,.T.);
#677=ORIENTED_EDGE('',*,*,#519,.T.);
#678=ORIENTED_EDGE('',*,*,#516,.T.);
#679=ORIENTED_EDGE('',*,*,#513,.T.);
#680=ORIENTED_EDGE('',*,*,#510,.T.);
#681=ORIENTED_EDGE('',*,*,#507,.T.);
#682=ORIENTED_EDGE('',*,*,#523,.F.);
#683=ORIENTED_EDGE('',*,*,#524,.T.);
#684=ORIENTED_EDGE('',*,*,#525,.F.);
#685=ORIENTED_EDGE('',*,*,#526,.F.);
#686=ORIENTED_EDGE('',*,*,#527,.F.);
#687=ORIENTED_EDGE('',*,*,#526,.T.);
#688=ORIENTED_EDGE('',*,*,#528,.F.);
#689=ORIENTED_EDGE('',*,*,#529,.F.);
#690=ORIENTED_EDGE('',*,*,#530,.F.);
#691=ORIENTED_EDGE('',*,*,#529,.T.);
#692=ORIENTED_EDGE('',*,*,#531,.F.);
#693=ORIENTED_EDGE('',*,*,#532,.F.);
#694=ORIENTED_EDGE('',*,*,#533,.F.);
#695=ORIENTED_EDGE('',*,*,#532,.T.);
#696=ORIENTED_EDGE('',*,*,#534,.F.);
#697=ORIENTED_EDGE('',*,*,#535,.F.);
#698=ORIENTED_EDGE('',*,*,#536,.F.);
#699=ORIENTED_EDGE('',*,*,#535,.T.);
#700=ORIENTED_EDGE('',*,*,#537,.F.);
#701=ORIENTED_EDGE('',*,*,#538,.F.);
#702=ORIENTED_EDGE('',*,*,#539,.F.);
#703=ORIENTED_EDGE('',*,*,#538,.T.);
#704=ORIENTED_EDGE('',*,*,#540,.F.);
#705=ORIENTED_EDGE('',*,*,#524,.F.);
#706=ORIENTED_EDGE('',*,*,#540,.T.);
#707=ORIENTED_EDGE('',*,*,#537,.T.);
#708=ORIENTED_EDGE('',*,*,#534,.T.);
#709=ORIENTED_EDGE('',*,*,#531,.T.);
#710=ORIENTED_EDGE('',*,*,#528,.T.);
#711=ORIENTED_EDGE('',*,*,#525,.T.);
#712=ORIENTED_EDGE('',*,*,#541,.F.);
#713=ORIENTED_EDGE('',*,*,#542,.T.);
#714=ORIENTED_EDGE('',*,*,#543,.F.);
#715=ORIENTED_EDGE('',*,*,#544,.F.);
#716=ORIENTED_EDGE('',*,*,#545,.F.);
#717=ORIENTED_EDGE('',*,*,#544,.T.);
#718=ORIENTED_EDGE('',*,*,#546,.F.);
#719=ORIENTED_EDGE('',*,*,#547,.F.);
#720=ORIENTED_EDGE('',*,*,#548,.F.);
#721=ORIENTED_EDGE('',*,*,#547,.T.);
#722=ORIENTED_EDGE('',*,*,#549,.F.);
#723=ORIENTED_EDGE('',*,*,#550,.F.);
#724=ORIENTED_EDGE('',*,*,#551,.F.);
#725=ORIENTED_EDGE('',*,*,#550,.T.);
#726=ORIENTED_EDGE('',*,*,#552,.F.);
#727=ORIENTED_EDGE('',*,*,#553,.F.);
#728=ORIENTED_EDGE('',*,*,#554,.F.);
#729=ORIENTED_EDGE('',*,*,#553,.T.);
#730=ORIENTED_EDGE('',*,*,#555,.F.);
#731=ORIENTED_EDGE('',*,*,#556,.F.);
#732=ORIENTED_EDGE('',*,*,#557,.F.);
#733=ORIENTED_EDGE('',*,*,#556,.T.);
#734=ORIENTED_EDGE('',*,*,#558,.F.);
#735=ORIENTED_EDGE('',*,*,#542,.F.);
#736=ORIENTED_EDGE('',*,*,#558,.T.);
#737=ORIENTED_EDGE('',*,*,#555,.T.);
#738=ORIENTED_EDGE('',*,*,#552,.T.);
#739=ORIENTED_EDGE('',*,*,#549,.T.);
#740=ORIENTED_EDGE('',*,*,#546,.T.);
#741=ORIENTED_EDGE('',*,*,#543,.T.);
#742=ORIENTED_EDGE('',*,*,#559,.F.);
#743=ORIENTED_EDGE('',*,*,#560,.T.);
#744=ORIENTED_EDGE('',*,*,#561,.F.);
#745=ORIENTED_EDGE('',*,*,#562,.F.);
#746=ORIENTED_EDGE('',*,*,#563,.F.);
#747=ORIENTED_EDGE('',*,*,#562,.T.);
#748=ORIENTED_EDGE('',*,*,#564,.F.);
#749=ORIENTED_EDGE('',*,*,#565,.F.);
#750=ORIENTED_EDGE('',*,*,#566,.F.);
#751=ORIENTED_EDGE('',*,*,#565,.T.);
#752=ORIENTED_EDGE('',*,*,#567,.F.);
#753=ORIENTED_EDGE('',*,*,#568,.F.);
#754=ORIENTED_EDGE('',*,*,#569,.F.);
#755=ORIENTED_EDGE('',*,*,#568,.T.);
#756=ORIENTED_EDGE('',*,*,#570,.F.);
#757=ORIENTED_EDGE('',*,*,#571,.F.);
#758=ORIENTED_EDGE('',*,*,#572,.F.);
#759=ORIENTED_EDGE('',*,*,#571,.T.);
#760=ORIENTED_EDGE('',*,*,#573,.F.);
#761=ORIENTED_EDGE('',*,*,#574,.F.);
#762=ORIENTED_EDGE('',*,*,#575,.F.);
#763=ORIENTED_EDGE('',*,*,#574,.T.);
#764=ORIENTED_EDGE('',*,*,#576,.F.);
#765=ORIENTED_EDGE('',*,*,#560,.F.);
#766=ORIENTED_EDGE('',*,*,#576,.T.);
#767=ORIENTED_EDGE('',*,*,#573,.T.);
#768=ORIENTED_EDGE('',*,*,#570,.T.);
#769=ORIENTED_EDGE('',*,*,#567,.T.);
#770=ORIENTED_EDGE('',*,*,#564,.T.);
#771=ORIENTED_EDGE('',*,*,#561,.T.);
#772=ORIENTED_EDGE('',*,*,#577,.T.);
#773=ORIENTED_EDGE('',*,*,#578,.T.);
#774=ORIENTED_EDGE('',*,*,#579,.T.);
#775=ORIENTED_EDGE('',*,*,#580,.F.);
#776=ORIENTED_EDGE('',*,*,#579,.F.);
#777=ORIENTED_EDGE('',*,*,#581,.T.);
#778=ORIENTED_EDGE('',*,*,#582,.F.);
#779=ORIENTED_EDGE('',*,*,#583,.F.);
#780=ORIENTED_EDGE('',*,*,#578,.F.);
#781=ORIENTED_EDGE('',*,*,#584,.F.);
#782=ORIENTED_EDGE('',*,*,#585,.F.);
#783=ORIENTED_EDGE('',*,*,#581,.F.);
#784=ORIENTED_EDGE('',*,*,#468,.T.);
#785=ORIENTED_EDGE('',*,*,#582,.T.);
#786=ORIENTED_EDGE('',*,*,#585,.T.);
#787=ORIENTED_EDGE('',*,*,#586,.T.);
#788=ORIENTED_EDGE('',*,*,#587,.F.);
#789=ORIENTED_EDGE('',*,*,#577,.F.);
#790=ORIENTED_EDGE('',*,*,#588,.F.);
#791=ORIENTED_EDGE('',*,*,#586,.F.);
#792=ORIENTED_EDGE('',*,*,#584,.T.);
#793=ORIENTED_EDGE('',*,*,#588,.T.);
#794=ORIENTED_EDGE('',*,*,#580,.T.);
#795=ORIENTED_EDGE('',*,*,#583,.T.);
#796=ORIENTED_EDGE('',*,*,#587,.T.);
#797=ORIENTED_EDGE('',*,*,#469,.T.);
#798=ORIENTED_EDGE('',*,*,#473,.T.);
#799=ORIENTED_EDGE('',*,*,#476,.T.);
#800=ORIENTED_EDGE('',*,*,#479,.T.);
#801=ORIENTED_EDGE('',*,*,#482,.T.);
#802=ORIENTED_EDGE('',*,*,#485,.T.);
#803=ORIENTED_EDGE('',*,*,#487,.T.);
#804=ORIENTED_EDGE('',*,*,#491,.T.);
#805=ORIENTED_EDGE('',*,*,#494,.T.);
#806=ORIENTED_EDGE('',*,*,#497,.T.);
#807=ORIENTED_EDGE('',*,*,#500,.T.);
#808=ORIENTED_EDGE('',*,*,#503,.T.);
#809=ORIENTED_EDGE('',*,*,#505,.T.);
#810=ORIENTED_EDGE('',*,*,#509,.T.);
#811=ORIENTED_EDGE('',*,*,#512,.T.);
#812=ORIENTED_EDGE('',*,*,#515,.T.);
#813=ORIENTED_EDGE('',*,*,#518,.T.);
#814=ORIENTED_EDGE('',*,*,#521,.T.);
#815=ORIENTED_EDGE('',*,*,#523,.T.);
#816=ORIENTED_EDGE('',*,*,#527,.T.);
#817=ORIENTED_EDGE('',*,*,#530,.T.);
#818=ORIENTED_EDGE('',*,*,#533,.T.);
#819=ORIENTED_EDGE('',*,*,#536,.T.);
#820=ORIENTED_EDGE('',*,*,#539,.T.);
#821=ORIENTED_EDGE('',*,*,#541,.T.);
#822=ORIENTED_EDGE('',*,*,#545,.T.);
#823=ORIENTED_EDGE('',*,*,#548,.T.);
#824=ORIENTED_EDGE('',*,*,#551,.T.);
#825=ORIENTED_EDGE('',*,*,#554,.T.);
#826=ORIENTED_EDGE('',*,*,#557,.T.);
#827=ORIENTED_EDGE('',*,*,#559,.T.);
#828=ORIENTED_EDGE('',*,*,#563,.T.);
#829=ORIENTED_EDGE('',*,*,#566,.T.);
#830=ORIENTED_EDGE('',*,*,#569,.T.);
#831=ORIENTED_EDGE('',*,*,#572,.T.);
#832=ORIENTED_EDGE('',*,*,#575,.T.);
#833=CYLINDRICAL_SURFACE('',#949,0.2);
#834=CYLINDRICAL_SURFACE('',#953,0.2);
#835=CYLINDRICAL_SURFACE('',#959,0.2);
#836=CYLINDRICAL_SURFACE('',#965,0.2);
#837=CYLINDRICAL_SURFACE('',#969,0.2);
#838=CYLINDRICAL_SURFACE('',#976,0.3);
#839=CYLINDRICAL_SURFACE('',#980,0.2);
#840=CYLINDRICAL_SURFACE('',#988,0.2);
#841=CYLINDRICAL_SURFACE('',#992,0.2);
#842=CYLINDRICAL_SURFACE('',#998,0.2);
#843=CYLINDRICAL_SURFACE('',#1002,0.2);
#844=CYLINDRICAL_SURFACE('',#1009,0.2);
#845=CYLINDRICAL_SURFACE('',#1013,0.2);
#846=STYLED_ITEM('',(#1552),#897);
#847=STYLED_ITEM('',(#1552),#898);
#848=STYLED_ITEM('',(#1553),#899);
#849=STYLED_ITEM('',(#1553),#900);
#850=STYLED_ITEM('',(#1553),#901);
#851=STYLED_ITEM('',(#1553),#902);
#852=STYLED_ITEM('',(#1553),#903);
#853=STYLED_ITEM('',(#1553),#904);
#854=STYLED_ITEM('',(#1553),#905);
#855=STYLED_ITEM('',(#1553),#906);
#856=STYLED_ITEM('',(#1553),#907);
#857=STYLED_ITEM('',(#1553),#908);
#858=STYLED_ITEM('',(#1553),#909);
#859=STYLED_ITEM('',(#1553),#910);
#860=STYLED_ITEM('',(#1553),#911);
#861=STYLED_ITEM('',(#1553),#912);
#862=STYLED_ITEM('',(#1553),#913);
#863=STYLED_ITEM('',(#1553),#914);
#864=STYLED_ITEM('',(#1553),#915);
#865=STYLED_ITEM('',(#1553),#916);
#866=STYLED_ITEM('',(#1553),#917);
#867=STYLED_ITEM('',(#1553),#918);
#868=STYLED_ITEM('',(#1553),#919);
#869=STYLED_ITEM('',(#1553),#920);
#870=STYLED_ITEM('',(#1553),#921);
#871=STYLED_ITEM('',(#1553),#922);
#872=STYLED_ITEM('',(#1553),#923);
#873=STYLED_ITEM('',(#1553),#924);
#874=STYLED_ITEM('',(#1553),#925);
#875=STYLED_ITEM('',(#1553),#926);
#876=STYLED_ITEM('',(#1553),#927);
#877=STYLED_ITEM('',(#1553),#928);
#878=STYLED_ITEM('',(#1553),#929);
#879=STYLED_ITEM('',(#1553),#930);
#880=STYLED_ITEM('',(#1553),#931);
#881=STYLED_ITEM('',(#1553),#932);
#882=STYLED_ITEM('',(#1553),#933);
#883=STYLED_ITEM('',(#1553),#934);
#884=STYLED_ITEM('',(#1553),#935);
#885=STYLED_ITEM('',(#1553),#936);
#886=STYLED_ITEM('',(#1553),#937);
#887=STYLED_ITEM('',(#1553),#938);
#888=STYLED_ITEM('',(#1553),#939);
#889=STYLED_ITEM('',(#1553),#940);
#890=STYLED_ITEM('',(#1554),#941);
#891=STYLED_ITEM('',(#1554),#942);
#892=STYLED_ITEM('',(#1554),#943);
#893=STYLED_ITEM('',(#1554),#944);
#894=STYLED_ITEM('',(#1554),#945);
#895=STYLED_ITEM('',(#1554),#946);
#896=STYLED_ITEM('',(#1551),#13);
#897=ADVANCED_FACE('',(#251,#243),#833,.F.);
#898=ADVANCED_FACE('',(#252),#206,.T.);
#899=ADVANCED_FACE('',(#253),#834,.T.);
#900=ADVANCED_FACE('',(#254),#207,.T.);
#901=ADVANCED_FACE('',(#255),#208,.T.);
#902=ADVANCED_FACE('',(#256),#209,.T.);
#903=ADVANCED_FACE('',(#257),#835,.T.);
#904=ADVANCED_FACE('',(#258),#210,.T.);
#905=ADVANCED_FACE('',(#259),#211,.F.);
#906=ADVANCED_FACE('',(#260),#212,.T.);
#907=ADVANCED_FACE('',(#261),#836,.T.);
#908=ADVANCED_FACE('',(#262),#213,.T.);
#909=ADVANCED_FACE('',(#263),#837,.T.);
#910=ADVANCED_FACE('',(#264),#214,.T.);
#911=ADVANCED_FACE('',(#265),#215,.T.);
#912=ADVANCED_FACE('',(#266),#216,.F.);
#913=ADVANCED_FACE('',(#267),#217,.T.);
#914=ADVANCED_FACE('',(#268),#838,.F.);
#915=ADVANCED_FACE('',(#269),#218,.T.);
#916=ADVANCED_FACE('',(#270),#839,.T.);
#917=ADVANCED_FACE('',(#271),#219,.T.);
#918=ADVANCED_FACE('',(#272),#220,.T.);
#919=ADVANCED_FACE('',(#273),#221,.F.);
#920=ADVANCED_FACE('',(#274),#222,.T.);
#921=ADVANCED_FACE('',(#275),#223,.T.);
#922=ADVANCED_FACE('',(#276),#840,.T.);
#923=ADVANCED_FACE('',(#277),#224,.T.);
#924=ADVANCED_FACE('',(#278),#841,.T.);
#925=ADVANCED_FACE('',(#279),#225,.T.);
#926=ADVANCED_FACE('',(#280),#226,.F.);
#927=ADVANCED_FACE('',(#281),#227,.T.);
#928=ADVANCED_FACE('',(#282),#842,.T.);
#929=ADVANCED_FACE('',(#283),#228,.T.);
#930=ADVANCED_FACE('',(#284),#843,.T.);
#931=ADVANCED_FACE('',(#285),#229,.T.);
#932=ADVANCED_FACE('',(#286),#230,.T.);
#933=ADVANCED_FACE('',(#287),#231,.F.);
#934=ADVANCED_FACE('',(#288),#232,.T.);
#935=ADVANCED_FACE('',(#289),#844,.T.);
#936=ADVANCED_FACE('',(#290),#233,.T.);
#937=ADVANCED_FACE('',(#291),#845,.T.);
#938=ADVANCED_FACE('',(#292),#234,.T.);
#939=ADVANCED_FACE('',(#293),#235,.T.);
#940=ADVANCED_FACE('',(#294),#236,.F.);
#941=ADVANCED_FACE('',(#295),#237,.T.);
#942=ADVANCED_FACE('',(#296),#238,.T.);
#943=ADVANCED_FACE('',(#297,#244),#239,.T.);
#944=ADVANCED_FACE('',(#298),#240,.T.);
#945=ADVANCED_FACE('',(#299),#241,.T.);
#946=ADVANCED_FACE('',(#300,#245,#246,#247,#248,#249,#250),#242,.F.);
#947=CLOSED_SHELL('',(#897,#898,#899,#900,#901,#902,#903,#904,#905,#906,
#907,#908,#909,#910,#911,#912,#913,#914,#915,#916,#917,#918,#919,#920,#921,
#922,#923,#924,#925,#926,#927,#928,#929,#930,#931,#932,#933,#934,#935,#936,
#937,#938,#939,#940,#941,#942,#943,#944,#945,#946));
#948=AXIS2_PLACEMENT_3D('placement',#1275,#1025,#1026);
#949=AXIS2_PLACEMENT_3D('',#1276,#1027,#1028);
#950=AXIS2_PLACEMENT_3D('',#1278,#1029,#1030);
#951=AXIS2_PLACEMENT_3D('',#1280,#1031,#1032);
#952=AXIS2_PLACEMENT_3D('',#1281,#1033,#1034);
#953=AXIS2_PLACEMENT_3D('',#1282,#1035,#1036);
#954=AXIS2_PLACEMENT_3D('',#1285,#1037,#1038);
#955=AXIS2_PLACEMENT_3D('',#1289,#1040,#1041);
#956=AXIS2_PLACEMENT_3D('',#1291,#1043,#1044);
#957=AXIS2_PLACEMENT_3D('',#1297,#1048,#1049);
#958=AXIS2_PLACEMENT_3D('',#1303,#1053,#1054);
#959=AXIS2_PLACEMENT_3D('',#1309,#1058,#1059);
#960=AXIS2_PLACEMENT_3D('',#1311,#1060,#1061);
#961=AXIS2_PLACEMENT_3D('',#1313,#1062,#1063);
#962=AXIS2_PLACEMENT_3D('',#1315,#1065,#1066);
#963=AXIS2_PLACEMENT_3D('',#1318,#1069,#1070);
#964=AXIS2_PLACEMENT_3D('',#1319,#1071,#1072);
#965=AXIS2_PLACEMENT_3D('',#1328,#1077,#1078);
#966=AXIS2_PLACEMENT_3D('',#1330,#1079,#1080);
#967=AXIS2_PLACEMENT_3D('',#1332,#1081,#1082);
#968=AXIS2_PLACEMENT_3D('',#1334,#1084,#1085);
#969=AXIS2_PLACEMENT_3D('',#1340,#1089,#1090);
#970=AXIS2_PLACEMENT_3D('',#1342,#1091,#1092);
#971=AXIS2_PLACEMENT_3D('',#1344,#1093,#1094);
#972=AXIS2_PLACEMENT_3D('',#1346,#1096,#1097);
#973=AXIS2_PLACEMENT_3D('',#1352,#1101,#1102);
#974=AXIS2_PLACEMENT_3D('',#1355,#1105,#1106);
#975=AXIS2_PLACEMENT_3D('',#1356,#1107,#1108);
#976=AXIS2_PLACEMENT_3D('',#1365,#1113,#1114);
#977=AXIS2_PLACEMENT_3D('',#1367,#1115,#1116);
#978=AXIS2_PLACEMENT_3D('',#1369,#1117,#1118);
#979=AXIS2_PLACEMENT_3D('',#1371,#1120,#1121);
#980=AXIS2_PLACEMENT_3D('',#1377,#1125,#1126);
#981=AXIS2_PLACEMENT_3D('',#1379,#1127,#1128);
#982=AXIS2_PLACEMENT_3D('',#1381,#1129,#1130);
#983=AXIS2_PLACEMENT_3D('',#1383,#1132,#1133);
#984=AXIS2_PLACEMENT_3D('',#1389,#1137,#1138);
#985=AXIS2_PLACEMENT_3D('',#1392,#1141,#1142);
#986=AXIS2_PLACEMENT_3D('',#1393,#1143,#1144);
#987=AXIS2_PLACEMENT_3D('',#1402,#1149,#1150);
#988=AXIS2_PLACEMENT_3D('',#1408,#1154,#1155);
#989=AXIS2_PLACEMENT_3D('',#1410,#1156,#1157);
#990=AXIS2_PLACEMENT_3D('',#1412,#1158,#1159);
#991=AXIS2_PLACEMENT_3D('',#1414,#1161,#1162);
#992=AXIS2_PLACEMENT_3D('',#1420,#1166,#1167);
#993=AXIS2_PLACEMENT_3D('',#1422,#1168,#1169);
#994=AXIS2_PLACEMENT_3D('',#1424,#1170,#1171);
#995=AXIS2_PLACEMENT_3D('',#1426,#1173,#1174);
#996=AXIS2_PLACEMENT_3D('',#1429,#1177,#1178);
#997=AXIS2_PLACEMENT_3D('',#1430,#1179,#1180);
#998=AXIS2_PLACEMENT_3D('',#1439,#1185,#1186);
#999=AXIS2_PLACEMENT_3D('',#1441,#1187,#1188);
#1000=AXIS2_PLACEMENT_3D('',#1443,#1189,#1190);
#1001=AXIS2_PLACEMENT_3D('',#1445,#1192,#1193);
#1002=AXIS2_PLACEMENT_3D('',#1451,#1197,#1198);
#1003=AXIS2_PLACEMENT_3D('',#1453,#1199,#1200);
#1004=AXIS2_PLACEMENT_3D('',#1455,#1201,#1202);
#1005=AXIS2_PLACEMENT_3D('',#1457,#1204,#1205);
#1006=AXIS2_PLACEMENT_3D('',#1463,#1209,#1210);
#1007=AXIS2_PLACEMENT_3D('',#1466,#1213,#1214);
#1008=AXIS2_PLACEMENT_3D('',#1467,#1215,#1216);
#1009=AXIS2_PLACEMENT_3D('',#1476,#1221,#1222);
#1010=AXIS2_PLACEMENT_3D('',#1478,#1223,#1224);
#1011=AXIS2_PLACEMENT_3D('',#1480,#1225,#1226);
#1012=AXIS2_PLACEMENT_3D('',#1482,#1228,#1229);
#1013=AXIS2_PLACEMENT_3D('',#1488,#1233,#1234);
#1014=AXIS2_PLACEMENT_3D('',#1490,#1235,#1236);
#1015=AXIS2_PLACEMENT_3D('',#1492,#1237,#1238);
#1016=AXIS2_PLACEMENT_3D('',#1494,#1240,#1241);
#1017=AXIS2_PLACEMENT_3D('',#1500,#1245,#1246);
#1018=AXIS2_PLACEMENT_3D('',#1503,#1249,#1250);
#1019=AXIS2_PLACEMENT_3D('',#1504,#1251,#1252);
#1020=AXIS2_PLACEMENT_3D('',#1513,#1257,#1258);
#1021=AXIS2_PLACEMENT_3D('',#1519,#1262,#1263);
#1022=AXIS2_PLACEMENT_3D('',#1523,#1266,#1267);
#1023=AXIS2_PLACEMENT_3D('',#1527,#1270,#1271);
#1024=AXIS2_PLACEMENT_3D('',#1529,#1273,#1274);
#1025=DIRECTION('axis',(0.,0.,1.));
#1026=DIRECTION('refdir',(1.,0.,0.));
#1027=DIRECTION('center_axis',(-1.,0.,0.));
#1028=DIRECTION('ref_axis',(0.,0.,1.));
#1029=DIRECTION('center_axis',(-1.,0.,0.));
#1030=DIRECTION('ref_axis',(0.,0.,1.));
#1031=DIRECTION('center_axis',(-1.,0.,0.));
#1032=DIRECTION('ref_axis',(0.,0.,1.));
#1033=DIRECTION('center_axis',(1.,0.,0.));
#1034=DIRECTION('ref_axis',(0.,0.,-1.));
#1035=DIRECTION('center_axis',(-1.,0.,0.));
#1036=DIRECTION('ref_axis',(0.,0.,-1.));
#1037=DIRECTION('center_axis',(1.,0.,0.));
#1038=DIRECTION('ref_axis',(0.,0.,-1.));
#1039=DIRECTION('',(-1.,0.,0.));
#1040=DIRECTION('center_axis',(-1.,0.,0.));
#1041=DIRECTION('ref_axis',(0.,0.,-1.));
#1042=DIRECTION('',(-1.,0.,0.));
#1043=DIRECTION('center_axis',(0.,0.,-1.));
#1044=DIRECTION('ref_axis',(0.,-1.,0.));
#1045=DIRECTION('',(0.,1.,0.));
#1046=DIRECTION('',(0.,-1.,0.));
#1047=DIRECTION('',(-1.,0.,0.));
#1048=DIRECTION('center_axis',(0.,1.,0.));
#1049=DIRECTION('ref_axis',(0.,0.,-1.));
#1050=DIRECTION('',(0.,0.,1.));
#1051=DIRECTION('',(0.,0.,-1.));
#1052=DIRECTION('',(-1.,0.,0.));
#1053=DIRECTION('center_axis',(0.,0.,1.));
#1054=DIRECTION('ref_axis',(0.,1.,0.));
#1055=DIRECTION('',(0.,-1.,0.));
#1056=DIRECTION('',(0.,1.,0.));
#1057=DIRECTION('',(-1.,0.,0.));
#1058=DIRECTION('center_axis',(-1.,0.,0.));
#1059=DIRECTION('ref_axis',(0.,-1.,0.));
#1060=DIRECTION('center_axis',(1.,0.,0.));
#1061=DIRECTION('ref_axis',(0.,-1.,0.));
#1062=DIRECTION('center_axis',(-1.,0.,0.));
#1063=DIRECTION('ref_axis',(0.,-1.,0.));
#1064=DIRECTION('',(-1.,0.,0.));
#1065=DIRECTION('center_axis',(0.,-1.,0.));
#1066=DIRECTION('ref_axis',(0.,0.,1.));
#1067=DIRECTION('',(0.,0.,-1.));
#1068=DIRECTION('',(0.,0.,1.));
#1069=DIRECTION('center_axis',(1.,0.,0.));
#1070=DIRECTION('ref_axis',(0.,0.,-1.));
#1071=DIRECTION('center_axis',(0.,0.,-1.));
#1072=DIRECTION('ref_axis',(0.,-1.,0.));
#1073=DIRECTION('',(0.,1.,0.));
#1074=DIRECTION('',(-1.,0.,0.));
#1075=DIRECTION('',(0.,-1.,0.));
#1076=DIRECTION('',(-1.,0.,0.));
#1077=DIRECTION('center_axis',(-1.,0.,0.));
#1078=DIRECTION('ref_axis',(0.,-1.,0.));
#1079=DIRECTION('center_axis',(1.,0.,0.));
#1080=DIRECTION('ref_axis',(0.,-1.,0.));
#1081=DIRECTION('center_axis',(-1.,0.,0.));
#1082=DIRECTION('ref_axis',(0.,-1.,0.));
#1083=DIRECTION('',(-1.,0.,0.));
#1084=DIRECTION('center_axis',(0.,1.,0.));
#1085=DIRECTION('ref_axis',(0.,0.,-1.));
#1086=DIRECTION('',(0.,0.,1.));
#1087=DIRECTION('',(0.,0.,-1.));
#1088=DIRECTION('',(-1.,0.,0.));
#1089=DIRECTION('center_axis',(-1.,0.,0.));
#1090=DIRECTION('ref_axis',(0.,0.,-1.));
#1091=DIRECTION('center_axis',(1.,0.,0.));
#1092=DIRECTION('ref_axis',(0.,0.,-1.));
#1093=DIRECTION('center_axis',(-1.,0.,0.));
#1094=DIRECTION('ref_axis',(0.,0.,-1.));
#1095=DIRECTION('',(-1.,0.,0.));
#1096=DIRECTION('center_axis',(0.,0.,1.));
#1097=DIRECTION('ref_axis',(0.,1.,0.));
#1098=DIRECTION('',(0.,-1.,0.));
#1099=DIRECTION('',(0.,1.,0.));
#1100=DIRECTION('',(-1.,0.,0.));
#1101=DIRECTION('center_axis',(0.,-1.,0.));
#1102=DIRECTION('ref_axis',(0.,0.,1.));
#1103=DIRECTION('',(0.,0.,-1.));
#1104=DIRECTION('',(0.,0.,1.));
#1105=DIRECTION('center_axis',(1.,0.,0.));
#1106=DIRECTION('ref_axis',(0.,0.,-1.));
#1107=DIRECTION('center_axis',(0.,0.,-1.));
#1108=DIRECTION('ref_axis',(0.,-1.,0.));
#1109=DIRECTION('',(0.,1.,0.));
#1110=DIRECTION('',(-1.,0.,0.));
#1111=DIRECTION('',(0.,-1.,0.));
#1112=DIRECTION('',(-1.,0.,0.));
#1113=DIRECTION('center_axis',(-1.,0.,0.));
#1114=DIRECTION('ref_axis',(0.,1.,0.));
#1115=DIRECTION('center_axis',(-1.,0.,0.));
#1116=DIRECTION('ref_axis',(0.,1.,0.));
#1117=DIRECTION('center_axis',(1.,0.,0.));
#1118=DIRECTION('ref_axis',(0.,1.,0.));
#1119=DIRECTION('',(-1.,0.,0.));
#1120=DIRECTION('center_axis',(0.,1.,0.));
#1121=DIRECTION('ref_axis',(0.,0.,-1.));
#1122=DIRECTION('',(0.,0.,1.));
#1123=DIRECTION('',(0.,0.,-1.));
#1124=DIRECTION('',(-1.,0.,0.));
#1125=DIRECTION('center_axis',(-1.,0.,0.));
#1126=DIRECTION('ref_axis',(0.,0.,1.));
#1127=DIRECTION('center_axis',(1.,0.,0.));
#1128=DIRECTION('ref_axis',(0.,0.,1.));
#1129=DIRECTION('center_axis',(-1.,0.,0.));
#1130=DIRECTION('ref_axis',(0.,0.,1.));
#1131=DIRECTION('',(-1.,0.,0.));
#1132=DIRECTION('center_axis',(0.,0.,1.));
#1133=DIRECTION('ref_axis',(0.,1.,0.));
#1134=DIRECTION('',(0.,-1.,0.));
#1135=DIRECTION('',(0.,1.,0.));
#1136=DIRECTION('',(-1.,0.,0.));
#1137=DIRECTION('center_axis',(0.,-1.,0.));
#1138=DIRECTION('ref_axis',(0.,0.,1.));
#1139=DIRECTION('',(0.,0.,-1.));
#1140=DIRECTION('',(0.,0.,1.));
#1141=DIRECTION('center_axis',(1.,0.,0.));
#1142=DIRECTION('ref_axis',(0.,0.,-1.));
#1143=DIRECTION('center_axis',(0.,-1.,0.));
#1144=DIRECTION('ref_axis',(0.,0.,1.));
#1145=DIRECTION('',(0.,0.,-1.));
#1146=DIRECTION('',(-1.,0.,0.));
#1147=DIRECTION('',(0.,0.,1.));
#1148=DIRECTION('',(-1.,0.,0.));
#1149=DIRECTION('center_axis',(0.,0.,-1.));
#1150=DIRECTION('ref_axis',(0.,-1.,0.));
#1151=DIRECTION('',(0.,1.,0.));
#1152=DIRECTION('',(0.,-1.,0.));
#1153=DIRECTION('',(-1.,0.,0.));
#1154=DIRECTION('center_axis',(-1.,0.,0.));
#1155=DIRECTION('ref_axis',(0.,1.,1.73472347597681E-16));
#1156=DIRECTION('center_axis',(1.,0.,0.));
#1157=DIRECTION('ref_axis',(0.,1.,1.73472347597681E-16));
#1158=DIRECTION('center_axis',(-1.,0.,0.));
#1159=DIRECTION('ref_axis',(0.,1.,1.73472347597681E-16));
#1160=DIRECTION('',(-1.,0.,0.));
#1161=DIRECTION('center_axis',(0.,1.,0.));
#1162=DIRECTION('ref_axis',(0.,0.,-1.));
#1163=DIRECTION('',(0.,0.,1.));
#1164=DIRECTION('',(0.,0.,-1.));
#1165=DIRECTION('',(-1.,0.,0.));
#1166=DIRECTION('center_axis',(-1.,0.,0.));
#1167=DIRECTION('ref_axis',(0.,0.,1.));
#1168=DIRECTION('center_axis',(1.,0.,0.));
#1169=DIRECTION('ref_axis',(0.,0.,1.));
#1170=DIRECTION('center_axis',(-1.,0.,0.));
#1171=DIRECTION('ref_axis',(0.,0.,1.));
#1172=DIRECTION('',(-1.,0.,0.));
#1173=DIRECTION('center_axis',(0.,0.,1.));
#1174=DIRECTION('ref_axis',(0.,1.,0.));
#1175=DIRECTION('',(0.,-1.,0.));
#1176=DIRECTION('',(0.,1.,0.));
#1177=DIRECTION('center_axis',(1.,0.,0.));
#1178=DIRECTION('ref_axis',(0.,0.,-1.));
#1179=DIRECTION('center_axis',(0.,0.,1.));
#1180=DIRECTION('ref_axis',(0.,1.,0.));
#1181=DIRECTION('',(0.,-1.,0.));
#1182=DIRECTION('',(-1.,0.,0.));
#1183=DIRECTION('',(0.,1.,0.));
#1184=DIRECTION('',(-1.,0.,0.));
#1185=DIRECTION('center_axis',(-1.,0.,0.));
#1186=DIRECTION('ref_axis',(0.,-1.,8.67361737988403E-17));
#1187=DIRECTION('center_axis',(1.,0.,0.));
#1188=DIRECTION('ref_axis',(0.,-1.,8.67361737988403E-17));
#1189=DIRECTION('center_axis',(-1.,0.,0.));
#1190=DIRECTION('ref_axis',(0.,-1.,8.67361737988403E-17));
#1191=DIRECTION('',(-1.,0.,0.));
#1192=DIRECTION('center_axis',(0.,-1.,0.));
#1193=DIRECTION('ref_axis',(0.,0.,1.));
#1194=DIRECTION('',(0.,0.,-1.));
#1195=DIRECTION('',(0.,0.,1.));
#1196=DIRECTION('',(-1.,0.,0.));
#1197=DIRECTION('center_axis',(-1.,0.,0.));
#1198=DIRECTION('ref_axis',(0.,0.,-1.));
#1199=DIRECTION('center_axis',(1.,0.,0.));
#1200=DIRECTION('ref_axis',(0.,0.,-1.));
#1201=DIRECTION('center_axis',(-1.,0.,0.));
#1202=DIRECTION('ref_axis',(0.,0.,-1.));
#1203=DIRECTION('',(-1.,0.,0.));
#1204=DIRECTION('center_axis',(0.,0.,-1.));
#1205=DIRECTION('ref_axis',(0.,-1.,0.));
#1206=DIRECTION('',(0.,1.,0.));
#1207=DIRECTION('',(0.,-1.,0.));
#1208=DIRECTION('',(-1.,0.,0.));
#1209=DIRECTION('center_axis',(0.,1.,0.));
#1210=DIRECTION('ref_axis',(0.,0.,-1.));
#1211=DIRECTION('',(0.,0.,1.));
#1212=DIRECTION('',(0.,0.,-1.));
#1213=DIRECTION('center_axis',(1.,0.,0.));
#1214=DIRECTION('ref_axis',(0.,0.,-1.));
#1215=DIRECTION('center_axis',(0.,0.,1.));
#1216=DIRECTION('ref_axis',(0.,1.,0.));
#1217=DIRECTION('',(0.,-1.,0.));
#1218=DIRECTION('',(-1.,0.,0.));
#1219=DIRECTION('',(0.,1.,0.));
#1220=DIRECTION('',(-1.,0.,0.));
#1221=DIRECTION('center_axis',(-1.,0.,0.));
#1222=DIRECTION('ref_axis',(0.,-1.,0.));
#1223=DIRECTION('center_axis',(1.,0.,0.));
#1224=DIRECTION('ref_axis',(0.,-1.,0.));
#1225=DIRECTION('center_axis',(-1.,0.,0.));
#1226=DIRECTION('ref_axis',(0.,-1.,0.));
#1227=DIRECTION('',(-1.,0.,0.));
#1228=DIRECTION('center_axis',(0.,-1.,0.));
#1229=DIRECTION('ref_axis',(0.,0.,1.));
#1230=DIRECTION('',(0.,0.,-1.));
#1231=DIRECTION('',(0.,0.,1.));
#1232=DIRECTION('',(-1.,0.,0.));
#1233=DIRECTION('center_axis',(-1.,0.,0.));
#1234=DIRECTION('ref_axis',(0.,0.,-1.));
#1235=DIRECTION('center_axis',(1.,0.,0.));
#1236=DIRECTION('ref_axis',(0.,0.,-1.));
#1237=DIRECTION('center_axis',(-1.,0.,0.));
#1238=DIRECTION('ref_axis',(0.,0.,-1.));
#1239=DIRECTION('',(-1.,0.,0.));
#1240=DIRECTION('center_axis',(0.,0.,-1.));
#1241=DIRECTION('ref_axis',(0.,-1.,0.));
#1242=DIRECTION('',(0.,1.,0.));
#1243=DIRECTION('',(0.,-1.,0.));
#1244=DIRECTION('',(-1.,0.,0.));
#1245=DIRECTION('center_axis',(0.,1.,0.));
#1246=DIRECTION('ref_axis',(0.,0.,-1.));
#1247=DIRECTION('',(0.,0.,1.));
#1248=DIRECTION('',(0.,0.,-1.));
#1249=DIRECTION('center_axis',(1.,0.,0.));
#1250=DIRECTION('ref_axis',(0.,0.,-1.));
#1251=DIRECTION('center_axis',(0.0623782861551806,0.998052578482889,0.));
#1252=DIRECTION('ref_axis',(0.,0.,1.));
#1253=DIRECTION('',(0.996116490183504,-0.0622572806364691,-0.0622572806364691));
#1254=DIRECTION('',(0.,0.,-1.));
#1255=DIRECTION('',(-0.996116490183504,0.0622572806364691,-0.0622572806364691));
#1256=DIRECTION('',(0.,0.,-1.));
#1257=DIRECTION('center_axis',(0.0623782861551806,0.,-0.998052578482889));
#1258=DIRECTION('ref_axis',(-0.998052578482889,0.,-0.0623782861551806));
#1259=DIRECTION('',(0.,-1.,0.));
#1260=DIRECTION('',(0.996116490183504,0.0622572806364691,0.0622572806364691));
#1261=DIRECTION('',(0.,-1.,0.));
#1262=DIRECTION('center_axis',(1.,0.,0.));
#1263=DIRECTION('ref_axis',(0.,0.,-1.));
#1264=DIRECTION('',(0.,1.,0.));
#1265=DIRECTION('',(0.,0.,1.));
#1266=DIRECTION('center_axis',(0.0623782861551806,-0.998052578482889,0.));
#1267=DIRECTION('ref_axis',(0.,0.,-1.));
#1268=DIRECTION('',(-0.996116490183504,-0.0622572806364691,0.0622572806364691));
#1269=DIRECTION('',(0.,0.,1.));
#1270=DIRECTION('center_axis',(0.0623782861551806,0.,0.998052578482889));
#1271=DIRECTION('ref_axis',(0.998052578482889,0.,-0.0623782861551806));
#1272=DIRECTION('',(0.,1.,0.));
#1273=DIRECTION('center_axis',(1.,0.,0.));
#1274=DIRECTION('ref_axis',(0.,0.,-1.));
#1275=CARTESIAN_POINT('',(0.,0.,0.));
#1276=CARTESIAN_POINT('Origin',(0.8,-0.95,1.95));
#1277=CARTESIAN_POINT('',(0.76,-0.95,1.75));
#1278=CARTESIAN_POINT('Origin',(0.76,-0.95,1.95));
#1279=CARTESIAN_POINT('',(0.8,-0.95,1.75));
#1280=CARTESIAN_POINT('Origin',(0.8,-0.95,1.95));
#1281=CARTESIAN_POINT('Origin',(0.76,-0.95,1.95));
#1282=CARTESIAN_POINT('Origin',(0.,0.8,1.15));
#1283=CARTESIAN_POINT('',(0.,0.6,1.15));
#1284=CARTESIAN_POINT('',(0.,0.8,0.95));
#1285=CARTESIAN_POINT('Origin',(0.,0.8,1.15));
#1286=CARTESIAN_POINT('',(-0.05,0.6,1.15));
#1287=CARTESIAN_POINT('',(0.,0.6,1.15));
#1288=CARTESIAN_POINT('',(-0.05,0.8,0.95));
#1289=CARTESIAN_POINT('Origin',(-0.05,0.8,1.15));
#1290=CARTESIAN_POINT('',(0.,0.8,0.95));
#1291=CARTESIAN_POINT('Origin',(0.,1.5,0.95));
#1292=CARTESIAN_POINT('',(0.,1.5,0.95));
#1293=CARTESIAN_POINT('',(0.,0.75,0.95));
#1294=CARTESIAN_POINT('',(-0.05,1.5,0.95));
#1295=CARTESIAN_POINT('',(-0.05,1.5,0.95));
#1296=CARTESIAN_POINT('',(0.,1.5,0.95));
#1297=CARTESIAN_POINT('Origin',(0.,1.5,1.59));
#1298=CARTESIAN_POINT('',(0.,1.5,1.59));
#1299=CARTESIAN_POINT('',(0.,1.5,0.795));
#1300=CARTESIAN_POINT('',(-0.05,1.5,1.59));
#1301=CARTESIAN_POINT('',(-0.05,1.5,1.59));
#1302=CARTESIAN_POINT('',(0.,1.5,1.59));
#1303=CARTESIAN_POINT('Origin',(0.,0.8,1.59));
#1304=CARTESIAN_POINT('',(0.,0.8,1.59));
#1305=CARTESIAN_POINT('',(0.,0.4,1.59));
#1306=CARTESIAN_POINT('',(-0.05,0.8,1.59));
#1307=CARTESIAN_POINT('',(-0.05,0.8,1.59));
#1308=CARTESIAN_POINT('',(0.,0.8,1.59));
#1309=CARTESIAN_POINT('Origin',(0.,0.8,1.39));
#1310=CARTESIAN_POINT('',(0.,0.6,1.39));
#1311=CARTESIAN_POINT('Origin',(0.,0.8,1.39));
#1312=CARTESIAN_POINT('',(-0.05,0.6,1.39));
#1313=CARTESIAN_POINT('Origin',(-0.05,0.8,1.39));
#1314=CARTESIAN_POINT('',(0.,0.6,1.39));
#1315=CARTESIAN_POINT('Origin',(0.,0.6,1.15));
#1316=CARTESIAN_POINT('',(0.,0.6,0.575));
#1317=CARTESIAN_POINT('',(-0.05,0.6,1.15));
#1318=CARTESIAN_POINT('Origin',(-0.05,1.10168226015948,1.27));
#1319=CARTESIAN_POINT('Origin',(0.,-0.8,-1.59));
#1320=CARTESIAN_POINT('',(0.,-1.5,-1.59));
#1321=CARTESIAN_POINT('',(0.,-0.8,-1.59));
#1322=CARTESIAN_POINT('',(0.,-0.4,-1.59));
#1323=CARTESIAN_POINT('',(-0.05,-1.5,-1.59));
#1324=CARTESIAN_POINT('',(0.,-1.5,-1.59));
#1325=CARTESIAN_POINT('',(-0.05,-0.8,-1.59));
#1326=CARTESIAN_POINT('',(-0.05,-1.5,-1.59));
#1327=CARTESIAN_POINT('',(0.,-0.8,-1.59));
#1328=CARTESIAN_POINT('Origin',(0.,-0.8,-1.39));
#1329=CARTESIAN_POINT('',(0.,-0.6,-1.39));
#1330=CARTESIAN_POINT('Origin',(0.,-0.8,-1.39));
#1331=CARTESIAN_POINT('',(-0.05,-0.6,-1.39));
#1332=CARTESIAN_POINT('Origin',(-0.05,-0.8,-1.39));
#1333=CARTESIAN_POINT('',(0.,-0.6,-1.39));
#1334=CARTESIAN_POINT('Origin',(0.,-0.6,-1.15));
#1335=CARTESIAN_POINT('',(0.,-0.6,-1.15));
#1336=CARTESIAN_POINT('',(0.,-0.6,-0.575));
#1337=CARTESIAN_POINT('',(-0.05,-0.6,-1.15));
#1338=CARTESIAN_POINT('',(-0.05,-0.6,-1.39));
#1339=CARTESIAN_POINT('',(0.,-0.6,-1.15));
#1340=CARTESIAN_POINT('Origin',(0.,-0.8,-1.15));
#1341=CARTESIAN_POINT('',(0.,-0.8,-0.95));
#1342=CARTESIAN_POINT('Origin',(0.,-0.8,-1.15));
#1343=CARTESIAN_POINT('',(-0.05,-0.8,-0.95));
#1344=CARTESIAN_POINT('Origin',(-0.05,-0.8,-1.15));
#1345=CARTESIAN_POINT('',(0.,-0.8,-0.95));
#1346=CARTESIAN_POINT('Origin',(0.,-1.5,-0.95));
#1347=CARTESIAN_POINT('',(0.,-1.5,-0.95));
#1348=CARTESIAN_POINT('',(0.,-0.75,-0.95));
#1349=CARTESIAN_POINT('',(-0.05,-1.5,-0.95));
#1350=CARTESIAN_POINT('',(-0.05,-0.8,-0.95));
#1351=CARTESIAN_POINT('',(0.,-1.5,-0.95));
#1352=CARTESIAN_POINT('Origin',(0.,-1.5,-1.59));
#1353=CARTESIAN_POINT('',(0.,-1.5,-0.795));
#1354=CARTESIAN_POINT('',(-0.05,-1.5,-0.95));
#1355=CARTESIAN_POINT('Origin',(-0.05,-1.10168226015948,-1.27));
#1356=CARTESIAN_POINT('Origin',(0.,-0.9,0.95));
#1357=CARTESIAN_POINT('',(0.,-1.5,0.95));
#1358=CARTESIAN_POINT('',(0.,-0.9,0.95));
#1359=CARTESIAN_POINT('',(0.,-0.45,0.95));
#1360=CARTESIAN_POINT('',(-0.05,-1.5,0.95));
#1361=CARTESIAN_POINT('',(0.,-1.5,0.95));
#1362=CARTESIAN_POINT('',(-0.05,-0.9,0.95));
#1363=CARTESIAN_POINT('',(-0.05,-0.9,0.95));
#1364=CARTESIAN_POINT('',(0.,-0.9,0.95));
#1365=CARTESIAN_POINT('Origin',(0.,-0.6,0.95));
#1366=CARTESIAN_POINT('',(0.,-0.6,1.25));
#1367=CARTESIAN_POINT('Origin',(0.,-0.6,0.95));
#1368=CARTESIAN_POINT('',(-0.05,-0.6,1.25));
#1369=CARTESIAN_POINT('Origin',(-0.05,-0.6,0.95));
#1370=CARTESIAN_POINT('',(0.,-0.6,1.25));
#1371=CARTESIAN_POINT('Origin',(0.,-0.6,1.39));
#1372=CARTESIAN_POINT('',(0.,-0.6,1.39));
#1373=CARTESIAN_POINT('',(0.,-0.6,0.695));
#1374=CARTESIAN_POINT('',(-0.05,-0.6,1.39));
#1375=CARTESIAN_POINT('',(-0.05,-0.6,1.39));
#1376=CARTESIAN_POINT('',(0.,-0.6,1.39));
#1377=CARTESIAN_POINT('Origin',(0.,-0.8,1.39));
#1378=CARTESIAN_POINT('',(0.,-0.8,1.59));
#1379=CARTESIAN_POINT('Origin',(0.,-0.8,1.39));
#1380=CARTESIAN_POINT('',(-0.05,-0.8,1.59));
#1381=CARTESIAN_POINT('Origin',(-0.05,-0.8,1.39));
#1382=CARTESIAN_POINT('',(0.,-0.8,1.59));
#1383=CARTESIAN_POINT('Origin',(0.,-1.5,1.59));
#1384=CARTESIAN_POINT('',(0.,-1.5,1.59));
#1385=CARTESIAN_POINT('',(0.,-0.75,1.59));
#1386=CARTESIAN_POINT('',(-0.05,-1.5,1.59));
#1387=CARTESIAN_POINT('',(-0.05,-1.5,1.59));
#1388=CARTESIAN_POINT('',(0.,-1.5,1.59));
#1389=CARTESIAN_POINT('Origin',(0.,-1.5,0.95));
#1390=CARTESIAN_POINT('',(0.,-1.5,0.475));
#1391=CARTESIAN_POINT('',(-0.05,-1.5,0.95));
#1392=CARTESIAN_POINT('Origin',(-0.05,-1.12663855476623,1.28936159884585));
#1393=CARTESIAN_POINT('Origin',(0.,-1.5,-0.32));
#1394=CARTESIAN_POINT('',(0.,-1.5,0.32));
#1395=CARTESIAN_POINT('',(0.,-1.5,-0.32));
#1396=CARTESIAN_POINT('',(0.,-1.5,-0.16));
#1397=CARTESIAN_POINT('',(-0.05,-1.5,0.32));
#1398=CARTESIAN_POINT('',(0.,-1.5,0.32));
#1399=CARTESIAN_POINT('',(-0.05,-1.5,-0.32));
#1400=CARTESIAN_POINT('',(-0.05,-1.5,-0.32));
#1401=CARTESIAN_POINT('',(0.,-1.5,-0.32));
#1402=CARTESIAN_POINT('Origin',(0.,-0.8,-0.32));
#1403=CARTESIAN_POINT('',(0.,-0.8,-0.32));
#1404=CARTESIAN_POINT('',(0.,-0.4,-0.32));
#1405=CARTESIAN_POINT('',(-0.05,-0.8,-0.32));
#1406=CARTESIAN_POINT('',(-0.05,-0.8,-0.32));
#1407=CARTESIAN_POINT('',(0.,-0.8,-0.32));
#1408=CARTESIAN_POINT('Origin',(0.,-0.8,-0.12));
#1409=CARTESIAN_POINT('',(0.,-0.6,-0.12));
#1410=CARTESIAN_POINT('Origin',(0.,-0.8,-0.12));
#1411=CARTESIAN_POINT('',(-0.05,-0.6,-0.12));
#1412=CARTESIAN_POINT('Origin',(-0.05,-0.8,-0.12));
#1413=CARTESIAN_POINT('',(0.,-0.6,-0.12));
#1414=CARTESIAN_POINT('Origin',(0.,-0.6,0.12));
#1415=CARTESIAN_POINT('',(0.,-0.6,0.12));
#1416=CARTESIAN_POINT('',(0.,-0.6,0.06));
#1417=CARTESIAN_POINT('',(-0.05,-0.6,0.12));
#1418=CARTESIAN_POINT('',(-0.05,-0.6,0.12));
#1419=CARTESIAN_POINT('',(0.,-0.6,0.12));
#1420=CARTESIAN_POINT('Origin',(0.,-0.8,0.12));
#1421=CARTESIAN_POINT('',(0.,-0.8,0.32));
#1422=CARTESIAN_POINT('Origin',(0.,-0.8,0.12));
#1423=CARTESIAN_POINT('',(-0.05,-0.8,0.32));
#1424=CARTESIAN_POINT('Origin',(-0.05,-0.8,0.12));
#1425=CARTESIAN_POINT('',(0.,-0.8,0.32));
#1426=CARTESIAN_POINT('Origin',(0.,-1.5,0.32));
#1427=CARTESIAN_POINT('',(0.,-0.75,0.32));
#1428=CARTESIAN_POINT('',(-0.05,-1.5,0.32));
#1429=CARTESIAN_POINT('Origin',(-0.05,-1.10168226015948,0.));
#1430=CARTESIAN_POINT('Origin',(0.,0.8,0.32));
#1431=CARTESIAN_POINT('',(0.,1.5,0.32));
#1432=CARTESIAN_POINT('',(0.,0.8,0.32));
#1433=CARTESIAN_POINT('',(0.,0.4,0.32));
#1434=CARTESIAN_POINT('',(-0.05,1.5,0.32));
#1435=CARTESIAN_POINT('',(0.,1.5,0.32));
#1436=CARTESIAN_POINT('',(-0.05,0.8,0.32));
#1437=CARTESIAN_POINT('',(-0.05,0.8,0.32));
#1438=CARTESIAN_POINT('',(0.,0.8,0.32));
#1439=CARTESIAN_POINT('Origin',(0.,0.8,0.12));
#1440=CARTESIAN_POINT('',(0.,0.6,0.12));
#1441=CARTESIAN_POINT('Origin',(0.,0.8,0.12));
#1442=CARTESIAN_POINT('',(-0.05,0.6,0.12));
#1443=CARTESIAN_POINT('Origin',(-0.05,0.8,0.12));
#1444=CARTESIAN_POINT('',(0.,0.6,0.12));
#1445=CARTESIAN_POINT('Origin',(0.,0.6,-0.12));
#1446=CARTESIAN_POINT('',(0.,0.6,-0.12));
#1447=CARTESIAN_POINT('',(0.,0.6,-0.06));
#1448=CARTESIAN_POINT('',(-0.05,0.6,-0.12));
#1449=CARTESIAN_POINT('',(-0.05,0.6,-0.12));
#1450=CARTESIAN_POINT('',(0.,0.6,-0.12));
#1451=CARTESIAN_POINT('Origin',(0.,0.8,-0.12));
#1452=CARTESIAN_POINT('',(0.,0.8,-0.32));
#1453=CARTESIAN_POINT('Origin',(0.,0.8,-0.12));
#1454=CARTESIAN_POINT('',(-0.05,0.8,-0.32));
#1455=CARTESIAN_POINT('Origin',(-0.05,0.8,-0.12));
#1456=CARTESIAN_POINT('',(0.,0.8,-0.32));
#1457=CARTESIAN_POINT('Origin',(0.,1.5,-0.32));
#1458=CARTESIAN_POINT('',(0.,1.5,-0.32));
#1459=CARTESIAN_POINT('',(0.,0.75,-0.32));
#1460=CARTESIAN_POINT('',(-0.05,1.5,-0.32));
#1461=CARTESIAN_POINT('',(-0.05,1.5,-0.32));
#1462=CARTESIAN_POINT('',(0.,1.5,-0.32));
#1463=CARTESIAN_POINT('Origin',(0.,1.5,0.32));
#1464=CARTESIAN_POINT('',(0.,1.5,0.16));
#1465=CARTESIAN_POINT('',(-0.05,1.5,0.32));
#1466=CARTESIAN_POINT('Origin',(-0.05,1.10168226015948,0.));
#1467=CARTESIAN_POINT('Origin',(0.,0.8,-0.95));
#1468=CARTESIAN_POINT('',(0.,1.5,-0.95));
#1469=CARTESIAN_POINT('',(0.,0.8,-0.95));
#1470=CARTESIAN_POINT('',(0.,0.4,-0.95));
#1471=CARTESIAN_POINT('',(-0.05,1.5,-0.95));
#1472=CARTESIAN_POINT('',(0.,1.5,-0.95));
#1473=CARTESIAN_POINT('',(-0.05,0.8,-0.95));
#1474=CARTESIAN_POINT('',(-0.05,0.8,-0.95));
#1475=CARTESIAN_POINT('',(0.,0.8,-0.95));
#1476=CARTESIAN_POINT('Origin',(0.,0.8,-1.15));
#1477=CARTESIAN_POINT('',(0.,0.6,-1.15));
#1478=CARTESIAN_POINT('Origin',(0.,0.8,-1.15));
#1479=CARTESIAN_POINT('',(-0.05,0.6,-1.15));
#1480=CARTESIAN_POINT('Origin',(-0.05,0.8,-1.15));
#1481=CARTESIAN_POINT('',(0.,0.6,-1.15));
#1482=CARTESIAN_POINT('Origin',(0.,0.6,-1.39));
#1483=CARTESIAN_POINT('',(0.,0.6,-1.39));
#1484=CARTESIAN_POINT('',(0.,0.6,-0.695));
#1485=CARTESIAN_POINT('',(-0.05,0.6,-1.39));
#1486=CARTESIAN_POINT('',(-0.05,0.6,-1.39));
#1487=CARTESIAN_POINT('',(0.,0.6,-1.39));
#1488=CARTESIAN_POINT('Origin',(0.,0.8,-1.39));
#1489=CARTESIAN_POINT('',(0.,0.8,-1.59));
#1490=CARTESIAN_POINT('Origin',(0.,0.8,-1.39));
#1491=CARTESIAN_POINT('',(-0.05,0.8,-1.59));
#1492=CARTESIAN_POINT('Origin',(-0.05,0.8,-1.39));
#1493=CARTESIAN_POINT('',(0.,0.8,-1.59));
#1494=CARTESIAN_POINT('Origin',(0.,1.5,-1.59));
#1495=CARTESIAN_POINT('',(0.,1.5,-1.59));
#1496=CARTESIAN_POINT('',(0.,0.75,-1.59));
#1497=CARTESIAN_POINT('',(-0.05,1.5,-1.59));
#1498=CARTESIAN_POINT('',(-0.05,1.5,-1.59));
#1499=CARTESIAN_POINT('',(0.,1.5,-1.59));
#1500=CARTESIAN_POINT('Origin',(0.,1.5,-0.95));
#1501=CARTESIAN_POINT('',(0.,1.5,-0.475));
#1502=CARTESIAN_POINT('',(-0.05,1.5,-0.95));
#1503=CARTESIAN_POINT('Origin',(-0.05,1.10168226015948,-1.27));
#1504=CARTESIAN_POINT('Origin',(0.4,1.575,-1.25));
#1505=CARTESIAN_POINT('',(0.,1.6,2.5));
#1506=CARTESIAN_POINT('',(0.8,1.55,2.45));
#1507=CARTESIAN_POINT('',(0.53953488372093,1.56627906976744,2.46627906976744));
#1508=CARTESIAN_POINT('',(0.8,1.55,-2.45));
#1509=CARTESIAN_POINT('',(0.8,1.55,-1.25));
#1510=CARTESIAN_POINT('',(0.,1.6,-2.5));
#1511=CARTESIAN_POINT('',(0.511627906976744,1.56802325581395,-2.46802325581395));
#1512=CARTESIAN_POINT('',(0.,1.6,2.5));
#1513=CARTESIAN_POINT('Origin',(0.4,-0.8,-2.475));
#1514=CARTESIAN_POINT('',(0.8,-1.55,-2.45));
#1515=CARTESIAN_POINT('',(0.8,-0.8,-2.45));
#1516=CARTESIAN_POINT('',(0.,-1.6,-2.5));
#1517=CARTESIAN_POINT('',(0.53953488372093,-1.56627906976744,-2.46627906976744));
#1518=CARTESIAN_POINT('',(0.,1.6,-2.5));
#1519=CARTESIAN_POINT('Origin',(0.8,0.,0.));
#1520=CARTESIAN_POINT('',(0.8,-1.55,2.45));
#1521=CARTESIAN_POINT('',(0.8,0.8,2.45));
#1522=CARTESIAN_POINT('',(0.8,-1.55,1.25));
#1523=CARTESIAN_POINT('Origin',(0.4,-1.575,1.25));
#1524=CARTESIAN_POINT('',(0.,-1.6,2.5));
#1525=CARTESIAN_POINT('',(0.511627906976744,-1.56802325581395,2.46802325581395));
#1526=CARTESIAN_POINT('',(0.,-1.6,-2.5));
#1527=CARTESIAN_POINT('Origin',(0.4,0.8,2.475));
#1528=CARTESIAN_POINT('',(0.,-1.6,2.5));
#1529=CARTESIAN_POINT('Origin',(0.,0.,0.));
#1530=UNCERTAINTY_MEASURE_WITH_UNIT(LENGTH_MEASURE(0.01),#1534,
'DISTANCE_ACCURACY_VALUE',
'Maximum model space distance between geometric entities at asserted c
onnectivities');
#1531=UNCERTAINTY_MEASURE_WITH_UNIT(LENGTH_MEASURE(1.E-6),#1534,
'DISTANCE_ACCURACY_VALUE',
'Maximum model space distance between geometric entities at asserted c
onnectivities');
#1532=(
GEOMETRIC_REPRESENTATION_CONTEXT(3)
GLOBAL_UNCERTAINTY_ASSIGNED_CONTEXT((#1530))
GLOBAL_UNIT_ASSIGNED_CONTEXT((#1534,#1537,#1535))
REPRESENTATION_CONTEXT('','3D')
);
#1533=(
GEOMETRIC_REPRESENTATION_CONTEXT(3)
GLOBAL_UNCERTAINTY_ASSIGNED_CONTEXT((#1531))
GLOBAL_UNIT_ASSIGNED_CONTEXT((#1534,#1537,#1535))
REPRESENTATION_CONTEXT('','3D')
);
#1534=(
LENGTH_UNIT()
NAMED_UNIT(*)
SI_UNIT(.MILLI.,.METRE.)
);
#1535=(
NAMED_UNIT(*)
SI_UNIT($,.STERADIAN.)
SOLID_ANGLE_UNIT()
);
#1536=DIMENSIONAL_EXPONENTS(0.,0.,0.,0.,0.,0.,0.);
#1537=(
CONVERSION_BASED_UNIT('degree',#1539)
NAMED_UNIT(#1536)
PLANE_ANGLE_UNIT()
);
#1538=(
NAMED_UNIT(*)
PLANE_ANGLE_UNIT()
SI_UNIT($,.RADIAN.)
);
#1539=PLANE_ANGLE_MEASURE_WITH_UNIT(PLANE_ANGLE_MEASURE(0.01745329252),
#1538);
#1540=SHAPE_DEFINITION_REPRESENTATION(#1541,#1542);
#1541=PRODUCT_DEFINITION_SHAPE('',$,#1544);
#1542=SHAPE_REPRESENTATION('',(#948),#1532);
#1543=PRODUCT_DEFINITION_CONTEXT('part definition',#1548,'design');
#1544=PRODUCT_DEFINITION('QFN_5032_6pins','QFN_5032_6pins',#1545,#1543);
#1545=PRODUCT_DEFINITION_FORMATION('',$,#1550);
#1546=PRODUCT_RELATED_PRODUCT_CATEGORY('QFN_5032_6pins',
'QFN_5032_6pins',(#1550));
#1547=APPLICATION_PROTOCOL_DEFINITION('international standard',
'automotive_design',2009,#1548);
#1548=APPLICATION_CONTEXT(
'Core Data for Automotive Mechanical Design Process');
#1549=PRODUCT_CONTEXT('part definition',#1548,'mechanical');
#1550=PRODUCT('QFN_5032_6pins','QFN_5032_6pins',$,(#1549));
#1551=PRESENTATION_STYLE_ASSIGNMENT((#1555));
#1552=PRESENTATION_STYLE_ASSIGNMENT((#1556));
#1553=PRESENTATION_STYLE_ASSIGNMENT((#1557));
#1554=PRESENTATION_STYLE_ASSIGNMENT((#1558));
#1555=SURFACE_STYLE_USAGE(.BOTH.,#1559);
#1556=SURFACE_STYLE_USAGE(.BOTH.,#1560);
#1557=SURFACE_STYLE_USAGE(.BOTH.,#1561);
#1558=SURFACE_STYLE_USAGE(.BOTH.,#1562);
#1559=SURFACE_SIDE_STYLE($,(#1563));
#1560=SURFACE_SIDE_STYLE($,(#1564));
#1561=SURFACE_SIDE_STYLE($,(#1565));
#1562=SURFACE_SIDE_STYLE($,(#1566));
#1563=SURFACE_STYLE_FILL_AREA(#1567);
#1564=SURFACE_STYLE_FILL_AREA(#1568);
#1565=SURFACE_STYLE_FILL_AREA(#1569);
#1566=SURFACE_STYLE_FILL_AREA(#1570);
#1567=FILL_AREA_STYLE($,(#1571));
#1568=FILL_AREA_STYLE($,(#1572));
#1569=FILL_AREA_STYLE($,(#1573));
#1570=FILL_AREA_STYLE($,(#1574));
#1571=FILL_AREA_STYLE_COLOUR($,#1575);
#1572=FILL_AREA_STYLE_COLOUR($,#1576);
#1573=FILL_AREA_STYLE_COLOUR($,#1577);
#1574=FILL_AREA_STYLE_COLOUR($,#1578);
#1575=COLOUR_RGB('',0.749019607843137,0.749019607843137,0.749019607843137);
#1576=COLOUR_RGB('',0.96078431372549,0.96078431372549,0.96078431372549);
#1577=COLOUR_RGB('',0.968627450980392,0.933333333333333,0.792156862745098);
#1578=COLOUR_RGB('',0.,0.,0.);
ENDSEC;
END-ISO-10303-21;
